%TF.GenerationSoftware,KiCad,Pcbnew,9.0.6-9.0.6~ubuntu24.04.1*%
%TF.CreationDate,2025-12-08T02:07:05+01:00*%
%TF.ProjectId,PSU_V1,5053555f-5631-42e6-9b69-6361645f7063,rev?*%
%TF.SameCoordinates,Original*%
%TF.FileFunction,Copper,L2,Bot*%
%TF.FilePolarity,Positive*%
%FSLAX46Y46*%
G04 Gerber Fmt 4.6, Leading zero omitted, Abs format (unit mm)*
G04 Created by KiCad (PCBNEW 9.0.6-9.0.6~ubuntu24.04.1) date 2025-12-08 02:07:05*
%MOMM*%
%LPD*%
G01*
G04 APERTURE LIST*
G04 Aperture macros list*
%AMRoundRect*
0 Rectangle with rounded corners*
0 $1 Rounding radius*
0 $2 $3 $4 $5 $6 $7 $8 $9 X,Y pos of 4 corners*
0 Add a 4 corners polygon primitive as box body*
4,1,4,$2,$3,$4,$5,$6,$7,$8,$9,$2,$3,0*
0 Add four circle primitives for the rounded corners*
1,1,$1+$1,$2,$3*
1,1,$1+$1,$4,$5*
1,1,$1+$1,$6,$7*
1,1,$1+$1,$8,$9*
0 Add four rect primitives between the rounded corners*
20,1,$1+$1,$2,$3,$4,$5,0*
20,1,$1+$1,$4,$5,$6,$7,0*
20,1,$1+$1,$6,$7,$8,$9,0*
20,1,$1+$1,$8,$9,$2,$3,0*%
G04 Aperture macros list end*
%TA.AperFunction,ComponentPad*%
%ADD10R,2.100000X2.100000*%
%TD*%
%TA.AperFunction,ComponentPad*%
%ADD11C,2.100000*%
%TD*%
%TA.AperFunction,ComponentPad*%
%ADD12C,2.400000*%
%TD*%
%TA.AperFunction,ComponentPad*%
%ADD13C,2.000000*%
%TD*%
%TA.AperFunction,ComponentPad*%
%ADD14C,1.600000*%
%TD*%
%TA.AperFunction,ComponentPad*%
%ADD15RoundRect,0.250001X-0.949999X-0.949999X0.949999X-0.949999X0.949999X0.949999X-0.949999X0.949999X0*%
%TD*%
%TA.AperFunction,ComponentPad*%
%ADD16RoundRect,0.250000X-0.550000X-0.550000X0.550000X-0.550000X0.550000X0.550000X-0.550000X0.550000X0*%
%TD*%
%TA.AperFunction,ComponentPad*%
%ADD17C,5.600000*%
%TD*%
%TA.AperFunction,ComponentPad*%
%ADD18RoundRect,0.250000X0.950000X0.550000X-0.950000X0.550000X-0.950000X-0.550000X0.950000X-0.550000X0*%
%TD*%
%TA.AperFunction,ComponentPad*%
%ADD19O,2.400000X1.600000*%
%TD*%
%TA.AperFunction,ComponentPad*%
%ADD20RoundRect,0.250000X0.600000X0.600000X-0.600000X0.600000X-0.600000X-0.600000X0.600000X-0.600000X0*%
%TD*%
%TA.AperFunction,ComponentPad*%
%ADD21C,1.700000*%
%TD*%
%TA.AperFunction,ComponentPad*%
%ADD22RoundRect,0.250000X0.550000X0.550000X-0.550000X0.550000X-0.550000X-0.550000X0.550000X-0.550000X0*%
%TD*%
%TA.AperFunction,ComponentPad*%
%ADD23R,2.000000X1.905000*%
%TD*%
%TA.AperFunction,ComponentPad*%
%ADD24O,2.000000X1.905000*%
%TD*%
%TA.AperFunction,ComponentPad*%
%ADD25RoundRect,0.250000X-0.550000X0.550000X-0.550000X-0.550000X0.550000X-0.550000X0.550000X0.550000X0*%
%TD*%
%TA.AperFunction,ComponentPad*%
%ADD26R,1.800000X1.800000*%
%TD*%
%TA.AperFunction,ComponentPad*%
%ADD27C,1.800000*%
%TD*%
%TA.AperFunction,ComponentPad*%
%ADD28RoundRect,0.250000X0.550000X-0.550000X0.550000X0.550000X-0.550000X0.550000X-0.550000X-0.550000X0*%
%TD*%
%TA.AperFunction,ComponentPad*%
%ADD29C,3.000000*%
%TD*%
%TA.AperFunction,ViaPad*%
%ADD30C,0.600000*%
%TD*%
G04 APERTURE END LIST*
D10*
%TO.P,J1,1,L*%
%TO.N,Net-(J1-L)*%
X135450000Y-90300000D03*
D11*
%TO.P,J1,2,N*%
%TO.N,Net-(J1-N)*%
X135450000Y-64900000D03*
D12*
%TO.P,J1,3,PE*%
%TO.N,unconnected-(J1-PE-Pad3)*%
X139850000Y-77600000D03*
%TD*%
D13*
%TO.P,C4,1*%
%TO.N,+5V*%
X146050000Y-140970000D03*
%TO.P,C4,2*%
%TO.N,GND*%
X153550000Y-140970000D03*
%TD*%
D14*
%TO.P,R9,1*%
%TO.N,Net-(D5-K)*%
X168910000Y-121920000D03*
%TO.P,R9,2*%
%TO.N,Net-(D3-K)*%
X179070000Y-121920000D03*
%TD*%
D15*
%TO.P,C2,1*%
%TO.N,Net-(D1-K)*%
X208516041Y-90170000D03*
D12*
%TO.P,C2,2*%
%TO.N,GND*%
X216016041Y-90170000D03*
%TD*%
D16*
%TO.P,D5,1,K*%
%TO.N,Net-(D5-K)*%
X168910000Y-118110000D03*
D14*
%TO.P,D5,2,A*%
%TO.N,GND*%
X179070000Y-118110000D03*
%TD*%
D17*
%TO.P,H1,1,1*%
%TO.N,unconnected-(H1-Pad1)*%
X219000000Y-53000000D03*
%TD*%
D18*
%TO.P,U1,1*%
%TO.N,Net-(D5-K)*%
X153670000Y-137160000D03*
D19*
%TO.P,U1,2*%
%TO.N,CLK_50*%
X153670000Y-134620000D03*
%TO.P,U1,3*%
%TO.N,GND*%
X153670000Y-132080000D03*
%TO.P,U1,4*%
%TO.N,unconnected-(U1-Pad4)*%
X153670000Y-129540000D03*
%TO.P,U1,5*%
%TO.N,GND*%
X153670000Y-127000000D03*
%TO.P,U1,6*%
%TO.N,unconnected-(U1-Pad6)*%
X153670000Y-124460000D03*
%TO.P,U1,7,GND*%
%TO.N,GND*%
X153670000Y-121920000D03*
%TO.P,U1,8*%
%TO.N,unconnected-(U1-Pad8)*%
X146050000Y-121920000D03*
%TO.P,U1,9*%
%TO.N,GND*%
X146050000Y-124460000D03*
%TO.P,U1,10*%
%TO.N,unconnected-(U1-Pad10)*%
X146050000Y-127000000D03*
%TO.P,U1,11*%
%TO.N,GND*%
X146050000Y-129540000D03*
%TO.P,U1,12*%
%TO.N,unconnected-(U1-Pad12)*%
X146050000Y-132080000D03*
%TO.P,U1,13*%
%TO.N,GND*%
X146050000Y-134620000D03*
%TO.P,U1,14,VCC*%
%TO.N,+5V*%
X146050000Y-137160000D03*
%TD*%
D20*
%TO.P,J8,1,Pin_1*%
%TO.N,+5V*%
X174752500Y-141810000D03*
D21*
%TO.P,J8,2,Pin_2*%
X172212500Y-141810000D03*
%TO.P,J8,3,Pin_3*%
%TO.N,unconnected-(J8-Pin_3-Pad3)*%
X174752500Y-139270000D03*
%TO.P,J8,4,Pin_4*%
%TO.N,CLK_50*%
X172212500Y-139270000D03*
%TO.P,J8,5,Pin_5*%
%TO.N,unconnected-(J8-Pin_5-Pad5)*%
X174752500Y-136730000D03*
%TO.P,J8,6,Pin_6*%
%TO.N,unconnected-(J8-Pin_6-Pad6)*%
X172212500Y-136730000D03*
%TO.P,J8,7,Pin_7*%
%TO.N,GND*%
X174752500Y-134190000D03*
%TO.P,J8,8,Pin_8*%
X172212500Y-134190000D03*
%TD*%
D22*
%TO.P,D6,1,K*%
%TO.N,+5V*%
X179070000Y-125730000D03*
D14*
%TO.P,D6,2,A*%
%TO.N,Net-(D5-K)*%
X168910000Y-125730000D03*
%TD*%
D23*
%TO.P,U2,1,IN*%
%TO.N,Net-(D1-K)*%
X197780000Y-105410000D03*
D24*
%TO.P,U2,2,GND*%
%TO.N,GND*%
X197780000Y-107950000D03*
%TO.P,U2,3,OUT*%
%TO.N,+5V*%
X197780000Y-110490000D03*
%TD*%
D25*
%TO.P,D2,1,K*%
%TO.N,Net-(D1-A)*%
X214370000Y-68580000D03*
D14*
%TO.P,D2,2,A*%
%TO.N,GND*%
X214370000Y-78740000D03*
%TD*%
D26*
%TO.P,D16,1,K*%
%TO.N,GND*%
X191770000Y-138430000D03*
D27*
%TO.P,D16,2,A*%
%TO.N,Net-(D16-A)*%
X194310000Y-138430000D03*
%TD*%
D14*
%TO.P,R12,1*%
%TO.N,+5V*%
X207010000Y-138430000D03*
%TO.P,R12,2*%
%TO.N,Net-(D16-A)*%
X196850000Y-138430000D03*
%TD*%
D17*
%TO.P,H2,1,1*%
%TO.N,unconnected-(H2-Pad1)*%
X129000000Y-53000000D03*
%TD*%
D28*
%TO.P,D1,1,K*%
%TO.N,Net-(D1-K)*%
X217920000Y-78740000D03*
D14*
%TO.P,D1,2,A*%
%TO.N,Net-(D1-A)*%
X217920000Y-68580000D03*
%TD*%
D25*
%TO.P,D3,1,K*%
%TO.N,Net-(D3-K)*%
X210820000Y-68580000D03*
D14*
%TO.P,D3,2,A*%
%TO.N,GND*%
X210820000Y-78740000D03*
%TD*%
D29*
%TO.P,TR1,1*%
%TO.N,Net-(J1-L)*%
X168500000Y-83700000D03*
%TO.P,TR1,5*%
%TO.N,Net-(J1-N)*%
X168500000Y-63700000D03*
%TO.P,TR1,6*%
%TO.N,Net-(D1-A)*%
X193500000Y-63700000D03*
%TO.P,TR1,7*%
%TO.N,Net-(D3-K)*%
X193500000Y-68700000D03*
%TO.P,TR1,9*%
%TO.N,Net-(D1-A)*%
X193500000Y-78700000D03*
%TO.P,TR1,10*%
%TO.N,Net-(D3-K)*%
X193500000Y-83700000D03*
%TD*%
D13*
%TO.P,C1,1*%
%TO.N,Net-(D5-K)*%
X165100000Y-121920000D03*
%TO.P,C1,2*%
%TO.N,GND*%
X165100000Y-129420000D03*
%TD*%
D17*
%TO.P,H3,1,1*%
%TO.N,unconnected-(H3-Pad1)*%
X129000000Y-143000000D03*
%TD*%
D28*
%TO.P,D4,1,K*%
%TO.N,Net-(D1-K)*%
X207270000Y-78740000D03*
D14*
%TO.P,D4,2,A*%
%TO.N,Net-(D3-K)*%
X207270000Y-68580000D03*
%TD*%
D15*
%TO.P,C3,1*%
%TO.N,+5V*%
X203436041Y-124460000D03*
D12*
%TO.P,C3,2*%
%TO.N,GND*%
X210936041Y-124460000D03*
%TD*%
D17*
%TO.P,H4,1,1*%
%TO.N,unconnected-(H4-Pad1)*%
X219000000Y-143000000D03*
%TD*%
D30*
%TO.N,GND*%
X160000000Y-141000000D03*
X167000000Y-137000000D03*
X162000000Y-127000000D03*
X157000000Y-133000000D03*
X196000000Y-93000000D03*
X191000000Y-120000000D03*
X183000000Y-120000000D03*
X190000000Y-111000000D03*
X191000000Y-99000000D03*
X191000000Y-88000000D03*
%TD*%
%TA.AperFunction,Conductor*%
%TO.N,GND*%
G36*
X174352401Y-134497007D02*
G01*
X174445493Y-134590099D01*
X174520960Y-134633670D01*
X173908872Y-135245758D01*
X173908872Y-135245759D01*
X174037409Y-135339147D01*
X174085947Y-135399087D01*
X174098013Y-135475265D01*
X174070372Y-135547270D01*
X174037409Y-135580234D01*
X173872709Y-135699895D01*
X173872706Y-135699897D01*
X173722397Y-135850206D01*
X173722395Y-135850209D01*
X173603044Y-136014482D01*
X173543104Y-136063020D01*
X173466925Y-136075086D01*
X173394920Y-136047446D01*
X173361956Y-136014482D01*
X173288491Y-135913367D01*
X173242604Y-135850208D01*
X173092292Y-135699896D01*
X172927589Y-135580233D01*
X172879052Y-135520294D01*
X172866986Y-135444116D01*
X172894626Y-135372110D01*
X172927590Y-135339146D01*
X173056126Y-135245758D01*
X172444038Y-134633670D01*
X172519507Y-134590099D01*
X172612599Y-134497007D01*
X172656170Y-134421538D01*
X173268258Y-135033626D01*
X173361955Y-134904664D01*
X173421895Y-134856126D01*
X173498073Y-134844060D01*
X173570079Y-134871700D01*
X173603042Y-134904664D01*
X173696738Y-135033626D01*
X173696740Y-135033626D01*
X174308828Y-134421537D01*
X174352401Y-134497007D01*
G37*
%TD.AperFunction*%
%TA.AperFunction,Conductor*%
G36*
X223425000Y-48520462D02*
G01*
X223479538Y-48575000D01*
X223499500Y-48649500D01*
X223499500Y-147350500D01*
X223479538Y-147425000D01*
X223425000Y-147479538D01*
X223350500Y-147499500D01*
X124649500Y-147499500D01*
X124575000Y-147479538D01*
X124520462Y-147425000D01*
X124500500Y-147350500D01*
X124500500Y-142837857D01*
X125699500Y-142837857D01*
X125699500Y-143162143D01*
X125731286Y-143484868D01*
X125731287Y-143484875D01*
X125794552Y-143802927D01*
X125794553Y-143802933D01*
X125888685Y-144113244D01*
X125888688Y-144113253D01*
X126012785Y-144412847D01*
X126165651Y-144698840D01*
X126343381Y-144964831D01*
X126345817Y-144968476D01*
X126551542Y-145219153D01*
X126780847Y-145448458D01*
X127031524Y-145654183D01*
X127168163Y-145745482D01*
X127301159Y-145834348D01*
X127444155Y-145910781D01*
X127587153Y-145987215D01*
X127782258Y-146068030D01*
X127886746Y-146111311D01*
X127886749Y-146111312D01*
X127886754Y-146111314D01*
X128033802Y-146155920D01*
X128197066Y-146205446D01*
X128197068Y-146205446D01*
X128197077Y-146205449D01*
X128515132Y-146268714D01*
X128837857Y-146300500D01*
X128837862Y-146300500D01*
X129162138Y-146300500D01*
X129162143Y-146300500D01*
X129484868Y-146268714D01*
X129802923Y-146205449D01*
X130113246Y-146111314D01*
X130412847Y-145987215D01*
X130698842Y-145834347D01*
X130968476Y-145654183D01*
X131219153Y-145448458D01*
X131448458Y-145219153D01*
X131654183Y-144968476D01*
X131834347Y-144698842D01*
X131987215Y-144412847D01*
X132111314Y-144113246D01*
X132205449Y-143802923D01*
X132268714Y-143484868D01*
X132300500Y-143162143D01*
X132300500Y-142837857D01*
X132268714Y-142515132D01*
X132205449Y-142197077D01*
X132186056Y-142133148D01*
X132121707Y-141921015D01*
X132111314Y-141886754D01*
X131987215Y-141587153D01*
X131845149Y-141321367D01*
X131834348Y-141301159D01*
X131740022Y-141159991D01*
X131654183Y-141031524D01*
X131506776Y-140851908D01*
X144549500Y-140851908D01*
X144549500Y-141088092D01*
X144586447Y-141321368D01*
X144659432Y-141545992D01*
X144766657Y-141756433D01*
X144905483Y-141947510D01*
X145072490Y-142114517D01*
X145263567Y-142253343D01*
X145474008Y-142360568D01*
X145698632Y-142433553D01*
X145931908Y-142470500D01*
X145931913Y-142470500D01*
X146168087Y-142470500D01*
X146168092Y-142470500D01*
X146401368Y-142433553D01*
X146625992Y-142360568D01*
X146836433Y-142253343D01*
X147027510Y-142114517D01*
X147194517Y-141947510D01*
X147333343Y-141756433D01*
X147440568Y-141545992D01*
X147513553Y-141321368D01*
X147550500Y-141088092D01*
X147550500Y-140851950D01*
X152050000Y-140851950D01*
X152050000Y-141088049D01*
X152086934Y-141321250D01*
X152159894Y-141545793D01*
X152159898Y-141545805D01*
X152267086Y-141756171D01*
X152267086Y-141756172D01*
X152386851Y-141921015D01*
X153106328Y-141201537D01*
X153149901Y-141277007D01*
X153242993Y-141370099D01*
X153318461Y-141413670D01*
X152598983Y-142133147D01*
X152598983Y-142133148D01*
X152763826Y-142252913D01*
X152763832Y-142252916D01*
X152974189Y-142360098D01*
X152974206Y-142360105D01*
X153198749Y-142433065D01*
X153431951Y-142470000D01*
X153668049Y-142470000D01*
X153901250Y-142433065D01*
X154125793Y-142360105D01*
X154125810Y-142360098D01*
X154336167Y-142252916D01*
X154336181Y-142252908D01*
X154501015Y-142133149D01*
X154501015Y-142133147D01*
X153781538Y-141413670D01*
X153857007Y-141370099D01*
X153950099Y-141277007D01*
X153993670Y-141201538D01*
X154713147Y-141921015D01*
X154713149Y-141921015D01*
X154832908Y-141756181D01*
X154832916Y-141756167D01*
X154940098Y-141545810D01*
X154940105Y-141545793D01*
X155013065Y-141321250D01*
X155050000Y-141088049D01*
X155050000Y-140851950D01*
X155013065Y-140618749D01*
X154940105Y-140394206D01*
X154940098Y-140394189D01*
X154832916Y-140183832D01*
X154832913Y-140183826D01*
X154713147Y-140018983D01*
X153993670Y-140738460D01*
X153950099Y-140662993D01*
X153857007Y-140569901D01*
X153781537Y-140526328D01*
X154501015Y-139806851D01*
X154336171Y-139687086D01*
X154125805Y-139579898D01*
X154125793Y-139579894D01*
X153901250Y-139506934D01*
X153668049Y-139470000D01*
X153431951Y-139470000D01*
X153198749Y-139506934D01*
X152974206Y-139579894D01*
X152974194Y-139579898D01*
X152763828Y-139687086D01*
X152763821Y-139687090D01*
X152598983Y-139806850D01*
X152598983Y-139806851D01*
X153318461Y-140526329D01*
X153242993Y-140569901D01*
X153149901Y-140662993D01*
X153106329Y-140738461D01*
X152386851Y-140018983D01*
X152386850Y-140018983D01*
X152267090Y-140183821D01*
X152267086Y-140183828D01*
X152159898Y-140394194D01*
X152159894Y-140394206D01*
X152086934Y-140618749D01*
X152050000Y-140851950D01*
X147550500Y-140851950D01*
X147550500Y-140851908D01*
X147513553Y-140618632D01*
X147440568Y-140394008D01*
X147333343Y-140183567D01*
X147194517Y-139992490D01*
X147027510Y-139825483D01*
X146836433Y-139686657D01*
X146625992Y-139579432D01*
X146401368Y-139506447D01*
X146168092Y-139469500D01*
X145931908Y-139469500D01*
X145698632Y-139506447D01*
X145630819Y-139528481D01*
X145474008Y-139579432D01*
X145474002Y-139579434D01*
X145474002Y-139579435D01*
X145263565Y-139686658D01*
X145072499Y-139825476D01*
X145072488Y-139825485D01*
X144905485Y-139992488D01*
X144905476Y-139992499D01*
X144766658Y-140183565D01*
X144683987Y-140345817D01*
X144659432Y-140394008D01*
X144586447Y-140618632D01*
X144549500Y-140851908D01*
X131506776Y-140851908D01*
X131448458Y-140780847D01*
X131219153Y-140551542D01*
X130968476Y-140345817D01*
X130886413Y-140290984D01*
X130698840Y-140165651D01*
X130412847Y-140012785D01*
X130113253Y-139888688D01*
X130113244Y-139888685D01*
X129802933Y-139794553D01*
X129802927Y-139794552D01*
X129802924Y-139794551D01*
X129802923Y-139794551D01*
X129694010Y-139772887D01*
X129484875Y-139731287D01*
X129484871Y-139731286D01*
X129484868Y-139731286D01*
X129162143Y-139699500D01*
X128837857Y-139699500D01*
X128515132Y-139731286D01*
X128515129Y-139731286D01*
X128515124Y-139731287D01*
X128197072Y-139794552D01*
X128197066Y-139794553D01*
X127886755Y-139888685D01*
X127886746Y-139888688D01*
X127587152Y-140012785D01*
X127301159Y-140165651D01*
X127031529Y-140345813D01*
X127031524Y-140345816D01*
X127031524Y-140345817D01*
X126883790Y-140467059D01*
X126780847Y-140551542D01*
X126551542Y-140780847D01*
X126345813Y-141031529D01*
X126165651Y-141301159D01*
X126012785Y-141587152D01*
X125888688Y-141886746D01*
X125888685Y-141886755D01*
X125794553Y-142197066D01*
X125794552Y-142197072D01*
X125731287Y-142515124D01*
X125731286Y-142515129D01*
X125731286Y-142515132D01*
X125699500Y-142837857D01*
X124500500Y-142837857D01*
X124500500Y-121817648D01*
X144349500Y-121817648D01*
X144349500Y-122022352D01*
X144381523Y-122224534D01*
X144444719Y-122419032D01*
X144444778Y-122419212D01*
X144444782Y-122419224D01*
X144537714Y-122601612D01*
X144658028Y-122767212D01*
X144658035Y-122767220D01*
X144802779Y-122911964D01*
X144802787Y-122911971D01*
X144968387Y-123032285D01*
X144968390Y-123032287D01*
X145017913Y-123057520D01*
X145075230Y-123109129D01*
X145099064Y-123182482D01*
X145083028Y-123257925D01*
X145031419Y-123315242D01*
X145017914Y-123323039D01*
X144968648Y-123348141D01*
X144803110Y-123468412D01*
X144658412Y-123613110D01*
X144538143Y-123778645D01*
X144445246Y-123960967D01*
X144445241Y-123960979D01*
X144382009Y-124155583D01*
X144357553Y-124310000D01*
X145676082Y-124310000D01*
X145650000Y-124407339D01*
X145650000Y-124512661D01*
X145676082Y-124610000D01*
X144357553Y-124610000D01*
X144382009Y-124764416D01*
X144445241Y-124959020D01*
X144445246Y-124959032D01*
X144538143Y-125141354D01*
X144658412Y-125306889D01*
X144803110Y-125451587D01*
X144968647Y-125571858D01*
X145017912Y-125596959D01*
X145075229Y-125648567D01*
X145099064Y-125721920D01*
X145083028Y-125797363D01*
X145031420Y-125854680D01*
X145017915Y-125862478D01*
X144968388Y-125887714D01*
X144802787Y-126008028D01*
X144802779Y-126008035D01*
X144658035Y-126152779D01*
X144658028Y-126152787D01*
X144537714Y-126318387D01*
X144444782Y-126500775D01*
X144444778Y-126500787D01*
X144412759Y-126599333D01*
X144381523Y-126695466D01*
X144349500Y-126897648D01*
X144349500Y-127102352D01*
X144381523Y-127304534D01*
X144444719Y-127499032D01*
X144444778Y-127499212D01*
X144444782Y-127499224D01*
X144537714Y-127681612D01*
X144658028Y-127847212D01*
X144658035Y-127847220D01*
X144802779Y-127991964D01*
X144802787Y-127991971D01*
X144968387Y-128112285D01*
X144968390Y-128112287D01*
X145017913Y-128137520D01*
X145075230Y-128189129D01*
X145099064Y-128262482D01*
X145083028Y-128337925D01*
X145031419Y-128395242D01*
X145017914Y-128403039D01*
X144968648Y-128428141D01*
X144803110Y-128548412D01*
X144658412Y-128693110D01*
X144538143Y-128858645D01*
X144445246Y-129040967D01*
X144445241Y-129040979D01*
X144382009Y-129235583D01*
X144357553Y-129390000D01*
X145676082Y-129390000D01*
X145650000Y-129487339D01*
X145650000Y-129592661D01*
X145676082Y-129690000D01*
X144357553Y-129690000D01*
X144382009Y-129844416D01*
X144445241Y-130039020D01*
X144445246Y-130039032D01*
X144538143Y-130221354D01*
X144658412Y-130386889D01*
X144803110Y-130531587D01*
X144968647Y-130651858D01*
X145017912Y-130676959D01*
X145075229Y-130728567D01*
X145099064Y-130801920D01*
X145083028Y-130877363D01*
X145031420Y-130934680D01*
X145017915Y-130942478D01*
X144968388Y-130967714D01*
X144802787Y-131088028D01*
X144802779Y-131088035D01*
X144658035Y-131232779D01*
X144658028Y-131232787D01*
X144537714Y-131398387D01*
X144444782Y-131580775D01*
X144444780Y-131580781D01*
X144381523Y-131775466D01*
X144349500Y-131977648D01*
X144349500Y-132182352D01*
X144381523Y-132384534D01*
X144444719Y-132579032D01*
X144444778Y-132579212D01*
X144444782Y-132579224D01*
X144537714Y-132761612D01*
X144658028Y-132927212D01*
X144658035Y-132927220D01*
X144802779Y-133071964D01*
X144802787Y-133071971D01*
X144968387Y-133192285D01*
X144968390Y-133192287D01*
X145017913Y-133217520D01*
X145075230Y-133269129D01*
X145099064Y-133342482D01*
X145083028Y-133417925D01*
X145031419Y-133475242D01*
X145017914Y-133483039D01*
X144968648Y-133508141D01*
X144803110Y-133628412D01*
X144658412Y-133773110D01*
X144538143Y-133938645D01*
X144445246Y-134120967D01*
X144445241Y-134120979D01*
X144382009Y-134315583D01*
X144357553Y-134470000D01*
X145676082Y-134470000D01*
X145650000Y-134567339D01*
X145650000Y-134672661D01*
X145676082Y-134770000D01*
X144357553Y-134770000D01*
X144382009Y-134924416D01*
X144445241Y-135119020D01*
X144445246Y-135119032D01*
X144538143Y-135301354D01*
X144658412Y-135466889D01*
X144803110Y-135611587D01*
X144968647Y-135731858D01*
X145017912Y-135756959D01*
X145075229Y-135808567D01*
X145099064Y-135881920D01*
X145083028Y-135957363D01*
X145031420Y-136014680D01*
X145017915Y-136022478D01*
X144968388Y-136047714D01*
X144802787Y-136168028D01*
X144802779Y-136168035D01*
X144658035Y-136312779D01*
X144658028Y-136312787D01*
X144537714Y-136478387D01*
X144444782Y-136660775D01*
X144444778Y-136660787D01*
X144387755Y-136836287D01*
X144381523Y-136855466D01*
X144349500Y-137057648D01*
X144349500Y-137262352D01*
X144370823Y-137396979D01*
X144381523Y-137464534D01*
X144444778Y-137659212D01*
X144444782Y-137659224D01*
X144537714Y-137841612D01*
X144658028Y-138007212D01*
X144658035Y-138007220D01*
X144802779Y-138151964D01*
X144802787Y-138151971D01*
X144946394Y-138256306D01*
X144968390Y-138272287D01*
X145150781Y-138365220D01*
X145345466Y-138428477D01*
X145547648Y-138460500D01*
X145547653Y-138460500D01*
X146552347Y-138460500D01*
X146552352Y-138460500D01*
X146754534Y-138428477D01*
X146949219Y-138365220D01*
X147131610Y-138272287D01*
X147297219Y-138151966D01*
X147441966Y-138007219D01*
X147562287Y-137841610D01*
X147655220Y-137659219D01*
X147718477Y-137464534D01*
X147750500Y-137262352D01*
X147750500Y-137057648D01*
X147718477Y-136855466D01*
X147655220Y-136660781D01*
X147562287Y-136478390D01*
X147546893Y-136457202D01*
X147441971Y-136312787D01*
X147441964Y-136312779D01*
X147297220Y-136168035D01*
X147297212Y-136168028D01*
X147131609Y-136047712D01*
X147082085Y-136022478D01*
X147024768Y-135970869D01*
X147000935Y-135897516D01*
X147016972Y-135822073D01*
X147068581Y-135764756D01*
X147082088Y-135756958D01*
X147131354Y-135731856D01*
X147296889Y-135611587D01*
X147441587Y-135466889D01*
X147561856Y-135301354D01*
X147654753Y-135119032D01*
X147654758Y-135119020D01*
X147717990Y-134924416D01*
X147742447Y-134770000D01*
X146423918Y-134770000D01*
X146450000Y-134672661D01*
X146450000Y-134567339D01*
X146423918Y-134470000D01*
X147742446Y-134470000D01*
X147717990Y-134315583D01*
X147654758Y-134120979D01*
X147654753Y-134120967D01*
X147561856Y-133938645D01*
X147441587Y-133773110D01*
X147296889Y-133628412D01*
X147131354Y-133508143D01*
X147082086Y-133483040D01*
X147024769Y-133431431D01*
X147000935Y-133358078D01*
X147016971Y-133282635D01*
X147068580Y-133225318D01*
X147082083Y-133217522D01*
X147131610Y-133192287D01*
X147297219Y-133071966D01*
X147441966Y-132927219D01*
X147562287Y-132761610D01*
X147655220Y-132579219D01*
X147718477Y-132384534D01*
X147750500Y-132182352D01*
X147750500Y-131977648D01*
X147718477Y-131775466D01*
X147655220Y-131580781D01*
X147562287Y-131398390D01*
X147562285Y-131398387D01*
X147441971Y-131232787D01*
X147441964Y-131232779D01*
X147297220Y-131088035D01*
X147297212Y-131088028D01*
X147131609Y-130967712D01*
X147082085Y-130942478D01*
X147024768Y-130890869D01*
X147000935Y-130817516D01*
X147016972Y-130742073D01*
X147068581Y-130684756D01*
X147082088Y-130676958D01*
X147131354Y-130651856D01*
X147296889Y-130531587D01*
X147441587Y-130386889D01*
X147561856Y-130221354D01*
X147654753Y-130039032D01*
X147654758Y-130039020D01*
X147717990Y-129844416D01*
X147742447Y-129690000D01*
X146423918Y-129690000D01*
X146450000Y-129592661D01*
X146450000Y-129487339D01*
X146423918Y-129390000D01*
X147742446Y-129390000D01*
X147717990Y-129235583D01*
X147654758Y-129040979D01*
X147654753Y-129040967D01*
X147561856Y-128858645D01*
X147441587Y-128693110D01*
X147296889Y-128548412D01*
X147131354Y-128428143D01*
X147082086Y-128403040D01*
X147024769Y-128351431D01*
X147000935Y-128278078D01*
X147016971Y-128202635D01*
X147068580Y-128145318D01*
X147082083Y-128137522D01*
X147131610Y-128112287D01*
X147297219Y-127991966D01*
X147441966Y-127847219D01*
X147562287Y-127681610D01*
X147655220Y-127499219D01*
X147718477Y-127304534D01*
X147750500Y-127102352D01*
X147750500Y-126897648D01*
X147718477Y-126695466D01*
X147655220Y-126500781D01*
X147562287Y-126318390D01*
X147497496Y-126229212D01*
X147441971Y-126152787D01*
X147441964Y-126152779D01*
X147297220Y-126008035D01*
X147297212Y-126008028D01*
X147131609Y-125887712D01*
X147082085Y-125862478D01*
X147024768Y-125810869D01*
X147000935Y-125737516D01*
X147016972Y-125662073D01*
X147068581Y-125604756D01*
X147082088Y-125596958D01*
X147131354Y-125571856D01*
X147296889Y-125451587D01*
X147441587Y-125306889D01*
X147561856Y-125141354D01*
X147654753Y-124959032D01*
X147654758Y-124959020D01*
X147717990Y-124764416D01*
X147742447Y-124610000D01*
X146423918Y-124610000D01*
X146450000Y-124512661D01*
X146450000Y-124407339D01*
X146436685Y-124357648D01*
X151969500Y-124357648D01*
X151969500Y-124562352D01*
X152001523Y-124764534D01*
X152064719Y-124959032D01*
X152064778Y-124959212D01*
X152064782Y-124959224D01*
X152157714Y-125141612D01*
X152278028Y-125307212D01*
X152278035Y-125307220D01*
X152422779Y-125451964D01*
X152422787Y-125451971D01*
X152588387Y-125572285D01*
X152588390Y-125572287D01*
X152637913Y-125597520D01*
X152695230Y-125649129D01*
X152719064Y-125722482D01*
X152703028Y-125797925D01*
X152651419Y-125855242D01*
X152637914Y-125863039D01*
X152588648Y-125888141D01*
X152423110Y-126008412D01*
X152278412Y-126153110D01*
X152158143Y-126318645D01*
X152065246Y-126500967D01*
X152065241Y-126500979D01*
X152002009Y-126695583D01*
X151977553Y-126850000D01*
X153296082Y-126850000D01*
X153270000Y-126947339D01*
X153270000Y-127052661D01*
X153296082Y-127150000D01*
X151977553Y-127150000D01*
X152002009Y-127304416D01*
X152065241Y-127499020D01*
X152065246Y-127499032D01*
X152158143Y-127681354D01*
X152278412Y-127846889D01*
X152423110Y-127991587D01*
X152588647Y-128111858D01*
X152637912Y-128136959D01*
X152695229Y-128188567D01*
X152719064Y-128261920D01*
X152703028Y-128337363D01*
X152651420Y-128394680D01*
X152637915Y-128402478D01*
X152588388Y-128427714D01*
X152422787Y-128548028D01*
X152422779Y-128548035D01*
X152278035Y-128692779D01*
X152278028Y-128692787D01*
X152157714Y-128858387D01*
X152064782Y-129040775D01*
X152064780Y-129040781D01*
X152001523Y-129235466D01*
X151969500Y-129437648D01*
X151969500Y-129642352D01*
X152001523Y-129844534D01*
X152064719Y-130039032D01*
X152064778Y-130039212D01*
X152064782Y-130039224D01*
X152157714Y-130221612D01*
X152278028Y-130387212D01*
X152278035Y-130387220D01*
X152422779Y-130531964D01*
X152422787Y-130531971D01*
X152588387Y-130652285D01*
X152588390Y-130652287D01*
X152637913Y-130677520D01*
X152695230Y-130729129D01*
X152719064Y-130802482D01*
X152703028Y-130877925D01*
X152651419Y-130935242D01*
X152637914Y-130943039D01*
X152588648Y-130968141D01*
X152423110Y-131088412D01*
X152278412Y-131233110D01*
X152158143Y-131398645D01*
X152065246Y-131580967D01*
X152065241Y-131580979D01*
X152002009Y-131775583D01*
X151977553Y-131930000D01*
X153296082Y-131930000D01*
X153270000Y-132027339D01*
X153270000Y-132132661D01*
X153296082Y-132230000D01*
X151977553Y-132230000D01*
X152002009Y-132384416D01*
X152065241Y-132579020D01*
X152065246Y-132579032D01*
X152158143Y-132761354D01*
X152278412Y-132926889D01*
X152423110Y-133071587D01*
X152588647Y-133191858D01*
X152637912Y-133216959D01*
X152695229Y-133268567D01*
X152719064Y-133341920D01*
X152703028Y-133417363D01*
X152651420Y-133474680D01*
X152637915Y-133482478D01*
X152588388Y-133507714D01*
X152422787Y-133628028D01*
X152422779Y-133628035D01*
X152278035Y-133772779D01*
X152278028Y-133772787D01*
X152157714Y-133938387D01*
X152064782Y-134120775D01*
X152064778Y-134120787D01*
X152063678Y-134124174D01*
X152001523Y-134315466D01*
X151969500Y-134517648D01*
X151969500Y-134722352D01*
X152001523Y-134924534D01*
X152064719Y-135119032D01*
X152064778Y-135119212D01*
X152064782Y-135119224D01*
X152157714Y-135301612D01*
X152278028Y-135467212D01*
X152278033Y-135467218D01*
X152278034Y-135467219D01*
X152422781Y-135611966D01*
X152477042Y-135651388D01*
X152525579Y-135711326D01*
X152537645Y-135787504D01*
X152510006Y-135859510D01*
X152450066Y-135908049D01*
X152436331Y-135913367D01*
X152400669Y-135925184D01*
X152400667Y-135925185D01*
X152251343Y-136017288D01*
X152127288Y-136141343D01*
X152035186Y-136290666D01*
X151980001Y-136457201D01*
X151969500Y-136559995D01*
X151969500Y-137760003D01*
X151971203Y-137776671D01*
X151980001Y-137862797D01*
X152035186Y-138029334D01*
X152127288Y-138178656D01*
X152251344Y-138302712D01*
X152400666Y-138394814D01*
X152567203Y-138449999D01*
X152669991Y-138460500D01*
X154670008Y-138460499D01*
X154772797Y-138449999D01*
X154939334Y-138394814D01*
X155088656Y-138302712D01*
X155212712Y-138178656D01*
X155304814Y-138029334D01*
X155359999Y-137862797D01*
X155370500Y-137760009D01*
X155370499Y-136623713D01*
X170862000Y-136623713D01*
X170862000Y-136836287D01*
X170895254Y-137046243D01*
X170960943Y-137248412D01*
X171053857Y-137430767D01*
X171057450Y-137437817D01*
X171057450Y-137437818D01*
X171089664Y-137482157D01*
X171182396Y-137609792D01*
X171332708Y-137760104D01*
X171355511Y-137776671D01*
X171496982Y-137879456D01*
X171545520Y-137939396D01*
X171557586Y-138015575D01*
X171529946Y-138087580D01*
X171496982Y-138120544D01*
X171332709Y-138239895D01*
X171332706Y-138239897D01*
X171182397Y-138390206D01*
X171182395Y-138390209D01*
X171057450Y-138562181D01*
X171057450Y-138562182D01*
X170960946Y-138751582D01*
X170960941Y-138751594D01*
X170895254Y-138953756D01*
X170888603Y-138995748D01*
X170862000Y-139163713D01*
X170862000Y-139376287D01*
X170895254Y-139586243D01*
X170960943Y-139788412D01*
X171012036Y-139888688D01*
X171057450Y-139977817D01*
X171057450Y-139977818D01*
X171082855Y-140012785D01*
X171182396Y-140149792D01*
X171332708Y-140300104D01*
X171395627Y-140345817D01*
X171496982Y-140419456D01*
X171545520Y-140479396D01*
X171557586Y-140555575D01*
X171529946Y-140627580D01*
X171496982Y-140660544D01*
X171332709Y-140779895D01*
X171332706Y-140779897D01*
X171182397Y-140930206D01*
X171182395Y-140930209D01*
X171057450Y-141102181D01*
X171057450Y-141102182D01*
X170960946Y-141291582D01*
X170960941Y-141291594D01*
X170957834Y-141301158D01*
X170895254Y-141493757D01*
X170862000Y-141703713D01*
X170862000Y-141916287D01*
X170895254Y-142126243D01*
X170960943Y-142328412D01*
X171057449Y-142517816D01*
X171182396Y-142689792D01*
X171332708Y-142840104D01*
X171504684Y-142965051D01*
X171694088Y-143061557D01*
X171896257Y-143127246D01*
X172106213Y-143160500D01*
X172106218Y-143160500D01*
X172318782Y-143160500D01*
X172318787Y-143160500D01*
X172528743Y-143127246D01*
X172730912Y-143061557D01*
X172920316Y-142965051D01*
X173092292Y-142840104D01*
X173233486Y-142698909D01*
X173300278Y-142660347D01*
X173377407Y-142660347D01*
X173444202Y-142698911D01*
X173465660Y-142726049D01*
X173467685Y-142729333D01*
X173467686Y-142729334D01*
X173559788Y-142878656D01*
X173683844Y-143002712D01*
X173833166Y-143094814D01*
X173999703Y-143149999D01*
X174102491Y-143160500D01*
X175402508Y-143160499D01*
X175505297Y-143149999D01*
X175671834Y-143094814D01*
X175821156Y-143002712D01*
X175945212Y-142878656D01*
X175970377Y-142837857D01*
X215699500Y-142837857D01*
X215699500Y-143162143D01*
X215731286Y-143484868D01*
X215731287Y-143484875D01*
X215794552Y-143802927D01*
X215794553Y-143802933D01*
X215888685Y-144113244D01*
X215888688Y-144113253D01*
X216012785Y-144412847D01*
X216165651Y-144698840D01*
X216343381Y-144964831D01*
X216345817Y-144968476D01*
X216551542Y-145219153D01*
X216780847Y-145448458D01*
X217031524Y-145654183D01*
X217168163Y-145745482D01*
X217301159Y-145834348D01*
X217444155Y-145910781D01*
X217587153Y-145987215D01*
X217782258Y-146068030D01*
X217886746Y-146111311D01*
X217886749Y-146111312D01*
X217886754Y-146111314D01*
X218033802Y-146155920D01*
X218197066Y-146205446D01*
X218197068Y-146205446D01*
X218197077Y-146205449D01*
X218515132Y-146268714D01*
X218837857Y-146300500D01*
X218837862Y-146300500D01*
X219162138Y-146300500D01*
X219162143Y-146300500D01*
X219484868Y-146268714D01*
X219802923Y-146205449D01*
X220113246Y-146111314D01*
X220412847Y-145987215D01*
X220698842Y-145834347D01*
X220968476Y-145654183D01*
X221219153Y-145448458D01*
X221448458Y-145219153D01*
X221654183Y-144968476D01*
X221834347Y-144698842D01*
X221987215Y-144412847D01*
X222111314Y-144113246D01*
X222205449Y-143802923D01*
X222268714Y-143484868D01*
X222300500Y-143162143D01*
X222300500Y-142837857D01*
X222268714Y-142515132D01*
X222205449Y-142197077D01*
X222186056Y-142133148D01*
X222121707Y-141921015D01*
X222111314Y-141886754D01*
X221987215Y-141587153D01*
X221845149Y-141321367D01*
X221834348Y-141301159D01*
X221740022Y-141159991D01*
X221654183Y-141031524D01*
X221448458Y-140780847D01*
X221219153Y-140551542D01*
X220968476Y-140345817D01*
X220886413Y-140290984D01*
X220698840Y-140165651D01*
X220412847Y-140012785D01*
X220113253Y-139888688D01*
X220113244Y-139888685D01*
X219802933Y-139794553D01*
X219802927Y-139794552D01*
X219802924Y-139794551D01*
X219802923Y-139794551D01*
X219694010Y-139772887D01*
X219484875Y-139731287D01*
X219484871Y-139731286D01*
X219484868Y-139731286D01*
X219162143Y-139699500D01*
X218837857Y-139699500D01*
X218515132Y-139731286D01*
X218515129Y-139731286D01*
X218515124Y-139731287D01*
X218197072Y-139794552D01*
X218197066Y-139794553D01*
X217886755Y-139888685D01*
X217886746Y-139888688D01*
X217587152Y-140012785D01*
X217301159Y-140165651D01*
X217031529Y-140345813D01*
X217031524Y-140345816D01*
X217031524Y-140345817D01*
X216883790Y-140467059D01*
X216780847Y-140551542D01*
X216551542Y-140780847D01*
X216345813Y-141031529D01*
X216165651Y-141301159D01*
X216012785Y-141587152D01*
X215888688Y-141886746D01*
X215888685Y-141886755D01*
X215794553Y-142197066D01*
X215794552Y-142197072D01*
X215731287Y-142515124D01*
X215731286Y-142515129D01*
X215731286Y-142515132D01*
X215699500Y-142837857D01*
X175970377Y-142837857D01*
X176037314Y-142729334D01*
X176092499Y-142562797D01*
X176103000Y-142460009D01*
X176102999Y-141159992D01*
X176092499Y-141057203D01*
X176037314Y-140890666D01*
X175945212Y-140741344D01*
X175821156Y-140617288D01*
X175671834Y-140525186D01*
X175671833Y-140525185D01*
X175668549Y-140523160D01*
X175615620Y-140467059D01*
X175597833Y-140392010D01*
X175619953Y-140318122D01*
X175641407Y-140290988D01*
X175782604Y-140149792D01*
X175907551Y-139977816D01*
X176004057Y-139788412D01*
X176069746Y-139586243D01*
X176103000Y-139376287D01*
X176103000Y-139163713D01*
X176069746Y-138953757D01*
X176004057Y-138751588D01*
X175907551Y-138562184D01*
X175782604Y-138390208D01*
X175632292Y-138239896D01*
X175468017Y-138120544D01*
X175419479Y-138060604D01*
X175407413Y-137984426D01*
X175435053Y-137912420D01*
X175468017Y-137879456D01*
X175520105Y-137841612D01*
X175632292Y-137760104D01*
X175782604Y-137609792D01*
X175875321Y-137482177D01*
X190370000Y-137482177D01*
X190370000Y-138280000D01*
X191344318Y-138280000D01*
X191320000Y-138370756D01*
X191320000Y-138489244D01*
X191344318Y-138580000D01*
X190370000Y-138580000D01*
X190370000Y-139377822D01*
X190370001Y-139377842D01*
X190376401Y-139437377D01*
X190426645Y-139572084D01*
X190426650Y-139572094D01*
X190512809Y-139687187D01*
X190512812Y-139687190D01*
X190627905Y-139773349D01*
X190627915Y-139773354D01*
X190762623Y-139823598D01*
X190762621Y-139823598D01*
X190822157Y-139829998D01*
X190822177Y-139830000D01*
X191620000Y-139830000D01*
X191620000Y-138855681D01*
X191710756Y-138880000D01*
X191829244Y-138880000D01*
X191920000Y-138855681D01*
X191920000Y-139830000D01*
X192717823Y-139830000D01*
X192717842Y-139829998D01*
X192777377Y-139823598D01*
X192912084Y-139773354D01*
X192912094Y-139773349D01*
X193027187Y-139687190D01*
X193027190Y-139687187D01*
X193113349Y-139572094D01*
X193113351Y-139572091D01*
X193129616Y-139528481D01*
X193174354Y-139465653D01*
X193244511Y-139433612D01*
X193321290Y-139440941D01*
X193374582Y-139475189D01*
X193397635Y-139498242D01*
X193509384Y-139579432D01*
X193575975Y-139627813D01*
X193575976Y-139627814D01*
X193575978Y-139627815D01*
X193772394Y-139727895D01*
X193859512Y-139756201D01*
X193982043Y-139796014D01*
X193982048Y-139796014D01*
X193982049Y-139796015D01*
X194199778Y-139830500D01*
X194199782Y-139830500D01*
X194420218Y-139830500D01*
X194420222Y-139830500D01*
X194637951Y-139796015D01*
X194637952Y-139796014D01*
X194637956Y-139796014D01*
X194718556Y-139769825D01*
X194847606Y-139727895D01*
X195044022Y-139627815D01*
X195222365Y-139498242D01*
X195378242Y-139342365D01*
X195507815Y-139164022D01*
X195507889Y-139163876D01*
X195507935Y-139163824D01*
X195510870Y-139159036D01*
X195511757Y-139159579D01*
X195559490Y-139106558D01*
X195632840Y-139082717D01*
X195708285Y-139098745D01*
X195761197Y-139143933D01*
X195858028Y-139277212D01*
X195858035Y-139277220D01*
X196002779Y-139421964D01*
X196002787Y-139421971D01*
X196168387Y-139542285D01*
X196168390Y-139542287D01*
X196350781Y-139635220D01*
X196545466Y-139698477D01*
X196747648Y-139730500D01*
X196747653Y-139730500D01*
X196952347Y-139730500D01*
X196952352Y-139730500D01*
X197154534Y-139698477D01*
X197349219Y-139635220D01*
X197531610Y-139542287D01*
X197697219Y-139421966D01*
X197841966Y-139277219D01*
X197962287Y-139111610D01*
X198055220Y-138929219D01*
X198118477Y-138734534D01*
X198150500Y-138532352D01*
X198150500Y-138327648D01*
X205709500Y-138327648D01*
X205709500Y-138532352D01*
X205741523Y-138734534D01*
X205792573Y-138891651D01*
X205804778Y-138929212D01*
X205804782Y-138929224D01*
X205897714Y-139111612D01*
X206018028Y-139277212D01*
X206018035Y-139277220D01*
X206162779Y-139421964D01*
X206162787Y-139421971D01*
X206328387Y-139542285D01*
X206328390Y-139542287D01*
X206510781Y-139635220D01*
X206705466Y-139698477D01*
X206907648Y-139730500D01*
X206907653Y-139730500D01*
X207112347Y-139730500D01*
X207112352Y-139730500D01*
X207314534Y-139698477D01*
X207509219Y-139635220D01*
X207691610Y-139542287D01*
X207857219Y-139421966D01*
X208001966Y-139277219D01*
X208122287Y-139111610D01*
X208215220Y-138929219D01*
X208278477Y-138734534D01*
X208310500Y-138532352D01*
X208310500Y-138327648D01*
X208278477Y-138125466D01*
X208215220Y-137930781D01*
X208122287Y-137748390D01*
X208098803Y-137716067D01*
X208001971Y-137582787D01*
X208001964Y-137582779D01*
X207857220Y-137438035D01*
X207857212Y-137438028D01*
X207691612Y-137317714D01*
X207509224Y-137224782D01*
X207509220Y-137224780D01*
X207509219Y-137224780D01*
X207314534Y-137161523D01*
X207112352Y-137129500D01*
X206907648Y-137129500D01*
X206739163Y-137156185D01*
X206705465Y-137161523D01*
X206510787Y-137224778D01*
X206510775Y-137224782D01*
X206328387Y-137317714D01*
X206162787Y-137438028D01*
X206162779Y-137438035D01*
X206018035Y-137582779D01*
X206018028Y-137582787D01*
X205897714Y-137748387D01*
X205804782Y-137930775D01*
X205804778Y-137930787D01*
X205749132Y-138102049D01*
X205741523Y-138125466D01*
X205709500Y-138327648D01*
X198150500Y-138327648D01*
X198118477Y-138125466D01*
X198055220Y-137930781D01*
X197962287Y-137748390D01*
X197938803Y-137716067D01*
X197841971Y-137582787D01*
X197841964Y-137582779D01*
X197697220Y-137438035D01*
X197697212Y-137438028D01*
X197531612Y-137317714D01*
X197349224Y-137224782D01*
X197349220Y-137224780D01*
X197349219Y-137224780D01*
X197154534Y-137161523D01*
X196952352Y-137129500D01*
X196747648Y-137129500D01*
X196579163Y-137156185D01*
X196545465Y-137161523D01*
X196350787Y-137224778D01*
X196350775Y-137224782D01*
X196168387Y-137317714D01*
X196002787Y-137438028D01*
X196002779Y-137438035D01*
X195858035Y-137582779D01*
X195858033Y-137582782D01*
X195838409Y-137609793D01*
X195775795Y-137695975D01*
X195761197Y-137716067D01*
X195701257Y-137764605D01*
X195625079Y-137776671D01*
X195553073Y-137749031D01*
X195511625Y-137700500D01*
X195510870Y-137700964D01*
X195507946Y-137696192D01*
X195507892Y-137696129D01*
X195507816Y-137695979D01*
X195507813Y-137695975D01*
X195445198Y-137609793D01*
X195378242Y-137517635D01*
X195222365Y-137361758D01*
X195120724Y-137287912D01*
X195044024Y-137232186D01*
X195044023Y-137232185D01*
X194847606Y-137132105D01*
X194637956Y-137063985D01*
X194516990Y-137044826D01*
X194420222Y-137029500D01*
X194199778Y-137029500D01*
X194112686Y-137043294D01*
X193982043Y-137063985D01*
X193772393Y-137132105D01*
X193575976Y-137232185D01*
X193575975Y-137232186D01*
X193397636Y-137361757D01*
X193397632Y-137361760D01*
X193374580Y-137384812D01*
X193307784Y-137423375D01*
X193230656Y-137423373D01*
X193163862Y-137384808D01*
X193129617Y-137331519D01*
X193113353Y-137287912D01*
X193113349Y-137287905D01*
X193027190Y-137172812D01*
X193027187Y-137172809D01*
X192912094Y-137086650D01*
X192912084Y-137086645D01*
X192777376Y-137036401D01*
X192777378Y-137036401D01*
X192717842Y-137030001D01*
X192717823Y-137030000D01*
X191920000Y-137030000D01*
X191920000Y-138004318D01*
X191829244Y-137980000D01*
X191710756Y-137980000D01*
X191620000Y-138004318D01*
X191620000Y-137030000D01*
X190822177Y-137030000D01*
X190822157Y-137030001D01*
X190762622Y-137036401D01*
X190627915Y-137086645D01*
X190627905Y-137086650D01*
X190512812Y-137172809D01*
X190512809Y-137172812D01*
X190426650Y-137287905D01*
X190426645Y-137287915D01*
X190376401Y-137422622D01*
X190370001Y-137482157D01*
X190370000Y-137482177D01*
X175875321Y-137482177D01*
X175907551Y-137437816D01*
X176004057Y-137248412D01*
X176069746Y-137046243D01*
X176103000Y-136836287D01*
X176103000Y-136623713D01*
X176069746Y-136413757D01*
X176004057Y-136211588D01*
X175907551Y-136022184D01*
X175782604Y-135850208D01*
X175632292Y-135699896D01*
X175467589Y-135580233D01*
X175419052Y-135520294D01*
X175406986Y-135444116D01*
X175434626Y-135372110D01*
X175467590Y-135339146D01*
X175596126Y-135245758D01*
X174984038Y-134633670D01*
X175059507Y-134590099D01*
X175152599Y-134497007D01*
X175196170Y-134421538D01*
X175808259Y-135033627D01*
X175808259Y-135033626D01*
X175907121Y-134897555D01*
X175907122Y-134897555D01*
X176003593Y-134708220D01*
X176069257Y-134506128D01*
X176102500Y-134296242D01*
X176102500Y-134083757D01*
X176069257Y-133873871D01*
X176003593Y-133671779D01*
X175907121Y-133482444D01*
X175808258Y-133346372D01*
X175196170Y-133958460D01*
X175152599Y-133882993D01*
X175059507Y-133789901D01*
X174984037Y-133746328D01*
X175596126Y-133134240D01*
X175460051Y-133035375D01*
X175270720Y-132938906D01*
X175068628Y-132873242D01*
X174858742Y-132840000D01*
X174646258Y-132840000D01*
X174436371Y-132873242D01*
X174234279Y-132938906D01*
X174044944Y-133035378D01*
X174044943Y-133035378D01*
X173908872Y-133134239D01*
X173908872Y-133134240D01*
X174520961Y-133746329D01*
X174445493Y-133789901D01*
X174352401Y-133882993D01*
X174308829Y-133958461D01*
X173696740Y-133346372D01*
X173696738Y-133346372D01*
X173603042Y-133475334D01*
X173543102Y-133523872D01*
X173466924Y-133535938D01*
X173394919Y-133508297D01*
X173361956Y-133475334D01*
X173268259Y-133346372D01*
X173268258Y-133346372D01*
X172656170Y-133958460D01*
X172612599Y-133882993D01*
X172519507Y-133789901D01*
X172444037Y-133746328D01*
X173056126Y-133134240D01*
X172920051Y-133035375D01*
X172730720Y-132938906D01*
X172528628Y-132873242D01*
X172318742Y-132840000D01*
X172106258Y-132840000D01*
X171896371Y-132873242D01*
X171694279Y-132938906D01*
X171504944Y-133035378D01*
X171504943Y-133035378D01*
X171368872Y-133134239D01*
X171368872Y-133134240D01*
X171980961Y-133746329D01*
X171905493Y-133789901D01*
X171812401Y-133882993D01*
X171768829Y-133958461D01*
X171156740Y-133346372D01*
X171156739Y-133346372D01*
X171057878Y-133482443D01*
X171057878Y-133482444D01*
X170961406Y-133671779D01*
X170895742Y-133873871D01*
X170862500Y-134083757D01*
X170862500Y-134296242D01*
X170895742Y-134506128D01*
X170961406Y-134708220D01*
X171057875Y-134897551D01*
X171156740Y-135033626D01*
X171768828Y-134421537D01*
X171812401Y-134497007D01*
X171905493Y-134590099D01*
X171980960Y-134633670D01*
X171368872Y-135245758D01*
X171368872Y-135245759D01*
X171497409Y-135339147D01*
X171545947Y-135399087D01*
X171558013Y-135475265D01*
X171530372Y-135547270D01*
X171497409Y-135580234D01*
X171332709Y-135699895D01*
X171332706Y-135699897D01*
X171182397Y-135850206D01*
X171182395Y-135850209D01*
X171057450Y-136022181D01*
X171057450Y-136022182D01*
X171057449Y-136022184D01*
X170960943Y-136211588D01*
X170895254Y-136413757D01*
X170862000Y-136623713D01*
X155370499Y-136623713D01*
X155370499Y-136559992D01*
X155359999Y-136457203D01*
X155304814Y-136290666D01*
X155212712Y-136141344D01*
X155088656Y-136017288D01*
X154939334Y-135925186D01*
X154939333Y-135925185D01*
X154939332Y-135925185D01*
X154939328Y-135925183D01*
X154903669Y-135913367D01*
X154839230Y-135870984D01*
X154804616Y-135802059D01*
X154809102Y-135725062D01*
X154851485Y-135660623D01*
X154862945Y-135651397D01*
X154917219Y-135611966D01*
X155061966Y-135467219D01*
X155182287Y-135301610D01*
X155275220Y-135119219D01*
X155338477Y-134924534D01*
X155370500Y-134722352D01*
X155370500Y-134517648D01*
X155338477Y-134315466D01*
X155275220Y-134120781D01*
X155182287Y-133938390D01*
X155135412Y-133873871D01*
X155061971Y-133772787D01*
X155061964Y-133772779D01*
X154917220Y-133628035D01*
X154917212Y-133628028D01*
X154751609Y-133507712D01*
X154702085Y-133482478D01*
X154674251Y-133457415D01*
X154646043Y-133432799D01*
X154645656Y-133431668D01*
X154644768Y-133430869D01*
X154633191Y-133395237D01*
X154621074Y-133359824D01*
X154621304Y-133358652D01*
X154620935Y-133357516D01*
X154628721Y-133320887D01*
X154635938Y-133284142D01*
X154636695Y-133283372D01*
X154636972Y-133282073D01*
X154686651Y-133226031D01*
X154917515Y-133070961D01*
X155061587Y-132926889D01*
X155181856Y-132761354D01*
X155274753Y-132579032D01*
X155274758Y-132579020D01*
X155337990Y-132384416D01*
X155362447Y-132230000D01*
X154043918Y-132230000D01*
X154070000Y-132132661D01*
X154070000Y-132027339D01*
X154043918Y-131930000D01*
X155362446Y-131930000D01*
X155337990Y-131775583D01*
X155274758Y-131580979D01*
X155274753Y-131580967D01*
X155181856Y-131398645D01*
X155061587Y-131233110D01*
X154916889Y-131088412D01*
X154751354Y-130968143D01*
X154702086Y-130943040D01*
X154644769Y-130891431D01*
X154620935Y-130818078D01*
X154636971Y-130742635D01*
X154688580Y-130685318D01*
X154702083Y-130677522D01*
X154751610Y-130652287D01*
X154917219Y-130531966D01*
X155061966Y-130387219D01*
X155182287Y-130221610D01*
X155275220Y-130039219D01*
X155338477Y-129844534D01*
X155370500Y-129642352D01*
X155370500Y-129437648D01*
X155349007Y-129301950D01*
X163600000Y-129301950D01*
X163600000Y-129538049D01*
X163636934Y-129771250D01*
X163709894Y-129995793D01*
X163709898Y-129995805D01*
X163817086Y-130206171D01*
X163817086Y-130206172D01*
X163936851Y-130371015D01*
X164656328Y-129651537D01*
X164699901Y-129727007D01*
X164792993Y-129820099D01*
X164868461Y-129863670D01*
X164148983Y-130583147D01*
X164148983Y-130583148D01*
X164313826Y-130702913D01*
X164313832Y-130702916D01*
X164524189Y-130810098D01*
X164524206Y-130810105D01*
X164748749Y-130883065D01*
X164981951Y-130920000D01*
X165218049Y-130920000D01*
X165451250Y-130883065D01*
X165675793Y-130810105D01*
X165675810Y-130810098D01*
X165886167Y-130702916D01*
X165886181Y-130702908D01*
X166051015Y-130583149D01*
X166051015Y-130583147D01*
X165331538Y-129863670D01*
X165407007Y-129820099D01*
X165500099Y-129727007D01*
X165543670Y-129651538D01*
X166263147Y-130371015D01*
X166263149Y-130371015D01*
X166382908Y-130206181D01*
X166382916Y-130206167D01*
X166490098Y-129995810D01*
X166490105Y-129995793D01*
X166563065Y-129771250D01*
X166600000Y-129538049D01*
X166600000Y-129301950D01*
X166563065Y-129068749D01*
X166490105Y-128844206D01*
X166490098Y-128844189D01*
X166382916Y-128633832D01*
X166382913Y-128633826D01*
X166263147Y-128468983D01*
X165543670Y-129188460D01*
X165500099Y-129112993D01*
X165407007Y-129019901D01*
X165331537Y-128976328D01*
X166051015Y-128256851D01*
X165886171Y-128137086D01*
X165675805Y-128029898D01*
X165675793Y-128029894D01*
X165451250Y-127956934D01*
X165218049Y-127920000D01*
X164981951Y-127920000D01*
X164748749Y-127956934D01*
X164524206Y-128029894D01*
X164524194Y-128029898D01*
X164313828Y-128137086D01*
X164313821Y-128137090D01*
X164148983Y-128256850D01*
X164148983Y-128256851D01*
X164868461Y-128976329D01*
X164792993Y-129019901D01*
X164699901Y-129112993D01*
X164656329Y-129188461D01*
X163936851Y-128468983D01*
X163936850Y-128468983D01*
X163817090Y-128633821D01*
X163817086Y-128633828D01*
X163709898Y-128844194D01*
X163709894Y-128844206D01*
X163636934Y-129068749D01*
X163600000Y-129301950D01*
X155349007Y-129301950D01*
X155338477Y-129235466D01*
X155275220Y-129040781D01*
X155182287Y-128858390D01*
X155171973Y-128844194D01*
X155061971Y-128692787D01*
X155061964Y-128692779D01*
X154917220Y-128548035D01*
X154917212Y-128548028D01*
X154767601Y-128439331D01*
X154767600Y-128439330D01*
X154751610Y-128427713D01*
X154699477Y-128401150D01*
X154696883Y-128399696D01*
X154671313Y-128374770D01*
X154644768Y-128350869D01*
X154643829Y-128347979D01*
X154641654Y-128345859D01*
X154631972Y-128311488D01*
X154620935Y-128277516D01*
X154621566Y-128274543D01*
X154620743Y-128271619D01*
X154629546Y-128237006D01*
X154636972Y-128202073D01*
X154639005Y-128199814D01*
X154639754Y-128196871D01*
X154664679Y-128171301D01*
X154688581Y-128144756D01*
X154693096Y-128142148D01*
X154693591Y-128141642D01*
X154694340Y-128141430D01*
X154702088Y-128136958D01*
X154751354Y-128111856D01*
X154916889Y-127991587D01*
X155061587Y-127846889D01*
X155181856Y-127681354D01*
X155274753Y-127499032D01*
X155274758Y-127499020D01*
X155337990Y-127304416D01*
X155362447Y-127150000D01*
X154043918Y-127150000D01*
X154070000Y-127052661D01*
X154070000Y-126947339D01*
X154043918Y-126850000D01*
X155362446Y-126850000D01*
X155337990Y-126695583D01*
X155274758Y-126500979D01*
X155274753Y-126500967D01*
X155181856Y-126318645D01*
X155061587Y-126153110D01*
X154916889Y-126008412D01*
X154751354Y-125888143D01*
X154702086Y-125863040D01*
X154702058Y-125863014D01*
X154702021Y-125863007D01*
X154673066Y-125836910D01*
X154644769Y-125811431D01*
X154644757Y-125811395D01*
X154644729Y-125811370D01*
X154632692Y-125774264D01*
X154620935Y-125738078D01*
X154620942Y-125738041D01*
X154620931Y-125738005D01*
X154629036Y-125699962D01*
X154636971Y-125662635D01*
X154636996Y-125662607D01*
X154637004Y-125662570D01*
X154637259Y-125662314D01*
X154668473Y-125627648D01*
X167609500Y-125627648D01*
X167609500Y-125832352D01*
X167641523Y-126034534D01*
X167682289Y-126160000D01*
X167704778Y-126229212D01*
X167704782Y-126229224D01*
X167797714Y-126411612D01*
X167918028Y-126577212D01*
X167918035Y-126577220D01*
X168062779Y-126721964D01*
X168062787Y-126721971D01*
X168228387Y-126842285D01*
X168228390Y-126842287D01*
X168410781Y-126935220D01*
X168605466Y-126998477D01*
X168807648Y-127030500D01*
X168807653Y-127030500D01*
X169012347Y-127030500D01*
X169012352Y-127030500D01*
X169214534Y-126998477D01*
X169409219Y-126935220D01*
X169591610Y-126842287D01*
X169757219Y-126721966D01*
X169901966Y-126577219D01*
X170022287Y-126411610D01*
X170115220Y-126229219D01*
X170178477Y-126034534D01*
X170210500Y-125832352D01*
X170210500Y-125627648D01*
X170178477Y-125425466D01*
X170115220Y-125230781D01*
X170063867Y-125129995D01*
X177769500Y-125129995D01*
X177769500Y-126330003D01*
X177769501Y-126330008D01*
X177780001Y-126432797D01*
X177835186Y-126599334D01*
X177927288Y-126748656D01*
X178051344Y-126872712D01*
X178200666Y-126964814D01*
X178367203Y-127019999D01*
X178469991Y-127030500D01*
X179670008Y-127030499D01*
X179772797Y-127019999D01*
X179939334Y-126964814D01*
X180088656Y-126872712D01*
X180212712Y-126748656D01*
X180304814Y-126599334D01*
X180359999Y-126432797D01*
X180370500Y-126330009D01*
X180370499Y-125129992D01*
X180359999Y-125027203D01*
X180304814Y-124860666D01*
X180212712Y-124711344D01*
X180088656Y-124587288D01*
X179939334Y-124495186D01*
X179833147Y-124459999D01*
X179772798Y-124440001D01*
X179755665Y-124438250D01*
X179670009Y-124429500D01*
X179670004Y-124429500D01*
X178469996Y-124429500D01*
X178367202Y-124440001D01*
X178200666Y-124495186D01*
X178051343Y-124587288D01*
X177927288Y-124711343D01*
X177835186Y-124860666D01*
X177780001Y-125027201D01*
X177769500Y-125129995D01*
X170063867Y-125129995D01*
X170022287Y-125048390D01*
X170006893Y-125027202D01*
X169901971Y-124882787D01*
X169901964Y-124882779D01*
X169757220Y-124738035D01*
X169757212Y-124738028D01*
X169591612Y-124617714D01*
X169409224Y-124524782D01*
X169409220Y-124524780D01*
X169409219Y-124524780D01*
X169214534Y-124461523D01*
X169012352Y-124429500D01*
X168807648Y-124429500D01*
X168639163Y-124456185D01*
X168605465Y-124461523D01*
X168410787Y-124524778D01*
X168410775Y-124524782D01*
X168228387Y-124617714D01*
X168062787Y-124738028D01*
X168062779Y-124738035D01*
X167918035Y-124882779D01*
X167918028Y-124882787D01*
X167797714Y-125048387D01*
X167704782Y-125230775D01*
X167704778Y-125230787D01*
X167647686Y-125406499D01*
X167641523Y-125425466D01*
X167609500Y-125627648D01*
X154668473Y-125627648D01*
X154688580Y-125605318D01*
X154688641Y-125605278D01*
X154695154Y-125601052D01*
X154751610Y-125572287D01*
X154917219Y-125451966D01*
X155061966Y-125307219D01*
X155182287Y-125141610D01*
X155275220Y-124959219D01*
X155338477Y-124764534D01*
X155370500Y-124562352D01*
X155370500Y-124357648D01*
X155338477Y-124155466D01*
X155275220Y-123960781D01*
X155182287Y-123778390D01*
X155130050Y-123706491D01*
X155061971Y-123612787D01*
X155061964Y-123612779D01*
X154917220Y-123468035D01*
X154917212Y-123468028D01*
X154906151Y-123459992D01*
X201735541Y-123459992D01*
X201735541Y-125460008D01*
X201739517Y-125498929D01*
X201746042Y-125562798D01*
X201767533Y-125627652D01*
X201798956Y-125722482D01*
X201801228Y-125729336D01*
X201822952Y-125764556D01*
X201893330Y-125878655D01*
X202017386Y-126002711D01*
X202166707Y-126094814D01*
X202333244Y-126149999D01*
X202436033Y-126160500D01*
X202436037Y-126160500D01*
X204436045Y-126160500D01*
X204436049Y-126160500D01*
X204538838Y-126149999D01*
X204705375Y-126094814D01*
X204854696Y-126002711D01*
X204978752Y-125878655D01*
X205070855Y-125729334D01*
X205126040Y-125562797D01*
X205136541Y-125460008D01*
X205136541Y-124348570D01*
X209236041Y-124348570D01*
X209236041Y-124571429D01*
X209265125Y-124792349D01*
X209265128Y-124792366D01*
X209322802Y-125007615D01*
X209408088Y-125213508D01*
X209519511Y-125406499D01*
X209519511Y-125406500D01*
X209631483Y-125552423D01*
X210419164Y-124764742D01*
X210455922Y-124828408D01*
X210567633Y-124940119D01*
X210631296Y-124976875D01*
X209843615Y-125764556D01*
X209989541Y-125876529D01*
X210182532Y-125987952D01*
X210388425Y-126073238D01*
X210603674Y-126130912D01*
X210603691Y-126130915D01*
X210824611Y-126159999D01*
X210824617Y-126160000D01*
X211047465Y-126160000D01*
X211047470Y-126159999D01*
X211268390Y-126130915D01*
X211268407Y-126130912D01*
X211483656Y-126073238D01*
X211689549Y-125987952D01*
X211882540Y-125876529D01*
X211882541Y-125876529D01*
X212028464Y-125764556D01*
X212028465Y-125764556D01*
X211240784Y-124976875D01*
X211304449Y-124940119D01*
X211416160Y-124828408D01*
X211452916Y-124764743D01*
X212240597Y-125552424D01*
X212240597Y-125552423D01*
X212352570Y-125406500D01*
X212352570Y-125406499D01*
X212463993Y-125213508D01*
X212549279Y-125007615D01*
X212606953Y-124792366D01*
X212606956Y-124792349D01*
X212636040Y-124571429D01*
X212636041Y-124571424D01*
X212636041Y-124348576D01*
X212636040Y-124348570D01*
X212606956Y-124127650D01*
X212606953Y-124127633D01*
X212549279Y-123912384D01*
X212463993Y-123706491D01*
X212352570Y-123513500D01*
X212352570Y-123513499D01*
X212240597Y-123367574D01*
X211452916Y-124155255D01*
X211416160Y-124091592D01*
X211304449Y-123979881D01*
X211240783Y-123943123D01*
X212028465Y-123155442D01*
X211882540Y-123043470D01*
X211689549Y-122932047D01*
X211483656Y-122846761D01*
X211268407Y-122789087D01*
X211268390Y-122789084D01*
X211047470Y-122760000D01*
X210824611Y-122760000D01*
X210603691Y-122789084D01*
X210603674Y-122789087D01*
X210388425Y-122846761D01*
X210182532Y-122932047D01*
X209989546Y-123043467D01*
X209843615Y-123155442D01*
X210631297Y-123943124D01*
X210567633Y-123979881D01*
X210455922Y-124091592D01*
X210419165Y-124155256D01*
X209631483Y-123367575D01*
X209519508Y-123513505D01*
X209408088Y-123706491D01*
X209322802Y-123912384D01*
X209265128Y-124127633D01*
X209265125Y-124127650D01*
X209236041Y-124348570D01*
X205136541Y-124348570D01*
X205136541Y-123459992D01*
X205126040Y-123357203D01*
X205070855Y-123190666D01*
X204978752Y-123041345D01*
X204854696Y-122917289D01*
X204822613Y-122897500D01*
X204705377Y-122825187D01*
X204705376Y-122825186D01*
X204705375Y-122825186D01*
X204596427Y-122789084D01*
X204538839Y-122770001D01*
X204538840Y-122770001D01*
X204504575Y-122766500D01*
X204436049Y-122759500D01*
X202436033Y-122759500D01*
X202367507Y-122766500D01*
X202333242Y-122770001D01*
X202166704Y-122825187D01*
X202017385Y-122917289D01*
X201893330Y-123041344D01*
X201801228Y-123190663D01*
X201746042Y-123357201D01*
X201746042Y-123357202D01*
X201746042Y-123357203D01*
X201735541Y-123459992D01*
X154906151Y-123459992D01*
X154751609Y-123347712D01*
X154702085Y-123322478D01*
X154644768Y-123270869D01*
X154620935Y-123197516D01*
X154636972Y-123122073D01*
X154688581Y-123064756D01*
X154702088Y-123056958D01*
X154751354Y-123031856D01*
X154916889Y-122911587D01*
X155061587Y-122766889D01*
X155181856Y-122601354D01*
X155274753Y-122419032D01*
X155274758Y-122419020D01*
X155337990Y-122224416D01*
X155362447Y-122070000D01*
X154043918Y-122070000D01*
X154070000Y-121972661D01*
X154070000Y-121867339D01*
X154052468Y-121801908D01*
X163599500Y-121801908D01*
X163599500Y-122038092D01*
X163636447Y-122271368D01*
X163709432Y-122495992D01*
X163816657Y-122706433D01*
X163955483Y-122897510D01*
X164122490Y-123064517D01*
X164313567Y-123203343D01*
X164524008Y-123310568D01*
X164748632Y-123383553D01*
X164981908Y-123420500D01*
X164981913Y-123420500D01*
X165218087Y-123420500D01*
X165218092Y-123420500D01*
X165451368Y-123383553D01*
X165675992Y-123310568D01*
X165886433Y-123203343D01*
X166077510Y-123064517D01*
X166244517Y-122897510D01*
X166383343Y-122706433D01*
X166490568Y-122495992D01*
X166563553Y-122271368D01*
X166600500Y-122038092D01*
X166600500Y-121817648D01*
X167609500Y-121817648D01*
X167609500Y-122022352D01*
X167641523Y-122224534D01*
X167704719Y-122419032D01*
X167704778Y-122419212D01*
X167704782Y-122419224D01*
X167797714Y-122601612D01*
X167918028Y-122767212D01*
X167918035Y-122767220D01*
X168062779Y-122911964D01*
X168062787Y-122911971D01*
X168228387Y-123032285D01*
X168228390Y-123032287D01*
X168410781Y-123125220D01*
X168605466Y-123188477D01*
X168807648Y-123220500D01*
X168807653Y-123220500D01*
X169012347Y-123220500D01*
X169012352Y-123220500D01*
X169214534Y-123188477D01*
X169409219Y-123125220D01*
X169591610Y-123032287D01*
X169757219Y-122911966D01*
X169901966Y-122767219D01*
X170022287Y-122601610D01*
X170115220Y-122419219D01*
X170178477Y-122224534D01*
X170210500Y-122022352D01*
X170210500Y-121817648D01*
X177769500Y-121817648D01*
X177769500Y-122022352D01*
X177801523Y-122224534D01*
X177864719Y-122419032D01*
X177864778Y-122419212D01*
X177864782Y-122419224D01*
X177957714Y-122601612D01*
X178078028Y-122767212D01*
X178078035Y-122767220D01*
X178222779Y-122911964D01*
X178222787Y-122911971D01*
X178388387Y-123032285D01*
X178388390Y-123032287D01*
X178570781Y-123125220D01*
X178765466Y-123188477D01*
X178967648Y-123220500D01*
X178967653Y-123220500D01*
X179172347Y-123220500D01*
X179172352Y-123220500D01*
X179374534Y-123188477D01*
X179569219Y-123125220D01*
X179751610Y-123032287D01*
X179917219Y-122911966D01*
X180061966Y-122767219D01*
X180182287Y-122601610D01*
X180275220Y-122419219D01*
X180338477Y-122224534D01*
X180370500Y-122022352D01*
X180370500Y-121817648D01*
X180338477Y-121615466D01*
X180275220Y-121420781D01*
X180182287Y-121238390D01*
X180182285Y-121238387D01*
X180061971Y-121072787D01*
X180061964Y-121072779D01*
X179917220Y-120928035D01*
X179917212Y-120928028D01*
X179751612Y-120807714D01*
X179569224Y-120714782D01*
X179569220Y-120714780D01*
X179569219Y-120714780D01*
X179374534Y-120651523D01*
X179172352Y-120619500D01*
X178967648Y-120619500D01*
X178799163Y-120646185D01*
X178765465Y-120651523D01*
X178570787Y-120714778D01*
X178570775Y-120714782D01*
X178388387Y-120807714D01*
X178222787Y-120928028D01*
X178222779Y-120928035D01*
X178078035Y-121072779D01*
X178078028Y-121072787D01*
X177957714Y-121238387D01*
X177864782Y-121420775D01*
X177864780Y-121420781D01*
X177801523Y-121615466D01*
X177769500Y-121817648D01*
X170210500Y-121817648D01*
X170178477Y-121615466D01*
X170115220Y-121420781D01*
X170022287Y-121238390D01*
X170022285Y-121238387D01*
X169901971Y-121072787D01*
X169901964Y-121072779D01*
X169757220Y-120928035D01*
X169757212Y-120928028D01*
X169591612Y-120807714D01*
X169409224Y-120714782D01*
X169409220Y-120714780D01*
X169409219Y-120714780D01*
X169214534Y-120651523D01*
X169012352Y-120619500D01*
X168807648Y-120619500D01*
X168639163Y-120646185D01*
X168605465Y-120651523D01*
X168410787Y-120714778D01*
X168410775Y-120714782D01*
X168228387Y-120807714D01*
X168062787Y-120928028D01*
X168062779Y-120928035D01*
X167918035Y-121072779D01*
X167918028Y-121072787D01*
X167797714Y-121238387D01*
X167704782Y-121420775D01*
X167704780Y-121420781D01*
X167641523Y-121615466D01*
X167609500Y-121817648D01*
X166600500Y-121817648D01*
X166600500Y-121801908D01*
X166563553Y-121568632D01*
X166490568Y-121344008D01*
X166383343Y-121133567D01*
X166244517Y-120942490D01*
X166077510Y-120775483D01*
X165886433Y-120636657D01*
X165675992Y-120529432D01*
X165451368Y-120456447D01*
X165218092Y-120419500D01*
X164981908Y-120419500D01*
X164748632Y-120456447D01*
X164524008Y-120529432D01*
X164524002Y-120529434D01*
X164524002Y-120529435D01*
X164313565Y-120636658D01*
X164122499Y-120775476D01*
X164122488Y-120775485D01*
X163955485Y-120942488D01*
X163955476Y-120942499D01*
X163816658Y-121133565D01*
X163709435Y-121344002D01*
X163709430Y-121344014D01*
X163652249Y-121520000D01*
X163636447Y-121568632D01*
X163599500Y-121801908D01*
X154052468Y-121801908D01*
X154043918Y-121770000D01*
X155362447Y-121770000D01*
X155337990Y-121615583D01*
X155274758Y-121420979D01*
X155274753Y-121420967D01*
X155181856Y-121238645D01*
X155061587Y-121073110D01*
X154916889Y-120928412D01*
X154751354Y-120808143D01*
X154569032Y-120715246D01*
X154569020Y-120715241D01*
X154374416Y-120652010D01*
X154172307Y-120620000D01*
X153820000Y-120620000D01*
X153820000Y-121546081D01*
X153722661Y-121520000D01*
X153617339Y-121520000D01*
X153520000Y-121546081D01*
X153520000Y-120620000D01*
X153167693Y-120620000D01*
X152965583Y-120652010D01*
X152770979Y-120715241D01*
X152770967Y-120715246D01*
X152588645Y-120808143D01*
X152423110Y-120928412D01*
X152278412Y-121073110D01*
X152158143Y-121238645D01*
X152065246Y-121420967D01*
X152065241Y-121420979D01*
X152002009Y-121615583D01*
X151977553Y-121770000D01*
X153296082Y-121770000D01*
X153270000Y-121867339D01*
X153270000Y-121972661D01*
X153296082Y-122070000D01*
X151977553Y-122070000D01*
X152002009Y-122224416D01*
X152065241Y-122419020D01*
X152065246Y-122419032D01*
X152158143Y-122601354D01*
X152278412Y-122766889D01*
X152423110Y-122911587D01*
X152588647Y-123031858D01*
X152637912Y-123056959D01*
X152695229Y-123108567D01*
X152719064Y-123181920D01*
X152703028Y-123257363D01*
X152651420Y-123314680D01*
X152637915Y-123322478D01*
X152588388Y-123347714D01*
X152422787Y-123468028D01*
X152422779Y-123468035D01*
X152278035Y-123612779D01*
X152278028Y-123612787D01*
X152157714Y-123778387D01*
X152064782Y-123960775D01*
X152064780Y-123960781D01*
X152001523Y-124155466D01*
X151969500Y-124357648D01*
X146436685Y-124357648D01*
X146423918Y-124310000D01*
X147742446Y-124310000D01*
X147717990Y-124155583D01*
X147654758Y-123960979D01*
X147654753Y-123960967D01*
X147561856Y-123778645D01*
X147441587Y-123613110D01*
X147296889Y-123468412D01*
X147131354Y-123348143D01*
X147082086Y-123323040D01*
X147024769Y-123271431D01*
X147000935Y-123198078D01*
X147016971Y-123122635D01*
X147068580Y-123065318D01*
X147082083Y-123057522D01*
X147131610Y-123032287D01*
X147297219Y-122911966D01*
X147441966Y-122767219D01*
X147562287Y-122601610D01*
X147655220Y-122419219D01*
X147718477Y-122224534D01*
X147750500Y-122022352D01*
X147750500Y-121817648D01*
X147718477Y-121615466D01*
X147655220Y-121420781D01*
X147562287Y-121238390D01*
X147562285Y-121238387D01*
X147441971Y-121072787D01*
X147441964Y-121072779D01*
X147297220Y-120928035D01*
X147297212Y-120928028D01*
X147131612Y-120807714D01*
X146949224Y-120714782D01*
X146949220Y-120714780D01*
X146949219Y-120714780D01*
X146754534Y-120651523D01*
X146552352Y-120619500D01*
X145547648Y-120619500D01*
X145379163Y-120646185D01*
X145345465Y-120651523D01*
X145150787Y-120714778D01*
X145150775Y-120714782D01*
X144968387Y-120807714D01*
X144802787Y-120928028D01*
X144802779Y-120928035D01*
X144658035Y-121072779D01*
X144658028Y-121072787D01*
X144537714Y-121238387D01*
X144444782Y-121420775D01*
X144444780Y-121420781D01*
X144381523Y-121615466D01*
X144349500Y-121817648D01*
X124500500Y-121817648D01*
X124500500Y-117509995D01*
X167609500Y-117509995D01*
X167609500Y-118710003D01*
X167609501Y-118710008D01*
X167620001Y-118812797D01*
X167675186Y-118979334D01*
X167767288Y-119128656D01*
X167891344Y-119252712D01*
X168040666Y-119344814D01*
X168207203Y-119399999D01*
X168309991Y-119410500D01*
X169510008Y-119410499D01*
X169612797Y-119399999D01*
X169779334Y-119344814D01*
X169928656Y-119252712D01*
X170052712Y-119128656D01*
X170144814Y-118979334D01*
X170199999Y-118812797D01*
X170210500Y-118710009D01*
X170210499Y-118007692D01*
X177770000Y-118007692D01*
X177770000Y-118212307D01*
X177802010Y-118414416D01*
X177865241Y-118609020D01*
X177865246Y-118609032D01*
X177958145Y-118791357D01*
X178050033Y-118917831D01*
X178050035Y-118917831D01*
X178699533Y-118268332D01*
X178749920Y-118355606D01*
X178824394Y-118430080D01*
X178911665Y-118480466D01*
X178262167Y-119129963D01*
X178262167Y-119129965D01*
X178388642Y-119221854D01*
X178570967Y-119314753D01*
X178570979Y-119314758D01*
X178765583Y-119377989D01*
X178967693Y-119410000D01*
X179172307Y-119410000D01*
X179374416Y-119377989D01*
X179569020Y-119314758D01*
X179569038Y-119314751D01*
X179751345Y-119221861D01*
X179751350Y-119221858D01*
X179877831Y-119129964D01*
X179877831Y-119129963D01*
X179228334Y-118480466D01*
X179315606Y-118430080D01*
X179390080Y-118355606D01*
X179440466Y-118268334D01*
X180089963Y-118917831D01*
X180089964Y-118917831D01*
X180181858Y-118791350D01*
X180181861Y-118791345D01*
X180274751Y-118609038D01*
X180274758Y-118609020D01*
X180337989Y-118414416D01*
X180370000Y-118212307D01*
X180370000Y-118007692D01*
X180337989Y-117805583D01*
X180274758Y-117610979D01*
X180274753Y-117610967D01*
X180181854Y-117428642D01*
X180089965Y-117302167D01*
X180089963Y-117302167D01*
X179440465Y-117951665D01*
X179390080Y-117864394D01*
X179315606Y-117789920D01*
X179228332Y-117739533D01*
X179877831Y-117090035D01*
X179877831Y-117090033D01*
X179751357Y-116998145D01*
X179569032Y-116905246D01*
X179569020Y-116905241D01*
X179374416Y-116842010D01*
X179172307Y-116810000D01*
X178967693Y-116810000D01*
X178765583Y-116842010D01*
X178570979Y-116905241D01*
X178570967Y-116905246D01*
X178388650Y-116998141D01*
X178388643Y-116998145D01*
X178262167Y-117090034D01*
X178262167Y-117090035D01*
X178911665Y-117739533D01*
X178824394Y-117789920D01*
X178749920Y-117864394D01*
X178699533Y-117951665D01*
X178050035Y-117302167D01*
X178050034Y-117302167D01*
X177958145Y-117428643D01*
X177958141Y-117428650D01*
X177865246Y-117610967D01*
X177865241Y-117610979D01*
X177802010Y-117805583D01*
X177770000Y-118007692D01*
X170210499Y-118007692D01*
X170210499Y-117509992D01*
X170199999Y-117407203D01*
X170144814Y-117240666D01*
X170052712Y-117091344D01*
X169928656Y-116967288D01*
X169779334Y-116875186D01*
X169679216Y-116842010D01*
X169612798Y-116820001D01*
X169595665Y-116818250D01*
X169510009Y-116809500D01*
X169510004Y-116809500D01*
X168309996Y-116809500D01*
X168207202Y-116820001D01*
X168040666Y-116875186D01*
X167891343Y-116967288D01*
X167767288Y-117091343D01*
X167675186Y-117240666D01*
X167620001Y-117407201D01*
X167609500Y-117509995D01*
X124500500Y-117509995D01*
X124500500Y-113149000D01*
X124520462Y-113074500D01*
X124575000Y-113019962D01*
X124649500Y-113000000D01*
X171000000Y-113000000D01*
X179590386Y-104409614D01*
X196279500Y-104409614D01*
X196279500Y-106410363D01*
X196279502Y-106410388D01*
X196285908Y-106469978D01*
X196285909Y-106469984D01*
X196336202Y-106604829D01*
X196336204Y-106604833D01*
X196422452Y-106720044D01*
X196422455Y-106720047D01*
X196537666Y-106806295D01*
X196547023Y-106811404D01*
X196546082Y-106813126D01*
X196598025Y-106850115D01*
X196630063Y-106920274D01*
X196622730Y-106997053D01*
X196603670Y-107032560D01*
X196490212Y-107188721D01*
X196490209Y-107188727D01*
X196386421Y-107392423D01*
X196386414Y-107392440D01*
X196315766Y-107609871D01*
X196285653Y-107800000D01*
X197250791Y-107800000D01*
X197230000Y-107877591D01*
X197230000Y-108022409D01*
X197250791Y-108100000D01*
X196285653Y-108100000D01*
X196315766Y-108290128D01*
X196386414Y-108507559D01*
X196386421Y-108507576D01*
X196490209Y-108711272D01*
X196490212Y-108711277D01*
X196624592Y-108896236D01*
X196786263Y-109057907D01*
X196843025Y-109099147D01*
X196891563Y-109159087D01*
X196903629Y-109235266D01*
X196875989Y-109307271D01*
X196843026Y-109340234D01*
X196785938Y-109381711D01*
X196785932Y-109381716D01*
X196624211Y-109543437D01*
X196489785Y-109728457D01*
X196489784Y-109728460D01*
X196385955Y-109932236D01*
X196385948Y-109932251D01*
X196315278Y-110149752D01*
X196315278Y-110149755D01*
X196279500Y-110375646D01*
X196279500Y-110604354D01*
X196305055Y-110765704D01*
X196315278Y-110830247D01*
X196385948Y-111047748D01*
X196385950Y-111047753D01*
X196385952Y-111047758D01*
X196385955Y-111047763D01*
X196489784Y-111251539D01*
X196489785Y-111251542D01*
X196624211Y-111436562D01*
X196624214Y-111436566D01*
X196785934Y-111598286D01*
X196785937Y-111598288D01*
X196970957Y-111732714D01*
X196970958Y-111732714D01*
X196970962Y-111732717D01*
X197174742Y-111836548D01*
X197392255Y-111907222D01*
X197618146Y-111943000D01*
X197618151Y-111943000D01*
X197941849Y-111943000D01*
X197941854Y-111943000D01*
X198167745Y-111907222D01*
X198385258Y-111836548D01*
X198589038Y-111732717D01*
X198774066Y-111598286D01*
X198935786Y-111436566D01*
X199070217Y-111251538D01*
X199174048Y-111047758D01*
X199244722Y-110830245D01*
X199280500Y-110604354D01*
X199280500Y-110375646D01*
X199244722Y-110149755D01*
X199174048Y-109932242D01*
X199070217Y-109728462D01*
X199070214Y-109728458D01*
X199070214Y-109728457D01*
X198935788Y-109543437D01*
X198935786Y-109543434D01*
X198774066Y-109381714D01*
X198716974Y-109340234D01*
X198668436Y-109280294D01*
X198656370Y-109204116D01*
X198684011Y-109132111D01*
X198716975Y-109099147D01*
X198773734Y-109057909D01*
X198935407Y-108896236D01*
X199069787Y-108711277D01*
X199069790Y-108711272D01*
X199173578Y-108507576D01*
X199173585Y-108507559D01*
X199244233Y-108290128D01*
X199274347Y-108100000D01*
X198309209Y-108100000D01*
X198330000Y-108022409D01*
X198330000Y-107877591D01*
X198314267Y-107818876D01*
X212439500Y-107818876D01*
X212439500Y-108081123D01*
X212473728Y-108341107D01*
X212473728Y-108341110D01*
X212541600Y-108594415D01*
X212541600Y-108594416D01*
X212590004Y-108711272D01*
X212641957Y-108836697D01*
X212757601Y-109037000D01*
X212773078Y-109063806D01*
X212773078Y-109063807D01*
X212932715Y-109271848D01*
X213118151Y-109457284D01*
X213326193Y-109616921D01*
X213326197Y-109616924D01*
X213553303Y-109748043D01*
X213757809Y-109832752D01*
X213795583Y-109848399D01*
X213883332Y-109871910D01*
X214048884Y-109916270D01*
X214048890Y-109916270D01*
X214048891Y-109916271D01*
X214085834Y-109921134D01*
X214308877Y-109950499D01*
X214308878Y-109950500D01*
X214308880Y-109950500D01*
X214571122Y-109950500D01*
X214571122Y-109950499D01*
X214831108Y-109916271D01*
X214831110Y-109916271D01*
X214831111Y-109916270D01*
X214831116Y-109916270D01*
X215084415Y-109848399D01*
X215084416Y-109848399D01*
X215084417Y-109848398D01*
X215084419Y-109848398D01*
X215326697Y-109748043D01*
X215553803Y-109616924D01*
X215761848Y-109457284D01*
X215761849Y-109457284D01*
X215947284Y-109271849D01*
X215947284Y-109271848D01*
X216106921Y-109063807D01*
X216106921Y-109063806D01*
X216106924Y-109063803D01*
X216238043Y-108836697D01*
X216338398Y-108594419D01*
X216406270Y-108341116D01*
X216440500Y-108081120D01*
X216440500Y-107818880D01*
X216406270Y-107558884D01*
X216338398Y-107305581D01*
X216238043Y-107063303D01*
X216106924Y-106836197D01*
X216106921Y-106836193D01*
X216106921Y-106836192D01*
X215947284Y-106628151D01*
X215761848Y-106442715D01*
X215553806Y-106283078D01*
X215326701Y-106151959D01*
X215326699Y-106151958D01*
X215326697Y-106151957D01*
X215251154Y-106120666D01*
X215084416Y-106051600D01*
X214858255Y-105991002D01*
X214831116Y-105983730D01*
X214831114Y-105983729D01*
X214831108Y-105983728D01*
X214571123Y-105949500D01*
X214571120Y-105949500D01*
X214308880Y-105949500D01*
X214308876Y-105949500D01*
X214048892Y-105983728D01*
X214048889Y-105983728D01*
X213795584Y-106051600D01*
X213795583Y-106051600D01*
X213553298Y-106151959D01*
X213326193Y-106283078D01*
X213326192Y-106283078D01*
X213118151Y-106442715D01*
X213118151Y-106442716D01*
X213118149Y-106442718D01*
X212932718Y-106628149D01*
X212932716Y-106628151D01*
X212932715Y-106628151D01*
X212773078Y-106836192D01*
X212773078Y-106836193D01*
X212641959Y-107063298D01*
X212541600Y-107305583D01*
X212541600Y-107305584D01*
X212473728Y-107558889D01*
X212473728Y-107558892D01*
X212439500Y-107818876D01*
X198314267Y-107818876D01*
X198309209Y-107800000D01*
X199274347Y-107800000D01*
X199244233Y-107609871D01*
X199173585Y-107392440D01*
X199173578Y-107392423D01*
X199069790Y-107188727D01*
X199069782Y-107188713D01*
X198956330Y-107032560D01*
X198928689Y-106960555D01*
X198940755Y-106884376D01*
X198989293Y-106824437D01*
X199013111Y-106811650D01*
X199012977Y-106811404D01*
X199022333Y-106806295D01*
X199079938Y-106763171D01*
X199137546Y-106720046D01*
X199223796Y-106604831D01*
X199274091Y-106469983D01*
X199277023Y-106442715D01*
X199280499Y-106410385D01*
X199280499Y-106410382D01*
X199280500Y-106410373D01*
X199280499Y-104409628D01*
X199274091Y-104350017D01*
X199259588Y-104311133D01*
X199223797Y-104215170D01*
X199223795Y-104215166D01*
X199137547Y-104099955D01*
X199137544Y-104099952D01*
X199022333Y-104013704D01*
X199022329Y-104013702D01*
X198887482Y-103963408D01*
X198827876Y-103957000D01*
X196732136Y-103957000D01*
X196732111Y-103957002D01*
X196672521Y-103963408D01*
X196672515Y-103963409D01*
X196537670Y-104013702D01*
X196537666Y-104013704D01*
X196422455Y-104099952D01*
X196422452Y-104099955D01*
X196336204Y-104215166D01*
X196336202Y-104215170D01*
X196285908Y-104350017D01*
X196279500Y-104409614D01*
X179590386Y-104409614D01*
X186000000Y-98000000D01*
X186000000Y-89169992D01*
X206815541Y-89169992D01*
X206815541Y-91170008D01*
X206826042Y-91272797D01*
X206881227Y-91439334D01*
X206973330Y-91588655D01*
X207097386Y-91712711D01*
X207246707Y-91804814D01*
X207413244Y-91859999D01*
X207516033Y-91870500D01*
X207516037Y-91870500D01*
X209516045Y-91870500D01*
X209516049Y-91870500D01*
X209618838Y-91859999D01*
X209785375Y-91804814D01*
X209934696Y-91712711D01*
X210058752Y-91588655D01*
X210150855Y-91439334D01*
X210206040Y-91272797D01*
X210216541Y-91170008D01*
X210216541Y-90058570D01*
X214316041Y-90058570D01*
X214316041Y-90281429D01*
X214345125Y-90502349D01*
X214345128Y-90502366D01*
X214402802Y-90717615D01*
X214488088Y-90923508D01*
X214599511Y-91116499D01*
X214599511Y-91116500D01*
X214711483Y-91262423D01*
X215499164Y-90474742D01*
X215535922Y-90538408D01*
X215647633Y-90650119D01*
X215711296Y-90686875D01*
X214923615Y-91474556D01*
X215069541Y-91586529D01*
X215262532Y-91697952D01*
X215468425Y-91783238D01*
X215683674Y-91840912D01*
X215683691Y-91840915D01*
X215904611Y-91869999D01*
X215904617Y-91870000D01*
X216127465Y-91870000D01*
X216127470Y-91869999D01*
X216348390Y-91840915D01*
X216348407Y-91840912D01*
X216563656Y-91783238D01*
X216769549Y-91697952D01*
X216962540Y-91586529D01*
X216962541Y-91586529D01*
X217108464Y-91474556D01*
X217108465Y-91474556D01*
X216320784Y-90686875D01*
X216384449Y-90650119D01*
X216496160Y-90538408D01*
X216532916Y-90474743D01*
X217320597Y-91262424D01*
X217320597Y-91262423D01*
X217432570Y-91116500D01*
X217432570Y-91116499D01*
X217543993Y-90923508D01*
X217629279Y-90717615D01*
X217686953Y-90502366D01*
X217686956Y-90502349D01*
X217716040Y-90281429D01*
X217716041Y-90281424D01*
X217716041Y-90058576D01*
X217716040Y-90058570D01*
X217686956Y-89837650D01*
X217686953Y-89837633D01*
X217629279Y-89622384D01*
X217543993Y-89416491D01*
X217432570Y-89223500D01*
X217432570Y-89223499D01*
X217320597Y-89077574D01*
X216532916Y-89865255D01*
X216496160Y-89801592D01*
X216384449Y-89689881D01*
X216320783Y-89653123D01*
X217108465Y-88865442D01*
X216962540Y-88753470D01*
X216769549Y-88642047D01*
X216563656Y-88556761D01*
X216348407Y-88499087D01*
X216348390Y-88499084D01*
X216127470Y-88470000D01*
X215904611Y-88470000D01*
X215683691Y-88499084D01*
X215683674Y-88499087D01*
X215468425Y-88556761D01*
X215262532Y-88642047D01*
X215069546Y-88753467D01*
X214923615Y-88865442D01*
X215711297Y-89653124D01*
X215647633Y-89689881D01*
X215535922Y-89801592D01*
X215499165Y-89865256D01*
X214711483Y-89077575D01*
X214599508Y-89223505D01*
X214488088Y-89416491D01*
X214402802Y-89622384D01*
X214345128Y-89837633D01*
X214345125Y-89837650D01*
X214316041Y-90058570D01*
X210216541Y-90058570D01*
X210216541Y-89169992D01*
X210206040Y-89067203D01*
X210150855Y-88900666D01*
X210058752Y-88751345D01*
X209934696Y-88627289D01*
X209785377Y-88535187D01*
X209785376Y-88535186D01*
X209785375Y-88535186D01*
X209676427Y-88499084D01*
X209618839Y-88480001D01*
X209618840Y-88480001D01*
X209584575Y-88476500D01*
X209516049Y-88469500D01*
X207516033Y-88469500D01*
X207447507Y-88476500D01*
X207413242Y-88480001D01*
X207246704Y-88535187D01*
X207097385Y-88627289D01*
X206973330Y-88751344D01*
X206881228Y-88900663D01*
X206826042Y-89067201D01*
X206826042Y-89067202D01*
X206826042Y-89067203D01*
X206815541Y-89169992D01*
X186000000Y-89169992D01*
X186000000Y-83568876D01*
X191499500Y-83568876D01*
X191499500Y-83831123D01*
X191533728Y-84091107D01*
X191533728Y-84091110D01*
X191601600Y-84344415D01*
X191601600Y-84344416D01*
X191701959Y-84586701D01*
X191833078Y-84813806D01*
X191833078Y-84813807D01*
X191992715Y-85021848D01*
X192178151Y-85207284D01*
X192386193Y-85366921D01*
X192386197Y-85366924D01*
X192613303Y-85498043D01*
X192817809Y-85582752D01*
X192855583Y-85598399D01*
X192943332Y-85621910D01*
X193108884Y-85666270D01*
X193108890Y-85666270D01*
X193108891Y-85666271D01*
X193145834Y-85671134D01*
X193368877Y-85700499D01*
X193368878Y-85700500D01*
X193368880Y-85700500D01*
X193631122Y-85700500D01*
X193631122Y-85700499D01*
X193891108Y-85666271D01*
X193891110Y-85666271D01*
X193891111Y-85666270D01*
X193891116Y-85666270D01*
X194144415Y-85598399D01*
X194144416Y-85598399D01*
X194144417Y-85598398D01*
X194144419Y-85598398D01*
X194386697Y-85498043D01*
X194613803Y-85366924D01*
X194821848Y-85207284D01*
X194821849Y-85207284D01*
X195007284Y-85021849D01*
X195007284Y-85021848D01*
X195166921Y-84813807D01*
X195166921Y-84813806D01*
X195166924Y-84813803D01*
X195298043Y-84586697D01*
X195398398Y-84344419D01*
X195466270Y-84091116D01*
X195500500Y-83831120D01*
X195500500Y-83568880D01*
X195466270Y-83308884D01*
X195398398Y-83055581D01*
X195298043Y-82813303D01*
X195166924Y-82586197D01*
X195166921Y-82586193D01*
X195166921Y-82586192D01*
X195007284Y-82378151D01*
X194821848Y-82192715D01*
X194613806Y-82033078D01*
X194386701Y-81901959D01*
X194386699Y-81901958D01*
X194386697Y-81901957D01*
X194311154Y-81870666D01*
X194144416Y-81801600D01*
X193918255Y-81741002D01*
X193891116Y-81733730D01*
X193891114Y-81733729D01*
X193891108Y-81733728D01*
X193631123Y-81699500D01*
X193631120Y-81699500D01*
X193368880Y-81699500D01*
X193368876Y-81699500D01*
X193108892Y-81733728D01*
X193108889Y-81733728D01*
X192855584Y-81801600D01*
X192855583Y-81801600D01*
X192613298Y-81901959D01*
X192386193Y-82033078D01*
X192386192Y-82033078D01*
X192178151Y-82192715D01*
X192178151Y-82192716D01*
X192178149Y-82192718D01*
X191992718Y-82378149D01*
X191992716Y-82378151D01*
X191992715Y-82378151D01*
X191833078Y-82586192D01*
X191833078Y-82586193D01*
X191701959Y-82813298D01*
X191601600Y-83055583D01*
X191601600Y-83055584D01*
X191533728Y-83308889D01*
X191533728Y-83308892D01*
X191499500Y-83568876D01*
X186000000Y-83568876D01*
X186000000Y-78568876D01*
X191499500Y-78568876D01*
X191499500Y-78831123D01*
X191533728Y-79091107D01*
X191533728Y-79091110D01*
X191601600Y-79344415D01*
X191601600Y-79344416D01*
X191701959Y-79586701D01*
X191724046Y-79624956D01*
X191801236Y-79758655D01*
X191833078Y-79813806D01*
X191833078Y-79813807D01*
X191992715Y-80021848D01*
X192178151Y-80207284D01*
X192386193Y-80366921D01*
X192386197Y-80366924D01*
X192613303Y-80498043D01*
X192817809Y-80582752D01*
X192855583Y-80598399D01*
X192943332Y-80621910D01*
X193108884Y-80666270D01*
X193108890Y-80666270D01*
X193108891Y-80666271D01*
X193145834Y-80671134D01*
X193368877Y-80700499D01*
X193368878Y-80700500D01*
X193368880Y-80700500D01*
X193631122Y-80700500D01*
X193631122Y-80700499D01*
X193891108Y-80666271D01*
X193891110Y-80666271D01*
X193891111Y-80666270D01*
X193891116Y-80666270D01*
X194144415Y-80598399D01*
X194144416Y-80598399D01*
X194144417Y-80598398D01*
X194144419Y-80598398D01*
X194386697Y-80498043D01*
X194613803Y-80366924D01*
X194821848Y-80207284D01*
X194821849Y-80207284D01*
X195007284Y-80021849D01*
X195007284Y-80021848D01*
X195017919Y-80007989D01*
X195166924Y-79813803D01*
X195298043Y-79586697D01*
X195398398Y-79344419D01*
X195466270Y-79091116D01*
X195500500Y-78831120D01*
X195500500Y-78568880D01*
X195466270Y-78308884D01*
X195421017Y-78139995D01*
X205969500Y-78139995D01*
X205969500Y-79340003D01*
X205977810Y-79421345D01*
X205980001Y-79442797D01*
X206035186Y-79609334D01*
X206127288Y-79758656D01*
X206251344Y-79882712D01*
X206400666Y-79974814D01*
X206567203Y-80029999D01*
X206669991Y-80040500D01*
X207870008Y-80040499D01*
X207972797Y-80029999D01*
X208139334Y-79974814D01*
X208288656Y-79882712D01*
X208412712Y-79758656D01*
X208504814Y-79609334D01*
X208559999Y-79442797D01*
X208570500Y-79340009D01*
X208570499Y-78637692D01*
X209520000Y-78637692D01*
X209520000Y-78842307D01*
X209552010Y-79044416D01*
X209615241Y-79239020D01*
X209615246Y-79239032D01*
X209708145Y-79421357D01*
X209800033Y-79547831D01*
X209800035Y-79547831D01*
X210449533Y-78898332D01*
X210499920Y-78985606D01*
X210574394Y-79060080D01*
X210661665Y-79110466D01*
X210012167Y-79759963D01*
X210012167Y-79759965D01*
X210138642Y-79851854D01*
X210320967Y-79944753D01*
X210320979Y-79944758D01*
X210515583Y-80007989D01*
X210717693Y-80040000D01*
X210922307Y-80040000D01*
X211124416Y-80007989D01*
X211319020Y-79944758D01*
X211319038Y-79944751D01*
X211501345Y-79851861D01*
X211501350Y-79851858D01*
X211627831Y-79759964D01*
X211627831Y-79759963D01*
X210978334Y-79110466D01*
X211065606Y-79060080D01*
X211140080Y-78985606D01*
X211190466Y-78898334D01*
X211839963Y-79547831D01*
X211839964Y-79547831D01*
X211931858Y-79421350D01*
X211931861Y-79421345D01*
X212024751Y-79239038D01*
X212024758Y-79239020D01*
X212087989Y-79044416D01*
X212120000Y-78842307D01*
X212120000Y-78637692D01*
X213070000Y-78637692D01*
X213070000Y-78842307D01*
X213102010Y-79044416D01*
X213165241Y-79239020D01*
X213165246Y-79239032D01*
X213258145Y-79421357D01*
X213350033Y-79547831D01*
X213350035Y-79547831D01*
X213999533Y-78898332D01*
X214049920Y-78985606D01*
X214124394Y-79060080D01*
X214211665Y-79110466D01*
X213562167Y-79759963D01*
X213562167Y-79759965D01*
X213688642Y-79851854D01*
X213870967Y-79944753D01*
X213870979Y-79944758D01*
X214065583Y-80007989D01*
X214267693Y-80040000D01*
X214472307Y-80040000D01*
X214674416Y-80007989D01*
X214869020Y-79944758D01*
X214869038Y-79944751D01*
X215051345Y-79851861D01*
X215051350Y-79851858D01*
X215177831Y-79759964D01*
X215177831Y-79759963D01*
X214528334Y-79110466D01*
X214615606Y-79060080D01*
X214690080Y-78985606D01*
X214740466Y-78898334D01*
X215389963Y-79547831D01*
X215389964Y-79547831D01*
X215481858Y-79421350D01*
X215481861Y-79421345D01*
X215574751Y-79239038D01*
X215574758Y-79239020D01*
X215637989Y-79044416D01*
X215670000Y-78842307D01*
X215670000Y-78637692D01*
X215637989Y-78435583D01*
X215574758Y-78240979D01*
X215574754Y-78240967D01*
X215555838Y-78203843D01*
X215555837Y-78203841D01*
X215523306Y-78139995D01*
X216619500Y-78139995D01*
X216619500Y-79340003D01*
X216627810Y-79421345D01*
X216630001Y-79442797D01*
X216685186Y-79609334D01*
X216777288Y-79758656D01*
X216901344Y-79882712D01*
X217050666Y-79974814D01*
X217217203Y-80029999D01*
X217319991Y-80040500D01*
X218520008Y-80040499D01*
X218622797Y-80029999D01*
X218789334Y-79974814D01*
X218938656Y-79882712D01*
X219062712Y-79758656D01*
X219154814Y-79609334D01*
X219209999Y-79442797D01*
X219220500Y-79340009D01*
X219220499Y-78139992D01*
X219209999Y-78037203D01*
X219154814Y-77870666D01*
X219062712Y-77721344D01*
X218938656Y-77597288D01*
X218789334Y-77505186D01*
X218689216Y-77472010D01*
X218622798Y-77450001D01*
X218605665Y-77448250D01*
X218520009Y-77439500D01*
X218520004Y-77439500D01*
X217319996Y-77439500D01*
X217217202Y-77450001D01*
X217050666Y-77505186D01*
X216901343Y-77597288D01*
X216777288Y-77721343D01*
X216685186Y-77870666D01*
X216630001Y-78037201D01*
X216619500Y-78139995D01*
X215523306Y-78139995D01*
X215481856Y-78058645D01*
X215481855Y-78058643D01*
X215389965Y-77932167D01*
X215389963Y-77932167D01*
X214740465Y-78581665D01*
X214690080Y-78494394D01*
X214615606Y-78419920D01*
X214528332Y-78369533D01*
X215177831Y-77720035D01*
X215177831Y-77720033D01*
X215051357Y-77628145D01*
X214869032Y-77535246D01*
X214869020Y-77535241D01*
X214674416Y-77472010D01*
X214472307Y-77440000D01*
X214267693Y-77440000D01*
X214065583Y-77472010D01*
X213870979Y-77535241D01*
X213870967Y-77535246D01*
X213688650Y-77628141D01*
X213688643Y-77628145D01*
X213562167Y-77720034D01*
X213562167Y-77720035D01*
X214211665Y-78369533D01*
X214124394Y-78419920D01*
X214049920Y-78494394D01*
X213999533Y-78581665D01*
X213350035Y-77932167D01*
X213350034Y-77932167D01*
X213258145Y-78058643D01*
X213258141Y-78058650D01*
X213165246Y-78240967D01*
X213165241Y-78240979D01*
X213102010Y-78435583D01*
X213070000Y-78637692D01*
X212120000Y-78637692D01*
X212087989Y-78435583D01*
X212024758Y-78240979D01*
X212024753Y-78240967D01*
X211931854Y-78058642D01*
X211839965Y-77932167D01*
X211839963Y-77932167D01*
X211190465Y-78581665D01*
X211140080Y-78494394D01*
X211065606Y-78419920D01*
X210978332Y-78369533D01*
X211627831Y-77720035D01*
X211627831Y-77720033D01*
X211501357Y-77628145D01*
X211319032Y-77535246D01*
X211319020Y-77535241D01*
X211124416Y-77472010D01*
X210922307Y-77440000D01*
X210717693Y-77440000D01*
X210515583Y-77472010D01*
X210320979Y-77535241D01*
X210320967Y-77535246D01*
X210138650Y-77628141D01*
X210138643Y-77628145D01*
X210012167Y-77720034D01*
X210012167Y-77720035D01*
X210661665Y-78369533D01*
X210574394Y-78419920D01*
X210499920Y-78494394D01*
X210449533Y-78581665D01*
X209800035Y-77932167D01*
X209800034Y-77932167D01*
X209708145Y-78058643D01*
X209708141Y-78058650D01*
X209615246Y-78240967D01*
X209615241Y-78240979D01*
X209552010Y-78435583D01*
X209520000Y-78637692D01*
X208570499Y-78637692D01*
X208570499Y-78139992D01*
X208559999Y-78037203D01*
X208504814Y-77870666D01*
X208412712Y-77721344D01*
X208288656Y-77597288D01*
X208139334Y-77505186D01*
X208039216Y-77472010D01*
X207972798Y-77450001D01*
X207955665Y-77448250D01*
X207870009Y-77439500D01*
X207870004Y-77439500D01*
X206669996Y-77439500D01*
X206567202Y-77450001D01*
X206400666Y-77505186D01*
X206251343Y-77597288D01*
X206127288Y-77721343D01*
X206035186Y-77870666D01*
X205980001Y-78037201D01*
X205969500Y-78139995D01*
X195421017Y-78139995D01*
X195421016Y-78139992D01*
X195398399Y-78055584D01*
X195398399Y-78055583D01*
X195347278Y-77932167D01*
X195298043Y-77813303D01*
X195166924Y-77586197D01*
X195166921Y-77586193D01*
X195166921Y-77586192D01*
X195007284Y-77378151D01*
X194821848Y-77192715D01*
X194613806Y-77033078D01*
X194386701Y-76901959D01*
X194386699Y-76901958D01*
X194386697Y-76901957D01*
X194311154Y-76870666D01*
X194144416Y-76801600D01*
X193918255Y-76741002D01*
X193891116Y-76733730D01*
X193891114Y-76733729D01*
X193891108Y-76733728D01*
X193631123Y-76699500D01*
X193631120Y-76699500D01*
X193368880Y-76699500D01*
X193368876Y-76699500D01*
X193108892Y-76733728D01*
X193108889Y-76733728D01*
X192855584Y-76801600D01*
X192855583Y-76801600D01*
X192613298Y-76901959D01*
X192386193Y-77033078D01*
X192386192Y-77033078D01*
X192178151Y-77192715D01*
X192178151Y-77192716D01*
X192178149Y-77192718D01*
X191992718Y-77378149D01*
X191992716Y-77378151D01*
X191992715Y-77378151D01*
X191833078Y-77586192D01*
X191833078Y-77586193D01*
X191701959Y-77813298D01*
X191601600Y-78055583D01*
X191601600Y-78055584D01*
X191533728Y-78308889D01*
X191533728Y-78308892D01*
X191499500Y-78568876D01*
X186000000Y-78568876D01*
X186000000Y-68568876D01*
X191499500Y-68568876D01*
X191499500Y-68831123D01*
X191533728Y-69091107D01*
X191533728Y-69091110D01*
X191601600Y-69344415D01*
X191601600Y-69344416D01*
X191635896Y-69427212D01*
X191695857Y-69571971D01*
X191701959Y-69586701D01*
X191833078Y-69813806D01*
X191833078Y-69813807D01*
X191992715Y-70021848D01*
X192178151Y-70207284D01*
X192386193Y-70366921D01*
X192386197Y-70366924D01*
X192613303Y-70498043D01*
X192817809Y-70582752D01*
X192855583Y-70598399D01*
X192943332Y-70621910D01*
X193108884Y-70666270D01*
X193108890Y-70666270D01*
X193108891Y-70666271D01*
X193145834Y-70671134D01*
X193368877Y-70700499D01*
X193368878Y-70700500D01*
X193368880Y-70700500D01*
X193631122Y-70700500D01*
X193631122Y-70700499D01*
X193891108Y-70666271D01*
X193891110Y-70666271D01*
X193891111Y-70666270D01*
X193891116Y-70666270D01*
X194144415Y-70598399D01*
X194144416Y-70598399D01*
X194144417Y-70598398D01*
X194144419Y-70598398D01*
X194386697Y-70498043D01*
X194613803Y-70366924D01*
X194821848Y-70207284D01*
X194821849Y-70207284D01*
X195007284Y-70021849D01*
X195007284Y-70021848D01*
X195166921Y-69813807D01*
X195166921Y-69813806D01*
X195166924Y-69813803D01*
X195298043Y-69586697D01*
X195398398Y-69344419D01*
X195466270Y-69091116D01*
X195500500Y-68831120D01*
X195500500Y-68568880D01*
X195488489Y-68477652D01*
X195488488Y-68477648D01*
X205969500Y-68477648D01*
X205969500Y-68682352D01*
X206001523Y-68884534D01*
X206064778Y-69079212D01*
X206064782Y-69079224D01*
X206157714Y-69261612D01*
X206278028Y-69427212D01*
X206278035Y-69427220D01*
X206422779Y-69571964D01*
X206422787Y-69571971D01*
X206588387Y-69692285D01*
X206588390Y-69692287D01*
X206770781Y-69785220D01*
X206965466Y-69848477D01*
X207167648Y-69880500D01*
X207167653Y-69880500D01*
X207372347Y-69880500D01*
X207372352Y-69880500D01*
X207574534Y-69848477D01*
X207769219Y-69785220D01*
X207951610Y-69692287D01*
X208117219Y-69571966D01*
X208261966Y-69427219D01*
X208382287Y-69261610D01*
X208475220Y-69079219D01*
X208538477Y-68884534D01*
X208570500Y-68682352D01*
X208570500Y-68477648D01*
X208538477Y-68275466D01*
X208475220Y-68080781D01*
X208463462Y-68057705D01*
X208456407Y-68043858D01*
X208456399Y-68043843D01*
X208423867Y-67979995D01*
X209519500Y-67979995D01*
X209519500Y-69180003D01*
X209519501Y-69180008D01*
X209530001Y-69282797D01*
X209585186Y-69449334D01*
X209677288Y-69598656D01*
X209801344Y-69722712D01*
X209950666Y-69814814D01*
X210117203Y-69869999D01*
X210219991Y-69880500D01*
X211420008Y-69880499D01*
X211522797Y-69869999D01*
X211689334Y-69814814D01*
X211838656Y-69722712D01*
X211962712Y-69598656D01*
X212054814Y-69449334D01*
X212109999Y-69282797D01*
X212120500Y-69180009D01*
X212120499Y-67979995D01*
X213069500Y-67979995D01*
X213069500Y-69180003D01*
X213069501Y-69180008D01*
X213080001Y-69282797D01*
X213135186Y-69449334D01*
X213227288Y-69598656D01*
X213351344Y-69722712D01*
X213500666Y-69814814D01*
X213667203Y-69869999D01*
X213769991Y-69880500D01*
X214970008Y-69880499D01*
X215072797Y-69869999D01*
X215239334Y-69814814D01*
X215388656Y-69722712D01*
X215512712Y-69598656D01*
X215604814Y-69449334D01*
X215659999Y-69282797D01*
X215670500Y-69180009D01*
X215670499Y-68477648D01*
X216619500Y-68477648D01*
X216619500Y-68682352D01*
X216651523Y-68884534D01*
X216714778Y-69079212D01*
X216714782Y-69079224D01*
X216807714Y-69261612D01*
X216928028Y-69427212D01*
X216928035Y-69427220D01*
X217072779Y-69571964D01*
X217072787Y-69571971D01*
X217238387Y-69692285D01*
X217238390Y-69692287D01*
X217420781Y-69785220D01*
X217615466Y-69848477D01*
X217817648Y-69880500D01*
X217817653Y-69880500D01*
X218022347Y-69880500D01*
X218022352Y-69880500D01*
X218224534Y-69848477D01*
X218419219Y-69785220D01*
X218601610Y-69692287D01*
X218767219Y-69571966D01*
X218911966Y-69427219D01*
X219032287Y-69261610D01*
X219125220Y-69079219D01*
X219188477Y-68884534D01*
X219220500Y-68682352D01*
X219220500Y-68477648D01*
X219188477Y-68275466D01*
X219125220Y-68080781D01*
X219032287Y-67898390D01*
X219016893Y-67877202D01*
X218911971Y-67732787D01*
X218911964Y-67732779D01*
X218767220Y-67588035D01*
X218767212Y-67588028D01*
X218601612Y-67467714D01*
X218419224Y-67374782D01*
X218419220Y-67374780D01*
X218419219Y-67374780D01*
X218224534Y-67311523D01*
X218022352Y-67279500D01*
X217817648Y-67279500D01*
X217649163Y-67306185D01*
X217615465Y-67311523D01*
X217420787Y-67374778D01*
X217420775Y-67374782D01*
X217238387Y-67467714D01*
X217072787Y-67588028D01*
X217072779Y-67588035D01*
X216928035Y-67732779D01*
X216928028Y-67732787D01*
X216807714Y-67898387D01*
X216714782Y-68080775D01*
X216714780Y-68080781D01*
X216651523Y-68275466D01*
X216619500Y-68477648D01*
X215670499Y-68477648D01*
X215670499Y-67979992D01*
X215659999Y-67877203D01*
X215604814Y-67710666D01*
X215512712Y-67561344D01*
X215388656Y-67437288D01*
X215239334Y-67345186D01*
X215137746Y-67311523D01*
X215072798Y-67290001D01*
X215055665Y-67288250D01*
X214970009Y-67279500D01*
X214970004Y-67279500D01*
X213769996Y-67279500D01*
X213667202Y-67290001D01*
X213500666Y-67345186D01*
X213351343Y-67437288D01*
X213227288Y-67561343D01*
X213135186Y-67710666D01*
X213080001Y-67877201D01*
X213069500Y-67979995D01*
X212120499Y-67979995D01*
X212120499Y-67979992D01*
X212109999Y-67877203D01*
X212054814Y-67710666D01*
X211962712Y-67561344D01*
X211838656Y-67437288D01*
X211689334Y-67345186D01*
X211587746Y-67311523D01*
X211522798Y-67290001D01*
X211505665Y-67288250D01*
X211420009Y-67279500D01*
X211420004Y-67279500D01*
X210219996Y-67279500D01*
X210117202Y-67290001D01*
X209950666Y-67345186D01*
X209801343Y-67437288D01*
X209677288Y-67561343D01*
X209585186Y-67710666D01*
X209530001Y-67877201D01*
X209519500Y-67979995D01*
X208423867Y-67979995D01*
X208382285Y-67898387D01*
X208261971Y-67732787D01*
X208261964Y-67732779D01*
X208117220Y-67588035D01*
X208117212Y-67588028D01*
X207951612Y-67467714D01*
X207769224Y-67374782D01*
X207769220Y-67374780D01*
X207769219Y-67374780D01*
X207574534Y-67311523D01*
X207372352Y-67279500D01*
X207167648Y-67279500D01*
X206999163Y-67306185D01*
X206965465Y-67311523D01*
X206770787Y-67374778D01*
X206770775Y-67374782D01*
X206588387Y-67467714D01*
X206422787Y-67588028D01*
X206422779Y-67588035D01*
X206278035Y-67732779D01*
X206278028Y-67732787D01*
X206157714Y-67898387D01*
X206064782Y-68080775D01*
X206064780Y-68080781D01*
X206001523Y-68275466D01*
X205969500Y-68477648D01*
X195488488Y-68477648D01*
X195466271Y-68308892D01*
X195466271Y-68308889D01*
X195457315Y-68275466D01*
X195398398Y-68055581D01*
X195298043Y-67813303D01*
X195166924Y-67586197D01*
X195166921Y-67586193D01*
X195166921Y-67586192D01*
X195007284Y-67378151D01*
X194821848Y-67192715D01*
X194613806Y-67033078D01*
X194386701Y-66901959D01*
X194386699Y-66901958D01*
X194386697Y-66901957D01*
X194311154Y-66870666D01*
X194144416Y-66801600D01*
X193918255Y-66741002D01*
X193891116Y-66733730D01*
X193891114Y-66733729D01*
X193891108Y-66733728D01*
X193631123Y-66699500D01*
X193631120Y-66699500D01*
X193368880Y-66699500D01*
X193368876Y-66699500D01*
X193108892Y-66733728D01*
X193108889Y-66733728D01*
X192855584Y-66801600D01*
X192855583Y-66801600D01*
X192613298Y-66901959D01*
X192386193Y-67033078D01*
X192386192Y-67033078D01*
X192178151Y-67192715D01*
X192178151Y-67192716D01*
X192178149Y-67192718D01*
X191992718Y-67378149D01*
X191992716Y-67378151D01*
X191992715Y-67378151D01*
X191833078Y-67586192D01*
X191833078Y-67586193D01*
X191701959Y-67813298D01*
X191601600Y-68055583D01*
X191601600Y-68055584D01*
X191533728Y-68308889D01*
X191533728Y-68308892D01*
X191499500Y-68568876D01*
X186000000Y-68568876D01*
X186000000Y-63568876D01*
X191499500Y-63568876D01*
X191499500Y-63831123D01*
X191533728Y-64091107D01*
X191533728Y-64091110D01*
X191601600Y-64344415D01*
X191601600Y-64344416D01*
X191701959Y-64586701D01*
X191833078Y-64813806D01*
X191833078Y-64813807D01*
X191992715Y-65021848D01*
X192178151Y-65207284D01*
X192386193Y-65366921D01*
X192386197Y-65366924D01*
X192613303Y-65498043D01*
X192817809Y-65582752D01*
X192855583Y-65598399D01*
X192943332Y-65621910D01*
X193108884Y-65666270D01*
X193108890Y-65666270D01*
X193108891Y-65666271D01*
X193145834Y-65671134D01*
X193368877Y-65700499D01*
X193368878Y-65700500D01*
X193368880Y-65700500D01*
X193631122Y-65700500D01*
X193631122Y-65700499D01*
X193891108Y-65666271D01*
X193891110Y-65666271D01*
X193891111Y-65666270D01*
X193891116Y-65666270D01*
X194144415Y-65598399D01*
X194144416Y-65598399D01*
X194144417Y-65598398D01*
X194144419Y-65598398D01*
X194386697Y-65498043D01*
X194613803Y-65366924D01*
X194821848Y-65207284D01*
X194821849Y-65207284D01*
X195007284Y-65021849D01*
X195007284Y-65021848D01*
X195166921Y-64813807D01*
X195166921Y-64813806D01*
X195166924Y-64813803D01*
X195298043Y-64586697D01*
X195398398Y-64344419D01*
X195466270Y-64091116D01*
X195500500Y-63831120D01*
X195500500Y-63568880D01*
X195466270Y-63308884D01*
X195398398Y-63055581D01*
X195298043Y-62813303D01*
X195166924Y-62586197D01*
X195166921Y-62586193D01*
X195166921Y-62586192D01*
X195007284Y-62378151D01*
X194821848Y-62192715D01*
X194613806Y-62033078D01*
X194386701Y-61901959D01*
X194386699Y-61901958D01*
X194386697Y-61901957D01*
X194311154Y-61870666D01*
X194144416Y-61801600D01*
X193918255Y-61741002D01*
X193891116Y-61733730D01*
X193891114Y-61733729D01*
X193891108Y-61733728D01*
X193631123Y-61699500D01*
X193631120Y-61699500D01*
X193368880Y-61699500D01*
X193368876Y-61699500D01*
X193108892Y-61733728D01*
X193108889Y-61733728D01*
X192855584Y-61801600D01*
X192855583Y-61801600D01*
X192613298Y-61901959D01*
X192386193Y-62033078D01*
X192386192Y-62033078D01*
X192178151Y-62192715D01*
X192178151Y-62192716D01*
X192178149Y-62192718D01*
X191992718Y-62378149D01*
X191992716Y-62378151D01*
X191992715Y-62378151D01*
X191833078Y-62586192D01*
X191833078Y-62586193D01*
X191701959Y-62813298D01*
X191601600Y-63055583D01*
X191601600Y-63055584D01*
X191533728Y-63308889D01*
X191533728Y-63308892D01*
X191499500Y-63568876D01*
X186000000Y-63568876D01*
X186000000Y-52837857D01*
X215699500Y-52837857D01*
X215699500Y-53162143D01*
X215731286Y-53484868D01*
X215731287Y-53484875D01*
X215794552Y-53802927D01*
X215794553Y-53802933D01*
X215888685Y-54113244D01*
X215888688Y-54113253D01*
X216012785Y-54412847D01*
X216165651Y-54698840D01*
X216343381Y-54964831D01*
X216345817Y-54968476D01*
X216551542Y-55219153D01*
X216780847Y-55448458D01*
X217031524Y-55654183D01*
X217168163Y-55745482D01*
X217301159Y-55834348D01*
X217444155Y-55910781D01*
X217587153Y-55987215D01*
X217782258Y-56068030D01*
X217886746Y-56111311D01*
X217886749Y-56111312D01*
X217886754Y-56111314D01*
X218033802Y-56155920D01*
X218197066Y-56205446D01*
X218197068Y-56205446D01*
X218197077Y-56205449D01*
X218515132Y-56268714D01*
X218837857Y-56300500D01*
X218837862Y-56300500D01*
X219162138Y-56300500D01*
X219162143Y-56300500D01*
X219484868Y-56268714D01*
X219802923Y-56205449D01*
X220113246Y-56111314D01*
X220412847Y-55987215D01*
X220698842Y-55834347D01*
X220968476Y-55654183D01*
X221219153Y-55448458D01*
X221448458Y-55219153D01*
X221654183Y-54968476D01*
X221834347Y-54698842D01*
X221987215Y-54412847D01*
X222111314Y-54113246D01*
X222205449Y-53802923D01*
X222268714Y-53484868D01*
X222300500Y-53162143D01*
X222300500Y-52837857D01*
X222268714Y-52515132D01*
X222205449Y-52197077D01*
X222111314Y-51886754D01*
X221987215Y-51587153D01*
X221834347Y-51301158D01*
X221654183Y-51031524D01*
X221448458Y-50780847D01*
X221219153Y-50551542D01*
X220968476Y-50345817D01*
X220964831Y-50343381D01*
X220698840Y-50165651D01*
X220412847Y-50012785D01*
X220113253Y-49888688D01*
X220113244Y-49888685D01*
X219802933Y-49794553D01*
X219802927Y-49794552D01*
X219802924Y-49794551D01*
X219802923Y-49794551D01*
X219694010Y-49772887D01*
X219484875Y-49731287D01*
X219484871Y-49731286D01*
X219484868Y-49731286D01*
X219162143Y-49699500D01*
X218837857Y-49699500D01*
X218515132Y-49731286D01*
X218515129Y-49731286D01*
X218515124Y-49731287D01*
X218197072Y-49794552D01*
X218197066Y-49794553D01*
X217886755Y-49888685D01*
X217886746Y-49888688D01*
X217587152Y-50012785D01*
X217301159Y-50165651D01*
X217031529Y-50345813D01*
X216780847Y-50551542D01*
X216551542Y-50780847D01*
X216345813Y-51031529D01*
X216165651Y-51301159D01*
X216012785Y-51587152D01*
X215888688Y-51886746D01*
X215888685Y-51886755D01*
X215794553Y-52197066D01*
X215794552Y-52197072D01*
X215731287Y-52515124D01*
X215731286Y-52515129D01*
X215731286Y-52515132D01*
X215699500Y-52837857D01*
X186000000Y-52837857D01*
X186000000Y-48649500D01*
X186019962Y-48575000D01*
X186074500Y-48520462D01*
X186149000Y-48500500D01*
X223350500Y-48500500D01*
X223425000Y-48520462D01*
G37*
%TD.AperFunction*%
%TD*%
M02*
