%TF.GenerationSoftware,KiCad,Pcbnew,9.0.6-9.0.6~ubuntu24.04.1*%
%TF.CreationDate,2025-12-08T02:07:04+01:00*%
%TF.ProjectId,PSU_V1,5053555f-5631-42e6-9b69-6361645f7063,rev?*%
%TF.SameCoordinates,Original*%
%TF.FileFunction,Copper,L1,Top*%
%TF.FilePolarity,Positive*%
%FSLAX46Y46*%
G04 Gerber Fmt 4.6, Leading zero omitted, Abs format (unit mm)*
G04 Created by KiCad (PCBNEW 9.0.6-9.0.6~ubuntu24.04.1) date 2025-12-08 02:07:04*
%MOMM*%
%LPD*%
G01*
G04 APERTURE LIST*
G04 Aperture macros list*
%AMRoundRect*
0 Rectangle with rounded corners*
0 $1 Rounding radius*
0 $2 $3 $4 $5 $6 $7 $8 $9 X,Y pos of 4 corners*
0 Add a 4 corners polygon primitive as box body*
4,1,4,$2,$3,$4,$5,$6,$7,$8,$9,$2,$3,0*
0 Add four circle primitives for the rounded corners*
1,1,$1+$1,$2,$3*
1,1,$1+$1,$4,$5*
1,1,$1+$1,$6,$7*
1,1,$1+$1,$8,$9*
0 Add four rect primitives between the rounded corners*
20,1,$1+$1,$2,$3,$4,$5,0*
20,1,$1+$1,$4,$5,$6,$7,0*
20,1,$1+$1,$6,$7,$8,$9,0*
20,1,$1+$1,$8,$9,$2,$3,0*%
G04 Aperture macros list end*
%TA.AperFunction,ComponentPad*%
%ADD10R,2.100000X2.100000*%
%TD*%
%TA.AperFunction,ComponentPad*%
%ADD11C,2.100000*%
%TD*%
%TA.AperFunction,ComponentPad*%
%ADD12C,2.400000*%
%TD*%
%TA.AperFunction,ComponentPad*%
%ADD13C,2.000000*%
%TD*%
%TA.AperFunction,ComponentPad*%
%ADD14C,1.600000*%
%TD*%
%TA.AperFunction,ComponentPad*%
%ADD15RoundRect,0.250001X-0.949999X-0.949999X0.949999X-0.949999X0.949999X0.949999X-0.949999X0.949999X0*%
%TD*%
%TA.AperFunction,ComponentPad*%
%ADD16RoundRect,0.250000X-0.550000X-0.550000X0.550000X-0.550000X0.550000X0.550000X-0.550000X0.550000X0*%
%TD*%
%TA.AperFunction,ComponentPad*%
%ADD17C,5.600000*%
%TD*%
%TA.AperFunction,ComponentPad*%
%ADD18RoundRect,0.250000X0.950000X0.550000X-0.950000X0.550000X-0.950000X-0.550000X0.950000X-0.550000X0*%
%TD*%
%TA.AperFunction,ComponentPad*%
%ADD19O,2.400000X1.600000*%
%TD*%
%TA.AperFunction,ComponentPad*%
%ADD20RoundRect,0.250000X0.600000X0.600000X-0.600000X0.600000X-0.600000X-0.600000X0.600000X-0.600000X0*%
%TD*%
%TA.AperFunction,ComponentPad*%
%ADD21C,1.700000*%
%TD*%
%TA.AperFunction,ComponentPad*%
%ADD22RoundRect,0.250000X0.550000X0.550000X-0.550000X0.550000X-0.550000X-0.550000X0.550000X-0.550000X0*%
%TD*%
%TA.AperFunction,ComponentPad*%
%ADD23R,2.000000X1.905000*%
%TD*%
%TA.AperFunction,ComponentPad*%
%ADD24O,2.000000X1.905000*%
%TD*%
%TA.AperFunction,ComponentPad*%
%ADD25RoundRect,0.250000X-0.550000X0.550000X-0.550000X-0.550000X0.550000X-0.550000X0.550000X0.550000X0*%
%TD*%
%TA.AperFunction,ComponentPad*%
%ADD26R,1.800000X1.800000*%
%TD*%
%TA.AperFunction,ComponentPad*%
%ADD27C,1.800000*%
%TD*%
%TA.AperFunction,ComponentPad*%
%ADD28RoundRect,0.250000X0.550000X-0.550000X0.550000X0.550000X-0.550000X0.550000X-0.550000X-0.550000X0*%
%TD*%
%TA.AperFunction,ComponentPad*%
%ADD29C,3.000000*%
%TD*%
%TA.AperFunction,ViaPad*%
%ADD30C,0.600000*%
%TD*%
%TA.AperFunction,Conductor*%
%ADD31C,2.000000*%
%TD*%
%TA.AperFunction,Conductor*%
%ADD32C,0.500000*%
%TD*%
%TA.AperFunction,Conductor*%
%ADD33C,4.000000*%
%TD*%
G04 APERTURE END LIST*
D10*
%TO.P,J1,1,L*%
%TO.N,Net-(J1-L)*%
X135450000Y-90300000D03*
D11*
%TO.P,J1,2,N*%
%TO.N,Net-(J1-N)*%
X135450000Y-64900000D03*
D12*
%TO.P,J1,3,PE*%
%TO.N,unconnected-(J1-PE-Pad3)*%
X139850000Y-77600000D03*
%TD*%
D13*
%TO.P,C4,1*%
%TO.N,+5V*%
X146050000Y-140970000D03*
%TO.P,C4,2*%
%TO.N,GND*%
X153550000Y-140970000D03*
%TD*%
D14*
%TO.P,R9,1*%
%TO.N,Net-(D5-K)*%
X168910000Y-121920000D03*
%TO.P,R9,2*%
%TO.N,Net-(D3-K)*%
X179070000Y-121920000D03*
%TD*%
D15*
%TO.P,C2,1*%
%TO.N,Net-(D1-K)*%
X208516041Y-90170000D03*
D12*
%TO.P,C2,2*%
%TO.N,GND*%
X216016041Y-90170000D03*
%TD*%
D16*
%TO.P,D5,1,K*%
%TO.N,Net-(D5-K)*%
X168910000Y-118110000D03*
D14*
%TO.P,D5,2,A*%
%TO.N,GND*%
X179070000Y-118110000D03*
%TD*%
D17*
%TO.P,H1,1,1*%
%TO.N,unconnected-(H1-Pad1)*%
X219000000Y-53000000D03*
%TD*%
D18*
%TO.P,U1,1*%
%TO.N,Net-(D5-K)*%
X153670000Y-137160000D03*
D19*
%TO.P,U1,2*%
%TO.N,CLK_50*%
X153670000Y-134620000D03*
%TO.P,U1,3*%
%TO.N,GND*%
X153670000Y-132080000D03*
%TO.P,U1,4*%
%TO.N,unconnected-(U1-Pad4)*%
X153670000Y-129540000D03*
%TO.P,U1,5*%
%TO.N,GND*%
X153670000Y-127000000D03*
%TO.P,U1,6*%
%TO.N,unconnected-(U1-Pad6)*%
X153670000Y-124460000D03*
%TO.P,U1,7,GND*%
%TO.N,GND*%
X153670000Y-121920000D03*
%TO.P,U1,8*%
%TO.N,unconnected-(U1-Pad8)*%
X146050000Y-121920000D03*
%TO.P,U1,9*%
%TO.N,GND*%
X146050000Y-124460000D03*
%TO.P,U1,10*%
%TO.N,unconnected-(U1-Pad10)*%
X146050000Y-127000000D03*
%TO.P,U1,11*%
%TO.N,GND*%
X146050000Y-129540000D03*
%TO.P,U1,12*%
%TO.N,unconnected-(U1-Pad12)*%
X146050000Y-132080000D03*
%TO.P,U1,13*%
%TO.N,GND*%
X146050000Y-134620000D03*
%TO.P,U1,14,VCC*%
%TO.N,+5V*%
X146050000Y-137160000D03*
%TD*%
D20*
%TO.P,J8,1,Pin_1*%
%TO.N,+5V*%
X174752500Y-141810000D03*
D21*
%TO.P,J8,2,Pin_2*%
X172212500Y-141810000D03*
%TO.P,J8,3,Pin_3*%
%TO.N,unconnected-(J8-Pin_3-Pad3)*%
X174752500Y-139270000D03*
%TO.P,J8,4,Pin_4*%
%TO.N,CLK_50*%
X172212500Y-139270000D03*
%TO.P,J8,5,Pin_5*%
%TO.N,unconnected-(J8-Pin_5-Pad5)*%
X174752500Y-136730000D03*
%TO.P,J8,6,Pin_6*%
%TO.N,unconnected-(J8-Pin_6-Pad6)*%
X172212500Y-136730000D03*
%TO.P,J8,7,Pin_7*%
%TO.N,GND*%
X174752500Y-134190000D03*
%TO.P,J8,8,Pin_8*%
X172212500Y-134190000D03*
%TD*%
D22*
%TO.P,D6,1,K*%
%TO.N,+5V*%
X179070000Y-125730000D03*
D14*
%TO.P,D6,2,A*%
%TO.N,Net-(D5-K)*%
X168910000Y-125730000D03*
%TD*%
D23*
%TO.P,U2,1,IN*%
%TO.N,Net-(D1-K)*%
X197780000Y-105410000D03*
D24*
%TO.P,U2,2,GND*%
%TO.N,GND*%
X197780000Y-107950000D03*
%TO.P,U2,3,OUT*%
%TO.N,+5V*%
X197780000Y-110490000D03*
%TD*%
D25*
%TO.P,D2,1,K*%
%TO.N,Net-(D1-A)*%
X214370000Y-68580000D03*
D14*
%TO.P,D2,2,A*%
%TO.N,GND*%
X214370000Y-78740000D03*
%TD*%
D26*
%TO.P,D16,1,K*%
%TO.N,GND*%
X191770000Y-138430000D03*
D27*
%TO.P,D16,2,A*%
%TO.N,Net-(D16-A)*%
X194310000Y-138430000D03*
%TD*%
D14*
%TO.P,R12,1*%
%TO.N,+5V*%
X207010000Y-138430000D03*
%TO.P,R12,2*%
%TO.N,Net-(D16-A)*%
X196850000Y-138430000D03*
%TD*%
D17*
%TO.P,H2,1,1*%
%TO.N,unconnected-(H2-Pad1)*%
X129000000Y-53000000D03*
%TD*%
D28*
%TO.P,D1,1,K*%
%TO.N,Net-(D1-K)*%
X217920000Y-78740000D03*
D14*
%TO.P,D1,2,A*%
%TO.N,Net-(D1-A)*%
X217920000Y-68580000D03*
%TD*%
D25*
%TO.P,D3,1,K*%
%TO.N,Net-(D3-K)*%
X210820000Y-68580000D03*
D14*
%TO.P,D3,2,A*%
%TO.N,GND*%
X210820000Y-78740000D03*
%TD*%
D29*
%TO.P,TR1,1*%
%TO.N,Net-(J1-L)*%
X168500000Y-83700000D03*
%TO.P,TR1,5*%
%TO.N,Net-(J1-N)*%
X168500000Y-63700000D03*
%TO.P,TR1,6*%
%TO.N,Net-(D1-A)*%
X193500000Y-63700000D03*
%TO.P,TR1,7*%
%TO.N,Net-(D3-K)*%
X193500000Y-68700000D03*
%TO.P,TR1,9*%
%TO.N,Net-(D1-A)*%
X193500000Y-78700000D03*
%TO.P,TR1,10*%
%TO.N,Net-(D3-K)*%
X193500000Y-83700000D03*
%TD*%
D13*
%TO.P,C1,1*%
%TO.N,Net-(D5-K)*%
X165100000Y-121920000D03*
%TO.P,C1,2*%
%TO.N,GND*%
X165100000Y-129420000D03*
%TD*%
D17*
%TO.P,H3,1,1*%
%TO.N,unconnected-(H3-Pad1)*%
X129000000Y-143000000D03*
%TD*%
D28*
%TO.P,D4,1,K*%
%TO.N,Net-(D1-K)*%
X207270000Y-78740000D03*
D14*
%TO.P,D4,2,A*%
%TO.N,Net-(D3-K)*%
X207270000Y-68580000D03*
%TD*%
D15*
%TO.P,C3,1*%
%TO.N,+5V*%
X203436041Y-124460000D03*
D12*
%TO.P,C3,2*%
%TO.N,GND*%
X210936041Y-124460000D03*
%TD*%
D17*
%TO.P,H4,1,1*%
%TO.N,unconnected-(H4-Pad1)*%
X219000000Y-143000000D03*
%TD*%
D30*
%TO.N,GND*%
X160000000Y-141000000D03*
X167000000Y-137000000D03*
X162000000Y-127000000D03*
X157000000Y-133000000D03*
X196000000Y-93000000D03*
X191000000Y-120000000D03*
X183000000Y-120000000D03*
X190000000Y-111000000D03*
X191000000Y-99000000D03*
X191000000Y-88000000D03*
%TD*%
D31*
%TO.N,+5V*%
X180290000Y-141810000D02*
X188050000Y-134050000D01*
D32*
X179070000Y-125730000D02*
X187390000Y-134050000D01*
X187390000Y-134050000D02*
X188050000Y-134050000D01*
D31*
X188050000Y-134050000D02*
X197640000Y-124460000D01*
D32*
X146050000Y-140970000D02*
X149080000Y-144000000D01*
X149080000Y-144000000D02*
X165000000Y-144000000D01*
X165000000Y-144000000D02*
X167190000Y-141810000D01*
X167190000Y-141810000D02*
X172212500Y-141810000D01*
X146050000Y-140970000D02*
X146050000Y-137160000D01*
D33*
%TO.N,Net-(J1-L)*%
X135450000Y-90300000D02*
X144900000Y-90300000D01*
X144900000Y-90300000D02*
X151500000Y-83700000D01*
X151500000Y-83700000D02*
X168500000Y-83700000D01*
D32*
%TO.N,Net-(D5-K)*%
X165100000Y-121920000D02*
X158650000Y-128370000D01*
X158650000Y-128370000D02*
X158650000Y-134600000D01*
X158650000Y-134600000D02*
X156090000Y-137160000D01*
X156090000Y-137160000D02*
X153670000Y-137160000D01*
%TO.N,CLK_50*%
X153670000Y-134620000D02*
X151980000Y-134620000D01*
X151980000Y-134620000D02*
X150850000Y-135750000D01*
X150850000Y-138050000D02*
X152070000Y-139270000D01*
X152070000Y-139270000D02*
X172212500Y-139270000D01*
X150850000Y-135750000D02*
X150850000Y-138050000D01*
%TO.N,Net-(D5-K)*%
X168910000Y-118110000D02*
X168910000Y-125730000D01*
X168910000Y-121920000D02*
X165100000Y-121920000D01*
%TO.N,Net-(D3-K)*%
X179070000Y-121920000D02*
X184680000Y-121920000D01*
X184680000Y-121920000D02*
X193500000Y-113100000D01*
X193500000Y-113100000D02*
X193500000Y-83700000D01*
%TO.N,Net-(D16-A)*%
X196850000Y-138430000D02*
X194310000Y-138430000D01*
%TO.N,+5V*%
X207010000Y-138430000D02*
X207010000Y-130560000D01*
X203436041Y-126986041D02*
X203436041Y-124460000D01*
X207010000Y-130560000D02*
X203436041Y-126986041D01*
D31*
X197780000Y-110490000D02*
X203436041Y-116146041D01*
X203436041Y-116146041D02*
X203436041Y-124460000D01*
X174752500Y-141810000D02*
X180290000Y-141810000D01*
X197640000Y-124460000D02*
X203436041Y-124460000D01*
X172212500Y-141810000D02*
X174752500Y-141810000D01*
%TO.N,Net-(D1-K)*%
X197780000Y-105410000D02*
X197780000Y-100906041D01*
X197780000Y-100906041D02*
X208516041Y-90170000D01*
X207270000Y-78740000D02*
X207270000Y-77280000D01*
X214830000Y-75650000D02*
X217920000Y-78740000D01*
X207270000Y-77280000D02*
X208900000Y-75650000D01*
X208900000Y-75650000D02*
X214830000Y-75650000D01*
X208516041Y-90170000D02*
X208516041Y-84516041D01*
X208516041Y-84516041D02*
X207270000Y-83270000D01*
X207270000Y-83270000D02*
X207270000Y-78740000D01*
%TO.N,Net-(D3-K)*%
X207270000Y-68580000D02*
X202120000Y-68580000D01*
X202120000Y-68580000D02*
X197750000Y-72950000D01*
X210820000Y-68580000D02*
X207270000Y-68580000D01*
%TO.N,Net-(D1-A)*%
X214370000Y-68580000D02*
X217920000Y-68580000D01*
X193500000Y-63700000D02*
X211950000Y-63700000D01*
X211950000Y-63700000D02*
X214370000Y-66120000D01*
X214370000Y-66120000D02*
X214370000Y-68580000D01*
X193500000Y-63700000D02*
X189150000Y-68050000D01*
X189150000Y-68050000D02*
X189150000Y-74350000D01*
X189150000Y-74350000D02*
X193500000Y-78700000D01*
%TO.N,Net-(D3-K)*%
X193500000Y-68700000D02*
X197750000Y-72950000D01*
X197750000Y-72950000D02*
X197750000Y-79450000D01*
X197750000Y-79450000D02*
X193500000Y-83700000D01*
D33*
%TO.N,Net-(J1-N)*%
X168500000Y-63700000D02*
X150930000Y-63700000D01*
X149860000Y-64770000D02*
X135580000Y-64770000D01*
X150930000Y-63700000D02*
X149860000Y-64770000D01*
D31*
X135580000Y-64770000D02*
X135450000Y-64900000D01*
%TD*%
%TA.AperFunction,Conductor*%
%TO.N,GND*%
G36*
X174352401Y-134497007D02*
G01*
X174445493Y-134590099D01*
X174520960Y-134633670D01*
X173908872Y-135245758D01*
X173908872Y-135245759D01*
X174037409Y-135339147D01*
X174085947Y-135399087D01*
X174098013Y-135475265D01*
X174070372Y-135547270D01*
X174037409Y-135580234D01*
X173872709Y-135699895D01*
X173872706Y-135699897D01*
X173722397Y-135850206D01*
X173722395Y-135850209D01*
X173603044Y-136014482D01*
X173543104Y-136063020D01*
X173466925Y-136075086D01*
X173394920Y-136047446D01*
X173361956Y-136014482D01*
X173285467Y-135909204D01*
X173242604Y-135850208D01*
X173092292Y-135699896D01*
X172927589Y-135580233D01*
X172879052Y-135520294D01*
X172866986Y-135444116D01*
X172894626Y-135372110D01*
X172927590Y-135339146D01*
X173056126Y-135245758D01*
X172444038Y-134633670D01*
X172519507Y-134590099D01*
X172612599Y-134497007D01*
X172656170Y-134421538D01*
X173268258Y-135033626D01*
X173361955Y-134904664D01*
X173421895Y-134856126D01*
X173498073Y-134844060D01*
X173570079Y-134871700D01*
X173603042Y-134904664D01*
X173696738Y-135033626D01*
X173696740Y-135033626D01*
X174308828Y-134421537D01*
X174352401Y-134497007D01*
G37*
%TD.AperFunction*%
%TA.AperFunction,Conductor*%
G36*
X223425000Y-48520462D02*
G01*
X223479538Y-48575000D01*
X223499500Y-48649500D01*
X223499500Y-147350500D01*
X223479538Y-147425000D01*
X223425000Y-147479538D01*
X223350500Y-147499500D01*
X124649500Y-147499500D01*
X124575000Y-147479538D01*
X124520462Y-147425000D01*
X124500500Y-147350500D01*
X124500500Y-142837857D01*
X125699500Y-142837857D01*
X125699500Y-143162143D01*
X125731286Y-143484868D01*
X125731287Y-143484875D01*
X125794552Y-143802927D01*
X125794553Y-143802933D01*
X125888685Y-144113244D01*
X125888688Y-144113253D01*
X126012785Y-144412847D01*
X126165651Y-144698840D01*
X126343381Y-144964831D01*
X126345817Y-144968476D01*
X126551542Y-145219153D01*
X126780847Y-145448458D01*
X127031524Y-145654183D01*
X127168163Y-145745482D01*
X127301159Y-145834348D01*
X127444155Y-145910781D01*
X127587153Y-145987215D01*
X127782258Y-146068030D01*
X127886746Y-146111311D01*
X127886749Y-146111312D01*
X127886754Y-146111314D01*
X128033802Y-146155920D01*
X128197066Y-146205446D01*
X128197068Y-146205446D01*
X128197077Y-146205449D01*
X128515132Y-146268714D01*
X128837857Y-146300500D01*
X128837862Y-146300500D01*
X129162138Y-146300500D01*
X129162143Y-146300500D01*
X129484868Y-146268714D01*
X129802923Y-146205449D01*
X130113246Y-146111314D01*
X130412847Y-145987215D01*
X130698842Y-145834347D01*
X130968476Y-145654183D01*
X131219153Y-145448458D01*
X131448458Y-145219153D01*
X131654183Y-144968476D01*
X131834347Y-144698842D01*
X131987215Y-144412847D01*
X132111314Y-144113246D01*
X132205449Y-143802923D01*
X132268714Y-143484868D01*
X132300500Y-143162143D01*
X132300500Y-142837857D01*
X132268714Y-142515132D01*
X132205449Y-142197077D01*
X132186056Y-142133148D01*
X132111314Y-141886755D01*
X132111311Y-141886746D01*
X132057223Y-141756167D01*
X131987215Y-141587153D01*
X131845149Y-141321367D01*
X131834348Y-141301159D01*
X131692146Y-141088340D01*
X131654183Y-141031524D01*
X131448458Y-140780847D01*
X131219153Y-140551542D01*
X130968476Y-140345817D01*
X130906526Y-140304423D01*
X130698840Y-140165651D01*
X130412847Y-140012785D01*
X130113253Y-139888688D01*
X130113244Y-139888685D01*
X129802933Y-139794553D01*
X129802927Y-139794552D01*
X129802924Y-139794551D01*
X129802923Y-139794551D01*
X129694010Y-139772887D01*
X129484875Y-139731287D01*
X129484871Y-139731286D01*
X129484868Y-139731286D01*
X129162143Y-139699500D01*
X128837857Y-139699500D01*
X128515132Y-139731286D01*
X128515129Y-139731286D01*
X128515124Y-139731287D01*
X128197072Y-139794552D01*
X128197066Y-139794553D01*
X127886755Y-139888685D01*
X127886746Y-139888688D01*
X127587152Y-140012785D01*
X127301159Y-140165651D01*
X127031529Y-140345813D01*
X126780847Y-140551542D01*
X126551542Y-140780847D01*
X126345813Y-141031529D01*
X126165651Y-141301159D01*
X126012785Y-141587152D01*
X125888688Y-141886746D01*
X125888685Y-141886755D01*
X125794553Y-142197066D01*
X125794552Y-142197072D01*
X125731287Y-142515124D01*
X125731286Y-142515129D01*
X125731286Y-142515132D01*
X125699500Y-142837857D01*
X124500500Y-142837857D01*
X124500500Y-121817648D01*
X144349500Y-121817648D01*
X144349500Y-122022352D01*
X144381523Y-122224534D01*
X144444719Y-122419032D01*
X144444778Y-122419212D01*
X144444782Y-122419224D01*
X144537714Y-122601612D01*
X144658028Y-122767212D01*
X144658035Y-122767220D01*
X144802779Y-122911964D01*
X144802787Y-122911971D01*
X144968387Y-123032285D01*
X144968390Y-123032287D01*
X145017913Y-123057520D01*
X145075230Y-123109129D01*
X145099064Y-123182482D01*
X145083028Y-123257925D01*
X145031419Y-123315242D01*
X145017914Y-123323039D01*
X144968648Y-123348141D01*
X144803110Y-123468412D01*
X144658412Y-123613110D01*
X144538143Y-123778645D01*
X144445246Y-123960967D01*
X144445241Y-123960979D01*
X144382009Y-124155583D01*
X144357553Y-124310000D01*
X145676082Y-124310000D01*
X145650000Y-124407339D01*
X145650000Y-124512661D01*
X145676082Y-124610000D01*
X144357553Y-124610000D01*
X144382009Y-124764416D01*
X144445241Y-124959020D01*
X144445246Y-124959032D01*
X144538143Y-125141354D01*
X144658412Y-125306889D01*
X144803110Y-125451587D01*
X144968647Y-125571858D01*
X145017912Y-125596959D01*
X145075229Y-125648567D01*
X145099064Y-125721920D01*
X145083028Y-125797363D01*
X145031420Y-125854680D01*
X145017915Y-125862478D01*
X144968388Y-125887714D01*
X144802787Y-126008028D01*
X144802779Y-126008035D01*
X144658035Y-126152779D01*
X144658028Y-126152787D01*
X144537714Y-126318387D01*
X144444782Y-126500775D01*
X144444778Y-126500787D01*
X144388117Y-126675173D01*
X144381523Y-126695466D01*
X144349500Y-126897648D01*
X144349500Y-127102352D01*
X144381523Y-127304534D01*
X144444719Y-127499032D01*
X144444778Y-127499212D01*
X144444782Y-127499224D01*
X144537714Y-127681612D01*
X144658028Y-127847212D01*
X144658035Y-127847220D01*
X144802779Y-127991964D01*
X144802787Y-127991971D01*
X144968387Y-128112285D01*
X144968390Y-128112287D01*
X145017913Y-128137520D01*
X145075230Y-128189129D01*
X145099064Y-128262482D01*
X145083028Y-128337925D01*
X145031419Y-128395242D01*
X145017914Y-128403039D01*
X144968648Y-128428141D01*
X144803110Y-128548412D01*
X144658412Y-128693110D01*
X144538143Y-128858645D01*
X144445246Y-129040967D01*
X144445241Y-129040979D01*
X144382009Y-129235583D01*
X144357553Y-129390000D01*
X145676082Y-129390000D01*
X145650000Y-129487339D01*
X145650000Y-129592661D01*
X145676082Y-129690000D01*
X144357553Y-129690000D01*
X144382009Y-129844416D01*
X144445241Y-130039020D01*
X144445246Y-130039032D01*
X144538143Y-130221354D01*
X144658412Y-130386889D01*
X144803110Y-130531587D01*
X144968647Y-130651858D01*
X145017912Y-130676959D01*
X145075229Y-130728567D01*
X145099064Y-130801920D01*
X145083028Y-130877363D01*
X145031420Y-130934680D01*
X145017915Y-130942478D01*
X144968388Y-130967714D01*
X144802787Y-131088028D01*
X144802779Y-131088035D01*
X144658035Y-131232779D01*
X144658028Y-131232787D01*
X144537714Y-131398387D01*
X144444782Y-131580775D01*
X144444780Y-131580781D01*
X144381523Y-131775466D01*
X144349500Y-131977648D01*
X144349500Y-132182352D01*
X144381523Y-132384534D01*
X144444719Y-132579032D01*
X144444778Y-132579212D01*
X144444782Y-132579224D01*
X144537714Y-132761612D01*
X144658028Y-132927212D01*
X144658035Y-132927220D01*
X144802779Y-133071964D01*
X144802787Y-133071971D01*
X144968387Y-133192285D01*
X144968390Y-133192287D01*
X145017913Y-133217520D01*
X145075230Y-133269129D01*
X145099064Y-133342482D01*
X145083028Y-133417925D01*
X145031419Y-133475242D01*
X145017914Y-133483039D01*
X144968648Y-133508141D01*
X144803110Y-133628412D01*
X144658412Y-133773110D01*
X144538143Y-133938645D01*
X144445246Y-134120967D01*
X144445241Y-134120979D01*
X144382009Y-134315583D01*
X144357553Y-134470000D01*
X145676082Y-134470000D01*
X145650000Y-134567339D01*
X145650000Y-134672661D01*
X145676082Y-134770000D01*
X144357553Y-134770000D01*
X144382009Y-134924416D01*
X144445241Y-135119020D01*
X144445246Y-135119032D01*
X144538143Y-135301354D01*
X144658412Y-135466889D01*
X144803110Y-135611587D01*
X144968647Y-135731858D01*
X145017912Y-135756959D01*
X145075229Y-135808567D01*
X145099064Y-135881920D01*
X145083028Y-135957363D01*
X145031420Y-136014680D01*
X145017915Y-136022478D01*
X144968388Y-136047714D01*
X144802787Y-136168028D01*
X144802779Y-136168035D01*
X144658035Y-136312779D01*
X144658028Y-136312787D01*
X144537714Y-136478387D01*
X144444782Y-136660775D01*
X144444778Y-136660787D01*
X144387755Y-136836287D01*
X144381523Y-136855466D01*
X144349500Y-137057648D01*
X144349500Y-137262352D01*
X144368896Y-137384812D01*
X144381523Y-137464534D01*
X144444778Y-137659212D01*
X144444782Y-137659224D01*
X144537714Y-137841612D01*
X144658028Y-138007212D01*
X144658035Y-138007220D01*
X144802779Y-138151964D01*
X144802787Y-138151971D01*
X144946394Y-138256306D01*
X144968390Y-138272287D01*
X145077042Y-138327648D01*
X145150785Y-138365222D01*
X145196541Y-138380088D01*
X145261227Y-138422093D01*
X145296243Y-138490814D01*
X145299500Y-138521796D01*
X145299500Y-139584631D01*
X145279538Y-139659131D01*
X145238080Y-139705174D01*
X145072499Y-139825476D01*
X145072488Y-139825485D01*
X144905485Y-139992488D01*
X144905476Y-139992499D01*
X144766658Y-140183565D01*
X144683987Y-140345817D01*
X144659432Y-140394008D01*
X144586447Y-140618632D01*
X144549500Y-140851908D01*
X144549500Y-141088092D01*
X144586447Y-141321368D01*
X144659432Y-141545992D01*
X144766657Y-141756433D01*
X144905483Y-141947510D01*
X145072490Y-142114517D01*
X145263567Y-142253343D01*
X145474008Y-142360568D01*
X145698632Y-142433553D01*
X145931908Y-142470500D01*
X145931913Y-142470500D01*
X146168087Y-142470500D01*
X146168092Y-142470500D01*
X146370253Y-142438481D01*
X146446958Y-142446544D01*
X146498920Y-142480288D01*
X148497049Y-144478416D01*
X148601584Y-144582951D01*
X148650685Y-144615759D01*
X148724502Y-144665083D01*
X148724507Y-144665085D01*
X148861087Y-144721658D01*
X149006082Y-144750500D01*
X149006083Y-144750500D01*
X149006086Y-144750500D01*
X165073914Y-144750500D01*
X165073917Y-144750500D01*
X165073918Y-144750500D01*
X165218913Y-144721658D01*
X165355495Y-144665084D01*
X165404729Y-144632186D01*
X165478416Y-144582952D01*
X167457227Y-142604141D01*
X167524022Y-142565577D01*
X167562586Y-142560500D01*
X170827131Y-142560500D01*
X170901631Y-142580462D01*
X170947674Y-142621920D01*
X171067983Y-142787510D01*
X171234990Y-142954517D01*
X171426067Y-143093343D01*
X171636508Y-143200568D01*
X171861132Y-143273553D01*
X172094408Y-143310500D01*
X172094413Y-143310500D01*
X180408087Y-143310500D01*
X180408092Y-143310500D01*
X180641368Y-143273553D01*
X180865992Y-143200568D01*
X181076434Y-143093343D01*
X181267510Y-142954517D01*
X181384170Y-142837857D01*
X215699500Y-142837857D01*
X215699500Y-143162143D01*
X215731286Y-143484868D01*
X215731287Y-143484875D01*
X215794552Y-143802927D01*
X215794553Y-143802933D01*
X215888685Y-144113244D01*
X215888688Y-144113253D01*
X216012785Y-144412847D01*
X216165651Y-144698840D01*
X216343381Y-144964831D01*
X216345817Y-144968476D01*
X216551542Y-145219153D01*
X216780847Y-145448458D01*
X217031524Y-145654183D01*
X217168163Y-145745482D01*
X217301159Y-145834348D01*
X217444155Y-145910781D01*
X217587153Y-145987215D01*
X217782258Y-146068030D01*
X217886746Y-146111311D01*
X217886749Y-146111312D01*
X217886754Y-146111314D01*
X218033802Y-146155920D01*
X218197066Y-146205446D01*
X218197068Y-146205446D01*
X218197077Y-146205449D01*
X218515132Y-146268714D01*
X218837857Y-146300500D01*
X218837862Y-146300500D01*
X219162138Y-146300500D01*
X219162143Y-146300500D01*
X219484868Y-146268714D01*
X219802923Y-146205449D01*
X220113246Y-146111314D01*
X220412847Y-145987215D01*
X220698842Y-145834347D01*
X220968476Y-145654183D01*
X221219153Y-145448458D01*
X221448458Y-145219153D01*
X221654183Y-144968476D01*
X221834347Y-144698842D01*
X221987215Y-144412847D01*
X222111314Y-144113246D01*
X222205449Y-143802923D01*
X222268714Y-143484868D01*
X222300500Y-143162143D01*
X222300500Y-142837857D01*
X222268714Y-142515132D01*
X222205449Y-142197077D01*
X222186056Y-142133148D01*
X222111314Y-141886755D01*
X222111311Y-141886746D01*
X222057223Y-141756167D01*
X221987215Y-141587153D01*
X221845149Y-141321367D01*
X221834348Y-141301159D01*
X221692146Y-141088340D01*
X221654183Y-141031524D01*
X221448458Y-140780847D01*
X221219153Y-140551542D01*
X220968476Y-140345817D01*
X220906526Y-140304423D01*
X220698840Y-140165651D01*
X220412847Y-140012785D01*
X220113253Y-139888688D01*
X220113244Y-139888685D01*
X219802933Y-139794553D01*
X219802927Y-139794552D01*
X219802924Y-139794551D01*
X219802923Y-139794551D01*
X219694010Y-139772887D01*
X219484875Y-139731287D01*
X219484871Y-139731286D01*
X219484868Y-139731286D01*
X219162143Y-139699500D01*
X218837857Y-139699500D01*
X218515132Y-139731286D01*
X218515129Y-139731286D01*
X218515124Y-139731287D01*
X218197072Y-139794552D01*
X218197066Y-139794553D01*
X217886755Y-139888685D01*
X217886746Y-139888688D01*
X217587152Y-140012785D01*
X217301159Y-140165651D01*
X217031529Y-140345813D01*
X216780847Y-140551542D01*
X216551542Y-140780847D01*
X216345813Y-141031529D01*
X216165651Y-141301159D01*
X216012785Y-141587152D01*
X215888688Y-141886746D01*
X215888685Y-141886755D01*
X215794553Y-142197066D01*
X215794552Y-142197072D01*
X215731287Y-142515124D01*
X215731286Y-142515129D01*
X215731286Y-142515132D01*
X215699500Y-142837857D01*
X181384170Y-142837857D01*
X186739850Y-137482177D01*
X190370000Y-137482177D01*
X190370000Y-138280000D01*
X191344318Y-138280000D01*
X191320000Y-138370756D01*
X191320000Y-138489244D01*
X191344318Y-138580000D01*
X190370000Y-138580000D01*
X190370000Y-139377822D01*
X190370001Y-139377842D01*
X190376401Y-139437377D01*
X190426645Y-139572084D01*
X190426650Y-139572094D01*
X190512809Y-139687187D01*
X190512812Y-139687190D01*
X190627905Y-139773349D01*
X190627915Y-139773354D01*
X190762623Y-139823598D01*
X190762621Y-139823598D01*
X190822157Y-139829998D01*
X190822177Y-139830000D01*
X191620000Y-139830000D01*
X191620000Y-138855681D01*
X191710756Y-138880000D01*
X191829244Y-138880000D01*
X191920000Y-138855681D01*
X191920000Y-139830000D01*
X192717823Y-139830000D01*
X192717842Y-139829998D01*
X192777377Y-139823598D01*
X192912084Y-139773354D01*
X192912094Y-139773349D01*
X193027187Y-139687190D01*
X193027190Y-139687187D01*
X193113349Y-139572094D01*
X193113351Y-139572091D01*
X193129616Y-139528481D01*
X193174354Y-139465653D01*
X193244511Y-139433612D01*
X193321290Y-139440941D01*
X193374582Y-139475189D01*
X193397635Y-139498242D01*
X193499280Y-139572091D01*
X193575975Y-139627813D01*
X193575976Y-139627814D01*
X193575978Y-139627815D01*
X193772394Y-139727895D01*
X193859512Y-139756201D01*
X193982043Y-139796014D01*
X193982048Y-139796014D01*
X193982049Y-139796015D01*
X194199778Y-139830500D01*
X194199782Y-139830500D01*
X194420218Y-139830500D01*
X194420222Y-139830500D01*
X194637951Y-139796015D01*
X194637952Y-139796014D01*
X194637956Y-139796014D01*
X194718556Y-139769825D01*
X194847606Y-139727895D01*
X195044022Y-139627815D01*
X195222365Y-139498242D01*
X195378242Y-139342365D01*
X195451219Y-139241919D01*
X195475327Y-139222397D01*
X195497263Y-139200462D01*
X195504964Y-139198398D01*
X195511159Y-139193382D01*
X195571763Y-139180500D01*
X195711844Y-139180500D01*
X195786344Y-139200462D01*
X195832388Y-139241920D01*
X195858033Y-139277217D01*
X195858035Y-139277220D01*
X196002779Y-139421964D01*
X196002787Y-139421971D01*
X196168387Y-139542285D01*
X196168390Y-139542287D01*
X196350781Y-139635220D01*
X196545466Y-139698477D01*
X196747648Y-139730500D01*
X196747653Y-139730500D01*
X196952347Y-139730500D01*
X196952352Y-139730500D01*
X197154534Y-139698477D01*
X197349219Y-139635220D01*
X197531610Y-139542287D01*
X197697219Y-139421966D01*
X197841966Y-139277219D01*
X197962287Y-139111610D01*
X198055220Y-138929219D01*
X198118477Y-138734534D01*
X198150500Y-138532352D01*
X198150500Y-138327648D01*
X198118477Y-138125466D01*
X198055220Y-137930781D01*
X197962287Y-137748390D01*
X197912236Y-137679500D01*
X197841971Y-137582787D01*
X197841964Y-137582779D01*
X197697220Y-137438035D01*
X197697212Y-137438028D01*
X197531612Y-137317714D01*
X197349224Y-137224782D01*
X197349220Y-137224780D01*
X197349219Y-137224780D01*
X197154534Y-137161523D01*
X196952352Y-137129500D01*
X196747648Y-137129500D01*
X196579163Y-137156185D01*
X196545465Y-137161523D01*
X196350787Y-137224778D01*
X196350775Y-137224782D01*
X196168387Y-137317714D01*
X196002787Y-137438028D01*
X196002779Y-137438035D01*
X195858035Y-137582779D01*
X195858033Y-137582782D01*
X195832388Y-137618080D01*
X195808279Y-137637602D01*
X195786344Y-137659538D01*
X195778642Y-137661601D01*
X195772448Y-137666618D01*
X195711844Y-137679500D01*
X195571763Y-137679500D01*
X195497263Y-137659538D01*
X195451219Y-137618080D01*
X195445198Y-137609793D01*
X195378242Y-137517635D01*
X195222365Y-137361758D01*
X195120724Y-137287912D01*
X195044024Y-137232186D01*
X195044023Y-137232185D01*
X194847606Y-137132105D01*
X194637956Y-137063985D01*
X194516990Y-137044826D01*
X194420222Y-137029500D01*
X194199778Y-137029500D01*
X194112686Y-137043294D01*
X193982043Y-137063985D01*
X193772393Y-137132105D01*
X193575976Y-137232185D01*
X193575975Y-137232186D01*
X193397636Y-137361757D01*
X193397632Y-137361760D01*
X193374580Y-137384812D01*
X193307784Y-137423375D01*
X193230656Y-137423373D01*
X193163862Y-137384808D01*
X193129617Y-137331519D01*
X193113353Y-137287912D01*
X193113349Y-137287905D01*
X193027190Y-137172812D01*
X193027187Y-137172809D01*
X192912094Y-137086650D01*
X192912084Y-137086645D01*
X192777376Y-137036401D01*
X192777378Y-137036401D01*
X192717842Y-137030001D01*
X192717823Y-137030000D01*
X191920000Y-137030000D01*
X191920000Y-138004318D01*
X191829244Y-137980000D01*
X191710756Y-137980000D01*
X191620000Y-138004318D01*
X191620000Y-137030000D01*
X190822177Y-137030000D01*
X190822157Y-137030001D01*
X190762622Y-137036401D01*
X190627915Y-137086645D01*
X190627905Y-137086650D01*
X190512812Y-137172809D01*
X190512809Y-137172812D01*
X190426650Y-137287905D01*
X190426645Y-137287915D01*
X190376401Y-137422622D01*
X190370001Y-137482157D01*
X190370000Y-137482177D01*
X186739850Y-137482177D01*
X189194517Y-135027510D01*
X198217886Y-126004141D01*
X198284681Y-125965577D01*
X198323245Y-125960500D01*
X201913457Y-125960500D01*
X201987957Y-125980462D01*
X202010334Y-125997632D01*
X202010576Y-125997327D01*
X202017382Y-126002708D01*
X202017384Y-126002709D01*
X202017386Y-126002711D01*
X202166707Y-126094814D01*
X202333244Y-126149999D01*
X202436033Y-126160500D01*
X202536541Y-126160500D01*
X202611041Y-126180462D01*
X202665579Y-126235000D01*
X202685541Y-126309500D01*
X202685541Y-127059962D01*
X202714382Y-127204952D01*
X202714383Y-127204954D01*
X202755581Y-127304416D01*
X202770958Y-127341538D01*
X202770959Y-127341540D01*
X202803852Y-127390767D01*
X202803853Y-127390770D01*
X202853084Y-127464451D01*
X202853088Y-127464456D01*
X202853089Y-127464457D01*
X204555891Y-129167259D01*
X206215859Y-130827226D01*
X206254423Y-130894021D01*
X206259500Y-130932585D01*
X206259500Y-137291844D01*
X206239538Y-137366344D01*
X206198080Y-137412388D01*
X206162782Y-137438033D01*
X206162779Y-137438035D01*
X206018035Y-137582779D01*
X206018028Y-137582787D01*
X205897714Y-137748387D01*
X205804782Y-137930775D01*
X205804778Y-137930787D01*
X205749132Y-138102049D01*
X205741523Y-138125466D01*
X205709500Y-138327648D01*
X205709500Y-138532352D01*
X205741523Y-138734534D01*
X205778823Y-138849333D01*
X205804778Y-138929212D01*
X205804782Y-138929224D01*
X205897714Y-139111612D01*
X206018028Y-139277212D01*
X206018035Y-139277220D01*
X206162779Y-139421964D01*
X206162787Y-139421971D01*
X206328387Y-139542285D01*
X206328390Y-139542287D01*
X206510781Y-139635220D01*
X206705466Y-139698477D01*
X206907648Y-139730500D01*
X206907653Y-139730500D01*
X207112347Y-139730500D01*
X207112352Y-139730500D01*
X207314534Y-139698477D01*
X207509219Y-139635220D01*
X207691610Y-139542287D01*
X207857219Y-139421966D01*
X208001966Y-139277219D01*
X208122287Y-139111610D01*
X208215220Y-138929219D01*
X208278477Y-138734534D01*
X208310500Y-138532352D01*
X208310500Y-138327648D01*
X208278477Y-138125466D01*
X208215220Y-137930781D01*
X208122287Y-137748390D01*
X208072236Y-137679500D01*
X208001971Y-137582787D01*
X208001964Y-137582779D01*
X207857220Y-137438035D01*
X207857219Y-137438034D01*
X207821919Y-137412387D01*
X207773382Y-137352448D01*
X207760500Y-137291844D01*
X207760500Y-130486086D01*
X207760499Y-130486078D01*
X207740834Y-130387220D01*
X207731658Y-130341087D01*
X207675778Y-130206181D01*
X207675083Y-130204502D01*
X207625759Y-130130685D01*
X207592951Y-130081584D01*
X207488416Y-129977049D01*
X205862236Y-128350869D01*
X204230182Y-126718814D01*
X204191618Y-126652019D01*
X204186541Y-126613455D01*
X204186541Y-126309500D01*
X204206503Y-126235000D01*
X204261041Y-126180462D01*
X204335541Y-126160500D01*
X204436045Y-126160500D01*
X204436049Y-126160500D01*
X204538838Y-126149999D01*
X204705375Y-126094814D01*
X204854696Y-126002711D01*
X204978752Y-125878655D01*
X205070855Y-125729334D01*
X205126040Y-125562797D01*
X205136541Y-125460008D01*
X205136541Y-124348570D01*
X209236041Y-124348570D01*
X209236041Y-124571429D01*
X209265125Y-124792349D01*
X209265128Y-124792366D01*
X209322802Y-125007615D01*
X209408088Y-125213508D01*
X209519511Y-125406499D01*
X209519511Y-125406500D01*
X209631483Y-125552423D01*
X210419164Y-124764742D01*
X210455922Y-124828408D01*
X210567633Y-124940119D01*
X210631296Y-124976875D01*
X209843615Y-125764556D01*
X209989541Y-125876529D01*
X210182532Y-125987952D01*
X210388425Y-126073238D01*
X210603674Y-126130912D01*
X210603691Y-126130915D01*
X210824611Y-126159999D01*
X210824617Y-126160000D01*
X211047465Y-126160000D01*
X211047470Y-126159999D01*
X211268390Y-126130915D01*
X211268407Y-126130912D01*
X211483656Y-126073238D01*
X211689549Y-125987952D01*
X211882540Y-125876529D01*
X211882541Y-125876529D01*
X212028464Y-125764556D01*
X212028465Y-125764556D01*
X211240784Y-124976875D01*
X211304449Y-124940119D01*
X211416160Y-124828408D01*
X211452916Y-124764743D01*
X212240597Y-125552424D01*
X212240597Y-125552423D01*
X212352570Y-125406500D01*
X212352570Y-125406499D01*
X212463993Y-125213508D01*
X212549279Y-125007615D01*
X212606953Y-124792366D01*
X212606956Y-124792349D01*
X212636040Y-124571429D01*
X212636041Y-124571424D01*
X212636041Y-124348576D01*
X212636040Y-124348570D01*
X212606956Y-124127650D01*
X212606953Y-124127633D01*
X212549279Y-123912384D01*
X212463993Y-123706491D01*
X212352570Y-123513500D01*
X212352570Y-123513499D01*
X212240597Y-123367574D01*
X211452916Y-124155255D01*
X211416160Y-124091592D01*
X211304449Y-123979881D01*
X211240783Y-123943123D01*
X212028465Y-123155442D01*
X211882540Y-123043470D01*
X211689549Y-122932047D01*
X211483656Y-122846761D01*
X211268407Y-122789087D01*
X211268390Y-122789084D01*
X211047470Y-122760000D01*
X210824611Y-122760000D01*
X210603691Y-122789084D01*
X210603674Y-122789087D01*
X210388425Y-122846761D01*
X210182532Y-122932047D01*
X209989546Y-123043467D01*
X209843615Y-123155442D01*
X210631297Y-123943124D01*
X210567633Y-123979881D01*
X210455922Y-124091592D01*
X210419165Y-124155256D01*
X209631483Y-123367575D01*
X209519508Y-123513505D01*
X209408088Y-123706491D01*
X209322802Y-123912384D01*
X209265128Y-124127633D01*
X209265125Y-124127650D01*
X209236041Y-124348570D01*
X205136541Y-124348570D01*
X205136541Y-123459992D01*
X205126040Y-123357203D01*
X205070855Y-123190666D01*
X204978752Y-123041345D01*
X204978750Y-123041343D01*
X204978749Y-123041341D01*
X204973368Y-123034535D01*
X204974780Y-123033418D01*
X204941618Y-122975980D01*
X204936541Y-122937416D01*
X204936541Y-116027953D01*
X204936541Y-116027949D01*
X204899594Y-115794673D01*
X204826609Y-115570049D01*
X204719384Y-115359608D01*
X204580558Y-115168531D01*
X204413551Y-115001524D01*
X198757510Y-109345483D01*
X198757506Y-109345480D01*
X198757503Y-109345477D01*
X198757502Y-109345476D01*
X198733629Y-109328131D01*
X198685091Y-109268191D01*
X198673026Y-109192012D01*
X198700668Y-109120008D01*
X198733633Y-109087044D01*
X198773732Y-109057911D01*
X198935407Y-108896236D01*
X199069787Y-108711277D01*
X199069790Y-108711272D01*
X199173578Y-108507576D01*
X199173585Y-108507559D01*
X199244233Y-108290128D01*
X199274347Y-108100000D01*
X198309209Y-108100000D01*
X198330000Y-108022409D01*
X198330000Y-107877591D01*
X198314267Y-107818876D01*
X212439500Y-107818876D01*
X212439500Y-108081123D01*
X212473728Y-108341107D01*
X212473728Y-108341110D01*
X212541600Y-108594415D01*
X212541600Y-108594416D01*
X212590004Y-108711272D01*
X212641957Y-108836697D01*
X212769674Y-109057911D01*
X212773078Y-109063806D01*
X212773078Y-109063807D01*
X212932715Y-109271848D01*
X213118151Y-109457284D01*
X213326193Y-109616921D01*
X213326197Y-109616924D01*
X213553303Y-109748043D01*
X213757809Y-109832752D01*
X213795583Y-109848399D01*
X213883332Y-109871910D01*
X214048884Y-109916270D01*
X214048890Y-109916270D01*
X214048891Y-109916271D01*
X214085834Y-109921134D01*
X214308877Y-109950499D01*
X214308878Y-109950500D01*
X214308880Y-109950500D01*
X214571122Y-109950500D01*
X214571122Y-109950499D01*
X214831108Y-109916271D01*
X214831110Y-109916271D01*
X214831111Y-109916270D01*
X214831116Y-109916270D01*
X215084415Y-109848399D01*
X215084416Y-109848399D01*
X215084417Y-109848398D01*
X215084419Y-109848398D01*
X215326697Y-109748043D01*
X215553803Y-109616924D01*
X215761848Y-109457284D01*
X215761849Y-109457284D01*
X215947284Y-109271849D01*
X215947284Y-109271848D01*
X215984643Y-109223162D01*
X216106924Y-109063803D01*
X216238043Y-108836697D01*
X216338398Y-108594419D01*
X216406270Y-108341116D01*
X216440500Y-108081120D01*
X216440500Y-107818880D01*
X216406270Y-107558884D01*
X216338398Y-107305581D01*
X216238043Y-107063303D01*
X216106924Y-106836197D01*
X216106921Y-106836193D01*
X216106921Y-106836192D01*
X215947284Y-106628151D01*
X215761848Y-106442715D01*
X215553806Y-106283078D01*
X215326701Y-106151959D01*
X215326699Y-106151958D01*
X215326697Y-106151957D01*
X215251154Y-106120666D01*
X215084416Y-106051600D01*
X214858255Y-105991002D01*
X214831116Y-105983730D01*
X214831114Y-105983729D01*
X214831108Y-105983728D01*
X214571123Y-105949500D01*
X214571120Y-105949500D01*
X214308880Y-105949500D01*
X214308876Y-105949500D01*
X214048892Y-105983728D01*
X214048889Y-105983728D01*
X213795584Y-106051600D01*
X213795583Y-106051600D01*
X213553298Y-106151959D01*
X213326193Y-106283078D01*
X213326192Y-106283078D01*
X213118151Y-106442715D01*
X213118151Y-106442716D01*
X213118149Y-106442718D01*
X212932718Y-106628149D01*
X212932716Y-106628151D01*
X212932715Y-106628151D01*
X212773078Y-106836192D01*
X212773078Y-106836193D01*
X212641959Y-107063298D01*
X212541600Y-107305583D01*
X212541600Y-107305584D01*
X212473728Y-107558889D01*
X212473728Y-107558892D01*
X212439500Y-107818876D01*
X198314267Y-107818876D01*
X198309209Y-107800000D01*
X199274347Y-107800000D01*
X199244233Y-107609871D01*
X199173585Y-107392440D01*
X199173578Y-107392423D01*
X199069790Y-107188727D01*
X199069782Y-107188713D01*
X198956330Y-107032560D01*
X198928689Y-106960555D01*
X198940755Y-106884376D01*
X198989293Y-106824437D01*
X199013111Y-106811650D01*
X199012977Y-106811404D01*
X199022333Y-106806295D01*
X199079938Y-106763171D01*
X199137546Y-106720046D01*
X199223796Y-106604831D01*
X199274091Y-106469983D01*
X199277023Y-106442715D01*
X199280499Y-106410385D01*
X199280500Y-106410367D01*
X199280500Y-101589286D01*
X199300462Y-101514786D01*
X199324141Y-101483927D01*
X208893928Y-91914141D01*
X208960723Y-91875577D01*
X208999287Y-91870500D01*
X209516045Y-91870500D01*
X209516049Y-91870500D01*
X209618838Y-91859999D01*
X209785375Y-91804814D01*
X209934696Y-91712711D01*
X210058752Y-91588655D01*
X210150855Y-91439334D01*
X210206040Y-91272797D01*
X210216541Y-91170008D01*
X210216541Y-90058570D01*
X214316041Y-90058570D01*
X214316041Y-90281429D01*
X214345125Y-90502349D01*
X214345128Y-90502366D01*
X214402802Y-90717615D01*
X214488088Y-90923508D01*
X214599511Y-91116499D01*
X214599511Y-91116500D01*
X214711483Y-91262423D01*
X215499164Y-90474742D01*
X215535922Y-90538408D01*
X215647633Y-90650119D01*
X215711296Y-90686875D01*
X214923615Y-91474556D01*
X215069541Y-91586529D01*
X215262532Y-91697952D01*
X215468425Y-91783238D01*
X215683674Y-91840912D01*
X215683691Y-91840915D01*
X215904611Y-91869999D01*
X215904617Y-91870000D01*
X216127465Y-91870000D01*
X216127470Y-91869999D01*
X216348390Y-91840915D01*
X216348407Y-91840912D01*
X216563656Y-91783238D01*
X216769549Y-91697952D01*
X216962540Y-91586529D01*
X216962541Y-91586529D01*
X217108464Y-91474556D01*
X217108465Y-91474556D01*
X216320784Y-90686875D01*
X216384449Y-90650119D01*
X216496160Y-90538408D01*
X216532916Y-90474743D01*
X217320597Y-91262424D01*
X217320597Y-91262423D01*
X217432570Y-91116500D01*
X217432570Y-91116499D01*
X217543993Y-90923508D01*
X217629279Y-90717615D01*
X217686953Y-90502366D01*
X217686956Y-90502349D01*
X217716040Y-90281429D01*
X217716041Y-90281424D01*
X217716041Y-90058576D01*
X217716040Y-90058570D01*
X217686956Y-89837650D01*
X217686953Y-89837633D01*
X217629279Y-89622384D01*
X217543993Y-89416491D01*
X217432570Y-89223500D01*
X217432570Y-89223499D01*
X217320597Y-89077574D01*
X216532916Y-89865255D01*
X216496160Y-89801592D01*
X216384449Y-89689881D01*
X216320783Y-89653123D01*
X217108465Y-88865442D01*
X216962540Y-88753470D01*
X216769549Y-88642047D01*
X216563656Y-88556761D01*
X216348407Y-88499087D01*
X216348390Y-88499084D01*
X216127470Y-88470000D01*
X215904611Y-88470000D01*
X215683691Y-88499084D01*
X215683674Y-88499087D01*
X215468425Y-88556761D01*
X215262532Y-88642047D01*
X215069546Y-88753467D01*
X214923615Y-88865442D01*
X215711297Y-89653124D01*
X215647633Y-89689881D01*
X215535922Y-89801592D01*
X215499165Y-89865256D01*
X214711483Y-89077575D01*
X214599508Y-89223505D01*
X214488088Y-89416491D01*
X214402802Y-89622384D01*
X214345128Y-89837633D01*
X214345125Y-89837650D01*
X214316041Y-90058570D01*
X210216541Y-90058570D01*
X210216541Y-89169992D01*
X210206040Y-89067203D01*
X210150855Y-88900666D01*
X210058752Y-88751345D01*
X210058750Y-88751343D01*
X210058749Y-88751341D01*
X210053368Y-88744535D01*
X210054780Y-88743418D01*
X210021618Y-88685980D01*
X210016541Y-88647416D01*
X210016541Y-84397953D01*
X210016541Y-84397949D01*
X209979594Y-84164673D01*
X209906609Y-83940049D01*
X209851107Y-83831120D01*
X209834459Y-83798445D01*
X209834443Y-83798416D01*
X209827255Y-83784308D01*
X209799384Y-83729607D01*
X209720743Y-83621368D01*
X209660563Y-83538537D01*
X209660560Y-83538534D01*
X209660558Y-83538531D01*
X208814141Y-82692114D01*
X208775577Y-82625319D01*
X208770500Y-82586755D01*
X208770500Y-77963245D01*
X208790462Y-77888745D01*
X208814141Y-77857886D01*
X209477886Y-77194141D01*
X209544681Y-77155577D01*
X209583245Y-77150500D01*
X210652296Y-77150500D01*
X210726796Y-77170462D01*
X210781334Y-77225000D01*
X210801296Y-77299500D01*
X210781334Y-77374000D01*
X210726796Y-77428538D01*
X210675604Y-77446666D01*
X210515583Y-77472010D01*
X210320979Y-77535241D01*
X210320967Y-77535246D01*
X210138650Y-77628141D01*
X210138643Y-77628145D01*
X210012167Y-77720034D01*
X210012167Y-77720035D01*
X210661665Y-78369533D01*
X210574394Y-78419920D01*
X210499920Y-78494394D01*
X210449533Y-78581665D01*
X209800035Y-77932167D01*
X209800034Y-77932167D01*
X209708145Y-78058643D01*
X209708141Y-78058650D01*
X209615246Y-78240967D01*
X209615241Y-78240979D01*
X209552010Y-78435583D01*
X209520000Y-78637692D01*
X209520000Y-78842307D01*
X209552010Y-79044416D01*
X209615241Y-79239020D01*
X209615246Y-79239032D01*
X209708145Y-79421357D01*
X209800033Y-79547831D01*
X209800035Y-79547831D01*
X210449533Y-78898332D01*
X210499920Y-78985606D01*
X210574394Y-79060080D01*
X210661665Y-79110466D01*
X210012167Y-79759963D01*
X210012167Y-79759965D01*
X210138642Y-79851854D01*
X210320967Y-79944753D01*
X210320979Y-79944758D01*
X210515583Y-80007989D01*
X210717693Y-80040000D01*
X210922307Y-80040000D01*
X211124416Y-80007989D01*
X211319020Y-79944758D01*
X211319038Y-79944751D01*
X211501345Y-79851861D01*
X211501350Y-79851858D01*
X211627831Y-79759964D01*
X211627831Y-79759963D01*
X210978334Y-79110466D01*
X211065606Y-79060080D01*
X211140080Y-78985606D01*
X211190466Y-78898334D01*
X211839963Y-79547831D01*
X211839964Y-79547831D01*
X211931858Y-79421350D01*
X211931861Y-79421345D01*
X212024751Y-79239038D01*
X212024758Y-79239020D01*
X212087989Y-79044416D01*
X212120000Y-78842307D01*
X212120000Y-78637692D01*
X212087989Y-78435583D01*
X212024758Y-78240979D01*
X212024753Y-78240967D01*
X211931854Y-78058642D01*
X211839965Y-77932167D01*
X211839963Y-77932167D01*
X211190465Y-78581665D01*
X211140080Y-78494394D01*
X211065606Y-78419920D01*
X210978332Y-78369533D01*
X211627831Y-77720035D01*
X211627831Y-77720033D01*
X211501357Y-77628145D01*
X211319032Y-77535246D01*
X211319020Y-77535241D01*
X211124416Y-77472010D01*
X210964396Y-77446666D01*
X210893936Y-77415295D01*
X210848601Y-77352897D01*
X210840538Y-77276192D01*
X210871909Y-77205732D01*
X210934307Y-77160397D01*
X210987704Y-77150500D01*
X214146755Y-77150500D01*
X214165703Y-77155577D01*
X214185319Y-77155577D01*
X214202306Y-77165384D01*
X214221255Y-77170462D01*
X214252114Y-77194141D01*
X214259707Y-77201734D01*
X214298271Y-77268529D01*
X214298271Y-77345657D01*
X214259707Y-77412452D01*
X214192912Y-77451016D01*
X214177657Y-77454258D01*
X214065593Y-77472007D01*
X214065584Y-77472009D01*
X213870979Y-77535241D01*
X213870967Y-77535246D01*
X213688650Y-77628141D01*
X213688643Y-77628145D01*
X213562167Y-77720034D01*
X213562167Y-77720035D01*
X214211665Y-78369533D01*
X214124394Y-78419920D01*
X214049920Y-78494394D01*
X213999533Y-78581665D01*
X213350035Y-77932167D01*
X213350034Y-77932167D01*
X213258145Y-78058643D01*
X213258141Y-78058650D01*
X213165246Y-78240967D01*
X213165241Y-78240979D01*
X213102010Y-78435583D01*
X213070000Y-78637692D01*
X213070000Y-78842307D01*
X213102010Y-79044416D01*
X213165241Y-79239020D01*
X213165246Y-79239032D01*
X213258145Y-79421357D01*
X213350033Y-79547831D01*
X213350035Y-79547831D01*
X213999533Y-78898332D01*
X214049920Y-78985606D01*
X214124394Y-79060080D01*
X214211665Y-79110466D01*
X213562167Y-79759963D01*
X213562167Y-79759965D01*
X213688642Y-79851854D01*
X213870967Y-79944753D01*
X213870979Y-79944758D01*
X214065583Y-80007989D01*
X214267693Y-80040000D01*
X214472307Y-80040000D01*
X214674416Y-80007989D01*
X214869020Y-79944758D01*
X214869038Y-79944751D01*
X215051345Y-79851861D01*
X215051350Y-79851858D01*
X215177831Y-79759964D01*
X215177831Y-79759963D01*
X214528334Y-79110466D01*
X214615606Y-79060080D01*
X214690080Y-78985606D01*
X214740466Y-78898334D01*
X215389963Y-79547831D01*
X215389964Y-79547831D01*
X215481858Y-79421350D01*
X215481861Y-79421345D01*
X215574751Y-79239038D01*
X215574758Y-79239020D01*
X215637989Y-79044416D01*
X215655740Y-78932343D01*
X215687111Y-78861883D01*
X215749508Y-78816548D01*
X215826214Y-78808485D01*
X215896674Y-78839856D01*
X215908265Y-78850292D01*
X216701648Y-79643675D01*
X216723105Y-79670813D01*
X216777286Y-79758654D01*
X216777288Y-79758656D01*
X216901344Y-79882712D01*
X217050666Y-79974814D01*
X217050668Y-79974815D01*
X217058300Y-79977344D01*
X217099013Y-79998238D01*
X217133567Y-80023343D01*
X217344008Y-80130568D01*
X217568632Y-80203553D01*
X217801908Y-80240500D01*
X217801913Y-80240500D01*
X218038087Y-80240500D01*
X218038092Y-80240500D01*
X218271368Y-80203553D01*
X218495992Y-80130568D01*
X218706434Y-80023343D01*
X218740990Y-79998235D01*
X218781703Y-79977342D01*
X218789334Y-79974814D01*
X218938656Y-79882712D01*
X219062712Y-79758656D01*
X219154814Y-79609334D01*
X219157342Y-79601703D01*
X219178235Y-79560990D01*
X219203343Y-79526434D01*
X219310568Y-79315992D01*
X219383553Y-79091368D01*
X219420500Y-78858092D01*
X219420500Y-78621908D01*
X219383553Y-78388632D01*
X219310568Y-78164008D01*
X219203343Y-77953567D01*
X219178238Y-77919013D01*
X219157344Y-77878300D01*
X219154815Y-77870668D01*
X219062711Y-77721343D01*
X218938654Y-77597286D01*
X218850813Y-77543105D01*
X218823675Y-77521648D01*
X217604517Y-76302490D01*
X215807510Y-74505483D01*
X215807506Y-74505480D01*
X215807503Y-74505477D01*
X215616435Y-74366658D01*
X215616434Y-74366657D01*
X215405992Y-74259432D01*
X215181368Y-74186447D01*
X214948092Y-74149500D01*
X209018092Y-74149500D01*
X208781908Y-74149500D01*
X208548631Y-74186447D01*
X208408718Y-74231908D01*
X208324008Y-74259432D01*
X208324003Y-74259434D01*
X208323997Y-74259437D01*
X208113569Y-74366655D01*
X208113564Y-74366658D01*
X207922496Y-74505477D01*
X206125477Y-76302496D01*
X205986662Y-76493558D01*
X205986658Y-76493565D01*
X205905307Y-76653226D01*
X205905306Y-76653227D01*
X205879433Y-76704003D01*
X205815114Y-76901957D01*
X205806447Y-76928632D01*
X205769500Y-77161908D01*
X205769500Y-78621908D01*
X205769500Y-83151908D01*
X205769500Y-83388092D01*
X205806447Y-83621368D01*
X205879432Y-83845992D01*
X205879436Y-83846001D01*
X205879437Y-83846002D01*
X205986655Y-84056430D01*
X205986658Y-84056435D01*
X206125477Y-84247503D01*
X206125480Y-84247506D01*
X206125483Y-84247510D01*
X206971901Y-85093928D01*
X207010464Y-85160721D01*
X207015541Y-85199285D01*
X207015541Y-88647416D01*
X206995579Y-88721916D01*
X206978408Y-88744293D01*
X206978714Y-88744535D01*
X206973332Y-88751341D01*
X206881228Y-88900663D01*
X206826042Y-89067201D01*
X206815541Y-89169996D01*
X206815541Y-89686754D01*
X206795579Y-89761254D01*
X206771900Y-89792113D01*
X196635477Y-99928537D01*
X196496658Y-100119605D01*
X196496655Y-100119610D01*
X196389437Y-100330038D01*
X196389434Y-100330044D01*
X196389432Y-100330049D01*
X196316447Y-100554673D01*
X196279500Y-100787949D01*
X196279500Y-100787953D01*
X196279500Y-106410363D01*
X196279502Y-106410388D01*
X196285908Y-106469978D01*
X196285909Y-106469984D01*
X196336202Y-106604829D01*
X196336204Y-106604833D01*
X196422452Y-106720044D01*
X196422455Y-106720047D01*
X196537666Y-106806295D01*
X196547023Y-106811404D01*
X196546082Y-106813126D01*
X196598025Y-106850115D01*
X196630063Y-106920274D01*
X196622730Y-106997053D01*
X196603670Y-107032560D01*
X196490212Y-107188721D01*
X196490209Y-107188727D01*
X196386421Y-107392423D01*
X196386414Y-107392440D01*
X196315766Y-107609871D01*
X196285653Y-107800000D01*
X197250791Y-107800000D01*
X197230000Y-107877591D01*
X197230000Y-108022409D01*
X197250791Y-108100000D01*
X196285653Y-108100000D01*
X196315766Y-108290128D01*
X196386414Y-108507559D01*
X196386421Y-108507576D01*
X196490209Y-108711272D01*
X196490212Y-108711277D01*
X196624592Y-108896236D01*
X196786262Y-109057906D01*
X196826368Y-109087044D01*
X196874907Y-109146984D01*
X196886973Y-109223162D01*
X196859334Y-109295168D01*
X196826372Y-109328130D01*
X196802496Y-109345477D01*
X196635477Y-109512496D01*
X196496658Y-109703564D01*
X196496655Y-109703569D01*
X196389437Y-109913997D01*
X196389434Y-109914003D01*
X196389432Y-109914008D01*
X196316447Y-110138632D01*
X196279500Y-110371908D01*
X196279500Y-110608092D01*
X196316447Y-110841368D01*
X196389432Y-111065992D01*
X196389436Y-111066001D01*
X196389437Y-111066002D01*
X196496655Y-111276430D01*
X196496658Y-111276435D01*
X196635477Y-111467503D01*
X196635480Y-111467506D01*
X196635483Y-111467510D01*
X201891901Y-116723928D01*
X201930464Y-116790721D01*
X201935541Y-116829285D01*
X201935541Y-122810500D01*
X201915579Y-122885000D01*
X201861041Y-122939538D01*
X201786541Y-122959500D01*
X197758092Y-122959500D01*
X197521908Y-122959500D01*
X197288632Y-122996447D01*
X197076670Y-123065318D01*
X197064008Y-123069432D01*
X197064003Y-123069434D01*
X197063997Y-123069437D01*
X196853569Y-123176655D01*
X196853564Y-123176658D01*
X196662496Y-123315477D01*
X187295029Y-132682943D01*
X187228234Y-132721507D01*
X187151106Y-132721507D01*
X187084311Y-132682943D01*
X180414140Y-126012772D01*
X180375576Y-125945977D01*
X180370499Y-125907413D01*
X180370499Y-125129996D01*
X180370499Y-125129992D01*
X180359999Y-125027203D01*
X180304814Y-124860666D01*
X180212712Y-124711344D01*
X180088656Y-124587288D01*
X179939334Y-124495186D01*
X179833147Y-124459999D01*
X179772798Y-124440001D01*
X179755665Y-124438250D01*
X179670009Y-124429500D01*
X179670004Y-124429500D01*
X178469996Y-124429500D01*
X178367202Y-124440001D01*
X178200666Y-124495186D01*
X178051343Y-124587288D01*
X177927288Y-124711343D01*
X177835186Y-124860666D01*
X177780001Y-125027201D01*
X177769500Y-125129995D01*
X177769500Y-126330003D01*
X177769501Y-126330008D01*
X177780001Y-126432797D01*
X177835186Y-126599334D01*
X177927288Y-126748656D01*
X178051344Y-126872712D01*
X178200666Y-126964814D01*
X178367203Y-127019999D01*
X178469991Y-127030500D01*
X179247413Y-127030499D01*
X179321913Y-127050461D01*
X179352772Y-127074140D01*
X186022943Y-133744311D01*
X186061507Y-133811106D01*
X186061507Y-133888234D01*
X186022943Y-133955029D01*
X179712114Y-140265859D01*
X179645319Y-140304423D01*
X179606755Y-140309500D01*
X175958998Y-140309500D01*
X175884498Y-140289538D01*
X175829960Y-140235000D01*
X175809998Y-140160500D01*
X175829960Y-140086000D01*
X175838454Y-140072920D01*
X175862036Y-140040462D01*
X175907551Y-139977816D01*
X176004057Y-139788412D01*
X176069746Y-139586243D01*
X176103000Y-139376287D01*
X176103000Y-139163713D01*
X176069746Y-138953757D01*
X176004057Y-138751588D01*
X175907551Y-138562184D01*
X175782604Y-138390208D01*
X175632292Y-138239896D01*
X175468017Y-138120544D01*
X175419479Y-138060604D01*
X175407413Y-137984426D01*
X175435053Y-137912420D01*
X175468017Y-137879456D01*
X175490946Y-137862797D01*
X175632292Y-137760104D01*
X175782604Y-137609792D01*
X175907551Y-137437816D01*
X176004057Y-137248412D01*
X176069746Y-137046243D01*
X176103000Y-136836287D01*
X176103000Y-136623713D01*
X176069746Y-136413757D01*
X176004057Y-136211588D01*
X175907551Y-136022184D01*
X175782604Y-135850208D01*
X175632292Y-135699896D01*
X175467589Y-135580233D01*
X175419052Y-135520294D01*
X175406986Y-135444116D01*
X175434626Y-135372110D01*
X175467590Y-135339146D01*
X175596126Y-135245758D01*
X174984038Y-134633670D01*
X175059507Y-134590099D01*
X175152599Y-134497007D01*
X175196170Y-134421538D01*
X175808259Y-135033627D01*
X175808259Y-135033626D01*
X175907121Y-134897555D01*
X175907122Y-134897555D01*
X176003593Y-134708220D01*
X176069257Y-134506128D01*
X176102500Y-134296242D01*
X176102500Y-134083757D01*
X176069257Y-133873871D01*
X176003593Y-133671779D01*
X175907121Y-133482444D01*
X175808258Y-133346372D01*
X175196170Y-133958460D01*
X175152599Y-133882993D01*
X175059507Y-133789901D01*
X174984037Y-133746328D01*
X175596126Y-133134240D01*
X175460051Y-133035375D01*
X175270720Y-132938906D01*
X175068628Y-132873242D01*
X174858742Y-132840000D01*
X174646258Y-132840000D01*
X174436371Y-132873242D01*
X174234279Y-132938906D01*
X174044944Y-133035378D01*
X174044943Y-133035378D01*
X173908872Y-133134239D01*
X173908872Y-133134240D01*
X174520961Y-133746329D01*
X174445493Y-133789901D01*
X174352401Y-133882993D01*
X174308829Y-133958461D01*
X173696740Y-133346372D01*
X173696738Y-133346372D01*
X173603042Y-133475334D01*
X173543102Y-133523872D01*
X173466924Y-133535938D01*
X173394919Y-133508297D01*
X173361956Y-133475334D01*
X173268259Y-133346372D01*
X173268258Y-133346372D01*
X172656170Y-133958460D01*
X172612599Y-133882993D01*
X172519507Y-133789901D01*
X172444037Y-133746328D01*
X173056126Y-133134240D01*
X172920051Y-133035375D01*
X172730720Y-132938906D01*
X172528628Y-132873242D01*
X172318742Y-132840000D01*
X172106258Y-132840000D01*
X171896371Y-132873242D01*
X171694279Y-132938906D01*
X171504944Y-133035378D01*
X171504943Y-133035378D01*
X171368872Y-133134239D01*
X171368872Y-133134240D01*
X171980961Y-133746329D01*
X171905493Y-133789901D01*
X171812401Y-133882993D01*
X171768829Y-133958461D01*
X171156740Y-133346372D01*
X171156739Y-133346372D01*
X171057878Y-133482443D01*
X171057878Y-133482444D01*
X170961406Y-133671779D01*
X170895742Y-133873871D01*
X170862500Y-134083757D01*
X170862500Y-134296242D01*
X170895742Y-134506128D01*
X170961406Y-134708220D01*
X171057875Y-134897551D01*
X171156740Y-135033626D01*
X171768828Y-134421537D01*
X171812401Y-134497007D01*
X171905493Y-134590099D01*
X171980960Y-134633670D01*
X171368872Y-135245758D01*
X171368872Y-135245759D01*
X171497409Y-135339147D01*
X171545947Y-135399087D01*
X171558013Y-135475265D01*
X171530372Y-135547270D01*
X171497409Y-135580234D01*
X171332709Y-135699895D01*
X171332706Y-135699897D01*
X171182397Y-135850206D01*
X171182395Y-135850209D01*
X171057450Y-136022181D01*
X171057450Y-136022182D01*
X170960946Y-136211582D01*
X170960941Y-136211594D01*
X170901474Y-136394615D01*
X170895254Y-136413757D01*
X170862000Y-136623713D01*
X170862000Y-136836287D01*
X170895254Y-137046243D01*
X170960943Y-137248412D01*
X171049707Y-137422622D01*
X171057450Y-137437817D01*
X171057450Y-137437818D01*
X171089664Y-137482157D01*
X171182396Y-137609792D01*
X171332708Y-137760104D01*
X171411344Y-137817236D01*
X171496982Y-137879456D01*
X171545520Y-137939396D01*
X171557586Y-138015575D01*
X171529946Y-138087580D01*
X171496982Y-138120544D01*
X171332709Y-138239895D01*
X171332706Y-138239897D01*
X171182397Y-138390206D01*
X171182390Y-138390214D01*
X171133085Y-138458079D01*
X171073146Y-138506618D01*
X171012541Y-138519500D01*
X155231586Y-138519500D01*
X155157086Y-138499538D01*
X155102548Y-138445000D01*
X155082586Y-138370500D01*
X155102548Y-138296000D01*
X155126227Y-138265141D01*
X155151473Y-138239895D01*
X155212712Y-138178656D01*
X155304814Y-138029334D01*
X155310349Y-138012630D01*
X155352731Y-137948193D01*
X155421655Y-137913578D01*
X155451785Y-137910500D01*
X156163914Y-137910500D01*
X156163917Y-137910500D01*
X156163918Y-137910500D01*
X156308913Y-137881658D01*
X156445495Y-137825084D01*
X156494729Y-137792186D01*
X156568416Y-137742952D01*
X159232952Y-135078416D01*
X159301718Y-134975498D01*
X159301720Y-134975496D01*
X159315082Y-134955498D01*
X159315082Y-134955497D01*
X159315084Y-134955495D01*
X159349793Y-134871700D01*
X159364401Y-134836435D01*
X159371657Y-134818916D01*
X159371659Y-134818912D01*
X159400500Y-134673917D01*
X159400500Y-134526082D01*
X159400500Y-129301950D01*
X163600000Y-129301950D01*
X163600000Y-129538049D01*
X163636934Y-129771250D01*
X163709894Y-129995793D01*
X163709898Y-129995805D01*
X163817086Y-130206171D01*
X163817086Y-130206172D01*
X163936851Y-130371015D01*
X164656328Y-129651537D01*
X164699901Y-129727007D01*
X164792993Y-129820099D01*
X164868461Y-129863670D01*
X164148983Y-130583147D01*
X164148983Y-130583148D01*
X164313826Y-130702913D01*
X164313832Y-130702916D01*
X164524189Y-130810098D01*
X164524206Y-130810105D01*
X164748749Y-130883065D01*
X164981951Y-130920000D01*
X165218049Y-130920000D01*
X165451250Y-130883065D01*
X165675793Y-130810105D01*
X165675810Y-130810098D01*
X165886167Y-130702916D01*
X165886181Y-130702908D01*
X166051015Y-130583149D01*
X166051015Y-130583147D01*
X165331538Y-129863670D01*
X165407007Y-129820099D01*
X165500099Y-129727007D01*
X165543670Y-129651538D01*
X166263147Y-130371015D01*
X166263149Y-130371015D01*
X166382908Y-130206181D01*
X166382916Y-130206167D01*
X166490098Y-129995810D01*
X166490105Y-129995793D01*
X166563065Y-129771250D01*
X166600000Y-129538049D01*
X166600000Y-129301950D01*
X166563065Y-129068749D01*
X166490105Y-128844206D01*
X166490098Y-128844189D01*
X166382916Y-128633832D01*
X166382913Y-128633826D01*
X166263147Y-128468983D01*
X165543670Y-129188460D01*
X165500099Y-129112993D01*
X165407007Y-129019901D01*
X165331537Y-128976328D01*
X166051015Y-128256851D01*
X165886171Y-128137086D01*
X165675805Y-128029898D01*
X165675793Y-128029894D01*
X165451250Y-127956934D01*
X165218049Y-127920000D01*
X164981951Y-127920000D01*
X164748749Y-127956934D01*
X164524206Y-128029894D01*
X164524194Y-128029898D01*
X164313828Y-128137086D01*
X164313821Y-128137090D01*
X164148983Y-128256850D01*
X164148983Y-128256851D01*
X164868461Y-128976329D01*
X164792993Y-129019901D01*
X164699901Y-129112993D01*
X164656329Y-129188461D01*
X163936851Y-128468983D01*
X163936850Y-128468983D01*
X163817090Y-128633821D01*
X163817086Y-128633828D01*
X163709898Y-128844194D01*
X163709894Y-128844206D01*
X163636934Y-129068749D01*
X163600000Y-129301950D01*
X159400500Y-129301950D01*
X159400500Y-128742584D01*
X159420462Y-128668084D01*
X159444137Y-128637229D01*
X164651080Y-123430285D01*
X164717873Y-123391723D01*
X164779741Y-123388480D01*
X164981908Y-123420500D01*
X164981914Y-123420500D01*
X165218087Y-123420500D01*
X165218092Y-123420500D01*
X165451368Y-123383553D01*
X165675992Y-123310568D01*
X165886433Y-123203343D01*
X166077510Y-123064517D01*
X166244517Y-122897510D01*
X166364826Y-122731920D01*
X166424766Y-122683382D01*
X166485369Y-122670500D01*
X167771844Y-122670500D01*
X167846344Y-122690462D01*
X167892387Y-122731919D01*
X167918034Y-122767219D01*
X168062781Y-122911966D01*
X168098079Y-122937611D01*
X168146617Y-122997547D01*
X168159500Y-123058154D01*
X168159500Y-124591844D01*
X168139538Y-124666344D01*
X168098080Y-124712388D01*
X168062782Y-124738033D01*
X168062779Y-124738035D01*
X167918035Y-124882779D01*
X167918028Y-124882787D01*
X167797714Y-125048387D01*
X167704782Y-125230775D01*
X167704778Y-125230787D01*
X167647686Y-125406499D01*
X167641523Y-125425466D01*
X167609500Y-125627648D01*
X167609500Y-125832352D01*
X167641523Y-126034534D01*
X167682289Y-126160000D01*
X167704778Y-126229212D01*
X167704782Y-126229224D01*
X167797714Y-126411612D01*
X167918028Y-126577212D01*
X167918035Y-126577220D01*
X168062779Y-126721964D01*
X168062787Y-126721971D01*
X168228387Y-126842285D01*
X168228390Y-126842287D01*
X168410781Y-126935220D01*
X168605466Y-126998477D01*
X168807648Y-127030500D01*
X168807653Y-127030500D01*
X169012347Y-127030500D01*
X169012352Y-127030500D01*
X169214534Y-126998477D01*
X169409219Y-126935220D01*
X169591610Y-126842287D01*
X169757219Y-126721966D01*
X169901966Y-126577219D01*
X170022287Y-126411610D01*
X170115220Y-126229219D01*
X170178477Y-126034534D01*
X170210500Y-125832352D01*
X170210500Y-125627648D01*
X170178477Y-125425466D01*
X170115220Y-125230781D01*
X170022287Y-125048390D01*
X170006893Y-125027202D01*
X169901971Y-124882787D01*
X169901964Y-124882779D01*
X169757220Y-124738035D01*
X169757219Y-124738034D01*
X169721919Y-124712387D01*
X169673382Y-124652448D01*
X169660500Y-124591844D01*
X169660500Y-123058154D01*
X169680462Y-122983654D01*
X169721919Y-122937612D01*
X169757219Y-122911966D01*
X169901966Y-122767219D01*
X170022287Y-122601610D01*
X170115220Y-122419219D01*
X170178477Y-122224534D01*
X170210500Y-122022352D01*
X170210500Y-121817648D01*
X177769500Y-121817648D01*
X177769500Y-122022352D01*
X177801523Y-122224534D01*
X177864719Y-122419032D01*
X177864778Y-122419212D01*
X177864782Y-122419224D01*
X177957714Y-122601612D01*
X178078028Y-122767212D01*
X178078035Y-122767220D01*
X178222779Y-122911964D01*
X178222787Y-122911971D01*
X178388387Y-123032285D01*
X178388390Y-123032287D01*
X178570781Y-123125220D01*
X178765466Y-123188477D01*
X178967648Y-123220500D01*
X178967653Y-123220500D01*
X179172347Y-123220500D01*
X179172352Y-123220500D01*
X179374534Y-123188477D01*
X179569219Y-123125220D01*
X179751610Y-123032287D01*
X179917219Y-122911966D01*
X180061966Y-122767219D01*
X180087612Y-122731919D01*
X180147552Y-122683382D01*
X180208156Y-122670500D01*
X184753914Y-122670500D01*
X184753917Y-122670500D01*
X184753918Y-122670500D01*
X184898913Y-122641658D01*
X185035495Y-122585084D01*
X185084729Y-122552186D01*
X185158416Y-122502952D01*
X194082952Y-113578415D01*
X194110205Y-113537627D01*
X194165084Y-113455495D01*
X194188518Y-113398920D01*
X194221659Y-113318912D01*
X194250500Y-113173917D01*
X194250500Y-113026082D01*
X194250500Y-85654016D01*
X194270462Y-85579516D01*
X194325000Y-85524978D01*
X194342478Y-85516358D01*
X194386697Y-85498043D01*
X194613803Y-85366924D01*
X194821848Y-85207284D01*
X194821849Y-85207284D01*
X195007284Y-85021849D01*
X195007284Y-85021848D01*
X195166921Y-84813807D01*
X195166921Y-84813806D01*
X195166924Y-84813803D01*
X195298043Y-84586697D01*
X195398398Y-84344419D01*
X195466270Y-84091116D01*
X195466271Y-84091110D01*
X195466272Y-84091105D01*
X195495352Y-83870219D01*
X195524867Y-83798962D01*
X195537710Y-83784316D01*
X198894518Y-80427510D01*
X199033343Y-80236433D01*
X199140568Y-80025992D01*
X199213553Y-79801368D01*
X199250500Y-79568092D01*
X199250500Y-79331908D01*
X199250500Y-73633245D01*
X199270462Y-73558745D01*
X199294141Y-73527886D01*
X202697886Y-70124141D01*
X202764681Y-70085577D01*
X202803245Y-70080500D01*
X210938087Y-70080500D01*
X210938092Y-70080500D01*
X211171368Y-70043553D01*
X211395992Y-69970568D01*
X211606433Y-69863343D01*
X211640989Y-69838235D01*
X211681703Y-69817342D01*
X211689334Y-69814814D01*
X211838656Y-69722712D01*
X211962712Y-69598656D01*
X212054814Y-69449334D01*
X212057342Y-69441703D01*
X212078235Y-69400989D01*
X212103343Y-69366433D01*
X212210568Y-69155992D01*
X212283553Y-68931368D01*
X212320500Y-68698092D01*
X212320500Y-68461908D01*
X212283553Y-68228632D01*
X212210568Y-68004008D01*
X212103343Y-67793567D01*
X212078238Y-67759013D01*
X212057344Y-67718300D01*
X212054815Y-67710668D01*
X211988091Y-67602490D01*
X211962712Y-67561344D01*
X211838656Y-67437288D01*
X211689334Y-67345186D01*
X211689331Y-67345185D01*
X211681694Y-67342654D01*
X211640990Y-67321763D01*
X211606441Y-67296662D01*
X211606434Y-67296658D01*
X211606435Y-67296658D01*
X211606433Y-67296657D01*
X211395992Y-67189432D01*
X211171368Y-67116447D01*
X210938092Y-67079500D01*
X207388092Y-67079500D01*
X202001908Y-67079500D01*
X201768632Y-67116447D01*
X201583624Y-67176560D01*
X201544008Y-67189432D01*
X201544003Y-67189434D01*
X201543997Y-67189437D01*
X201333569Y-67296655D01*
X201333564Y-67296658D01*
X201142496Y-67435477D01*
X197855359Y-70722613D01*
X197788564Y-70761177D01*
X197711436Y-70761177D01*
X197644641Y-70722613D01*
X195537718Y-68615690D01*
X195499154Y-68548895D01*
X195495352Y-68529779D01*
X195466272Y-68308894D01*
X195466271Y-68308889D01*
X195444766Y-68228632D01*
X195398398Y-68055581D01*
X195298043Y-67813303D01*
X195166924Y-67586197D01*
X195166921Y-67586193D01*
X195166921Y-67586192D01*
X195007284Y-67378151D01*
X194821848Y-67192715D01*
X194613806Y-67033078D01*
X194565173Y-67005000D01*
X194508401Y-66972223D01*
X194386701Y-66901959D01*
X194386699Y-66901958D01*
X194386697Y-66901957D01*
X194311154Y-66870666D01*
X194144416Y-66801600D01*
X193918255Y-66741002D01*
X193891116Y-66733730D01*
X193891114Y-66733729D01*
X193891108Y-66733728D01*
X193631123Y-66699500D01*
X193631120Y-66699500D01*
X193368880Y-66699500D01*
X193368876Y-66699500D01*
X193108892Y-66733728D01*
X193108889Y-66733728D01*
X192934876Y-66780354D01*
X192857748Y-66780354D01*
X192790953Y-66741789D01*
X192752390Y-66674994D01*
X192752390Y-66597866D01*
X192790952Y-66531074D01*
X193584310Y-65737716D01*
X193651103Y-65699154D01*
X193670213Y-65695353D01*
X193761286Y-65683362D01*
X193891105Y-65666272D01*
X193891110Y-65666271D01*
X193891111Y-65666270D01*
X193891116Y-65666270D01*
X194144415Y-65598399D01*
X194144416Y-65598399D01*
X194144417Y-65598398D01*
X194144419Y-65598398D01*
X194386697Y-65498043D01*
X194613803Y-65366924D01*
X194613807Y-65366921D01*
X194790563Y-65231291D01*
X194861820Y-65201775D01*
X194881269Y-65200500D01*
X211266755Y-65200500D01*
X211341255Y-65220462D01*
X211372114Y-65244141D01*
X212825859Y-66697886D01*
X212864423Y-66764681D01*
X212869500Y-66803245D01*
X212869500Y-68698092D01*
X212906447Y-68931368D01*
X212979432Y-69155992D01*
X213075440Y-69344419D01*
X213086658Y-69366434D01*
X213086662Y-69366441D01*
X213111763Y-69400990D01*
X213132654Y-69441694D01*
X213135186Y-69449334D01*
X213227288Y-69598656D01*
X213351344Y-69722712D01*
X213500666Y-69814814D01*
X213500668Y-69814815D01*
X213508300Y-69817344D01*
X213549013Y-69838238D01*
X213555606Y-69843028D01*
X213583567Y-69863343D01*
X213794008Y-69970568D01*
X214018632Y-70043553D01*
X214251908Y-70080500D01*
X214251913Y-70080500D01*
X218038087Y-70080500D01*
X218038092Y-70080500D01*
X218271368Y-70043553D01*
X218495992Y-69970568D01*
X218706433Y-69863343D01*
X218897510Y-69724517D01*
X219064517Y-69557510D01*
X219203343Y-69366433D01*
X219310568Y-69155992D01*
X219383553Y-68931368D01*
X219420500Y-68698092D01*
X219420500Y-68461908D01*
X219383553Y-68228632D01*
X219310568Y-68004008D01*
X219203343Y-67793567D01*
X219064517Y-67602490D01*
X218897510Y-67435483D01*
X218706433Y-67296657D01*
X218495992Y-67189432D01*
X218271368Y-67116447D01*
X218038092Y-67079500D01*
X218038087Y-67079500D01*
X216019500Y-67079500D01*
X215945000Y-67059538D01*
X215890462Y-67005000D01*
X215870500Y-66930500D01*
X215870500Y-66001912D01*
X215870500Y-66001908D01*
X215833553Y-65768632D01*
X215760568Y-65544008D01*
X215653343Y-65333567D01*
X215593622Y-65251368D01*
X215514518Y-65142490D01*
X212927510Y-62555483D01*
X212927506Y-62555480D01*
X212927503Y-62555477D01*
X212736435Y-62416658D01*
X212736434Y-62416657D01*
X212525992Y-62309432D01*
X212301368Y-62236447D01*
X212068092Y-62199500D01*
X212068087Y-62199500D01*
X194881269Y-62199500D01*
X194806769Y-62179538D01*
X194790563Y-62168709D01*
X194613806Y-62033078D01*
X194386701Y-61901959D01*
X194386699Y-61901958D01*
X194386697Y-61901957D01*
X194311154Y-61870666D01*
X194144416Y-61801600D01*
X193918255Y-61741002D01*
X193891116Y-61733730D01*
X193891114Y-61733729D01*
X193891108Y-61733728D01*
X193631123Y-61699500D01*
X193631120Y-61699500D01*
X193368880Y-61699500D01*
X193368876Y-61699500D01*
X193108892Y-61733728D01*
X193108889Y-61733728D01*
X192855584Y-61801600D01*
X192855583Y-61801600D01*
X192613298Y-61901959D01*
X192386193Y-62033078D01*
X192386192Y-62033078D01*
X192178151Y-62192715D01*
X192178151Y-62192716D01*
X192178149Y-62192718D01*
X191992718Y-62378149D01*
X191992716Y-62378151D01*
X191992715Y-62378151D01*
X191833078Y-62586192D01*
X191833078Y-62586193D01*
X191701959Y-62813298D01*
X191601600Y-63055583D01*
X191601600Y-63055584D01*
X191533728Y-63308889D01*
X191533728Y-63308892D01*
X191504647Y-63529781D01*
X191475131Y-63601038D01*
X191462281Y-63615691D01*
X188005477Y-67072496D01*
X187866662Y-67263558D01*
X187866659Y-67263563D01*
X187866657Y-67263566D01*
X187825070Y-67345186D01*
X187788654Y-67416657D01*
X187759432Y-67474005D01*
X187686447Y-67698632D01*
X187649500Y-67931908D01*
X187649500Y-74231908D01*
X187649500Y-74468092D01*
X187686447Y-74701368D01*
X187759432Y-74925992D01*
X187759436Y-74926001D01*
X187759437Y-74926002D01*
X187866655Y-75136430D01*
X187866658Y-75136435D01*
X188005477Y-75327503D01*
X188005480Y-75327506D01*
X188005483Y-75327510D01*
X189828473Y-77150500D01*
X191462281Y-78784308D01*
X191500845Y-78851103D01*
X191504647Y-78870218D01*
X191533728Y-79091107D01*
X191533728Y-79091110D01*
X191601600Y-79344415D01*
X191601600Y-79344416D01*
X191644344Y-79447608D01*
X191694248Y-79568087D01*
X191701959Y-79586701D01*
X191833078Y-79813806D01*
X191833078Y-79813807D01*
X191992715Y-80021848D01*
X192178151Y-80207284D01*
X192221439Y-80240500D01*
X192386197Y-80366924D01*
X192613303Y-80498043D01*
X192817809Y-80582752D01*
X192855583Y-80598399D01*
X192934876Y-80619645D01*
X193108884Y-80666270D01*
X193108890Y-80666270D01*
X193108891Y-80666271D01*
X193145834Y-80671134D01*
X193368877Y-80700499D01*
X193368878Y-80700500D01*
X193368880Y-80700500D01*
X193631122Y-80700500D01*
X193631122Y-80700499D01*
X193891116Y-80666270D01*
X194065124Y-80619645D01*
X194142250Y-80619645D01*
X194209045Y-80658209D01*
X194247609Y-80725004D01*
X194247609Y-80802132D01*
X194209045Y-80868927D01*
X193415691Y-81662281D01*
X193348896Y-81700845D01*
X193329781Y-81704647D01*
X193108892Y-81733728D01*
X193108889Y-81733728D01*
X192855584Y-81801600D01*
X192855583Y-81801600D01*
X192613298Y-81901959D01*
X192386193Y-82033078D01*
X192386192Y-82033078D01*
X192178151Y-82192715D01*
X192178151Y-82192716D01*
X192178149Y-82192718D01*
X191992718Y-82378149D01*
X191992716Y-82378151D01*
X191992715Y-82378151D01*
X191833078Y-82586192D01*
X191833078Y-82586193D01*
X191701959Y-82813298D01*
X191601600Y-83055583D01*
X191601600Y-83055584D01*
X191533728Y-83308889D01*
X191533728Y-83308892D01*
X191499500Y-83568876D01*
X191499500Y-83831123D01*
X191533728Y-84091107D01*
X191533728Y-84091110D01*
X191601600Y-84344415D01*
X191601600Y-84344416D01*
X191701959Y-84586701D01*
X191833078Y-84813806D01*
X191833078Y-84813807D01*
X191992715Y-85021848D01*
X192178151Y-85207284D01*
X192386193Y-85366921D01*
X192386197Y-85366924D01*
X192613303Y-85498043D01*
X192657518Y-85516357D01*
X192718708Y-85563309D01*
X192748225Y-85634566D01*
X192749500Y-85654016D01*
X192749500Y-112727414D01*
X192729538Y-112801914D01*
X192705859Y-112832773D01*
X184412773Y-121125859D01*
X184345978Y-121164423D01*
X184307414Y-121169500D01*
X180208156Y-121169500D01*
X180133656Y-121149538D01*
X180087612Y-121108080D01*
X180061966Y-121072781D01*
X179917219Y-120928034D01*
X179917218Y-120928033D01*
X179917212Y-120928028D01*
X179751612Y-120807714D01*
X179569224Y-120714782D01*
X179569220Y-120714780D01*
X179569219Y-120714780D01*
X179374534Y-120651523D01*
X179172352Y-120619500D01*
X178967648Y-120619500D01*
X178799163Y-120646185D01*
X178765465Y-120651523D01*
X178570787Y-120714778D01*
X178570775Y-120714782D01*
X178388387Y-120807714D01*
X178222787Y-120928028D01*
X178222779Y-120928035D01*
X178078035Y-121072779D01*
X178078028Y-121072787D01*
X177957714Y-121238387D01*
X177864782Y-121420775D01*
X177864780Y-121420781D01*
X177801523Y-121615466D01*
X177769500Y-121817648D01*
X170210500Y-121817648D01*
X170178477Y-121615466D01*
X170115220Y-121420781D01*
X170022287Y-121238390D01*
X169972236Y-121169500D01*
X169901971Y-121072787D01*
X169901964Y-121072779D01*
X169757220Y-120928035D01*
X169757219Y-120928034D01*
X169721919Y-120902387D01*
X169673382Y-120842448D01*
X169660500Y-120781844D01*
X169660500Y-119491785D01*
X169680462Y-119417285D01*
X169735000Y-119362747D01*
X169762630Y-119350348D01*
X169779334Y-119344814D01*
X169928656Y-119252712D01*
X170052712Y-119128656D01*
X170144814Y-118979334D01*
X170199999Y-118812797D01*
X170210500Y-118710009D01*
X170210499Y-118007692D01*
X177770000Y-118007692D01*
X177770000Y-118212307D01*
X177802010Y-118414416D01*
X177865241Y-118609020D01*
X177865246Y-118609032D01*
X177958145Y-118791357D01*
X178050033Y-118917831D01*
X178050035Y-118917831D01*
X178699533Y-118268332D01*
X178749920Y-118355606D01*
X178824394Y-118430080D01*
X178911665Y-118480466D01*
X178262167Y-119129963D01*
X178262167Y-119129965D01*
X178388642Y-119221854D01*
X178570967Y-119314753D01*
X178570979Y-119314758D01*
X178765583Y-119377989D01*
X178967693Y-119410000D01*
X179172307Y-119410000D01*
X179374416Y-119377989D01*
X179569020Y-119314758D01*
X179569038Y-119314751D01*
X179751345Y-119221861D01*
X179751350Y-119221858D01*
X179877831Y-119129964D01*
X179877831Y-119129963D01*
X179228334Y-118480466D01*
X179315606Y-118430080D01*
X179390080Y-118355606D01*
X179440466Y-118268334D01*
X180089963Y-118917831D01*
X180089964Y-118917831D01*
X180181858Y-118791350D01*
X180181861Y-118791345D01*
X180274751Y-118609038D01*
X180274758Y-118609020D01*
X180337989Y-118414416D01*
X180370000Y-118212307D01*
X180370000Y-118007692D01*
X180337989Y-117805583D01*
X180274758Y-117610979D01*
X180274753Y-117610967D01*
X180181854Y-117428642D01*
X180089965Y-117302167D01*
X180089963Y-117302167D01*
X179440465Y-117951665D01*
X179390080Y-117864394D01*
X179315606Y-117789920D01*
X179228332Y-117739533D01*
X179877831Y-117090035D01*
X179877831Y-117090033D01*
X179751357Y-116998145D01*
X179569032Y-116905246D01*
X179569020Y-116905241D01*
X179374416Y-116842010D01*
X179172307Y-116810000D01*
X178967693Y-116810000D01*
X178765583Y-116842010D01*
X178570979Y-116905241D01*
X178570967Y-116905246D01*
X178388650Y-116998141D01*
X178388643Y-116998145D01*
X178262167Y-117090034D01*
X178262167Y-117090035D01*
X178911665Y-117739533D01*
X178824394Y-117789920D01*
X178749920Y-117864394D01*
X178699533Y-117951665D01*
X178050035Y-117302167D01*
X178050034Y-117302167D01*
X177958145Y-117428643D01*
X177958141Y-117428650D01*
X177865246Y-117610967D01*
X177865241Y-117610979D01*
X177802010Y-117805583D01*
X177770000Y-118007692D01*
X170210499Y-118007692D01*
X170210499Y-117509992D01*
X170199999Y-117407203D01*
X170144814Y-117240666D01*
X170052712Y-117091344D01*
X169928656Y-116967288D01*
X169779334Y-116875186D01*
X169679216Y-116842010D01*
X169612798Y-116820001D01*
X169595665Y-116818250D01*
X169510009Y-116809500D01*
X169510004Y-116809500D01*
X168309996Y-116809500D01*
X168207202Y-116820001D01*
X168040666Y-116875186D01*
X167891343Y-116967288D01*
X167767288Y-117091343D01*
X167675186Y-117240666D01*
X167620001Y-117407201D01*
X167609500Y-117509995D01*
X167609500Y-118710003D01*
X167609501Y-118710008D01*
X167620001Y-118812797D01*
X167675186Y-118979334D01*
X167767288Y-119128656D01*
X167891344Y-119252712D01*
X168040666Y-119344814D01*
X168057365Y-119350347D01*
X168121804Y-119392727D01*
X168156421Y-119461650D01*
X168159500Y-119491785D01*
X168159500Y-120781844D01*
X168139538Y-120856344D01*
X168098080Y-120902388D01*
X168062782Y-120928033D01*
X168062779Y-120928035D01*
X167918035Y-121072779D01*
X167918033Y-121072782D01*
X167892388Y-121108080D01*
X167832448Y-121156618D01*
X167771844Y-121169500D01*
X166485369Y-121169500D01*
X166410869Y-121149538D01*
X166364826Y-121108080D01*
X166310267Y-121032987D01*
X166244517Y-120942490D01*
X166077510Y-120775483D01*
X165886433Y-120636657D01*
X165675992Y-120529432D01*
X165451368Y-120456447D01*
X165218092Y-120419500D01*
X164981908Y-120419500D01*
X164748632Y-120456447D01*
X164524008Y-120529432D01*
X164524002Y-120529434D01*
X164524002Y-120529435D01*
X164313565Y-120636658D01*
X164122499Y-120775476D01*
X164122488Y-120775485D01*
X163955485Y-120942488D01*
X163955476Y-120942499D01*
X163816658Y-121133565D01*
X163709435Y-121344002D01*
X163709430Y-121344014D01*
X163652249Y-121520000D01*
X163636447Y-121568632D01*
X163599500Y-121801908D01*
X163599500Y-122038092D01*
X163631492Y-122240080D01*
X163631519Y-122240252D01*
X163623456Y-122316957D01*
X163589712Y-122368919D01*
X158067048Y-127891583D01*
X158067041Y-127891591D01*
X158017812Y-127965268D01*
X158017813Y-127965269D01*
X157984920Y-128014497D01*
X157984913Y-128014510D01*
X157928341Y-128151088D01*
X157899500Y-128296078D01*
X157899500Y-134227414D01*
X157879538Y-134301914D01*
X157855859Y-134332773D01*
X155822773Y-136365859D01*
X155805785Y-136375666D01*
X155791914Y-136389538D01*
X155772965Y-136394615D01*
X155755978Y-136404423D01*
X155717414Y-136409500D01*
X155451785Y-136409500D01*
X155377285Y-136389538D01*
X155322747Y-136335000D01*
X155310350Y-136307372D01*
X155304814Y-136290666D01*
X155212712Y-136141344D01*
X155088656Y-136017288D01*
X154939334Y-135925186D01*
X154939333Y-135925185D01*
X154939332Y-135925185D01*
X154939328Y-135925183D01*
X154903669Y-135913367D01*
X154839230Y-135870984D01*
X154804616Y-135802059D01*
X154809102Y-135725062D01*
X154851485Y-135660623D01*
X154862945Y-135651397D01*
X154917219Y-135611966D01*
X155061966Y-135467219D01*
X155182287Y-135301610D01*
X155275220Y-135119219D01*
X155338477Y-134924534D01*
X155370500Y-134722352D01*
X155370500Y-134517648D01*
X155338477Y-134315466D01*
X155275220Y-134120781D01*
X155182287Y-133938390D01*
X155089811Y-133811106D01*
X155061971Y-133772787D01*
X155061964Y-133772779D01*
X154917220Y-133628035D01*
X154917212Y-133628028D01*
X154751609Y-133507712D01*
X154702085Y-133482478D01*
X154644768Y-133430869D01*
X154620935Y-133357516D01*
X154636972Y-133282073D01*
X154688581Y-133224756D01*
X154702088Y-133216958D01*
X154751354Y-133191856D01*
X154916889Y-133071587D01*
X155061587Y-132926889D01*
X155181856Y-132761354D01*
X155274753Y-132579032D01*
X155274758Y-132579020D01*
X155337990Y-132384416D01*
X155362447Y-132230000D01*
X154043918Y-132230000D01*
X154070000Y-132132661D01*
X154070000Y-132027339D01*
X154043918Y-131930000D01*
X155362446Y-131930000D01*
X155337990Y-131775583D01*
X155274758Y-131580979D01*
X155274753Y-131580967D01*
X155181856Y-131398645D01*
X155061587Y-131233110D01*
X154916889Y-131088412D01*
X154751354Y-130968143D01*
X154702086Y-130943040D01*
X154644769Y-130891431D01*
X154620935Y-130818078D01*
X154636971Y-130742635D01*
X154688580Y-130685318D01*
X154702083Y-130677522D01*
X154751610Y-130652287D01*
X154917219Y-130531966D01*
X155061966Y-130387219D01*
X155182287Y-130221610D01*
X155275220Y-130039219D01*
X155338477Y-129844534D01*
X155370500Y-129642352D01*
X155370500Y-129437648D01*
X155338477Y-129235466D01*
X155275220Y-129040781D01*
X155182287Y-128858390D01*
X155171973Y-128844194D01*
X155061971Y-128692787D01*
X155061964Y-128692779D01*
X154917220Y-128548035D01*
X154917212Y-128548028D01*
X154751609Y-128427712D01*
X154702085Y-128402478D01*
X154644768Y-128350869D01*
X154620935Y-128277516D01*
X154636972Y-128202073D01*
X154688581Y-128144756D01*
X154702088Y-128136958D01*
X154751354Y-128111856D01*
X154916889Y-127991587D01*
X155061587Y-127846889D01*
X155181856Y-127681354D01*
X155274753Y-127499032D01*
X155274758Y-127499020D01*
X155337990Y-127304416D01*
X155362447Y-127150000D01*
X154043918Y-127150000D01*
X154070000Y-127052661D01*
X154070000Y-126947339D01*
X154043918Y-126850000D01*
X155362446Y-126850000D01*
X155337990Y-126695583D01*
X155274758Y-126500979D01*
X155274753Y-126500967D01*
X155181856Y-126318645D01*
X155061587Y-126153110D01*
X154916889Y-126008412D01*
X154751354Y-125888143D01*
X154702086Y-125863040D01*
X154644769Y-125811431D01*
X154620935Y-125738078D01*
X154636971Y-125662635D01*
X154688580Y-125605318D01*
X154702083Y-125597522D01*
X154751610Y-125572287D01*
X154917219Y-125451966D01*
X155061966Y-125307219D01*
X155182287Y-125141610D01*
X155275220Y-124959219D01*
X155338477Y-124764534D01*
X155370500Y-124562352D01*
X155370500Y-124357648D01*
X155338477Y-124155466D01*
X155275220Y-123960781D01*
X155182287Y-123778390D01*
X155130050Y-123706491D01*
X155061971Y-123612787D01*
X155061964Y-123612779D01*
X154917220Y-123468035D01*
X154917212Y-123468028D01*
X154751609Y-123347712D01*
X154702085Y-123322478D01*
X154644768Y-123270869D01*
X154620935Y-123197516D01*
X154636972Y-123122073D01*
X154688581Y-123064756D01*
X154702088Y-123056958D01*
X154751354Y-123031856D01*
X154916889Y-122911587D01*
X155061587Y-122766889D01*
X155181856Y-122601354D01*
X155274753Y-122419032D01*
X155274758Y-122419020D01*
X155337990Y-122224416D01*
X155362447Y-122070000D01*
X154043918Y-122070000D01*
X154070000Y-121972661D01*
X154070000Y-121867339D01*
X154043918Y-121770000D01*
X155362446Y-121770000D01*
X155337990Y-121615583D01*
X155274758Y-121420979D01*
X155274753Y-121420967D01*
X155181856Y-121238645D01*
X155061587Y-121073110D01*
X154916889Y-120928412D01*
X154751354Y-120808143D01*
X154569032Y-120715246D01*
X154569020Y-120715241D01*
X154374416Y-120652010D01*
X154172307Y-120620000D01*
X153820000Y-120620000D01*
X153820000Y-121546081D01*
X153722661Y-121520000D01*
X153617339Y-121520000D01*
X153520000Y-121546081D01*
X153520000Y-120620000D01*
X153167693Y-120620000D01*
X152965583Y-120652010D01*
X152770979Y-120715241D01*
X152770967Y-120715246D01*
X152588645Y-120808143D01*
X152423110Y-120928412D01*
X152278412Y-121073110D01*
X152158143Y-121238645D01*
X152065246Y-121420967D01*
X152065241Y-121420979D01*
X152002009Y-121615583D01*
X151977553Y-121770000D01*
X153296082Y-121770000D01*
X153270000Y-121867339D01*
X153270000Y-121972661D01*
X153296082Y-122070000D01*
X151977553Y-122070000D01*
X152002009Y-122224416D01*
X152065241Y-122419020D01*
X152065246Y-122419032D01*
X152158143Y-122601354D01*
X152278412Y-122766889D01*
X152423110Y-122911587D01*
X152588647Y-123031858D01*
X152637912Y-123056959D01*
X152695229Y-123108567D01*
X152719064Y-123181920D01*
X152703028Y-123257363D01*
X152651420Y-123314680D01*
X152637915Y-123322478D01*
X152588388Y-123347714D01*
X152422787Y-123468028D01*
X152422779Y-123468035D01*
X152278035Y-123612779D01*
X152278028Y-123612787D01*
X152157714Y-123778387D01*
X152064782Y-123960775D01*
X152064780Y-123960781D01*
X152001523Y-124155466D01*
X151969500Y-124357648D01*
X151969500Y-124562352D01*
X152001523Y-124764534D01*
X152064719Y-124959032D01*
X152064778Y-124959212D01*
X152064782Y-124959224D01*
X152157714Y-125141612D01*
X152278028Y-125307212D01*
X152278035Y-125307220D01*
X152422779Y-125451964D01*
X152422787Y-125451971D01*
X152588387Y-125572285D01*
X152588390Y-125572287D01*
X152637913Y-125597520D01*
X152695230Y-125649129D01*
X152719064Y-125722482D01*
X152703028Y-125797925D01*
X152651419Y-125855242D01*
X152637914Y-125863039D01*
X152588648Y-125888141D01*
X152423110Y-126008412D01*
X152278412Y-126153110D01*
X152158143Y-126318645D01*
X152065246Y-126500967D01*
X152065241Y-126500979D01*
X152002009Y-126695583D01*
X151977553Y-126850000D01*
X153296082Y-126850000D01*
X153270000Y-126947339D01*
X153270000Y-127052661D01*
X153296082Y-127150000D01*
X151977553Y-127150000D01*
X152002009Y-127304416D01*
X152065241Y-127499020D01*
X152065246Y-127499032D01*
X152158143Y-127681354D01*
X152278412Y-127846889D01*
X152423110Y-127991587D01*
X152588647Y-128111858D01*
X152637912Y-128136959D01*
X152695229Y-128188567D01*
X152719064Y-128261920D01*
X152703028Y-128337363D01*
X152651420Y-128394680D01*
X152637915Y-128402478D01*
X152588388Y-128427714D01*
X152422787Y-128548028D01*
X152422779Y-128548035D01*
X152278035Y-128692779D01*
X152278028Y-128692787D01*
X152157714Y-128858387D01*
X152064782Y-129040775D01*
X152064780Y-129040781D01*
X152001523Y-129235466D01*
X151969500Y-129437648D01*
X151969500Y-129642352D01*
X152001523Y-129844534D01*
X152064719Y-130039032D01*
X152064778Y-130039212D01*
X152064782Y-130039224D01*
X152157714Y-130221612D01*
X152278028Y-130387212D01*
X152278035Y-130387220D01*
X152422779Y-130531964D01*
X152422787Y-130531971D01*
X152588387Y-130652285D01*
X152588390Y-130652287D01*
X152637913Y-130677520D01*
X152695230Y-130729129D01*
X152719064Y-130802482D01*
X152703028Y-130877925D01*
X152651419Y-130935242D01*
X152637914Y-130943039D01*
X152588648Y-130968141D01*
X152423110Y-131088412D01*
X152278412Y-131233110D01*
X152158143Y-131398645D01*
X152065246Y-131580967D01*
X152065241Y-131580979D01*
X152002009Y-131775583D01*
X151977553Y-131930000D01*
X153296082Y-131930000D01*
X153270000Y-132027339D01*
X153270000Y-132132661D01*
X153296082Y-132230000D01*
X151977553Y-132230000D01*
X152002009Y-132384416D01*
X152065241Y-132579020D01*
X152065246Y-132579032D01*
X152158143Y-132761354D01*
X152278412Y-132926889D01*
X152423110Y-133071587D01*
X152588647Y-133191858D01*
X152637912Y-133216959D01*
X152695229Y-133268567D01*
X152719064Y-133341920D01*
X152703028Y-133417363D01*
X152651420Y-133474680D01*
X152637915Y-133482478D01*
X152588388Y-133507714D01*
X152422787Y-133628028D01*
X152422779Y-133628035D01*
X152278035Y-133772779D01*
X152278033Y-133772782D01*
X152252388Y-133808080D01*
X152192448Y-133856618D01*
X152131844Y-133869500D01*
X151906078Y-133869500D01*
X151761088Y-133898341D01*
X151624502Y-133954916D01*
X151501585Y-134037048D01*
X151501580Y-134037052D01*
X150267049Y-135271582D01*
X150225784Y-135333342D01*
X150225783Y-135333343D01*
X150184916Y-135394502D01*
X150128341Y-135531088D01*
X150099500Y-135676078D01*
X150099500Y-138123921D01*
X150128341Y-138268911D01*
X150184913Y-138405489D01*
X150184918Y-138405499D01*
X150189879Y-138412923D01*
X150200272Y-138428477D01*
X150267048Y-138528416D01*
X151487049Y-139748416D01*
X151591584Y-139852951D01*
X151672976Y-139907335D01*
X151714500Y-139935081D01*
X151714501Y-139935081D01*
X151714505Y-139935084D01*
X151771080Y-139958518D01*
X151851088Y-139991659D01*
X151957297Y-140012785D01*
X151996082Y-140020500D01*
X151996083Y-140020500D01*
X152107160Y-140020500D01*
X152181660Y-140040462D01*
X152236198Y-140095000D01*
X152256160Y-140169500D01*
X152239920Y-140237145D01*
X152159898Y-140394194D01*
X152159894Y-140394206D01*
X152086934Y-140618749D01*
X152050000Y-140851950D01*
X152050000Y-141088049D01*
X152086934Y-141321250D01*
X152159894Y-141545793D01*
X152159898Y-141545805D01*
X152267086Y-141756171D01*
X152267086Y-141756172D01*
X152386851Y-141921015D01*
X153106328Y-141201537D01*
X153149901Y-141277007D01*
X153242993Y-141370099D01*
X153318460Y-141413669D01*
X152598983Y-142133147D01*
X152598983Y-142133148D01*
X152763826Y-142252913D01*
X152763832Y-142252916D01*
X152974189Y-142360098D01*
X152974206Y-142360105D01*
X153198749Y-142433065D01*
X153431951Y-142470000D01*
X153668049Y-142470000D01*
X153901250Y-142433065D01*
X154125793Y-142360105D01*
X154125810Y-142360098D01*
X154336167Y-142252916D01*
X154336181Y-142252908D01*
X154501015Y-142133149D01*
X154501015Y-142133147D01*
X153781538Y-141413670D01*
X153857007Y-141370099D01*
X153950099Y-141277007D01*
X153993670Y-141201538D01*
X154713147Y-141921015D01*
X154713149Y-141921015D01*
X154832908Y-141756181D01*
X154832916Y-141756167D01*
X154940098Y-141545810D01*
X154940105Y-141545793D01*
X155013065Y-141321250D01*
X155050000Y-141088049D01*
X155050000Y-140851950D01*
X155013065Y-140618749D01*
X154940105Y-140394206D01*
X154940101Y-140394194D01*
X154860080Y-140237145D01*
X154844044Y-140161702D01*
X154867878Y-140088349D01*
X154925195Y-140036740D01*
X154992840Y-140020500D01*
X171012541Y-140020500D01*
X171087041Y-140040462D01*
X171133085Y-140081921D01*
X171182390Y-140149785D01*
X171182397Y-140149793D01*
X171332706Y-140300102D01*
X171332714Y-140300109D01*
X171369384Y-140326751D01*
X171417923Y-140386691D01*
X171429989Y-140462869D01*
X171402349Y-140534874D01*
X171369386Y-140567838D01*
X171234993Y-140665480D01*
X171067985Y-140832488D01*
X171067976Y-140832499D01*
X170947674Y-140998080D01*
X170887734Y-141046618D01*
X170827131Y-141059500D01*
X167116082Y-141059500D01*
X167087241Y-141065236D01*
X167053860Y-141071876D01*
X166971088Y-141088340D01*
X166971086Y-141088341D01*
X166891081Y-141121479D01*
X166891082Y-141121480D01*
X166834506Y-141144915D01*
X166834502Y-141144917D01*
X166793644Y-141172218D01*
X166793644Y-141172219D01*
X166711582Y-141227049D01*
X166711582Y-141227050D01*
X164732773Y-143205859D01*
X164665978Y-143244423D01*
X164627414Y-143249500D01*
X149452585Y-143249500D01*
X149378085Y-143229538D01*
X149347226Y-143205859D01*
X147560288Y-141418920D01*
X147521724Y-141352125D01*
X147518481Y-141290253D01*
X147528491Y-141227050D01*
X147550500Y-141088092D01*
X147550500Y-140851908D01*
X147513553Y-140618632D01*
X147440568Y-140394008D01*
X147333343Y-140183567D01*
X147194517Y-139992490D01*
X147027510Y-139825483D01*
X146921437Y-139748416D01*
X146861920Y-139705174D01*
X146813382Y-139645234D01*
X146800500Y-139584631D01*
X146800500Y-138521796D01*
X146820462Y-138447296D01*
X146875000Y-138392758D01*
X146903459Y-138380088D01*
X146949213Y-138365222D01*
X146949214Y-138365222D01*
X146949216Y-138365220D01*
X146949219Y-138365220D01*
X147131610Y-138272287D01*
X147297219Y-138151966D01*
X147441966Y-138007219D01*
X147562287Y-137841610D01*
X147655220Y-137659219D01*
X147718477Y-137464534D01*
X147750500Y-137262352D01*
X147750500Y-137057648D01*
X147718477Y-136855466D01*
X147655220Y-136660781D01*
X147562287Y-136478390D01*
X147546894Y-136457203D01*
X147441971Y-136312787D01*
X147441964Y-136312779D01*
X147297220Y-136168035D01*
X147297212Y-136168028D01*
X147131609Y-136047712D01*
X147082085Y-136022478D01*
X147024768Y-135970869D01*
X147000935Y-135897516D01*
X147016972Y-135822073D01*
X147068581Y-135764756D01*
X147082088Y-135756958D01*
X147131354Y-135731856D01*
X147296889Y-135611587D01*
X147441587Y-135466889D01*
X147561856Y-135301354D01*
X147654753Y-135119032D01*
X147654758Y-135119020D01*
X147717990Y-134924416D01*
X147742447Y-134770000D01*
X146423918Y-134770000D01*
X146450000Y-134672661D01*
X146450000Y-134567339D01*
X146423918Y-134470000D01*
X147742446Y-134470000D01*
X147717990Y-134315583D01*
X147654758Y-134120979D01*
X147654753Y-134120967D01*
X147561856Y-133938645D01*
X147441587Y-133773110D01*
X147296889Y-133628412D01*
X147131354Y-133508143D01*
X147082086Y-133483040D01*
X147024769Y-133431431D01*
X147000935Y-133358078D01*
X147016971Y-133282635D01*
X147068580Y-133225318D01*
X147082083Y-133217522D01*
X147131610Y-133192287D01*
X147297219Y-133071966D01*
X147441966Y-132927219D01*
X147562287Y-132761610D01*
X147655220Y-132579219D01*
X147718477Y-132384534D01*
X147750500Y-132182352D01*
X147750500Y-131977648D01*
X147718477Y-131775466D01*
X147655220Y-131580781D01*
X147562287Y-131398390D01*
X147562285Y-131398387D01*
X147441971Y-131232787D01*
X147441964Y-131232779D01*
X147297220Y-131088035D01*
X147297212Y-131088028D01*
X147131609Y-130967712D01*
X147082085Y-130942478D01*
X147024768Y-130890869D01*
X147000935Y-130817516D01*
X147016972Y-130742073D01*
X147068581Y-130684756D01*
X147082088Y-130676958D01*
X147131354Y-130651856D01*
X147296889Y-130531587D01*
X147441587Y-130386889D01*
X147561856Y-130221354D01*
X147654753Y-130039032D01*
X147654758Y-130039020D01*
X147717990Y-129844416D01*
X147742447Y-129690000D01*
X146423918Y-129690000D01*
X146450000Y-129592661D01*
X146450000Y-129487339D01*
X146423918Y-129390000D01*
X147742446Y-129390000D01*
X147717990Y-129235583D01*
X147654758Y-129040979D01*
X147654753Y-129040967D01*
X147561856Y-128858645D01*
X147441587Y-128693110D01*
X147296889Y-128548412D01*
X147131354Y-128428143D01*
X147082086Y-128403040D01*
X147024769Y-128351431D01*
X147000935Y-128278078D01*
X147016971Y-128202635D01*
X147068580Y-128145318D01*
X147082083Y-128137522D01*
X147131610Y-128112287D01*
X147297219Y-127991966D01*
X147441966Y-127847219D01*
X147562287Y-127681610D01*
X147655220Y-127499219D01*
X147718477Y-127304534D01*
X147750500Y-127102352D01*
X147750500Y-126897648D01*
X147718477Y-126695466D01*
X147655220Y-126500781D01*
X147562287Y-126318390D01*
X147555828Y-126309500D01*
X147441971Y-126152787D01*
X147441964Y-126152779D01*
X147297220Y-126008035D01*
X147297212Y-126008028D01*
X147131609Y-125887712D01*
X147082085Y-125862478D01*
X147024768Y-125810869D01*
X147000935Y-125737516D01*
X147016972Y-125662073D01*
X147068581Y-125604756D01*
X147082088Y-125596958D01*
X147131354Y-125571856D01*
X147296889Y-125451587D01*
X147441587Y-125306889D01*
X147561856Y-125141354D01*
X147654753Y-124959032D01*
X147654758Y-124959020D01*
X147717990Y-124764416D01*
X147742447Y-124610000D01*
X146423918Y-124610000D01*
X146450000Y-124512661D01*
X146450000Y-124407339D01*
X146423918Y-124310000D01*
X147742446Y-124310000D01*
X147717990Y-124155583D01*
X147654758Y-123960979D01*
X147654753Y-123960967D01*
X147561856Y-123778645D01*
X147441587Y-123613110D01*
X147296889Y-123468412D01*
X147131354Y-123348143D01*
X147082086Y-123323040D01*
X147024769Y-123271431D01*
X147000935Y-123198078D01*
X147016971Y-123122635D01*
X147068580Y-123065318D01*
X147082083Y-123057522D01*
X147131610Y-123032287D01*
X147297219Y-122911966D01*
X147441966Y-122767219D01*
X147562287Y-122601610D01*
X147655220Y-122419219D01*
X147718477Y-122224534D01*
X147750500Y-122022352D01*
X147750500Y-121817648D01*
X147718477Y-121615466D01*
X147655220Y-121420781D01*
X147562287Y-121238390D01*
X147512236Y-121169500D01*
X147441971Y-121072787D01*
X147441964Y-121072779D01*
X147297220Y-120928035D01*
X147297212Y-120928028D01*
X147131612Y-120807714D01*
X146949224Y-120714782D01*
X146949220Y-120714780D01*
X146949219Y-120714780D01*
X146754534Y-120651523D01*
X146552352Y-120619500D01*
X145547648Y-120619500D01*
X145379163Y-120646185D01*
X145345465Y-120651523D01*
X145150787Y-120714778D01*
X145150775Y-120714782D01*
X144968387Y-120807714D01*
X144802787Y-120928028D01*
X144802779Y-120928035D01*
X144658035Y-121072779D01*
X144658028Y-121072787D01*
X144537714Y-121238387D01*
X144444782Y-121420775D01*
X144444780Y-121420781D01*
X144381523Y-121615466D01*
X144349500Y-121817648D01*
X124500500Y-121817648D01*
X124500500Y-113149000D01*
X124520462Y-113074500D01*
X124575000Y-113019962D01*
X124649500Y-113000000D01*
X171000000Y-113000000D01*
X186000000Y-98000000D01*
X186000000Y-52837857D01*
X215699500Y-52837857D01*
X215699500Y-53162143D01*
X215731286Y-53484868D01*
X215731287Y-53484875D01*
X215794552Y-53802927D01*
X215794553Y-53802933D01*
X215888685Y-54113244D01*
X215888688Y-54113253D01*
X216012785Y-54412847D01*
X216165651Y-54698840D01*
X216343381Y-54964831D01*
X216345817Y-54968476D01*
X216551542Y-55219153D01*
X216780847Y-55448458D01*
X217031524Y-55654183D01*
X217168163Y-55745482D01*
X217301159Y-55834348D01*
X217444155Y-55910781D01*
X217587153Y-55987215D01*
X217782258Y-56068030D01*
X217886746Y-56111311D01*
X217886749Y-56111312D01*
X217886754Y-56111314D01*
X218033802Y-56155920D01*
X218197066Y-56205446D01*
X218197068Y-56205446D01*
X218197077Y-56205449D01*
X218515132Y-56268714D01*
X218837857Y-56300500D01*
X218837862Y-56300500D01*
X219162138Y-56300500D01*
X219162143Y-56300500D01*
X219484868Y-56268714D01*
X219802923Y-56205449D01*
X220113246Y-56111314D01*
X220412847Y-55987215D01*
X220698842Y-55834347D01*
X220968476Y-55654183D01*
X221219153Y-55448458D01*
X221448458Y-55219153D01*
X221654183Y-54968476D01*
X221834347Y-54698842D01*
X221987215Y-54412847D01*
X222111314Y-54113246D01*
X222205449Y-53802923D01*
X222268714Y-53484868D01*
X222300500Y-53162143D01*
X222300500Y-52837857D01*
X222268714Y-52515132D01*
X222205449Y-52197077D01*
X222111314Y-51886754D01*
X221987215Y-51587153D01*
X221834347Y-51301158D01*
X221654183Y-51031524D01*
X221448458Y-50780847D01*
X221219153Y-50551542D01*
X220968476Y-50345817D01*
X220964831Y-50343381D01*
X220698840Y-50165651D01*
X220412847Y-50012785D01*
X220113253Y-49888688D01*
X220113244Y-49888685D01*
X219802933Y-49794553D01*
X219802927Y-49794552D01*
X219802924Y-49794551D01*
X219802923Y-49794551D01*
X219694010Y-49772887D01*
X219484875Y-49731287D01*
X219484871Y-49731286D01*
X219484868Y-49731286D01*
X219162143Y-49699500D01*
X218837857Y-49699500D01*
X218515132Y-49731286D01*
X218515129Y-49731286D01*
X218515124Y-49731287D01*
X218197072Y-49794552D01*
X218197066Y-49794553D01*
X217886755Y-49888685D01*
X217886746Y-49888688D01*
X217587152Y-50012785D01*
X217301159Y-50165651D01*
X217031529Y-50345813D01*
X216780847Y-50551542D01*
X216551542Y-50780847D01*
X216345813Y-51031529D01*
X216165651Y-51301159D01*
X216012785Y-51587152D01*
X215888688Y-51886746D01*
X215888685Y-51886755D01*
X215794553Y-52197066D01*
X215794552Y-52197072D01*
X215731287Y-52515124D01*
X215731286Y-52515129D01*
X215731286Y-52515132D01*
X215699500Y-52837857D01*
X186000000Y-52837857D01*
X186000000Y-48649500D01*
X186019962Y-48575000D01*
X186074500Y-48520462D01*
X186149000Y-48500500D01*
X223350500Y-48500500D01*
X223425000Y-48520462D01*
G37*
%TD.AperFunction*%
%TD*%
M02*
