%TF.GenerationSoftware,KiCad,Pcbnew,9.0.6-9.0.6~ubuntu24.04.1*%
%TF.CreationDate,2025-12-08T02:07:06+01:00*%
%TF.ProjectId,PSU_V1,5053555f-5631-42e6-9b69-6361645f7063,rev?*%
%TF.SameCoordinates,Original*%
%TF.FileFunction,Legend,Top*%
%TF.FilePolarity,Positive*%
%FSLAX46Y46*%
G04 Gerber Fmt 4.6, Leading zero omitted, Abs format (unit mm)*
G04 Created by KiCad (PCBNEW 9.0.6-9.0.6~ubuntu24.04.1) date 2025-12-08 02:07:06*
%MOMM*%
%LPD*%
G01*
G04 APERTURE LIST*
%ADD10C,0.300000*%
%ADD11C,0.600000*%
%ADD12C,0.500000*%
%ADD13C,0.254000*%
%ADD14C,0.150000*%
%ADD15C,0.000000*%
%ADD16C,0.200000*%
%ADD17C,0.100000*%
%ADD18C,0.120000*%
G04 APERTURE END LIST*
D10*
X217119750Y-137326441D02*
X215119750Y-137326441D01*
X215119750Y-137326441D02*
X215119750Y-136564536D01*
X215119750Y-136564536D02*
X215214988Y-136374060D01*
X215214988Y-136374060D02*
X215310226Y-136278822D01*
X215310226Y-136278822D02*
X215500702Y-136183584D01*
X215500702Y-136183584D02*
X215786416Y-136183584D01*
X215786416Y-136183584D02*
X215976892Y-136278822D01*
X215976892Y-136278822D02*
X216072131Y-136374060D01*
X216072131Y-136374060D02*
X216167369Y-136564536D01*
X216167369Y-136564536D02*
X216167369Y-137326441D01*
X216072131Y-135326441D02*
X216072131Y-134659774D01*
X217119750Y-134374060D02*
X217119750Y-135326441D01*
X217119750Y-135326441D02*
X215119750Y-135326441D01*
X215119750Y-135326441D02*
X215119750Y-134374060D01*
X215310226Y-132088345D02*
X215214988Y-131993107D01*
X215214988Y-131993107D02*
X215119750Y-131802631D01*
X215119750Y-131802631D02*
X215119750Y-131326440D01*
X215119750Y-131326440D02*
X215214988Y-131135964D01*
X215214988Y-131135964D02*
X215310226Y-131040726D01*
X215310226Y-131040726D02*
X215500702Y-130945488D01*
X215500702Y-130945488D02*
X215691178Y-130945488D01*
X215691178Y-130945488D02*
X215976892Y-131040726D01*
X215976892Y-131040726D02*
X217119750Y-132183583D01*
X217119750Y-132183583D02*
X217119750Y-130945488D01*
X215119750Y-129707393D02*
X215119750Y-129516916D01*
X215119750Y-129516916D02*
X215214988Y-129326440D01*
X215214988Y-129326440D02*
X215310226Y-129231202D01*
X215310226Y-129231202D02*
X215500702Y-129135964D01*
X215500702Y-129135964D02*
X215881654Y-129040726D01*
X215881654Y-129040726D02*
X216357845Y-129040726D01*
X216357845Y-129040726D02*
X216738797Y-129135964D01*
X216738797Y-129135964D02*
X216929273Y-129231202D01*
X216929273Y-129231202D02*
X217024512Y-129326440D01*
X217024512Y-129326440D02*
X217119750Y-129516916D01*
X217119750Y-129516916D02*
X217119750Y-129707393D01*
X217119750Y-129707393D02*
X217024512Y-129897869D01*
X217024512Y-129897869D02*
X216929273Y-129993107D01*
X216929273Y-129993107D02*
X216738797Y-130088345D01*
X216738797Y-130088345D02*
X216357845Y-130183583D01*
X216357845Y-130183583D02*
X215881654Y-130183583D01*
X215881654Y-130183583D02*
X215500702Y-130088345D01*
X215500702Y-130088345D02*
X215310226Y-129993107D01*
X215310226Y-129993107D02*
X215214988Y-129897869D01*
X215214988Y-129897869D02*
X215119750Y-129707393D01*
X215310226Y-128278821D02*
X215214988Y-128183583D01*
X215214988Y-128183583D02*
X215119750Y-127993107D01*
X215119750Y-127993107D02*
X215119750Y-127516916D01*
X215119750Y-127516916D02*
X215214988Y-127326440D01*
X215214988Y-127326440D02*
X215310226Y-127231202D01*
X215310226Y-127231202D02*
X215500702Y-127135964D01*
X215500702Y-127135964D02*
X215691178Y-127135964D01*
X215691178Y-127135964D02*
X215976892Y-127231202D01*
X215976892Y-127231202D02*
X217119750Y-128374059D01*
X217119750Y-128374059D02*
X217119750Y-127135964D01*
X215119750Y-125326440D02*
X215119750Y-126278821D01*
X215119750Y-126278821D02*
X216072131Y-126374059D01*
X216072131Y-126374059D02*
X215976892Y-126278821D01*
X215976892Y-126278821D02*
X215881654Y-126088345D01*
X215881654Y-126088345D02*
X215881654Y-125612154D01*
X215881654Y-125612154D02*
X215976892Y-125421678D01*
X215976892Y-125421678D02*
X216072131Y-125326440D01*
X216072131Y-125326440D02*
X216262607Y-125231202D01*
X216262607Y-125231202D02*
X216738797Y-125231202D01*
X216738797Y-125231202D02*
X216929273Y-125326440D01*
X216929273Y-125326440D02*
X217024512Y-125421678D01*
X217024512Y-125421678D02*
X217119750Y-125612154D01*
X217119750Y-125612154D02*
X217119750Y-126088345D01*
X217119750Y-126088345D02*
X217024512Y-126278821D01*
X217024512Y-126278821D02*
X216929273Y-126374059D01*
X220149161Y-136183584D02*
X220244400Y-136278822D01*
X220244400Y-136278822D02*
X220339638Y-136564536D01*
X220339638Y-136564536D02*
X220339638Y-136755012D01*
X220339638Y-136755012D02*
X220244400Y-137040727D01*
X220244400Y-137040727D02*
X220053923Y-137231203D01*
X220053923Y-137231203D02*
X219863447Y-137326441D01*
X219863447Y-137326441D02*
X219482495Y-137421679D01*
X219482495Y-137421679D02*
X219196780Y-137421679D01*
X219196780Y-137421679D02*
X218815828Y-137326441D01*
X218815828Y-137326441D02*
X218625352Y-137231203D01*
X218625352Y-137231203D02*
X218434876Y-137040727D01*
X218434876Y-137040727D02*
X218339638Y-136755012D01*
X218339638Y-136755012D02*
X218339638Y-136564536D01*
X218339638Y-136564536D02*
X218434876Y-136278822D01*
X218434876Y-136278822D02*
X218530114Y-136183584D01*
X220339638Y-135040727D02*
X220244400Y-135231203D01*
X220244400Y-135231203D02*
X220053923Y-135326441D01*
X220053923Y-135326441D02*
X218339638Y-135326441D01*
X220339638Y-133993108D02*
X220244400Y-134183584D01*
X220244400Y-134183584D02*
X220149161Y-134278822D01*
X220149161Y-134278822D02*
X219958685Y-134374060D01*
X219958685Y-134374060D02*
X219387257Y-134374060D01*
X219387257Y-134374060D02*
X219196780Y-134278822D01*
X219196780Y-134278822D02*
X219101542Y-134183584D01*
X219101542Y-134183584D02*
X219006304Y-133993108D01*
X219006304Y-133993108D02*
X219006304Y-133707393D01*
X219006304Y-133707393D02*
X219101542Y-133516917D01*
X219101542Y-133516917D02*
X219196780Y-133421679D01*
X219196780Y-133421679D02*
X219387257Y-133326441D01*
X219387257Y-133326441D02*
X219958685Y-133326441D01*
X219958685Y-133326441D02*
X220149161Y-133421679D01*
X220149161Y-133421679D02*
X220244400Y-133516917D01*
X220244400Y-133516917D02*
X220339638Y-133707393D01*
X220339638Y-133707393D02*
X220339638Y-133993108D01*
X220244400Y-131612155D02*
X220339638Y-131802631D01*
X220339638Y-131802631D02*
X220339638Y-132183584D01*
X220339638Y-132183584D02*
X220244400Y-132374060D01*
X220244400Y-132374060D02*
X220149161Y-132469298D01*
X220149161Y-132469298D02*
X219958685Y-132564536D01*
X219958685Y-132564536D02*
X219387257Y-132564536D01*
X219387257Y-132564536D02*
X219196780Y-132469298D01*
X219196780Y-132469298D02*
X219101542Y-132374060D01*
X219101542Y-132374060D02*
X219006304Y-132183584D01*
X219006304Y-132183584D02*
X219006304Y-131802631D01*
X219006304Y-131802631D02*
X219101542Y-131612155D01*
X220339638Y-130755012D02*
X218339638Y-130755012D01*
X219577733Y-130564536D02*
X220339638Y-129993107D01*
X219006304Y-129993107D02*
X219768209Y-130755012D01*
X220339638Y-127612154D02*
X218339638Y-127612154D01*
X218339638Y-127612154D02*
X218339638Y-126850249D01*
X218339638Y-126850249D02*
X218434876Y-126659773D01*
X218434876Y-126659773D02*
X218530114Y-126564535D01*
X218530114Y-126564535D02*
X218720590Y-126469297D01*
X218720590Y-126469297D02*
X219006304Y-126469297D01*
X219006304Y-126469297D02*
X219196780Y-126564535D01*
X219196780Y-126564535D02*
X219292019Y-126659773D01*
X219292019Y-126659773D02*
X219387257Y-126850249D01*
X219387257Y-126850249D02*
X219387257Y-127612154D01*
X220244400Y-125707392D02*
X220339638Y-125421678D01*
X220339638Y-125421678D02*
X220339638Y-124945487D01*
X220339638Y-124945487D02*
X220244400Y-124755011D01*
X220244400Y-124755011D02*
X220149161Y-124659773D01*
X220149161Y-124659773D02*
X219958685Y-124564535D01*
X219958685Y-124564535D02*
X219768209Y-124564535D01*
X219768209Y-124564535D02*
X219577733Y-124659773D01*
X219577733Y-124659773D02*
X219482495Y-124755011D01*
X219482495Y-124755011D02*
X219387257Y-124945487D01*
X219387257Y-124945487D02*
X219292019Y-125326440D01*
X219292019Y-125326440D02*
X219196780Y-125516916D01*
X219196780Y-125516916D02*
X219101542Y-125612154D01*
X219101542Y-125612154D02*
X218911066Y-125707392D01*
X218911066Y-125707392D02*
X218720590Y-125707392D01*
X218720590Y-125707392D02*
X218530114Y-125612154D01*
X218530114Y-125612154D02*
X218434876Y-125516916D01*
X218434876Y-125516916D02*
X218339638Y-125326440D01*
X218339638Y-125326440D02*
X218339638Y-124850249D01*
X218339638Y-124850249D02*
X218434876Y-124564535D01*
X218339638Y-123707392D02*
X219958685Y-123707392D01*
X219958685Y-123707392D02*
X220149161Y-123612154D01*
X220149161Y-123612154D02*
X220244400Y-123516916D01*
X220244400Y-123516916D02*
X220339638Y-123326440D01*
X220339638Y-123326440D02*
X220339638Y-122945487D01*
X220339638Y-122945487D02*
X220244400Y-122755011D01*
X220244400Y-122755011D02*
X220149161Y-122659773D01*
X220149161Y-122659773D02*
X219958685Y-122564535D01*
X219958685Y-122564535D02*
X218339638Y-122564535D01*
X220339638Y-118945487D02*
X219387257Y-119612154D01*
X220339638Y-120088344D02*
X218339638Y-120088344D01*
X218339638Y-120088344D02*
X218339638Y-119326439D01*
X218339638Y-119326439D02*
X218434876Y-119135963D01*
X218434876Y-119135963D02*
X218530114Y-119040725D01*
X218530114Y-119040725D02*
X218720590Y-118945487D01*
X218720590Y-118945487D02*
X219006304Y-118945487D01*
X219006304Y-118945487D02*
X219196780Y-119040725D01*
X219196780Y-119040725D02*
X219292019Y-119135963D01*
X219292019Y-119135963D02*
X219387257Y-119326439D01*
X219387257Y-119326439D02*
X219387257Y-120088344D01*
X220244400Y-117326439D02*
X220339638Y-117516915D01*
X220339638Y-117516915D02*
X220339638Y-117897868D01*
X220339638Y-117897868D02*
X220244400Y-118088344D01*
X220244400Y-118088344D02*
X220053923Y-118183582D01*
X220053923Y-118183582D02*
X219292019Y-118183582D01*
X219292019Y-118183582D02*
X219101542Y-118088344D01*
X219101542Y-118088344D02*
X219006304Y-117897868D01*
X219006304Y-117897868D02*
X219006304Y-117516915D01*
X219006304Y-117516915D02*
X219101542Y-117326439D01*
X219101542Y-117326439D02*
X219292019Y-117231201D01*
X219292019Y-117231201D02*
X219482495Y-117231201D01*
X219482495Y-117231201D02*
X219672971Y-118183582D01*
X219006304Y-116564534D02*
X220339638Y-116088344D01*
X220339638Y-116088344D02*
X219006304Y-115612153D01*
X220339638Y-113802629D02*
X220339638Y-114945486D01*
X220339638Y-114374058D02*
X218339638Y-114374058D01*
X218339638Y-114374058D02*
X218625352Y-114564534D01*
X218625352Y-114564534D02*
X218815828Y-114755010D01*
X218815828Y-114755010D02*
X218911066Y-114945486D01*
D11*
X141347116Y-103039500D02*
X141347116Y-99039500D01*
X141347116Y-99039500D02*
X142299497Y-99039500D01*
X142299497Y-99039500D02*
X142870926Y-99229976D01*
X142870926Y-99229976D02*
X143251878Y-99610928D01*
X143251878Y-99610928D02*
X143442355Y-99991881D01*
X143442355Y-99991881D02*
X143632831Y-100753785D01*
X143632831Y-100753785D02*
X143632831Y-101325214D01*
X143632831Y-101325214D02*
X143442355Y-102087119D01*
X143442355Y-102087119D02*
X143251878Y-102468071D01*
X143251878Y-102468071D02*
X142870926Y-102849024D01*
X142870926Y-102849024D02*
X142299497Y-103039500D01*
X142299497Y-103039500D02*
X141347116Y-103039500D01*
X145156640Y-101896643D02*
X147061402Y-101896643D01*
X144775688Y-103039500D02*
X146109021Y-99039500D01*
X146109021Y-99039500D02*
X147442355Y-103039500D01*
X148775687Y-103039500D02*
X148775687Y-99039500D01*
X148775687Y-99039500D02*
X151061402Y-103039500D01*
X151061402Y-103039500D02*
X151061402Y-99039500D01*
X155061402Y-99229976D02*
X154680449Y-99039500D01*
X154680449Y-99039500D02*
X154109021Y-99039500D01*
X154109021Y-99039500D02*
X153537592Y-99229976D01*
X153537592Y-99229976D02*
X153156640Y-99610928D01*
X153156640Y-99610928D02*
X152966163Y-99991881D01*
X152966163Y-99991881D02*
X152775687Y-100753785D01*
X152775687Y-100753785D02*
X152775687Y-101325214D01*
X152775687Y-101325214D02*
X152966163Y-102087119D01*
X152966163Y-102087119D02*
X153156640Y-102468071D01*
X153156640Y-102468071D02*
X153537592Y-102849024D01*
X153537592Y-102849024D02*
X154109021Y-103039500D01*
X154109021Y-103039500D02*
X154489973Y-103039500D01*
X154489973Y-103039500D02*
X155061402Y-102849024D01*
X155061402Y-102849024D02*
X155251878Y-102658547D01*
X155251878Y-102658547D02*
X155251878Y-101325214D01*
X155251878Y-101325214D02*
X154489973Y-101325214D01*
X156966163Y-100944262D02*
X158299497Y-100944262D01*
X158870925Y-103039500D02*
X156966163Y-103039500D01*
X156966163Y-103039500D02*
X156966163Y-99039500D01*
X156966163Y-99039500D02*
X158870925Y-99039500D01*
X162870926Y-103039500D02*
X161537592Y-101134738D01*
X160585211Y-103039500D02*
X160585211Y-99039500D01*
X160585211Y-99039500D02*
X162109021Y-99039500D01*
X162109021Y-99039500D02*
X162489973Y-99229976D01*
X162489973Y-99229976D02*
X162680450Y-99420452D01*
X162680450Y-99420452D02*
X162870926Y-99801404D01*
X162870926Y-99801404D02*
X162870926Y-100372833D01*
X162870926Y-100372833D02*
X162680450Y-100753785D01*
X162680450Y-100753785D02*
X162489973Y-100944262D01*
X162489973Y-100944262D02*
X162109021Y-101134738D01*
X162109021Y-101134738D02*
X160585211Y-101134738D01*
X141156640Y-105860228D02*
X141347116Y-105669752D01*
X141347116Y-105669752D02*
X141728069Y-105479276D01*
X141728069Y-105479276D02*
X142680450Y-105479276D01*
X142680450Y-105479276D02*
X143061402Y-105669752D01*
X143061402Y-105669752D02*
X143251878Y-105860228D01*
X143251878Y-105860228D02*
X143442355Y-106241180D01*
X143442355Y-106241180D02*
X143442355Y-106622133D01*
X143442355Y-106622133D02*
X143251878Y-107193561D01*
X143251878Y-107193561D02*
X140966164Y-109479276D01*
X140966164Y-109479276D02*
X143442355Y-109479276D01*
X144775688Y-105479276D02*
X147251879Y-105479276D01*
X147251879Y-105479276D02*
X145918545Y-107003085D01*
X145918545Y-107003085D02*
X146489974Y-107003085D01*
X146489974Y-107003085D02*
X146870926Y-107193561D01*
X146870926Y-107193561D02*
X147061402Y-107384038D01*
X147061402Y-107384038D02*
X147251879Y-107764990D01*
X147251879Y-107764990D02*
X147251879Y-108717371D01*
X147251879Y-108717371D02*
X147061402Y-109098323D01*
X147061402Y-109098323D02*
X146870926Y-109288800D01*
X146870926Y-109288800D02*
X146489974Y-109479276D01*
X146489974Y-109479276D02*
X145347117Y-109479276D01*
X145347117Y-109479276D02*
X144966164Y-109288800D01*
X144966164Y-109288800D02*
X144775688Y-109098323D01*
X149728069Y-105479276D02*
X150109022Y-105479276D01*
X150109022Y-105479276D02*
X150489974Y-105669752D01*
X150489974Y-105669752D02*
X150680450Y-105860228D01*
X150680450Y-105860228D02*
X150870926Y-106241180D01*
X150870926Y-106241180D02*
X151061403Y-107003085D01*
X151061403Y-107003085D02*
X151061403Y-107955466D01*
X151061403Y-107955466D02*
X150870926Y-108717371D01*
X150870926Y-108717371D02*
X150680450Y-109098323D01*
X150680450Y-109098323D02*
X150489974Y-109288800D01*
X150489974Y-109288800D02*
X150109022Y-109479276D01*
X150109022Y-109479276D02*
X149728069Y-109479276D01*
X149728069Y-109479276D02*
X149347117Y-109288800D01*
X149347117Y-109288800D02*
X149156641Y-109098323D01*
X149156641Y-109098323D02*
X148966164Y-108717371D01*
X148966164Y-108717371D02*
X148775688Y-107955466D01*
X148775688Y-107955466D02*
X148775688Y-107003085D01*
X148775688Y-107003085D02*
X148966164Y-106241180D01*
X148966164Y-106241180D02*
X149156641Y-105860228D01*
X149156641Y-105860228D02*
X149347117Y-105669752D01*
X149347117Y-105669752D02*
X149728069Y-105479276D01*
X155251879Y-105479276D02*
X156585212Y-109479276D01*
X156585212Y-109479276D02*
X157918546Y-105479276D01*
D12*
X171000000Y-113000000D02*
X125000000Y-113000000D01*
X186000000Y-98000000D02*
X171000000Y-113000000D01*
X186000000Y-49000000D02*
X186000000Y-98000000D01*
D13*
X131404318Y-78023332D02*
X132311461Y-78023332D01*
X132311461Y-78023332D02*
X132492889Y-78083809D01*
X132492889Y-78083809D02*
X132613842Y-78204761D01*
X132613842Y-78204761D02*
X132674318Y-78386190D01*
X132674318Y-78386190D02*
X132674318Y-78507142D01*
X132674318Y-76753332D02*
X132674318Y-77479047D01*
X132674318Y-77116190D02*
X131404318Y-77116190D01*
X131404318Y-77116190D02*
X131585746Y-77237142D01*
X131585746Y-77237142D02*
X131706699Y-77358094D01*
X131706699Y-77358094D02*
X131767175Y-77479047D01*
D14*
X149633333Y-141329580D02*
X149585714Y-141377200D01*
X149585714Y-141377200D02*
X149442857Y-141424819D01*
X149442857Y-141424819D02*
X149347619Y-141424819D01*
X149347619Y-141424819D02*
X149204762Y-141377200D01*
X149204762Y-141377200D02*
X149109524Y-141281961D01*
X149109524Y-141281961D02*
X149061905Y-141186723D01*
X149061905Y-141186723D02*
X149014286Y-140996247D01*
X149014286Y-140996247D02*
X149014286Y-140853390D01*
X149014286Y-140853390D02*
X149061905Y-140662914D01*
X149061905Y-140662914D02*
X149109524Y-140567676D01*
X149109524Y-140567676D02*
X149204762Y-140472438D01*
X149204762Y-140472438D02*
X149347619Y-140424819D01*
X149347619Y-140424819D02*
X149442857Y-140424819D01*
X149442857Y-140424819D02*
X149585714Y-140472438D01*
X149585714Y-140472438D02*
X149633333Y-140520057D01*
X150490476Y-140758152D02*
X150490476Y-141424819D01*
X150252381Y-140377200D02*
X150014286Y-141091485D01*
X150014286Y-141091485D02*
X150633333Y-141091485D01*
X173823333Y-122374819D02*
X173490000Y-121898628D01*
X173251905Y-122374819D02*
X173251905Y-121374819D01*
X173251905Y-121374819D02*
X173632857Y-121374819D01*
X173632857Y-121374819D02*
X173728095Y-121422438D01*
X173728095Y-121422438D02*
X173775714Y-121470057D01*
X173775714Y-121470057D02*
X173823333Y-121565295D01*
X173823333Y-121565295D02*
X173823333Y-121708152D01*
X173823333Y-121708152D02*
X173775714Y-121803390D01*
X173775714Y-121803390D02*
X173728095Y-121851009D01*
X173728095Y-121851009D02*
X173632857Y-121898628D01*
X173632857Y-121898628D02*
X173251905Y-121898628D01*
X174299524Y-122374819D02*
X174490000Y-122374819D01*
X174490000Y-122374819D02*
X174585238Y-122327200D01*
X174585238Y-122327200D02*
X174632857Y-122279580D01*
X174632857Y-122279580D02*
X174728095Y-122136723D01*
X174728095Y-122136723D02*
X174775714Y-121946247D01*
X174775714Y-121946247D02*
X174775714Y-121565295D01*
X174775714Y-121565295D02*
X174728095Y-121470057D01*
X174728095Y-121470057D02*
X174680476Y-121422438D01*
X174680476Y-121422438D02*
X174585238Y-121374819D01*
X174585238Y-121374819D02*
X174394762Y-121374819D01*
X174394762Y-121374819D02*
X174299524Y-121422438D01*
X174299524Y-121422438D02*
X174251905Y-121470057D01*
X174251905Y-121470057D02*
X174204286Y-121565295D01*
X174204286Y-121565295D02*
X174204286Y-121803390D01*
X174204286Y-121803390D02*
X174251905Y-121898628D01*
X174251905Y-121898628D02*
X174299524Y-121946247D01*
X174299524Y-121946247D02*
X174394762Y-121993866D01*
X174394762Y-121993866D02*
X174585238Y-121993866D01*
X174585238Y-121993866D02*
X174680476Y-121946247D01*
X174680476Y-121946247D02*
X174728095Y-121898628D01*
X174728095Y-121898628D02*
X174775714Y-121803390D01*
X212099374Y-83029580D02*
X212051755Y-83077200D01*
X212051755Y-83077200D02*
X211908898Y-83124819D01*
X211908898Y-83124819D02*
X211813660Y-83124819D01*
X211813660Y-83124819D02*
X211670803Y-83077200D01*
X211670803Y-83077200D02*
X211575565Y-82981961D01*
X211575565Y-82981961D02*
X211527946Y-82886723D01*
X211527946Y-82886723D02*
X211480327Y-82696247D01*
X211480327Y-82696247D02*
X211480327Y-82553390D01*
X211480327Y-82553390D02*
X211527946Y-82362914D01*
X211527946Y-82362914D02*
X211575565Y-82267676D01*
X211575565Y-82267676D02*
X211670803Y-82172438D01*
X211670803Y-82172438D02*
X211813660Y-82124819D01*
X211813660Y-82124819D02*
X211908898Y-82124819D01*
X211908898Y-82124819D02*
X212051755Y-82172438D01*
X212051755Y-82172438D02*
X212099374Y-82220057D01*
X212480327Y-82220057D02*
X212527946Y-82172438D01*
X212527946Y-82172438D02*
X212623184Y-82124819D01*
X212623184Y-82124819D02*
X212861279Y-82124819D01*
X212861279Y-82124819D02*
X212956517Y-82172438D01*
X212956517Y-82172438D02*
X213004136Y-82220057D01*
X213004136Y-82220057D02*
X213051755Y-82315295D01*
X213051755Y-82315295D02*
X213051755Y-82410533D01*
X213051755Y-82410533D02*
X213004136Y-82553390D01*
X213004136Y-82553390D02*
X212432708Y-83124819D01*
X212432708Y-83124819D02*
X213051755Y-83124819D01*
X173251905Y-118814819D02*
X173251905Y-117814819D01*
X173251905Y-117814819D02*
X173490000Y-117814819D01*
X173490000Y-117814819D02*
X173632857Y-117862438D01*
X173632857Y-117862438D02*
X173728095Y-117957676D01*
X173728095Y-117957676D02*
X173775714Y-118052914D01*
X173775714Y-118052914D02*
X173823333Y-118243390D01*
X173823333Y-118243390D02*
X173823333Y-118386247D01*
X173823333Y-118386247D02*
X173775714Y-118576723D01*
X173775714Y-118576723D02*
X173728095Y-118671961D01*
X173728095Y-118671961D02*
X173632857Y-118767200D01*
X173632857Y-118767200D02*
X173490000Y-118814819D01*
X173490000Y-118814819D02*
X173251905Y-118814819D01*
X174728095Y-117814819D02*
X174251905Y-117814819D01*
X174251905Y-117814819D02*
X174204286Y-118291009D01*
X174204286Y-118291009D02*
X174251905Y-118243390D01*
X174251905Y-118243390D02*
X174347143Y-118195771D01*
X174347143Y-118195771D02*
X174585238Y-118195771D01*
X174585238Y-118195771D02*
X174680476Y-118243390D01*
X174680476Y-118243390D02*
X174728095Y-118291009D01*
X174728095Y-118291009D02*
X174775714Y-118386247D01*
X174775714Y-118386247D02*
X174775714Y-118624342D01*
X174775714Y-118624342D02*
X174728095Y-118719580D01*
X174728095Y-118719580D02*
X174680476Y-118767200D01*
X174680476Y-118767200D02*
X174585238Y-118814819D01*
X174585238Y-118814819D02*
X174347143Y-118814819D01*
X174347143Y-118814819D02*
X174251905Y-118767200D01*
X174251905Y-118767200D02*
X174204286Y-118719580D01*
X168648095Y-116764819D02*
X168648095Y-115764819D01*
X169219523Y-116764819D02*
X168790952Y-116193390D01*
X169219523Y-115764819D02*
X168648095Y-116336247D01*
X156718095Y-136614819D02*
X156718095Y-137424342D01*
X156718095Y-137424342D02*
X156765714Y-137519580D01*
X156765714Y-137519580D02*
X156813333Y-137567200D01*
X156813333Y-137567200D02*
X156908571Y-137614819D01*
X156908571Y-137614819D02*
X157099047Y-137614819D01*
X157099047Y-137614819D02*
X157194285Y-137567200D01*
X157194285Y-137567200D02*
X157241904Y-137519580D01*
X157241904Y-137519580D02*
X157289523Y-137424342D01*
X157289523Y-137424342D02*
X157289523Y-136614819D01*
X158289523Y-137614819D02*
X157718095Y-137614819D01*
X158003809Y-137614819D02*
X158003809Y-136614819D01*
X158003809Y-136614819D02*
X157908571Y-136757676D01*
X157908571Y-136757676D02*
X157813333Y-136852914D01*
X157813333Y-136852914D02*
X157718095Y-136900533D01*
X179666666Y-135454819D02*
X179666666Y-136169104D01*
X179666666Y-136169104D02*
X179619047Y-136311961D01*
X179619047Y-136311961D02*
X179523809Y-136407200D01*
X179523809Y-136407200D02*
X179380952Y-136454819D01*
X179380952Y-136454819D02*
X179285714Y-136454819D01*
X180285714Y-135883390D02*
X180190476Y-135835771D01*
X180190476Y-135835771D02*
X180142857Y-135788152D01*
X180142857Y-135788152D02*
X180095238Y-135692914D01*
X180095238Y-135692914D02*
X180095238Y-135645295D01*
X180095238Y-135645295D02*
X180142857Y-135550057D01*
X180142857Y-135550057D02*
X180190476Y-135502438D01*
X180190476Y-135502438D02*
X180285714Y-135454819D01*
X180285714Y-135454819D02*
X180476190Y-135454819D01*
X180476190Y-135454819D02*
X180571428Y-135502438D01*
X180571428Y-135502438D02*
X180619047Y-135550057D01*
X180619047Y-135550057D02*
X180666666Y-135645295D01*
X180666666Y-135645295D02*
X180666666Y-135692914D01*
X180666666Y-135692914D02*
X180619047Y-135788152D01*
X180619047Y-135788152D02*
X180571428Y-135835771D01*
X180571428Y-135835771D02*
X180476190Y-135883390D01*
X180476190Y-135883390D02*
X180285714Y-135883390D01*
X180285714Y-135883390D02*
X180190476Y-135931009D01*
X180190476Y-135931009D02*
X180142857Y-135978628D01*
X180142857Y-135978628D02*
X180095238Y-136073866D01*
X180095238Y-136073866D02*
X180095238Y-136264342D01*
X180095238Y-136264342D02*
X180142857Y-136359580D01*
X180142857Y-136359580D02*
X180190476Y-136407200D01*
X180190476Y-136407200D02*
X180285714Y-136454819D01*
X180285714Y-136454819D02*
X180476190Y-136454819D01*
X180476190Y-136454819D02*
X180571428Y-136407200D01*
X180571428Y-136407200D02*
X180619047Y-136359580D01*
X180619047Y-136359580D02*
X180666666Y-136264342D01*
X180666666Y-136264342D02*
X180666666Y-136073866D01*
X180666666Y-136073866D02*
X180619047Y-135978628D01*
X180619047Y-135978628D02*
X180571428Y-135931009D01*
X180571428Y-135931009D02*
X180476190Y-135883390D01*
X173251905Y-125934819D02*
X173251905Y-124934819D01*
X173251905Y-124934819D02*
X173490000Y-124934819D01*
X173490000Y-124934819D02*
X173632857Y-124982438D01*
X173632857Y-124982438D02*
X173728095Y-125077676D01*
X173728095Y-125077676D02*
X173775714Y-125172914D01*
X173775714Y-125172914D02*
X173823333Y-125363390D01*
X173823333Y-125363390D02*
X173823333Y-125506247D01*
X173823333Y-125506247D02*
X173775714Y-125696723D01*
X173775714Y-125696723D02*
X173728095Y-125791961D01*
X173728095Y-125791961D02*
X173632857Y-125887200D01*
X173632857Y-125887200D02*
X173490000Y-125934819D01*
X173490000Y-125934819D02*
X173251905Y-125934819D01*
X174680476Y-124934819D02*
X174490000Y-124934819D01*
X174490000Y-124934819D02*
X174394762Y-124982438D01*
X174394762Y-124982438D02*
X174347143Y-125030057D01*
X174347143Y-125030057D02*
X174251905Y-125172914D01*
X174251905Y-125172914D02*
X174204286Y-125363390D01*
X174204286Y-125363390D02*
X174204286Y-125744342D01*
X174204286Y-125744342D02*
X174251905Y-125839580D01*
X174251905Y-125839580D02*
X174299524Y-125887200D01*
X174299524Y-125887200D02*
X174394762Y-125934819D01*
X174394762Y-125934819D02*
X174585238Y-125934819D01*
X174585238Y-125934819D02*
X174680476Y-125887200D01*
X174680476Y-125887200D02*
X174728095Y-125839580D01*
X174728095Y-125839580D02*
X174775714Y-125744342D01*
X174775714Y-125744342D02*
X174775714Y-125506247D01*
X174775714Y-125506247D02*
X174728095Y-125411009D01*
X174728095Y-125411009D02*
X174680476Y-125363390D01*
X174680476Y-125363390D02*
X174585238Y-125315771D01*
X174585238Y-125315771D02*
X174394762Y-125315771D01*
X174394762Y-125315771D02*
X174299524Y-125363390D01*
X174299524Y-125363390D02*
X174251905Y-125411009D01*
X174251905Y-125411009D02*
X174204286Y-125506247D01*
X178808095Y-127984819D02*
X178808095Y-126984819D01*
X179379523Y-127984819D02*
X178950952Y-127413390D01*
X179379523Y-126984819D02*
X178808095Y-127556247D01*
X217644819Y-108711904D02*
X218454342Y-108711904D01*
X218454342Y-108711904D02*
X218549580Y-108664285D01*
X218549580Y-108664285D02*
X218597200Y-108616666D01*
X218597200Y-108616666D02*
X218644819Y-108521428D01*
X218644819Y-108521428D02*
X218644819Y-108330952D01*
X218644819Y-108330952D02*
X218597200Y-108235714D01*
X218597200Y-108235714D02*
X218549580Y-108188095D01*
X218549580Y-108188095D02*
X218454342Y-108140476D01*
X218454342Y-108140476D02*
X217644819Y-108140476D01*
X217740057Y-107711904D02*
X217692438Y-107664285D01*
X217692438Y-107664285D02*
X217644819Y-107569047D01*
X217644819Y-107569047D02*
X217644819Y-107330952D01*
X217644819Y-107330952D02*
X217692438Y-107235714D01*
X217692438Y-107235714D02*
X217740057Y-107188095D01*
X217740057Y-107188095D02*
X217835295Y-107140476D01*
X217835295Y-107140476D02*
X217930533Y-107140476D01*
X217930533Y-107140476D02*
X218073390Y-107188095D01*
X218073390Y-107188095D02*
X218644819Y-107759523D01*
X218644819Y-107759523D02*
X218644819Y-107140476D01*
X214824819Y-74398094D02*
X213824819Y-74398094D01*
X213824819Y-74398094D02*
X213824819Y-74159999D01*
X213824819Y-74159999D02*
X213872438Y-74017142D01*
X213872438Y-74017142D02*
X213967676Y-73921904D01*
X213967676Y-73921904D02*
X214062914Y-73874285D01*
X214062914Y-73874285D02*
X214253390Y-73826666D01*
X214253390Y-73826666D02*
X214396247Y-73826666D01*
X214396247Y-73826666D02*
X214586723Y-73874285D01*
X214586723Y-73874285D02*
X214681961Y-73921904D01*
X214681961Y-73921904D02*
X214777200Y-74017142D01*
X214777200Y-74017142D02*
X214824819Y-74159999D01*
X214824819Y-74159999D02*
X214824819Y-74398094D01*
X213920057Y-73445713D02*
X213872438Y-73398094D01*
X213872438Y-73398094D02*
X213824819Y-73302856D01*
X213824819Y-73302856D02*
X213824819Y-73064761D01*
X213824819Y-73064761D02*
X213872438Y-72969523D01*
X213872438Y-72969523D02*
X213920057Y-72921904D01*
X213920057Y-72921904D02*
X214015295Y-72874285D01*
X214015295Y-72874285D02*
X214110533Y-72874285D01*
X214110533Y-72874285D02*
X214253390Y-72921904D01*
X214253390Y-72921904D02*
X214824819Y-73493332D01*
X214824819Y-73493332D02*
X214824819Y-72874285D01*
X216624819Y-68841904D02*
X215624819Y-68841904D01*
X216624819Y-68270476D02*
X216053390Y-68699047D01*
X215624819Y-68270476D02*
X216196247Y-68841904D01*
X191825714Y-135924819D02*
X191825714Y-134924819D01*
X191825714Y-134924819D02*
X192063809Y-134924819D01*
X192063809Y-134924819D02*
X192206666Y-134972438D01*
X192206666Y-134972438D02*
X192301904Y-135067676D01*
X192301904Y-135067676D02*
X192349523Y-135162914D01*
X192349523Y-135162914D02*
X192397142Y-135353390D01*
X192397142Y-135353390D02*
X192397142Y-135496247D01*
X192397142Y-135496247D02*
X192349523Y-135686723D01*
X192349523Y-135686723D02*
X192301904Y-135781961D01*
X192301904Y-135781961D02*
X192206666Y-135877200D01*
X192206666Y-135877200D02*
X192063809Y-135924819D01*
X192063809Y-135924819D02*
X191825714Y-135924819D01*
X193349523Y-135924819D02*
X192778095Y-135924819D01*
X193063809Y-135924819D02*
X193063809Y-134924819D01*
X193063809Y-134924819D02*
X192968571Y-135067676D01*
X192968571Y-135067676D02*
X192873333Y-135162914D01*
X192873333Y-135162914D02*
X192778095Y-135210533D01*
X194206666Y-134924819D02*
X194016190Y-134924819D01*
X194016190Y-134924819D02*
X193920952Y-134972438D01*
X193920952Y-134972438D02*
X193873333Y-135020057D01*
X193873333Y-135020057D02*
X193778095Y-135162914D01*
X193778095Y-135162914D02*
X193730476Y-135353390D01*
X193730476Y-135353390D02*
X193730476Y-135734342D01*
X193730476Y-135734342D02*
X193778095Y-135829580D01*
X193778095Y-135829580D02*
X193825714Y-135877200D01*
X193825714Y-135877200D02*
X193920952Y-135924819D01*
X193920952Y-135924819D02*
X194111428Y-135924819D01*
X194111428Y-135924819D02*
X194206666Y-135877200D01*
X194206666Y-135877200D02*
X194254285Y-135829580D01*
X194254285Y-135829580D02*
X194301904Y-135734342D01*
X194301904Y-135734342D02*
X194301904Y-135496247D01*
X194301904Y-135496247D02*
X194254285Y-135401009D01*
X194254285Y-135401009D02*
X194206666Y-135353390D01*
X194206666Y-135353390D02*
X194111428Y-135305771D01*
X194111428Y-135305771D02*
X193920952Y-135305771D01*
X193920952Y-135305771D02*
X193825714Y-135353390D01*
X193825714Y-135353390D02*
X193778095Y-135401009D01*
X193778095Y-135401009D02*
X193730476Y-135496247D01*
X201287142Y-141254819D02*
X200953809Y-140778628D01*
X200715714Y-141254819D02*
X200715714Y-140254819D01*
X200715714Y-140254819D02*
X201096666Y-140254819D01*
X201096666Y-140254819D02*
X201191904Y-140302438D01*
X201191904Y-140302438D02*
X201239523Y-140350057D01*
X201239523Y-140350057D02*
X201287142Y-140445295D01*
X201287142Y-140445295D02*
X201287142Y-140588152D01*
X201287142Y-140588152D02*
X201239523Y-140683390D01*
X201239523Y-140683390D02*
X201191904Y-140731009D01*
X201191904Y-140731009D02*
X201096666Y-140778628D01*
X201096666Y-140778628D02*
X200715714Y-140778628D01*
X202239523Y-141254819D02*
X201668095Y-141254819D01*
X201953809Y-141254819D02*
X201953809Y-140254819D01*
X201953809Y-140254819D02*
X201858571Y-140397676D01*
X201858571Y-140397676D02*
X201763333Y-140492914D01*
X201763333Y-140492914D02*
X201668095Y-140540533D01*
X202620476Y-140350057D02*
X202668095Y-140302438D01*
X202668095Y-140302438D02*
X202763333Y-140254819D01*
X202763333Y-140254819D02*
X203001428Y-140254819D01*
X203001428Y-140254819D02*
X203096666Y-140302438D01*
X203096666Y-140302438D02*
X203144285Y-140350057D01*
X203144285Y-140350057D02*
X203191904Y-140445295D01*
X203191904Y-140445295D02*
X203191904Y-140540533D01*
X203191904Y-140540533D02*
X203144285Y-140683390D01*
X203144285Y-140683390D02*
X202572857Y-141254819D01*
X202572857Y-141254819D02*
X203191904Y-141254819D01*
X218374819Y-74398094D02*
X217374819Y-74398094D01*
X217374819Y-74398094D02*
X217374819Y-74159999D01*
X217374819Y-74159999D02*
X217422438Y-74017142D01*
X217422438Y-74017142D02*
X217517676Y-73921904D01*
X217517676Y-73921904D02*
X217612914Y-73874285D01*
X217612914Y-73874285D02*
X217803390Y-73826666D01*
X217803390Y-73826666D02*
X217946247Y-73826666D01*
X217946247Y-73826666D02*
X218136723Y-73874285D01*
X218136723Y-73874285D02*
X218231961Y-73921904D01*
X218231961Y-73921904D02*
X218327200Y-74017142D01*
X218327200Y-74017142D02*
X218374819Y-74159999D01*
X218374819Y-74159999D02*
X218374819Y-74398094D01*
X218374819Y-72874285D02*
X218374819Y-73445713D01*
X218374819Y-73159999D02*
X217374819Y-73159999D01*
X217374819Y-73159999D02*
X217517676Y-73255237D01*
X217517676Y-73255237D02*
X217612914Y-73350475D01*
X217612914Y-73350475D02*
X217660533Y-73445713D01*
X216574819Y-79001904D02*
X215574819Y-79001904D01*
X216574819Y-78430476D02*
X216003390Y-78859047D01*
X215574819Y-78430476D02*
X216146247Y-79001904D01*
X211274819Y-74398094D02*
X210274819Y-74398094D01*
X210274819Y-74398094D02*
X210274819Y-74159999D01*
X210274819Y-74159999D02*
X210322438Y-74017142D01*
X210322438Y-74017142D02*
X210417676Y-73921904D01*
X210417676Y-73921904D02*
X210512914Y-73874285D01*
X210512914Y-73874285D02*
X210703390Y-73826666D01*
X210703390Y-73826666D02*
X210846247Y-73826666D01*
X210846247Y-73826666D02*
X211036723Y-73874285D01*
X211036723Y-73874285D02*
X211131961Y-73921904D01*
X211131961Y-73921904D02*
X211227200Y-74017142D01*
X211227200Y-74017142D02*
X211274819Y-74159999D01*
X211274819Y-74159999D02*
X211274819Y-74398094D01*
X210274819Y-73493332D02*
X210274819Y-72874285D01*
X210274819Y-72874285D02*
X210655771Y-73207618D01*
X210655771Y-73207618D02*
X210655771Y-73064761D01*
X210655771Y-73064761D02*
X210703390Y-72969523D01*
X210703390Y-72969523D02*
X210751009Y-72921904D01*
X210751009Y-72921904D02*
X210846247Y-72874285D01*
X210846247Y-72874285D02*
X211084342Y-72874285D01*
X211084342Y-72874285D02*
X211179580Y-72921904D01*
X211179580Y-72921904D02*
X211227200Y-72969523D01*
X211227200Y-72969523D02*
X211274819Y-73064761D01*
X211274819Y-73064761D02*
X211274819Y-73350475D01*
X211274819Y-73350475D02*
X211227200Y-73445713D01*
X211227200Y-73445713D02*
X211179580Y-73493332D01*
X213074819Y-68841904D02*
X212074819Y-68841904D01*
X213074819Y-68270476D02*
X212503390Y-68699047D01*
X212074819Y-68270476D02*
X212646247Y-68841904D01*
X179738095Y-49024819D02*
X180309523Y-49024819D01*
X180023809Y-50024819D02*
X180023809Y-49024819D01*
X181214285Y-50024819D02*
X180880952Y-49548628D01*
X180642857Y-50024819D02*
X180642857Y-49024819D01*
X180642857Y-49024819D02*
X181023809Y-49024819D01*
X181023809Y-49024819D02*
X181119047Y-49072438D01*
X181119047Y-49072438D02*
X181166666Y-49120057D01*
X181166666Y-49120057D02*
X181214285Y-49215295D01*
X181214285Y-49215295D02*
X181214285Y-49358152D01*
X181214285Y-49358152D02*
X181166666Y-49453390D01*
X181166666Y-49453390D02*
X181119047Y-49501009D01*
X181119047Y-49501009D02*
X181023809Y-49548628D01*
X181023809Y-49548628D02*
X180642857Y-49548628D01*
X182166666Y-50024819D02*
X181595238Y-50024819D01*
X181880952Y-50024819D02*
X181880952Y-49024819D01*
X181880952Y-49024819D02*
X181785714Y-49167676D01*
X181785714Y-49167676D02*
X181690476Y-49262914D01*
X181690476Y-49262914D02*
X181595238Y-49310533D01*
X165454819Y-74509523D02*
X164454819Y-74509523D01*
X164454819Y-74509523D02*
X164454819Y-74128571D01*
X164454819Y-74128571D02*
X164502438Y-74033333D01*
X164502438Y-74033333D02*
X164550057Y-73985714D01*
X164550057Y-73985714D02*
X164645295Y-73938095D01*
X164645295Y-73938095D02*
X164788152Y-73938095D01*
X164788152Y-73938095D02*
X164883390Y-73985714D01*
X164883390Y-73985714D02*
X164931009Y-74033333D01*
X164931009Y-74033333D02*
X164978628Y-74128571D01*
X164978628Y-74128571D02*
X164978628Y-74509523D01*
X165454819Y-73509523D02*
X164788152Y-73509523D01*
X164978628Y-73509523D02*
X164883390Y-73461904D01*
X164883390Y-73461904D02*
X164835771Y-73414285D01*
X164835771Y-73414285D02*
X164788152Y-73319047D01*
X164788152Y-73319047D02*
X164788152Y-73223809D01*
X165454819Y-72890475D02*
X164788152Y-72890475D01*
X164454819Y-72890475D02*
X164502438Y-72938094D01*
X164502438Y-72938094D02*
X164550057Y-72890475D01*
X164550057Y-72890475D02*
X164502438Y-72842856D01*
X164502438Y-72842856D02*
X164454819Y-72890475D01*
X164454819Y-72890475D02*
X164550057Y-72890475D01*
X168785714Y-88154819D02*
X168214286Y-88154819D01*
X168500000Y-88154819D02*
X168500000Y-87154819D01*
X168500000Y-87154819D02*
X168404762Y-87297676D01*
X168404762Y-87297676D02*
X168309524Y-87392914D01*
X168309524Y-87392914D02*
X168214286Y-87440533D01*
X165459580Y-125836666D02*
X165507200Y-125884285D01*
X165507200Y-125884285D02*
X165554819Y-126027142D01*
X165554819Y-126027142D02*
X165554819Y-126122380D01*
X165554819Y-126122380D02*
X165507200Y-126265237D01*
X165507200Y-126265237D02*
X165411961Y-126360475D01*
X165411961Y-126360475D02*
X165316723Y-126408094D01*
X165316723Y-126408094D02*
X165126247Y-126455713D01*
X165126247Y-126455713D02*
X164983390Y-126455713D01*
X164983390Y-126455713D02*
X164792914Y-126408094D01*
X164792914Y-126408094D02*
X164697676Y-126360475D01*
X164697676Y-126360475D02*
X164602438Y-126265237D01*
X164602438Y-126265237D02*
X164554819Y-126122380D01*
X164554819Y-126122380D02*
X164554819Y-126027142D01*
X164554819Y-126027142D02*
X164602438Y-125884285D01*
X164602438Y-125884285D02*
X164650057Y-125836666D01*
X165554819Y-124884285D02*
X165554819Y-125455713D01*
X165554819Y-125169999D02*
X164554819Y-125169999D01*
X164554819Y-125169999D02*
X164697676Y-125265237D01*
X164697676Y-125265237D02*
X164792914Y-125360475D01*
X164792914Y-125360475D02*
X164840533Y-125455713D01*
X207724819Y-74398094D02*
X206724819Y-74398094D01*
X206724819Y-74398094D02*
X206724819Y-74159999D01*
X206724819Y-74159999D02*
X206772438Y-74017142D01*
X206772438Y-74017142D02*
X206867676Y-73921904D01*
X206867676Y-73921904D02*
X206962914Y-73874285D01*
X206962914Y-73874285D02*
X207153390Y-73826666D01*
X207153390Y-73826666D02*
X207296247Y-73826666D01*
X207296247Y-73826666D02*
X207486723Y-73874285D01*
X207486723Y-73874285D02*
X207581961Y-73921904D01*
X207581961Y-73921904D02*
X207677200Y-74017142D01*
X207677200Y-74017142D02*
X207724819Y-74159999D01*
X207724819Y-74159999D02*
X207724819Y-74398094D01*
X207058152Y-72969523D02*
X207724819Y-72969523D01*
X206677200Y-73207618D02*
X207391485Y-73445713D01*
X207391485Y-73445713D02*
X207391485Y-72826666D01*
X205924819Y-79001904D02*
X204924819Y-79001904D01*
X205924819Y-78430476D02*
X205353390Y-78859047D01*
X204924819Y-78430476D02*
X205496247Y-79001904D01*
X207019374Y-117319580D02*
X206971755Y-117367200D01*
X206971755Y-117367200D02*
X206828898Y-117414819D01*
X206828898Y-117414819D02*
X206733660Y-117414819D01*
X206733660Y-117414819D02*
X206590803Y-117367200D01*
X206590803Y-117367200D02*
X206495565Y-117271961D01*
X206495565Y-117271961D02*
X206447946Y-117176723D01*
X206447946Y-117176723D02*
X206400327Y-116986247D01*
X206400327Y-116986247D02*
X206400327Y-116843390D01*
X206400327Y-116843390D02*
X206447946Y-116652914D01*
X206447946Y-116652914D02*
X206495565Y-116557676D01*
X206495565Y-116557676D02*
X206590803Y-116462438D01*
X206590803Y-116462438D02*
X206733660Y-116414819D01*
X206733660Y-116414819D02*
X206828898Y-116414819D01*
X206828898Y-116414819D02*
X206971755Y-116462438D01*
X206971755Y-116462438D02*
X207019374Y-116510057D01*
X207352708Y-116414819D02*
X207971755Y-116414819D01*
X207971755Y-116414819D02*
X207638422Y-116795771D01*
X207638422Y-116795771D02*
X207781279Y-116795771D01*
X207781279Y-116795771D02*
X207876517Y-116843390D01*
X207876517Y-116843390D02*
X207924136Y-116891009D01*
X207924136Y-116891009D02*
X207971755Y-116986247D01*
X207971755Y-116986247D02*
X207971755Y-117224342D01*
X207971755Y-117224342D02*
X207924136Y-117319580D01*
X207924136Y-117319580D02*
X207876517Y-117367200D01*
X207876517Y-117367200D02*
X207781279Y-117414819D01*
X207781279Y-117414819D02*
X207495565Y-117414819D01*
X207495565Y-117414819D02*
X207400327Y-117367200D01*
X207400327Y-117367200D02*
X207352708Y-117319580D01*
D15*
%TO.C,G\u002A\u002A\u002A*%
G36*
X169115233Y-99174802D02*
G01*
X169124982Y-99175822D01*
X169231340Y-99199476D01*
X169318122Y-99238341D01*
X169334717Y-99250854D01*
X169361694Y-99286740D01*
X169412525Y-99367535D01*
X169487782Y-99494273D01*
X169588039Y-99667984D01*
X169713866Y-99889699D01*
X169865835Y-100160450D01*
X170044519Y-100481268D01*
X170250490Y-100853184D01*
X170484318Y-101277229D01*
X170746578Y-101754435D01*
X171037839Y-102285832D01*
X171358674Y-102872453D01*
X171709656Y-103515328D01*
X172091356Y-104215489D01*
X172264478Y-104533333D01*
X172317300Y-104630209D01*
X172395014Y-104772570D01*
X172490505Y-104947392D01*
X172596662Y-105141654D01*
X172706371Y-105342334D01*
X172719677Y-105366666D01*
X172823186Y-105556826D01*
X172917934Y-105732524D01*
X172998407Y-105883409D01*
X173059096Y-105999130D01*
X173094488Y-106069337D01*
X173098691Y-106078459D01*
X173125239Y-106216803D01*
X173092540Y-106357787D01*
X173004884Y-106483599D01*
X172999948Y-106488396D01*
X172900709Y-106583333D01*
X169406662Y-106583915D01*
X168919002Y-106583830D01*
X168443132Y-106583425D01*
X167984181Y-106582722D01*
X167547274Y-106581743D01*
X167137538Y-106580509D01*
X166760100Y-106579042D01*
X166420085Y-106577364D01*
X166122619Y-106575497D01*
X165872831Y-106573462D01*
X165675845Y-106571281D01*
X165536788Y-106568976D01*
X165475325Y-106567248D01*
X165282106Y-106557983D01*
X165142690Y-106545503D01*
X165044124Y-106526227D01*
X164973459Y-106496573D01*
X164917742Y-106452959D01*
X164870641Y-106400000D01*
X164843374Y-106334710D01*
X164829357Y-106239494D01*
X164828920Y-106223585D01*
X164835470Y-106165089D01*
X164841730Y-106144947D01*
X165295138Y-106144947D01*
X165327803Y-106145844D01*
X165422954Y-106146902D01*
X165576321Y-106148101D01*
X165783634Y-106149420D01*
X166040626Y-106150839D01*
X166343027Y-106152339D01*
X166686568Y-106153900D01*
X167066981Y-106155500D01*
X167479995Y-106157121D01*
X167921343Y-106158741D01*
X168386755Y-106160342D01*
X168871963Y-106161902D01*
X168952200Y-106162150D01*
X172609262Y-106173381D01*
X172518965Y-105995024D01*
X172460599Y-105882761D01*
X172383149Y-105737838D01*
X172300261Y-105585694D01*
X172271317Y-105533333D01*
X172208735Y-105419740D01*
X172121670Y-105260438D01*
X172017210Y-105068462D01*
X171902440Y-104856843D01*
X171784448Y-104638614D01*
X171736647Y-104550000D01*
X171613551Y-104322197D01*
X171467825Y-104053428D01*
X171308971Y-103761160D01*
X171146490Y-103462863D01*
X170989885Y-103176004D01*
X170884445Y-102983333D01*
X170737582Y-102715122D01*
X170568939Y-102406833D01*
X170388621Y-102076956D01*
X170206733Y-101743983D01*
X170033379Y-101426406D01*
X169891719Y-101166666D01*
X169706439Y-100827055D01*
X169550431Y-100541817D01*
X169421274Y-100306649D01*
X169316548Y-100117249D01*
X169233831Y-99969317D01*
X169170702Y-99858550D01*
X169124742Y-99780646D01*
X169093528Y-99731304D01*
X169074641Y-99706222D01*
X169066754Y-99700734D01*
X169043896Y-99728033D01*
X168997593Y-99800111D01*
X168936484Y-99903283D01*
X168914223Y-99942385D01*
X168858883Y-100039324D01*
X168772591Y-100188844D01*
X168658207Y-100386044D01*
X168518594Y-100626024D01*
X168356612Y-100903883D01*
X168175122Y-101214721D01*
X167976987Y-101553639D01*
X167765066Y-101915734D01*
X167542221Y-102296108D01*
X167311314Y-102689858D01*
X167075206Y-103092086D01*
X167070558Y-103100000D01*
X166926970Y-103344688D01*
X166772404Y-103608443D01*
X166610251Y-103885449D01*
X166443902Y-104169890D01*
X166276748Y-104455950D01*
X166112180Y-104737814D01*
X165953590Y-105009667D01*
X165804366Y-105265691D01*
X165667902Y-105500073D01*
X165547588Y-105706995D01*
X165446814Y-105880643D01*
X165368972Y-106015201D01*
X165317452Y-106104853D01*
X165295646Y-106143784D01*
X165295138Y-106144947D01*
X164841730Y-106144947D01*
X164858718Y-106090281D01*
X164902722Y-105990543D01*
X164971536Y-105857259D01*
X165069218Y-105681813D01*
X165150593Y-105540252D01*
X165268115Y-105337141D01*
X165389873Y-105126170D01*
X165505809Y-104924799D01*
X165605868Y-104750492D01*
X165664600Y-104647750D01*
X165742735Y-104511984D01*
X165845991Y-104334502D01*
X165965273Y-104130830D01*
X166091486Y-103916495D01*
X166215536Y-103707025D01*
X166221048Y-103697750D01*
X166448376Y-103314282D01*
X166701160Y-102886142D01*
X166971683Y-102426508D01*
X167252226Y-101948559D01*
X167535070Y-101465473D01*
X167812497Y-100990429D01*
X168076788Y-100536605D01*
X168320225Y-100117179D01*
X168479298Y-99842079D01*
X168610436Y-99619368D01*
X168717789Y-99449803D01*
X168807570Y-99326974D01*
X168885993Y-99244470D01*
X168959269Y-99195880D01*
X169033611Y-99174794D01*
X169115233Y-99174802D01*
G37*
G36*
X169053117Y-101172174D02*
G01*
X169198331Y-101179473D01*
X169317684Y-101189096D01*
X169396042Y-101199611D01*
X169418403Y-101206742D01*
X169412537Y-101242336D01*
X169384845Y-101331531D01*
X169338281Y-101466029D01*
X169275804Y-101637531D01*
X169200370Y-101837736D01*
X169115865Y-102055975D01*
X169025678Y-102285956D01*
X168940245Y-102503813D01*
X168863588Y-102699286D01*
X168799731Y-102862113D01*
X168752699Y-102982034D01*
X168728625Y-103043410D01*
X168665826Y-103203487D01*
X168874635Y-103087994D01*
X169140864Y-102940914D01*
X169354215Y-102823491D01*
X169520075Y-102732843D01*
X169643831Y-102666090D01*
X169730868Y-102620351D01*
X169786573Y-102592745D01*
X169816332Y-102580393D01*
X169825157Y-102579629D01*
X169819294Y-102612372D01*
X169799407Y-102701037D01*
X169767640Y-102836863D01*
X169726139Y-103011092D01*
X169677051Y-103214964D01*
X169622520Y-103439719D01*
X169564693Y-103676598D01*
X169505714Y-103916842D01*
X169447730Y-104151689D01*
X169392886Y-104372383D01*
X169343328Y-104570161D01*
X169301200Y-104736266D01*
X169268650Y-104861937D01*
X169247822Y-104938415D01*
X169245368Y-104946657D01*
X169240313Y-104979432D01*
X169261392Y-104983453D01*
X169320290Y-104956588D01*
X169385077Y-104921170D01*
X169474426Y-104874003D01*
X169536692Y-104846218D01*
X169554629Y-104842789D01*
X169540648Y-104872272D01*
X169495400Y-104945273D01*
X169426312Y-105050981D01*
X169340807Y-105178587D01*
X169246311Y-105317281D01*
X169150249Y-105456255D01*
X169060044Y-105584699D01*
X168983123Y-105691802D01*
X168926910Y-105766756D01*
X168898829Y-105798752D01*
X168897693Y-105799191D01*
X168883761Y-105768861D01*
X168857427Y-105684525D01*
X168821769Y-105557028D01*
X168779862Y-105397214D01*
X168751075Y-105282536D01*
X168708880Y-105106247D01*
X168674832Y-104953470D01*
X168651248Y-104835508D01*
X168640447Y-104763664D01*
X168641270Y-104747148D01*
X168674365Y-104756334D01*
X168737964Y-104800007D01*
X168775736Y-104831393D01*
X168892255Y-104933563D01*
X168914837Y-104775114D01*
X168927622Y-104690281D01*
X168948979Y-104553946D01*
X168976635Y-104380387D01*
X169008318Y-104183885D01*
X169035464Y-104017141D01*
X169066902Y-103821953D01*
X169094160Y-103647075D01*
X169115499Y-103504132D01*
X169129180Y-103404746D01*
X169133508Y-103361956D01*
X169118581Y-103349639D01*
X169070187Y-103361394D01*
X168982908Y-103399691D01*
X168851329Y-103466999D01*
X168670031Y-103565788D01*
X168597161Y-103606393D01*
X168426703Y-103700518D01*
X168276899Y-103780862D01*
X168157126Y-103842590D01*
X168076761Y-103880868D01*
X168045266Y-103890963D01*
X168049782Y-103856373D01*
X168069086Y-103763932D01*
X168101575Y-103620415D01*
X168145650Y-103432598D01*
X168199710Y-103207257D01*
X168262154Y-102951166D01*
X168331382Y-102671101D01*
X168369727Y-102517458D01*
X168709735Y-101159479D01*
X169053117Y-101172174D01*
G37*
D16*
%TO.C,J1*%
X143250000Y-60600000D02*
X123950000Y-60600000D01*
X123950000Y-60600000D02*
X123950000Y-94600000D01*
X117950000Y-62650000D02*
X123950000Y-62650000D01*
X146250000Y-76600000D02*
X143250000Y-76600000D01*
X146250000Y-78600000D02*
X146250000Y-76600000D01*
X143250000Y-78600000D02*
X146250000Y-78600000D01*
X123950000Y-92550000D02*
X117950000Y-92550000D01*
X117950000Y-92550000D02*
X117950000Y-62650000D01*
X143250000Y-94600000D02*
X143250000Y-60600000D01*
X123950000Y-94600000D02*
X143250000Y-94600000D01*
D17*
X135450000Y-95100000D02*
X135450000Y-95100000D01*
X135450000Y-95200000D02*
X135450000Y-95200000D01*
X135450000Y-95100000D02*
G75*
G02*
X135450000Y-95200000I0J-50000D01*
G01*
X135450000Y-95200000D02*
G75*
G02*
X135450000Y-95100000I0J50000D01*
G01*
D18*
%TO.C,C4*%
X144680000Y-139600000D02*
X154920000Y-139600000D01*
X144680000Y-142340000D02*
X144680000Y-139600000D01*
X154920000Y-139600000D02*
X154920000Y-142340000D01*
X154920000Y-142340000D02*
X144680000Y-142340000D01*
%TO.C,R9*%
X169950000Y-121920000D02*
X170720000Y-121920000D01*
X178030000Y-121920000D02*
X177260000Y-121920000D01*
X170720000Y-120550000D02*
X177260000Y-120550000D01*
X177260000Y-123290000D01*
X170720000Y-123290000D01*
X170720000Y-120550000D01*
%TO.C,C2*%
X205448959Y-86595000D02*
X206698959Y-86595000D01*
X206073959Y-85970000D02*
X206073959Y-87220000D01*
X212266041Y-83840000D02*
X212266041Y-96500000D01*
X212306041Y-83840000D02*
X212306041Y-96500000D01*
X212346041Y-83841000D02*
X212346041Y-96499000D01*
X212386041Y-83841000D02*
X212386041Y-96499000D01*
X212426041Y-83842000D02*
X212426041Y-96498000D01*
X212466041Y-83843000D02*
X212466041Y-96497000D01*
X212506041Y-83845000D02*
X212506041Y-96495000D01*
X212546041Y-83846000D02*
X212546041Y-96494000D01*
X212586041Y-83848000D02*
X212586041Y-96492000D01*
X212626041Y-83850000D02*
X212626041Y-96490000D01*
X212666041Y-83853000D02*
X212666041Y-96487000D01*
X212706041Y-83855000D02*
X212706041Y-96485000D01*
X212746041Y-83858000D02*
X212746041Y-96482000D01*
X212786041Y-83861000D02*
X212786041Y-96479000D01*
X212826041Y-83865000D02*
X212826041Y-96475000D01*
X212866041Y-83868000D02*
X212866041Y-96472000D01*
X212906041Y-83872000D02*
X212906041Y-96468000D01*
X212946041Y-83876000D02*
X212946041Y-96464000D01*
X212986041Y-83881000D02*
X212986041Y-96459000D01*
X213026041Y-83886000D02*
X213026041Y-96454000D01*
X213066041Y-83890000D02*
X213066041Y-96450000D01*
X213106041Y-83896000D02*
X213106041Y-96444000D01*
X213146041Y-83901000D02*
X213146041Y-96439000D01*
X213186041Y-83907000D02*
X213186041Y-96433000D01*
X213226041Y-83913000D02*
X213226041Y-96427000D01*
X213266041Y-83919000D02*
X213266041Y-96421000D01*
X213306041Y-83925000D02*
X213306041Y-96415000D01*
X213346041Y-83932000D02*
X213346041Y-96408000D01*
X213386041Y-83939000D02*
X213386041Y-96401000D01*
X213426041Y-83947000D02*
X213426041Y-96393000D01*
X213466041Y-83954000D02*
X213466041Y-96386000D01*
X213506041Y-83962000D02*
X213506041Y-96378000D01*
X213546041Y-83970000D02*
X213546041Y-96370000D01*
X213586041Y-83978000D02*
X213586041Y-96362000D01*
X213626041Y-83987000D02*
X213626041Y-96353000D01*
X213666041Y-83996000D02*
X213666041Y-96344000D01*
X213706041Y-84005000D02*
X213706041Y-96335000D01*
X213746041Y-84014000D02*
X213746041Y-96326000D01*
X213786041Y-84024000D02*
X213786041Y-96316000D01*
X213826041Y-84034000D02*
X213826041Y-96306000D01*
X213866041Y-84044000D02*
X213866041Y-96296000D01*
X213906041Y-84055000D02*
X213906041Y-96285000D01*
X213946041Y-84066000D02*
X213946041Y-96274000D01*
X213986041Y-84077000D02*
X213986041Y-96263000D01*
X214026041Y-84088000D02*
X214026041Y-96252000D01*
X214066041Y-84100000D02*
X214066041Y-96240000D01*
X214106041Y-84112000D02*
X214106041Y-96228000D01*
X214146041Y-84124000D02*
X214146041Y-96216000D01*
X214186041Y-84136000D02*
X214186041Y-96204000D01*
X214226041Y-84149000D02*
X214226041Y-96191000D01*
X214266041Y-84162000D02*
X214266041Y-96178000D01*
X214306041Y-84175000D02*
X214306041Y-96165000D01*
X214346041Y-84189000D02*
X214346041Y-96151000D01*
X214386041Y-84203000D02*
X214386041Y-96137000D01*
X214426041Y-84217000D02*
X214426041Y-96123000D01*
X214466041Y-84232000D02*
X214466041Y-96108000D01*
X214506041Y-84247000D02*
X214506041Y-96093000D01*
X214546041Y-84262000D02*
X214546041Y-96078000D01*
X214586041Y-84278000D02*
X214586041Y-88730000D01*
X214586041Y-91610000D02*
X214586041Y-96062000D01*
X214626041Y-84293000D02*
X214626041Y-88730000D01*
X214626041Y-91610000D02*
X214626041Y-96047000D01*
X214666041Y-84309000D02*
X214666041Y-88730000D01*
X214666041Y-91610000D02*
X214666041Y-96031000D01*
X214706041Y-84326000D02*
X214706041Y-88730000D01*
X214706041Y-91610000D02*
X214706041Y-96014000D01*
X214746041Y-84343000D02*
X214746041Y-88730000D01*
X214746041Y-91610000D02*
X214746041Y-95997000D01*
X214786041Y-84360000D02*
X214786041Y-88730000D01*
X214786041Y-91610000D02*
X214786041Y-95980000D01*
X214826041Y-84377000D02*
X214826041Y-88730000D01*
X214826041Y-91610000D02*
X214826041Y-95963000D01*
X214866041Y-84395000D02*
X214866041Y-88730000D01*
X214866041Y-91610000D02*
X214866041Y-95945000D01*
X214906041Y-84413000D02*
X214906041Y-88730000D01*
X214906041Y-91610000D02*
X214906041Y-95927000D01*
X214946041Y-84431000D02*
X214946041Y-88730000D01*
X214946041Y-91610000D02*
X214946041Y-95909000D01*
X214986041Y-84450000D02*
X214986041Y-88730000D01*
X214986041Y-91610000D02*
X214986041Y-95890000D01*
X215026041Y-84469000D02*
X215026041Y-88730000D01*
X215026041Y-91610000D02*
X215026041Y-95871000D01*
X215066041Y-84488000D02*
X215066041Y-88730000D01*
X215066041Y-91610000D02*
X215066041Y-95852000D01*
X215106041Y-84508000D02*
X215106041Y-88730000D01*
X215106041Y-91610000D02*
X215106041Y-95832000D01*
X215146041Y-84528000D02*
X215146041Y-88730000D01*
X215146041Y-91610000D02*
X215146041Y-95812000D01*
X215186041Y-84549000D02*
X215186041Y-88730000D01*
X215186041Y-91610000D02*
X215186041Y-95791000D01*
X215226041Y-84569000D02*
X215226041Y-88730000D01*
X215226041Y-91610000D02*
X215226041Y-95771000D01*
X215266041Y-84591000D02*
X215266041Y-88730000D01*
X215266041Y-91610000D02*
X215266041Y-95749000D01*
X215306041Y-84612000D02*
X215306041Y-88730000D01*
X215306041Y-91610000D02*
X215306041Y-95728000D01*
X215346041Y-84634000D02*
X215346041Y-88730000D01*
X215346041Y-91610000D02*
X215346041Y-95706000D01*
X215386041Y-84656000D02*
X215386041Y-88730000D01*
X215386041Y-91610000D02*
X215386041Y-95684000D01*
X215426041Y-84679000D02*
X215426041Y-88730000D01*
X215426041Y-91610000D02*
X215426041Y-95661000D01*
X215466041Y-84702000D02*
X215466041Y-88730000D01*
X215466041Y-91610000D02*
X215466041Y-95638000D01*
X215506041Y-84726000D02*
X215506041Y-88730000D01*
X215506041Y-91610000D02*
X215506041Y-95614000D01*
X215546041Y-84749000D02*
X215546041Y-88730000D01*
X215546041Y-91610000D02*
X215546041Y-95591000D01*
X215586041Y-84774000D02*
X215586041Y-88730000D01*
X215586041Y-91610000D02*
X215586041Y-95566000D01*
X215626041Y-84798000D02*
X215626041Y-88730000D01*
X215626041Y-91610000D02*
X215626041Y-95542000D01*
X215666041Y-84823000D02*
X215666041Y-88730000D01*
X215666041Y-91610000D02*
X215666041Y-95517000D01*
X215706041Y-84849000D02*
X215706041Y-88730000D01*
X215706041Y-91610000D02*
X215706041Y-95491000D01*
X215746041Y-84875000D02*
X215746041Y-88730000D01*
X215746041Y-91610000D02*
X215746041Y-95465000D01*
X215786041Y-84901000D02*
X215786041Y-88730000D01*
X215786041Y-91610000D02*
X215786041Y-95439000D01*
X215826041Y-84928000D02*
X215826041Y-88730000D01*
X215826041Y-91610000D02*
X215826041Y-95412000D01*
X215866041Y-84955000D02*
X215866041Y-88730000D01*
X215866041Y-91610000D02*
X215866041Y-95385000D01*
X215906041Y-84982000D02*
X215906041Y-88730000D01*
X215906041Y-91610000D02*
X215906041Y-95358000D01*
X215946041Y-85011000D02*
X215946041Y-88730000D01*
X215946041Y-91610000D02*
X215946041Y-95329000D01*
X215986041Y-85039000D02*
X215986041Y-88730000D01*
X215986041Y-91610000D02*
X215986041Y-95301000D01*
X216026041Y-85068000D02*
X216026041Y-88730000D01*
X216026041Y-91610000D02*
X216026041Y-95272000D01*
X216066041Y-85098000D02*
X216066041Y-88730000D01*
X216066041Y-91610000D02*
X216066041Y-95242000D01*
X216106041Y-85128000D02*
X216106041Y-88730000D01*
X216106041Y-91610000D02*
X216106041Y-95212000D01*
X216146041Y-85158000D02*
X216146041Y-88730000D01*
X216146041Y-91610000D02*
X216146041Y-95182000D01*
X216186041Y-85189000D02*
X216186041Y-88730000D01*
X216186041Y-91610000D02*
X216186041Y-95151000D01*
X216226041Y-85220000D02*
X216226041Y-88730000D01*
X216226041Y-91610000D02*
X216226041Y-95120000D01*
X216266041Y-85252000D02*
X216266041Y-88730000D01*
X216266041Y-91610000D02*
X216266041Y-95088000D01*
X216306041Y-85285000D02*
X216306041Y-88730000D01*
X216306041Y-91610000D02*
X216306041Y-95055000D01*
X216346041Y-85318000D02*
X216346041Y-88730000D01*
X216346041Y-91610000D02*
X216346041Y-95022000D01*
X216386041Y-85352000D02*
X216386041Y-88730000D01*
X216386041Y-91610000D02*
X216386041Y-94988000D01*
X216426041Y-85386000D02*
X216426041Y-88730000D01*
X216426041Y-91610000D02*
X216426041Y-94954000D01*
X216466041Y-85421000D02*
X216466041Y-88730000D01*
X216466041Y-91610000D02*
X216466041Y-94919000D01*
X216506041Y-85456000D02*
X216506041Y-88730000D01*
X216506041Y-91610000D02*
X216506041Y-94884000D01*
X216546041Y-85492000D02*
X216546041Y-88730000D01*
X216546041Y-91610000D02*
X216546041Y-94848000D01*
X216586041Y-85529000D02*
X216586041Y-88730000D01*
X216586041Y-91610000D02*
X216586041Y-94811000D01*
X216626041Y-85566000D02*
X216626041Y-88730000D01*
X216626041Y-91610000D02*
X216626041Y-94774000D01*
X216666041Y-85604000D02*
X216666041Y-88730000D01*
X216666041Y-91610000D02*
X216666041Y-94736000D01*
X216706041Y-85642000D02*
X216706041Y-88730000D01*
X216706041Y-91610000D02*
X216706041Y-94698000D01*
X216746041Y-85682000D02*
X216746041Y-88730000D01*
X216746041Y-91610000D02*
X216746041Y-94658000D01*
X216786041Y-85722000D02*
X216786041Y-88730000D01*
X216786041Y-91610000D02*
X216786041Y-94618000D01*
X216826041Y-85762000D02*
X216826041Y-88730000D01*
X216826041Y-91610000D02*
X216826041Y-94578000D01*
X216866041Y-85804000D02*
X216866041Y-88730000D01*
X216866041Y-91610000D02*
X216866041Y-94536000D01*
X216906041Y-85846000D02*
X216906041Y-88730000D01*
X216906041Y-91610000D02*
X216906041Y-94494000D01*
X216946041Y-85889000D02*
X216946041Y-88730000D01*
X216946041Y-91610000D02*
X216946041Y-94451000D01*
X216986041Y-85932000D02*
X216986041Y-88730000D01*
X216986041Y-91610000D02*
X216986041Y-94408000D01*
X217026041Y-85977000D02*
X217026041Y-88730000D01*
X217026041Y-91610000D02*
X217026041Y-94363000D01*
X217066041Y-86022000D02*
X217066041Y-88730000D01*
X217066041Y-91610000D02*
X217066041Y-94318000D01*
X217106041Y-86069000D02*
X217106041Y-88730000D01*
X217106041Y-91610000D02*
X217106041Y-94271000D01*
X217146041Y-86116000D02*
X217146041Y-88730000D01*
X217146041Y-91610000D02*
X217146041Y-94224000D01*
X217186041Y-86164000D02*
X217186041Y-88730000D01*
X217186041Y-91610000D02*
X217186041Y-94176000D01*
X217226041Y-86213000D02*
X217226041Y-88730000D01*
X217226041Y-91610000D02*
X217226041Y-94127000D01*
X217266041Y-86263000D02*
X217266041Y-88730000D01*
X217266041Y-91610000D02*
X217266041Y-94077000D01*
X217306041Y-86314000D02*
X217306041Y-88730000D01*
X217306041Y-91610000D02*
X217306041Y-94026000D01*
X217346041Y-86367000D02*
X217346041Y-88730000D01*
X217346041Y-91610000D02*
X217346041Y-93973000D01*
X217386041Y-86420000D02*
X217386041Y-88730000D01*
X217386041Y-91610000D02*
X217386041Y-93920000D01*
X217426041Y-86475000D02*
X217426041Y-88730000D01*
X217426041Y-91610000D02*
X217426041Y-93865000D01*
X217466041Y-86531000D02*
X217466041Y-93809000D01*
X217506041Y-86588000D02*
X217506041Y-93752000D01*
X217546041Y-86647000D02*
X217546041Y-93693000D01*
X217586041Y-86707000D02*
X217586041Y-93633000D01*
X217626041Y-86768000D02*
X217626041Y-93572000D01*
X217666041Y-86831000D02*
X217666041Y-93509000D01*
X217706041Y-86896000D02*
X217706041Y-93444000D01*
X217746041Y-86962000D02*
X217746041Y-93378000D01*
X217786041Y-87031000D02*
X217786041Y-93309000D01*
X217826041Y-87101000D02*
X217826041Y-93239000D01*
X217866041Y-87174000D02*
X217866041Y-93166000D01*
X217906041Y-87249000D02*
X217906041Y-93091000D01*
X217946041Y-87327000D02*
X217946041Y-93013000D01*
X217986041Y-87407000D02*
X217986041Y-92933000D01*
X218026041Y-87490000D02*
X218026041Y-92850000D01*
X218066041Y-87576000D02*
X218066041Y-92764000D01*
X218106041Y-87666000D02*
X218106041Y-92674000D01*
X218146041Y-87760000D02*
X218146041Y-92580000D01*
X218186041Y-87858000D02*
X218186041Y-92482000D01*
X218226041Y-87962000D02*
X218226041Y-92378000D01*
X218266041Y-88071000D02*
X218266041Y-92269000D01*
X218306041Y-88186000D02*
X218306041Y-92154000D01*
X218346041Y-88310000D02*
X218346041Y-92030000D01*
X218386041Y-88443000D02*
X218386041Y-91897000D01*
X218426041Y-88588000D02*
X218426041Y-91752000D01*
X218466041Y-88748000D02*
X218466041Y-91592000D01*
X218506041Y-88930000D02*
X218506041Y-91410000D01*
X218546041Y-89143000D02*
X218546041Y-91197000D01*
X218586041Y-89413000D02*
X218586041Y-90927000D01*
X218626041Y-89853000D02*
X218626041Y-90487000D01*
X218636041Y-90170000D02*
G75*
G02*
X205896041Y-90170000I-6370000J0D01*
G01*
X205896041Y-90170000D02*
G75*
G02*
X218636041Y-90170000I6370000J0D01*
G01*
%TO.C,D5*%
X169950000Y-118110000D02*
X171870000Y-118110000D01*
X172470000Y-116990000D02*
X172470000Y-119230000D01*
X172590000Y-116990000D02*
X172590000Y-119230000D01*
X172710000Y-116990000D02*
X172710000Y-119230000D01*
X178030000Y-118110000D02*
X176110000Y-118110000D01*
X171870000Y-116990000D02*
X176110000Y-116990000D01*
X176110000Y-119230000D01*
X171870000Y-119230000D01*
X171870000Y-116990000D01*
%TO.C,U1*%
X152110000Y-138490000D02*
X152110000Y-120590000D01*
X152110000Y-120590000D02*
X147610000Y-120590000D01*
X150860000Y-138490000D02*
X152110000Y-138490000D01*
X147610000Y-138490000D02*
X148860000Y-138490000D01*
X147610000Y-120590000D02*
X147610000Y-138490000D01*
X148860000Y-138490000D02*
G75*
G02*
X150860000Y-138490000I1000000J0D01*
G01*
%TO.C,J8*%
X168922500Y-128980000D02*
X178042500Y-128980000D01*
X168922500Y-147020000D02*
X168922500Y-128980000D01*
X170232500Y-130280000D02*
X176732500Y-130280000D01*
X170232500Y-145720000D02*
X170232500Y-130280000D01*
X176732500Y-130280000D02*
X176732500Y-135950000D01*
X176732500Y-135950000D02*
X178042500Y-135950000D01*
X176732500Y-140050000D02*
X176732500Y-145720000D01*
X176732500Y-145720000D02*
X170232500Y-145720000D01*
X178042500Y-128980000D02*
X178042500Y-147020000D01*
X178042500Y-140050000D02*
X176732500Y-140050000D01*
X178042500Y-147020000D02*
X168922500Y-147020000D01*
X178432500Y-141810000D02*
X179432500Y-142310000D01*
X179432500Y-141310000D02*
X178432500Y-141810000D01*
X179432500Y-142310000D02*
X179432500Y-141310000D01*
%TO.C,D6*%
X178030000Y-125730000D02*
X176110000Y-125730000D01*
X175510000Y-126850000D02*
X175510000Y-124610000D01*
X175390000Y-126850000D02*
X175390000Y-124610000D01*
X175270000Y-126850000D02*
X175270000Y-124610000D01*
X169950000Y-125730000D02*
X171870000Y-125730000D01*
X176110000Y-126850000D02*
X171870000Y-126850000D01*
X171870000Y-124610000D01*
X176110000Y-124610000D01*
X176110000Y-126850000D01*
%TO.C,U2*%
X201480000Y-102840000D02*
X201480000Y-113060000D01*
X201480000Y-102840000D02*
X217350000Y-102840000D01*
X201480000Y-104925000D02*
X199040000Y-104925000D01*
X201480000Y-105895000D02*
X199040000Y-105895000D01*
X201480000Y-107465000D02*
X199040000Y-107465000D01*
X201480000Y-108435000D02*
X199040000Y-108435000D01*
X201480000Y-110005000D02*
X199040000Y-110005000D01*
X201480000Y-110975000D02*
X199040000Y-110975000D01*
X201480000Y-113060000D02*
X217350000Y-113060000D01*
X217350000Y-102840000D02*
X217350000Y-113060000D01*
%TO.C,D2*%
X214370000Y-69620000D02*
X214370000Y-71540000D01*
X215490000Y-72140000D02*
X213250000Y-72140000D01*
X215490000Y-72260000D02*
X213250000Y-72260000D01*
X215490000Y-72380000D02*
X213250000Y-72380000D01*
X214370000Y-77700000D02*
X214370000Y-75780000D01*
X215490000Y-71540000D02*
X213250000Y-71540000D01*
X213250000Y-75780000D01*
X215490000Y-75780000D01*
X215490000Y-71540000D01*
%TO.C,D16*%
X191480000Y-137194000D02*
X191480000Y-137350000D01*
X191480000Y-139510000D02*
X191480000Y-139666000D01*
X191480000Y-137194484D02*
G75*
G02*
X194711437Y-137350000I1560000J-1235516D01*
G01*
X191999039Y-137350000D02*
G75*
G02*
X194080961Y-137350000I1040961J-1080000D01*
G01*
X194080961Y-139510000D02*
G75*
G02*
X191999039Y-139510000I-1040961J1080000D01*
G01*
X194711437Y-139510000D02*
G75*
G02*
X191480000Y-139665516I-1671437J1080000D01*
G01*
%TO.C,R12*%
X205970000Y-138430000D02*
X205200000Y-138430000D01*
X197890000Y-138430000D02*
X198660000Y-138430000D01*
X205200000Y-139800000D02*
X198660000Y-139800000D01*
X198660000Y-137060000D01*
X205200000Y-137060000D01*
X205200000Y-139800000D01*
%TO.C,D1*%
X217920000Y-77700000D02*
X217920000Y-75780000D01*
X216800000Y-75180000D02*
X219040000Y-75180000D01*
X216800000Y-75060000D02*
X219040000Y-75060000D01*
X216800000Y-74940000D02*
X219040000Y-74940000D01*
X217920000Y-69620000D02*
X217920000Y-71540000D01*
X216800000Y-75780000D02*
X219040000Y-75780000D01*
X219040000Y-71540000D01*
X216800000Y-71540000D01*
X216800000Y-75780000D01*
%TO.C,D3*%
X210820000Y-69620000D02*
X210820000Y-71540000D01*
X211940000Y-72140000D02*
X209700000Y-72140000D01*
X211940000Y-72260000D02*
X209700000Y-72260000D01*
X211940000Y-72380000D02*
X209700000Y-72380000D01*
X210820000Y-77700000D02*
X210820000Y-75780000D01*
X211940000Y-71540000D02*
X209700000Y-71540000D01*
X209700000Y-75780000D01*
X211940000Y-75780000D01*
X211940000Y-71540000D01*
%TO.C,TR1*%
X162380000Y-51580000D02*
X162380000Y-95820000D01*
X162380000Y-51580000D02*
X199620000Y-51580000D01*
X199620000Y-95820000D02*
X162380000Y-95820000D01*
X199620000Y-95820000D02*
X199620000Y-51580000D01*
%TO.C,C1*%
X166470000Y-120550000D02*
X166470000Y-130790000D01*
X163730000Y-120550000D02*
X166470000Y-120550000D01*
X166470000Y-130790000D02*
X163730000Y-130790000D01*
X163730000Y-130790000D02*
X163730000Y-120550000D01*
%TO.C,D4*%
X207270000Y-77700000D02*
X207270000Y-75780000D01*
X206150000Y-75180000D02*
X208390000Y-75180000D01*
X206150000Y-75060000D02*
X208390000Y-75060000D01*
X206150000Y-74940000D02*
X208390000Y-74940000D01*
X207270000Y-69620000D02*
X207270000Y-71540000D01*
X206150000Y-75780000D02*
X208390000Y-75780000D01*
X208390000Y-71540000D01*
X206150000Y-71540000D01*
X206150000Y-75780000D01*
%TO.C,C3*%
X200368959Y-120885000D02*
X201618959Y-120885000D01*
X200993959Y-120260000D02*
X200993959Y-121510000D01*
X207186041Y-118130000D02*
X207186041Y-130790000D01*
X207226041Y-118130000D02*
X207226041Y-130790000D01*
X207266041Y-118131000D02*
X207266041Y-130789000D01*
X207306041Y-118131000D02*
X207306041Y-130789000D01*
X207346041Y-118132000D02*
X207346041Y-130788000D01*
X207386041Y-118133000D02*
X207386041Y-130787000D01*
X207426041Y-118135000D02*
X207426041Y-130785000D01*
X207466041Y-118136000D02*
X207466041Y-130784000D01*
X207506041Y-118138000D02*
X207506041Y-130782000D01*
X207546041Y-118140000D02*
X207546041Y-130780000D01*
X207586041Y-118143000D02*
X207586041Y-130777000D01*
X207626041Y-118145000D02*
X207626041Y-130775000D01*
X207666041Y-118148000D02*
X207666041Y-130772000D01*
X207706041Y-118151000D02*
X207706041Y-130769000D01*
X207746041Y-118155000D02*
X207746041Y-130765000D01*
X207786041Y-118158000D02*
X207786041Y-130762000D01*
X207826041Y-118162000D02*
X207826041Y-130758000D01*
X207866041Y-118166000D02*
X207866041Y-130754000D01*
X207906041Y-118171000D02*
X207906041Y-130749000D01*
X207946041Y-118176000D02*
X207946041Y-130744000D01*
X207986041Y-118180000D02*
X207986041Y-130740000D01*
X208026041Y-118186000D02*
X208026041Y-130734000D01*
X208066041Y-118191000D02*
X208066041Y-130729000D01*
X208106041Y-118197000D02*
X208106041Y-130723000D01*
X208146041Y-118203000D02*
X208146041Y-130717000D01*
X208186041Y-118209000D02*
X208186041Y-130711000D01*
X208226041Y-118215000D02*
X208226041Y-130705000D01*
X208266041Y-118222000D02*
X208266041Y-130698000D01*
X208306041Y-118229000D02*
X208306041Y-130691000D01*
X208346041Y-118237000D02*
X208346041Y-130683000D01*
X208386041Y-118244000D02*
X208386041Y-130676000D01*
X208426041Y-118252000D02*
X208426041Y-130668000D01*
X208466041Y-118260000D02*
X208466041Y-130660000D01*
X208506041Y-118268000D02*
X208506041Y-130652000D01*
X208546041Y-118277000D02*
X208546041Y-130643000D01*
X208586041Y-118286000D02*
X208586041Y-130634000D01*
X208626041Y-118295000D02*
X208626041Y-130625000D01*
X208666041Y-118304000D02*
X208666041Y-130616000D01*
X208706041Y-118314000D02*
X208706041Y-130606000D01*
X208746041Y-118324000D02*
X208746041Y-130596000D01*
X208786041Y-118334000D02*
X208786041Y-130586000D01*
X208826041Y-118345000D02*
X208826041Y-130575000D01*
X208866041Y-118356000D02*
X208866041Y-130564000D01*
X208906041Y-118367000D02*
X208906041Y-130553000D01*
X208946041Y-118378000D02*
X208946041Y-130542000D01*
X208986041Y-118390000D02*
X208986041Y-130530000D01*
X209026041Y-118402000D02*
X209026041Y-130518000D01*
X209066041Y-118414000D02*
X209066041Y-130506000D01*
X209106041Y-118426000D02*
X209106041Y-130494000D01*
X209146041Y-118439000D02*
X209146041Y-130481000D01*
X209186041Y-118452000D02*
X209186041Y-130468000D01*
X209226041Y-118465000D02*
X209226041Y-130455000D01*
X209266041Y-118479000D02*
X209266041Y-130441000D01*
X209306041Y-118493000D02*
X209306041Y-130427000D01*
X209346041Y-118507000D02*
X209346041Y-130413000D01*
X209386041Y-118522000D02*
X209386041Y-130398000D01*
X209426041Y-118537000D02*
X209426041Y-130383000D01*
X209466041Y-118552000D02*
X209466041Y-130368000D01*
X209506041Y-118568000D02*
X209506041Y-123020000D01*
X209506041Y-125900000D02*
X209506041Y-130352000D01*
X209546041Y-118583000D02*
X209546041Y-123020000D01*
X209546041Y-125900000D02*
X209546041Y-130337000D01*
X209586041Y-118599000D02*
X209586041Y-123020000D01*
X209586041Y-125900000D02*
X209586041Y-130321000D01*
X209626041Y-118616000D02*
X209626041Y-123020000D01*
X209626041Y-125900000D02*
X209626041Y-130304000D01*
X209666041Y-118633000D02*
X209666041Y-123020000D01*
X209666041Y-125900000D02*
X209666041Y-130287000D01*
X209706041Y-118650000D02*
X209706041Y-123020000D01*
X209706041Y-125900000D02*
X209706041Y-130270000D01*
X209746041Y-118667000D02*
X209746041Y-123020000D01*
X209746041Y-125900000D02*
X209746041Y-130253000D01*
X209786041Y-118685000D02*
X209786041Y-123020000D01*
X209786041Y-125900000D02*
X209786041Y-130235000D01*
X209826041Y-118703000D02*
X209826041Y-123020000D01*
X209826041Y-125900000D02*
X209826041Y-130217000D01*
X209866041Y-118721000D02*
X209866041Y-123020000D01*
X209866041Y-125900000D02*
X209866041Y-130199000D01*
X209906041Y-118740000D02*
X209906041Y-123020000D01*
X209906041Y-125900000D02*
X209906041Y-130180000D01*
X209946041Y-118759000D02*
X209946041Y-123020000D01*
X209946041Y-125900000D02*
X209946041Y-130161000D01*
X209986041Y-118778000D02*
X209986041Y-123020000D01*
X209986041Y-125900000D02*
X209986041Y-130142000D01*
X210026041Y-118798000D02*
X210026041Y-123020000D01*
X210026041Y-125900000D02*
X210026041Y-130122000D01*
X210066041Y-118818000D02*
X210066041Y-123020000D01*
X210066041Y-125900000D02*
X210066041Y-130102000D01*
X210106041Y-118839000D02*
X210106041Y-123020000D01*
X210106041Y-125900000D02*
X210106041Y-130081000D01*
X210146041Y-118859000D02*
X210146041Y-123020000D01*
X210146041Y-125900000D02*
X210146041Y-130061000D01*
X210186041Y-118881000D02*
X210186041Y-123020000D01*
X210186041Y-125900000D02*
X210186041Y-130039000D01*
X210226041Y-118902000D02*
X210226041Y-123020000D01*
X210226041Y-125900000D02*
X210226041Y-130018000D01*
X210266041Y-118924000D02*
X210266041Y-123020000D01*
X210266041Y-125900000D02*
X210266041Y-129996000D01*
X210306041Y-118946000D02*
X210306041Y-123020000D01*
X210306041Y-125900000D02*
X210306041Y-129974000D01*
X210346041Y-118969000D02*
X210346041Y-123020000D01*
X210346041Y-125900000D02*
X210346041Y-129951000D01*
X210386041Y-118992000D02*
X210386041Y-123020000D01*
X210386041Y-125900000D02*
X210386041Y-129928000D01*
X210426041Y-119016000D02*
X210426041Y-123020000D01*
X210426041Y-125900000D02*
X210426041Y-129904000D01*
X210466041Y-119039000D02*
X210466041Y-123020000D01*
X210466041Y-125900000D02*
X210466041Y-129881000D01*
X210506041Y-119064000D02*
X210506041Y-123020000D01*
X210506041Y-125900000D02*
X210506041Y-129856000D01*
X210546041Y-119088000D02*
X210546041Y-123020000D01*
X210546041Y-125900000D02*
X210546041Y-129832000D01*
X210586041Y-119113000D02*
X210586041Y-123020000D01*
X210586041Y-125900000D02*
X210586041Y-129807000D01*
X210626041Y-119139000D02*
X210626041Y-123020000D01*
X210626041Y-125900000D02*
X210626041Y-129781000D01*
X210666041Y-119165000D02*
X210666041Y-123020000D01*
X210666041Y-125900000D02*
X210666041Y-129755000D01*
X210706041Y-119191000D02*
X210706041Y-123020000D01*
X210706041Y-125900000D02*
X210706041Y-129729000D01*
X210746041Y-119218000D02*
X210746041Y-123020000D01*
X210746041Y-125900000D02*
X210746041Y-129702000D01*
X210786041Y-119245000D02*
X210786041Y-123020000D01*
X210786041Y-125900000D02*
X210786041Y-129675000D01*
X210826041Y-119272000D02*
X210826041Y-123020000D01*
X210826041Y-125900000D02*
X210826041Y-129648000D01*
X210866041Y-119301000D02*
X210866041Y-123020000D01*
X210866041Y-125900000D02*
X210866041Y-129619000D01*
X210906041Y-119329000D02*
X210906041Y-123020000D01*
X210906041Y-125900000D02*
X210906041Y-129591000D01*
X210946041Y-119358000D02*
X210946041Y-123020000D01*
X210946041Y-125900000D02*
X210946041Y-129562000D01*
X210986041Y-119388000D02*
X210986041Y-123020000D01*
X210986041Y-125900000D02*
X210986041Y-129532000D01*
X211026041Y-119418000D02*
X211026041Y-123020000D01*
X211026041Y-125900000D02*
X211026041Y-129502000D01*
X211066041Y-119448000D02*
X211066041Y-123020000D01*
X211066041Y-125900000D02*
X211066041Y-129472000D01*
X211106041Y-119479000D02*
X211106041Y-123020000D01*
X211106041Y-125900000D02*
X211106041Y-129441000D01*
X211146041Y-119510000D02*
X211146041Y-123020000D01*
X211146041Y-125900000D02*
X211146041Y-129410000D01*
X211186041Y-119542000D02*
X211186041Y-123020000D01*
X211186041Y-125900000D02*
X211186041Y-129378000D01*
X211226041Y-119575000D02*
X211226041Y-123020000D01*
X211226041Y-125900000D02*
X211226041Y-129345000D01*
X211266041Y-119608000D02*
X211266041Y-123020000D01*
X211266041Y-125900000D02*
X211266041Y-129312000D01*
X211306041Y-119642000D02*
X211306041Y-123020000D01*
X211306041Y-125900000D02*
X211306041Y-129278000D01*
X211346041Y-119676000D02*
X211346041Y-123020000D01*
X211346041Y-125900000D02*
X211346041Y-129244000D01*
X211386041Y-119711000D02*
X211386041Y-123020000D01*
X211386041Y-125900000D02*
X211386041Y-129209000D01*
X211426041Y-119746000D02*
X211426041Y-123020000D01*
X211426041Y-125900000D02*
X211426041Y-129174000D01*
X211466041Y-119782000D02*
X211466041Y-123020000D01*
X211466041Y-125900000D02*
X211466041Y-129138000D01*
X211506041Y-119819000D02*
X211506041Y-123020000D01*
X211506041Y-125900000D02*
X211506041Y-129101000D01*
X211546041Y-119856000D02*
X211546041Y-123020000D01*
X211546041Y-125900000D02*
X211546041Y-129064000D01*
X211586041Y-119894000D02*
X211586041Y-123020000D01*
X211586041Y-125900000D02*
X211586041Y-129026000D01*
X211626041Y-119932000D02*
X211626041Y-123020000D01*
X211626041Y-125900000D02*
X211626041Y-128988000D01*
X211666041Y-119972000D02*
X211666041Y-123020000D01*
X211666041Y-125900000D02*
X211666041Y-128948000D01*
X211706041Y-120012000D02*
X211706041Y-123020000D01*
X211706041Y-125900000D02*
X211706041Y-128908000D01*
X211746041Y-120052000D02*
X211746041Y-123020000D01*
X211746041Y-125900000D02*
X211746041Y-128868000D01*
X211786041Y-120094000D02*
X211786041Y-123020000D01*
X211786041Y-125900000D02*
X211786041Y-128826000D01*
X211826041Y-120136000D02*
X211826041Y-123020000D01*
X211826041Y-125900000D02*
X211826041Y-128784000D01*
X211866041Y-120179000D02*
X211866041Y-123020000D01*
X211866041Y-125900000D02*
X211866041Y-128741000D01*
X211906041Y-120222000D02*
X211906041Y-123020000D01*
X211906041Y-125900000D02*
X211906041Y-128698000D01*
X211946041Y-120267000D02*
X211946041Y-123020000D01*
X211946041Y-125900000D02*
X211946041Y-128653000D01*
X211986041Y-120312000D02*
X211986041Y-123020000D01*
X211986041Y-125900000D02*
X211986041Y-128608000D01*
X212026041Y-120359000D02*
X212026041Y-123020000D01*
X212026041Y-125900000D02*
X212026041Y-128561000D01*
X212066041Y-120406000D02*
X212066041Y-123020000D01*
X212066041Y-125900000D02*
X212066041Y-128514000D01*
X212106041Y-120454000D02*
X212106041Y-123020000D01*
X212106041Y-125900000D02*
X212106041Y-128466000D01*
X212146041Y-120503000D02*
X212146041Y-123020000D01*
X212146041Y-125900000D02*
X212146041Y-128417000D01*
X212186041Y-120553000D02*
X212186041Y-123020000D01*
X212186041Y-125900000D02*
X212186041Y-128367000D01*
X212226041Y-120604000D02*
X212226041Y-123020000D01*
X212226041Y-125900000D02*
X212226041Y-128316000D01*
X212266041Y-120657000D02*
X212266041Y-123020000D01*
X212266041Y-125900000D02*
X212266041Y-128263000D01*
X212306041Y-120710000D02*
X212306041Y-123020000D01*
X212306041Y-125900000D02*
X212306041Y-128210000D01*
X212346041Y-120765000D02*
X212346041Y-123020000D01*
X212346041Y-125900000D02*
X212346041Y-128155000D01*
X212386041Y-120821000D02*
X212386041Y-128099000D01*
X212426041Y-120878000D02*
X212426041Y-128042000D01*
X212466041Y-120937000D02*
X212466041Y-127983000D01*
X212506041Y-120997000D02*
X212506041Y-127923000D01*
X212546041Y-121058000D02*
X212546041Y-127862000D01*
X212586041Y-121121000D02*
X212586041Y-127799000D01*
X212626041Y-121186000D02*
X212626041Y-127734000D01*
X212666041Y-121252000D02*
X212666041Y-127668000D01*
X212706041Y-121321000D02*
X212706041Y-127599000D01*
X212746041Y-121391000D02*
X212746041Y-127529000D01*
X212786041Y-121464000D02*
X212786041Y-127456000D01*
X212826041Y-121539000D02*
X212826041Y-127381000D01*
X212866041Y-121617000D02*
X212866041Y-127303000D01*
X212906041Y-121697000D02*
X212906041Y-127223000D01*
X212946041Y-121780000D02*
X212946041Y-127140000D01*
X212986041Y-121866000D02*
X212986041Y-127054000D01*
X213026041Y-121956000D02*
X213026041Y-126964000D01*
X213066041Y-122050000D02*
X213066041Y-126870000D01*
X213106041Y-122148000D02*
X213106041Y-126772000D01*
X213146041Y-122252000D02*
X213146041Y-126668000D01*
X213186041Y-122361000D02*
X213186041Y-126559000D01*
X213226041Y-122476000D02*
X213226041Y-126444000D01*
X213266041Y-122600000D02*
X213266041Y-126320000D01*
X213306041Y-122733000D02*
X213306041Y-126187000D01*
X213346041Y-122878000D02*
X213346041Y-126042000D01*
X213386041Y-123038000D02*
X213386041Y-125882000D01*
X213426041Y-123220000D02*
X213426041Y-125700000D01*
X213466041Y-123433000D02*
X213466041Y-125487000D01*
X213506041Y-123703000D02*
X213506041Y-125217000D01*
X213546041Y-124143000D02*
X213546041Y-124777000D01*
X213556041Y-124460000D02*
G75*
G02*
X200816041Y-124460000I-6370000J0D01*
G01*
X200816041Y-124460000D02*
G75*
G02*
X213556041Y-124460000I6370000J0D01*
G01*
%TD*%
M02*
