M48
; DRILL file {KiCad 9.0.6-9.0.6~ubuntu24.04.1} date 2025-12-08T02:07:01+0100
; FORMAT={-:-/ absolute / inch / decimal}
; #@! TF.CreationDate,2025-12-08T02:07:01+01:00
; #@! TF.GenerationSoftware,Kicad,Pcbnew,9.0.6-9.0.6~ubuntu24.04.1
; #@! TF.FileFunction,Plated,1,2,PTH
FMAT,2
INCH
; #@! TA.AperFunction,Plated,PTH,ViaDrill
T1C0.0118
; #@! TA.AperFunction,Plated,PTH,ComponentDrill
T2C0.0315
; #@! TA.AperFunction,Plated,PTH,ComponentDrill
T3C0.0354
; #@! TA.AperFunction,Plated,PTH,ComponentDrill
T4C0.0394
; #@! TA.AperFunction,Plated,PTH,ComponentDrill
T5C0.0433
; #@! TA.AperFunction,Plated,PTH,ComponentDrill
T6C0.0472
; #@! TA.AperFunction,Plated,PTH,ComponentDrill
T7C0.0551
; #@! TA.AperFunction,Plated,PTH,ComponentDrill
T8C0.0591
; #@! TA.AperFunction,Plated,PTH,ComponentDrill
T9C0.0630
; #@! TA.AperFunction,Plated,PTH,ComponentDrill
T10C0.1260
%
G90
G05
T1
X6.1811Y-5.2362
X6.2992Y-5.5512
X6.378Y-5.0
X6.5748Y-5.3937
X7.2047Y-4.7244
X7.4803Y-4.3701
X7.5197Y-3.4646
X7.5197Y-3.8976
X7.5197Y-4.7244
X7.7165Y-3.6614
T2
X5.75Y-4.8
X5.75Y-4.9
X5.75Y-5.0
X5.75Y-5.1
X5.75Y-5.2
X5.75Y-5.3
X5.75Y-5.4
X6.05Y-4.8
X6.05Y-4.9
X6.05Y-5.0
X6.05Y-5.1
X6.05Y-5.2
X6.05Y-5.3
X6.05Y-5.4
X6.65Y-4.65
X6.65Y-4.8
X6.65Y-4.95
X7.05Y-4.65
X7.05Y-4.8
X7.05Y-4.95
X7.75Y-5.45
X8.15Y-5.45
X8.1602Y-2.7
X8.1602Y-3.1
X8.3Y-2.7
X8.3Y-3.1
X8.4398Y-2.7
X8.4398Y-3.1
X8.5795Y-2.7
X8.5795Y-3.1
T3
X7.55Y-5.45
X7.65Y-5.45
T4
X5.75Y-5.55
X6.0453Y-5.55
X6.5Y-4.8
X6.5Y-5.0953
X6.78Y-5.2831
X6.78Y-5.3831
X6.78Y-5.4831
X6.78Y-5.5831
X6.88Y-5.2831
X6.88Y-5.3831
X6.88Y-5.4831
X6.88Y-5.5831
T5
X7.7866Y-4.15
X7.7866Y-4.25
X7.7866Y-4.35
T6
X8.0093Y-4.9
X8.2093Y-3.55
X8.3046Y-4.9
X8.5046Y-3.55
T7
X5.3327Y-2.5551
X5.3327Y-3.5551
T8
X6.6339Y-2.5079
X6.6339Y-3.2953
X7.6181Y-2.5079
X7.6181Y-2.7047
X7.6181Y-3.0984
X7.6181Y-3.2953
T9
X5.5059Y-3.0551
T10
X5.0787Y-2.0866
X5.0787Y-5.6299
X8.622Y-2.0866
X8.622Y-5.6299
M30
