M48
; DRILL file {KiCad 9.0.6-9.0.6~ubuntu24.04.1} date 2025-12-07T15:07:47+0100
; FORMAT={-:-/ absolute / inch / decimal}
; #@! TF.CreationDate,2025-12-07T15:07:47+01:00
; #@! TF.GenerationSoftware,Kicad,Pcbnew,9.0.6-9.0.6~ubuntu24.04.1
; #@! TF.FileFunction,Plated,1,2,PTH
FMAT,2
INCH
; #@! TA.AperFunction,Plated,PTH,ViaDrill
T1C0.0118
; #@! TA.AperFunction,Plated,PTH,ComponentDrill
T2C0.0315
; #@! TA.AperFunction,Plated,PTH,ComponentDrill
T3C0.0354
; #@! TA.AperFunction,Plated,PTH,ComponentDrill
T4C0.0394
; #@! TA.AperFunction,Plated,PTH,ComponentDrill
T5C0.1260
%
G90
G05
T1
X2.0866Y-3.2677
X2.1378Y-3.6693
X2.5Y-5.0039
X2.9409Y-5.5512
X2.9567Y-3.248
X2.9724Y-3.6299
X3.2264Y-3.0039
X3.5079Y-4.6417
X3.5827Y-3.5157
X3.5906Y-3.937
X3.6929Y-2.3071
X3.6929Y-3.8071
X3.6988Y-3.3031
X3.6988Y-3.5591
X3.7717Y-4.2717
X3.8346Y-2.9606
X4.0Y-3.248
X4.0512Y-3.2913
X4.0512Y-3.5551
X4.0807Y-2.9606
X4.3504Y-4.7598
X4.4724Y-2.878
X4.4803Y-4.378
X4.5669Y-2.6831
X4.5827Y-4.0157
X4.6024Y-4.6457
X4.6102Y-4.9764
X4.6732Y-5.3504
X4.6732Y-5.4256
X4.7283Y-3.3819
X4.7323Y-4.7992
X4.7638Y-2.2028
X4.7874Y-3.0315
X4.9055Y-4.376
X4.937Y-3.8189
X4.9803Y-4.1181
X4.9961Y-4.4606
X5.0157Y-4.9764
X5.0433Y-3.5472
X5.122Y-2.6575
X5.1299Y-2.8386
X5.3937Y-3.5472
X5.4134Y-3.7992
X5.5354Y-3.3504
X5.5787Y-3.8071
X5.5906Y-3.5433
T2
X2.1Y-2.2
X2.1Y-2.5
X2.2Y-2.2
X2.2Y-2.5
X2.2Y-2.6
X2.2Y-3.0
X2.3Y-2.2
X2.3Y-2.5
X2.3Y-2.6
X2.3Y-3.0
X2.3Y-3.8068
X2.3Y-3.9068
X2.3Y-4.0068
X2.3Y-4.1068
X2.3Y-4.2068
X2.3Y-4.3068
X2.3Y-4.4068
X2.3Y-4.5068
X2.3Y-4.8068
X2.3Y-4.9068
X2.3Y-5.0068
X2.3Y-5.1068
X2.3Y-5.2068
X2.3Y-5.3068
X2.3Y-5.4068
X2.3Y-5.5068
X2.4Y-2.2
X2.4Y-2.5
X2.4Y-2.6
X2.4Y-3.0
X2.5Y-2.2
X2.5Y-2.5
X2.5Y-2.6
X2.5Y-3.0
X2.6Y-2.2
X2.6Y-2.5
X2.6Y-3.8068
X2.6Y-3.9068
X2.6Y-4.0068
X2.6Y-4.1068
X2.6Y-4.2068
X2.6Y-4.3068
X2.6Y-4.4068
X2.6Y-4.5068
X2.6Y-4.8068
X2.6Y-4.9068
X2.6Y-5.0068
X2.6Y-5.1068
X2.6Y-5.2068
X2.6Y-5.3068
X2.6Y-5.4068
X2.6Y-5.5068
X2.7Y-2.2
X2.7Y-2.5
X2.7Y-4.0068
X2.7Y-4.1068
X2.7Y-4.2068
X2.7Y-4.3068
X2.7Y-5.0068
X2.7Y-5.1068
X2.7Y-5.2068
X2.7Y-5.3068
X2.8Y-2.2
X2.8Y-2.5
X2.8Y-3.2
X2.8Y-3.3
X2.8Y-3.4
X2.8Y-3.5
X2.8Y-3.6
X2.8Y-3.7
X2.8Y-3.8
X2.9Y-4.5068
X2.9Y-4.8068
X3.0Y-4.5068
X3.0Y-4.8068
X3.1Y-2.2
X3.1Y-2.5
X3.1Y-3.2
X3.1Y-3.3
X3.1Y-3.4
X3.1Y-3.5
X3.1Y-3.6
X3.1Y-3.7
X3.1Y-3.8
X3.1Y-4.0068
X3.1Y-4.1068
X3.1Y-4.2068
X3.1Y-4.3068
X3.1Y-4.5068
X3.1Y-4.8068
X3.1Y-5.0068
X3.1Y-5.1068
X3.1Y-5.2068
X3.1Y-5.3068
X3.2Y-2.2
X3.2Y-2.5
X3.2Y-4.5068
X3.2Y-4.8068
X3.3Y-2.2
X3.3Y-2.5
X3.3Y-4.5068
X3.3Y-4.8068
X3.4Y-2.2
X3.4Y-2.5
X3.4Y-2.6
X3.4Y-3.0
X3.4Y-4.5068
X3.4Y-4.8068
X3.5Y-2.2
X3.5Y-2.5
X3.5Y-2.6
X3.5Y-3.0
X3.5Y-4.5068
X3.5Y-4.8068
X3.6Y-2.2
X3.6Y-2.5
X3.6Y-2.6
X3.6Y-3.0
X3.7Y-2.2
X3.7Y-2.5
X3.7Y-2.6
X3.7Y-3.0
X3.8Y-2.2
X3.8Y-2.5
X3.8Y-3.65
X3.8Y-3.95
X3.9Y-3.65
X3.9Y-3.95
X3.9Y-4.05
X3.9Y-4.45
X3.95Y-3.15
X3.95Y-3.45
X4.0Y-3.65
X4.0Y-3.95
X4.0Y-4.05
X4.0Y-4.45
X4.05Y-2.65
X4.05Y-3.05
X4.05Y-3.15
X4.05Y-3.45
X4.1Y-3.65
X4.1Y-3.95
X4.1Y-4.05
X4.1Y-4.45
X4.15Y-2.65
X4.15Y-3.05
X4.15Y-3.15
X4.15Y-3.45
X4.2Y-3.65
X4.2Y-3.95
X4.2Y-4.05
X4.2Y-4.45
X4.25Y-2.65
X4.25Y-3.05
X4.25Y-3.15
X4.25Y-3.45
X4.3Y-3.65
X4.3Y-3.95
X4.35Y-2.65
X4.35Y-3.05
X4.35Y-3.15
X4.35Y-3.45
X4.4Y-3.65
X4.4Y-3.95
X4.45Y-3.15
X4.45Y-3.45
X4.5Y-3.65
X4.5Y-3.95
X4.5Y-4.65
X4.5Y-4.75
X4.5Y-4.85
X4.5Y-4.95
X4.5Y-5.05
X4.5Y-5.15
X4.5Y-5.25
X4.55Y-3.15
X4.55Y-3.45
X4.65Y-1.85
X4.65Y-1.95
X4.65Y-2.05
X4.65Y-2.15
X4.65Y-2.25
X4.65Y-2.35
X4.65Y-2.45
X4.65Y-3.15
X4.65Y-3.45
X4.8Y-3.65
X4.8Y-3.95
X4.8Y-4.65
X4.8Y-4.75
X4.8Y-4.85
X4.8Y-4.95
X4.8Y-5.05
X4.8Y-5.15
X4.8Y-5.25
X4.9Y-3.65
X4.9Y-3.95
X4.95Y-1.85
X4.95Y-1.95
X4.95Y-2.05
X4.95Y-2.15
X4.95Y-2.25
X4.95Y-2.35
X4.95Y-2.45
X4.95Y-3.15
X4.95Y-3.45
X5.0Y-3.65
X5.0Y-3.95
X5.05Y-3.15
X5.05Y-3.45
X5.1Y-3.65
X5.1Y-3.95
X5.1Y-4.05
X5.1Y-4.45
X5.15Y-3.15
X5.15Y-3.45
X5.2Y-3.65
X5.2Y-3.95
X5.2Y-4.05
X5.2Y-4.45
X5.25Y-2.65
X5.25Y-3.05
X5.25Y-3.15
X5.25Y-3.45
X5.3Y-3.65
X5.3Y-3.95
X5.3Y-4.05
X5.3Y-4.45
X5.35Y-2.65
X5.35Y-3.05
X5.35Y-3.15
X5.35Y-3.45
X5.4Y-3.65
X5.4Y-3.95
X5.4Y-4.05
X5.4Y-4.45
X5.45Y-2.65
X5.45Y-3.05
X5.45Y-3.15
X5.45Y-3.45
X5.5Y-3.65
X5.5Y-3.95
X5.55Y-2.65
X5.55Y-3.05
X5.55Y-3.15
X5.55Y-3.45
X5.65Y-3.15
X5.65Y-3.45
T3
X2.3Y-3.3
X2.3Y-3.4
X2.4Y-3.1
X2.4Y-3.2
X2.5Y-3.3
X2.5Y-3.4
X2.6Y-3.1
X2.6Y-3.2
X3.2Y-4.0068
X3.2Y-4.2068
X3.2Y-5.0068
X3.2Y-5.2068
X3.3Y-3.3
X3.3Y-3.4
X3.3Y-4.0068
X3.3Y-4.2068
X3.3Y-5.0068
X3.3Y-5.2068
X3.4Y-3.1
X3.4Y-3.2
X3.4Y-4.1068
X3.4Y-4.3068
X3.4Y-5.1068
X3.4Y-5.3068
X3.5Y-3.3
X3.5Y-3.4
X3.5Y-4.1068
X3.5Y-4.3068
X3.5Y-5.1068
X3.5Y-5.3068
X3.6Y-3.1
X3.6Y-3.2
X4.0Y-4.75
X4.0Y-4.85
X4.1Y-4.55
X4.1Y-4.65
X4.15Y-2.45
X4.15Y-2.55
X4.1783Y-4.75
X4.1783Y-4.85
X4.25Y-2.25
X4.25Y-2.35
X4.3Y-4.55
X4.3Y-4.65
X4.35Y-2.45
X4.35Y-2.55
X4.45Y-2.25
X4.45Y-2.35
X5.0Y-4.75
X5.0Y-4.85
X5.1Y-4.55
X5.1Y-4.65
X5.15Y-2.45
X5.15Y-2.55
X5.2Y-4.75
X5.2Y-4.85
X5.25Y-2.25
X5.25Y-2.35
X5.3Y-4.55
X5.3Y-4.65
X5.35Y-2.45
X5.35Y-2.55
X5.45Y-2.25
X5.45Y-2.35
T4
X2.1Y-3.15
X2.2Y-3.15
X2.3Y-3.6568
X2.3Y-4.6568
X2.5953Y-3.6568
X2.5953Y-4.6568
X2.75Y-4.5091
X2.75Y-4.8044
X2.8Y-2.7204
X2.8Y-2.8204
X2.8024Y-3.05
X2.9Y-2.7204
X2.9Y-2.8204
X2.95Y-2.2
X2.95Y-2.4953
X3.0Y-2.7204
X3.0Y-2.8204
X3.0976Y-3.05
X3.1Y-2.7204
X3.1Y-2.8204
X3.2508Y-5.4068
X3.2508Y-5.5068
X3.7485Y-5.1256
X3.7485Y-5.2256
X3.7485Y-5.3256
X3.7485Y-5.4256
X3.8Y-3.1547
X3.8Y-3.45
X3.8Y-4.6
X3.8485Y-5.1256
X3.8485Y-5.2256
X3.8485Y-5.3256
X3.8485Y-5.4256
X3.9Y-4.6
X3.95Y-2.2
X3.95Y-2.4953
X4.5Y-4.1704
X4.5Y-4.2704
X4.5047Y-4.5
X4.6Y-4.1704
X4.6Y-4.2704
X4.65Y-2.8296
X4.65Y-2.9296
X4.65Y-3.65
X4.65Y-3.9453
X4.6524Y-2.6
X4.7Y-4.1704
X4.7Y-4.2704
X4.75Y-2.8296
X4.75Y-2.9296
X4.8Y-3.1547
X4.8Y-3.45
X4.8Y-4.1704
X4.8Y-4.2704
X4.8Y-4.5
X4.85Y-2.8296
X4.85Y-2.9296
X4.9476Y-2.6
X4.95Y-2.8296
X4.95Y-2.9296
X5.55Y-2.5
X5.65Y-2.5
X5.65Y-3.65
X5.65Y-3.9453
T5
X2.0472Y-1.9291
X2.0472Y-5.4724
X5.5906Y-1.9291
X5.5906Y-5.4724
M30
