%TF.GenerationSoftware,KiCad,Pcbnew,9.0.6-9.0.6~ubuntu24.04.1*%
%TF.CreationDate,2025-12-07T15:07:54+01:00*%
%TF.ProjectId,Discrete_clock_V1,44697363-7265-4746-955f-636c6f636b5f,rev?*%
%TF.SameCoordinates,Original*%
%TF.FileFunction,Legend,Top*%
%TF.FilePolarity,Positive*%
%FSLAX46Y46*%
G04 Gerber Fmt 4.6, Leading zero omitted, Abs format (unit mm)*
G04 Created by KiCad (PCBNEW 9.0.6-9.0.6~ubuntu24.04.1) date 2025-12-07 15:07:54*
%MOMM*%
%LPD*%
G01*
G04 APERTURE LIST*
%ADD10C,0.300000*%
%ADD11C,0.150000*%
%ADD12C,0.120000*%
G04 APERTURE END LIST*
D10*
X107073558Y-138619750D02*
X107073558Y-136619750D01*
X107073558Y-136619750D02*
X107835463Y-136619750D01*
X107835463Y-136619750D02*
X108025939Y-136714988D01*
X108025939Y-136714988D02*
X108121177Y-136810226D01*
X108121177Y-136810226D02*
X108216415Y-137000702D01*
X108216415Y-137000702D02*
X108216415Y-137286416D01*
X108216415Y-137286416D02*
X108121177Y-137476892D01*
X108121177Y-137476892D02*
X108025939Y-137572131D01*
X108025939Y-137572131D02*
X107835463Y-137667369D01*
X107835463Y-137667369D02*
X107073558Y-137667369D01*
X109073558Y-137572131D02*
X109740225Y-137572131D01*
X110025939Y-138619750D02*
X109073558Y-138619750D01*
X109073558Y-138619750D02*
X109073558Y-136619750D01*
X109073558Y-136619750D02*
X110025939Y-136619750D01*
X112311654Y-136810226D02*
X112406892Y-136714988D01*
X112406892Y-136714988D02*
X112597368Y-136619750D01*
X112597368Y-136619750D02*
X113073559Y-136619750D01*
X113073559Y-136619750D02*
X113264035Y-136714988D01*
X113264035Y-136714988D02*
X113359273Y-136810226D01*
X113359273Y-136810226D02*
X113454511Y-137000702D01*
X113454511Y-137000702D02*
X113454511Y-137191178D01*
X113454511Y-137191178D02*
X113359273Y-137476892D01*
X113359273Y-137476892D02*
X112216416Y-138619750D01*
X112216416Y-138619750D02*
X113454511Y-138619750D01*
X114692606Y-136619750D02*
X114883083Y-136619750D01*
X114883083Y-136619750D02*
X115073559Y-136714988D01*
X115073559Y-136714988D02*
X115168797Y-136810226D01*
X115168797Y-136810226D02*
X115264035Y-137000702D01*
X115264035Y-137000702D02*
X115359273Y-137381654D01*
X115359273Y-137381654D02*
X115359273Y-137857845D01*
X115359273Y-137857845D02*
X115264035Y-138238797D01*
X115264035Y-138238797D02*
X115168797Y-138429273D01*
X115168797Y-138429273D02*
X115073559Y-138524512D01*
X115073559Y-138524512D02*
X114883083Y-138619750D01*
X114883083Y-138619750D02*
X114692606Y-138619750D01*
X114692606Y-138619750D02*
X114502130Y-138524512D01*
X114502130Y-138524512D02*
X114406892Y-138429273D01*
X114406892Y-138429273D02*
X114311654Y-138238797D01*
X114311654Y-138238797D02*
X114216416Y-137857845D01*
X114216416Y-137857845D02*
X114216416Y-137381654D01*
X114216416Y-137381654D02*
X114311654Y-137000702D01*
X114311654Y-137000702D02*
X114406892Y-136810226D01*
X114406892Y-136810226D02*
X114502130Y-136714988D01*
X114502130Y-136714988D02*
X114692606Y-136619750D01*
X116121178Y-136810226D02*
X116216416Y-136714988D01*
X116216416Y-136714988D02*
X116406892Y-136619750D01*
X116406892Y-136619750D02*
X116883083Y-136619750D01*
X116883083Y-136619750D02*
X117073559Y-136714988D01*
X117073559Y-136714988D02*
X117168797Y-136810226D01*
X117168797Y-136810226D02*
X117264035Y-137000702D01*
X117264035Y-137000702D02*
X117264035Y-137191178D01*
X117264035Y-137191178D02*
X117168797Y-137476892D01*
X117168797Y-137476892D02*
X116025940Y-138619750D01*
X116025940Y-138619750D02*
X117264035Y-138619750D01*
X119073559Y-136619750D02*
X118121178Y-136619750D01*
X118121178Y-136619750D02*
X118025940Y-137572131D01*
X118025940Y-137572131D02*
X118121178Y-137476892D01*
X118121178Y-137476892D02*
X118311654Y-137381654D01*
X118311654Y-137381654D02*
X118787845Y-137381654D01*
X118787845Y-137381654D02*
X118978321Y-137476892D01*
X118978321Y-137476892D02*
X119073559Y-137572131D01*
X119073559Y-137572131D02*
X119168797Y-137762607D01*
X119168797Y-137762607D02*
X119168797Y-138238797D01*
X119168797Y-138238797D02*
X119073559Y-138429273D01*
X119073559Y-138429273D02*
X118978321Y-138524512D01*
X118978321Y-138524512D02*
X118787845Y-138619750D01*
X118787845Y-138619750D02*
X118311654Y-138619750D01*
X118311654Y-138619750D02*
X118121178Y-138524512D01*
X118121178Y-138524512D02*
X118025940Y-138429273D01*
X108025939Y-139839638D02*
X107073558Y-139839638D01*
X107073558Y-139839638D02*
X106978320Y-140792019D01*
X106978320Y-140792019D02*
X107073558Y-140696780D01*
X107073558Y-140696780D02*
X107264034Y-140601542D01*
X107264034Y-140601542D02*
X107740225Y-140601542D01*
X107740225Y-140601542D02*
X107930701Y-140696780D01*
X107930701Y-140696780D02*
X108025939Y-140792019D01*
X108025939Y-140792019D02*
X108121177Y-140982495D01*
X108121177Y-140982495D02*
X108121177Y-141458685D01*
X108121177Y-141458685D02*
X108025939Y-141649161D01*
X108025939Y-141649161D02*
X107930701Y-141744400D01*
X107930701Y-141744400D02*
X107740225Y-141839638D01*
X107740225Y-141839638D02*
X107264034Y-141839638D01*
X107264034Y-141839638D02*
X107073558Y-141744400D01*
X107073558Y-141744400D02*
X106978320Y-141649161D01*
X109359272Y-139839638D02*
X109549749Y-139839638D01*
X109549749Y-139839638D02*
X109740225Y-139934876D01*
X109740225Y-139934876D02*
X109835463Y-140030114D01*
X109835463Y-140030114D02*
X109930701Y-140220590D01*
X109930701Y-140220590D02*
X110025939Y-140601542D01*
X110025939Y-140601542D02*
X110025939Y-141077733D01*
X110025939Y-141077733D02*
X109930701Y-141458685D01*
X109930701Y-141458685D02*
X109835463Y-141649161D01*
X109835463Y-141649161D02*
X109740225Y-141744400D01*
X109740225Y-141744400D02*
X109549749Y-141839638D01*
X109549749Y-141839638D02*
X109359272Y-141839638D01*
X109359272Y-141839638D02*
X109168796Y-141744400D01*
X109168796Y-141744400D02*
X109073558Y-141649161D01*
X109073558Y-141649161D02*
X108978320Y-141458685D01*
X108978320Y-141458685D02*
X108883082Y-141077733D01*
X108883082Y-141077733D02*
X108883082Y-140601542D01*
X108883082Y-140601542D02*
X108978320Y-140220590D01*
X108978320Y-140220590D02*
X109073558Y-140030114D01*
X109073558Y-140030114D02*
X109168796Y-139934876D01*
X109168796Y-139934876D02*
X109359272Y-139839638D01*
X112406892Y-141839638D02*
X112406892Y-139839638D01*
X112406892Y-140792019D02*
X113549749Y-140792019D01*
X113549749Y-141839638D02*
X113549749Y-139839638D01*
X114311654Y-140506304D02*
X115359273Y-140506304D01*
X115359273Y-140506304D02*
X114311654Y-141839638D01*
X114311654Y-141839638D02*
X115359273Y-141839638D01*
X118787845Y-141649161D02*
X118692607Y-141744400D01*
X118692607Y-141744400D02*
X118406893Y-141839638D01*
X118406893Y-141839638D02*
X118216417Y-141839638D01*
X118216417Y-141839638D02*
X117930702Y-141744400D01*
X117930702Y-141744400D02*
X117740226Y-141553923D01*
X117740226Y-141553923D02*
X117644988Y-141363447D01*
X117644988Y-141363447D02*
X117549750Y-140982495D01*
X117549750Y-140982495D02*
X117549750Y-140696780D01*
X117549750Y-140696780D02*
X117644988Y-140315828D01*
X117644988Y-140315828D02*
X117740226Y-140125352D01*
X117740226Y-140125352D02*
X117930702Y-139934876D01*
X117930702Y-139934876D02*
X118216417Y-139839638D01*
X118216417Y-139839638D02*
X118406893Y-139839638D01*
X118406893Y-139839638D02*
X118692607Y-139934876D01*
X118692607Y-139934876D02*
X118787845Y-140030114D01*
X119930702Y-141839638D02*
X119740226Y-141744400D01*
X119740226Y-141744400D02*
X119644988Y-141553923D01*
X119644988Y-141553923D02*
X119644988Y-139839638D01*
X120978321Y-141839638D02*
X120787845Y-141744400D01*
X120787845Y-141744400D02*
X120692607Y-141649161D01*
X120692607Y-141649161D02*
X120597369Y-141458685D01*
X120597369Y-141458685D02*
X120597369Y-140887257D01*
X120597369Y-140887257D02*
X120692607Y-140696780D01*
X120692607Y-140696780D02*
X120787845Y-140601542D01*
X120787845Y-140601542D02*
X120978321Y-140506304D01*
X120978321Y-140506304D02*
X121264036Y-140506304D01*
X121264036Y-140506304D02*
X121454512Y-140601542D01*
X121454512Y-140601542D02*
X121549750Y-140696780D01*
X121549750Y-140696780D02*
X121644988Y-140887257D01*
X121644988Y-140887257D02*
X121644988Y-141458685D01*
X121644988Y-141458685D02*
X121549750Y-141649161D01*
X121549750Y-141649161D02*
X121454512Y-141744400D01*
X121454512Y-141744400D02*
X121264036Y-141839638D01*
X121264036Y-141839638D02*
X120978321Y-141839638D01*
X123359274Y-141744400D02*
X123168798Y-141839638D01*
X123168798Y-141839638D02*
X122787845Y-141839638D01*
X122787845Y-141839638D02*
X122597369Y-141744400D01*
X122597369Y-141744400D02*
X122502131Y-141649161D01*
X122502131Y-141649161D02*
X122406893Y-141458685D01*
X122406893Y-141458685D02*
X122406893Y-140887257D01*
X122406893Y-140887257D02*
X122502131Y-140696780D01*
X122502131Y-140696780D02*
X122597369Y-140601542D01*
X122597369Y-140601542D02*
X122787845Y-140506304D01*
X122787845Y-140506304D02*
X123168798Y-140506304D01*
X123168798Y-140506304D02*
X123359274Y-140601542D01*
X124216417Y-141839638D02*
X124216417Y-139839638D01*
X124406893Y-141077733D02*
X124978322Y-141839638D01*
X124978322Y-140506304D02*
X124216417Y-141268209D01*
X128502132Y-141839638D02*
X127835465Y-140887257D01*
X127359275Y-141839638D02*
X127359275Y-139839638D01*
X127359275Y-139839638D02*
X128121180Y-139839638D01*
X128121180Y-139839638D02*
X128311656Y-139934876D01*
X128311656Y-139934876D02*
X128406894Y-140030114D01*
X128406894Y-140030114D02*
X128502132Y-140220590D01*
X128502132Y-140220590D02*
X128502132Y-140506304D01*
X128502132Y-140506304D02*
X128406894Y-140696780D01*
X128406894Y-140696780D02*
X128311656Y-140792019D01*
X128311656Y-140792019D02*
X128121180Y-140887257D01*
X128121180Y-140887257D02*
X127359275Y-140887257D01*
X130121180Y-141744400D02*
X129930704Y-141839638D01*
X129930704Y-141839638D02*
X129549751Y-141839638D01*
X129549751Y-141839638D02*
X129359275Y-141744400D01*
X129359275Y-141744400D02*
X129264037Y-141553923D01*
X129264037Y-141553923D02*
X129264037Y-140792019D01*
X129264037Y-140792019D02*
X129359275Y-140601542D01*
X129359275Y-140601542D02*
X129549751Y-140506304D01*
X129549751Y-140506304D02*
X129930704Y-140506304D01*
X129930704Y-140506304D02*
X130121180Y-140601542D01*
X130121180Y-140601542D02*
X130216418Y-140792019D01*
X130216418Y-140792019D02*
X130216418Y-140982495D01*
X130216418Y-140982495D02*
X129264037Y-141172971D01*
X130883085Y-140506304D02*
X131359275Y-141839638D01*
X131359275Y-141839638D02*
X131835466Y-140506304D01*
X135168800Y-141839638D02*
X134025943Y-141839638D01*
X134597371Y-141839638D02*
X134597371Y-139839638D01*
X134597371Y-139839638D02*
X134406895Y-140125352D01*
X134406895Y-140125352D02*
X134216419Y-140315828D01*
X134216419Y-140315828D02*
X134025943Y-140411066D01*
D11*
X86891905Y-112806569D02*
X86891905Y-111806569D01*
X86891905Y-111806569D02*
X87130000Y-111806569D01*
X87130000Y-111806569D02*
X87272857Y-111854188D01*
X87272857Y-111854188D02*
X87368095Y-111949426D01*
X87368095Y-111949426D02*
X87415714Y-112044664D01*
X87415714Y-112044664D02*
X87463333Y-112235140D01*
X87463333Y-112235140D02*
X87463333Y-112377997D01*
X87463333Y-112377997D02*
X87415714Y-112568473D01*
X87415714Y-112568473D02*
X87368095Y-112663711D01*
X87368095Y-112663711D02*
X87272857Y-112758950D01*
X87272857Y-112758950D02*
X87130000Y-112806569D01*
X87130000Y-112806569D02*
X86891905Y-112806569D01*
X88034762Y-112235140D02*
X87939524Y-112187521D01*
X87939524Y-112187521D02*
X87891905Y-112139902D01*
X87891905Y-112139902D02*
X87844286Y-112044664D01*
X87844286Y-112044664D02*
X87844286Y-111997045D01*
X87844286Y-111997045D02*
X87891905Y-111901807D01*
X87891905Y-111901807D02*
X87939524Y-111854188D01*
X87939524Y-111854188D02*
X88034762Y-111806569D01*
X88034762Y-111806569D02*
X88225238Y-111806569D01*
X88225238Y-111806569D02*
X88320476Y-111854188D01*
X88320476Y-111854188D02*
X88368095Y-111901807D01*
X88368095Y-111901807D02*
X88415714Y-111997045D01*
X88415714Y-111997045D02*
X88415714Y-112044664D01*
X88415714Y-112044664D02*
X88368095Y-112139902D01*
X88368095Y-112139902D02*
X88320476Y-112187521D01*
X88320476Y-112187521D02*
X88225238Y-112235140D01*
X88225238Y-112235140D02*
X88034762Y-112235140D01*
X88034762Y-112235140D02*
X87939524Y-112282759D01*
X87939524Y-112282759D02*
X87891905Y-112330378D01*
X87891905Y-112330378D02*
X87844286Y-112425616D01*
X87844286Y-112425616D02*
X87844286Y-112616092D01*
X87844286Y-112616092D02*
X87891905Y-112711330D01*
X87891905Y-112711330D02*
X87939524Y-112758950D01*
X87939524Y-112758950D02*
X88034762Y-112806569D01*
X88034762Y-112806569D02*
X88225238Y-112806569D01*
X88225238Y-112806569D02*
X88320476Y-112758950D01*
X88320476Y-112758950D02*
X88368095Y-112711330D01*
X88368095Y-112711330D02*
X88415714Y-112616092D01*
X88415714Y-112616092D02*
X88415714Y-112425616D01*
X88415714Y-112425616D02*
X88368095Y-112330378D01*
X88368095Y-112330378D02*
X88320476Y-112282759D01*
X88320476Y-112282759D02*
X88225238Y-112235140D01*
X141424819Y-73032857D02*
X140948628Y-73366190D01*
X141424819Y-73604285D02*
X140424819Y-73604285D01*
X140424819Y-73604285D02*
X140424819Y-73223333D01*
X140424819Y-73223333D02*
X140472438Y-73128095D01*
X140472438Y-73128095D02*
X140520057Y-73080476D01*
X140520057Y-73080476D02*
X140615295Y-73032857D01*
X140615295Y-73032857D02*
X140758152Y-73032857D01*
X140758152Y-73032857D02*
X140853390Y-73080476D01*
X140853390Y-73080476D02*
X140901009Y-73128095D01*
X140901009Y-73128095D02*
X140948628Y-73223333D01*
X140948628Y-73223333D02*
X140948628Y-73604285D01*
X140520057Y-72651904D02*
X140472438Y-72604285D01*
X140472438Y-72604285D02*
X140424819Y-72509047D01*
X140424819Y-72509047D02*
X140424819Y-72270952D01*
X140424819Y-72270952D02*
X140472438Y-72175714D01*
X140472438Y-72175714D02*
X140520057Y-72128095D01*
X140520057Y-72128095D02*
X140615295Y-72080476D01*
X140615295Y-72080476D02*
X140710533Y-72080476D01*
X140710533Y-72080476D02*
X140853390Y-72128095D01*
X140853390Y-72128095D02*
X141424819Y-72699523D01*
X141424819Y-72699523D02*
X141424819Y-72080476D01*
X140758152Y-71223333D02*
X141424819Y-71223333D01*
X140377200Y-71461428D02*
X141091485Y-71699523D01*
X141091485Y-71699523D02*
X141091485Y-71080476D01*
X108404819Y-73032857D02*
X107928628Y-73366190D01*
X108404819Y-73604285D02*
X107404819Y-73604285D01*
X107404819Y-73604285D02*
X107404819Y-73223333D01*
X107404819Y-73223333D02*
X107452438Y-73128095D01*
X107452438Y-73128095D02*
X107500057Y-73080476D01*
X107500057Y-73080476D02*
X107595295Y-73032857D01*
X107595295Y-73032857D02*
X107738152Y-73032857D01*
X107738152Y-73032857D02*
X107833390Y-73080476D01*
X107833390Y-73080476D02*
X107881009Y-73128095D01*
X107881009Y-73128095D02*
X107928628Y-73223333D01*
X107928628Y-73223333D02*
X107928628Y-73604285D01*
X108404819Y-72080476D02*
X108404819Y-72651904D01*
X108404819Y-72366190D02*
X107404819Y-72366190D01*
X107404819Y-72366190D02*
X107547676Y-72461428D01*
X107547676Y-72461428D02*
X107642914Y-72556666D01*
X107642914Y-72556666D02*
X107690533Y-72651904D01*
X108404819Y-71604285D02*
X108404819Y-71413809D01*
X108404819Y-71413809D02*
X108357200Y-71318571D01*
X108357200Y-71318571D02*
X108309580Y-71270952D01*
X108309580Y-71270952D02*
X108166723Y-71175714D01*
X108166723Y-71175714D02*
X107976247Y-71128095D01*
X107976247Y-71128095D02*
X107595295Y-71128095D01*
X107595295Y-71128095D02*
X107500057Y-71175714D01*
X107500057Y-71175714D02*
X107452438Y-71223333D01*
X107452438Y-71223333D02*
X107404819Y-71318571D01*
X107404819Y-71318571D02*
X107404819Y-71509047D01*
X107404819Y-71509047D02*
X107452438Y-71604285D01*
X107452438Y-71604285D02*
X107500057Y-71651904D01*
X107500057Y-71651904D02*
X107595295Y-71699523D01*
X107595295Y-71699523D02*
X107833390Y-71699523D01*
X107833390Y-71699523D02*
X107928628Y-71651904D01*
X107928628Y-71651904D02*
X107976247Y-71604285D01*
X107976247Y-71604285D02*
X108023866Y-71509047D01*
X108023866Y-71509047D02*
X108023866Y-71318571D01*
X108023866Y-71318571D02*
X107976247Y-71223333D01*
X107976247Y-71223333D02*
X107928628Y-71175714D01*
X107928628Y-71175714D02*
X107833390Y-71128095D01*
X86320054Y-127456569D02*
X86320054Y-126456569D01*
X86320054Y-126456569D02*
X86558149Y-126456569D01*
X86558149Y-126456569D02*
X86701006Y-126504188D01*
X86701006Y-126504188D02*
X86796244Y-126599426D01*
X86796244Y-126599426D02*
X86843863Y-126694664D01*
X86843863Y-126694664D02*
X86891482Y-126885140D01*
X86891482Y-126885140D02*
X86891482Y-127027997D01*
X86891482Y-127027997D02*
X86843863Y-127218473D01*
X86843863Y-127218473D02*
X86796244Y-127313711D01*
X86796244Y-127313711D02*
X86701006Y-127408950D01*
X86701006Y-127408950D02*
X86558149Y-127456569D01*
X86558149Y-127456569D02*
X86320054Y-127456569D01*
X87843863Y-127456569D02*
X87272435Y-127456569D01*
X87558149Y-127456569D02*
X87558149Y-126456569D01*
X87558149Y-126456569D02*
X87462911Y-126599426D01*
X87462911Y-126599426D02*
X87367673Y-126694664D01*
X87367673Y-126694664D02*
X87272435Y-126742283D01*
X88462911Y-126456569D02*
X88558149Y-126456569D01*
X88558149Y-126456569D02*
X88653387Y-126504188D01*
X88653387Y-126504188D02*
X88701006Y-126551807D01*
X88701006Y-126551807D02*
X88748625Y-126647045D01*
X88748625Y-126647045D02*
X88796244Y-126837521D01*
X88796244Y-126837521D02*
X88796244Y-127075616D01*
X88796244Y-127075616D02*
X88748625Y-127266092D01*
X88748625Y-127266092D02*
X88701006Y-127361330D01*
X88701006Y-127361330D02*
X88653387Y-127408950D01*
X88653387Y-127408950D02*
X88558149Y-127456569D01*
X88558149Y-127456569D02*
X88462911Y-127456569D01*
X88462911Y-127456569D02*
X88367673Y-127408950D01*
X88367673Y-127408950D02*
X88320054Y-127361330D01*
X88320054Y-127361330D02*
X88272435Y-127266092D01*
X88272435Y-127266092D02*
X88224816Y-127075616D01*
X88224816Y-127075616D02*
X88224816Y-126837521D01*
X88224816Y-126837521D02*
X88272435Y-126647045D01*
X88272435Y-126647045D02*
X88320054Y-126551807D01*
X88320054Y-126551807D02*
X88367673Y-126504188D01*
X88367673Y-126504188D02*
X88462911Y-126456569D01*
X62003333Y-93241330D02*
X61955714Y-93288950D01*
X61955714Y-93288950D02*
X61812857Y-93336569D01*
X61812857Y-93336569D02*
X61717619Y-93336569D01*
X61717619Y-93336569D02*
X61574762Y-93288950D01*
X61574762Y-93288950D02*
X61479524Y-93193711D01*
X61479524Y-93193711D02*
X61431905Y-93098473D01*
X61431905Y-93098473D02*
X61384286Y-92907997D01*
X61384286Y-92907997D02*
X61384286Y-92765140D01*
X61384286Y-92765140D02*
X61431905Y-92574664D01*
X61431905Y-92574664D02*
X61479524Y-92479426D01*
X61479524Y-92479426D02*
X61574762Y-92384188D01*
X61574762Y-92384188D02*
X61717619Y-92336569D01*
X61717619Y-92336569D02*
X61812857Y-92336569D01*
X61812857Y-92336569D02*
X61955714Y-92384188D01*
X61955714Y-92384188D02*
X62003333Y-92431807D01*
X62860476Y-92669902D02*
X62860476Y-93336569D01*
X62622381Y-92288950D02*
X62384286Y-93003235D01*
X62384286Y-93003235D02*
X63003333Y-93003235D01*
X91894819Y-71762857D02*
X91418628Y-72096190D01*
X91894819Y-72334285D02*
X90894819Y-72334285D01*
X90894819Y-72334285D02*
X90894819Y-71953333D01*
X90894819Y-71953333D02*
X90942438Y-71858095D01*
X90942438Y-71858095D02*
X90990057Y-71810476D01*
X90990057Y-71810476D02*
X91085295Y-71762857D01*
X91085295Y-71762857D02*
X91228152Y-71762857D01*
X91228152Y-71762857D02*
X91323390Y-71810476D01*
X91323390Y-71810476D02*
X91371009Y-71858095D01*
X91371009Y-71858095D02*
X91418628Y-71953333D01*
X91418628Y-71953333D02*
X91418628Y-72334285D01*
X91894819Y-70810476D02*
X91894819Y-71381904D01*
X91894819Y-71096190D02*
X90894819Y-71096190D01*
X90894819Y-71096190D02*
X91037676Y-71191428D01*
X91037676Y-71191428D02*
X91132914Y-71286666D01*
X91132914Y-71286666D02*
X91180533Y-71381904D01*
X90894819Y-70191428D02*
X90894819Y-70096190D01*
X90894819Y-70096190D02*
X90942438Y-70000952D01*
X90942438Y-70000952D02*
X90990057Y-69953333D01*
X90990057Y-69953333D02*
X91085295Y-69905714D01*
X91085295Y-69905714D02*
X91275771Y-69858095D01*
X91275771Y-69858095D02*
X91513866Y-69858095D01*
X91513866Y-69858095D02*
X91704342Y-69905714D01*
X91704342Y-69905714D02*
X91799580Y-69953333D01*
X91799580Y-69953333D02*
X91847200Y-70000952D01*
X91847200Y-70000952D02*
X91894819Y-70096190D01*
X91894819Y-70096190D02*
X91894819Y-70191428D01*
X91894819Y-70191428D02*
X91847200Y-70286666D01*
X91847200Y-70286666D02*
X91799580Y-70334285D01*
X91799580Y-70334285D02*
X91704342Y-70381904D01*
X91704342Y-70381904D02*
X91513866Y-70429523D01*
X91513866Y-70429523D02*
X91275771Y-70429523D01*
X91275771Y-70429523D02*
X91085295Y-70381904D01*
X91085295Y-70381904D02*
X90990057Y-70334285D01*
X90990057Y-70334285D02*
X90942438Y-70286666D01*
X90942438Y-70286666D02*
X90894819Y-70191428D01*
X55334819Y-102533654D02*
X56144342Y-102533654D01*
X56144342Y-102533654D02*
X56239580Y-102486035D01*
X56239580Y-102486035D02*
X56287200Y-102438416D01*
X56287200Y-102438416D02*
X56334819Y-102343178D01*
X56334819Y-102343178D02*
X56334819Y-102152702D01*
X56334819Y-102152702D02*
X56287200Y-102057464D01*
X56287200Y-102057464D02*
X56239580Y-102009845D01*
X56239580Y-102009845D02*
X56144342Y-101962226D01*
X56144342Y-101962226D02*
X55334819Y-101962226D01*
X55334819Y-101581273D02*
X55334819Y-100962226D01*
X55334819Y-100962226D02*
X55715771Y-101295559D01*
X55715771Y-101295559D02*
X55715771Y-101152702D01*
X55715771Y-101152702D02*
X55763390Y-101057464D01*
X55763390Y-101057464D02*
X55811009Y-101009845D01*
X55811009Y-101009845D02*
X55906247Y-100962226D01*
X55906247Y-100962226D02*
X56144342Y-100962226D01*
X56144342Y-100962226D02*
X56239580Y-101009845D01*
X56239580Y-101009845D02*
X56287200Y-101057464D01*
X56287200Y-101057464D02*
X56334819Y-101152702D01*
X56334819Y-101152702D02*
X56334819Y-101438416D01*
X56334819Y-101438416D02*
X56287200Y-101533654D01*
X56287200Y-101533654D02*
X56239580Y-101581273D01*
X137614819Y-108592857D02*
X137138628Y-108926190D01*
X137614819Y-109164285D02*
X136614819Y-109164285D01*
X136614819Y-109164285D02*
X136614819Y-108783333D01*
X136614819Y-108783333D02*
X136662438Y-108688095D01*
X136662438Y-108688095D02*
X136710057Y-108640476D01*
X136710057Y-108640476D02*
X136805295Y-108592857D01*
X136805295Y-108592857D02*
X136948152Y-108592857D01*
X136948152Y-108592857D02*
X137043390Y-108640476D01*
X137043390Y-108640476D02*
X137091009Y-108688095D01*
X137091009Y-108688095D02*
X137138628Y-108783333D01*
X137138628Y-108783333D02*
X137138628Y-109164285D01*
X136710057Y-108211904D02*
X136662438Y-108164285D01*
X136662438Y-108164285D02*
X136614819Y-108069047D01*
X136614819Y-108069047D02*
X136614819Y-107830952D01*
X136614819Y-107830952D02*
X136662438Y-107735714D01*
X136662438Y-107735714D02*
X136710057Y-107688095D01*
X136710057Y-107688095D02*
X136805295Y-107640476D01*
X136805295Y-107640476D02*
X136900533Y-107640476D01*
X136900533Y-107640476D02*
X137043390Y-107688095D01*
X137043390Y-107688095D02*
X137614819Y-108259523D01*
X137614819Y-108259523D02*
X137614819Y-107640476D01*
X136614819Y-106735714D02*
X136614819Y-107211904D01*
X136614819Y-107211904D02*
X137091009Y-107259523D01*
X137091009Y-107259523D02*
X137043390Y-107211904D01*
X137043390Y-107211904D02*
X136995771Y-107116666D01*
X136995771Y-107116666D02*
X136995771Y-106878571D01*
X136995771Y-106878571D02*
X137043390Y-106783333D01*
X137043390Y-106783333D02*
X137091009Y-106735714D01*
X137091009Y-106735714D02*
X137186247Y-106688095D01*
X137186247Y-106688095D02*
X137424342Y-106688095D01*
X137424342Y-106688095D02*
X137519580Y-106735714D01*
X137519580Y-106735714D02*
X137567200Y-106783333D01*
X137567200Y-106783333D02*
X137614819Y-106878571D01*
X137614819Y-106878571D02*
X137614819Y-107116666D01*
X137614819Y-107116666D02*
X137567200Y-107211904D01*
X137567200Y-107211904D02*
X137519580Y-107259523D01*
X93554819Y-117173333D02*
X94269104Y-117173333D01*
X94269104Y-117173333D02*
X94411961Y-117220952D01*
X94411961Y-117220952D02*
X94507200Y-117316190D01*
X94507200Y-117316190D02*
X94554819Y-117459047D01*
X94554819Y-117459047D02*
X94554819Y-117554285D01*
X93888152Y-116268571D02*
X94554819Y-116268571D01*
X93507200Y-116506666D02*
X94221485Y-116744761D01*
X94221485Y-116744761D02*
X94221485Y-116125714D01*
X81811905Y-110266569D02*
X81811905Y-109266569D01*
X81811905Y-109266569D02*
X82050000Y-109266569D01*
X82050000Y-109266569D02*
X82192857Y-109314188D01*
X82192857Y-109314188D02*
X82288095Y-109409426D01*
X82288095Y-109409426D02*
X82335714Y-109504664D01*
X82335714Y-109504664D02*
X82383333Y-109695140D01*
X82383333Y-109695140D02*
X82383333Y-109837997D01*
X82383333Y-109837997D02*
X82335714Y-110028473D01*
X82335714Y-110028473D02*
X82288095Y-110123711D01*
X82288095Y-110123711D02*
X82192857Y-110218950D01*
X82192857Y-110218950D02*
X82050000Y-110266569D01*
X82050000Y-110266569D02*
X81811905Y-110266569D01*
X82716667Y-109266569D02*
X83383333Y-109266569D01*
X83383333Y-109266569D02*
X82954762Y-110266569D01*
X86814819Y-71762857D02*
X86338628Y-72096190D01*
X86814819Y-72334285D02*
X85814819Y-72334285D01*
X85814819Y-72334285D02*
X85814819Y-71953333D01*
X85814819Y-71953333D02*
X85862438Y-71858095D01*
X85862438Y-71858095D02*
X85910057Y-71810476D01*
X85910057Y-71810476D02*
X86005295Y-71762857D01*
X86005295Y-71762857D02*
X86148152Y-71762857D01*
X86148152Y-71762857D02*
X86243390Y-71810476D01*
X86243390Y-71810476D02*
X86291009Y-71858095D01*
X86291009Y-71858095D02*
X86338628Y-71953333D01*
X86338628Y-71953333D02*
X86338628Y-72334285D01*
X86814819Y-70810476D02*
X86814819Y-71381904D01*
X86814819Y-71096190D02*
X85814819Y-71096190D01*
X85814819Y-71096190D02*
X85957676Y-71191428D01*
X85957676Y-71191428D02*
X86052914Y-71286666D01*
X86052914Y-71286666D02*
X86100533Y-71381904D01*
X85910057Y-70429523D02*
X85862438Y-70381904D01*
X85862438Y-70381904D02*
X85814819Y-70286666D01*
X85814819Y-70286666D02*
X85814819Y-70048571D01*
X85814819Y-70048571D02*
X85862438Y-69953333D01*
X85862438Y-69953333D02*
X85910057Y-69905714D01*
X85910057Y-69905714D02*
X86005295Y-69858095D01*
X86005295Y-69858095D02*
X86100533Y-69858095D01*
X86100533Y-69858095D02*
X86243390Y-69905714D01*
X86243390Y-69905714D02*
X86814819Y-70477142D01*
X86814819Y-70477142D02*
X86814819Y-69858095D01*
X110944819Y-73032857D02*
X110468628Y-73366190D01*
X110944819Y-73604285D02*
X109944819Y-73604285D01*
X109944819Y-73604285D02*
X109944819Y-73223333D01*
X109944819Y-73223333D02*
X109992438Y-73128095D01*
X109992438Y-73128095D02*
X110040057Y-73080476D01*
X110040057Y-73080476D02*
X110135295Y-73032857D01*
X110135295Y-73032857D02*
X110278152Y-73032857D01*
X110278152Y-73032857D02*
X110373390Y-73080476D01*
X110373390Y-73080476D02*
X110421009Y-73128095D01*
X110421009Y-73128095D02*
X110468628Y-73223333D01*
X110468628Y-73223333D02*
X110468628Y-73604285D01*
X110040057Y-72651904D02*
X109992438Y-72604285D01*
X109992438Y-72604285D02*
X109944819Y-72509047D01*
X109944819Y-72509047D02*
X109944819Y-72270952D01*
X109944819Y-72270952D02*
X109992438Y-72175714D01*
X109992438Y-72175714D02*
X110040057Y-72128095D01*
X110040057Y-72128095D02*
X110135295Y-72080476D01*
X110135295Y-72080476D02*
X110230533Y-72080476D01*
X110230533Y-72080476D02*
X110373390Y-72128095D01*
X110373390Y-72128095D02*
X110944819Y-72699523D01*
X110944819Y-72699523D02*
X110944819Y-72080476D01*
X109944819Y-71461428D02*
X109944819Y-71366190D01*
X109944819Y-71366190D02*
X109992438Y-71270952D01*
X109992438Y-71270952D02*
X110040057Y-71223333D01*
X110040057Y-71223333D02*
X110135295Y-71175714D01*
X110135295Y-71175714D02*
X110325771Y-71128095D01*
X110325771Y-71128095D02*
X110563866Y-71128095D01*
X110563866Y-71128095D02*
X110754342Y-71175714D01*
X110754342Y-71175714D02*
X110849580Y-71223333D01*
X110849580Y-71223333D02*
X110897200Y-71270952D01*
X110897200Y-71270952D02*
X110944819Y-71366190D01*
X110944819Y-71366190D02*
X110944819Y-71461428D01*
X110944819Y-71461428D02*
X110897200Y-71556666D01*
X110897200Y-71556666D02*
X110849580Y-71604285D01*
X110849580Y-71604285D02*
X110754342Y-71651904D01*
X110754342Y-71651904D02*
X110563866Y-71699523D01*
X110563866Y-71699523D02*
X110325771Y-71699523D01*
X110325771Y-71699523D02*
X110135295Y-71651904D01*
X110135295Y-71651904D02*
X110040057Y-71604285D01*
X110040057Y-71604285D02*
X109992438Y-71556666D01*
X109992438Y-71556666D02*
X109944819Y-71461428D01*
X75289580Y-59796666D02*
X75337200Y-59844285D01*
X75337200Y-59844285D02*
X75384819Y-59987142D01*
X75384819Y-59987142D02*
X75384819Y-60082380D01*
X75384819Y-60082380D02*
X75337200Y-60225237D01*
X75337200Y-60225237D02*
X75241961Y-60320475D01*
X75241961Y-60320475D02*
X75146723Y-60368094D01*
X75146723Y-60368094D02*
X74956247Y-60415713D01*
X74956247Y-60415713D02*
X74813390Y-60415713D01*
X74813390Y-60415713D02*
X74622914Y-60368094D01*
X74622914Y-60368094D02*
X74527676Y-60320475D01*
X74527676Y-60320475D02*
X74432438Y-60225237D01*
X74432438Y-60225237D02*
X74384819Y-60082380D01*
X74384819Y-60082380D02*
X74384819Y-59987142D01*
X74384819Y-59987142D02*
X74432438Y-59844285D01*
X74432438Y-59844285D02*
X74480057Y-59796666D01*
X74813390Y-59225237D02*
X74765771Y-59320475D01*
X74765771Y-59320475D02*
X74718152Y-59368094D01*
X74718152Y-59368094D02*
X74622914Y-59415713D01*
X74622914Y-59415713D02*
X74575295Y-59415713D01*
X74575295Y-59415713D02*
X74480057Y-59368094D01*
X74480057Y-59368094D02*
X74432438Y-59320475D01*
X74432438Y-59320475D02*
X74384819Y-59225237D01*
X74384819Y-59225237D02*
X74384819Y-59034761D01*
X74384819Y-59034761D02*
X74432438Y-58939523D01*
X74432438Y-58939523D02*
X74480057Y-58891904D01*
X74480057Y-58891904D02*
X74575295Y-58844285D01*
X74575295Y-58844285D02*
X74622914Y-58844285D01*
X74622914Y-58844285D02*
X74718152Y-58891904D01*
X74718152Y-58891904D02*
X74765771Y-58939523D01*
X74765771Y-58939523D02*
X74813390Y-59034761D01*
X74813390Y-59034761D02*
X74813390Y-59225237D01*
X74813390Y-59225237D02*
X74861009Y-59320475D01*
X74861009Y-59320475D02*
X74908628Y-59368094D01*
X74908628Y-59368094D02*
X75003866Y-59415713D01*
X75003866Y-59415713D02*
X75194342Y-59415713D01*
X75194342Y-59415713D02*
X75289580Y-59368094D01*
X75289580Y-59368094D02*
X75337200Y-59320475D01*
X75337200Y-59320475D02*
X75384819Y-59225237D01*
X75384819Y-59225237D02*
X75384819Y-59034761D01*
X75384819Y-59034761D02*
X75337200Y-58939523D01*
X75337200Y-58939523D02*
X75289580Y-58891904D01*
X75289580Y-58891904D02*
X75194342Y-58844285D01*
X75194342Y-58844285D02*
X75003866Y-58844285D01*
X75003866Y-58844285D02*
X74908628Y-58891904D01*
X74908628Y-58891904D02*
X74861009Y-58939523D01*
X74861009Y-58939523D02*
X74813390Y-59034761D01*
X114666666Y-66454819D02*
X114666666Y-67169104D01*
X114666666Y-67169104D02*
X114619047Y-67311961D01*
X114619047Y-67311961D02*
X114523809Y-67407200D01*
X114523809Y-67407200D02*
X114380952Y-67454819D01*
X114380952Y-67454819D02*
X114285714Y-67454819D01*
X115571428Y-66454819D02*
X115380952Y-66454819D01*
X115380952Y-66454819D02*
X115285714Y-66502438D01*
X115285714Y-66502438D02*
X115238095Y-66550057D01*
X115238095Y-66550057D02*
X115142857Y-66692914D01*
X115142857Y-66692914D02*
X115095238Y-66883390D01*
X115095238Y-66883390D02*
X115095238Y-67264342D01*
X115095238Y-67264342D02*
X115142857Y-67359580D01*
X115142857Y-67359580D02*
X115190476Y-67407200D01*
X115190476Y-67407200D02*
X115285714Y-67454819D01*
X115285714Y-67454819D02*
X115476190Y-67454819D01*
X115476190Y-67454819D02*
X115571428Y-67407200D01*
X115571428Y-67407200D02*
X115619047Y-67359580D01*
X115619047Y-67359580D02*
X115666666Y-67264342D01*
X115666666Y-67264342D02*
X115666666Y-67026247D01*
X115666666Y-67026247D02*
X115619047Y-66931009D01*
X115619047Y-66931009D02*
X115571428Y-66883390D01*
X115571428Y-66883390D02*
X115476190Y-66835771D01*
X115476190Y-66835771D02*
X115285714Y-66835771D01*
X115285714Y-66835771D02*
X115190476Y-66883390D01*
X115190476Y-66883390D02*
X115142857Y-66931009D01*
X115142857Y-66931009D02*
X115095238Y-67026247D01*
X61414819Y-71762857D02*
X60938628Y-72096190D01*
X61414819Y-72334285D02*
X60414819Y-72334285D01*
X60414819Y-72334285D02*
X60414819Y-71953333D01*
X60414819Y-71953333D02*
X60462438Y-71858095D01*
X60462438Y-71858095D02*
X60510057Y-71810476D01*
X60510057Y-71810476D02*
X60605295Y-71762857D01*
X60605295Y-71762857D02*
X60748152Y-71762857D01*
X60748152Y-71762857D02*
X60843390Y-71810476D01*
X60843390Y-71810476D02*
X60891009Y-71858095D01*
X60891009Y-71858095D02*
X60938628Y-71953333D01*
X60938628Y-71953333D02*
X60938628Y-72334285D01*
X61414819Y-70810476D02*
X61414819Y-71381904D01*
X61414819Y-71096190D02*
X60414819Y-71096190D01*
X60414819Y-71096190D02*
X60557676Y-71191428D01*
X60557676Y-71191428D02*
X60652914Y-71286666D01*
X60652914Y-71286666D02*
X60700533Y-71381904D01*
X60748152Y-69953333D02*
X61414819Y-69953333D01*
X60367200Y-70191428D02*
X61081485Y-70429523D01*
X61081485Y-70429523D02*
X61081485Y-69810476D01*
X112459819Y-118054285D02*
X111459819Y-118054285D01*
X111459819Y-118054285D02*
X111459819Y-117816190D01*
X111459819Y-117816190D02*
X111507438Y-117673333D01*
X111507438Y-117673333D02*
X111602676Y-117578095D01*
X111602676Y-117578095D02*
X111697914Y-117530476D01*
X111697914Y-117530476D02*
X111888390Y-117482857D01*
X111888390Y-117482857D02*
X112031247Y-117482857D01*
X112031247Y-117482857D02*
X112221723Y-117530476D01*
X112221723Y-117530476D02*
X112316961Y-117578095D01*
X112316961Y-117578095D02*
X112412200Y-117673333D01*
X112412200Y-117673333D02*
X112459819Y-117816190D01*
X112459819Y-117816190D02*
X112459819Y-118054285D01*
X111459819Y-117149523D02*
X111459819Y-116530476D01*
X111459819Y-116530476D02*
X111840771Y-116863809D01*
X111840771Y-116863809D02*
X111840771Y-116720952D01*
X111840771Y-116720952D02*
X111888390Y-116625714D01*
X111888390Y-116625714D02*
X111936009Y-116578095D01*
X111936009Y-116578095D02*
X112031247Y-116530476D01*
X112031247Y-116530476D02*
X112269342Y-116530476D01*
X112269342Y-116530476D02*
X112364580Y-116578095D01*
X112364580Y-116578095D02*
X112412200Y-116625714D01*
X112412200Y-116625714D02*
X112459819Y-116720952D01*
X112459819Y-116720952D02*
X112459819Y-117006666D01*
X112459819Y-117006666D02*
X112412200Y-117101904D01*
X112412200Y-117101904D02*
X112364580Y-117149523D01*
X111459819Y-116197142D02*
X111459819Y-115578095D01*
X111459819Y-115578095D02*
X111840771Y-115911428D01*
X111840771Y-115911428D02*
X111840771Y-115768571D01*
X111840771Y-115768571D02*
X111888390Y-115673333D01*
X111888390Y-115673333D02*
X111936009Y-115625714D01*
X111936009Y-115625714D02*
X112031247Y-115578095D01*
X112031247Y-115578095D02*
X112269342Y-115578095D01*
X112269342Y-115578095D02*
X112364580Y-115625714D01*
X112364580Y-115625714D02*
X112412200Y-115673333D01*
X112412200Y-115673333D02*
X112459819Y-115768571D01*
X112459819Y-115768571D02*
X112459819Y-116054285D01*
X112459819Y-116054285D02*
X112412200Y-116149523D01*
X112412200Y-116149523D02*
X112364580Y-116197142D01*
X73493333Y-104766569D02*
X73160000Y-104290378D01*
X72921905Y-104766569D02*
X72921905Y-103766569D01*
X72921905Y-103766569D02*
X73302857Y-103766569D01*
X73302857Y-103766569D02*
X73398095Y-103814188D01*
X73398095Y-103814188D02*
X73445714Y-103861807D01*
X73445714Y-103861807D02*
X73493333Y-103957045D01*
X73493333Y-103957045D02*
X73493333Y-104099902D01*
X73493333Y-104099902D02*
X73445714Y-104195140D01*
X73445714Y-104195140D02*
X73398095Y-104242759D01*
X73398095Y-104242759D02*
X73302857Y-104290378D01*
X73302857Y-104290378D02*
X72921905Y-104290378D01*
X73874286Y-103861807D02*
X73921905Y-103814188D01*
X73921905Y-103814188D02*
X74017143Y-103766569D01*
X74017143Y-103766569D02*
X74255238Y-103766569D01*
X74255238Y-103766569D02*
X74350476Y-103814188D01*
X74350476Y-103814188D02*
X74398095Y-103861807D01*
X74398095Y-103861807D02*
X74445714Y-103957045D01*
X74445714Y-103957045D02*
X74445714Y-104052283D01*
X74445714Y-104052283D02*
X74398095Y-104195140D01*
X74398095Y-104195140D02*
X73826667Y-104766569D01*
X73826667Y-104766569D02*
X74445714Y-104766569D01*
X86415714Y-138206569D02*
X86415714Y-137206569D01*
X86415714Y-137206569D02*
X86653809Y-137206569D01*
X86653809Y-137206569D02*
X86796666Y-137254188D01*
X86796666Y-137254188D02*
X86891904Y-137349426D01*
X86891904Y-137349426D02*
X86939523Y-137444664D01*
X86939523Y-137444664D02*
X86987142Y-137635140D01*
X86987142Y-137635140D02*
X86987142Y-137777997D01*
X86987142Y-137777997D02*
X86939523Y-137968473D01*
X86939523Y-137968473D02*
X86891904Y-138063711D01*
X86891904Y-138063711D02*
X86796666Y-138158950D01*
X86796666Y-138158950D02*
X86653809Y-138206569D01*
X86653809Y-138206569D02*
X86415714Y-138206569D01*
X87939523Y-138206569D02*
X87368095Y-138206569D01*
X87653809Y-138206569D02*
X87653809Y-137206569D01*
X87653809Y-137206569D02*
X87558571Y-137349426D01*
X87558571Y-137349426D02*
X87463333Y-137444664D01*
X87463333Y-137444664D02*
X87368095Y-137492283D01*
X88320476Y-137301807D02*
X88368095Y-137254188D01*
X88368095Y-137254188D02*
X88463333Y-137206569D01*
X88463333Y-137206569D02*
X88701428Y-137206569D01*
X88701428Y-137206569D02*
X88796666Y-137254188D01*
X88796666Y-137254188D02*
X88844285Y-137301807D01*
X88844285Y-137301807D02*
X88891904Y-137397045D01*
X88891904Y-137397045D02*
X88891904Y-137492283D01*
X88891904Y-137492283D02*
X88844285Y-137635140D01*
X88844285Y-137635140D02*
X88272857Y-138206569D01*
X88272857Y-138206569D02*
X88891904Y-138206569D01*
X73493333Y-107306569D02*
X73160000Y-106830378D01*
X72921905Y-107306569D02*
X72921905Y-106306569D01*
X72921905Y-106306569D02*
X73302857Y-106306569D01*
X73302857Y-106306569D02*
X73398095Y-106354188D01*
X73398095Y-106354188D02*
X73445714Y-106401807D01*
X73445714Y-106401807D02*
X73493333Y-106497045D01*
X73493333Y-106497045D02*
X73493333Y-106639902D01*
X73493333Y-106639902D02*
X73445714Y-106735140D01*
X73445714Y-106735140D02*
X73398095Y-106782759D01*
X73398095Y-106782759D02*
X73302857Y-106830378D01*
X73302857Y-106830378D02*
X72921905Y-106830378D01*
X73826667Y-106306569D02*
X74445714Y-106306569D01*
X74445714Y-106306569D02*
X74112381Y-106687521D01*
X74112381Y-106687521D02*
X74255238Y-106687521D01*
X74255238Y-106687521D02*
X74350476Y-106735140D01*
X74350476Y-106735140D02*
X74398095Y-106782759D01*
X74398095Y-106782759D02*
X74445714Y-106877997D01*
X74445714Y-106877997D02*
X74445714Y-107116092D01*
X74445714Y-107116092D02*
X74398095Y-107211330D01*
X74398095Y-107211330D02*
X74350476Y-107258950D01*
X74350476Y-107258950D02*
X74255238Y-107306569D01*
X74255238Y-107306569D02*
X73969524Y-107306569D01*
X73969524Y-107306569D02*
X73874286Y-107258950D01*
X73874286Y-107258950D02*
X73826667Y-107211330D01*
X109559819Y-123134285D02*
X108559819Y-123134285D01*
X108559819Y-123134285D02*
X108559819Y-122896190D01*
X108559819Y-122896190D02*
X108607438Y-122753333D01*
X108607438Y-122753333D02*
X108702676Y-122658095D01*
X108702676Y-122658095D02*
X108797914Y-122610476D01*
X108797914Y-122610476D02*
X108988390Y-122562857D01*
X108988390Y-122562857D02*
X109131247Y-122562857D01*
X109131247Y-122562857D02*
X109321723Y-122610476D01*
X109321723Y-122610476D02*
X109416961Y-122658095D01*
X109416961Y-122658095D02*
X109512200Y-122753333D01*
X109512200Y-122753333D02*
X109559819Y-122896190D01*
X109559819Y-122896190D02*
X109559819Y-123134285D01*
X108559819Y-122229523D02*
X108559819Y-121610476D01*
X108559819Y-121610476D02*
X108940771Y-121943809D01*
X108940771Y-121943809D02*
X108940771Y-121800952D01*
X108940771Y-121800952D02*
X108988390Y-121705714D01*
X108988390Y-121705714D02*
X109036009Y-121658095D01*
X109036009Y-121658095D02*
X109131247Y-121610476D01*
X109131247Y-121610476D02*
X109369342Y-121610476D01*
X109369342Y-121610476D02*
X109464580Y-121658095D01*
X109464580Y-121658095D02*
X109512200Y-121705714D01*
X109512200Y-121705714D02*
X109559819Y-121800952D01*
X109559819Y-121800952D02*
X109559819Y-122086666D01*
X109559819Y-122086666D02*
X109512200Y-122181904D01*
X109512200Y-122181904D02*
X109464580Y-122229523D01*
X108893152Y-120753333D02*
X109559819Y-120753333D01*
X108512200Y-120991428D02*
X109226485Y-121229523D01*
X109226485Y-121229523D02*
X109226485Y-120610476D01*
X143869580Y-97102857D02*
X143917200Y-97150476D01*
X143917200Y-97150476D02*
X143964819Y-97293333D01*
X143964819Y-97293333D02*
X143964819Y-97388571D01*
X143964819Y-97388571D02*
X143917200Y-97531428D01*
X143917200Y-97531428D02*
X143821961Y-97626666D01*
X143821961Y-97626666D02*
X143726723Y-97674285D01*
X143726723Y-97674285D02*
X143536247Y-97721904D01*
X143536247Y-97721904D02*
X143393390Y-97721904D01*
X143393390Y-97721904D02*
X143202914Y-97674285D01*
X143202914Y-97674285D02*
X143107676Y-97626666D01*
X143107676Y-97626666D02*
X143012438Y-97531428D01*
X143012438Y-97531428D02*
X142964819Y-97388571D01*
X142964819Y-97388571D02*
X142964819Y-97293333D01*
X142964819Y-97293333D02*
X143012438Y-97150476D01*
X143012438Y-97150476D02*
X143060057Y-97102857D01*
X143964819Y-96150476D02*
X143964819Y-96721904D01*
X143964819Y-96436190D02*
X142964819Y-96436190D01*
X142964819Y-96436190D02*
X143107676Y-96531428D01*
X143107676Y-96531428D02*
X143202914Y-96626666D01*
X143202914Y-96626666D02*
X143250533Y-96721904D01*
X142964819Y-95817142D02*
X142964819Y-95198095D01*
X142964819Y-95198095D02*
X143345771Y-95531428D01*
X143345771Y-95531428D02*
X143345771Y-95388571D01*
X143345771Y-95388571D02*
X143393390Y-95293333D01*
X143393390Y-95293333D02*
X143441009Y-95245714D01*
X143441009Y-95245714D02*
X143536247Y-95198095D01*
X143536247Y-95198095D02*
X143774342Y-95198095D01*
X143774342Y-95198095D02*
X143869580Y-95245714D01*
X143869580Y-95245714D02*
X143917200Y-95293333D01*
X143917200Y-95293333D02*
X143964819Y-95388571D01*
X143964819Y-95388571D02*
X143964819Y-95674285D01*
X143964819Y-95674285D02*
X143917200Y-95769523D01*
X143917200Y-95769523D02*
X143869580Y-95817142D01*
X118469580Y-97102857D02*
X118517200Y-97150476D01*
X118517200Y-97150476D02*
X118564819Y-97293333D01*
X118564819Y-97293333D02*
X118564819Y-97388571D01*
X118564819Y-97388571D02*
X118517200Y-97531428D01*
X118517200Y-97531428D02*
X118421961Y-97626666D01*
X118421961Y-97626666D02*
X118326723Y-97674285D01*
X118326723Y-97674285D02*
X118136247Y-97721904D01*
X118136247Y-97721904D02*
X117993390Y-97721904D01*
X117993390Y-97721904D02*
X117802914Y-97674285D01*
X117802914Y-97674285D02*
X117707676Y-97626666D01*
X117707676Y-97626666D02*
X117612438Y-97531428D01*
X117612438Y-97531428D02*
X117564819Y-97388571D01*
X117564819Y-97388571D02*
X117564819Y-97293333D01*
X117564819Y-97293333D02*
X117612438Y-97150476D01*
X117612438Y-97150476D02*
X117660057Y-97102857D01*
X118564819Y-96150476D02*
X118564819Y-96721904D01*
X118564819Y-96436190D02*
X117564819Y-96436190D01*
X117564819Y-96436190D02*
X117707676Y-96531428D01*
X117707676Y-96531428D02*
X117802914Y-96626666D01*
X117802914Y-96626666D02*
X117850533Y-96721904D01*
X117898152Y-95293333D02*
X118564819Y-95293333D01*
X117517200Y-95531428D02*
X118231485Y-95769523D01*
X118231485Y-95769523D02*
X118231485Y-95150476D01*
X122279580Y-84522857D02*
X122327200Y-84570476D01*
X122327200Y-84570476D02*
X122374819Y-84713333D01*
X122374819Y-84713333D02*
X122374819Y-84808571D01*
X122374819Y-84808571D02*
X122327200Y-84951428D01*
X122327200Y-84951428D02*
X122231961Y-85046666D01*
X122231961Y-85046666D02*
X122136723Y-85094285D01*
X122136723Y-85094285D02*
X121946247Y-85141904D01*
X121946247Y-85141904D02*
X121803390Y-85141904D01*
X121803390Y-85141904D02*
X121612914Y-85094285D01*
X121612914Y-85094285D02*
X121517676Y-85046666D01*
X121517676Y-85046666D02*
X121422438Y-84951428D01*
X121422438Y-84951428D02*
X121374819Y-84808571D01*
X121374819Y-84808571D02*
X121374819Y-84713333D01*
X121374819Y-84713333D02*
X121422438Y-84570476D01*
X121422438Y-84570476D02*
X121470057Y-84522857D01*
X122374819Y-83570476D02*
X122374819Y-84141904D01*
X122374819Y-83856190D02*
X121374819Y-83856190D01*
X121374819Y-83856190D02*
X121517676Y-83951428D01*
X121517676Y-83951428D02*
X121612914Y-84046666D01*
X121612914Y-84046666D02*
X121660533Y-84141904D01*
X122374819Y-82618095D02*
X122374819Y-83189523D01*
X122374819Y-82903809D02*
X121374819Y-82903809D01*
X121374819Y-82903809D02*
X121517676Y-82999047D01*
X121517676Y-82999047D02*
X121612914Y-83094285D01*
X121612914Y-83094285D02*
X121660533Y-83189523D01*
X82236666Y-141636569D02*
X82236666Y-142350854D01*
X82236666Y-142350854D02*
X82189047Y-142493711D01*
X82189047Y-142493711D02*
X82093809Y-142588950D01*
X82093809Y-142588950D02*
X81950952Y-142636569D01*
X81950952Y-142636569D02*
X81855714Y-142636569D01*
X82617619Y-141636569D02*
X83236666Y-141636569D01*
X83236666Y-141636569D02*
X82903333Y-142017521D01*
X82903333Y-142017521D02*
X83046190Y-142017521D01*
X83046190Y-142017521D02*
X83141428Y-142065140D01*
X83141428Y-142065140D02*
X83189047Y-142112759D01*
X83189047Y-142112759D02*
X83236666Y-142207997D01*
X83236666Y-142207997D02*
X83236666Y-142446092D01*
X83236666Y-142446092D02*
X83189047Y-142541330D01*
X83189047Y-142541330D02*
X83141428Y-142588950D01*
X83141428Y-142588950D02*
X83046190Y-142636569D01*
X83046190Y-142636569D02*
X82760476Y-142636569D01*
X82760476Y-142636569D02*
X82665238Y-142588950D01*
X82665238Y-142588950D02*
X82617619Y-142541330D01*
X124491905Y-89624819D02*
X124491905Y-90434342D01*
X124491905Y-90434342D02*
X124539524Y-90529580D01*
X124539524Y-90529580D02*
X124587143Y-90577200D01*
X124587143Y-90577200D02*
X124682381Y-90624819D01*
X124682381Y-90624819D02*
X124872857Y-90624819D01*
X124872857Y-90624819D02*
X124968095Y-90577200D01*
X124968095Y-90577200D02*
X125015714Y-90529580D01*
X125015714Y-90529580D02*
X125063333Y-90434342D01*
X125063333Y-90434342D02*
X125063333Y-89624819D01*
X126063333Y-90624819D02*
X125491905Y-90624819D01*
X125777619Y-90624819D02*
X125777619Y-89624819D01*
X125777619Y-89624819D02*
X125682381Y-89767676D01*
X125682381Y-89767676D02*
X125587143Y-89862914D01*
X125587143Y-89862914D02*
X125491905Y-89910533D01*
X126444286Y-89720057D02*
X126491905Y-89672438D01*
X126491905Y-89672438D02*
X126587143Y-89624819D01*
X126587143Y-89624819D02*
X126825238Y-89624819D01*
X126825238Y-89624819D02*
X126920476Y-89672438D01*
X126920476Y-89672438D02*
X126968095Y-89720057D01*
X126968095Y-89720057D02*
X127015714Y-89815295D01*
X127015714Y-89815295D02*
X127015714Y-89910533D01*
X127015714Y-89910533D02*
X126968095Y-90053390D01*
X126968095Y-90053390D02*
X126396667Y-90624819D01*
X126396667Y-90624819D02*
X127015714Y-90624819D01*
X81314819Y-86304285D02*
X80314819Y-86304285D01*
X80314819Y-86304285D02*
X80314819Y-86066190D01*
X80314819Y-86066190D02*
X80362438Y-85923333D01*
X80362438Y-85923333D02*
X80457676Y-85828095D01*
X80457676Y-85828095D02*
X80552914Y-85780476D01*
X80552914Y-85780476D02*
X80743390Y-85732857D01*
X80743390Y-85732857D02*
X80886247Y-85732857D01*
X80886247Y-85732857D02*
X81076723Y-85780476D01*
X81076723Y-85780476D02*
X81171961Y-85828095D01*
X81171961Y-85828095D02*
X81267200Y-85923333D01*
X81267200Y-85923333D02*
X81314819Y-86066190D01*
X81314819Y-86066190D02*
X81314819Y-86304285D01*
X81314819Y-84780476D02*
X81314819Y-85351904D01*
X81314819Y-85066190D02*
X80314819Y-85066190D01*
X80314819Y-85066190D02*
X80457676Y-85161428D01*
X80457676Y-85161428D02*
X80552914Y-85256666D01*
X80552914Y-85256666D02*
X80600533Y-85351904D01*
X80314819Y-83923333D02*
X80314819Y-84113809D01*
X80314819Y-84113809D02*
X80362438Y-84209047D01*
X80362438Y-84209047D02*
X80410057Y-84256666D01*
X80410057Y-84256666D02*
X80552914Y-84351904D01*
X80552914Y-84351904D02*
X80743390Y-84399523D01*
X80743390Y-84399523D02*
X81124342Y-84399523D01*
X81124342Y-84399523D02*
X81219580Y-84351904D01*
X81219580Y-84351904D02*
X81267200Y-84304285D01*
X81267200Y-84304285D02*
X81314819Y-84209047D01*
X81314819Y-84209047D02*
X81314819Y-84018571D01*
X81314819Y-84018571D02*
X81267200Y-83923333D01*
X81267200Y-83923333D02*
X81219580Y-83875714D01*
X81219580Y-83875714D02*
X81124342Y-83828095D01*
X81124342Y-83828095D02*
X80886247Y-83828095D01*
X80886247Y-83828095D02*
X80791009Y-83875714D01*
X80791009Y-83875714D02*
X80743390Y-83923333D01*
X80743390Y-83923333D02*
X80695771Y-84018571D01*
X80695771Y-84018571D02*
X80695771Y-84209047D01*
X80695771Y-84209047D02*
X80743390Y-84304285D01*
X80743390Y-84304285D02*
X80791009Y-84351904D01*
X80791009Y-84351904D02*
X80886247Y-84399523D01*
X58734819Y-80674285D02*
X57734819Y-80674285D01*
X57734819Y-80674285D02*
X57734819Y-80436190D01*
X57734819Y-80436190D02*
X57782438Y-80293333D01*
X57782438Y-80293333D02*
X57877676Y-80198095D01*
X57877676Y-80198095D02*
X57972914Y-80150476D01*
X57972914Y-80150476D02*
X58163390Y-80102857D01*
X58163390Y-80102857D02*
X58306247Y-80102857D01*
X58306247Y-80102857D02*
X58496723Y-80150476D01*
X58496723Y-80150476D02*
X58591961Y-80198095D01*
X58591961Y-80198095D02*
X58687200Y-80293333D01*
X58687200Y-80293333D02*
X58734819Y-80436190D01*
X58734819Y-80436190D02*
X58734819Y-80674285D01*
X58734819Y-79150476D02*
X58734819Y-79721904D01*
X58734819Y-79436190D02*
X57734819Y-79436190D01*
X57734819Y-79436190D02*
X57877676Y-79531428D01*
X57877676Y-79531428D02*
X57972914Y-79626666D01*
X57972914Y-79626666D02*
X58020533Y-79721904D01*
X58734819Y-78674285D02*
X58734819Y-78483809D01*
X58734819Y-78483809D02*
X58687200Y-78388571D01*
X58687200Y-78388571D02*
X58639580Y-78340952D01*
X58639580Y-78340952D02*
X58496723Y-78245714D01*
X58496723Y-78245714D02*
X58306247Y-78198095D01*
X58306247Y-78198095D02*
X57925295Y-78198095D01*
X57925295Y-78198095D02*
X57830057Y-78245714D01*
X57830057Y-78245714D02*
X57782438Y-78293333D01*
X57782438Y-78293333D02*
X57734819Y-78388571D01*
X57734819Y-78388571D02*
X57734819Y-78579047D01*
X57734819Y-78579047D02*
X57782438Y-78674285D01*
X57782438Y-78674285D02*
X57830057Y-78721904D01*
X57830057Y-78721904D02*
X57925295Y-78769523D01*
X57925295Y-78769523D02*
X58163390Y-78769523D01*
X58163390Y-78769523D02*
X58258628Y-78721904D01*
X58258628Y-78721904D02*
X58306247Y-78674285D01*
X58306247Y-78674285D02*
X58353866Y-78579047D01*
X58353866Y-78579047D02*
X58353866Y-78388571D01*
X58353866Y-78388571D02*
X58306247Y-78293333D01*
X58306247Y-78293333D02*
X58258628Y-78245714D01*
X58258628Y-78245714D02*
X58163390Y-78198095D01*
X102054819Y-108592857D02*
X101578628Y-108926190D01*
X102054819Y-109164285D02*
X101054819Y-109164285D01*
X101054819Y-109164285D02*
X101054819Y-108783333D01*
X101054819Y-108783333D02*
X101102438Y-108688095D01*
X101102438Y-108688095D02*
X101150057Y-108640476D01*
X101150057Y-108640476D02*
X101245295Y-108592857D01*
X101245295Y-108592857D02*
X101388152Y-108592857D01*
X101388152Y-108592857D02*
X101483390Y-108640476D01*
X101483390Y-108640476D02*
X101531009Y-108688095D01*
X101531009Y-108688095D02*
X101578628Y-108783333D01*
X101578628Y-108783333D02*
X101578628Y-109164285D01*
X101054819Y-108259523D02*
X101054819Y-107640476D01*
X101054819Y-107640476D02*
X101435771Y-107973809D01*
X101435771Y-107973809D02*
X101435771Y-107830952D01*
X101435771Y-107830952D02*
X101483390Y-107735714D01*
X101483390Y-107735714D02*
X101531009Y-107688095D01*
X101531009Y-107688095D02*
X101626247Y-107640476D01*
X101626247Y-107640476D02*
X101864342Y-107640476D01*
X101864342Y-107640476D02*
X101959580Y-107688095D01*
X101959580Y-107688095D02*
X102007200Y-107735714D01*
X102007200Y-107735714D02*
X102054819Y-107830952D01*
X102054819Y-107830952D02*
X102054819Y-108116666D01*
X102054819Y-108116666D02*
X102007200Y-108211904D01*
X102007200Y-108211904D02*
X101959580Y-108259523D01*
X102054819Y-106688095D02*
X102054819Y-107259523D01*
X102054819Y-106973809D02*
X101054819Y-106973809D01*
X101054819Y-106973809D02*
X101197676Y-107069047D01*
X101197676Y-107069047D02*
X101292914Y-107164285D01*
X101292914Y-107164285D02*
X101340533Y-107259523D01*
X127454819Y-58761904D02*
X128264342Y-58761904D01*
X128264342Y-58761904D02*
X128359580Y-58714285D01*
X128359580Y-58714285D02*
X128407200Y-58666666D01*
X128407200Y-58666666D02*
X128454819Y-58571428D01*
X128454819Y-58571428D02*
X128454819Y-58380952D01*
X128454819Y-58380952D02*
X128407200Y-58285714D01*
X128407200Y-58285714D02*
X128359580Y-58238095D01*
X128359580Y-58238095D02*
X128264342Y-58190476D01*
X128264342Y-58190476D02*
X127454819Y-58190476D01*
X127454819Y-57809523D02*
X127454819Y-57142857D01*
X127454819Y-57142857D02*
X128454819Y-57571428D01*
X141844819Y-59634285D02*
X140844819Y-59634285D01*
X140844819Y-59634285D02*
X140844819Y-59396190D01*
X140844819Y-59396190D02*
X140892438Y-59253333D01*
X140892438Y-59253333D02*
X140987676Y-59158095D01*
X140987676Y-59158095D02*
X141082914Y-59110476D01*
X141082914Y-59110476D02*
X141273390Y-59062857D01*
X141273390Y-59062857D02*
X141416247Y-59062857D01*
X141416247Y-59062857D02*
X141606723Y-59110476D01*
X141606723Y-59110476D02*
X141701961Y-59158095D01*
X141701961Y-59158095D02*
X141797200Y-59253333D01*
X141797200Y-59253333D02*
X141844819Y-59396190D01*
X141844819Y-59396190D02*
X141844819Y-59634285D01*
X140940057Y-58681904D02*
X140892438Y-58634285D01*
X140892438Y-58634285D02*
X140844819Y-58539047D01*
X140844819Y-58539047D02*
X140844819Y-58300952D01*
X140844819Y-58300952D02*
X140892438Y-58205714D01*
X140892438Y-58205714D02*
X140940057Y-58158095D01*
X140940057Y-58158095D02*
X141035295Y-58110476D01*
X141035295Y-58110476D02*
X141130533Y-58110476D01*
X141130533Y-58110476D02*
X141273390Y-58158095D01*
X141273390Y-58158095D02*
X141844819Y-58729523D01*
X141844819Y-58729523D02*
X141844819Y-58110476D01*
X141273390Y-57539047D02*
X141225771Y-57634285D01*
X141225771Y-57634285D02*
X141178152Y-57681904D01*
X141178152Y-57681904D02*
X141082914Y-57729523D01*
X141082914Y-57729523D02*
X141035295Y-57729523D01*
X141035295Y-57729523D02*
X140940057Y-57681904D01*
X140940057Y-57681904D02*
X140892438Y-57634285D01*
X140892438Y-57634285D02*
X140844819Y-57539047D01*
X140844819Y-57539047D02*
X140844819Y-57348571D01*
X140844819Y-57348571D02*
X140892438Y-57253333D01*
X140892438Y-57253333D02*
X140940057Y-57205714D01*
X140940057Y-57205714D02*
X141035295Y-57158095D01*
X141035295Y-57158095D02*
X141082914Y-57158095D01*
X141082914Y-57158095D02*
X141178152Y-57205714D01*
X141178152Y-57205714D02*
X141225771Y-57253333D01*
X141225771Y-57253333D02*
X141273390Y-57348571D01*
X141273390Y-57348571D02*
X141273390Y-57539047D01*
X141273390Y-57539047D02*
X141321009Y-57634285D01*
X141321009Y-57634285D02*
X141368628Y-57681904D01*
X141368628Y-57681904D02*
X141463866Y-57729523D01*
X141463866Y-57729523D02*
X141654342Y-57729523D01*
X141654342Y-57729523D02*
X141749580Y-57681904D01*
X141749580Y-57681904D02*
X141797200Y-57634285D01*
X141797200Y-57634285D02*
X141844819Y-57539047D01*
X141844819Y-57539047D02*
X141844819Y-57348571D01*
X141844819Y-57348571D02*
X141797200Y-57253333D01*
X141797200Y-57253333D02*
X141749580Y-57205714D01*
X141749580Y-57205714D02*
X141654342Y-57158095D01*
X141654342Y-57158095D02*
X141463866Y-57158095D01*
X141463866Y-57158095D02*
X141368628Y-57205714D01*
X141368628Y-57205714D02*
X141321009Y-57253333D01*
X141321009Y-57253333D02*
X141273390Y-57348571D01*
X102666666Y-131454819D02*
X102666666Y-132169104D01*
X102666666Y-132169104D02*
X102619047Y-132311961D01*
X102619047Y-132311961D02*
X102523809Y-132407200D01*
X102523809Y-132407200D02*
X102380952Y-132454819D01*
X102380952Y-132454819D02*
X102285714Y-132454819D01*
X103285714Y-131883390D02*
X103190476Y-131835771D01*
X103190476Y-131835771D02*
X103142857Y-131788152D01*
X103142857Y-131788152D02*
X103095238Y-131692914D01*
X103095238Y-131692914D02*
X103095238Y-131645295D01*
X103095238Y-131645295D02*
X103142857Y-131550057D01*
X103142857Y-131550057D02*
X103190476Y-131502438D01*
X103190476Y-131502438D02*
X103285714Y-131454819D01*
X103285714Y-131454819D02*
X103476190Y-131454819D01*
X103476190Y-131454819D02*
X103571428Y-131502438D01*
X103571428Y-131502438D02*
X103619047Y-131550057D01*
X103619047Y-131550057D02*
X103666666Y-131645295D01*
X103666666Y-131645295D02*
X103666666Y-131692914D01*
X103666666Y-131692914D02*
X103619047Y-131788152D01*
X103619047Y-131788152D02*
X103571428Y-131835771D01*
X103571428Y-131835771D02*
X103476190Y-131883390D01*
X103476190Y-131883390D02*
X103285714Y-131883390D01*
X103285714Y-131883390D02*
X103190476Y-131931009D01*
X103190476Y-131931009D02*
X103142857Y-131978628D01*
X103142857Y-131978628D02*
X103095238Y-132073866D01*
X103095238Y-132073866D02*
X103095238Y-132264342D01*
X103095238Y-132264342D02*
X103142857Y-132359580D01*
X103142857Y-132359580D02*
X103190476Y-132407200D01*
X103190476Y-132407200D02*
X103285714Y-132454819D01*
X103285714Y-132454819D02*
X103476190Y-132454819D01*
X103476190Y-132454819D02*
X103571428Y-132407200D01*
X103571428Y-132407200D02*
X103619047Y-132359580D01*
X103619047Y-132359580D02*
X103666666Y-132264342D01*
X103666666Y-132264342D02*
X103666666Y-132073866D01*
X103666666Y-132073866D02*
X103619047Y-131978628D01*
X103619047Y-131978628D02*
X103571428Y-131931009D01*
X103571428Y-131931009D02*
X103476190Y-131883390D01*
X70209580Y-118448416D02*
X70257200Y-118496035D01*
X70257200Y-118496035D02*
X70304819Y-118638892D01*
X70304819Y-118638892D02*
X70304819Y-118734130D01*
X70304819Y-118734130D02*
X70257200Y-118876987D01*
X70257200Y-118876987D02*
X70161961Y-118972225D01*
X70161961Y-118972225D02*
X70066723Y-119019844D01*
X70066723Y-119019844D02*
X69876247Y-119067463D01*
X69876247Y-119067463D02*
X69733390Y-119067463D01*
X69733390Y-119067463D02*
X69542914Y-119019844D01*
X69542914Y-119019844D02*
X69447676Y-118972225D01*
X69447676Y-118972225D02*
X69352438Y-118876987D01*
X69352438Y-118876987D02*
X69304819Y-118734130D01*
X69304819Y-118734130D02*
X69304819Y-118638892D01*
X69304819Y-118638892D02*
X69352438Y-118496035D01*
X69352438Y-118496035D02*
X69400057Y-118448416D01*
X70304819Y-117496035D02*
X70304819Y-118067463D01*
X70304819Y-117781749D02*
X69304819Y-117781749D01*
X69304819Y-117781749D02*
X69447676Y-117876987D01*
X69447676Y-117876987D02*
X69542914Y-117972225D01*
X69542914Y-117972225D02*
X69590533Y-118067463D01*
X55914819Y-86304285D02*
X54914819Y-86304285D01*
X54914819Y-86304285D02*
X54914819Y-86066190D01*
X54914819Y-86066190D02*
X54962438Y-85923333D01*
X54962438Y-85923333D02*
X55057676Y-85828095D01*
X55057676Y-85828095D02*
X55152914Y-85780476D01*
X55152914Y-85780476D02*
X55343390Y-85732857D01*
X55343390Y-85732857D02*
X55486247Y-85732857D01*
X55486247Y-85732857D02*
X55676723Y-85780476D01*
X55676723Y-85780476D02*
X55771961Y-85828095D01*
X55771961Y-85828095D02*
X55867200Y-85923333D01*
X55867200Y-85923333D02*
X55914819Y-86066190D01*
X55914819Y-86066190D02*
X55914819Y-86304285D01*
X55010057Y-85351904D02*
X54962438Y-85304285D01*
X54962438Y-85304285D02*
X54914819Y-85209047D01*
X54914819Y-85209047D02*
X54914819Y-84970952D01*
X54914819Y-84970952D02*
X54962438Y-84875714D01*
X54962438Y-84875714D02*
X55010057Y-84828095D01*
X55010057Y-84828095D02*
X55105295Y-84780476D01*
X55105295Y-84780476D02*
X55200533Y-84780476D01*
X55200533Y-84780476D02*
X55343390Y-84828095D01*
X55343390Y-84828095D02*
X55914819Y-85399523D01*
X55914819Y-85399523D02*
X55914819Y-84780476D01*
X54914819Y-84161428D02*
X54914819Y-84066190D01*
X54914819Y-84066190D02*
X54962438Y-83970952D01*
X54962438Y-83970952D02*
X55010057Y-83923333D01*
X55010057Y-83923333D02*
X55105295Y-83875714D01*
X55105295Y-83875714D02*
X55295771Y-83828095D01*
X55295771Y-83828095D02*
X55533866Y-83828095D01*
X55533866Y-83828095D02*
X55724342Y-83875714D01*
X55724342Y-83875714D02*
X55819580Y-83923333D01*
X55819580Y-83923333D02*
X55867200Y-83970952D01*
X55867200Y-83970952D02*
X55914819Y-84066190D01*
X55914819Y-84066190D02*
X55914819Y-84161428D01*
X55914819Y-84161428D02*
X55867200Y-84256666D01*
X55867200Y-84256666D02*
X55819580Y-84304285D01*
X55819580Y-84304285D02*
X55724342Y-84351904D01*
X55724342Y-84351904D02*
X55533866Y-84399523D01*
X55533866Y-84399523D02*
X55295771Y-84399523D01*
X55295771Y-84399523D02*
X55105295Y-84351904D01*
X55105295Y-84351904D02*
X55010057Y-84304285D01*
X55010057Y-84304285D02*
X54962438Y-84256666D01*
X54962438Y-84256666D02*
X54914819Y-84161428D01*
X73493333Y-130166569D02*
X73160000Y-129690378D01*
X72921905Y-130166569D02*
X72921905Y-129166569D01*
X72921905Y-129166569D02*
X73302857Y-129166569D01*
X73302857Y-129166569D02*
X73398095Y-129214188D01*
X73398095Y-129214188D02*
X73445714Y-129261807D01*
X73445714Y-129261807D02*
X73493333Y-129357045D01*
X73493333Y-129357045D02*
X73493333Y-129499902D01*
X73493333Y-129499902D02*
X73445714Y-129595140D01*
X73445714Y-129595140D02*
X73398095Y-129642759D01*
X73398095Y-129642759D02*
X73302857Y-129690378D01*
X73302857Y-129690378D02*
X72921905Y-129690378D01*
X74350476Y-129166569D02*
X74160000Y-129166569D01*
X74160000Y-129166569D02*
X74064762Y-129214188D01*
X74064762Y-129214188D02*
X74017143Y-129261807D01*
X74017143Y-129261807D02*
X73921905Y-129404664D01*
X73921905Y-129404664D02*
X73874286Y-129595140D01*
X73874286Y-129595140D02*
X73874286Y-129976092D01*
X73874286Y-129976092D02*
X73921905Y-130071330D01*
X73921905Y-130071330D02*
X73969524Y-130118950D01*
X73969524Y-130118950D02*
X74064762Y-130166569D01*
X74064762Y-130166569D02*
X74255238Y-130166569D01*
X74255238Y-130166569D02*
X74350476Y-130118950D01*
X74350476Y-130118950D02*
X74398095Y-130071330D01*
X74398095Y-130071330D02*
X74445714Y-129976092D01*
X74445714Y-129976092D02*
X74445714Y-129737997D01*
X74445714Y-129737997D02*
X74398095Y-129642759D01*
X74398095Y-129642759D02*
X74350476Y-129595140D01*
X74350476Y-129595140D02*
X74255238Y-129547521D01*
X74255238Y-129547521D02*
X74064762Y-129547521D01*
X74064762Y-129547521D02*
X73969524Y-129595140D01*
X73969524Y-129595140D02*
X73921905Y-129642759D01*
X73921905Y-129642759D02*
X73874286Y-129737997D01*
X73493333Y-132706569D02*
X73160000Y-132230378D01*
X72921905Y-132706569D02*
X72921905Y-131706569D01*
X72921905Y-131706569D02*
X73302857Y-131706569D01*
X73302857Y-131706569D02*
X73398095Y-131754188D01*
X73398095Y-131754188D02*
X73445714Y-131801807D01*
X73445714Y-131801807D02*
X73493333Y-131897045D01*
X73493333Y-131897045D02*
X73493333Y-132039902D01*
X73493333Y-132039902D02*
X73445714Y-132135140D01*
X73445714Y-132135140D02*
X73398095Y-132182759D01*
X73398095Y-132182759D02*
X73302857Y-132230378D01*
X73302857Y-132230378D02*
X72921905Y-132230378D01*
X73826667Y-131706569D02*
X74493333Y-131706569D01*
X74493333Y-131706569D02*
X74064762Y-132706569D01*
X50404819Y-80343333D02*
X51119104Y-80343333D01*
X51119104Y-80343333D02*
X51261961Y-80390952D01*
X51261961Y-80390952D02*
X51357200Y-80486190D01*
X51357200Y-80486190D02*
X51404819Y-80629047D01*
X51404819Y-80629047D02*
X51404819Y-80724285D01*
X51404819Y-79343333D02*
X51404819Y-79914761D01*
X51404819Y-79629047D02*
X50404819Y-79629047D01*
X50404819Y-79629047D02*
X50547676Y-79724285D01*
X50547676Y-79724285D02*
X50642914Y-79819523D01*
X50642914Y-79819523D02*
X50690533Y-79914761D01*
X55334819Y-122853654D02*
X56144342Y-122853654D01*
X56144342Y-122853654D02*
X56239580Y-122806035D01*
X56239580Y-122806035D02*
X56287200Y-122758416D01*
X56287200Y-122758416D02*
X56334819Y-122663178D01*
X56334819Y-122663178D02*
X56334819Y-122472702D01*
X56334819Y-122472702D02*
X56287200Y-122377464D01*
X56287200Y-122377464D02*
X56239580Y-122329845D01*
X56239580Y-122329845D02*
X56144342Y-122282226D01*
X56144342Y-122282226D02*
X55334819Y-122282226D01*
X55334819Y-121329845D02*
X55334819Y-121806035D01*
X55334819Y-121806035D02*
X55811009Y-121853654D01*
X55811009Y-121853654D02*
X55763390Y-121806035D01*
X55763390Y-121806035D02*
X55715771Y-121710797D01*
X55715771Y-121710797D02*
X55715771Y-121472702D01*
X55715771Y-121472702D02*
X55763390Y-121377464D01*
X55763390Y-121377464D02*
X55811009Y-121329845D01*
X55811009Y-121329845D02*
X55906247Y-121282226D01*
X55906247Y-121282226D02*
X56144342Y-121282226D01*
X56144342Y-121282226D02*
X56239580Y-121329845D01*
X56239580Y-121329845D02*
X56287200Y-121377464D01*
X56287200Y-121377464D02*
X56334819Y-121472702D01*
X56334819Y-121472702D02*
X56334819Y-121710797D01*
X56334819Y-121710797D02*
X56287200Y-121806035D01*
X56287200Y-121806035D02*
X56239580Y-121853654D01*
X73493333Y-102226569D02*
X73160000Y-101750378D01*
X72921905Y-102226569D02*
X72921905Y-101226569D01*
X72921905Y-101226569D02*
X73302857Y-101226569D01*
X73302857Y-101226569D02*
X73398095Y-101274188D01*
X73398095Y-101274188D02*
X73445714Y-101321807D01*
X73445714Y-101321807D02*
X73493333Y-101417045D01*
X73493333Y-101417045D02*
X73493333Y-101559902D01*
X73493333Y-101559902D02*
X73445714Y-101655140D01*
X73445714Y-101655140D02*
X73398095Y-101702759D01*
X73398095Y-101702759D02*
X73302857Y-101750378D01*
X73302857Y-101750378D02*
X72921905Y-101750378D01*
X74445714Y-102226569D02*
X73874286Y-102226569D01*
X74160000Y-102226569D02*
X74160000Y-101226569D01*
X74160000Y-101226569D02*
X74064762Y-101369426D01*
X74064762Y-101369426D02*
X73969524Y-101464664D01*
X73969524Y-101464664D02*
X73874286Y-101512283D01*
X83854819Y-81224285D02*
X82854819Y-81224285D01*
X82854819Y-81224285D02*
X82854819Y-80986190D01*
X82854819Y-80986190D02*
X82902438Y-80843333D01*
X82902438Y-80843333D02*
X82997676Y-80748095D01*
X82997676Y-80748095D02*
X83092914Y-80700476D01*
X83092914Y-80700476D02*
X83283390Y-80652857D01*
X83283390Y-80652857D02*
X83426247Y-80652857D01*
X83426247Y-80652857D02*
X83616723Y-80700476D01*
X83616723Y-80700476D02*
X83711961Y-80748095D01*
X83711961Y-80748095D02*
X83807200Y-80843333D01*
X83807200Y-80843333D02*
X83854819Y-80986190D01*
X83854819Y-80986190D02*
X83854819Y-81224285D01*
X83854819Y-79700476D02*
X83854819Y-80271904D01*
X83854819Y-79986190D02*
X82854819Y-79986190D01*
X82854819Y-79986190D02*
X82997676Y-80081428D01*
X82997676Y-80081428D02*
X83092914Y-80176666D01*
X83092914Y-80176666D02*
X83140533Y-80271904D01*
X82854819Y-78795714D02*
X82854819Y-79271904D01*
X82854819Y-79271904D02*
X83331009Y-79319523D01*
X83331009Y-79319523D02*
X83283390Y-79271904D01*
X83283390Y-79271904D02*
X83235771Y-79176666D01*
X83235771Y-79176666D02*
X83235771Y-78938571D01*
X83235771Y-78938571D02*
X83283390Y-78843333D01*
X83283390Y-78843333D02*
X83331009Y-78795714D01*
X83331009Y-78795714D02*
X83426247Y-78748095D01*
X83426247Y-78748095D02*
X83664342Y-78748095D01*
X83664342Y-78748095D02*
X83759580Y-78795714D01*
X83759580Y-78795714D02*
X83807200Y-78843333D01*
X83807200Y-78843333D02*
X83854819Y-78938571D01*
X83854819Y-78938571D02*
X83854819Y-79176666D01*
X83854819Y-79176666D02*
X83807200Y-79271904D01*
X83807200Y-79271904D02*
X83759580Y-79319523D01*
X132534819Y-108592857D02*
X132058628Y-108926190D01*
X132534819Y-109164285D02*
X131534819Y-109164285D01*
X131534819Y-109164285D02*
X131534819Y-108783333D01*
X131534819Y-108783333D02*
X131582438Y-108688095D01*
X131582438Y-108688095D02*
X131630057Y-108640476D01*
X131630057Y-108640476D02*
X131725295Y-108592857D01*
X131725295Y-108592857D02*
X131868152Y-108592857D01*
X131868152Y-108592857D02*
X131963390Y-108640476D01*
X131963390Y-108640476D02*
X132011009Y-108688095D01*
X132011009Y-108688095D02*
X132058628Y-108783333D01*
X132058628Y-108783333D02*
X132058628Y-109164285D01*
X131630057Y-108211904D02*
X131582438Y-108164285D01*
X131582438Y-108164285D02*
X131534819Y-108069047D01*
X131534819Y-108069047D02*
X131534819Y-107830952D01*
X131534819Y-107830952D02*
X131582438Y-107735714D01*
X131582438Y-107735714D02*
X131630057Y-107688095D01*
X131630057Y-107688095D02*
X131725295Y-107640476D01*
X131725295Y-107640476D02*
X131820533Y-107640476D01*
X131820533Y-107640476D02*
X131963390Y-107688095D01*
X131963390Y-107688095D02*
X132534819Y-108259523D01*
X132534819Y-108259523D02*
X132534819Y-107640476D01*
X131534819Y-107307142D02*
X131534819Y-106640476D01*
X131534819Y-106640476D02*
X132534819Y-107069047D01*
X99514819Y-108592857D02*
X99038628Y-108926190D01*
X99514819Y-109164285D02*
X98514819Y-109164285D01*
X98514819Y-109164285D02*
X98514819Y-108783333D01*
X98514819Y-108783333D02*
X98562438Y-108688095D01*
X98562438Y-108688095D02*
X98610057Y-108640476D01*
X98610057Y-108640476D02*
X98705295Y-108592857D01*
X98705295Y-108592857D02*
X98848152Y-108592857D01*
X98848152Y-108592857D02*
X98943390Y-108640476D01*
X98943390Y-108640476D02*
X98991009Y-108688095D01*
X98991009Y-108688095D02*
X99038628Y-108783333D01*
X99038628Y-108783333D02*
X99038628Y-109164285D01*
X98514819Y-108259523D02*
X98514819Y-107640476D01*
X98514819Y-107640476D02*
X98895771Y-107973809D01*
X98895771Y-107973809D02*
X98895771Y-107830952D01*
X98895771Y-107830952D02*
X98943390Y-107735714D01*
X98943390Y-107735714D02*
X98991009Y-107688095D01*
X98991009Y-107688095D02*
X99086247Y-107640476D01*
X99086247Y-107640476D02*
X99324342Y-107640476D01*
X99324342Y-107640476D02*
X99419580Y-107688095D01*
X99419580Y-107688095D02*
X99467200Y-107735714D01*
X99467200Y-107735714D02*
X99514819Y-107830952D01*
X99514819Y-107830952D02*
X99514819Y-108116666D01*
X99514819Y-108116666D02*
X99467200Y-108211904D01*
X99467200Y-108211904D02*
X99419580Y-108259523D01*
X98610057Y-107259523D02*
X98562438Y-107211904D01*
X98562438Y-107211904D02*
X98514819Y-107116666D01*
X98514819Y-107116666D02*
X98514819Y-106878571D01*
X98514819Y-106878571D02*
X98562438Y-106783333D01*
X98562438Y-106783333D02*
X98610057Y-106735714D01*
X98610057Y-106735714D02*
X98705295Y-106688095D01*
X98705295Y-106688095D02*
X98800533Y-106688095D01*
X98800533Y-106688095D02*
X98943390Y-106735714D01*
X98943390Y-106735714D02*
X99514819Y-107307142D01*
X99514819Y-107307142D02*
X99514819Y-106688095D01*
X74763333Y-77829580D02*
X74715714Y-77877200D01*
X74715714Y-77877200D02*
X74572857Y-77924819D01*
X74572857Y-77924819D02*
X74477619Y-77924819D01*
X74477619Y-77924819D02*
X74334762Y-77877200D01*
X74334762Y-77877200D02*
X74239524Y-77781961D01*
X74239524Y-77781961D02*
X74191905Y-77686723D01*
X74191905Y-77686723D02*
X74144286Y-77496247D01*
X74144286Y-77496247D02*
X74144286Y-77353390D01*
X74144286Y-77353390D02*
X74191905Y-77162914D01*
X74191905Y-77162914D02*
X74239524Y-77067676D01*
X74239524Y-77067676D02*
X74334762Y-76972438D01*
X74334762Y-76972438D02*
X74477619Y-76924819D01*
X74477619Y-76924819D02*
X74572857Y-76924819D01*
X74572857Y-76924819D02*
X74715714Y-76972438D01*
X74715714Y-76972438D02*
X74763333Y-77020057D01*
X75620476Y-76924819D02*
X75430000Y-76924819D01*
X75430000Y-76924819D02*
X75334762Y-76972438D01*
X75334762Y-76972438D02*
X75287143Y-77020057D01*
X75287143Y-77020057D02*
X75191905Y-77162914D01*
X75191905Y-77162914D02*
X75144286Y-77353390D01*
X75144286Y-77353390D02*
X75144286Y-77734342D01*
X75144286Y-77734342D02*
X75191905Y-77829580D01*
X75191905Y-77829580D02*
X75239524Y-77877200D01*
X75239524Y-77877200D02*
X75334762Y-77924819D01*
X75334762Y-77924819D02*
X75525238Y-77924819D01*
X75525238Y-77924819D02*
X75620476Y-77877200D01*
X75620476Y-77877200D02*
X75668095Y-77829580D01*
X75668095Y-77829580D02*
X75715714Y-77734342D01*
X75715714Y-77734342D02*
X75715714Y-77496247D01*
X75715714Y-77496247D02*
X75668095Y-77401009D01*
X75668095Y-77401009D02*
X75620476Y-77353390D01*
X75620476Y-77353390D02*
X75525238Y-77305771D01*
X75525238Y-77305771D02*
X75334762Y-77305771D01*
X75334762Y-77305771D02*
X75239524Y-77353390D01*
X75239524Y-77353390D02*
X75191905Y-77401009D01*
X75191905Y-77401009D02*
X75144286Y-77496247D01*
X70358095Y-52794819D02*
X70358095Y-53604342D01*
X70358095Y-53604342D02*
X70405714Y-53699580D01*
X70405714Y-53699580D02*
X70453333Y-53747200D01*
X70453333Y-53747200D02*
X70548571Y-53794819D01*
X70548571Y-53794819D02*
X70739047Y-53794819D01*
X70739047Y-53794819D02*
X70834285Y-53747200D01*
X70834285Y-53747200D02*
X70881904Y-53699580D01*
X70881904Y-53699580D02*
X70929523Y-53604342D01*
X70929523Y-53604342D02*
X70929523Y-52794819D01*
X71453333Y-53794819D02*
X71643809Y-53794819D01*
X71643809Y-53794819D02*
X71739047Y-53747200D01*
X71739047Y-53747200D02*
X71786666Y-53699580D01*
X71786666Y-53699580D02*
X71881904Y-53556723D01*
X71881904Y-53556723D02*
X71929523Y-53366247D01*
X71929523Y-53366247D02*
X71929523Y-52985295D01*
X71929523Y-52985295D02*
X71881904Y-52890057D01*
X71881904Y-52890057D02*
X71834285Y-52842438D01*
X71834285Y-52842438D02*
X71739047Y-52794819D01*
X71739047Y-52794819D02*
X71548571Y-52794819D01*
X71548571Y-52794819D02*
X71453333Y-52842438D01*
X71453333Y-52842438D02*
X71405714Y-52890057D01*
X71405714Y-52890057D02*
X71358095Y-52985295D01*
X71358095Y-52985295D02*
X71358095Y-53223390D01*
X71358095Y-53223390D02*
X71405714Y-53318628D01*
X71405714Y-53318628D02*
X71453333Y-53366247D01*
X71453333Y-53366247D02*
X71548571Y-53413866D01*
X71548571Y-53413866D02*
X71739047Y-53413866D01*
X71739047Y-53413866D02*
X71834285Y-53366247D01*
X71834285Y-53366247D02*
X71881904Y-53318628D01*
X71881904Y-53318628D02*
X71929523Y-53223390D01*
X63954819Y-71762857D02*
X63478628Y-72096190D01*
X63954819Y-72334285D02*
X62954819Y-72334285D01*
X62954819Y-72334285D02*
X62954819Y-71953333D01*
X62954819Y-71953333D02*
X63002438Y-71858095D01*
X63002438Y-71858095D02*
X63050057Y-71810476D01*
X63050057Y-71810476D02*
X63145295Y-71762857D01*
X63145295Y-71762857D02*
X63288152Y-71762857D01*
X63288152Y-71762857D02*
X63383390Y-71810476D01*
X63383390Y-71810476D02*
X63431009Y-71858095D01*
X63431009Y-71858095D02*
X63478628Y-71953333D01*
X63478628Y-71953333D02*
X63478628Y-72334285D01*
X63954819Y-70810476D02*
X63954819Y-71381904D01*
X63954819Y-71096190D02*
X62954819Y-71096190D01*
X62954819Y-71096190D02*
X63097676Y-71191428D01*
X63097676Y-71191428D02*
X63192914Y-71286666D01*
X63192914Y-71286666D02*
X63240533Y-71381904D01*
X62954819Y-70477142D02*
X62954819Y-69858095D01*
X62954819Y-69858095D02*
X63335771Y-70191428D01*
X63335771Y-70191428D02*
X63335771Y-70048571D01*
X63335771Y-70048571D02*
X63383390Y-69953333D01*
X63383390Y-69953333D02*
X63431009Y-69905714D01*
X63431009Y-69905714D02*
X63526247Y-69858095D01*
X63526247Y-69858095D02*
X63764342Y-69858095D01*
X63764342Y-69858095D02*
X63859580Y-69905714D01*
X63859580Y-69905714D02*
X63907200Y-69953333D01*
X63907200Y-69953333D02*
X63954819Y-70048571D01*
X63954819Y-70048571D02*
X63954819Y-70334285D01*
X63954819Y-70334285D02*
X63907200Y-70429523D01*
X63907200Y-70429523D02*
X63859580Y-70477142D01*
X73493333Y-109846569D02*
X73160000Y-109370378D01*
X72921905Y-109846569D02*
X72921905Y-108846569D01*
X72921905Y-108846569D02*
X73302857Y-108846569D01*
X73302857Y-108846569D02*
X73398095Y-108894188D01*
X73398095Y-108894188D02*
X73445714Y-108941807D01*
X73445714Y-108941807D02*
X73493333Y-109037045D01*
X73493333Y-109037045D02*
X73493333Y-109179902D01*
X73493333Y-109179902D02*
X73445714Y-109275140D01*
X73445714Y-109275140D02*
X73398095Y-109322759D01*
X73398095Y-109322759D02*
X73302857Y-109370378D01*
X73302857Y-109370378D02*
X72921905Y-109370378D01*
X74350476Y-109179902D02*
X74350476Y-109846569D01*
X74112381Y-108798950D02*
X73874286Y-109513235D01*
X73874286Y-109513235D02*
X74493333Y-109513235D01*
X100689580Y-59796666D02*
X100737200Y-59844285D01*
X100737200Y-59844285D02*
X100784819Y-59987142D01*
X100784819Y-59987142D02*
X100784819Y-60082380D01*
X100784819Y-60082380D02*
X100737200Y-60225237D01*
X100737200Y-60225237D02*
X100641961Y-60320475D01*
X100641961Y-60320475D02*
X100546723Y-60368094D01*
X100546723Y-60368094D02*
X100356247Y-60415713D01*
X100356247Y-60415713D02*
X100213390Y-60415713D01*
X100213390Y-60415713D02*
X100022914Y-60368094D01*
X100022914Y-60368094D02*
X99927676Y-60320475D01*
X99927676Y-60320475D02*
X99832438Y-60225237D01*
X99832438Y-60225237D02*
X99784819Y-60082380D01*
X99784819Y-60082380D02*
X99784819Y-59987142D01*
X99784819Y-59987142D02*
X99832438Y-59844285D01*
X99832438Y-59844285D02*
X99880057Y-59796666D01*
X99784819Y-59463332D02*
X99784819Y-58796666D01*
X99784819Y-58796666D02*
X100784819Y-59225237D01*
X103324819Y-73032857D02*
X102848628Y-73366190D01*
X103324819Y-73604285D02*
X102324819Y-73604285D01*
X102324819Y-73604285D02*
X102324819Y-73223333D01*
X102324819Y-73223333D02*
X102372438Y-73128095D01*
X102372438Y-73128095D02*
X102420057Y-73080476D01*
X102420057Y-73080476D02*
X102515295Y-73032857D01*
X102515295Y-73032857D02*
X102658152Y-73032857D01*
X102658152Y-73032857D02*
X102753390Y-73080476D01*
X102753390Y-73080476D02*
X102801009Y-73128095D01*
X102801009Y-73128095D02*
X102848628Y-73223333D01*
X102848628Y-73223333D02*
X102848628Y-73604285D01*
X103324819Y-72080476D02*
X103324819Y-72651904D01*
X103324819Y-72366190D02*
X102324819Y-72366190D01*
X102324819Y-72366190D02*
X102467676Y-72461428D01*
X102467676Y-72461428D02*
X102562914Y-72556666D01*
X102562914Y-72556666D02*
X102610533Y-72651904D01*
X102324819Y-71747142D02*
X102324819Y-71080476D01*
X102324819Y-71080476D02*
X103324819Y-71509047D01*
X101984819Y-118054285D02*
X100984819Y-118054285D01*
X100984819Y-118054285D02*
X100984819Y-117816190D01*
X100984819Y-117816190D02*
X101032438Y-117673333D01*
X101032438Y-117673333D02*
X101127676Y-117578095D01*
X101127676Y-117578095D02*
X101222914Y-117530476D01*
X101222914Y-117530476D02*
X101413390Y-117482857D01*
X101413390Y-117482857D02*
X101556247Y-117482857D01*
X101556247Y-117482857D02*
X101746723Y-117530476D01*
X101746723Y-117530476D02*
X101841961Y-117578095D01*
X101841961Y-117578095D02*
X101937200Y-117673333D01*
X101937200Y-117673333D02*
X101984819Y-117816190D01*
X101984819Y-117816190D02*
X101984819Y-118054285D01*
X100984819Y-117149523D02*
X100984819Y-116530476D01*
X100984819Y-116530476D02*
X101365771Y-116863809D01*
X101365771Y-116863809D02*
X101365771Y-116720952D01*
X101365771Y-116720952D02*
X101413390Y-116625714D01*
X101413390Y-116625714D02*
X101461009Y-116578095D01*
X101461009Y-116578095D02*
X101556247Y-116530476D01*
X101556247Y-116530476D02*
X101794342Y-116530476D01*
X101794342Y-116530476D02*
X101889580Y-116578095D01*
X101889580Y-116578095D02*
X101937200Y-116625714D01*
X101937200Y-116625714D02*
X101984819Y-116720952D01*
X101984819Y-116720952D02*
X101984819Y-117006666D01*
X101984819Y-117006666D02*
X101937200Y-117101904D01*
X101937200Y-117101904D02*
X101889580Y-117149523D01*
X100984819Y-115625714D02*
X100984819Y-116101904D01*
X100984819Y-116101904D02*
X101461009Y-116149523D01*
X101461009Y-116149523D02*
X101413390Y-116101904D01*
X101413390Y-116101904D02*
X101365771Y-116006666D01*
X101365771Y-116006666D02*
X101365771Y-115768571D01*
X101365771Y-115768571D02*
X101413390Y-115673333D01*
X101413390Y-115673333D02*
X101461009Y-115625714D01*
X101461009Y-115625714D02*
X101556247Y-115578095D01*
X101556247Y-115578095D02*
X101794342Y-115578095D01*
X101794342Y-115578095D02*
X101889580Y-115625714D01*
X101889580Y-115625714D02*
X101937200Y-115673333D01*
X101937200Y-115673333D02*
X101984819Y-115768571D01*
X101984819Y-115768571D02*
X101984819Y-116006666D01*
X101984819Y-116006666D02*
X101937200Y-116101904D01*
X101937200Y-116101904D02*
X101889580Y-116149523D01*
X99091905Y-89624819D02*
X99091905Y-90434342D01*
X99091905Y-90434342D02*
X99139524Y-90529580D01*
X99139524Y-90529580D02*
X99187143Y-90577200D01*
X99187143Y-90577200D02*
X99282381Y-90624819D01*
X99282381Y-90624819D02*
X99472857Y-90624819D01*
X99472857Y-90624819D02*
X99568095Y-90577200D01*
X99568095Y-90577200D02*
X99615714Y-90529580D01*
X99615714Y-90529580D02*
X99663333Y-90434342D01*
X99663333Y-90434342D02*
X99663333Y-89624819D01*
X100663333Y-90624819D02*
X100091905Y-90624819D01*
X100377619Y-90624819D02*
X100377619Y-89624819D01*
X100377619Y-89624819D02*
X100282381Y-89767676D01*
X100282381Y-89767676D02*
X100187143Y-89862914D01*
X100187143Y-89862914D02*
X100091905Y-89910533D01*
X101282381Y-89624819D02*
X101377619Y-89624819D01*
X101377619Y-89624819D02*
X101472857Y-89672438D01*
X101472857Y-89672438D02*
X101520476Y-89720057D01*
X101520476Y-89720057D02*
X101568095Y-89815295D01*
X101568095Y-89815295D02*
X101615714Y-90005771D01*
X101615714Y-90005771D02*
X101615714Y-90243866D01*
X101615714Y-90243866D02*
X101568095Y-90434342D01*
X101568095Y-90434342D02*
X101520476Y-90529580D01*
X101520476Y-90529580D02*
X101472857Y-90577200D01*
X101472857Y-90577200D02*
X101377619Y-90624819D01*
X101377619Y-90624819D02*
X101282381Y-90624819D01*
X101282381Y-90624819D02*
X101187143Y-90577200D01*
X101187143Y-90577200D02*
X101139524Y-90529580D01*
X101139524Y-90529580D02*
X101091905Y-90434342D01*
X101091905Y-90434342D02*
X101044286Y-90243866D01*
X101044286Y-90243866D02*
X101044286Y-90005771D01*
X101044286Y-90005771D02*
X101091905Y-89815295D01*
X101091905Y-89815295D02*
X101139524Y-89720057D01*
X101139524Y-89720057D02*
X101187143Y-89672438D01*
X101187143Y-89672438D02*
X101282381Y-89624819D01*
X81716245Y-124916569D02*
X81716245Y-123916569D01*
X81716245Y-123916569D02*
X81954340Y-123916569D01*
X81954340Y-123916569D02*
X82097197Y-123964188D01*
X82097197Y-123964188D02*
X82192435Y-124059426D01*
X82192435Y-124059426D02*
X82240054Y-124154664D01*
X82240054Y-124154664D02*
X82287673Y-124345140D01*
X82287673Y-124345140D02*
X82287673Y-124487997D01*
X82287673Y-124487997D02*
X82240054Y-124678473D01*
X82240054Y-124678473D02*
X82192435Y-124773711D01*
X82192435Y-124773711D02*
X82097197Y-124868950D01*
X82097197Y-124868950D02*
X81954340Y-124916569D01*
X81954340Y-124916569D02*
X81716245Y-124916569D01*
X82763864Y-124916569D02*
X82954340Y-124916569D01*
X82954340Y-124916569D02*
X83049578Y-124868950D01*
X83049578Y-124868950D02*
X83097197Y-124821330D01*
X83097197Y-124821330D02*
X83192435Y-124678473D01*
X83192435Y-124678473D02*
X83240054Y-124487997D01*
X83240054Y-124487997D02*
X83240054Y-124107045D01*
X83240054Y-124107045D02*
X83192435Y-124011807D01*
X83192435Y-124011807D02*
X83144816Y-123964188D01*
X83144816Y-123964188D02*
X83049578Y-123916569D01*
X83049578Y-123916569D02*
X82859102Y-123916569D01*
X82859102Y-123916569D02*
X82763864Y-123964188D01*
X82763864Y-123964188D02*
X82716245Y-124011807D01*
X82716245Y-124011807D02*
X82668626Y-124107045D01*
X82668626Y-124107045D02*
X82668626Y-124345140D01*
X82668626Y-124345140D02*
X82716245Y-124440378D01*
X82716245Y-124440378D02*
X82763864Y-124487997D01*
X82763864Y-124487997D02*
X82859102Y-124535616D01*
X82859102Y-124535616D02*
X83049578Y-124535616D01*
X83049578Y-124535616D02*
X83144816Y-124487997D01*
X83144816Y-124487997D02*
X83192435Y-124440378D01*
X83192435Y-124440378D02*
X83240054Y-124345140D01*
X103024819Y-64779285D02*
X102024819Y-64779285D01*
X102024819Y-64779285D02*
X102024819Y-64541190D01*
X102024819Y-64541190D02*
X102072438Y-64398333D01*
X102072438Y-64398333D02*
X102167676Y-64303095D01*
X102167676Y-64303095D02*
X102262914Y-64255476D01*
X102262914Y-64255476D02*
X102453390Y-64207857D01*
X102453390Y-64207857D02*
X102596247Y-64207857D01*
X102596247Y-64207857D02*
X102786723Y-64255476D01*
X102786723Y-64255476D02*
X102881961Y-64303095D01*
X102881961Y-64303095D02*
X102977200Y-64398333D01*
X102977200Y-64398333D02*
X103024819Y-64541190D01*
X103024819Y-64541190D02*
X103024819Y-64779285D01*
X102120057Y-63826904D02*
X102072438Y-63779285D01*
X102072438Y-63779285D02*
X102024819Y-63684047D01*
X102024819Y-63684047D02*
X102024819Y-63445952D01*
X102024819Y-63445952D02*
X102072438Y-63350714D01*
X102072438Y-63350714D02*
X102120057Y-63303095D01*
X102120057Y-63303095D02*
X102215295Y-63255476D01*
X102215295Y-63255476D02*
X102310533Y-63255476D01*
X102310533Y-63255476D02*
X102453390Y-63303095D01*
X102453390Y-63303095D02*
X103024819Y-63874523D01*
X103024819Y-63874523D02*
X103024819Y-63255476D01*
X103024819Y-62303095D02*
X103024819Y-62874523D01*
X103024819Y-62588809D02*
X102024819Y-62588809D01*
X102024819Y-62588809D02*
X102167676Y-62684047D01*
X102167676Y-62684047D02*
X102262914Y-62779285D01*
X102262914Y-62779285D02*
X102310533Y-62874523D01*
X137909819Y-118109285D02*
X136909819Y-118109285D01*
X136909819Y-118109285D02*
X136909819Y-117871190D01*
X136909819Y-117871190D02*
X136957438Y-117728333D01*
X136957438Y-117728333D02*
X137052676Y-117633095D01*
X137052676Y-117633095D02*
X137147914Y-117585476D01*
X137147914Y-117585476D02*
X137338390Y-117537857D01*
X137338390Y-117537857D02*
X137481247Y-117537857D01*
X137481247Y-117537857D02*
X137671723Y-117585476D01*
X137671723Y-117585476D02*
X137766961Y-117633095D01*
X137766961Y-117633095D02*
X137862200Y-117728333D01*
X137862200Y-117728333D02*
X137909819Y-117871190D01*
X137909819Y-117871190D02*
X137909819Y-118109285D01*
X137005057Y-117156904D02*
X136957438Y-117109285D01*
X136957438Y-117109285D02*
X136909819Y-117014047D01*
X136909819Y-117014047D02*
X136909819Y-116775952D01*
X136909819Y-116775952D02*
X136957438Y-116680714D01*
X136957438Y-116680714D02*
X137005057Y-116633095D01*
X137005057Y-116633095D02*
X137100295Y-116585476D01*
X137100295Y-116585476D02*
X137195533Y-116585476D01*
X137195533Y-116585476D02*
X137338390Y-116633095D01*
X137338390Y-116633095D02*
X137909819Y-117204523D01*
X137909819Y-117204523D02*
X137909819Y-116585476D01*
X137909819Y-116109285D02*
X137909819Y-115918809D01*
X137909819Y-115918809D02*
X137862200Y-115823571D01*
X137862200Y-115823571D02*
X137814580Y-115775952D01*
X137814580Y-115775952D02*
X137671723Y-115680714D01*
X137671723Y-115680714D02*
X137481247Y-115633095D01*
X137481247Y-115633095D02*
X137100295Y-115633095D01*
X137100295Y-115633095D02*
X137005057Y-115680714D01*
X137005057Y-115680714D02*
X136957438Y-115728333D01*
X136957438Y-115728333D02*
X136909819Y-115823571D01*
X136909819Y-115823571D02*
X136909819Y-116014047D01*
X136909819Y-116014047D02*
X136957438Y-116109285D01*
X136957438Y-116109285D02*
X137005057Y-116156904D01*
X137005057Y-116156904D02*
X137100295Y-116204523D01*
X137100295Y-116204523D02*
X137338390Y-116204523D01*
X137338390Y-116204523D02*
X137433628Y-116156904D01*
X137433628Y-116156904D02*
X137481247Y-116109285D01*
X137481247Y-116109285D02*
X137528866Y-116014047D01*
X137528866Y-116014047D02*
X137528866Y-115823571D01*
X137528866Y-115823571D02*
X137481247Y-115728333D01*
X137481247Y-115728333D02*
X137433628Y-115680714D01*
X137433628Y-115680714D02*
X137338390Y-115633095D01*
X107134819Y-108592857D02*
X106658628Y-108926190D01*
X107134819Y-109164285D02*
X106134819Y-109164285D01*
X106134819Y-109164285D02*
X106134819Y-108783333D01*
X106134819Y-108783333D02*
X106182438Y-108688095D01*
X106182438Y-108688095D02*
X106230057Y-108640476D01*
X106230057Y-108640476D02*
X106325295Y-108592857D01*
X106325295Y-108592857D02*
X106468152Y-108592857D01*
X106468152Y-108592857D02*
X106563390Y-108640476D01*
X106563390Y-108640476D02*
X106611009Y-108688095D01*
X106611009Y-108688095D02*
X106658628Y-108783333D01*
X106658628Y-108783333D02*
X106658628Y-109164285D01*
X106230057Y-108211904D02*
X106182438Y-108164285D01*
X106182438Y-108164285D02*
X106134819Y-108069047D01*
X106134819Y-108069047D02*
X106134819Y-107830952D01*
X106134819Y-107830952D02*
X106182438Y-107735714D01*
X106182438Y-107735714D02*
X106230057Y-107688095D01*
X106230057Y-107688095D02*
X106325295Y-107640476D01*
X106325295Y-107640476D02*
X106420533Y-107640476D01*
X106420533Y-107640476D02*
X106563390Y-107688095D01*
X106563390Y-107688095D02*
X107134819Y-108259523D01*
X107134819Y-108259523D02*
X107134819Y-107640476D01*
X107134819Y-107164285D02*
X107134819Y-106973809D01*
X107134819Y-106973809D02*
X107087200Y-106878571D01*
X107087200Y-106878571D02*
X107039580Y-106830952D01*
X107039580Y-106830952D02*
X106896723Y-106735714D01*
X106896723Y-106735714D02*
X106706247Y-106688095D01*
X106706247Y-106688095D02*
X106325295Y-106688095D01*
X106325295Y-106688095D02*
X106230057Y-106735714D01*
X106230057Y-106735714D02*
X106182438Y-106783333D01*
X106182438Y-106783333D02*
X106134819Y-106878571D01*
X106134819Y-106878571D02*
X106134819Y-107069047D01*
X106134819Y-107069047D02*
X106182438Y-107164285D01*
X106182438Y-107164285D02*
X106230057Y-107211904D01*
X106230057Y-107211904D02*
X106325295Y-107259523D01*
X106325295Y-107259523D02*
X106563390Y-107259523D01*
X106563390Y-107259523D02*
X106658628Y-107211904D01*
X106658628Y-107211904D02*
X106706247Y-107164285D01*
X106706247Y-107164285D02*
X106753866Y-107069047D01*
X106753866Y-107069047D02*
X106753866Y-106878571D01*
X106753866Y-106878571D02*
X106706247Y-106783333D01*
X106706247Y-106783333D02*
X106658628Y-106735714D01*
X106658628Y-106735714D02*
X106563390Y-106688095D01*
X73493333Y-127626569D02*
X73160000Y-127150378D01*
X72921905Y-127626569D02*
X72921905Y-126626569D01*
X72921905Y-126626569D02*
X73302857Y-126626569D01*
X73302857Y-126626569D02*
X73398095Y-126674188D01*
X73398095Y-126674188D02*
X73445714Y-126721807D01*
X73445714Y-126721807D02*
X73493333Y-126817045D01*
X73493333Y-126817045D02*
X73493333Y-126959902D01*
X73493333Y-126959902D02*
X73445714Y-127055140D01*
X73445714Y-127055140D02*
X73398095Y-127102759D01*
X73398095Y-127102759D02*
X73302857Y-127150378D01*
X73302857Y-127150378D02*
X72921905Y-127150378D01*
X74398095Y-126626569D02*
X73921905Y-126626569D01*
X73921905Y-126626569D02*
X73874286Y-127102759D01*
X73874286Y-127102759D02*
X73921905Y-127055140D01*
X73921905Y-127055140D02*
X74017143Y-127007521D01*
X74017143Y-127007521D02*
X74255238Y-127007521D01*
X74255238Y-127007521D02*
X74350476Y-127055140D01*
X74350476Y-127055140D02*
X74398095Y-127102759D01*
X74398095Y-127102759D02*
X74445714Y-127197997D01*
X74445714Y-127197997D02*
X74445714Y-127436092D01*
X74445714Y-127436092D02*
X74398095Y-127531330D01*
X74398095Y-127531330D02*
X74350476Y-127578950D01*
X74350476Y-127578950D02*
X74255238Y-127626569D01*
X74255238Y-127626569D02*
X74017143Y-127626569D01*
X74017143Y-127626569D02*
X73921905Y-127578950D01*
X73921905Y-127578950D02*
X73874286Y-127531330D01*
X138884819Y-73032857D02*
X138408628Y-73366190D01*
X138884819Y-73604285D02*
X137884819Y-73604285D01*
X137884819Y-73604285D02*
X137884819Y-73223333D01*
X137884819Y-73223333D02*
X137932438Y-73128095D01*
X137932438Y-73128095D02*
X137980057Y-73080476D01*
X137980057Y-73080476D02*
X138075295Y-73032857D01*
X138075295Y-73032857D02*
X138218152Y-73032857D01*
X138218152Y-73032857D02*
X138313390Y-73080476D01*
X138313390Y-73080476D02*
X138361009Y-73128095D01*
X138361009Y-73128095D02*
X138408628Y-73223333D01*
X138408628Y-73223333D02*
X138408628Y-73604285D01*
X137980057Y-72651904D02*
X137932438Y-72604285D01*
X137932438Y-72604285D02*
X137884819Y-72509047D01*
X137884819Y-72509047D02*
X137884819Y-72270952D01*
X137884819Y-72270952D02*
X137932438Y-72175714D01*
X137932438Y-72175714D02*
X137980057Y-72128095D01*
X137980057Y-72128095D02*
X138075295Y-72080476D01*
X138075295Y-72080476D02*
X138170533Y-72080476D01*
X138170533Y-72080476D02*
X138313390Y-72128095D01*
X138313390Y-72128095D02*
X138884819Y-72699523D01*
X138884819Y-72699523D02*
X138884819Y-72080476D01*
X137884819Y-71747142D02*
X137884819Y-71128095D01*
X137884819Y-71128095D02*
X138265771Y-71461428D01*
X138265771Y-71461428D02*
X138265771Y-71318571D01*
X138265771Y-71318571D02*
X138313390Y-71223333D01*
X138313390Y-71223333D02*
X138361009Y-71175714D01*
X138361009Y-71175714D02*
X138456247Y-71128095D01*
X138456247Y-71128095D02*
X138694342Y-71128095D01*
X138694342Y-71128095D02*
X138789580Y-71175714D01*
X138789580Y-71175714D02*
X138837200Y-71223333D01*
X138837200Y-71223333D02*
X138884819Y-71318571D01*
X138884819Y-71318571D02*
X138884819Y-71604285D01*
X138884819Y-71604285D02*
X138837200Y-71699523D01*
X138837200Y-71699523D02*
X138789580Y-71747142D01*
X96879580Y-84522857D02*
X96927200Y-84570476D01*
X96927200Y-84570476D02*
X96974819Y-84713333D01*
X96974819Y-84713333D02*
X96974819Y-84808571D01*
X96974819Y-84808571D02*
X96927200Y-84951428D01*
X96927200Y-84951428D02*
X96831961Y-85046666D01*
X96831961Y-85046666D02*
X96736723Y-85094285D01*
X96736723Y-85094285D02*
X96546247Y-85141904D01*
X96546247Y-85141904D02*
X96403390Y-85141904D01*
X96403390Y-85141904D02*
X96212914Y-85094285D01*
X96212914Y-85094285D02*
X96117676Y-85046666D01*
X96117676Y-85046666D02*
X96022438Y-84951428D01*
X96022438Y-84951428D02*
X95974819Y-84808571D01*
X95974819Y-84808571D02*
X95974819Y-84713333D01*
X95974819Y-84713333D02*
X96022438Y-84570476D01*
X96022438Y-84570476D02*
X96070057Y-84522857D01*
X96974819Y-83570476D02*
X96974819Y-84141904D01*
X96974819Y-83856190D02*
X95974819Y-83856190D01*
X95974819Y-83856190D02*
X96117676Y-83951428D01*
X96117676Y-83951428D02*
X96212914Y-84046666D01*
X96212914Y-84046666D02*
X96260533Y-84141904D01*
X95974819Y-82951428D02*
X95974819Y-82856190D01*
X95974819Y-82856190D02*
X96022438Y-82760952D01*
X96022438Y-82760952D02*
X96070057Y-82713333D01*
X96070057Y-82713333D02*
X96165295Y-82665714D01*
X96165295Y-82665714D02*
X96355771Y-82618095D01*
X96355771Y-82618095D02*
X96593866Y-82618095D01*
X96593866Y-82618095D02*
X96784342Y-82665714D01*
X96784342Y-82665714D02*
X96879580Y-82713333D01*
X96879580Y-82713333D02*
X96927200Y-82760952D01*
X96927200Y-82760952D02*
X96974819Y-82856190D01*
X96974819Y-82856190D02*
X96974819Y-82951428D01*
X96974819Y-82951428D02*
X96927200Y-83046666D01*
X96927200Y-83046666D02*
X96879580Y-83094285D01*
X96879580Y-83094285D02*
X96784342Y-83141904D01*
X96784342Y-83141904D02*
X96593866Y-83189523D01*
X96593866Y-83189523D02*
X96355771Y-83189523D01*
X96355771Y-83189523D02*
X96165295Y-83141904D01*
X96165295Y-83141904D02*
X96070057Y-83094285D01*
X96070057Y-83094285D02*
X96022438Y-83046666D01*
X96022438Y-83046666D02*
X95974819Y-82951428D01*
X66734819Y-86304285D02*
X65734819Y-86304285D01*
X65734819Y-86304285D02*
X65734819Y-86066190D01*
X65734819Y-86066190D02*
X65782438Y-85923333D01*
X65782438Y-85923333D02*
X65877676Y-85828095D01*
X65877676Y-85828095D02*
X65972914Y-85780476D01*
X65972914Y-85780476D02*
X66163390Y-85732857D01*
X66163390Y-85732857D02*
X66306247Y-85732857D01*
X66306247Y-85732857D02*
X66496723Y-85780476D01*
X66496723Y-85780476D02*
X66591961Y-85828095D01*
X66591961Y-85828095D02*
X66687200Y-85923333D01*
X66687200Y-85923333D02*
X66734819Y-86066190D01*
X66734819Y-86066190D02*
X66734819Y-86304285D01*
X66734819Y-84780476D02*
X66734819Y-85351904D01*
X66734819Y-85066190D02*
X65734819Y-85066190D01*
X65734819Y-85066190D02*
X65877676Y-85161428D01*
X65877676Y-85161428D02*
X65972914Y-85256666D01*
X65972914Y-85256666D02*
X66020533Y-85351904D01*
X66163390Y-84209047D02*
X66115771Y-84304285D01*
X66115771Y-84304285D02*
X66068152Y-84351904D01*
X66068152Y-84351904D02*
X65972914Y-84399523D01*
X65972914Y-84399523D02*
X65925295Y-84399523D01*
X65925295Y-84399523D02*
X65830057Y-84351904D01*
X65830057Y-84351904D02*
X65782438Y-84304285D01*
X65782438Y-84304285D02*
X65734819Y-84209047D01*
X65734819Y-84209047D02*
X65734819Y-84018571D01*
X65734819Y-84018571D02*
X65782438Y-83923333D01*
X65782438Y-83923333D02*
X65830057Y-83875714D01*
X65830057Y-83875714D02*
X65925295Y-83828095D01*
X65925295Y-83828095D02*
X65972914Y-83828095D01*
X65972914Y-83828095D02*
X66068152Y-83875714D01*
X66068152Y-83875714D02*
X66115771Y-83923333D01*
X66115771Y-83923333D02*
X66163390Y-84018571D01*
X66163390Y-84018571D02*
X66163390Y-84209047D01*
X66163390Y-84209047D02*
X66211009Y-84304285D01*
X66211009Y-84304285D02*
X66258628Y-84351904D01*
X66258628Y-84351904D02*
X66353866Y-84399523D01*
X66353866Y-84399523D02*
X66544342Y-84399523D01*
X66544342Y-84399523D02*
X66639580Y-84351904D01*
X66639580Y-84351904D02*
X66687200Y-84304285D01*
X66687200Y-84304285D02*
X66734819Y-84209047D01*
X66734819Y-84209047D02*
X66734819Y-84018571D01*
X66734819Y-84018571D02*
X66687200Y-83923333D01*
X66687200Y-83923333D02*
X66639580Y-83875714D01*
X66639580Y-83875714D02*
X66544342Y-83828095D01*
X66544342Y-83828095D02*
X66353866Y-83828095D01*
X66353866Y-83828095D02*
X66258628Y-83875714D01*
X66258628Y-83875714D02*
X66211009Y-83923333D01*
X66211009Y-83923333D02*
X66163390Y-84018571D01*
X124494819Y-123134285D02*
X123494819Y-123134285D01*
X123494819Y-123134285D02*
X123494819Y-122896190D01*
X123494819Y-122896190D02*
X123542438Y-122753333D01*
X123542438Y-122753333D02*
X123637676Y-122658095D01*
X123637676Y-122658095D02*
X123732914Y-122610476D01*
X123732914Y-122610476D02*
X123923390Y-122562857D01*
X123923390Y-122562857D02*
X124066247Y-122562857D01*
X124066247Y-122562857D02*
X124256723Y-122610476D01*
X124256723Y-122610476D02*
X124351961Y-122658095D01*
X124351961Y-122658095D02*
X124447200Y-122753333D01*
X124447200Y-122753333D02*
X124494819Y-122896190D01*
X124494819Y-122896190D02*
X124494819Y-123134285D01*
X123494819Y-122229523D02*
X123494819Y-121610476D01*
X123494819Y-121610476D02*
X123875771Y-121943809D01*
X123875771Y-121943809D02*
X123875771Y-121800952D01*
X123875771Y-121800952D02*
X123923390Y-121705714D01*
X123923390Y-121705714D02*
X123971009Y-121658095D01*
X123971009Y-121658095D02*
X124066247Y-121610476D01*
X124066247Y-121610476D02*
X124304342Y-121610476D01*
X124304342Y-121610476D02*
X124399580Y-121658095D01*
X124399580Y-121658095D02*
X124447200Y-121705714D01*
X124447200Y-121705714D02*
X124494819Y-121800952D01*
X124494819Y-121800952D02*
X124494819Y-122086666D01*
X124494819Y-122086666D02*
X124447200Y-122181904D01*
X124447200Y-122181904D02*
X124399580Y-122229523D01*
X123590057Y-121229523D02*
X123542438Y-121181904D01*
X123542438Y-121181904D02*
X123494819Y-121086666D01*
X123494819Y-121086666D02*
X123494819Y-120848571D01*
X123494819Y-120848571D02*
X123542438Y-120753333D01*
X123542438Y-120753333D02*
X123590057Y-120705714D01*
X123590057Y-120705714D02*
X123685295Y-120658095D01*
X123685295Y-120658095D02*
X123780533Y-120658095D01*
X123780533Y-120658095D02*
X123923390Y-120705714D01*
X123923390Y-120705714D02*
X124494819Y-121277142D01*
X124494819Y-121277142D02*
X124494819Y-120658095D01*
X128449819Y-64714285D02*
X127449819Y-64714285D01*
X127449819Y-64714285D02*
X127449819Y-64476190D01*
X127449819Y-64476190D02*
X127497438Y-64333333D01*
X127497438Y-64333333D02*
X127592676Y-64238095D01*
X127592676Y-64238095D02*
X127687914Y-64190476D01*
X127687914Y-64190476D02*
X127878390Y-64142857D01*
X127878390Y-64142857D02*
X128021247Y-64142857D01*
X128021247Y-64142857D02*
X128211723Y-64190476D01*
X128211723Y-64190476D02*
X128306961Y-64238095D01*
X128306961Y-64238095D02*
X128402200Y-64333333D01*
X128402200Y-64333333D02*
X128449819Y-64476190D01*
X128449819Y-64476190D02*
X128449819Y-64714285D01*
X127545057Y-63761904D02*
X127497438Y-63714285D01*
X127497438Y-63714285D02*
X127449819Y-63619047D01*
X127449819Y-63619047D02*
X127449819Y-63380952D01*
X127449819Y-63380952D02*
X127497438Y-63285714D01*
X127497438Y-63285714D02*
X127545057Y-63238095D01*
X127545057Y-63238095D02*
X127640295Y-63190476D01*
X127640295Y-63190476D02*
X127735533Y-63190476D01*
X127735533Y-63190476D02*
X127878390Y-63238095D01*
X127878390Y-63238095D02*
X128449819Y-63809523D01*
X128449819Y-63809523D02*
X128449819Y-63190476D01*
X127449819Y-62285714D02*
X127449819Y-62761904D01*
X127449819Y-62761904D02*
X127926009Y-62809523D01*
X127926009Y-62809523D02*
X127878390Y-62761904D01*
X127878390Y-62761904D02*
X127830771Y-62666666D01*
X127830771Y-62666666D02*
X127830771Y-62428571D01*
X127830771Y-62428571D02*
X127878390Y-62333333D01*
X127878390Y-62333333D02*
X127926009Y-62285714D01*
X127926009Y-62285714D02*
X128021247Y-62238095D01*
X128021247Y-62238095D02*
X128259342Y-62238095D01*
X128259342Y-62238095D02*
X128354580Y-62285714D01*
X128354580Y-62285714D02*
X128402200Y-62333333D01*
X128402200Y-62333333D02*
X128449819Y-62428571D01*
X128449819Y-62428571D02*
X128449819Y-62666666D01*
X128449819Y-62666666D02*
X128402200Y-62761904D01*
X128402200Y-62761904D02*
X128354580Y-62809523D01*
X69309819Y-81224285D02*
X68309819Y-81224285D01*
X68309819Y-81224285D02*
X68309819Y-80986190D01*
X68309819Y-80986190D02*
X68357438Y-80843333D01*
X68357438Y-80843333D02*
X68452676Y-80748095D01*
X68452676Y-80748095D02*
X68547914Y-80700476D01*
X68547914Y-80700476D02*
X68738390Y-80652857D01*
X68738390Y-80652857D02*
X68881247Y-80652857D01*
X68881247Y-80652857D02*
X69071723Y-80700476D01*
X69071723Y-80700476D02*
X69166961Y-80748095D01*
X69166961Y-80748095D02*
X69262200Y-80843333D01*
X69262200Y-80843333D02*
X69309819Y-80986190D01*
X69309819Y-80986190D02*
X69309819Y-81224285D01*
X69309819Y-79700476D02*
X69309819Y-80271904D01*
X69309819Y-79986190D02*
X68309819Y-79986190D01*
X68309819Y-79986190D02*
X68452676Y-80081428D01*
X68452676Y-80081428D02*
X68547914Y-80176666D01*
X68547914Y-80176666D02*
X68595533Y-80271904D01*
X68309819Y-79367142D02*
X68309819Y-78700476D01*
X68309819Y-78700476D02*
X69309819Y-79129047D01*
X99094819Y-123134285D02*
X98094819Y-123134285D01*
X98094819Y-123134285D02*
X98094819Y-122896190D01*
X98094819Y-122896190D02*
X98142438Y-122753333D01*
X98142438Y-122753333D02*
X98237676Y-122658095D01*
X98237676Y-122658095D02*
X98332914Y-122610476D01*
X98332914Y-122610476D02*
X98523390Y-122562857D01*
X98523390Y-122562857D02*
X98666247Y-122562857D01*
X98666247Y-122562857D02*
X98856723Y-122610476D01*
X98856723Y-122610476D02*
X98951961Y-122658095D01*
X98951961Y-122658095D02*
X99047200Y-122753333D01*
X99047200Y-122753333D02*
X99094819Y-122896190D01*
X99094819Y-122896190D02*
X99094819Y-123134285D01*
X98094819Y-122229523D02*
X98094819Y-121610476D01*
X98094819Y-121610476D02*
X98475771Y-121943809D01*
X98475771Y-121943809D02*
X98475771Y-121800952D01*
X98475771Y-121800952D02*
X98523390Y-121705714D01*
X98523390Y-121705714D02*
X98571009Y-121658095D01*
X98571009Y-121658095D02*
X98666247Y-121610476D01*
X98666247Y-121610476D02*
X98904342Y-121610476D01*
X98904342Y-121610476D02*
X98999580Y-121658095D01*
X98999580Y-121658095D02*
X99047200Y-121705714D01*
X99047200Y-121705714D02*
X99094819Y-121800952D01*
X99094819Y-121800952D02*
X99094819Y-122086666D01*
X99094819Y-122086666D02*
X99047200Y-122181904D01*
X99047200Y-122181904D02*
X98999580Y-122229523D01*
X98094819Y-120753333D02*
X98094819Y-120943809D01*
X98094819Y-120943809D02*
X98142438Y-121039047D01*
X98142438Y-121039047D02*
X98190057Y-121086666D01*
X98190057Y-121086666D02*
X98332914Y-121181904D01*
X98332914Y-121181904D02*
X98523390Y-121229523D01*
X98523390Y-121229523D02*
X98904342Y-121229523D01*
X98904342Y-121229523D02*
X98999580Y-121181904D01*
X98999580Y-121181904D02*
X99047200Y-121134285D01*
X99047200Y-121134285D02*
X99094819Y-121039047D01*
X99094819Y-121039047D02*
X99094819Y-120848571D01*
X99094819Y-120848571D02*
X99047200Y-120753333D01*
X99047200Y-120753333D02*
X98999580Y-120705714D01*
X98999580Y-120705714D02*
X98904342Y-120658095D01*
X98904342Y-120658095D02*
X98666247Y-120658095D01*
X98666247Y-120658095D02*
X98571009Y-120705714D01*
X98571009Y-120705714D02*
X98523390Y-120753333D01*
X98523390Y-120753333D02*
X98475771Y-120848571D01*
X98475771Y-120848571D02*
X98475771Y-121039047D01*
X98475771Y-121039047D02*
X98523390Y-121134285D01*
X98523390Y-121134285D02*
X98571009Y-121181904D01*
X98571009Y-121181904D02*
X98666247Y-121229523D01*
X68454819Y-84761904D02*
X69264342Y-84761904D01*
X69264342Y-84761904D02*
X69359580Y-84714285D01*
X69359580Y-84714285D02*
X69407200Y-84666666D01*
X69407200Y-84666666D02*
X69454819Y-84571428D01*
X69454819Y-84571428D02*
X69454819Y-84380952D01*
X69454819Y-84380952D02*
X69407200Y-84285714D01*
X69407200Y-84285714D02*
X69359580Y-84238095D01*
X69359580Y-84238095D02*
X69264342Y-84190476D01*
X69264342Y-84190476D02*
X68454819Y-84190476D01*
X68788152Y-83285714D02*
X69454819Y-83285714D01*
X68407200Y-83523809D02*
X69121485Y-83761904D01*
X69121485Y-83761904D02*
X69121485Y-83142857D01*
X94434819Y-71286666D02*
X93958628Y-71619999D01*
X94434819Y-71858094D02*
X93434819Y-71858094D01*
X93434819Y-71858094D02*
X93434819Y-71477142D01*
X93434819Y-71477142D02*
X93482438Y-71381904D01*
X93482438Y-71381904D02*
X93530057Y-71334285D01*
X93530057Y-71334285D02*
X93625295Y-71286666D01*
X93625295Y-71286666D02*
X93768152Y-71286666D01*
X93768152Y-71286666D02*
X93863390Y-71334285D01*
X93863390Y-71334285D02*
X93911009Y-71381904D01*
X93911009Y-71381904D02*
X93958628Y-71477142D01*
X93958628Y-71477142D02*
X93958628Y-71858094D01*
X94434819Y-70810475D02*
X94434819Y-70619999D01*
X94434819Y-70619999D02*
X94387200Y-70524761D01*
X94387200Y-70524761D02*
X94339580Y-70477142D01*
X94339580Y-70477142D02*
X94196723Y-70381904D01*
X94196723Y-70381904D02*
X94006247Y-70334285D01*
X94006247Y-70334285D02*
X93625295Y-70334285D01*
X93625295Y-70334285D02*
X93530057Y-70381904D01*
X93530057Y-70381904D02*
X93482438Y-70429523D01*
X93482438Y-70429523D02*
X93434819Y-70524761D01*
X93434819Y-70524761D02*
X93434819Y-70715237D01*
X93434819Y-70715237D02*
X93482438Y-70810475D01*
X93482438Y-70810475D02*
X93530057Y-70858094D01*
X93530057Y-70858094D02*
X93625295Y-70905713D01*
X93625295Y-70905713D02*
X93863390Y-70905713D01*
X93863390Y-70905713D02*
X93958628Y-70858094D01*
X93958628Y-70858094D02*
X94006247Y-70810475D01*
X94006247Y-70810475D02*
X94053866Y-70715237D01*
X94053866Y-70715237D02*
X94053866Y-70524761D01*
X94053866Y-70524761D02*
X94006247Y-70429523D01*
X94006247Y-70429523D02*
X93958628Y-70381904D01*
X93958628Y-70381904D02*
X93863390Y-70334285D01*
X113904819Y-64714285D02*
X112904819Y-64714285D01*
X112904819Y-64714285D02*
X112904819Y-64476190D01*
X112904819Y-64476190D02*
X112952438Y-64333333D01*
X112952438Y-64333333D02*
X113047676Y-64238095D01*
X113047676Y-64238095D02*
X113142914Y-64190476D01*
X113142914Y-64190476D02*
X113333390Y-64142857D01*
X113333390Y-64142857D02*
X113476247Y-64142857D01*
X113476247Y-64142857D02*
X113666723Y-64190476D01*
X113666723Y-64190476D02*
X113761961Y-64238095D01*
X113761961Y-64238095D02*
X113857200Y-64333333D01*
X113857200Y-64333333D02*
X113904819Y-64476190D01*
X113904819Y-64476190D02*
X113904819Y-64714285D01*
X113000057Y-63761904D02*
X112952438Y-63714285D01*
X112952438Y-63714285D02*
X112904819Y-63619047D01*
X112904819Y-63619047D02*
X112904819Y-63380952D01*
X112904819Y-63380952D02*
X112952438Y-63285714D01*
X112952438Y-63285714D02*
X113000057Y-63238095D01*
X113000057Y-63238095D02*
X113095295Y-63190476D01*
X113095295Y-63190476D02*
X113190533Y-63190476D01*
X113190533Y-63190476D02*
X113333390Y-63238095D01*
X113333390Y-63238095D02*
X113904819Y-63809523D01*
X113904819Y-63809523D02*
X113904819Y-63190476D01*
X112904819Y-62857142D02*
X112904819Y-62238095D01*
X112904819Y-62238095D02*
X113285771Y-62571428D01*
X113285771Y-62571428D02*
X113285771Y-62428571D01*
X113285771Y-62428571D02*
X113333390Y-62333333D01*
X113333390Y-62333333D02*
X113381009Y-62285714D01*
X113381009Y-62285714D02*
X113476247Y-62238095D01*
X113476247Y-62238095D02*
X113714342Y-62238095D01*
X113714342Y-62238095D02*
X113809580Y-62285714D01*
X113809580Y-62285714D02*
X113857200Y-62333333D01*
X113857200Y-62333333D02*
X113904819Y-62428571D01*
X113904819Y-62428571D02*
X113904819Y-62714285D01*
X113904819Y-62714285D02*
X113857200Y-62809523D01*
X113857200Y-62809523D02*
X113809580Y-62857142D01*
X135074819Y-108592857D02*
X134598628Y-108926190D01*
X135074819Y-109164285D02*
X134074819Y-109164285D01*
X134074819Y-109164285D02*
X134074819Y-108783333D01*
X134074819Y-108783333D02*
X134122438Y-108688095D01*
X134122438Y-108688095D02*
X134170057Y-108640476D01*
X134170057Y-108640476D02*
X134265295Y-108592857D01*
X134265295Y-108592857D02*
X134408152Y-108592857D01*
X134408152Y-108592857D02*
X134503390Y-108640476D01*
X134503390Y-108640476D02*
X134551009Y-108688095D01*
X134551009Y-108688095D02*
X134598628Y-108783333D01*
X134598628Y-108783333D02*
X134598628Y-109164285D01*
X134170057Y-108211904D02*
X134122438Y-108164285D01*
X134122438Y-108164285D02*
X134074819Y-108069047D01*
X134074819Y-108069047D02*
X134074819Y-107830952D01*
X134074819Y-107830952D02*
X134122438Y-107735714D01*
X134122438Y-107735714D02*
X134170057Y-107688095D01*
X134170057Y-107688095D02*
X134265295Y-107640476D01*
X134265295Y-107640476D02*
X134360533Y-107640476D01*
X134360533Y-107640476D02*
X134503390Y-107688095D01*
X134503390Y-107688095D02*
X135074819Y-108259523D01*
X135074819Y-108259523D02*
X135074819Y-107640476D01*
X134074819Y-106783333D02*
X134074819Y-106973809D01*
X134074819Y-106973809D02*
X134122438Y-107069047D01*
X134122438Y-107069047D02*
X134170057Y-107116666D01*
X134170057Y-107116666D02*
X134312914Y-107211904D01*
X134312914Y-107211904D02*
X134503390Y-107259523D01*
X134503390Y-107259523D02*
X134884342Y-107259523D01*
X134884342Y-107259523D02*
X134979580Y-107211904D01*
X134979580Y-107211904D02*
X135027200Y-107164285D01*
X135027200Y-107164285D02*
X135074819Y-107069047D01*
X135074819Y-107069047D02*
X135074819Y-106878571D01*
X135074819Y-106878571D02*
X135027200Y-106783333D01*
X135027200Y-106783333D02*
X134979580Y-106735714D01*
X134979580Y-106735714D02*
X134884342Y-106688095D01*
X134884342Y-106688095D02*
X134646247Y-106688095D01*
X134646247Y-106688095D02*
X134551009Y-106735714D01*
X134551009Y-106735714D02*
X134503390Y-106783333D01*
X134503390Y-106783333D02*
X134455771Y-106878571D01*
X134455771Y-106878571D02*
X134455771Y-107069047D01*
X134455771Y-107069047D02*
X134503390Y-107164285D01*
X134503390Y-107164285D02*
X134551009Y-107211904D01*
X134551009Y-107211904D02*
X134646247Y-107259523D01*
X124666666Y-112454819D02*
X124666666Y-113169104D01*
X124666666Y-113169104D02*
X124619047Y-113311961D01*
X124619047Y-113311961D02*
X124523809Y-113407200D01*
X124523809Y-113407200D02*
X124380952Y-113454819D01*
X124380952Y-113454819D02*
X124285714Y-113454819D01*
X125047619Y-112454819D02*
X125714285Y-112454819D01*
X125714285Y-112454819D02*
X125285714Y-113454819D01*
X129994819Y-108592857D02*
X129518628Y-108926190D01*
X129994819Y-109164285D02*
X128994819Y-109164285D01*
X128994819Y-109164285D02*
X128994819Y-108783333D01*
X128994819Y-108783333D02*
X129042438Y-108688095D01*
X129042438Y-108688095D02*
X129090057Y-108640476D01*
X129090057Y-108640476D02*
X129185295Y-108592857D01*
X129185295Y-108592857D02*
X129328152Y-108592857D01*
X129328152Y-108592857D02*
X129423390Y-108640476D01*
X129423390Y-108640476D02*
X129471009Y-108688095D01*
X129471009Y-108688095D02*
X129518628Y-108783333D01*
X129518628Y-108783333D02*
X129518628Y-109164285D01*
X129090057Y-108211904D02*
X129042438Y-108164285D01*
X129042438Y-108164285D02*
X128994819Y-108069047D01*
X128994819Y-108069047D02*
X128994819Y-107830952D01*
X128994819Y-107830952D02*
X129042438Y-107735714D01*
X129042438Y-107735714D02*
X129090057Y-107688095D01*
X129090057Y-107688095D02*
X129185295Y-107640476D01*
X129185295Y-107640476D02*
X129280533Y-107640476D01*
X129280533Y-107640476D02*
X129423390Y-107688095D01*
X129423390Y-107688095D02*
X129994819Y-108259523D01*
X129994819Y-108259523D02*
X129994819Y-107640476D01*
X129423390Y-107069047D02*
X129375771Y-107164285D01*
X129375771Y-107164285D02*
X129328152Y-107211904D01*
X129328152Y-107211904D02*
X129232914Y-107259523D01*
X129232914Y-107259523D02*
X129185295Y-107259523D01*
X129185295Y-107259523D02*
X129090057Y-107211904D01*
X129090057Y-107211904D02*
X129042438Y-107164285D01*
X129042438Y-107164285D02*
X128994819Y-107069047D01*
X128994819Y-107069047D02*
X128994819Y-106878571D01*
X128994819Y-106878571D02*
X129042438Y-106783333D01*
X129042438Y-106783333D02*
X129090057Y-106735714D01*
X129090057Y-106735714D02*
X129185295Y-106688095D01*
X129185295Y-106688095D02*
X129232914Y-106688095D01*
X129232914Y-106688095D02*
X129328152Y-106735714D01*
X129328152Y-106735714D02*
X129375771Y-106783333D01*
X129375771Y-106783333D02*
X129423390Y-106878571D01*
X129423390Y-106878571D02*
X129423390Y-107069047D01*
X129423390Y-107069047D02*
X129471009Y-107164285D01*
X129471009Y-107164285D02*
X129518628Y-107211904D01*
X129518628Y-107211904D02*
X129613866Y-107259523D01*
X129613866Y-107259523D02*
X129804342Y-107259523D01*
X129804342Y-107259523D02*
X129899580Y-107211904D01*
X129899580Y-107211904D02*
X129947200Y-107164285D01*
X129947200Y-107164285D02*
X129994819Y-107069047D01*
X129994819Y-107069047D02*
X129994819Y-106878571D01*
X129994819Y-106878571D02*
X129947200Y-106783333D01*
X129947200Y-106783333D02*
X129899580Y-106735714D01*
X129899580Y-106735714D02*
X129804342Y-106688095D01*
X129804342Y-106688095D02*
X129613866Y-106688095D01*
X129613866Y-106688095D02*
X129518628Y-106735714D01*
X129518628Y-106735714D02*
X129471009Y-106783333D01*
X129471009Y-106783333D02*
X129423390Y-106878571D01*
X133381905Y-89624819D02*
X133381905Y-90434342D01*
X133381905Y-90434342D02*
X133429524Y-90529580D01*
X133429524Y-90529580D02*
X133477143Y-90577200D01*
X133477143Y-90577200D02*
X133572381Y-90624819D01*
X133572381Y-90624819D02*
X133762857Y-90624819D01*
X133762857Y-90624819D02*
X133858095Y-90577200D01*
X133858095Y-90577200D02*
X133905714Y-90529580D01*
X133905714Y-90529580D02*
X133953333Y-90434342D01*
X133953333Y-90434342D02*
X133953333Y-89624819D01*
X134953333Y-90624819D02*
X134381905Y-90624819D01*
X134667619Y-90624819D02*
X134667619Y-89624819D01*
X134667619Y-89624819D02*
X134572381Y-89767676D01*
X134572381Y-89767676D02*
X134477143Y-89862914D01*
X134477143Y-89862914D02*
X134381905Y-89910533D01*
X135286667Y-89624819D02*
X135905714Y-89624819D01*
X135905714Y-89624819D02*
X135572381Y-90005771D01*
X135572381Y-90005771D02*
X135715238Y-90005771D01*
X135715238Y-90005771D02*
X135810476Y-90053390D01*
X135810476Y-90053390D02*
X135858095Y-90101009D01*
X135858095Y-90101009D02*
X135905714Y-90196247D01*
X135905714Y-90196247D02*
X135905714Y-90434342D01*
X135905714Y-90434342D02*
X135858095Y-90529580D01*
X135858095Y-90529580D02*
X135810476Y-90577200D01*
X135810476Y-90577200D02*
X135715238Y-90624819D01*
X135715238Y-90624819D02*
X135429524Y-90624819D01*
X135429524Y-90624819D02*
X135334286Y-90577200D01*
X135334286Y-90577200D02*
X135286667Y-90529580D01*
X138899819Y-64714285D02*
X137899819Y-64714285D01*
X137899819Y-64714285D02*
X137899819Y-64476190D01*
X137899819Y-64476190D02*
X137947438Y-64333333D01*
X137947438Y-64333333D02*
X138042676Y-64238095D01*
X138042676Y-64238095D02*
X138137914Y-64190476D01*
X138137914Y-64190476D02*
X138328390Y-64142857D01*
X138328390Y-64142857D02*
X138471247Y-64142857D01*
X138471247Y-64142857D02*
X138661723Y-64190476D01*
X138661723Y-64190476D02*
X138756961Y-64238095D01*
X138756961Y-64238095D02*
X138852200Y-64333333D01*
X138852200Y-64333333D02*
X138899819Y-64476190D01*
X138899819Y-64476190D02*
X138899819Y-64714285D01*
X137995057Y-63761904D02*
X137947438Y-63714285D01*
X137947438Y-63714285D02*
X137899819Y-63619047D01*
X137899819Y-63619047D02*
X137899819Y-63380952D01*
X137899819Y-63380952D02*
X137947438Y-63285714D01*
X137947438Y-63285714D02*
X137995057Y-63238095D01*
X137995057Y-63238095D02*
X138090295Y-63190476D01*
X138090295Y-63190476D02*
X138185533Y-63190476D01*
X138185533Y-63190476D02*
X138328390Y-63238095D01*
X138328390Y-63238095D02*
X138899819Y-63809523D01*
X138899819Y-63809523D02*
X138899819Y-63190476D01*
X137899819Y-62857142D02*
X137899819Y-62190476D01*
X137899819Y-62190476D02*
X138899819Y-62619047D01*
X94734819Y-81224285D02*
X93734819Y-81224285D01*
X93734819Y-81224285D02*
X93734819Y-80986190D01*
X93734819Y-80986190D02*
X93782438Y-80843333D01*
X93782438Y-80843333D02*
X93877676Y-80748095D01*
X93877676Y-80748095D02*
X93972914Y-80700476D01*
X93972914Y-80700476D02*
X94163390Y-80652857D01*
X94163390Y-80652857D02*
X94306247Y-80652857D01*
X94306247Y-80652857D02*
X94496723Y-80700476D01*
X94496723Y-80700476D02*
X94591961Y-80748095D01*
X94591961Y-80748095D02*
X94687200Y-80843333D01*
X94687200Y-80843333D02*
X94734819Y-80986190D01*
X94734819Y-80986190D02*
X94734819Y-81224285D01*
X94734819Y-79700476D02*
X94734819Y-80271904D01*
X94734819Y-79986190D02*
X93734819Y-79986190D01*
X93734819Y-79986190D02*
X93877676Y-80081428D01*
X93877676Y-80081428D02*
X93972914Y-80176666D01*
X93972914Y-80176666D02*
X94020533Y-80271904D01*
X93734819Y-79367142D02*
X93734819Y-78748095D01*
X93734819Y-78748095D02*
X94115771Y-79081428D01*
X94115771Y-79081428D02*
X94115771Y-78938571D01*
X94115771Y-78938571D02*
X94163390Y-78843333D01*
X94163390Y-78843333D02*
X94211009Y-78795714D01*
X94211009Y-78795714D02*
X94306247Y-78748095D01*
X94306247Y-78748095D02*
X94544342Y-78748095D01*
X94544342Y-78748095D02*
X94639580Y-78795714D01*
X94639580Y-78795714D02*
X94687200Y-78843333D01*
X94687200Y-78843333D02*
X94734819Y-78938571D01*
X94734819Y-78938571D02*
X94734819Y-79224285D01*
X94734819Y-79224285D02*
X94687200Y-79319523D01*
X94687200Y-79319523D02*
X94639580Y-79367142D01*
X105864819Y-73032857D02*
X105388628Y-73366190D01*
X105864819Y-73604285D02*
X104864819Y-73604285D01*
X104864819Y-73604285D02*
X104864819Y-73223333D01*
X104864819Y-73223333D02*
X104912438Y-73128095D01*
X104912438Y-73128095D02*
X104960057Y-73080476D01*
X104960057Y-73080476D02*
X105055295Y-73032857D01*
X105055295Y-73032857D02*
X105198152Y-73032857D01*
X105198152Y-73032857D02*
X105293390Y-73080476D01*
X105293390Y-73080476D02*
X105341009Y-73128095D01*
X105341009Y-73128095D02*
X105388628Y-73223333D01*
X105388628Y-73223333D02*
X105388628Y-73604285D01*
X105864819Y-72080476D02*
X105864819Y-72651904D01*
X105864819Y-72366190D02*
X104864819Y-72366190D01*
X104864819Y-72366190D02*
X105007676Y-72461428D01*
X105007676Y-72461428D02*
X105102914Y-72556666D01*
X105102914Y-72556666D02*
X105150533Y-72651904D01*
X105293390Y-71509047D02*
X105245771Y-71604285D01*
X105245771Y-71604285D02*
X105198152Y-71651904D01*
X105198152Y-71651904D02*
X105102914Y-71699523D01*
X105102914Y-71699523D02*
X105055295Y-71699523D01*
X105055295Y-71699523D02*
X104960057Y-71651904D01*
X104960057Y-71651904D02*
X104912438Y-71604285D01*
X104912438Y-71604285D02*
X104864819Y-71509047D01*
X104864819Y-71509047D02*
X104864819Y-71318571D01*
X104864819Y-71318571D02*
X104912438Y-71223333D01*
X104912438Y-71223333D02*
X104960057Y-71175714D01*
X104960057Y-71175714D02*
X105055295Y-71128095D01*
X105055295Y-71128095D02*
X105102914Y-71128095D01*
X105102914Y-71128095D02*
X105198152Y-71175714D01*
X105198152Y-71175714D02*
X105245771Y-71223333D01*
X105245771Y-71223333D02*
X105293390Y-71318571D01*
X105293390Y-71318571D02*
X105293390Y-71509047D01*
X105293390Y-71509047D02*
X105341009Y-71604285D01*
X105341009Y-71604285D02*
X105388628Y-71651904D01*
X105388628Y-71651904D02*
X105483866Y-71699523D01*
X105483866Y-71699523D02*
X105674342Y-71699523D01*
X105674342Y-71699523D02*
X105769580Y-71651904D01*
X105769580Y-71651904D02*
X105817200Y-71604285D01*
X105817200Y-71604285D02*
X105864819Y-71509047D01*
X105864819Y-71509047D02*
X105864819Y-71318571D01*
X105864819Y-71318571D02*
X105817200Y-71223333D01*
X105817200Y-71223333D02*
X105769580Y-71175714D01*
X105769580Y-71175714D02*
X105674342Y-71128095D01*
X105674342Y-71128095D02*
X105483866Y-71128095D01*
X105483866Y-71128095D02*
X105388628Y-71175714D01*
X105388628Y-71175714D02*
X105341009Y-71223333D01*
X105341009Y-71223333D02*
X105293390Y-71318571D01*
X136344819Y-73032857D02*
X135868628Y-73366190D01*
X136344819Y-73604285D02*
X135344819Y-73604285D01*
X135344819Y-73604285D02*
X135344819Y-73223333D01*
X135344819Y-73223333D02*
X135392438Y-73128095D01*
X135392438Y-73128095D02*
X135440057Y-73080476D01*
X135440057Y-73080476D02*
X135535295Y-73032857D01*
X135535295Y-73032857D02*
X135678152Y-73032857D01*
X135678152Y-73032857D02*
X135773390Y-73080476D01*
X135773390Y-73080476D02*
X135821009Y-73128095D01*
X135821009Y-73128095D02*
X135868628Y-73223333D01*
X135868628Y-73223333D02*
X135868628Y-73604285D01*
X135440057Y-72651904D02*
X135392438Y-72604285D01*
X135392438Y-72604285D02*
X135344819Y-72509047D01*
X135344819Y-72509047D02*
X135344819Y-72270952D01*
X135344819Y-72270952D02*
X135392438Y-72175714D01*
X135392438Y-72175714D02*
X135440057Y-72128095D01*
X135440057Y-72128095D02*
X135535295Y-72080476D01*
X135535295Y-72080476D02*
X135630533Y-72080476D01*
X135630533Y-72080476D02*
X135773390Y-72128095D01*
X135773390Y-72128095D02*
X136344819Y-72699523D01*
X136344819Y-72699523D02*
X136344819Y-72080476D01*
X135440057Y-71699523D02*
X135392438Y-71651904D01*
X135392438Y-71651904D02*
X135344819Y-71556666D01*
X135344819Y-71556666D02*
X135344819Y-71318571D01*
X135344819Y-71318571D02*
X135392438Y-71223333D01*
X135392438Y-71223333D02*
X135440057Y-71175714D01*
X135440057Y-71175714D02*
X135535295Y-71128095D01*
X135535295Y-71128095D02*
X135630533Y-71128095D01*
X135630533Y-71128095D02*
X135773390Y-71175714D01*
X135773390Y-71175714D02*
X136344819Y-71747142D01*
X136344819Y-71747142D02*
X136344819Y-71128095D01*
X81811905Y-99336569D02*
X81811905Y-98336569D01*
X81811905Y-98336569D02*
X82050000Y-98336569D01*
X82050000Y-98336569D02*
X82192857Y-98384188D01*
X82192857Y-98384188D02*
X82288095Y-98479426D01*
X82288095Y-98479426D02*
X82335714Y-98574664D01*
X82335714Y-98574664D02*
X82383333Y-98765140D01*
X82383333Y-98765140D02*
X82383333Y-98907997D01*
X82383333Y-98907997D02*
X82335714Y-99098473D01*
X82335714Y-99098473D02*
X82288095Y-99193711D01*
X82288095Y-99193711D02*
X82192857Y-99288950D01*
X82192857Y-99288950D02*
X82050000Y-99336569D01*
X82050000Y-99336569D02*
X81811905Y-99336569D01*
X83288095Y-98336569D02*
X82811905Y-98336569D01*
X82811905Y-98336569D02*
X82764286Y-98812759D01*
X82764286Y-98812759D02*
X82811905Y-98765140D01*
X82811905Y-98765140D02*
X82907143Y-98717521D01*
X82907143Y-98717521D02*
X83145238Y-98717521D01*
X83145238Y-98717521D02*
X83240476Y-98765140D01*
X83240476Y-98765140D02*
X83288095Y-98812759D01*
X83288095Y-98812759D02*
X83335714Y-98907997D01*
X83335714Y-98907997D02*
X83335714Y-99146092D01*
X83335714Y-99146092D02*
X83288095Y-99241330D01*
X83288095Y-99241330D02*
X83240476Y-99288950D01*
X83240476Y-99288950D02*
X83145238Y-99336569D01*
X83145238Y-99336569D02*
X82907143Y-99336569D01*
X82907143Y-99336569D02*
X82811905Y-99288950D01*
X82811905Y-99288950D02*
X82764286Y-99241330D01*
X86891905Y-101876569D02*
X86891905Y-100876569D01*
X86891905Y-100876569D02*
X87130000Y-100876569D01*
X87130000Y-100876569D02*
X87272857Y-100924188D01*
X87272857Y-100924188D02*
X87368095Y-101019426D01*
X87368095Y-101019426D02*
X87415714Y-101114664D01*
X87415714Y-101114664D02*
X87463333Y-101305140D01*
X87463333Y-101305140D02*
X87463333Y-101447997D01*
X87463333Y-101447997D02*
X87415714Y-101638473D01*
X87415714Y-101638473D02*
X87368095Y-101733711D01*
X87368095Y-101733711D02*
X87272857Y-101828950D01*
X87272857Y-101828950D02*
X87130000Y-101876569D01*
X87130000Y-101876569D02*
X86891905Y-101876569D01*
X88320476Y-100876569D02*
X88130000Y-100876569D01*
X88130000Y-100876569D02*
X88034762Y-100924188D01*
X88034762Y-100924188D02*
X87987143Y-100971807D01*
X87987143Y-100971807D02*
X87891905Y-101114664D01*
X87891905Y-101114664D02*
X87844286Y-101305140D01*
X87844286Y-101305140D02*
X87844286Y-101686092D01*
X87844286Y-101686092D02*
X87891905Y-101781330D01*
X87891905Y-101781330D02*
X87939524Y-101828950D01*
X87939524Y-101828950D02*
X88034762Y-101876569D01*
X88034762Y-101876569D02*
X88225238Y-101876569D01*
X88225238Y-101876569D02*
X88320476Y-101828950D01*
X88320476Y-101828950D02*
X88368095Y-101781330D01*
X88368095Y-101781330D02*
X88415714Y-101686092D01*
X88415714Y-101686092D02*
X88415714Y-101447997D01*
X88415714Y-101447997D02*
X88368095Y-101352759D01*
X88368095Y-101352759D02*
X88320476Y-101305140D01*
X88320476Y-101305140D02*
X88225238Y-101257521D01*
X88225238Y-101257521D02*
X88034762Y-101257521D01*
X88034762Y-101257521D02*
X87939524Y-101305140D01*
X87939524Y-101305140D02*
X87891905Y-101352759D01*
X87891905Y-101352759D02*
X87844286Y-101447997D01*
X97028095Y-52794819D02*
X97028095Y-53604342D01*
X97028095Y-53604342D02*
X97075714Y-53699580D01*
X97075714Y-53699580D02*
X97123333Y-53747200D01*
X97123333Y-53747200D02*
X97218571Y-53794819D01*
X97218571Y-53794819D02*
X97409047Y-53794819D01*
X97409047Y-53794819D02*
X97504285Y-53747200D01*
X97504285Y-53747200D02*
X97551904Y-53699580D01*
X97551904Y-53699580D02*
X97599523Y-53604342D01*
X97599523Y-53604342D02*
X97599523Y-52794819D01*
X98504285Y-52794819D02*
X98313809Y-52794819D01*
X98313809Y-52794819D02*
X98218571Y-52842438D01*
X98218571Y-52842438D02*
X98170952Y-52890057D01*
X98170952Y-52890057D02*
X98075714Y-53032914D01*
X98075714Y-53032914D02*
X98028095Y-53223390D01*
X98028095Y-53223390D02*
X98028095Y-53604342D01*
X98028095Y-53604342D02*
X98075714Y-53699580D01*
X98075714Y-53699580D02*
X98123333Y-53747200D01*
X98123333Y-53747200D02*
X98218571Y-53794819D01*
X98218571Y-53794819D02*
X98409047Y-53794819D01*
X98409047Y-53794819D02*
X98504285Y-53747200D01*
X98504285Y-53747200D02*
X98551904Y-53699580D01*
X98551904Y-53699580D02*
X98599523Y-53604342D01*
X98599523Y-53604342D02*
X98599523Y-53366247D01*
X98599523Y-53366247D02*
X98551904Y-53271009D01*
X98551904Y-53271009D02*
X98504285Y-53223390D01*
X98504285Y-53223390D02*
X98409047Y-53175771D01*
X98409047Y-53175771D02*
X98218571Y-53175771D01*
X98218571Y-53175771D02*
X98123333Y-53223390D01*
X98123333Y-53223390D02*
X98075714Y-53271009D01*
X98075714Y-53271009D02*
X98028095Y-53366247D01*
X145249819Y-63833333D02*
X145964104Y-63833333D01*
X145964104Y-63833333D02*
X146106961Y-63880952D01*
X146106961Y-63880952D02*
X146202200Y-63976190D01*
X146202200Y-63976190D02*
X146249819Y-64119047D01*
X146249819Y-64119047D02*
X146249819Y-64214285D01*
X145345057Y-63404761D02*
X145297438Y-63357142D01*
X145297438Y-63357142D02*
X145249819Y-63261904D01*
X145249819Y-63261904D02*
X145249819Y-63023809D01*
X145249819Y-63023809D02*
X145297438Y-62928571D01*
X145297438Y-62928571D02*
X145345057Y-62880952D01*
X145345057Y-62880952D02*
X145440295Y-62833333D01*
X145440295Y-62833333D02*
X145535533Y-62833333D01*
X145535533Y-62833333D02*
X145678390Y-62880952D01*
X145678390Y-62880952D02*
X146249819Y-63452380D01*
X146249819Y-63452380D02*
X146249819Y-62833333D01*
X121753333Y-66399580D02*
X121705714Y-66447200D01*
X121705714Y-66447200D02*
X121562857Y-66494819D01*
X121562857Y-66494819D02*
X121467619Y-66494819D01*
X121467619Y-66494819D02*
X121324762Y-66447200D01*
X121324762Y-66447200D02*
X121229524Y-66351961D01*
X121229524Y-66351961D02*
X121181905Y-66256723D01*
X121181905Y-66256723D02*
X121134286Y-66066247D01*
X121134286Y-66066247D02*
X121134286Y-65923390D01*
X121134286Y-65923390D02*
X121181905Y-65732914D01*
X121181905Y-65732914D02*
X121229524Y-65637676D01*
X121229524Y-65637676D02*
X121324762Y-65542438D01*
X121324762Y-65542438D02*
X121467619Y-65494819D01*
X121467619Y-65494819D02*
X121562857Y-65494819D01*
X121562857Y-65494819D02*
X121705714Y-65542438D01*
X121705714Y-65542438D02*
X121753333Y-65590057D01*
X122229524Y-66494819D02*
X122420000Y-66494819D01*
X122420000Y-66494819D02*
X122515238Y-66447200D01*
X122515238Y-66447200D02*
X122562857Y-66399580D01*
X122562857Y-66399580D02*
X122658095Y-66256723D01*
X122658095Y-66256723D02*
X122705714Y-66066247D01*
X122705714Y-66066247D02*
X122705714Y-65685295D01*
X122705714Y-65685295D02*
X122658095Y-65590057D01*
X122658095Y-65590057D02*
X122610476Y-65542438D01*
X122610476Y-65542438D02*
X122515238Y-65494819D01*
X122515238Y-65494819D02*
X122324762Y-65494819D01*
X122324762Y-65494819D02*
X122229524Y-65542438D01*
X122229524Y-65542438D02*
X122181905Y-65590057D01*
X122181905Y-65590057D02*
X122134286Y-65685295D01*
X122134286Y-65685295D02*
X122134286Y-65923390D01*
X122134286Y-65923390D02*
X122181905Y-66018628D01*
X122181905Y-66018628D02*
X122229524Y-66066247D01*
X122229524Y-66066247D02*
X122324762Y-66113866D01*
X122324762Y-66113866D02*
X122515238Y-66113866D01*
X122515238Y-66113866D02*
X122610476Y-66066247D01*
X122610476Y-66066247D02*
X122658095Y-66018628D01*
X122658095Y-66018628D02*
X122705714Y-65923390D01*
X104594819Y-108592857D02*
X104118628Y-108926190D01*
X104594819Y-109164285D02*
X103594819Y-109164285D01*
X103594819Y-109164285D02*
X103594819Y-108783333D01*
X103594819Y-108783333D02*
X103642438Y-108688095D01*
X103642438Y-108688095D02*
X103690057Y-108640476D01*
X103690057Y-108640476D02*
X103785295Y-108592857D01*
X103785295Y-108592857D02*
X103928152Y-108592857D01*
X103928152Y-108592857D02*
X104023390Y-108640476D01*
X104023390Y-108640476D02*
X104071009Y-108688095D01*
X104071009Y-108688095D02*
X104118628Y-108783333D01*
X104118628Y-108783333D02*
X104118628Y-109164285D01*
X103594819Y-108259523D02*
X103594819Y-107640476D01*
X103594819Y-107640476D02*
X103975771Y-107973809D01*
X103975771Y-107973809D02*
X103975771Y-107830952D01*
X103975771Y-107830952D02*
X104023390Y-107735714D01*
X104023390Y-107735714D02*
X104071009Y-107688095D01*
X104071009Y-107688095D02*
X104166247Y-107640476D01*
X104166247Y-107640476D02*
X104404342Y-107640476D01*
X104404342Y-107640476D02*
X104499580Y-107688095D01*
X104499580Y-107688095D02*
X104547200Y-107735714D01*
X104547200Y-107735714D02*
X104594819Y-107830952D01*
X104594819Y-107830952D02*
X104594819Y-108116666D01*
X104594819Y-108116666D02*
X104547200Y-108211904D01*
X104547200Y-108211904D02*
X104499580Y-108259523D01*
X103594819Y-107021428D02*
X103594819Y-106926190D01*
X103594819Y-106926190D02*
X103642438Y-106830952D01*
X103642438Y-106830952D02*
X103690057Y-106783333D01*
X103690057Y-106783333D02*
X103785295Y-106735714D01*
X103785295Y-106735714D02*
X103975771Y-106688095D01*
X103975771Y-106688095D02*
X104213866Y-106688095D01*
X104213866Y-106688095D02*
X104404342Y-106735714D01*
X104404342Y-106735714D02*
X104499580Y-106783333D01*
X104499580Y-106783333D02*
X104547200Y-106830952D01*
X104547200Y-106830952D02*
X104594819Y-106926190D01*
X104594819Y-106926190D02*
X104594819Y-107021428D01*
X104594819Y-107021428D02*
X104547200Y-107116666D01*
X104547200Y-107116666D02*
X104499580Y-107164285D01*
X104499580Y-107164285D02*
X104404342Y-107211904D01*
X104404342Y-107211904D02*
X104213866Y-107259523D01*
X104213866Y-107259523D02*
X103975771Y-107259523D01*
X103975771Y-107259523D02*
X103785295Y-107211904D01*
X103785295Y-107211904D02*
X103690057Y-107164285D01*
X103690057Y-107164285D02*
X103642438Y-107116666D01*
X103642438Y-107116666D02*
X103594819Y-107021428D01*
X73493333Y-135246569D02*
X73160000Y-134770378D01*
X72921905Y-135246569D02*
X72921905Y-134246569D01*
X72921905Y-134246569D02*
X73302857Y-134246569D01*
X73302857Y-134246569D02*
X73398095Y-134294188D01*
X73398095Y-134294188D02*
X73445714Y-134341807D01*
X73445714Y-134341807D02*
X73493333Y-134437045D01*
X73493333Y-134437045D02*
X73493333Y-134579902D01*
X73493333Y-134579902D02*
X73445714Y-134675140D01*
X73445714Y-134675140D02*
X73398095Y-134722759D01*
X73398095Y-134722759D02*
X73302857Y-134770378D01*
X73302857Y-134770378D02*
X72921905Y-134770378D01*
X74064762Y-134675140D02*
X73969524Y-134627521D01*
X73969524Y-134627521D02*
X73921905Y-134579902D01*
X73921905Y-134579902D02*
X73874286Y-134484664D01*
X73874286Y-134484664D02*
X73874286Y-134437045D01*
X73874286Y-134437045D02*
X73921905Y-134341807D01*
X73921905Y-134341807D02*
X73969524Y-134294188D01*
X73969524Y-134294188D02*
X74064762Y-134246569D01*
X74064762Y-134246569D02*
X74255238Y-134246569D01*
X74255238Y-134246569D02*
X74350476Y-134294188D01*
X74350476Y-134294188D02*
X74398095Y-134341807D01*
X74398095Y-134341807D02*
X74445714Y-134437045D01*
X74445714Y-134437045D02*
X74445714Y-134484664D01*
X74445714Y-134484664D02*
X74398095Y-134579902D01*
X74398095Y-134579902D02*
X74350476Y-134627521D01*
X74350476Y-134627521D02*
X74255238Y-134675140D01*
X74255238Y-134675140D02*
X74064762Y-134675140D01*
X74064762Y-134675140D02*
X73969524Y-134722759D01*
X73969524Y-134722759D02*
X73921905Y-134770378D01*
X73921905Y-134770378D02*
X73874286Y-134865616D01*
X73874286Y-134865616D02*
X73874286Y-135056092D01*
X73874286Y-135056092D02*
X73921905Y-135151330D01*
X73921905Y-135151330D02*
X73969524Y-135198950D01*
X73969524Y-135198950D02*
X74064762Y-135246569D01*
X74064762Y-135246569D02*
X74255238Y-135246569D01*
X74255238Y-135246569D02*
X74350476Y-135198950D01*
X74350476Y-135198950D02*
X74398095Y-135151330D01*
X74398095Y-135151330D02*
X74445714Y-135056092D01*
X74445714Y-135056092D02*
X74445714Y-134865616D01*
X74445714Y-134865616D02*
X74398095Y-134770378D01*
X74398095Y-134770378D02*
X74350476Y-134722759D01*
X74350476Y-134722759D02*
X74255238Y-134675140D01*
X113061905Y-89624819D02*
X113061905Y-90434342D01*
X113061905Y-90434342D02*
X113109524Y-90529580D01*
X113109524Y-90529580D02*
X113157143Y-90577200D01*
X113157143Y-90577200D02*
X113252381Y-90624819D01*
X113252381Y-90624819D02*
X113442857Y-90624819D01*
X113442857Y-90624819D02*
X113538095Y-90577200D01*
X113538095Y-90577200D02*
X113585714Y-90529580D01*
X113585714Y-90529580D02*
X113633333Y-90434342D01*
X113633333Y-90434342D02*
X113633333Y-89624819D01*
X114633333Y-90624819D02*
X114061905Y-90624819D01*
X114347619Y-90624819D02*
X114347619Y-89624819D01*
X114347619Y-89624819D02*
X114252381Y-89767676D01*
X114252381Y-89767676D02*
X114157143Y-89862914D01*
X114157143Y-89862914D02*
X114061905Y-89910533D01*
X115490476Y-89958152D02*
X115490476Y-90624819D01*
X115252381Y-89577200D02*
X115014286Y-90291485D01*
X115014286Y-90291485D02*
X115633333Y-90291485D01*
X117527142Y-114659580D02*
X117479523Y-114707200D01*
X117479523Y-114707200D02*
X117336666Y-114754819D01*
X117336666Y-114754819D02*
X117241428Y-114754819D01*
X117241428Y-114754819D02*
X117098571Y-114707200D01*
X117098571Y-114707200D02*
X117003333Y-114611961D01*
X117003333Y-114611961D02*
X116955714Y-114516723D01*
X116955714Y-114516723D02*
X116908095Y-114326247D01*
X116908095Y-114326247D02*
X116908095Y-114183390D01*
X116908095Y-114183390D02*
X116955714Y-113992914D01*
X116955714Y-113992914D02*
X117003333Y-113897676D01*
X117003333Y-113897676D02*
X117098571Y-113802438D01*
X117098571Y-113802438D02*
X117241428Y-113754819D01*
X117241428Y-113754819D02*
X117336666Y-113754819D01*
X117336666Y-113754819D02*
X117479523Y-113802438D01*
X117479523Y-113802438D02*
X117527142Y-113850057D01*
X118479523Y-114754819D02*
X117908095Y-114754819D01*
X118193809Y-114754819D02*
X118193809Y-113754819D01*
X118193809Y-113754819D02*
X118098571Y-113897676D01*
X118098571Y-113897676D02*
X118003333Y-113992914D01*
X118003333Y-113992914D02*
X117908095Y-114040533D01*
X118860476Y-113850057D02*
X118908095Y-113802438D01*
X118908095Y-113802438D02*
X119003333Y-113754819D01*
X119003333Y-113754819D02*
X119241428Y-113754819D01*
X119241428Y-113754819D02*
X119336666Y-113802438D01*
X119336666Y-113802438D02*
X119384285Y-113850057D01*
X119384285Y-113850057D02*
X119431904Y-113945295D01*
X119431904Y-113945295D02*
X119431904Y-114040533D01*
X119431904Y-114040533D02*
X119384285Y-114183390D01*
X119384285Y-114183390D02*
X118812857Y-114754819D01*
X118812857Y-114754819D02*
X119431904Y-114754819D01*
X135484819Y-123134285D02*
X134484819Y-123134285D01*
X134484819Y-123134285D02*
X134484819Y-122896190D01*
X134484819Y-122896190D02*
X134532438Y-122753333D01*
X134532438Y-122753333D02*
X134627676Y-122658095D01*
X134627676Y-122658095D02*
X134722914Y-122610476D01*
X134722914Y-122610476D02*
X134913390Y-122562857D01*
X134913390Y-122562857D02*
X135056247Y-122562857D01*
X135056247Y-122562857D02*
X135246723Y-122610476D01*
X135246723Y-122610476D02*
X135341961Y-122658095D01*
X135341961Y-122658095D02*
X135437200Y-122753333D01*
X135437200Y-122753333D02*
X135484819Y-122896190D01*
X135484819Y-122896190D02*
X135484819Y-123134285D01*
X134484819Y-122229523D02*
X134484819Y-121610476D01*
X134484819Y-121610476D02*
X134865771Y-121943809D01*
X134865771Y-121943809D02*
X134865771Y-121800952D01*
X134865771Y-121800952D02*
X134913390Y-121705714D01*
X134913390Y-121705714D02*
X134961009Y-121658095D01*
X134961009Y-121658095D02*
X135056247Y-121610476D01*
X135056247Y-121610476D02*
X135294342Y-121610476D01*
X135294342Y-121610476D02*
X135389580Y-121658095D01*
X135389580Y-121658095D02*
X135437200Y-121705714D01*
X135437200Y-121705714D02*
X135484819Y-121800952D01*
X135484819Y-121800952D02*
X135484819Y-122086666D01*
X135484819Y-122086666D02*
X135437200Y-122181904D01*
X135437200Y-122181904D02*
X135389580Y-122229523D01*
X134484819Y-120991428D02*
X134484819Y-120896190D01*
X134484819Y-120896190D02*
X134532438Y-120800952D01*
X134532438Y-120800952D02*
X134580057Y-120753333D01*
X134580057Y-120753333D02*
X134675295Y-120705714D01*
X134675295Y-120705714D02*
X134865771Y-120658095D01*
X134865771Y-120658095D02*
X135103866Y-120658095D01*
X135103866Y-120658095D02*
X135294342Y-120705714D01*
X135294342Y-120705714D02*
X135389580Y-120753333D01*
X135389580Y-120753333D02*
X135437200Y-120800952D01*
X135437200Y-120800952D02*
X135484819Y-120896190D01*
X135484819Y-120896190D02*
X135484819Y-120991428D01*
X135484819Y-120991428D02*
X135437200Y-121086666D01*
X135437200Y-121086666D02*
X135389580Y-121134285D01*
X135389580Y-121134285D02*
X135294342Y-121181904D01*
X135294342Y-121181904D02*
X135103866Y-121229523D01*
X135103866Y-121229523D02*
X134865771Y-121229523D01*
X134865771Y-121229523D02*
X134675295Y-121181904D01*
X134675295Y-121181904D02*
X134580057Y-121134285D01*
X134580057Y-121134285D02*
X134532438Y-121086666D01*
X134532438Y-121086666D02*
X134484819Y-120991428D01*
X127034819Y-118054285D02*
X126034819Y-118054285D01*
X126034819Y-118054285D02*
X126034819Y-117816190D01*
X126034819Y-117816190D02*
X126082438Y-117673333D01*
X126082438Y-117673333D02*
X126177676Y-117578095D01*
X126177676Y-117578095D02*
X126272914Y-117530476D01*
X126272914Y-117530476D02*
X126463390Y-117482857D01*
X126463390Y-117482857D02*
X126606247Y-117482857D01*
X126606247Y-117482857D02*
X126796723Y-117530476D01*
X126796723Y-117530476D02*
X126891961Y-117578095D01*
X126891961Y-117578095D02*
X126987200Y-117673333D01*
X126987200Y-117673333D02*
X127034819Y-117816190D01*
X127034819Y-117816190D02*
X127034819Y-118054285D01*
X126034819Y-117149523D02*
X126034819Y-116530476D01*
X126034819Y-116530476D02*
X126415771Y-116863809D01*
X126415771Y-116863809D02*
X126415771Y-116720952D01*
X126415771Y-116720952D02*
X126463390Y-116625714D01*
X126463390Y-116625714D02*
X126511009Y-116578095D01*
X126511009Y-116578095D02*
X126606247Y-116530476D01*
X126606247Y-116530476D02*
X126844342Y-116530476D01*
X126844342Y-116530476D02*
X126939580Y-116578095D01*
X126939580Y-116578095D02*
X126987200Y-116625714D01*
X126987200Y-116625714D02*
X127034819Y-116720952D01*
X127034819Y-116720952D02*
X127034819Y-117006666D01*
X127034819Y-117006666D02*
X126987200Y-117101904D01*
X126987200Y-117101904D02*
X126939580Y-117149523D01*
X127034819Y-115578095D02*
X127034819Y-116149523D01*
X127034819Y-115863809D02*
X126034819Y-115863809D01*
X126034819Y-115863809D02*
X126177676Y-115959047D01*
X126177676Y-115959047D02*
X126272914Y-116054285D01*
X126272914Y-116054285D02*
X126320533Y-116149523D01*
X89354819Y-71762857D02*
X88878628Y-72096190D01*
X89354819Y-72334285D02*
X88354819Y-72334285D01*
X88354819Y-72334285D02*
X88354819Y-71953333D01*
X88354819Y-71953333D02*
X88402438Y-71858095D01*
X88402438Y-71858095D02*
X88450057Y-71810476D01*
X88450057Y-71810476D02*
X88545295Y-71762857D01*
X88545295Y-71762857D02*
X88688152Y-71762857D01*
X88688152Y-71762857D02*
X88783390Y-71810476D01*
X88783390Y-71810476D02*
X88831009Y-71858095D01*
X88831009Y-71858095D02*
X88878628Y-71953333D01*
X88878628Y-71953333D02*
X88878628Y-72334285D01*
X89354819Y-70810476D02*
X89354819Y-71381904D01*
X89354819Y-71096190D02*
X88354819Y-71096190D01*
X88354819Y-71096190D02*
X88497676Y-71191428D01*
X88497676Y-71191428D02*
X88592914Y-71286666D01*
X88592914Y-71286666D02*
X88640533Y-71381904D01*
X89354819Y-69858095D02*
X89354819Y-70429523D01*
X89354819Y-70143809D02*
X88354819Y-70143809D01*
X88354819Y-70143809D02*
X88497676Y-70239047D01*
X88497676Y-70239047D02*
X88592914Y-70334285D01*
X88592914Y-70334285D02*
X88640533Y-70429523D01*
X72898095Y-124086569D02*
X72898095Y-124896092D01*
X72898095Y-124896092D02*
X72945714Y-124991330D01*
X72945714Y-124991330D02*
X72993333Y-125038950D01*
X72993333Y-125038950D02*
X73088571Y-125086569D01*
X73088571Y-125086569D02*
X73279047Y-125086569D01*
X73279047Y-125086569D02*
X73374285Y-125038950D01*
X73374285Y-125038950D02*
X73421904Y-124991330D01*
X73421904Y-124991330D02*
X73469523Y-124896092D01*
X73469523Y-124896092D02*
X73469523Y-124086569D01*
X74469523Y-125086569D02*
X73898095Y-125086569D01*
X74183809Y-125086569D02*
X74183809Y-124086569D01*
X74183809Y-124086569D02*
X74088571Y-124229426D01*
X74088571Y-124229426D02*
X73993333Y-124324664D01*
X73993333Y-124324664D02*
X73898095Y-124372283D01*
X62003333Y-118641330D02*
X61955714Y-118688950D01*
X61955714Y-118688950D02*
X61812857Y-118736569D01*
X61812857Y-118736569D02*
X61717619Y-118736569D01*
X61717619Y-118736569D02*
X61574762Y-118688950D01*
X61574762Y-118688950D02*
X61479524Y-118593711D01*
X61479524Y-118593711D02*
X61431905Y-118498473D01*
X61431905Y-118498473D02*
X61384286Y-118307997D01*
X61384286Y-118307997D02*
X61384286Y-118165140D01*
X61384286Y-118165140D02*
X61431905Y-117974664D01*
X61431905Y-117974664D02*
X61479524Y-117879426D01*
X61479524Y-117879426D02*
X61574762Y-117784188D01*
X61574762Y-117784188D02*
X61717619Y-117736569D01*
X61717619Y-117736569D02*
X61812857Y-117736569D01*
X61812857Y-117736569D02*
X61955714Y-117784188D01*
X61955714Y-117784188D02*
X62003333Y-117831807D01*
X62908095Y-117736569D02*
X62431905Y-117736569D01*
X62431905Y-117736569D02*
X62384286Y-118212759D01*
X62384286Y-118212759D02*
X62431905Y-118165140D01*
X62431905Y-118165140D02*
X62527143Y-118117521D01*
X62527143Y-118117521D02*
X62765238Y-118117521D01*
X62765238Y-118117521D02*
X62860476Y-118165140D01*
X62860476Y-118165140D02*
X62908095Y-118212759D01*
X62908095Y-118212759D02*
X62955714Y-118307997D01*
X62955714Y-118307997D02*
X62955714Y-118546092D01*
X62955714Y-118546092D02*
X62908095Y-118641330D01*
X62908095Y-118641330D02*
X62860476Y-118688950D01*
X62860476Y-118688950D02*
X62765238Y-118736569D01*
X62765238Y-118736569D02*
X62527143Y-118736569D01*
X62527143Y-118736569D02*
X62431905Y-118688950D01*
X62431905Y-118688950D02*
X62384286Y-118641330D01*
X58874819Y-71762857D02*
X58398628Y-72096190D01*
X58874819Y-72334285D02*
X57874819Y-72334285D01*
X57874819Y-72334285D02*
X57874819Y-71953333D01*
X57874819Y-71953333D02*
X57922438Y-71858095D01*
X57922438Y-71858095D02*
X57970057Y-71810476D01*
X57970057Y-71810476D02*
X58065295Y-71762857D01*
X58065295Y-71762857D02*
X58208152Y-71762857D01*
X58208152Y-71762857D02*
X58303390Y-71810476D01*
X58303390Y-71810476D02*
X58351009Y-71858095D01*
X58351009Y-71858095D02*
X58398628Y-71953333D01*
X58398628Y-71953333D02*
X58398628Y-72334285D01*
X58874819Y-70810476D02*
X58874819Y-71381904D01*
X58874819Y-71096190D02*
X57874819Y-71096190D01*
X57874819Y-71096190D02*
X58017676Y-71191428D01*
X58017676Y-71191428D02*
X58112914Y-71286666D01*
X58112914Y-71286666D02*
X58160533Y-71381904D01*
X57874819Y-69905714D02*
X57874819Y-70381904D01*
X57874819Y-70381904D02*
X58351009Y-70429523D01*
X58351009Y-70429523D02*
X58303390Y-70381904D01*
X58303390Y-70381904D02*
X58255771Y-70286666D01*
X58255771Y-70286666D02*
X58255771Y-70048571D01*
X58255771Y-70048571D02*
X58303390Y-69953333D01*
X58303390Y-69953333D02*
X58351009Y-69905714D01*
X58351009Y-69905714D02*
X58446247Y-69858095D01*
X58446247Y-69858095D02*
X58684342Y-69858095D01*
X58684342Y-69858095D02*
X58779580Y-69905714D01*
X58779580Y-69905714D02*
X58827200Y-69953333D01*
X58827200Y-69953333D02*
X58874819Y-70048571D01*
X58874819Y-70048571D02*
X58874819Y-70286666D01*
X58874819Y-70286666D02*
X58827200Y-70381904D01*
X58827200Y-70381904D02*
X58779580Y-70429523D01*
X92234819Y-86208625D02*
X91234819Y-86208625D01*
X91234819Y-86208625D02*
X91234819Y-85970530D01*
X91234819Y-85970530D02*
X91282438Y-85827673D01*
X91282438Y-85827673D02*
X91377676Y-85732435D01*
X91377676Y-85732435D02*
X91472914Y-85684816D01*
X91472914Y-85684816D02*
X91663390Y-85637197D01*
X91663390Y-85637197D02*
X91806247Y-85637197D01*
X91806247Y-85637197D02*
X91996723Y-85684816D01*
X91996723Y-85684816D02*
X92091961Y-85732435D01*
X92091961Y-85732435D02*
X92187200Y-85827673D01*
X92187200Y-85827673D02*
X92234819Y-85970530D01*
X92234819Y-85970530D02*
X92234819Y-86208625D01*
X92234819Y-84684816D02*
X92234819Y-85256244D01*
X92234819Y-84970530D02*
X91234819Y-84970530D01*
X91234819Y-84970530D02*
X91377676Y-85065768D01*
X91377676Y-85065768D02*
X91472914Y-85161006D01*
X91472914Y-85161006D02*
X91520533Y-85256244D01*
X91568152Y-83827673D02*
X92234819Y-83827673D01*
X91187200Y-84065768D02*
X91901485Y-84303863D01*
X91901485Y-84303863D02*
X91901485Y-83684816D01*
X81666666Y-75454819D02*
X81666666Y-76169104D01*
X81666666Y-76169104D02*
X81619047Y-76311961D01*
X81619047Y-76311961D02*
X81523809Y-76407200D01*
X81523809Y-76407200D02*
X81380952Y-76454819D01*
X81380952Y-76454819D02*
X81285714Y-76454819D01*
X82619047Y-75454819D02*
X82142857Y-75454819D01*
X82142857Y-75454819D02*
X82095238Y-75931009D01*
X82095238Y-75931009D02*
X82142857Y-75883390D01*
X82142857Y-75883390D02*
X82238095Y-75835771D01*
X82238095Y-75835771D02*
X82476190Y-75835771D01*
X82476190Y-75835771D02*
X82571428Y-75883390D01*
X82571428Y-75883390D02*
X82619047Y-75931009D01*
X82619047Y-75931009D02*
X82666666Y-76026247D01*
X82666666Y-76026247D02*
X82666666Y-76264342D01*
X82666666Y-76264342D02*
X82619047Y-76359580D01*
X82619047Y-76359580D02*
X82571428Y-76407200D01*
X82571428Y-76407200D02*
X82476190Y-76454819D01*
X82476190Y-76454819D02*
X82238095Y-76454819D01*
X82238095Y-76454819D02*
X82142857Y-76407200D01*
X82142857Y-76407200D02*
X82095238Y-76359580D01*
X133804819Y-73032857D02*
X133328628Y-73366190D01*
X133804819Y-73604285D02*
X132804819Y-73604285D01*
X132804819Y-73604285D02*
X132804819Y-73223333D01*
X132804819Y-73223333D02*
X132852438Y-73128095D01*
X132852438Y-73128095D02*
X132900057Y-73080476D01*
X132900057Y-73080476D02*
X132995295Y-73032857D01*
X132995295Y-73032857D02*
X133138152Y-73032857D01*
X133138152Y-73032857D02*
X133233390Y-73080476D01*
X133233390Y-73080476D02*
X133281009Y-73128095D01*
X133281009Y-73128095D02*
X133328628Y-73223333D01*
X133328628Y-73223333D02*
X133328628Y-73604285D01*
X132900057Y-72651904D02*
X132852438Y-72604285D01*
X132852438Y-72604285D02*
X132804819Y-72509047D01*
X132804819Y-72509047D02*
X132804819Y-72270952D01*
X132804819Y-72270952D02*
X132852438Y-72175714D01*
X132852438Y-72175714D02*
X132900057Y-72128095D01*
X132900057Y-72128095D02*
X132995295Y-72080476D01*
X132995295Y-72080476D02*
X133090533Y-72080476D01*
X133090533Y-72080476D02*
X133233390Y-72128095D01*
X133233390Y-72128095D02*
X133804819Y-72699523D01*
X133804819Y-72699523D02*
X133804819Y-72080476D01*
X133804819Y-71128095D02*
X133804819Y-71699523D01*
X133804819Y-71413809D02*
X132804819Y-71413809D01*
X132804819Y-71413809D02*
X132947676Y-71509047D01*
X132947676Y-71509047D02*
X133042914Y-71604285D01*
X133042914Y-71604285D02*
X133090533Y-71699523D01*
X105499819Y-59634285D02*
X104499819Y-59634285D01*
X104499819Y-59634285D02*
X104499819Y-59396190D01*
X104499819Y-59396190D02*
X104547438Y-59253333D01*
X104547438Y-59253333D02*
X104642676Y-59158095D01*
X104642676Y-59158095D02*
X104737914Y-59110476D01*
X104737914Y-59110476D02*
X104928390Y-59062857D01*
X104928390Y-59062857D02*
X105071247Y-59062857D01*
X105071247Y-59062857D02*
X105261723Y-59110476D01*
X105261723Y-59110476D02*
X105356961Y-59158095D01*
X105356961Y-59158095D02*
X105452200Y-59253333D01*
X105452200Y-59253333D02*
X105499819Y-59396190D01*
X105499819Y-59396190D02*
X105499819Y-59634285D01*
X104595057Y-58681904D02*
X104547438Y-58634285D01*
X104547438Y-58634285D02*
X104499819Y-58539047D01*
X104499819Y-58539047D02*
X104499819Y-58300952D01*
X104499819Y-58300952D02*
X104547438Y-58205714D01*
X104547438Y-58205714D02*
X104595057Y-58158095D01*
X104595057Y-58158095D02*
X104690295Y-58110476D01*
X104690295Y-58110476D02*
X104785533Y-58110476D01*
X104785533Y-58110476D02*
X104928390Y-58158095D01*
X104928390Y-58158095D02*
X105499819Y-58729523D01*
X105499819Y-58729523D02*
X105499819Y-58110476D01*
X104595057Y-57729523D02*
X104547438Y-57681904D01*
X104547438Y-57681904D02*
X104499819Y-57586666D01*
X104499819Y-57586666D02*
X104499819Y-57348571D01*
X104499819Y-57348571D02*
X104547438Y-57253333D01*
X104547438Y-57253333D02*
X104595057Y-57205714D01*
X104595057Y-57205714D02*
X104690295Y-57158095D01*
X104690295Y-57158095D02*
X104785533Y-57158095D01*
X104785533Y-57158095D02*
X104928390Y-57205714D01*
X104928390Y-57205714D02*
X105499819Y-57777142D01*
X105499819Y-57777142D02*
X105499819Y-57158095D01*
X111454819Y-123238094D02*
X112264342Y-123238094D01*
X112264342Y-123238094D02*
X112359580Y-123190475D01*
X112359580Y-123190475D02*
X112407200Y-123142856D01*
X112407200Y-123142856D02*
X112454819Y-123047618D01*
X112454819Y-123047618D02*
X112454819Y-122857142D01*
X112454819Y-122857142D02*
X112407200Y-122761904D01*
X112407200Y-122761904D02*
X112359580Y-122714285D01*
X112359580Y-122714285D02*
X112264342Y-122666666D01*
X112264342Y-122666666D02*
X111454819Y-122666666D01*
X112454819Y-121666666D02*
X112454819Y-122238094D01*
X112454819Y-121952380D02*
X111454819Y-121952380D01*
X111454819Y-121952380D02*
X111597676Y-122047618D01*
X111597676Y-122047618D02*
X111692914Y-122142856D01*
X111692914Y-122142856D02*
X111740533Y-122238094D01*
X112454819Y-120714285D02*
X112454819Y-121285713D01*
X112454819Y-120999999D02*
X111454819Y-120999999D01*
X111454819Y-120999999D02*
X111597676Y-121095237D01*
X111597676Y-121095237D02*
X111692914Y-121190475D01*
X111692914Y-121190475D02*
X111740533Y-121285713D01*
X130999819Y-59634285D02*
X129999819Y-59634285D01*
X129999819Y-59634285D02*
X129999819Y-59396190D01*
X129999819Y-59396190D02*
X130047438Y-59253333D01*
X130047438Y-59253333D02*
X130142676Y-59158095D01*
X130142676Y-59158095D02*
X130237914Y-59110476D01*
X130237914Y-59110476D02*
X130428390Y-59062857D01*
X130428390Y-59062857D02*
X130571247Y-59062857D01*
X130571247Y-59062857D02*
X130761723Y-59110476D01*
X130761723Y-59110476D02*
X130856961Y-59158095D01*
X130856961Y-59158095D02*
X130952200Y-59253333D01*
X130952200Y-59253333D02*
X130999819Y-59396190D01*
X130999819Y-59396190D02*
X130999819Y-59634285D01*
X130095057Y-58681904D02*
X130047438Y-58634285D01*
X130047438Y-58634285D02*
X129999819Y-58539047D01*
X129999819Y-58539047D02*
X129999819Y-58300952D01*
X129999819Y-58300952D02*
X130047438Y-58205714D01*
X130047438Y-58205714D02*
X130095057Y-58158095D01*
X130095057Y-58158095D02*
X130190295Y-58110476D01*
X130190295Y-58110476D02*
X130285533Y-58110476D01*
X130285533Y-58110476D02*
X130428390Y-58158095D01*
X130428390Y-58158095D02*
X130999819Y-58729523D01*
X130999819Y-58729523D02*
X130999819Y-58110476D01*
X129999819Y-57253333D02*
X129999819Y-57443809D01*
X129999819Y-57443809D02*
X130047438Y-57539047D01*
X130047438Y-57539047D02*
X130095057Y-57586666D01*
X130095057Y-57586666D02*
X130237914Y-57681904D01*
X130237914Y-57681904D02*
X130428390Y-57729523D01*
X130428390Y-57729523D02*
X130809342Y-57729523D01*
X130809342Y-57729523D02*
X130904580Y-57681904D01*
X130904580Y-57681904D02*
X130952200Y-57634285D01*
X130952200Y-57634285D02*
X130999819Y-57539047D01*
X130999819Y-57539047D02*
X130999819Y-57348571D01*
X130999819Y-57348571D02*
X130952200Y-57253333D01*
X130952200Y-57253333D02*
X130904580Y-57205714D01*
X130904580Y-57205714D02*
X130809342Y-57158095D01*
X130809342Y-57158095D02*
X130571247Y-57158095D01*
X130571247Y-57158095D02*
X130476009Y-57205714D01*
X130476009Y-57205714D02*
X130428390Y-57253333D01*
X130428390Y-57253333D02*
X130380771Y-57348571D01*
X130380771Y-57348571D02*
X130380771Y-57539047D01*
X130380771Y-57539047D02*
X130428390Y-57634285D01*
X130428390Y-57634285D02*
X130476009Y-57681904D01*
X130476009Y-57681904D02*
X130571247Y-57729523D01*
X81330714Y-135416569D02*
X81330714Y-134416569D01*
X81330714Y-134416569D02*
X81568809Y-134416569D01*
X81568809Y-134416569D02*
X81711666Y-134464188D01*
X81711666Y-134464188D02*
X81806904Y-134559426D01*
X81806904Y-134559426D02*
X81854523Y-134654664D01*
X81854523Y-134654664D02*
X81902142Y-134845140D01*
X81902142Y-134845140D02*
X81902142Y-134987997D01*
X81902142Y-134987997D02*
X81854523Y-135178473D01*
X81854523Y-135178473D02*
X81806904Y-135273711D01*
X81806904Y-135273711D02*
X81711666Y-135368950D01*
X81711666Y-135368950D02*
X81568809Y-135416569D01*
X81568809Y-135416569D02*
X81330714Y-135416569D01*
X82854523Y-135416569D02*
X82283095Y-135416569D01*
X82568809Y-135416569D02*
X82568809Y-134416569D01*
X82568809Y-134416569D02*
X82473571Y-134559426D01*
X82473571Y-134559426D02*
X82378333Y-134654664D01*
X82378333Y-134654664D02*
X82283095Y-134702283D01*
X83806904Y-135416569D02*
X83235476Y-135416569D01*
X83521190Y-135416569D02*
X83521190Y-134416569D01*
X83521190Y-134416569D02*
X83425952Y-134559426D01*
X83425952Y-134559426D02*
X83330714Y-134654664D01*
X83330714Y-134654664D02*
X83235476Y-134702283D01*
X116444819Y-59634285D02*
X115444819Y-59634285D01*
X115444819Y-59634285D02*
X115444819Y-59396190D01*
X115444819Y-59396190D02*
X115492438Y-59253333D01*
X115492438Y-59253333D02*
X115587676Y-59158095D01*
X115587676Y-59158095D02*
X115682914Y-59110476D01*
X115682914Y-59110476D02*
X115873390Y-59062857D01*
X115873390Y-59062857D02*
X116016247Y-59062857D01*
X116016247Y-59062857D02*
X116206723Y-59110476D01*
X116206723Y-59110476D02*
X116301961Y-59158095D01*
X116301961Y-59158095D02*
X116397200Y-59253333D01*
X116397200Y-59253333D02*
X116444819Y-59396190D01*
X116444819Y-59396190D02*
X116444819Y-59634285D01*
X115540057Y-58681904D02*
X115492438Y-58634285D01*
X115492438Y-58634285D02*
X115444819Y-58539047D01*
X115444819Y-58539047D02*
X115444819Y-58300952D01*
X115444819Y-58300952D02*
X115492438Y-58205714D01*
X115492438Y-58205714D02*
X115540057Y-58158095D01*
X115540057Y-58158095D02*
X115635295Y-58110476D01*
X115635295Y-58110476D02*
X115730533Y-58110476D01*
X115730533Y-58110476D02*
X115873390Y-58158095D01*
X115873390Y-58158095D02*
X116444819Y-58729523D01*
X116444819Y-58729523D02*
X116444819Y-58110476D01*
X115778152Y-57253333D02*
X116444819Y-57253333D01*
X115397200Y-57491428D02*
X116111485Y-57729523D01*
X116111485Y-57729523D02*
X116111485Y-57110476D01*
X56334819Y-71762857D02*
X55858628Y-72096190D01*
X56334819Y-72334285D02*
X55334819Y-72334285D01*
X55334819Y-72334285D02*
X55334819Y-71953333D01*
X55334819Y-71953333D02*
X55382438Y-71858095D01*
X55382438Y-71858095D02*
X55430057Y-71810476D01*
X55430057Y-71810476D02*
X55525295Y-71762857D01*
X55525295Y-71762857D02*
X55668152Y-71762857D01*
X55668152Y-71762857D02*
X55763390Y-71810476D01*
X55763390Y-71810476D02*
X55811009Y-71858095D01*
X55811009Y-71858095D02*
X55858628Y-71953333D01*
X55858628Y-71953333D02*
X55858628Y-72334285D01*
X56334819Y-70810476D02*
X56334819Y-71381904D01*
X56334819Y-71096190D02*
X55334819Y-71096190D01*
X55334819Y-71096190D02*
X55477676Y-71191428D01*
X55477676Y-71191428D02*
X55572914Y-71286666D01*
X55572914Y-71286666D02*
X55620533Y-71381904D01*
X55334819Y-69953333D02*
X55334819Y-70143809D01*
X55334819Y-70143809D02*
X55382438Y-70239047D01*
X55382438Y-70239047D02*
X55430057Y-70286666D01*
X55430057Y-70286666D02*
X55572914Y-70381904D01*
X55572914Y-70381904D02*
X55763390Y-70429523D01*
X55763390Y-70429523D02*
X56144342Y-70429523D01*
X56144342Y-70429523D02*
X56239580Y-70381904D01*
X56239580Y-70381904D02*
X56287200Y-70334285D01*
X56287200Y-70334285D02*
X56334819Y-70239047D01*
X56334819Y-70239047D02*
X56334819Y-70048571D01*
X56334819Y-70048571D02*
X56287200Y-69953333D01*
X56287200Y-69953333D02*
X56239580Y-69905714D01*
X56239580Y-69905714D02*
X56144342Y-69858095D01*
X56144342Y-69858095D02*
X55906247Y-69858095D01*
X55906247Y-69858095D02*
X55811009Y-69905714D01*
X55811009Y-69905714D02*
X55763390Y-69953333D01*
X55763390Y-69953333D02*
X55715771Y-70048571D01*
X55715771Y-70048571D02*
X55715771Y-70239047D01*
X55715771Y-70239047D02*
X55763390Y-70334285D01*
X55763390Y-70334285D02*
X55811009Y-70381904D01*
X55811009Y-70381904D02*
X55906247Y-70429523D01*
D12*
%TO.C,D8*%
X89190000Y-108311750D02*
X89190000Y-108155750D01*
X89190000Y-110627750D02*
X89190000Y-110471750D01*
X85958563Y-108311750D02*
G75*
G02*
X89190000Y-108156234I1671437J-1080000D01*
G01*
X86589039Y-108311750D02*
G75*
G02*
X88670961Y-108311750I1040961J-1080000D01*
G01*
X88670961Y-110471750D02*
G75*
G02*
X86589039Y-110471750I-1040961J1080000D01*
G01*
X89190000Y-110627266D02*
G75*
G02*
X85958563Y-110471750I-1560000J1235516D01*
G01*
%TO.C,R24*%
X140970000Y-68350000D02*
X140970000Y-69120000D01*
X140970000Y-76430000D02*
X140970000Y-75660000D01*
X139600000Y-75660000D02*
X142340000Y-75660000D01*
X142340000Y-69120000D01*
X139600000Y-69120000D01*
X139600000Y-75660000D01*
%TO.C,R19*%
X107950000Y-68350000D02*
X107950000Y-69120000D01*
X107950000Y-76430000D02*
X107950000Y-75660000D01*
X106580000Y-75660000D02*
X109320000Y-75660000D01*
X109320000Y-69120000D01*
X106580000Y-69120000D01*
X106580000Y-75660000D01*
%TO.C,D10*%
X89190000Y-128631750D02*
X89190000Y-128475750D01*
X89190000Y-130947750D02*
X89190000Y-130791750D01*
X85958563Y-128631750D02*
G75*
G02*
X89190000Y-128476234I1671437J-1080000D01*
G01*
X86589039Y-128631750D02*
G75*
G02*
X88670961Y-128631750I1040961J-1080000D01*
G01*
X88670961Y-130791750D02*
G75*
G02*
X86589039Y-130791750I-1040961J1080000D01*
G01*
X89190000Y-130947266D02*
G75*
G02*
X85958563Y-130791750I-1560000J1235516D01*
G01*
%TO.C,C4*%
X57050000Y-91511750D02*
X67290000Y-91511750D01*
X57050000Y-94251750D02*
X57050000Y-91511750D01*
X67290000Y-91511750D02*
X67290000Y-94251750D01*
X67290000Y-94251750D02*
X57050000Y-94251750D01*
%TO.C,R10*%
X91440000Y-67080000D02*
X91440000Y-67850000D01*
X91440000Y-75160000D02*
X91440000Y-74390000D01*
X92810000Y-67850000D02*
X90070000Y-67850000D01*
X90070000Y-74390000D01*
X92810000Y-74390000D01*
X92810000Y-67850000D01*
%TO.C,U3*%
X59980000Y-95361750D02*
X59980000Y-115801750D01*
X59980000Y-115801750D02*
X64480000Y-115801750D01*
X61230000Y-95361750D02*
X59980000Y-95361750D01*
X64480000Y-95361750D02*
X63230000Y-95361750D01*
X64480000Y-115801750D02*
X64480000Y-95361750D01*
X63230000Y-95361750D02*
G75*
G02*
X61230000Y-95361750I-1000000J0D01*
G01*
%TO.C,R25*%
X137160000Y-103910000D02*
X137160000Y-104680000D01*
X137160000Y-111990000D02*
X137160000Y-111220000D01*
X138530000Y-104680000D02*
X135790000Y-104680000D01*
X135790000Y-111220000D01*
X138530000Y-111220000D01*
X138530000Y-104680000D01*
%TO.C,J4*%
X95140000Y-115460000D02*
X95140000Y-118220000D01*
X97790000Y-115460000D02*
X95140000Y-115460000D01*
X97790000Y-115460000D02*
X97790000Y-118220000D01*
X97790000Y-118220000D02*
X95140000Y-118220000D01*
X99060000Y-115460000D02*
X100440000Y-115460000D01*
X100440000Y-115460000D02*
X100440000Y-116840000D01*
%TO.C,D7*%
X84110000Y-105771750D02*
X84110000Y-105615750D01*
X84110000Y-108087750D02*
X84110000Y-107931750D01*
X80878563Y-105771750D02*
G75*
G02*
X84110000Y-105616234I1671437J-1080000D01*
G01*
X81509039Y-105771750D02*
G75*
G02*
X83590961Y-105771750I1040961J-1080000D01*
G01*
X83590961Y-107931750D02*
G75*
G02*
X81509039Y-107931750I-1040961J1080000D01*
G01*
X84110000Y-108087266D02*
G75*
G02*
X80878563Y-107931750I-1560000J1235516D01*
G01*
%TO.C,R12*%
X86360000Y-67080000D02*
X86360000Y-67850000D01*
X86360000Y-75160000D02*
X86360000Y-74390000D01*
X87730000Y-67850000D02*
X84990000Y-67850000D01*
X84990000Y-74390000D01*
X87730000Y-74390000D01*
X87730000Y-67850000D01*
%TO.C,R20*%
X110490000Y-68350000D02*
X110490000Y-69120000D01*
X110490000Y-76430000D02*
X110490000Y-75660000D01*
X109120000Y-75660000D02*
X111860000Y-75660000D01*
X111860000Y-69120000D01*
X109120000Y-69120000D01*
X109120000Y-75660000D01*
%TO.C,C8*%
X73560000Y-54510000D02*
X76300000Y-54510000D01*
X73560000Y-64750000D02*
X73560000Y-54510000D01*
X76300000Y-54510000D02*
X76300000Y-64750000D01*
X76300000Y-64750000D02*
X73560000Y-64750000D01*
%TO.C,J6*%
X112900000Y-68582500D02*
X130940000Y-68582500D01*
X112900000Y-77702500D02*
X112900000Y-68582500D01*
X114200000Y-69892500D02*
X129640000Y-69892500D01*
X114200000Y-76392500D02*
X114200000Y-69892500D01*
X117610000Y-79092500D02*
X118610000Y-79092500D01*
X118110000Y-78092500D02*
X117610000Y-79092500D01*
X118610000Y-79092500D02*
X118110000Y-78092500D01*
X119870000Y-76392500D02*
X114200000Y-76392500D01*
X119870000Y-77702500D02*
X119870000Y-76392500D01*
X123970000Y-76392500D02*
X123970000Y-77702500D01*
X129640000Y-69892500D02*
X129640000Y-76392500D01*
X129640000Y-76392500D02*
X123970000Y-76392500D01*
X130940000Y-68582500D02*
X130940000Y-77702500D01*
X130940000Y-77702500D02*
X112900000Y-77702500D01*
%TO.C,R14*%
X60960000Y-67080000D02*
X60960000Y-67850000D01*
X60960000Y-75160000D02*
X60960000Y-74390000D01*
X62330000Y-67850000D02*
X59590000Y-67850000D01*
X59590000Y-74390000D01*
X62330000Y-74390000D01*
X62330000Y-67850000D01*
%TO.C,D33*%
X107984000Y-118400000D02*
X108140000Y-118400000D01*
X110300000Y-118400000D02*
X110456000Y-118400000D01*
X107984484Y-118400000D02*
G75*
G02*
X108140000Y-115168563I1235516J1560000D01*
G01*
X108140000Y-117880961D02*
G75*
G02*
X108140000Y-115799039I1080000J1040961D01*
G01*
X110300000Y-115168563D02*
G75*
G02*
X110455516Y-118400000I-1080000J-1671437D01*
G01*
X110300000Y-115799039D02*
G75*
G02*
X110300000Y-117880961I-1080000J-1040961D01*
G01*
%TO.C,R2*%
X69620000Y-104311750D02*
X70390000Y-104311750D01*
X77700000Y-104311750D02*
X76930000Y-104311750D01*
X70390000Y-102941750D02*
X76930000Y-102941750D01*
X76930000Y-105681750D01*
X70390000Y-105681750D01*
X70390000Y-102941750D01*
%TO.C,D12*%
X89190000Y-133711750D02*
X89190000Y-133555750D01*
X89190000Y-136027750D02*
X89190000Y-135871750D01*
X85958563Y-133711750D02*
G75*
G02*
X89190000Y-133556234I1671437J-1080000D01*
G01*
X86589039Y-133711750D02*
G75*
G02*
X88670961Y-133711750I1040961J-1080000D01*
G01*
X88670961Y-135871750D02*
G75*
G02*
X86589039Y-135871750I-1040961J1080000D01*
G01*
X89190000Y-136027266D02*
G75*
G02*
X85958563Y-135871750I-1560000J1235516D01*
G01*
%TO.C,R3*%
X69620000Y-106851750D02*
X70390000Y-106851750D01*
X77700000Y-106851750D02*
X76930000Y-106851750D01*
X70390000Y-105481750D02*
X76930000Y-105481750D01*
X76930000Y-108221750D01*
X70390000Y-108221750D01*
X70390000Y-105481750D01*
%TO.C,D34*%
X104891699Y-123480000D02*
X105047699Y-123480000D01*
X107207699Y-123480000D02*
X107363699Y-123480000D01*
X104892183Y-123480000D02*
G75*
G02*
X105047699Y-120248563I1235516J1560000D01*
G01*
X105047699Y-122960961D02*
G75*
G02*
X105047699Y-120879039I1080000J1040961D01*
G01*
X107207699Y-120248563D02*
G75*
G02*
X107363215Y-123480000I-1080000J-1671437D01*
G01*
X107207699Y-120879039D02*
G75*
G02*
X107207699Y-122960961I-1080000J-1040961D01*
G01*
%TO.C,C13*%
X142140000Y-91340000D02*
X144880000Y-91340000D01*
X142140000Y-101580000D02*
X142140000Y-91340000D01*
X144880000Y-91340000D02*
X144880000Y-101580000D01*
X144880000Y-101580000D02*
X142140000Y-101580000D01*
%TO.C,C14*%
X116740000Y-91340000D02*
X119480000Y-91340000D01*
X116740000Y-101580000D02*
X116740000Y-91340000D01*
X119480000Y-91340000D02*
X119480000Y-101580000D01*
X119480000Y-101580000D02*
X116740000Y-101580000D01*
%TO.C,C11*%
X120550000Y-78760000D02*
X123290000Y-78760000D01*
X120550000Y-89000000D02*
X120550000Y-78760000D01*
X123290000Y-78760000D02*
X123290000Y-89000000D01*
X123290000Y-89000000D02*
X120550000Y-89000000D01*
%TO.C,J3*%
X81190000Y-135951750D02*
X82570000Y-135951750D01*
X81190000Y-137331750D02*
X81190000Y-135951750D01*
X81190000Y-138601750D02*
X81190000Y-141251750D01*
X81190000Y-138601750D02*
X83950000Y-138601750D01*
X81190000Y-141251750D02*
X83950000Y-141251750D01*
X83950000Y-138601750D02*
X83950000Y-141251750D01*
%TO.C,U12*%
X124400000Y-81570000D02*
X124400000Y-82820000D01*
X124400000Y-84820000D02*
X124400000Y-86070000D01*
X124400000Y-86070000D02*
X144840000Y-86070000D01*
X144840000Y-81570000D02*
X124400000Y-81570000D01*
X144840000Y-86070000D02*
X144840000Y-81570000D01*
X124400000Y-82820000D02*
G75*
G02*
X124400000Y-84820000I0J-1000000D01*
G01*
%TO.C,D16*%
X82584000Y-86650000D02*
X82740000Y-86650000D01*
X84900000Y-86650000D02*
X85056000Y-86650000D01*
X82584484Y-86650000D02*
G75*
G02*
X82740000Y-83418563I1235516J1560000D01*
G01*
X82740000Y-86130961D02*
G75*
G02*
X82740000Y-84049039I1080000J1040961D01*
G01*
X84900000Y-83418563D02*
G75*
G02*
X85055516Y-86650000I-1080000J-1671437D01*
G01*
X84900000Y-84049039D02*
G75*
G02*
X84900000Y-86130961I-1080000J-1040961D01*
G01*
%TO.C,D19*%
X59724000Y-81570000D02*
X59880000Y-81570000D01*
X62040000Y-81570000D02*
X62196000Y-81570000D01*
X59724484Y-81570000D02*
G75*
G02*
X59880000Y-78338563I1235516J1560000D01*
G01*
X59880000Y-81050961D02*
G75*
G02*
X59880000Y-78969039I1080000J1040961D01*
G01*
X62040000Y-78338563D02*
G75*
G02*
X62195516Y-81570000I-1080000J-1671437D01*
G01*
X62040000Y-78969039D02*
G75*
G02*
X62040000Y-81050961I-1080000J-1040961D01*
G01*
%TO.C,R31*%
X101600000Y-103910000D02*
X101600000Y-104680000D01*
X101600000Y-111990000D02*
X101600000Y-111220000D01*
X102970000Y-104680000D02*
X100230000Y-104680000D01*
X100230000Y-111220000D01*
X102970000Y-111220000D01*
X102970000Y-104680000D01*
%TO.C,U7*%
X119670000Y-45660000D02*
X119670000Y-63560000D01*
X119670000Y-63560000D02*
X120920000Y-63560000D01*
X122920000Y-63560000D02*
X124170000Y-63560000D01*
X124170000Y-45660000D02*
X119670000Y-45660000D01*
X124170000Y-63560000D02*
X124170000Y-45660000D01*
X120920000Y-63560000D02*
G75*
G02*
X122920000Y-63560000I1000000J0D01*
G01*
%TO.C,D28*%
X137350000Y-56860000D02*
X137194000Y-56860000D01*
X139666000Y-56860000D02*
X139510000Y-56860000D01*
X137350000Y-59460961D02*
G75*
G02*
X137350000Y-57379039I1080000J1040961D01*
G01*
X137350000Y-60091437D02*
G75*
G02*
X137194484Y-56860000I1080000J1671437D01*
G01*
X139510000Y-57379039D02*
G75*
G02*
X139510000Y-59460961I-1080000J-1040961D01*
G01*
X139665516Y-56860000D02*
G75*
G02*
X139510000Y-60091437I-1235516J-1560000D01*
G01*
%TO.C,J8*%
X91922500Y-124980000D02*
X101042500Y-124980000D01*
X91922500Y-143020000D02*
X91922500Y-124980000D01*
X93232500Y-126280000D02*
X99732500Y-126280000D01*
X93232500Y-141720000D02*
X93232500Y-126280000D01*
X99732500Y-126280000D02*
X99732500Y-131950000D01*
X99732500Y-131950000D02*
X101042500Y-131950000D01*
X99732500Y-136050000D02*
X99732500Y-141720000D01*
X99732500Y-141720000D02*
X93232500Y-141720000D01*
X101042500Y-124980000D02*
X101042500Y-143020000D01*
X101042500Y-136050000D02*
X99732500Y-136050000D01*
X101042500Y-143020000D02*
X91922500Y-143020000D01*
X101432500Y-137810000D02*
X102432500Y-138310000D01*
X102432500Y-137310000D02*
X101432500Y-137810000D01*
X102432500Y-138310000D02*
X102432500Y-137310000D01*
%TO.C,C1*%
X68480000Y-113161750D02*
X71220000Y-113161750D01*
X68480000Y-123401750D02*
X68480000Y-113161750D01*
X71220000Y-113161750D02*
X71220000Y-123401750D01*
X71220000Y-123401750D02*
X68480000Y-123401750D01*
%TO.C,D20*%
X57184000Y-86650000D02*
X57340000Y-86650000D01*
X59500000Y-86650000D02*
X59656000Y-86650000D01*
X57184484Y-86650000D02*
G75*
G02*
X57340000Y-83418563I1235516J1560000D01*
G01*
X57340000Y-86130961D02*
G75*
G02*
X57340000Y-84049039I1080000J1040961D01*
G01*
X59500000Y-83418563D02*
G75*
G02*
X59655516Y-86650000I-1080000J-1671437D01*
G01*
X59500000Y-84049039D02*
G75*
G02*
X59500000Y-86130961I-1080000J-1040961D01*
G01*
%TO.C,R6*%
X69620000Y-129711750D02*
X70390000Y-129711750D01*
X77700000Y-129711750D02*
X76930000Y-129711750D01*
X70390000Y-128341750D02*
X76930000Y-128341750D01*
X76930000Y-131081750D01*
X70390000Y-131081750D01*
X70390000Y-128341750D01*
%TO.C,R7*%
X69620000Y-132251750D02*
X70390000Y-132251750D01*
X77700000Y-132251750D02*
X76930000Y-132251750D01*
X70390000Y-130881750D02*
X76930000Y-130881750D01*
X76930000Y-133621750D01*
X70390000Y-133621750D01*
X70390000Y-130881750D01*
%TO.C,J1*%
X51960000Y-78630000D02*
X51960000Y-81390000D01*
X54610000Y-78630000D02*
X51960000Y-78630000D01*
X54610000Y-78630000D02*
X54610000Y-81390000D01*
X54610000Y-81390000D02*
X51960000Y-81390000D01*
X55880000Y-78630000D02*
X57260000Y-78630000D01*
X57260000Y-78630000D02*
X57260000Y-80010000D01*
%TO.C,U5*%
X59980000Y-120761750D02*
X59980000Y-141201750D01*
X59980000Y-141201750D02*
X64480000Y-141201750D01*
X61230000Y-120761750D02*
X59980000Y-120761750D01*
X64480000Y-120761750D02*
X63230000Y-120761750D01*
X64480000Y-141201750D02*
X64480000Y-120761750D01*
X63230000Y-120761750D02*
G75*
G02*
X61230000Y-120761750I-1000000J0D01*
G01*
%TO.C,R1*%
X69620000Y-101771750D02*
X70390000Y-101771750D01*
X77700000Y-101771750D02*
X76930000Y-101771750D01*
X70390000Y-100401750D02*
X76930000Y-100401750D01*
X76930000Y-103141750D01*
X70390000Y-103141750D01*
X70390000Y-100401750D01*
%TO.C,D15*%
X85124000Y-81570000D02*
X85280000Y-81570000D01*
X87440000Y-81570000D02*
X87596000Y-81570000D01*
X85124484Y-81570000D02*
G75*
G02*
X85280000Y-78338563I1235516J1560000D01*
G01*
X85280000Y-81050961D02*
G75*
G02*
X85280000Y-78969039I1080000J1040961D01*
G01*
X87440000Y-78338563D02*
G75*
G02*
X87595516Y-81570000I-1080000J-1671437D01*
G01*
X87440000Y-78969039D02*
G75*
G02*
X87440000Y-81050961I-1080000J-1040961D01*
G01*
%TO.C,R27*%
X132080000Y-103910000D02*
X132080000Y-104680000D01*
X132080000Y-111990000D02*
X132080000Y-111220000D01*
X133450000Y-104680000D02*
X130710000Y-104680000D01*
X130710000Y-111220000D01*
X133450000Y-111220000D01*
X133450000Y-104680000D01*
%TO.C,R32*%
X99060000Y-103910000D02*
X99060000Y-104680000D01*
X99060000Y-111990000D02*
X99060000Y-111220000D01*
X100430000Y-104680000D02*
X97690000Y-104680000D01*
X97690000Y-111220000D01*
X100430000Y-111220000D01*
X100430000Y-104680000D01*
%TO.C,C6*%
X69810000Y-76100000D02*
X80050000Y-76100000D01*
X69810000Y-78840000D02*
X69810000Y-76100000D01*
X80050000Y-76100000D02*
X80050000Y-78840000D01*
X80050000Y-78840000D02*
X69810000Y-78840000D01*
%TO.C,U9*%
X52010000Y-57440000D02*
X52010000Y-61940000D01*
X52010000Y-61940000D02*
X72450000Y-61940000D01*
X72450000Y-57440000D02*
X52010000Y-57440000D01*
X72450000Y-58690000D02*
X72450000Y-57440000D01*
X72450000Y-61940000D02*
X72450000Y-60690000D01*
X72450000Y-60690000D02*
G75*
G02*
X72450000Y-58690000I0J1000000D01*
G01*
%TO.C,R13*%
X63500000Y-67080000D02*
X63500000Y-67850000D01*
X63500000Y-75160000D02*
X63500000Y-74390000D01*
X64870000Y-67850000D02*
X62130000Y-67850000D01*
X62130000Y-74390000D01*
X64870000Y-74390000D01*
X64870000Y-67850000D01*
%TO.C,R4*%
X69620000Y-109391750D02*
X70390000Y-109391750D01*
X77700000Y-109391750D02*
X76930000Y-109391750D01*
X70390000Y-108021750D02*
X76930000Y-108021750D01*
X76930000Y-110761750D01*
X70390000Y-110761750D01*
X70390000Y-108021750D01*
%TO.C,C7*%
X98960000Y-54510000D02*
X101700000Y-54510000D01*
X98960000Y-64750000D02*
X98960000Y-54510000D01*
X101700000Y-54510000D02*
X101700000Y-64750000D01*
X101700000Y-64750000D02*
X98960000Y-64750000D01*
%TO.C,R17*%
X102870000Y-68350000D02*
X102870000Y-69120000D01*
X102870000Y-76430000D02*
X102870000Y-75660000D01*
X101500000Y-75660000D02*
X104240000Y-75660000D01*
X104240000Y-69120000D01*
X101500000Y-69120000D01*
X101500000Y-75660000D01*
%TO.C,D35*%
X102904000Y-118400000D02*
X103060000Y-118400000D01*
X105220000Y-118400000D02*
X105376000Y-118400000D01*
X102904484Y-118400000D02*
G75*
G02*
X103060000Y-115168563I1235516J1560000D01*
G01*
X103060000Y-117880961D02*
G75*
G02*
X103060000Y-115799039I1080000J1040961D01*
G01*
X105220000Y-115168563D02*
G75*
G02*
X105375516Y-118400000I-1080000J-1671437D01*
G01*
X105220000Y-115799039D02*
G75*
G02*
X105220000Y-117880961I-1080000J-1040961D01*
G01*
%TO.C,U10*%
X99000000Y-81570000D02*
X99000000Y-82820000D01*
X99000000Y-84820000D02*
X99000000Y-86070000D01*
X99000000Y-86070000D02*
X119440000Y-86070000D01*
X119440000Y-81570000D02*
X99000000Y-81570000D01*
X119440000Y-86070000D02*
X119440000Y-81570000D01*
X99000000Y-82820000D02*
G75*
G02*
X99000000Y-84820000I0J-1000000D01*
G01*
%TO.C,D9*%
X84110000Y-126091750D02*
X84110000Y-125935750D01*
X84110000Y-128407750D02*
X84110000Y-128251750D01*
X80878563Y-126091750D02*
G75*
G02*
X84110000Y-125936234I1671437J-1080000D01*
G01*
X81509039Y-126091750D02*
G75*
G02*
X83590961Y-126091750I1040961J-1080000D01*
G01*
X83590961Y-128251750D02*
G75*
G02*
X81509039Y-128251750I-1040961J1080000D01*
G01*
X84110000Y-128407266D02*
G75*
G02*
X80878563Y-128251750I-1560000J1235516D01*
G01*
%TO.C,D21*%
X104330000Y-61940000D02*
X104174000Y-61940000D01*
X106646000Y-61940000D02*
X106490000Y-61940000D01*
X104330000Y-64540961D02*
G75*
G02*
X104330000Y-62459039I1080000J1040961D01*
G01*
X104330000Y-65171437D02*
G75*
G02*
X104174484Y-61940000I1080000J1671437D01*
G01*
X106490000Y-62459039D02*
G75*
G02*
X106490000Y-64540961I-1080000J-1040961D01*
G01*
X106645516Y-61940000D02*
G75*
G02*
X106490000Y-65171437I-1235516J-1560000D01*
G01*
%TO.C,D29*%
X133384000Y-118400000D02*
X133540000Y-118400000D01*
X135700000Y-118400000D02*
X135856000Y-118400000D01*
X133384484Y-118400000D02*
G75*
G02*
X133540000Y-115168563I1235516J1560000D01*
G01*
X133540000Y-117880961D02*
G75*
G02*
X133540000Y-115799039I1080000J1040961D01*
G01*
X135700000Y-115168563D02*
G75*
G02*
X135855516Y-118400000I-1080000J-1671437D01*
G01*
X135700000Y-115799039D02*
G75*
G02*
X135700000Y-117880961I-1080000J-1040961D01*
G01*
%TO.C,R29*%
X106680000Y-103910000D02*
X106680000Y-104680000D01*
X106680000Y-111990000D02*
X106680000Y-111220000D01*
X108050000Y-104680000D02*
X105310000Y-104680000D01*
X105310000Y-111220000D01*
X108050000Y-111220000D01*
X108050000Y-104680000D01*
%TO.C,R5*%
X69620000Y-127171750D02*
X70390000Y-127171750D01*
X77700000Y-127171750D02*
X76930000Y-127171750D01*
X70390000Y-125801750D02*
X76930000Y-125801750D01*
X76930000Y-128541750D01*
X70390000Y-128541750D01*
X70390000Y-125801750D01*
%TO.C,R23*%
X138430000Y-68350000D02*
X138430000Y-69120000D01*
X138430000Y-76430000D02*
X138430000Y-75660000D01*
X137060000Y-75660000D02*
X139800000Y-75660000D01*
X139800000Y-69120000D01*
X137060000Y-69120000D01*
X137060000Y-75660000D01*
%TO.C,C10*%
X95150000Y-78760000D02*
X97890000Y-78760000D01*
X95150000Y-89000000D02*
X95150000Y-78760000D01*
X97890000Y-78760000D02*
X97890000Y-89000000D01*
X97890000Y-89000000D02*
X95150000Y-89000000D01*
%TO.C,D18*%
X62264000Y-86650000D02*
X62420000Y-86650000D01*
X64580000Y-86650000D02*
X64736000Y-86650000D01*
X62264484Y-86650000D02*
G75*
G02*
X62420000Y-83418563I1235516J1560000D01*
G01*
X62420000Y-86130961D02*
G75*
G02*
X62420000Y-84049039I1080000J1040961D01*
G01*
X64580000Y-83418563D02*
G75*
G02*
X64735516Y-86650000I-1080000J-1671437D01*
G01*
X64580000Y-84049039D02*
G75*
G02*
X64580000Y-86130961I-1080000J-1040961D01*
G01*
%TO.C,D32*%
X125764000Y-123480000D02*
X125920000Y-123480000D01*
X128080000Y-123480000D02*
X128236000Y-123480000D01*
X125764484Y-123480000D02*
G75*
G02*
X125920000Y-120248563I1235516J1560000D01*
G01*
X125920000Y-122960961D02*
G75*
G02*
X125920000Y-120879039I1080000J1040961D01*
G01*
X128080000Y-120248563D02*
G75*
G02*
X128235516Y-123480000I-1080000J-1671437D01*
G01*
X128080000Y-120879039D02*
G75*
G02*
X128080000Y-122960961I-1080000J-1040961D01*
G01*
%TO.C,D25*%
X129730000Y-61940000D02*
X129574000Y-61940000D01*
X132046000Y-61940000D02*
X131890000Y-61940000D01*
X129730000Y-64540961D02*
G75*
G02*
X129730000Y-62459039I1080000J1040961D01*
G01*
X129730000Y-65171437D02*
G75*
G02*
X129574484Y-61940000I1080000J1671437D01*
G01*
X131890000Y-62459039D02*
G75*
G02*
X131890000Y-64540961I-1080000J-1040961D01*
G01*
X132045516Y-61940000D02*
G75*
G02*
X131890000Y-65171437I-1235516J-1560000D01*
G01*
%TO.C,D17*%
X64804000Y-81570000D02*
X64960000Y-81570000D01*
X67120000Y-81570000D02*
X67276000Y-81570000D01*
X64804484Y-81570000D02*
G75*
G02*
X64960000Y-78338563I1235516J1560000D01*
G01*
X64960000Y-81050961D02*
G75*
G02*
X64960000Y-78969039I1080000J1040961D01*
G01*
X67120000Y-78338563D02*
G75*
G02*
X67275516Y-81570000I-1080000J-1671437D01*
G01*
X67120000Y-78969039D02*
G75*
G02*
X67120000Y-81050961I-1080000J-1040961D01*
G01*
%TO.C,D36*%
X100364000Y-123480000D02*
X100520000Y-123480000D01*
X102680000Y-123480000D02*
X102836000Y-123480000D01*
X100364484Y-123480000D02*
G75*
G02*
X100520000Y-120248563I1235516J1560000D01*
G01*
X100520000Y-122960961D02*
G75*
G02*
X100520000Y-120879039I1080000J1040961D01*
G01*
X102680000Y-120248563D02*
G75*
G02*
X102835516Y-123480000I-1080000J-1671437D01*
G01*
X102680000Y-120879039D02*
G75*
G02*
X102680000Y-122960961I-1080000J-1040961D01*
G01*
%TO.C,U4*%
X72680000Y-79950000D02*
X72680000Y-97850000D01*
X72680000Y-97850000D02*
X77180000Y-97850000D01*
X73930000Y-79950000D02*
X72680000Y-79950000D01*
X77180000Y-79950000D02*
X75930000Y-79950000D01*
X77180000Y-97850000D02*
X77180000Y-79950000D01*
X75930000Y-79950000D02*
G75*
G02*
X73930000Y-79950000I-1000000J0D01*
G01*
%TO.C,R9*%
X93980000Y-67080000D02*
X93980000Y-67850000D01*
X93980000Y-75160000D02*
X93980000Y-74390000D01*
X95350000Y-67850000D02*
X92610000Y-67850000D01*
X92610000Y-74390000D01*
X95350000Y-74390000D01*
X95350000Y-67850000D01*
%TO.C,D23*%
X109410000Y-61940000D02*
X109254000Y-61940000D01*
X111726000Y-61940000D02*
X111570000Y-61940000D01*
X109410000Y-64540961D02*
G75*
G02*
X109410000Y-62459039I1080000J1040961D01*
G01*
X109410000Y-65171437D02*
G75*
G02*
X109254484Y-61940000I1080000J1671437D01*
G01*
X111570000Y-62459039D02*
G75*
G02*
X111570000Y-64540961I-1080000J-1040961D01*
G01*
X111725516Y-61940000D02*
G75*
G02*
X111570000Y-65171437I-1235516J-1560000D01*
G01*
%TO.C,R26*%
X134620000Y-103910000D02*
X134620000Y-104680000D01*
X134620000Y-111990000D02*
X134620000Y-111220000D01*
X135990000Y-104680000D02*
X133250000Y-104680000D01*
X133250000Y-111220000D01*
X135990000Y-111220000D01*
X135990000Y-104680000D01*
%TO.C,J7*%
X109090000Y-102637500D02*
X127130000Y-102637500D01*
X109090000Y-111757500D02*
X109090000Y-102637500D01*
X110390000Y-103947500D02*
X116060000Y-103947500D01*
X110390000Y-110447500D02*
X110390000Y-103947500D01*
X116060000Y-103947500D02*
X116060000Y-102637500D01*
X120160000Y-102637500D02*
X120160000Y-103947500D01*
X120160000Y-103947500D02*
X125830000Y-103947500D01*
X121420000Y-101247500D02*
X121920000Y-102247500D01*
X121920000Y-102247500D02*
X122420000Y-101247500D01*
X122420000Y-101247500D02*
X121420000Y-101247500D01*
X125830000Y-103947500D02*
X125830000Y-110447500D01*
X125830000Y-110447500D02*
X110390000Y-110447500D01*
X127130000Y-102637500D02*
X127130000Y-111757500D01*
X127130000Y-111757500D02*
X109090000Y-111757500D01*
%TO.C,R28*%
X129540000Y-103910000D02*
X129540000Y-104680000D01*
X129540000Y-111990000D02*
X129540000Y-111220000D01*
X130910000Y-104680000D02*
X128170000Y-104680000D01*
X128170000Y-111220000D01*
X130910000Y-111220000D01*
X130910000Y-104680000D01*
%TO.C,U13*%
X120590000Y-94270000D02*
X120590000Y-98770000D01*
X120590000Y-98770000D02*
X141030000Y-98770000D01*
X141030000Y-94270000D02*
X120590000Y-94270000D01*
X141030000Y-95520000D02*
X141030000Y-94270000D01*
X141030000Y-98770000D02*
X141030000Y-97520000D01*
X141030000Y-97520000D02*
G75*
G02*
X141030000Y-95520000I0J1000000D01*
G01*
%TO.C,D27*%
X134810000Y-61940000D02*
X134654000Y-61940000D01*
X137126000Y-61940000D02*
X136970000Y-61940000D01*
X134810000Y-64540961D02*
G75*
G02*
X134810000Y-62459039I1080000J1040961D01*
G01*
X134810000Y-65171437D02*
G75*
G02*
X134654484Y-61940000I1080000J1671437D01*
G01*
X136970000Y-62459039D02*
G75*
G02*
X136970000Y-64540961I-1080000J-1040961D01*
G01*
X137125516Y-61940000D02*
G75*
G02*
X136970000Y-65171437I-1235516J-1560000D01*
G01*
%TO.C,D13*%
X90204000Y-81570000D02*
X90360000Y-81570000D01*
X92520000Y-81570000D02*
X92676000Y-81570000D01*
X90204484Y-81570000D02*
G75*
G02*
X90360000Y-78338563I1235516J1560000D01*
G01*
X90360000Y-81050961D02*
G75*
G02*
X90360000Y-78969039I1080000J1040961D01*
G01*
X92520000Y-78338563D02*
G75*
G02*
X92675516Y-81570000I-1080000J-1671437D01*
G01*
X92520000Y-78969039D02*
G75*
G02*
X92520000Y-81050961I-1080000J-1040961D01*
G01*
%TO.C,R18*%
X105410000Y-68350000D02*
X105410000Y-69120000D01*
X105410000Y-76430000D02*
X105410000Y-75660000D01*
X104040000Y-75660000D02*
X106780000Y-75660000D01*
X106780000Y-69120000D01*
X104040000Y-69120000D01*
X104040000Y-75660000D01*
%TO.C,R22*%
X135890000Y-68350000D02*
X135890000Y-69120000D01*
X135890000Y-76430000D02*
X135890000Y-75660000D01*
X134520000Y-75660000D02*
X137260000Y-75660000D01*
X137260000Y-69120000D01*
X134520000Y-69120000D01*
X134520000Y-75660000D01*
%TO.C,D5*%
X84110000Y-100691750D02*
X84110000Y-100535750D01*
X84110000Y-103007750D02*
X84110000Y-102851750D01*
X80878563Y-100691750D02*
G75*
G02*
X84110000Y-100536234I1671437J-1080000D01*
G01*
X81509039Y-100691750D02*
G75*
G02*
X83590961Y-100691750I1040961J-1080000D01*
G01*
X83590961Y-102851750D02*
G75*
G02*
X81509039Y-102851750I-1040961J1080000D01*
G01*
X84110000Y-103007266D02*
G75*
G02*
X80878563Y-102851750I-1560000J1235516D01*
G01*
%TO.C,D6*%
X89190000Y-103231750D02*
X89190000Y-103075750D01*
X89190000Y-105547750D02*
X89190000Y-105391750D01*
X85958563Y-103231750D02*
G75*
G02*
X89190000Y-103076234I1671437J-1080000D01*
G01*
X86589039Y-103231750D02*
G75*
G02*
X88670961Y-103231750I1040961J-1080000D01*
G01*
X88670961Y-105391750D02*
G75*
G02*
X86589039Y-105391750I-1040961J1080000D01*
G01*
X89190000Y-105547266D02*
G75*
G02*
X85958563Y-105391750I-1560000J1235516D01*
G01*
%TO.C,U6*%
X77410000Y-57440000D02*
X77410000Y-61940000D01*
X77410000Y-61940000D02*
X97850000Y-61940000D01*
X97850000Y-57440000D02*
X77410000Y-57440000D01*
X97850000Y-58690000D02*
X97850000Y-57440000D01*
X97850000Y-61940000D02*
X97850000Y-60690000D01*
X97850000Y-60690000D02*
G75*
G02*
X97850000Y-58690000I0J1000000D01*
G01*
%TO.C,J2*%
X139590000Y-64880000D02*
X139590000Y-63500000D01*
X140970000Y-64880000D02*
X139590000Y-64880000D01*
X142240000Y-62120000D02*
X144890000Y-62120000D01*
X142240000Y-64880000D02*
X142240000Y-62120000D01*
X142240000Y-64880000D02*
X144890000Y-64880000D01*
X144890000Y-64880000D02*
X144890000Y-62120000D01*
%TO.C,C9*%
X116800000Y-64670000D02*
X127040000Y-64670000D01*
X116800000Y-67410000D02*
X116800000Y-64670000D01*
X127040000Y-64670000D02*
X127040000Y-67410000D01*
X127040000Y-67410000D02*
X116800000Y-67410000D01*
%TO.C,R30*%
X104140000Y-103910000D02*
X104140000Y-104680000D01*
X104140000Y-111990000D02*
X104140000Y-111220000D01*
X105510000Y-104680000D02*
X102770000Y-104680000D01*
X102770000Y-111220000D01*
X105510000Y-111220000D01*
X105510000Y-104680000D01*
%TO.C,R8*%
X69620000Y-134791750D02*
X70390000Y-134791750D01*
X77700000Y-134791750D02*
X76930000Y-134791750D01*
X70390000Y-133421750D02*
X76930000Y-133421750D01*
X76930000Y-136161750D01*
X70390000Y-136161750D01*
X70390000Y-133421750D01*
%TO.C,U14*%
X95190000Y-94270000D02*
X95190000Y-98770000D01*
X95190000Y-98770000D02*
X115630000Y-98770000D01*
X115630000Y-94270000D02*
X95190000Y-94270000D01*
X115630000Y-95520000D02*
X115630000Y-94270000D01*
X115630000Y-98770000D02*
X115630000Y-97520000D01*
X115630000Y-97520000D02*
G75*
G02*
X115630000Y-95520000I0J1000000D01*
G01*
%TO.C,C12*%
X113050000Y-112930000D02*
X123290000Y-112930000D01*
X113050000Y-115670000D02*
X113050000Y-112930000D01*
X123290000Y-112930000D02*
X123290000Y-115670000D01*
X123290000Y-115670000D02*
X113050000Y-115670000D01*
%TO.C,D30*%
X130844000Y-123480000D02*
X131000000Y-123480000D01*
X133160000Y-123480000D02*
X133316000Y-123480000D01*
X130844484Y-123480000D02*
G75*
G02*
X131000000Y-120248563I1235516J1560000D01*
G01*
X131000000Y-122960961D02*
G75*
G02*
X131000000Y-120879039I1080000J1040961D01*
G01*
X133160000Y-120248563D02*
G75*
G02*
X133315516Y-123480000I-1080000J-1671437D01*
G01*
X133160000Y-120879039D02*
G75*
G02*
X133160000Y-122960961I-1080000J-1040961D01*
G01*
%TO.C,D31*%
X128304000Y-118400000D02*
X128460000Y-118400000D01*
X130620000Y-118400000D02*
X130776000Y-118400000D01*
X128304484Y-118400000D02*
G75*
G02*
X128460000Y-115168563I1235516J1560000D01*
G01*
X128460000Y-117880961D02*
G75*
G02*
X128460000Y-115799039I1080000J1040961D01*
G01*
X130620000Y-115168563D02*
G75*
G02*
X130775516Y-118400000I-1080000J-1671437D01*
G01*
X130620000Y-115799039D02*
G75*
G02*
X130620000Y-117880961I-1080000J-1040961D01*
G01*
%TO.C,R11*%
X88900000Y-67080000D02*
X88900000Y-67850000D01*
X88900000Y-75160000D02*
X88900000Y-74390000D01*
X90270000Y-67850000D02*
X87530000Y-67850000D01*
X87530000Y-74390000D01*
X90270000Y-74390000D01*
X90270000Y-67850000D01*
%TO.C,U1*%
X72330000Y-116031750D02*
X72330000Y-117281750D01*
X72330000Y-119281750D02*
X72330000Y-120531750D01*
X72330000Y-120531750D02*
X90230000Y-120531750D01*
X90230000Y-116031750D02*
X72330000Y-116031750D01*
X90230000Y-120531750D02*
X90230000Y-116031750D01*
X72330000Y-117281750D02*
G75*
G02*
X72330000Y-119281750I0J-1000000D01*
G01*
%TO.C,C5*%
X57050000Y-116911750D02*
X67290000Y-116911750D01*
X57050000Y-119651750D02*
X57050000Y-116911750D01*
X67290000Y-116911750D02*
X67290000Y-119651750D01*
X67290000Y-119651750D02*
X57050000Y-119651750D01*
%TO.C,R15*%
X58420000Y-67080000D02*
X58420000Y-67850000D01*
X58420000Y-75160000D02*
X58420000Y-74390000D01*
X59790000Y-67850000D02*
X57050000Y-67850000D01*
X57050000Y-74390000D01*
X59790000Y-74390000D01*
X59790000Y-67850000D01*
%TO.C,D14*%
X87664000Y-86650000D02*
X87820000Y-86650000D01*
X89980000Y-86650000D02*
X90136000Y-86650000D01*
X87664484Y-86650000D02*
G75*
G02*
X87820000Y-83418563I1235516J1560000D01*
G01*
X87820000Y-86130961D02*
G75*
G02*
X87820000Y-84049039I1080000J1040961D01*
G01*
X89980000Y-83418563D02*
G75*
G02*
X90135516Y-86650000I-1080000J-1671437D01*
G01*
X89980000Y-84049039D02*
G75*
G02*
X89980000Y-86130961I-1080000J-1040961D01*
G01*
%TO.C,J5*%
X65910000Y-65807500D02*
X83950000Y-65807500D01*
X65910000Y-74927500D02*
X65910000Y-65807500D01*
X67210000Y-67117500D02*
X72880000Y-67117500D01*
X67210000Y-73617500D02*
X67210000Y-67117500D01*
X72880000Y-67117500D02*
X72880000Y-65807500D01*
X76980000Y-65807500D02*
X76980000Y-67117500D01*
X76980000Y-67117500D02*
X82650000Y-67117500D01*
X78240000Y-64417500D02*
X78740000Y-65417500D01*
X78740000Y-65417500D02*
X79240000Y-64417500D01*
X79240000Y-64417500D02*
X78240000Y-64417500D01*
X82650000Y-67117500D02*
X82650000Y-73617500D01*
X82650000Y-73617500D02*
X67210000Y-73617500D01*
X83950000Y-65807500D02*
X83950000Y-74927500D01*
X83950000Y-74927500D02*
X65910000Y-74927500D01*
%TO.C,R21*%
X133350000Y-68350000D02*
X133350000Y-69120000D01*
X133350000Y-76430000D02*
X133350000Y-75660000D01*
X131980000Y-75660000D02*
X134720000Y-75660000D01*
X134720000Y-69120000D01*
X131980000Y-69120000D01*
X131980000Y-75660000D01*
%TO.C,D22*%
X106870000Y-56860000D02*
X106714000Y-56860000D01*
X109186000Y-56860000D02*
X109030000Y-56860000D01*
X106870000Y-59460961D02*
G75*
G02*
X106870000Y-57379039I1080000J1040961D01*
G01*
X106870000Y-60091437D02*
G75*
G02*
X106714484Y-56860000I1080000J1671437D01*
G01*
X109030000Y-57379039D02*
G75*
G02*
X109030000Y-59460961I-1080000J-1040961D01*
G01*
X109185516Y-56860000D02*
G75*
G02*
X109030000Y-60091437I-1235516J-1560000D01*
G01*
%TO.C,U11*%
X115860000Y-116780000D02*
X115860000Y-134680000D01*
X115860000Y-134680000D02*
X120360000Y-134680000D01*
X117110000Y-116780000D02*
X115860000Y-116780000D01*
X120360000Y-116780000D02*
X119110000Y-116780000D01*
X120360000Y-134680000D02*
X120360000Y-116780000D01*
X119110000Y-116780000D02*
G75*
G02*
X117110000Y-116780000I-1000000J0D01*
G01*
%TO.C,D26*%
X132270000Y-56860000D02*
X132114000Y-56860000D01*
X134586000Y-56860000D02*
X134430000Y-56860000D01*
X132270000Y-59460961D02*
G75*
G02*
X132270000Y-57379039I1080000J1040961D01*
G01*
X132270000Y-60091437D02*
G75*
G02*
X132114484Y-56860000I1080000J1671437D01*
G01*
X134430000Y-57379039D02*
G75*
G02*
X134430000Y-59460961I-1080000J-1040961D01*
G01*
X134585516Y-56860000D02*
G75*
G02*
X134430000Y-60091437I-1235516J-1560000D01*
G01*
%TO.C,D11*%
X84110000Y-131171750D02*
X84110000Y-131015750D01*
X84110000Y-133487750D02*
X84110000Y-133331750D01*
X80878563Y-131171750D02*
G75*
G02*
X84110000Y-131016234I1671437J-1080000D01*
G01*
X81509039Y-131171750D02*
G75*
G02*
X83590961Y-131171750I1040961J-1080000D01*
G01*
X83590961Y-133331750D02*
G75*
G02*
X81509039Y-133331750I-1040961J1080000D01*
G01*
X84110000Y-133487266D02*
G75*
G02*
X80878563Y-133331750I-1560000J1235516D01*
G01*
%TO.C,D24*%
X111950000Y-56860000D02*
X111794000Y-56860000D01*
X114266000Y-56860000D02*
X114110000Y-56860000D01*
X111950000Y-59460961D02*
G75*
G02*
X111950000Y-57379039I1080000J1040961D01*
G01*
X111950000Y-60091437D02*
G75*
G02*
X111794484Y-56860000I1080000J1671437D01*
G01*
X114110000Y-57379039D02*
G75*
G02*
X114110000Y-59460961I-1080000J-1040961D01*
G01*
X114265516Y-56860000D02*
G75*
G02*
X114110000Y-60091437I-1235516J-1560000D01*
G01*
%TO.C,R16*%
X55880000Y-67080000D02*
X55880000Y-67850000D01*
X55880000Y-75160000D02*
X55880000Y-74390000D01*
X57250000Y-67850000D02*
X54510000Y-67850000D01*
X54510000Y-74390000D01*
X57250000Y-74390000D01*
X57250000Y-67850000D01*
%TD*%
M02*
