%TF.GenerationSoftware,KiCad,Pcbnew,9.0.6-9.0.6~ubuntu24.04.1*%
%TF.CreationDate,2025-12-07T15:07:55+01:00*%
%TF.ProjectId,Discrete_clock_V1,44697363-7265-4746-955f-636c6f636b5f,rev?*%
%TF.SameCoordinates,Original*%
%TF.FileFunction,Legend,Bot*%
%TF.FilePolarity,Positive*%
%FSLAX46Y46*%
G04 Gerber Fmt 4.6, Leading zero omitted, Abs format (unit mm)*
G04 Created by KiCad (PCBNEW 9.0.6-9.0.6~ubuntu24.04.1) date 2025-12-07 15:07:55*
%MOMM*%
%LPD*%
G01*
G04 APERTURE LIST*
%ADD10C,0.000000*%
G04 APERTURE END LIST*
D10*
%TO.C,G\u002A\u002A\u002A*%
G36*
X106510563Y-133598124D02*
G01*
X106546495Y-133600125D01*
X106574664Y-133603480D01*
X106579284Y-133604292D01*
X106615715Y-133610764D01*
X106643767Y-133615928D01*
X106666555Y-133620391D01*
X106687195Y-133624762D01*
X106708804Y-133629647D01*
X106730734Y-133635322D01*
X106752318Y-133642073D01*
X106767011Y-133647981D01*
X106781699Y-133654160D01*
X106793622Y-133656811D01*
X106808174Y-133659669D01*
X106829432Y-133670565D01*
X106849600Y-133687030D01*
X106864714Y-133706304D01*
X106868256Y-133712702D01*
X106874894Y-133728289D01*
X106876678Y-133743687D01*
X106874610Y-133764819D01*
X106872630Y-133777530D01*
X106868613Y-133798563D01*
X106864823Y-133813612D01*
X106863033Y-133817833D01*
X106850679Y-133834528D01*
X106830083Y-133854197D01*
X106803336Y-133875369D01*
X106772530Y-133896577D01*
X106739757Y-133916352D01*
X106707107Y-133933226D01*
X106676672Y-133945729D01*
X106669261Y-133948265D01*
X106639554Y-133958083D01*
X106616453Y-133964724D01*
X106596126Y-133969035D01*
X106574740Y-133971861D01*
X106548462Y-133974050D01*
X106545671Y-133974246D01*
X106492818Y-133975472D01*
X106446254Y-133970826D01*
X106401610Y-133959564D01*
X106354518Y-133940939D01*
X106341164Y-133935007D01*
X106327139Y-133929113D01*
X106320579Y-133926832D01*
X106316602Y-133925523D01*
X106303710Y-133918889D01*
X106284772Y-133907962D01*
X106262162Y-133894223D01*
X106238259Y-133879154D01*
X106215437Y-133864235D01*
X106196074Y-133850950D01*
X106182544Y-133840778D01*
X106162076Y-133822282D01*
X106139440Y-133794483D01*
X106126556Y-133765657D01*
X106122218Y-133733666D01*
X106122272Y-133719676D01*
X106124301Y-133703865D01*
X106130326Y-133691760D01*
X106142177Y-133678279D01*
X106147155Y-133673472D01*
X106167259Y-133657594D01*
X106187570Y-133645470D01*
X106193488Y-133642775D01*
X106205340Y-133638024D01*
X106219045Y-133633603D01*
X106236269Y-133629130D01*
X106258677Y-133624229D01*
X106287932Y-133618521D01*
X106325701Y-133611626D01*
X106373648Y-133603168D01*
X106396776Y-133600304D01*
X106431645Y-133598207D01*
X106470927Y-133597483D01*
X106510563Y-133598124D01*
G37*
G36*
X104633727Y-134542210D02*
G01*
X104661514Y-134554511D01*
X104692118Y-134574774D01*
X104723518Y-134601835D01*
X104725511Y-134603750D01*
X104760931Y-134635234D01*
X104802541Y-134668473D01*
X104846032Y-134700168D01*
X104887093Y-134727022D01*
X104908330Y-134738428D01*
X104948374Y-134755194D01*
X104994365Y-134770151D01*
X105042642Y-134782161D01*
X105089547Y-134790082D01*
X105133115Y-134794430D01*
X105195311Y-134798252D01*
X105263143Y-134800283D01*
X105333690Y-134800557D01*
X105404029Y-134799103D01*
X105471239Y-134795955D01*
X105532398Y-134791143D01*
X105584586Y-134784700D01*
X105597442Y-134782752D01*
X105625379Y-134778672D01*
X105657663Y-134774089D01*
X105689594Y-134769676D01*
X105699914Y-134768268D01*
X105741749Y-134762399D01*
X105774572Y-134757406D01*
X105800775Y-134752842D01*
X105822753Y-134748263D01*
X105842900Y-134743223D01*
X105863608Y-134737275D01*
X105877024Y-134733251D01*
X105895906Y-134727644D01*
X105913755Y-134722460D01*
X105933723Y-134716798D01*
X105958960Y-134709759D01*
X105992618Y-134700442D01*
X106048263Y-134686194D01*
X106099620Y-134675907D01*
X106142239Y-134670982D01*
X106177106Y-134671309D01*
X106205209Y-134676779D01*
X106219674Y-134681428D01*
X106261233Y-134695272D01*
X106295805Y-134707832D01*
X106326923Y-134720520D01*
X106358120Y-134734753D01*
X106392928Y-134751944D01*
X106398341Y-134754691D01*
X106429461Y-134770670D01*
X106459329Y-134786283D01*
X106484781Y-134799865D01*
X106502658Y-134809751D01*
X106511784Y-134814860D01*
X106534400Y-134827017D01*
X106563180Y-134842079D01*
X106596027Y-134858986D01*
X106630839Y-134876681D01*
X106665518Y-134894104D01*
X106697962Y-134910197D01*
X106726072Y-134923903D01*
X106747749Y-134934161D01*
X106760892Y-134939915D01*
X106762342Y-134940474D01*
X106779841Y-134947426D01*
X106793681Y-134953222D01*
X106796819Y-134954420D01*
X106811562Y-134958923D01*
X106833182Y-134964730D01*
X106858201Y-134970888D01*
X106874782Y-134974590D01*
X106898557Y-134978707D01*
X106921992Y-134980723D01*
X106949180Y-134980920D01*
X106984211Y-134979581D01*
X107008791Y-134977921D01*
X107047075Y-134974077D01*
X107084184Y-134969098D01*
X107114706Y-134963643D01*
X107127156Y-134960979D01*
X107154826Y-134955148D01*
X107179059Y-134950156D01*
X107195713Y-134946861D01*
X107211358Y-134943394D01*
X107234805Y-134936633D01*
X107255063Y-134929168D01*
X107267830Y-134922457D01*
X107276003Y-134919242D01*
X107292599Y-134915009D01*
X107313763Y-134910810D01*
X107333127Y-134907922D01*
X107354171Y-134907711D01*
X107370035Y-134913608D01*
X107384174Y-134927182D01*
X107400047Y-134950006D01*
X107405229Y-134958314D01*
X107415040Y-134977346D01*
X107419608Y-134995188D01*
X107420730Y-135017729D01*
X107420708Y-135021981D01*
X107419155Y-135043667D01*
X107413981Y-135059974D01*
X107403542Y-135076522D01*
X107401876Y-135078775D01*
X107380135Y-135104610D01*
X107357104Y-135123757D01*
X107327723Y-135140482D01*
X107291651Y-135157762D01*
X107237069Y-135181168D01*
X107187887Y-135198332D01*
X107141708Y-135210153D01*
X107125721Y-135213567D01*
X107098903Y-135219508D01*
X107072703Y-135225507D01*
X107058746Y-135228027D01*
X107028412Y-135230991D01*
X106991587Y-135232533D01*
X106951346Y-135232708D01*
X106910761Y-135231573D01*
X106872906Y-135229183D01*
X106840856Y-135225594D01*
X106817683Y-135220862D01*
X106778967Y-135208953D01*
X106712186Y-135186205D01*
X106652510Y-135162458D01*
X106596749Y-135136393D01*
X106541715Y-135106690D01*
X106531330Y-135100778D01*
X106505505Y-135086299D01*
X106481656Y-135073175D01*
X106465621Y-135064438D01*
X106437019Y-135048668D01*
X106412774Y-135035059D01*
X106394960Y-135024782D01*
X106385649Y-135019006D01*
X106384989Y-135018553D01*
X106374661Y-135012445D01*
X106356289Y-135002283D01*
X106332201Y-134989302D01*
X106304721Y-134974736D01*
X106276177Y-134959819D01*
X106248894Y-134945786D01*
X106225198Y-134933871D01*
X106214050Y-134928560D01*
X106182544Y-134916530D01*
X106152734Y-134910876D01*
X106121635Y-134911566D01*
X106086260Y-134918565D01*
X106043622Y-134931841D01*
X106024877Y-134938184D01*
X106001239Y-134945690D01*
X105983152Y-134950843D01*
X105973487Y-134952789D01*
X105971034Y-134953032D01*
X105957647Y-134955860D01*
X105937350Y-134961179D01*
X105913482Y-134968136D01*
X105881716Y-134977789D01*
X105857300Y-134985024D01*
X105838066Y-134990372D01*
X105820827Y-134994674D01*
X105802401Y-134998772D01*
X105779601Y-135003508D01*
X105776612Y-135004121D01*
X105749823Y-135009693D01*
X105724587Y-135015057D01*
X105706009Y-135019129D01*
X105702238Y-135019932D01*
X105678895Y-135023478D01*
X105657324Y-135024918D01*
X105648676Y-135025212D01*
X105625777Y-135027380D01*
X105602352Y-135030964D01*
X105589413Y-135033058D01*
X105561115Y-135036582D01*
X105525044Y-135040271D01*
X105483765Y-135043931D01*
X105439839Y-135047365D01*
X105395832Y-135050377D01*
X105354306Y-135052770D01*
X105317824Y-135054350D01*
X105288952Y-135054921D01*
X105275191Y-135054779D01*
X105244367Y-135053608D01*
X105216023Y-135051512D01*
X105194916Y-135048800D01*
X105177390Y-135045702D01*
X105150459Y-135041118D01*
X105118922Y-135035870D01*
X105086547Y-135030592D01*
X105056348Y-135025704D01*
X105025543Y-135020680D01*
X104999410Y-135016378D01*
X104981538Y-135013386D01*
X104970342Y-135011100D01*
X104945887Y-135004781D01*
X104917266Y-134996288D01*
X104887634Y-134986664D01*
X104860147Y-134976951D01*
X104837959Y-134968191D01*
X104824227Y-134961426D01*
X104817850Y-134957498D01*
X104801227Y-134947773D01*
X104782223Y-134937077D01*
X104748553Y-134916791D01*
X104702509Y-134884032D01*
X104651512Y-134842474D01*
X104623603Y-134817853D01*
X104599243Y-134794131D01*
X104580237Y-134772103D01*
X104564221Y-134748998D01*
X104548835Y-134722044D01*
X104546737Y-134718021D01*
X104530701Y-134677413D01*
X104525383Y-134640033D01*
X104530679Y-134606613D01*
X104546484Y-134577885D01*
X104572694Y-134554582D01*
X104579807Y-134550383D01*
X104598677Y-134542151D01*
X104614339Y-134538880D01*
X104633727Y-134542210D01*
G37*
G36*
X108963136Y-131271391D02*
G01*
X109091862Y-131271476D01*
X109213172Y-131271571D01*
X109358200Y-131271671D01*
X109492037Y-131271761D01*
X109615141Y-131271852D01*
X109727965Y-131271956D01*
X109830966Y-131272088D01*
X109924600Y-131272259D01*
X110009320Y-131272481D01*
X110085584Y-131272769D01*
X110153846Y-131273133D01*
X110214562Y-131273587D01*
X110268187Y-131274143D01*
X110315177Y-131274815D01*
X110355988Y-131275614D01*
X110391074Y-131276553D01*
X110420892Y-131277645D01*
X110445896Y-131278903D01*
X110466542Y-131280338D01*
X110483286Y-131281964D01*
X110496583Y-131283794D01*
X110506889Y-131285839D01*
X110514658Y-131288113D01*
X110520347Y-131290628D01*
X110524411Y-131293397D01*
X110527306Y-131296432D01*
X110529486Y-131299746D01*
X110531407Y-131303352D01*
X110533526Y-131307262D01*
X110536296Y-131311489D01*
X110539493Y-131315993D01*
X110556356Y-131350182D01*
X110562822Y-131386421D01*
X110558759Y-131422274D01*
X110544036Y-131455308D01*
X110536390Y-131465224D01*
X110526308Y-131473627D01*
X110512778Y-131480159D01*
X110494374Y-131485101D01*
X110469671Y-131488729D01*
X110437244Y-131491324D01*
X110395669Y-131493163D01*
X110343519Y-131494526D01*
X110313947Y-131495233D01*
X110272179Y-131496707D01*
X110240587Y-131498641D01*
X110218019Y-131501184D01*
X110203324Y-131504485D01*
X110195351Y-131508691D01*
X110192949Y-131513951D01*
X110194882Y-131518786D01*
X110201946Y-131532190D01*
X110212974Y-131551633D01*
X110226684Y-131574798D01*
X110248888Y-131612355D01*
X110268118Y-131646472D01*
X110282618Y-131674081D01*
X110291769Y-131694007D01*
X110294957Y-131705073D01*
X110295812Y-131710664D01*
X110300723Y-131723240D01*
X110309687Y-131740770D01*
X110319445Y-131762073D01*
X110328209Y-131783062D01*
X110334531Y-131800261D01*
X110336960Y-131810190D01*
X110337954Y-131815683D01*
X110343068Y-131830472D01*
X110351072Y-131848615D01*
X110359375Y-131866733D01*
X110369447Y-131891981D01*
X110376382Y-131913505D01*
X110378963Y-131927851D01*
X110378964Y-131927931D01*
X110381461Y-131936925D01*
X110387842Y-131953174D01*
X110396749Y-131973217D01*
X110407121Y-131995860D01*
X110421151Y-132029322D01*
X110432061Y-132060637D01*
X110441408Y-132094487D01*
X110450749Y-132135555D01*
X110451884Y-132140790D01*
X110457753Y-132166278D01*
X110466037Y-132200237D01*
X110476989Y-132243701D01*
X110490867Y-132297704D01*
X110495344Y-132314332D01*
X110501164Y-132334258D01*
X110505578Y-132347490D01*
X110509248Y-132362019D01*
X110510979Y-132380492D01*
X110512079Y-132391108D01*
X110516522Y-132410593D01*
X110523059Y-132431605D01*
X110530261Y-132449701D01*
X110536700Y-132460441D01*
X110537349Y-132461665D01*
X110539199Y-132472364D01*
X110540491Y-132490972D01*
X110540976Y-132514367D01*
X110541047Y-132522045D01*
X110542120Y-132544141D01*
X110544211Y-132560393D01*
X110546977Y-132567725D01*
X110547838Y-132568487D01*
X110551494Y-132578138D01*
X110552977Y-132593621D01*
X110554839Y-132615320D01*
X110559379Y-132636770D01*
X110560620Y-132640914D01*
X110565432Y-132659140D01*
X110569377Y-132678770D01*
X110572538Y-132701130D01*
X110574994Y-132727543D01*
X110576828Y-132759333D01*
X110578119Y-132797825D01*
X110578950Y-132844344D01*
X110579400Y-132900213D01*
X110579552Y-132966756D01*
X110579445Y-133024043D01*
X110578914Y-133089495D01*
X110577947Y-133144074D01*
X110576551Y-133187502D01*
X110574734Y-133219497D01*
X110572503Y-133239778D01*
X110568854Y-133261268D01*
X110563498Y-133292888D01*
X110558783Y-133320784D01*
X110557627Y-133327059D01*
X110551546Y-133353594D01*
X110543194Y-133384322D01*
X110534021Y-133413791D01*
X110530195Y-133425268D01*
X110521883Y-133450942D01*
X110515109Y-133472853D01*
X110511058Y-133487209D01*
X110509608Y-133492742D01*
X110506465Y-133502351D01*
X110501665Y-133513759D01*
X110494182Y-133529147D01*
X110482985Y-133550696D01*
X110467049Y-133580588D01*
X110465806Y-133582890D01*
X110439311Y-133626067D01*
X110408539Y-133667010D01*
X110375541Y-133703442D01*
X110342369Y-133733087D01*
X110311074Y-133753669D01*
X110304387Y-133756491D01*
X110283687Y-133761776D01*
X110261374Y-133764170D01*
X110254238Y-133764248D01*
X110236928Y-133762683D01*
X110223776Y-133756551D01*
X110208870Y-133743529D01*
X110202885Y-133737355D01*
X110191732Y-133721259D01*
X110187107Y-133703232D01*
X110188601Y-133680328D01*
X110195805Y-133649603D01*
X110198715Y-133639065D01*
X110205677Y-133613330D01*
X110211605Y-133590805D01*
X110213496Y-133583643D01*
X110218833Y-133564954D01*
X110223144Y-133551802D01*
X110228223Y-133537784D01*
X110239140Y-133503240D01*
X110251373Y-133459048D01*
X110265117Y-133404474D01*
X110280573Y-133338786D01*
X110287267Y-133312163D01*
X110296733Y-133278727D01*
X110306187Y-133248779D01*
X110309431Y-133239143D01*
X110313004Y-133227565D01*
X110315776Y-133216122D01*
X110317837Y-133203298D01*
X110319280Y-133187575D01*
X110320195Y-133167436D01*
X110320673Y-133141365D01*
X110320806Y-133107843D01*
X110320686Y-133065355D01*
X110320402Y-133012384D01*
X110320302Y-132997633D01*
X110319731Y-132948155D01*
X110318852Y-132903549D01*
X110317714Y-132865242D01*
X110316366Y-132834659D01*
X110314856Y-132813225D01*
X110313234Y-132802367D01*
X110312943Y-132801444D01*
X110309103Y-132784871D01*
X110304712Y-132759778D01*
X110300184Y-132729332D01*
X110295935Y-132696699D01*
X110292379Y-132665046D01*
X110289931Y-132637541D01*
X110289005Y-132617350D01*
X110288811Y-132610991D01*
X110285853Y-132587113D01*
X110280472Y-132566346D01*
X110277526Y-132557320D01*
X110271906Y-132534433D01*
X110267849Y-132510720D01*
X110266014Y-132496187D01*
X110261761Y-132463638D01*
X110258433Y-132440570D01*
X110255729Y-132425191D01*
X110253348Y-132415706D01*
X110250988Y-132410323D01*
X110248856Y-132404328D01*
X110244899Y-132388269D01*
X110240112Y-132365339D01*
X110235106Y-132338317D01*
X110232060Y-132321604D01*
X110225236Y-132287527D01*
X110218004Y-132254808D01*
X110211493Y-132228698D01*
X110210655Y-132225607D01*
X110204813Y-132202068D01*
X110200661Y-132181878D01*
X110199052Y-132169119D01*
X110199028Y-132168052D01*
X110196832Y-132151695D01*
X110192189Y-132133117D01*
X110186491Y-132115126D01*
X110175945Y-132082388D01*
X110168288Y-132059600D01*
X110163164Y-132045684D01*
X110162291Y-132043413D01*
X110157255Y-132028165D01*
X110151956Y-132009681D01*
X110151615Y-132008400D01*
X110140854Y-131971001D01*
X110126789Y-131926466D01*
X110110375Y-131877462D01*
X110092563Y-131826652D01*
X110074307Y-131776701D01*
X110056560Y-131730274D01*
X110040275Y-131690037D01*
X110026406Y-131658653D01*
X110023037Y-131651705D01*
X110009680Y-131626158D01*
X109993996Y-131598370D01*
X109977561Y-131570917D01*
X109961947Y-131546378D01*
X109948729Y-131527328D01*
X109939482Y-131516344D01*
X109938312Y-131515376D01*
X109935147Y-131513542D01*
X109930358Y-131511962D01*
X109923149Y-131510621D01*
X109912721Y-131509504D01*
X109898275Y-131508598D01*
X109879013Y-131507887D01*
X109854137Y-131507357D01*
X109822849Y-131506992D01*
X109784349Y-131506779D01*
X109737841Y-131506703D01*
X109682525Y-131506749D01*
X109617603Y-131506902D01*
X109542277Y-131507149D01*
X109455748Y-131507473D01*
X109442741Y-131507525D01*
X109349156Y-131507984D01*
X109265429Y-131508554D01*
X109191827Y-131509232D01*
X109128618Y-131510011D01*
X109076071Y-131510889D01*
X109034453Y-131511860D01*
X109004032Y-131512921D01*
X108985076Y-131514066D01*
X108977853Y-131515292D01*
X108976265Y-131518179D01*
X108973859Y-131532087D01*
X108972964Y-131554176D01*
X108973454Y-131581883D01*
X108975204Y-131612646D01*
X108978090Y-131643904D01*
X108981985Y-131673095D01*
X108986765Y-131697656D01*
X108987613Y-131701285D01*
X108990968Y-131718613D01*
X108994069Y-131740156D01*
X108996985Y-131766886D01*
X108999785Y-131799777D01*
X109002537Y-131839801D01*
X109005309Y-131887931D01*
X109008170Y-131945141D01*
X109011188Y-132012402D01*
X109014433Y-132090687D01*
X109016083Y-132120865D01*
X109018494Y-132149893D01*
X109021300Y-132173492D01*
X109024172Y-132188375D01*
X109026058Y-132195248D01*
X109027798Y-132209581D01*
X109023876Y-132218078D01*
X109022890Y-132219805D01*
X109020938Y-132229312D01*
X109019399Y-132247134D01*
X109018247Y-132274008D01*
X109017457Y-132310671D01*
X109017002Y-132357859D01*
X109016856Y-132416307D01*
X109016845Y-132429315D01*
X109016579Y-132479323D01*
X109015987Y-132523601D01*
X109015103Y-132560896D01*
X109013964Y-132589954D01*
X109012606Y-132609519D01*
X109011064Y-132618339D01*
X109010843Y-132618779D01*
X109007619Y-132630621D01*
X109004639Y-132650177D01*
X109002523Y-132673449D01*
X109002492Y-132673949D01*
X109000213Y-132698401D01*
X108996920Y-132720181D01*
X108993314Y-132734629D01*
X108990502Y-132745828D01*
X108987870Y-132766622D01*
X108986854Y-132789851D01*
X108986279Y-132808357D01*
X108984297Y-132828711D01*
X108981390Y-132841964D01*
X108980737Y-132843735D01*
X108976496Y-132858037D01*
X108971048Y-132879346D01*
X108965407Y-132903751D01*
X108964052Y-132909849D01*
X108958617Y-132932763D01*
X108953800Y-132950893D01*
X108950511Y-132960756D01*
X108949080Y-132964214D01*
X108944113Y-132978239D01*
X108937223Y-132999120D01*
X108929446Y-133023761D01*
X108926504Y-133033052D01*
X108916860Y-133061207D01*
X108907051Y-133087091D01*
X108898802Y-133106068D01*
X108894035Y-133116500D01*
X108887435Y-133134455D01*
X108884846Y-133147029D01*
X108882005Y-133158560D01*
X108873504Y-133178776D01*
X108860302Y-133205524D01*
X108843366Y-133237008D01*
X108823662Y-133271435D01*
X108802157Y-133307011D01*
X108779817Y-133341941D01*
X108779343Y-133342659D01*
X108730152Y-133411108D01*
X108679017Y-133470819D01*
X108627321Y-133520176D01*
X108607991Y-133536242D01*
X108583366Y-133556046D01*
X108558470Y-133575498D01*
X108535214Y-133593149D01*
X108515512Y-133607549D01*
X108501276Y-133617252D01*
X108494419Y-133620808D01*
X108493381Y-133620987D01*
X108483576Y-133624550D01*
X108466678Y-133631745D01*
X108445629Y-133641333D01*
X108428719Y-133649168D01*
X108389010Y-133666548D01*
X108355630Y-133679143D01*
X108325627Y-133687863D01*
X108296047Y-133693619D01*
X108263939Y-133697320D01*
X108227180Y-133699418D01*
X108194571Y-133698075D01*
X108165211Y-133692483D01*
X108134787Y-133682135D01*
X108127880Y-133679698D01*
X108109355Y-133674242D01*
X108088239Y-133668922D01*
X108078034Y-133666317D01*
X108053524Y-133658540D01*
X108032933Y-133650200D01*
X108031704Y-133649590D01*
X108014687Y-133639482D01*
X107991436Y-133623728D01*
X107964566Y-133604303D01*
X107936695Y-133583187D01*
X107910438Y-133562356D01*
X107888410Y-133543788D01*
X107873228Y-133529462D01*
X107852635Y-133507148D01*
X107788014Y-133429907D01*
X107733193Y-133352334D01*
X107689156Y-133275781D01*
X107686979Y-133271482D01*
X107671207Y-133239959D01*
X107660251Y-133217093D01*
X107653359Y-133201157D01*
X107649775Y-133190426D01*
X107648748Y-133183171D01*
X107647782Y-133176233D01*
X107642748Y-133167772D01*
X107639550Y-133164022D01*
X107636747Y-133152620D01*
X107636592Y-133150237D01*
X107633249Y-133135805D01*
X107626915Y-133118472D01*
X107621405Y-133105160D01*
X107606715Y-133064835D01*
X107592400Y-133019522D01*
X107579964Y-132974176D01*
X107570908Y-132933754D01*
X107567941Y-132919015D01*
X107561734Y-132891467D01*
X107555669Y-132867749D01*
X107551882Y-132853754D01*
X107547035Y-132832952D01*
X107543060Y-132810682D01*
X107539365Y-132783444D01*
X107535359Y-132747739D01*
X107534763Y-132742300D01*
X107531801Y-132719067D01*
X107528803Y-132700593D01*
X107526336Y-132690475D01*
X107525636Y-132688549D01*
X107522273Y-132672856D01*
X107518551Y-132646040D01*
X107514540Y-132608809D01*
X107510310Y-132561871D01*
X107505934Y-132505937D01*
X107501482Y-132441715D01*
X107501411Y-132440630D01*
X107498330Y-132394536D01*
X107494971Y-132345722D01*
X107491593Y-132297861D01*
X107488455Y-132254628D01*
X107485817Y-132219697D01*
X107484382Y-132197401D01*
X107482680Y-132161560D01*
X107481039Y-132117560D01*
X107479523Y-132067485D01*
X107478192Y-132013421D01*
X107477110Y-131957455D01*
X107476339Y-131901672D01*
X107476066Y-131875232D01*
X107475601Y-131817446D01*
X107475470Y-131769533D01*
X107475711Y-131729980D01*
X107476363Y-131697274D01*
X107477463Y-131669902D01*
X107479050Y-131646349D01*
X107481162Y-131625103D01*
X107483838Y-131604649D01*
X107486533Y-131583860D01*
X107490158Y-131547510D01*
X107492538Y-131512266D01*
X107493259Y-131483485D01*
X107493225Y-131479509D01*
X107494091Y-131439819D01*
X107497868Y-131408713D01*
X107505413Y-131383202D01*
X107517584Y-131360295D01*
X107535237Y-131337002D01*
X107538015Y-131333741D01*
X107552983Y-131317102D01*
X107565265Y-131304902D01*
X107572430Y-131299587D01*
X107572945Y-131299437D01*
X107583784Y-131295402D01*
X107598858Y-131288988D01*
X107614383Y-131284014D01*
X107637064Y-131279107D01*
X107661863Y-131275376D01*
X107666440Y-131275097D01*
X107683366Y-131274646D01*
X107711413Y-131274217D01*
X107750030Y-131273812D01*
X107798665Y-131273433D01*
X107856768Y-131273080D01*
X107923788Y-131272755D01*
X107999172Y-131272460D01*
X108082371Y-131272196D01*
X108172832Y-131271965D01*
X108270006Y-131271769D01*
X108373340Y-131271607D01*
X108482284Y-131271484D01*
X108596287Y-131271399D01*
X108714797Y-131271354D01*
X108837264Y-131271351D01*
X108963136Y-131271391D01*
G37*
G36*
X102759518Y-131079204D02*
G01*
X102803209Y-131079775D01*
X102843345Y-131080669D01*
X102878236Y-131081869D01*
X102906195Y-131083354D01*
X102925532Y-131085105D01*
X102934558Y-131087104D01*
X102937886Y-131087928D01*
X102951980Y-131089467D01*
X102975242Y-131091130D01*
X103005907Y-131092814D01*
X103042211Y-131094415D01*
X103082389Y-131095828D01*
X103101791Y-131096451D01*
X103148090Y-131098062D01*
X103202246Y-131100073D01*
X103261507Y-131102375D01*
X103323124Y-131104861D01*
X103384344Y-131107422D01*
X103442417Y-131109952D01*
X103486512Y-131111814D01*
X103552420Y-131114326D01*
X103624689Y-131116831D01*
X103700123Y-131119227D01*
X103775526Y-131121416D01*
X103847702Y-131123295D01*
X103913454Y-131124765D01*
X103980508Y-131126159D01*
X104081202Y-131128488D01*
X104170667Y-131130889D01*
X104249380Y-131133389D01*
X104317820Y-131136014D01*
X104376467Y-131138792D01*
X104425800Y-131141749D01*
X104466297Y-131144911D01*
X104498436Y-131148306D01*
X104522698Y-131151959D01*
X104539561Y-131155898D01*
X104549504Y-131160149D01*
X104555019Y-131162845D01*
X104569530Y-131168634D01*
X104588507Y-131175456D01*
X104590742Y-131176238D01*
X104625361Y-131191523D01*
X104661480Y-131212491D01*
X104695850Y-131236855D01*
X104725225Y-131262329D01*
X104746358Y-131286624D01*
X104755363Y-131299692D01*
X104777377Y-131332596D01*
X104795043Y-131360467D01*
X104807415Y-131381779D01*
X104813546Y-131395005D01*
X104814604Y-131398225D01*
X104820860Y-131414893D01*
X104828695Y-131433636D01*
X104830579Y-131438059D01*
X104839220Y-131461412D01*
X104846274Y-131484640D01*
X104847754Y-131490314D01*
X104853866Y-131513024D01*
X104859389Y-131532643D01*
X104860566Y-131536868D01*
X104865634Y-131558336D01*
X104869874Y-131580647D01*
X104871089Y-131587386D01*
X104875734Y-131606313D01*
X104880718Y-131619650D01*
X104882412Y-131623963D01*
X104886366Y-131639777D01*
X104890570Y-131662462D01*
X104894361Y-131688656D01*
X104895948Y-131700877D01*
X104899844Y-131728037D01*
X104903652Y-131751303D01*
X104906734Y-131766662D01*
X104909505Y-131779259D01*
X104913427Y-131802217D01*
X104917728Y-131833397D01*
X104922686Y-131874670D01*
X104923393Y-131882844D01*
X104924493Y-131904701D01*
X104925433Y-131934984D01*
X104926211Y-131972121D01*
X104926824Y-132014543D01*
X104927272Y-132060677D01*
X104927550Y-132108952D01*
X104927658Y-132157798D01*
X104927592Y-132205642D01*
X104927350Y-132250914D01*
X104926930Y-132292043D01*
X104926330Y-132327457D01*
X104925548Y-132355586D01*
X104924581Y-132374857D01*
X104923427Y-132383700D01*
X104922771Y-132385677D01*
X104919982Y-132400060D01*
X104917062Y-132423011D01*
X104914319Y-132451805D01*
X104912062Y-132483718D01*
X104911714Y-132489511D01*
X104909389Y-132523021D01*
X104906737Y-132554422D01*
X104904059Y-132580422D01*
X104901655Y-132597727D01*
X104898252Y-132615967D01*
X104889640Y-132658920D01*
X104881276Y-132696391D01*
X104873653Y-132726248D01*
X104867263Y-132746360D01*
X104866465Y-132748515D01*
X104860834Y-132769862D01*
X104858529Y-132790073D01*
X104858219Y-132794858D01*
X104854962Y-132813459D01*
X104848877Y-132838746D01*
X104840863Y-132867421D01*
X104831818Y-132896189D01*
X104822641Y-132921753D01*
X104822142Y-132923044D01*
X104817354Y-132935938D01*
X104810157Y-132955752D01*
X104801907Y-132978757D01*
X104800838Y-132981746D01*
X104791989Y-133005862D01*
X104783768Y-133027313D01*
X104777830Y-133041762D01*
X104775752Y-133046406D01*
X104759594Y-133081855D01*
X104746234Y-133109930D01*
X104736557Y-133128769D01*
X104735823Y-133130098D01*
X104727014Y-133146539D01*
X104717560Y-133164772D01*
X104713985Y-133171655D01*
X104684763Y-133220771D01*
X104648450Y-133272222D01*
X104607706Y-133322463D01*
X104565189Y-133367946D01*
X104557124Y-133375852D01*
X104533352Y-133398641D01*
X104511685Y-133418710D01*
X104494238Y-133434125D01*
X104483125Y-133442951D01*
X104479457Y-133445427D01*
X104443907Y-133469138D01*
X104414859Y-133487819D01*
X104389340Y-133503274D01*
X104364377Y-133517310D01*
X104336997Y-133531734D01*
X104319192Y-133540662D01*
X104297012Y-133551083D01*
X104280051Y-133558219D01*
X104270992Y-133560885D01*
X104262802Y-133562153D01*
X104245983Y-133566307D01*
X104225479Y-133572338D01*
X104204220Y-133578366D01*
X104178132Y-133582859D01*
X104151922Y-133583041D01*
X104121920Y-133578859D01*
X104084454Y-133570258D01*
X104063312Y-133564753D01*
X104018799Y-133552107D01*
X103983980Y-133540297D01*
X103957304Y-133528684D01*
X103937218Y-133516629D01*
X103922170Y-133503496D01*
X103921452Y-133502743D01*
X103909589Y-133492868D01*
X103900007Y-133488797D01*
X103897904Y-133488485D01*
X103886371Y-133483313D01*
X103871984Y-133473796D01*
X103867501Y-133470459D01*
X103855072Y-133462130D01*
X103847982Y-133458795D01*
X103845555Y-133458022D01*
X103834799Y-133451550D01*
X103818770Y-133440106D01*
X103800115Y-133425630D01*
X103781483Y-133410063D01*
X103747866Y-133380492D01*
X103714244Y-133350116D01*
X103689184Y-133326361D01*
X103672206Y-133308783D01*
X103654485Y-133288723D01*
X103628380Y-133257642D01*
X103606088Y-133228367D01*
X103585925Y-133198319D01*
X103566209Y-133164922D01*
X103545256Y-133125596D01*
X103521384Y-133077765D01*
X103513340Y-133061235D01*
X103495886Y-133024504D01*
X103483002Y-132995758D01*
X103473875Y-132973130D01*
X103467689Y-132954755D01*
X103465490Y-132947403D01*
X103458944Y-132926002D01*
X103451998Y-132903751D01*
X103446756Y-132885538D01*
X103439909Y-132858480D01*
X103433944Y-132831746D01*
X103432778Y-132826078D01*
X103422378Y-132778929D01*
X103411142Y-132733047D01*
X103400360Y-132693735D01*
X103396972Y-132680854D01*
X103393704Y-132664910D01*
X103390322Y-132644213D01*
X103386556Y-132616965D01*
X103382140Y-132581370D01*
X103376806Y-132535629D01*
X103375185Y-132522357D01*
X103371784Y-132498927D01*
X103368512Y-132481332D01*
X103365899Y-132472624D01*
X103364104Y-132467330D01*
X103361549Y-132449998D01*
X103359270Y-132422620D01*
X103357271Y-132386379D01*
X103355552Y-132342462D01*
X103354116Y-132292053D01*
X103352963Y-132236340D01*
X103352096Y-132176506D01*
X103351517Y-132113737D01*
X103351226Y-132049220D01*
X103351227Y-131984138D01*
X103351519Y-131919679D01*
X103352106Y-131857027D01*
X103352989Y-131797367D01*
X103354170Y-131741886D01*
X103355649Y-131691769D01*
X103357430Y-131648201D01*
X103359514Y-131612367D01*
X103361902Y-131585454D01*
X103364596Y-131568646D01*
X103365449Y-131564366D01*
X103367689Y-131546788D01*
X103370017Y-131521095D01*
X103372203Y-131490025D01*
X103374018Y-131456314D01*
X103375304Y-131424112D01*
X103375864Y-131395102D01*
X103375296Y-131375115D01*
X103373546Y-131362550D01*
X103370558Y-131355806D01*
X103369487Y-131354867D01*
X103365822Y-131353304D01*
X103359319Y-131351950D01*
X103349216Y-131350789D01*
X103334749Y-131349808D01*
X103315153Y-131348993D01*
X103289665Y-131348328D01*
X103257523Y-131347801D01*
X103217961Y-131347397D01*
X103170216Y-131347101D01*
X103113525Y-131346900D01*
X103047124Y-131346779D01*
X102970250Y-131346724D01*
X102882138Y-131346721D01*
X102853166Y-131346735D01*
X102779330Y-131346856D01*
X102709240Y-131347088D01*
X102643813Y-131347422D01*
X102583966Y-131347849D01*
X102530617Y-131348359D01*
X102484683Y-131348943D01*
X102447082Y-131349590D01*
X102418729Y-131350291D01*
X102400543Y-131351037D01*
X102393441Y-131351819D01*
X102389665Y-131355015D01*
X102379915Y-131368390D01*
X102371754Y-131385029D01*
X102368333Y-131399007D01*
X102367427Y-131403925D01*
X102362271Y-131418186D01*
X102354074Y-131435824D01*
X102352218Y-131439587D01*
X102343037Y-131460746D01*
X102332803Y-131487383D01*
X102323406Y-131514642D01*
X102320072Y-131524838D01*
X102312458Y-131546918D01*
X102306183Y-131563518D01*
X102302354Y-131571646D01*
X102301918Y-131572273D01*
X102297582Y-131582874D01*
X102293527Y-131598649D01*
X102290055Y-131613919D01*
X102283941Y-131636005D01*
X102277511Y-131655430D01*
X102272170Y-131667654D01*
X102268712Y-131676139D01*
X102262830Y-131694001D01*
X102255377Y-131718460D01*
X102247079Y-131746934D01*
X102238662Y-131776842D01*
X102230852Y-131805602D01*
X102224374Y-131830632D01*
X102219955Y-131849350D01*
X102218321Y-131859174D01*
X102217081Y-131865689D01*
X102211951Y-131881092D01*
X102204198Y-131899994D01*
X102202328Y-131904499D01*
X102194795Y-131927888D01*
X102187835Y-131956684D01*
X102182752Y-131985679D01*
X102181042Y-131997711D01*
X102175702Y-132031717D01*
X102169348Y-132068748D01*
X102163013Y-132102688D01*
X102160199Y-132117551D01*
X102154317Y-132152038D01*
X102149265Y-132185945D01*
X102145903Y-132213697D01*
X102145425Y-132218496D01*
X102135918Y-132295249D01*
X102122310Y-132379071D01*
X102122281Y-132379238D01*
X102119253Y-132402570D01*
X102117059Y-132431598D01*
X102116170Y-132460078D01*
X102116157Y-132462276D01*
X102115240Y-132488887D01*
X102113186Y-132513743D01*
X102110406Y-132531722D01*
X102110162Y-132532908D01*
X102108570Y-132546802D01*
X102106908Y-132570632D01*
X102105259Y-132602618D01*
X102103707Y-132640984D01*
X102102332Y-132683950D01*
X102101219Y-132729738D01*
X102100818Y-132750230D01*
X102100015Y-132804542D01*
X102099846Y-132849214D01*
X102100349Y-132886010D01*
X102101562Y-132916691D01*
X102103521Y-132943019D01*
X102106265Y-132966756D01*
X102107249Y-132974763D01*
X102109726Y-133002964D01*
X102111840Y-133038726D01*
X102113576Y-133080270D01*
X102114921Y-133125820D01*
X102115860Y-133173598D01*
X102116379Y-133221828D01*
X102116464Y-133268731D01*
X102116101Y-133312531D01*
X102115276Y-133351450D01*
X102113974Y-133383712D01*
X102112181Y-133407538D01*
X102109884Y-133421152D01*
X102109154Y-133423392D01*
X102093833Y-133461953D01*
X102076487Y-133489567D01*
X102056345Y-133507182D01*
X102032632Y-133515744D01*
X102013344Y-133517447D01*
X101984020Y-133512652D01*
X101955818Y-133497754D01*
X101926820Y-133471959D01*
X101923062Y-133467984D01*
X101908433Y-133451801D01*
X101898168Y-133439300D01*
X101894295Y-133432915D01*
X101894040Y-133431634D01*
X101889225Y-133422249D01*
X101880234Y-133408891D01*
X101874717Y-133400363D01*
X101861656Y-133371323D01*
X101849949Y-133332317D01*
X101840061Y-133284781D01*
X101836489Y-133265456D01*
X101831799Y-133243166D01*
X101827822Y-133227351D01*
X101826336Y-133221299D01*
X101823440Y-133201086D01*
X101822290Y-133179108D01*
X101821727Y-133166598D01*
X101818474Y-133140125D01*
X101813289Y-133114736D01*
X101812651Y-133112142D01*
X101810735Y-133101927D01*
X101809123Y-133088557D01*
X101807792Y-133071048D01*
X101806717Y-133048418D01*
X101805874Y-133019683D01*
X101805238Y-132983862D01*
X101804786Y-132939971D01*
X101804493Y-132887027D01*
X101804335Y-132824049D01*
X101804288Y-132750052D01*
X101804310Y-132713569D01*
X101804525Y-132636286D01*
X101804968Y-132569930D01*
X101805637Y-132514681D01*
X101806529Y-132470716D01*
X101807638Y-132438214D01*
X101808964Y-132417354D01*
X101810502Y-132408314D01*
X101810710Y-132407890D01*
X101813572Y-132396799D01*
X101816766Y-132376674D01*
X101819918Y-132350235D01*
X101822651Y-132320202D01*
X101823917Y-132304463D01*
X101832721Y-132218275D01*
X101844037Y-132141653D01*
X101858141Y-132072686D01*
X101858926Y-132069374D01*
X101863224Y-132051227D01*
X101868987Y-132026891D01*
X101875193Y-132000680D01*
X101883510Y-131966119D01*
X101898172Y-131908520D01*
X101911188Y-131862171D01*
X101922671Y-131826667D01*
X101928144Y-131811166D01*
X101937755Y-131782808D01*
X101944301Y-131761051D01*
X101948689Y-131742725D01*
X101951826Y-131724658D01*
X101954623Y-131710181D01*
X101959762Y-131689707D01*
X101967489Y-131662549D01*
X101978087Y-131627783D01*
X101991839Y-131584482D01*
X102009028Y-131531719D01*
X102029935Y-131468568D01*
X102038039Y-131443596D01*
X102047182Y-131413557D01*
X102054068Y-131388654D01*
X102058135Y-131370955D01*
X102058821Y-131362523D01*
X102056471Y-131358357D01*
X102046241Y-131350050D01*
X102043505Y-131349543D01*
X102029875Y-131348570D01*
X102006986Y-131347722D01*
X101976681Y-131347046D01*
X101940803Y-131346590D01*
X101901194Y-131346398D01*
X101881112Y-131346329D01*
X101816144Y-131345232D01*
X101761825Y-131342573D01*
X101717140Y-131338048D01*
X101681076Y-131331356D01*
X101652620Y-131322194D01*
X101630757Y-131310258D01*
X101614475Y-131295246D01*
X101602759Y-131276855D01*
X101594596Y-131254781D01*
X101591041Y-131240289D01*
X101590386Y-131227342D01*
X101593954Y-131213511D01*
X101602371Y-131193899D01*
X101605512Y-131187140D01*
X101617372Y-131164635D01*
X101628223Y-131151038D01*
X101640178Y-131144295D01*
X101655348Y-131142351D01*
X101660216Y-131142210D01*
X101676361Y-131140701D01*
X101696610Y-131137193D01*
X101723430Y-131131209D01*
X101759285Y-131122275D01*
X101775089Y-131118750D01*
X101801387Y-131114551D01*
X101823497Y-131112824D01*
X101835927Y-131112140D01*
X101861534Y-131108745D01*
X101886502Y-131103504D01*
X101889421Y-131102787D01*
X101901959Y-131100488D01*
X101918726Y-131098545D01*
X101940833Y-131096911D01*
X101969389Y-131095541D01*
X102005506Y-131094388D01*
X102050292Y-131093408D01*
X102104859Y-131092553D01*
X102170317Y-131091778D01*
X102175838Y-131091718D01*
X102235146Y-131090930D01*
X102295249Y-131089879D01*
X102354014Y-131088620D01*
X102409310Y-131087207D01*
X102459002Y-131085694D01*
X102500960Y-131084135D01*
X102533049Y-131082585D01*
X102546825Y-131081869D01*
X102582967Y-131080537D01*
X102623995Y-131079623D01*
X102668222Y-131079109D01*
X102713959Y-131078975D01*
X102759518Y-131079204D01*
G37*
G36*
X113135695Y-132748216D02*
G01*
X113129710Y-132761254D01*
X113123562Y-132775820D01*
X113121179Y-132783223D01*
X113121156Y-132783444D01*
X113118135Y-132791201D01*
X113110810Y-132807178D01*
X113100293Y-132829143D01*
X113087696Y-132854863D01*
X113074129Y-132882103D01*
X113060704Y-132908630D01*
X113048534Y-132932213D01*
X113038728Y-132950616D01*
X113032399Y-132961607D01*
X113032250Y-132961838D01*
X113023816Y-132975117D01*
X113011708Y-132994406D01*
X112998496Y-133015611D01*
X112959056Y-133077262D01*
X112875910Y-133196306D01*
X112788215Y-133308304D01*
X112697845Y-133410791D01*
X112695181Y-133413630D01*
X112673258Y-133437200D01*
X112650582Y-133461874D01*
X112631663Y-133482749D01*
X112616262Y-133499823D01*
X112571868Y-133547374D01*
X112529269Y-133590036D01*
X112484631Y-133631551D01*
X112434125Y-133675661D01*
X112411461Y-133695005D01*
X112382384Y-133719874D01*
X112355750Y-133742709D01*
X112333792Y-133761595D01*
X112318742Y-133774618D01*
X112302851Y-133788158D01*
X112279358Y-133807449D01*
X112258737Y-133823659D01*
X112246928Y-133832854D01*
X112227396Y-133848895D01*
X112212108Y-133862410D01*
X112207178Y-133866587D01*
X112191675Y-133878278D01*
X112168987Y-133894496D01*
X112140967Y-133913996D01*
X112109466Y-133935534D01*
X112076337Y-133957865D01*
X112043431Y-133979743D01*
X112012602Y-133999925D01*
X111985700Y-134017165D01*
X111964577Y-134030219D01*
X111951087Y-134037841D01*
X111946315Y-134040240D01*
X111917912Y-134056791D01*
X111900213Y-134072965D01*
X111892308Y-134090624D01*
X111893287Y-134111631D01*
X111902238Y-134137851D01*
X111917097Y-134171487D01*
X111938891Y-134218533D01*
X111962759Y-134268093D01*
X111987031Y-134316768D01*
X112010034Y-134361159D01*
X112030099Y-134397869D01*
X112040554Y-134416876D01*
X112051225Y-134437550D01*
X112058274Y-134452690D01*
X112062579Y-134462154D01*
X112071924Y-134481566D01*
X112085408Y-134509028D01*
X112102333Y-134543155D01*
X112122005Y-134582561D01*
X112143725Y-134625862D01*
X112166799Y-134671673D01*
X112190530Y-134718609D01*
X112214221Y-134765286D01*
X112237176Y-134810318D01*
X112258700Y-134852320D01*
X112278095Y-134889908D01*
X112279977Y-134893539D01*
X112299951Y-134932178D01*
X112323326Y-134977528D01*
X112348254Y-135025998D01*
X112372888Y-135073994D01*
X112395381Y-135117926D01*
X112402370Y-135131576D01*
X112423065Y-135171772D01*
X112443580Y-135211320D01*
X112462602Y-135247707D01*
X112478819Y-135278418D01*
X112490919Y-135300940D01*
X112493910Y-135306440D01*
X112513948Y-135344231D01*
X112534695Y-135384788D01*
X112555082Y-135425890D01*
X112574037Y-135465318D01*
X112590492Y-135500851D01*
X112603376Y-135530270D01*
X112611619Y-135551354D01*
X112613059Y-135555643D01*
X112621629Y-135592273D01*
X112621242Y-135624658D01*
X112611910Y-135656171D01*
X112609940Y-135660551D01*
X112595380Y-135683590D01*
X112575037Y-135701601D01*
X112547393Y-135715378D01*
X112510929Y-135725714D01*
X112464128Y-135733403D01*
X112457065Y-135734305D01*
X112427356Y-135738272D01*
X112398937Y-135742299D01*
X112377121Y-135745638D01*
X112374922Y-135745983D01*
X112354834Y-135748502D01*
X112326722Y-135751338D01*
X112294007Y-135754170D01*
X112260111Y-135756674D01*
X112223022Y-135759325D01*
X112183330Y-135762448D01*
X112146104Y-135765630D01*
X112116100Y-135768483D01*
X112107335Y-135769333D01*
X112070989Y-135772101D01*
X112032580Y-135774102D01*
X111999091Y-135774949D01*
X111976943Y-135774619D01*
X111942591Y-135773283D01*
X111901639Y-135771102D01*
X111856744Y-135768269D01*
X111810561Y-135764973D01*
X111765746Y-135761407D01*
X111724954Y-135757760D01*
X111690842Y-135754225D01*
X111666065Y-135750992D01*
X111659566Y-135750004D01*
X111633865Y-135746420D01*
X111603265Y-135742487D01*
X111573057Y-135738894D01*
X111541581Y-135734997D01*
X111498115Y-135728938D01*
X111449199Y-135721582D01*
X111397313Y-135713342D01*
X111344932Y-135704632D01*
X111294536Y-135695864D01*
X111248601Y-135687452D01*
X111209605Y-135679809D01*
X111180026Y-135673348D01*
X111165646Y-135669909D01*
X111141718Y-135664169D01*
X111117021Y-135658228D01*
X111098045Y-135653781D01*
X111070738Y-135647697D01*
X111048016Y-135642967D01*
X111032025Y-135639711D01*
X111005209Y-135633948D01*
X110979011Y-135628043D01*
X110978997Y-135628039D01*
X110952774Y-135622191D01*
X110921522Y-135615569D01*
X110892004Y-135609605D01*
X110889996Y-135609210D01*
X110862308Y-135603375D01*
X110835248Y-135597070D01*
X110814409Y-135591595D01*
X110799423Y-135587425D01*
X110780423Y-135583475D01*
X110763334Y-135582696D01*
X110746205Y-135585716D01*
X110727087Y-135593164D01*
X110704029Y-135605667D01*
X110675081Y-135623856D01*
X110638293Y-135648357D01*
X110632618Y-135652177D01*
X110607269Y-135669154D01*
X110585283Y-135683744D01*
X110568850Y-135694499D01*
X110560162Y-135699972D01*
X110558882Y-135700724D01*
X110546173Y-135708908D01*
X110530925Y-135719473D01*
X110527536Y-135721861D01*
X110515140Y-135729779D01*
X110508098Y-135732974D01*
X110507282Y-135733177D01*
X110498603Y-135737628D01*
X110483284Y-135746719D01*
X110464021Y-135758864D01*
X110455721Y-135764137D01*
X110429004Y-135780412D01*
X110398724Y-135798131D01*
X110369963Y-135814298D01*
X110356297Y-135821794D01*
X110330512Y-135836032D01*
X110307824Y-135848672D01*
X110291956Y-135857645D01*
X110276421Y-135866123D01*
X110252860Y-135878383D01*
X110222750Y-135893700D01*
X110187532Y-135911372D01*
X110148645Y-135930695D01*
X110107530Y-135950968D01*
X110065625Y-135971487D01*
X110024371Y-135991550D01*
X109985208Y-136010454D01*
X109949576Y-136027497D01*
X109918915Y-136041976D01*
X109894664Y-136053187D01*
X109878263Y-136060430D01*
X109871152Y-136063000D01*
X109870751Y-136063037D01*
X109862481Y-136065736D01*
X109848828Y-136071406D01*
X109842334Y-136074243D01*
X109819627Y-136083730D01*
X109792022Y-136094833D01*
X109762188Y-136106524D01*
X109732791Y-136117778D01*
X109706501Y-136127569D01*
X109685984Y-136134872D01*
X109673908Y-136138661D01*
X109664977Y-136141279D01*
X109645344Y-136148328D01*
X109624233Y-136157019D01*
X109610597Y-136162618D01*
X109592774Y-136168661D01*
X109581157Y-136171009D01*
X109577045Y-136171824D01*
X109563934Y-136178775D01*
X109549336Y-136190510D01*
X109537159Y-136204318D01*
X109527867Y-136222396D01*
X109521049Y-136247690D01*
X109516688Y-136265979D01*
X109511845Y-136281422D01*
X109508038Y-136288548D01*
X109504947Y-136293164D01*
X109502894Y-136305116D01*
X109502838Y-136306041D01*
X109499269Y-136318190D01*
X109490892Y-136338361D01*
X109478759Y-136364472D01*
X109463924Y-136394441D01*
X109447441Y-136426185D01*
X109430362Y-136457623D01*
X109413740Y-136486673D01*
X109398629Y-136511251D01*
X109393772Y-136518821D01*
X109382076Y-136537639D01*
X109373937Y-136551614D01*
X109370884Y-136558162D01*
X109369018Y-136562237D01*
X109361659Y-136574654D01*
X109350009Y-136593036D01*
X109335464Y-136615137D01*
X109323602Y-136632345D01*
X109288118Y-136679618D01*
X109246505Y-136730378D01*
X109200857Y-136782356D01*
X109153269Y-136833284D01*
X109105834Y-136880892D01*
X109060650Y-136922910D01*
X109019809Y-136957070D01*
X108999137Y-136973258D01*
X108971842Y-136994986D01*
X108946945Y-137015164D01*
X108928011Y-137030922D01*
X108918054Y-137039074D01*
X108891912Y-137058856D01*
X108859755Y-137081755D01*
X108824476Y-137105817D01*
X108788967Y-137129087D01*
X108756122Y-137149612D01*
X108728833Y-137165438D01*
X108698276Y-137181886D01*
X108651855Y-137206091D01*
X108609526Y-137227210D01*
X108572546Y-137244655D01*
X108542176Y-137257842D01*
X108519673Y-137266184D01*
X108506294Y-137269095D01*
X108498933Y-137271092D01*
X108489265Y-137280255D01*
X108487488Y-137288457D01*
X108493684Y-137305070D01*
X108510981Y-137325844D01*
X108539317Y-137350690D01*
X108568117Y-137375020D01*
X108608829Y-137413030D01*
X108654142Y-137458669D01*
X108702870Y-137510668D01*
X108753831Y-137567757D01*
X108805840Y-137628667D01*
X108857714Y-137692128D01*
X108860195Y-137695230D01*
X108878276Y-137717721D01*
X108893491Y-137736455D01*
X108904305Y-137749551D01*
X108909184Y-137755133D01*
X108909479Y-137755417D01*
X108915241Y-137762487D01*
X108925710Y-137776285D01*
X108938850Y-137794136D01*
X108940584Y-137796516D01*
X108953605Y-137814019D01*
X108963814Y-137827121D01*
X108969127Y-137833139D01*
X108969335Y-137833332D01*
X108974407Y-137840032D01*
X108984645Y-137854562D01*
X108998743Y-137875000D01*
X109015395Y-137899420D01*
X109033294Y-137925901D01*
X109051133Y-137952518D01*
X109067607Y-137977349D01*
X109081409Y-137998468D01*
X109082356Y-137999979D01*
X109090350Y-138014219D01*
X109101796Y-138036084D01*
X109115411Y-138062962D01*
X109129914Y-138092242D01*
X109144022Y-138121314D01*
X109156452Y-138147567D01*
X109165922Y-138168388D01*
X109171148Y-138181167D01*
X109177087Y-138200458D01*
X109186069Y-138242925D01*
X109188969Y-138282186D01*
X109185432Y-138314898D01*
X109179694Y-138336834D01*
X109171150Y-138361031D01*
X109160885Y-138377881D01*
X109147060Y-138390112D01*
X109127840Y-138400452D01*
X109120594Y-138403516D01*
X109080300Y-138413508D01*
X109034787Y-138414684D01*
X108986614Y-138406926D01*
X108975936Y-138404431D01*
X108947171Y-138398882D01*
X108920284Y-138394983D01*
X108913664Y-138394174D01*
X108888204Y-138390349D01*
X108854410Y-138384596D01*
X108814774Y-138377402D01*
X108771789Y-138369254D01*
X108727945Y-138360638D01*
X108685735Y-138352040D01*
X108647650Y-138343948D01*
X108616182Y-138336849D01*
X108593823Y-138331227D01*
X108591974Y-138330727D01*
X108575823Y-138326778D01*
X108552999Y-138321602D01*
X108527818Y-138316183D01*
X108523893Y-138315360D01*
X108498135Y-138309875D01*
X108474903Y-138304800D01*
X108458812Y-138301139D01*
X108441477Y-138297112D01*
X108398576Y-138288352D01*
X108366730Y-138283956D01*
X108345979Y-138283927D01*
X108336363Y-138288269D01*
X108336189Y-138288695D01*
X108337136Y-138297591D01*
X108341613Y-138314016D01*
X108348769Y-138334773D01*
X108354573Y-138350545D01*
X108364211Y-138377323D01*
X108375954Y-138410358D01*
X108388822Y-138446898D01*
X108401839Y-138484191D01*
X108412700Y-138515389D01*
X108425811Y-138552876D01*
X108438008Y-138587575D01*
X108448289Y-138616634D01*
X108455649Y-138637203D01*
X108457218Y-138641551D01*
X108465201Y-138664194D01*
X108471538Y-138682980D01*
X108474976Y-138694207D01*
X108475005Y-138694323D01*
X108479621Y-138708335D01*
X108486411Y-138725116D01*
X108486980Y-138726411D01*
X108492532Y-138741002D01*
X108494815Y-138750700D01*
X108495620Y-138755738D01*
X108500231Y-138767794D01*
X108501901Y-138771455D01*
X108507368Y-138786509D01*
X108513011Y-138805216D01*
X108518781Y-138823960D01*
X108527436Y-138849020D01*
X108536885Y-138874221D01*
X108546082Y-138898408D01*
X108554632Y-138922268D01*
X108560525Y-138940227D01*
X108561800Y-138944440D01*
X108567761Y-138962716D01*
X108572792Y-138976229D01*
X108574190Y-138979743D01*
X108577575Y-138989474D01*
X108582405Y-139004655D01*
X108589046Y-139026503D01*
X108597868Y-139056238D01*
X108609238Y-139095078D01*
X108623524Y-139144243D01*
X108625259Y-139150208D01*
X108634724Y-139182272D01*
X108644682Y-139215384D01*
X108653242Y-139243251D01*
X108653699Y-139244717D01*
X108661538Y-139270240D01*
X108668767Y-139294438D01*
X108673876Y-139312256D01*
X108674907Y-139315985D01*
X108680421Y-139335454D01*
X108687705Y-139360709D01*
X108695467Y-139387262D01*
X108701080Y-139406920D01*
X108710078Y-139439913D01*
X108719564Y-139476003D01*
X108728227Y-139510272D01*
X108728938Y-139513156D01*
X108736292Y-139542843D01*
X108745702Y-139580644D01*
X108756383Y-139623415D01*
X108767549Y-139668010D01*
X108778416Y-139711287D01*
X108779406Y-139715228D01*
X108790320Y-139759349D01*
X108801348Y-139805006D01*
X108811712Y-139848911D01*
X108820635Y-139887773D01*
X108827340Y-139918304D01*
X108828043Y-139921630D01*
X108834635Y-139952656D01*
X108840704Y-139980947D01*
X108845602Y-140003500D01*
X108848683Y-140017311D01*
X108852261Y-140032769D01*
X108857575Y-140055756D01*
X108863248Y-140080316D01*
X108868121Y-140103448D01*
X108871590Y-140123788D01*
X108872895Y-140136895D01*
X108874416Y-140151780D01*
X108878620Y-140169897D01*
X108879166Y-140171707D01*
X108883406Y-140188040D01*
X108888700Y-140211039D01*
X108894034Y-140236329D01*
X108894811Y-140240181D01*
X108900131Y-140265964D01*
X108905118Y-140289224D01*
X108908784Y-140305334D01*
X108911439Y-140317485D01*
X108915949Y-140340034D01*
X108921574Y-140369341D01*
X108927811Y-140402715D01*
X108934160Y-140437467D01*
X108940118Y-140470909D01*
X108945183Y-140500349D01*
X108946290Y-140506910D01*
X108950228Y-140529985D01*
X108955116Y-140558363D01*
X108960146Y-140587356D01*
X108961674Y-140596295D01*
X108966802Y-140628500D01*
X108971418Y-140660446D01*
X108974676Y-140686364D01*
X108975209Y-140691011D01*
X108979021Y-140719139D01*
X108984132Y-140751636D01*
X108989589Y-140782372D01*
X108990446Y-140786937D01*
X108996007Y-140819813D01*
X109001059Y-140854562D01*
X109004603Y-140884380D01*
X109006715Y-140903125D01*
X109010970Y-140935049D01*
X109016229Y-140970401D01*
X109021805Y-141004389D01*
X109025954Y-141028988D01*
X109031736Y-141065268D01*
X109036890Y-141099737D01*
X109040652Y-141127399D01*
X109044444Y-141158170D01*
X109050925Y-141211935D01*
X109057480Y-141267570D01*
X109063845Y-141322779D01*
X109069762Y-141375265D01*
X109074969Y-141422733D01*
X109079206Y-141462886D01*
X109082211Y-141493428D01*
X109086114Y-141535241D01*
X109091878Y-141595209D01*
X109097429Y-141650951D01*
X109102509Y-141699890D01*
X109106859Y-141739447D01*
X109108868Y-141758099D01*
X109112815Y-141799863D01*
X109117133Y-141851167D01*
X109121714Y-141910439D01*
X109126449Y-141976110D01*
X109131230Y-142046609D01*
X109135949Y-142120367D01*
X109140498Y-142195814D01*
X109144768Y-142271380D01*
X109148651Y-142345495D01*
X109149720Y-142366681D01*
X109152271Y-142416563D01*
X109155073Y-142470651D01*
X109157855Y-142523711D01*
X109160346Y-142570513D01*
X109161494Y-142596626D01*
X109162607Y-142632186D01*
X109163596Y-142674332D01*
X109164457Y-142721738D01*
X109165185Y-142773074D01*
X109165773Y-142827015D01*
X109166217Y-142882231D01*
X109166511Y-142937396D01*
X109166651Y-142991183D01*
X109166631Y-143042263D01*
X109166446Y-143089309D01*
X109166091Y-143130993D01*
X109165561Y-143165988D01*
X109164851Y-143192967D01*
X109163955Y-143210601D01*
X109162868Y-143217563D01*
X109162529Y-143217613D01*
X109153763Y-143217837D01*
X109133386Y-143218057D01*
X109101718Y-143218274D01*
X109059079Y-143218488D01*
X109005789Y-143218696D01*
X108942167Y-143218901D01*
X108868534Y-143219100D01*
X108785209Y-143219295D01*
X108692512Y-143219483D01*
X108590763Y-143219666D01*
X108480282Y-143219843D01*
X108361389Y-143220013D01*
X108234403Y-143220176D01*
X108099645Y-143220331D01*
X107957434Y-143220480D01*
X107808090Y-143220620D01*
X107651934Y-143220752D01*
X107489284Y-143220875D01*
X107320461Y-143220990D01*
X107145784Y-143221095D01*
X106965574Y-143221191D01*
X106780151Y-143221276D01*
X106589833Y-143221352D01*
X106394941Y-143221416D01*
X106195796Y-143221470D01*
X105992716Y-143221512D01*
X105786021Y-143221543D01*
X105576032Y-143221562D01*
X105363068Y-143221569D01*
X101567270Y-143221574D01*
X101569046Y-143130061D01*
X101569407Y-143115251D01*
X101570708Y-143082787D01*
X101572517Y-143054427D01*
X101574646Y-143032804D01*
X101576905Y-143020548D01*
X101579421Y-143007695D01*
X101582104Y-142983866D01*
X101584856Y-142950280D01*
X101587611Y-142908068D01*
X101590302Y-142858357D01*
X101592862Y-142802276D01*
X101595224Y-142740955D01*
X101597322Y-142675521D01*
X101598427Y-142643602D01*
X101600109Y-142607440D01*
X101602043Y-142575469D01*
X101604070Y-142550292D01*
X101606028Y-142534510D01*
X101607698Y-142523015D01*
X101610277Y-142499616D01*
X101613121Y-142468960D01*
X101615987Y-142433702D01*
X101618634Y-142396499D01*
X101618674Y-142395902D01*
X101624531Y-142308435D01*
X101629804Y-142232786D01*
X101634506Y-142168785D01*
X101638651Y-142116264D01*
X101642253Y-142075057D01*
X101645325Y-142044995D01*
X101647883Y-142025910D01*
X101649938Y-142017634D01*
X101650529Y-142016254D01*
X101653125Y-142004319D01*
X101656391Y-141982621D01*
X101660124Y-141952874D01*
X101664118Y-141916789D01*
X101668169Y-141876079D01*
X101672073Y-141832454D01*
X101672828Y-141823984D01*
X101676726Y-141787046D01*
X101681638Y-141747456D01*
X101686683Y-141712445D01*
X101688614Y-141700046D01*
X101692406Y-141673813D01*
X101696059Y-141645467D01*
X101699795Y-141613039D01*
X101703834Y-141574558D01*
X101708398Y-141528055D01*
X101713708Y-141471560D01*
X101714909Y-141459604D01*
X101717861Y-141436047D01*
X101720898Y-141418135D01*
X101723524Y-141409029D01*
X101725235Y-141403531D01*
X101727955Y-141387691D01*
X101730758Y-141364853D01*
X101733252Y-141337890D01*
X101733821Y-141330757D01*
X101737036Y-141294367D01*
X101740725Y-141260251D01*
X101745340Y-141224893D01*
X101751332Y-141184780D01*
X101759153Y-141136400D01*
X101761029Y-141124764D01*
X101766010Y-141091339D01*
X101770444Y-141058312D01*
X101773549Y-141031391D01*
X101774165Y-141025356D01*
X101775848Y-141010433D01*
X101778019Y-140993414D01*
X101780866Y-140973084D01*
X101784578Y-140948223D01*
X101789343Y-140917616D01*
X101795348Y-140880044D01*
X101802781Y-140834290D01*
X101811832Y-140779137D01*
X101822688Y-140713366D01*
X101824137Y-140704593D01*
X101835757Y-140633562D01*
X101845920Y-140569962D01*
X101855248Y-140509866D01*
X101864359Y-140449345D01*
X101867270Y-140430657D01*
X101871707Y-140404432D01*
X101875654Y-140383340D01*
X101877396Y-140374691D01*
X101879889Y-140361943D01*
X101882932Y-140345949D01*
X101886789Y-140325280D01*
X101891725Y-140298511D01*
X101898002Y-140264213D01*
X101905887Y-140220959D01*
X101915642Y-140167323D01*
X101917587Y-140156631D01*
X101923559Y-140123949D01*
X101928992Y-140094410D01*
X101933353Y-140070902D01*
X101936110Y-140056315D01*
X101939078Y-140040412D01*
X101943432Y-140016084D01*
X101947811Y-139990785D01*
X101947896Y-139990285D01*
X101951957Y-139968708D01*
X101955858Y-139951711D01*
X101958766Y-139942934D01*
X101960387Y-139938966D01*
X101963976Y-139925084D01*
X101967488Y-139906455D01*
X101972269Y-139879115D01*
X101979489Y-139841799D01*
X101988162Y-139799559D01*
X101997566Y-139755741D01*
X102006983Y-139713691D01*
X102015694Y-139676756D01*
X102022979Y-139648282D01*
X102027273Y-139632197D01*
X102033473Y-139607745D01*
X102038044Y-139588278D01*
X102039018Y-139583971D01*
X102043407Y-139565760D01*
X102049986Y-139539335D01*
X102058128Y-139507140D01*
X102067205Y-139471624D01*
X102076592Y-139435231D01*
X102085661Y-139400408D01*
X102093785Y-139369602D01*
X102100336Y-139345259D01*
X102101603Y-139340476D01*
X102107310Y-139316507D01*
X102113564Y-139287346D01*
X102119225Y-139258252D01*
X102123941Y-139234653D01*
X102135211Y-139187005D01*
X102149075Y-139136187D01*
X102164208Y-139087238D01*
X102166070Y-139081207D01*
X102171107Y-139062988D01*
X102176333Y-139042235D01*
X102181309Y-139023100D01*
X102188913Y-138996450D01*
X102196956Y-138970229D01*
X102197893Y-138967298D01*
X102206679Y-138939445D01*
X102216664Y-138907293D01*
X102225867Y-138877222D01*
X102237974Y-138837222D01*
X102253537Y-138785669D01*
X102265673Y-138745275D01*
X102274437Y-138715851D01*
X102279888Y-138697208D01*
X102286398Y-138676332D01*
X102293748Y-138655204D01*
X102294534Y-138653078D01*
X102301864Y-138631879D01*
X102308729Y-138610201D01*
X102309834Y-138606532D01*
X102316100Y-138586946D01*
X102321653Y-138571198D01*
X102322069Y-138570090D01*
X102326317Y-138558016D01*
X102333530Y-138536905D01*
X102343037Y-138508741D01*
X102354168Y-138475507D01*
X102366254Y-138439187D01*
X102369490Y-138429439D01*
X102389881Y-138368501D01*
X102407326Y-138317265D01*
X102421670Y-138276172D01*
X102432761Y-138245660D01*
X102440445Y-138226170D01*
X102442660Y-138220777D01*
X102448986Y-138204814D01*
X102457649Y-138182589D01*
X102467452Y-138157165D01*
X102469479Y-138151880D01*
X102489140Y-138100924D01*
X102504884Y-138060711D01*
X102516905Y-138030762D01*
X102525395Y-138010597D01*
X102530546Y-137999734D01*
X102533672Y-137993232D01*
X102536346Y-137983734D01*
X102537605Y-137979436D01*
X102542814Y-137965569D01*
X102551260Y-137944344D01*
X102562070Y-137917857D01*
X102574373Y-137888205D01*
X102587297Y-137857484D01*
X102599971Y-137827793D01*
X102611522Y-137801228D01*
X102621079Y-137779887D01*
X102624913Y-137771358D01*
X102635378Y-137747025D01*
X102645065Y-137723327D01*
X102645261Y-137722833D01*
X102652607Y-137705201D01*
X102663529Y-137680096D01*
X102676584Y-137650793D01*
X102690330Y-137620567D01*
X102691648Y-137617699D01*
X102704946Y-137588687D01*
X102717104Y-137562018D01*
X102726826Y-137540544D01*
X102732815Y-137527115D01*
X102733471Y-137525642D01*
X102739906Y-137511993D01*
X102750836Y-137489451D01*
X102765500Y-137459547D01*
X102783134Y-137423810D01*
X102802977Y-137383769D01*
X102824264Y-137340955D01*
X102846235Y-137296896D01*
X102868126Y-137253124D01*
X102889175Y-137211166D01*
X102908618Y-137172553D01*
X102925695Y-137138815D01*
X102939641Y-137111481D01*
X102949695Y-137092081D01*
X102956806Y-137078540D01*
X102974113Y-137045438D01*
X102992528Y-137010062D01*
X103009105Y-136978072D01*
X103018798Y-136959436D01*
X103033639Y-136931327D01*
X103047113Y-136906262D01*
X103057178Y-136888065D01*
X103062593Y-136878428D01*
X103075146Y-136855631D01*
X103089863Y-136828511D01*
X103104571Y-136801058D01*
X103113400Y-136784516D01*
X103127482Y-136758364D01*
X103139834Y-136735686D01*
X103148519Y-136720052D01*
X103155282Y-136707977D01*
X103167122Y-136686546D01*
X103181403Y-136660493D01*
X103196351Y-136633045D01*
X103222428Y-136585309D01*
X103249798Y-136535914D01*
X103274839Y-136491467D01*
X103296741Y-136453390D01*
X103314696Y-136423103D01*
X103327894Y-136402027D01*
X103362093Y-136349989D01*
X103391158Y-136305306D01*
X103414373Y-136269004D01*
X103432208Y-136240309D01*
X103445133Y-136218448D01*
X103453619Y-136202647D01*
X103458136Y-136192133D01*
X103459155Y-136186131D01*
X103458057Y-136182036D01*
X103450351Y-136174661D01*
X103433416Y-136170198D01*
X103432868Y-136170111D01*
X103400306Y-136164582D01*
X103367307Y-136158392D01*
X103337973Y-136152346D01*
X103316407Y-136147250D01*
X103309032Y-136145290D01*
X103277739Y-136137127D01*
X103244823Y-136128735D01*
X103213590Y-136120941D01*
X103187346Y-136114572D01*
X103169396Y-136110456D01*
X103159286Y-136108141D01*
X103135985Y-136102229D01*
X103112391Y-136095688D01*
X103099614Y-136092021D01*
X103075958Y-136085490D01*
X103056887Y-136080525D01*
X103056635Y-136080463D01*
X103034220Y-136074966D01*
X103011883Y-136069495D01*
X102997569Y-136065793D01*
X102972129Y-136058641D01*
X102943583Y-136050137D01*
X102914372Y-136041058D01*
X102886936Y-136032183D01*
X102863713Y-136024290D01*
X102847145Y-136018158D01*
X102839670Y-136014563D01*
X102834669Y-136011558D01*
X102821894Y-136008996D01*
X102817248Y-136008326D01*
X102801889Y-136004050D01*
X102780296Y-135996696D01*
X102755589Y-135987286D01*
X102735776Y-135979329D01*
X102700144Y-135964923D01*
X102663962Y-135950194D01*
X102630154Y-135936337D01*
X102601642Y-135924548D01*
X102581349Y-135916022D01*
X102572046Y-135912129D01*
X102552629Y-135904145D01*
X102527680Y-135893975D01*
X102500343Y-135882905D01*
X102498079Y-135881985D01*
X102470978Y-135870330D01*
X102435568Y-135854250D01*
X102393593Y-135834607D01*
X102346799Y-135812264D01*
X102296930Y-135788081D01*
X102245731Y-135762922D01*
X102194947Y-135737649D01*
X102146321Y-135713124D01*
X102101600Y-135690209D01*
X102062526Y-135669766D01*
X102030846Y-135652658D01*
X102008304Y-135639747D01*
X101991883Y-135629707D01*
X101958179Y-135608698D01*
X101922965Y-135586346D01*
X101891635Y-135566056D01*
X101872464Y-135553789D01*
X101840888Y-135534609D01*
X101810047Y-135516907D01*
X101784509Y-135503358D01*
X101765366Y-135494177D01*
X101746949Y-135486994D01*
X101730295Y-135483760D01*
X101712853Y-135484647D01*
X101692069Y-135489828D01*
X101665394Y-135499473D01*
X101630274Y-135513756D01*
X101588479Y-135530876D01*
X101545732Y-135547743D01*
X101510995Y-135560557D01*
X101482696Y-135569892D01*
X101459261Y-135576324D01*
X101455604Y-135577215D01*
X101433451Y-135582866D01*
X101405970Y-135590155D01*
X101378255Y-135597734D01*
X101362005Y-135602225D01*
X101327089Y-135611445D01*
X101297924Y-135618191D01*
X101270417Y-135623257D01*
X101240478Y-135627435D01*
X101204015Y-135631520D01*
X101194553Y-135632376D01*
X101161770Y-135634175D01*
X101120703Y-135635230D01*
X101073888Y-135635582D01*
X101023858Y-135635271D01*
X100973149Y-135634339D01*
X100924295Y-135632826D01*
X100879831Y-135630774D01*
X100842291Y-135628224D01*
X100814210Y-135625216D01*
X100812284Y-135624949D01*
X100790104Y-135622554D01*
X100760064Y-135620105D01*
X100725863Y-135617876D01*
X100691201Y-135616140D01*
X100661146Y-135614730D01*
X100618427Y-135611873D01*
X100578555Y-135607839D01*
X100536687Y-135602103D01*
X100487981Y-135594142D01*
X100473537Y-135591995D01*
X100446581Y-135588760D01*
X100414985Y-135585564D01*
X100382973Y-135582862D01*
X100315045Y-135576435D01*
X100236158Y-135566476D01*
X100148158Y-135553183D01*
X100126710Y-135549817D01*
X100098074Y-135545488D01*
X100070152Y-135541403D01*
X100044891Y-135537502D01*
X100010785Y-135531667D01*
X99980145Y-135525891D01*
X99962058Y-135522367D01*
X99931249Y-135516641D01*
X99896734Y-135510452D01*
X99863135Y-135504638D01*
X99837200Y-135499976D01*
X99804077Y-135493353D01*
X99774300Y-135486720D01*
X99752127Y-135480982D01*
X99732874Y-135475791D01*
X99701244Y-135468490D01*
X99672163Y-135462975D01*
X99651630Y-135459202D01*
X99602572Y-135445070D01*
X99563485Y-135425465D01*
X99534628Y-135400656D01*
X99516259Y-135370909D01*
X99508638Y-135336493D01*
X99512024Y-135297675D01*
X99515155Y-135285873D01*
X99524811Y-135259936D01*
X99539767Y-135228237D01*
X99560375Y-135190163D01*
X99586990Y-135145104D01*
X99619966Y-135092449D01*
X99659657Y-135031586D01*
X99706415Y-134961903D01*
X99713664Y-134951215D01*
X99738402Y-134914679D01*
X99764452Y-134876128D01*
X99789129Y-134839543D01*
X99809744Y-134808901D01*
X99813266Y-134803665D01*
X99853042Y-134745433D01*
X99897167Y-134682271D01*
X99943832Y-134616683D01*
X99991228Y-134551170D01*
X100037547Y-134488234D01*
X100080978Y-134430379D01*
X100119714Y-134380106D01*
X100125850Y-134372272D01*
X100147852Y-134344101D01*
X100170520Y-134314979D01*
X100189811Y-134290099D01*
X100212196Y-134261746D01*
X100257730Y-134206942D01*
X100306059Y-134151951D01*
X100354118Y-134100219D01*
X100398840Y-134055191D01*
X100406182Y-134048046D01*
X100428163Y-134025740D01*
X100445167Y-134007036D01*
X100455891Y-133993424D01*
X100459034Y-133986391D01*
X100453448Y-133980246D01*
X100438289Y-133967945D01*
X100414243Y-133950116D01*
X100381948Y-133927221D01*
X100342044Y-133899721D01*
X100295169Y-133868077D01*
X100287903Y-133862999D01*
X100269138Y-133849036D01*
X100246420Y-133831408D01*
X100223164Y-133812737D01*
X100213504Y-133804866D01*
X100184015Y-133781094D01*
X100152445Y-133755926D01*
X100124156Y-133733646D01*
X100112300Y-133724204D01*
X100076590Y-133694200D01*
X100034645Y-133657144D01*
X99987817Y-133614329D01*
X99937459Y-133567049D01*
X99884923Y-133516596D01*
X99831561Y-133464264D01*
X99778726Y-133411345D01*
X99727769Y-133359134D01*
X99680042Y-133308923D01*
X99672964Y-133301363D01*
X99646632Y-133273266D01*
X99622720Y-133247793D01*
X99602672Y-133226479D01*
X99587932Y-133210860D01*
X99579943Y-133202473D01*
X99569500Y-133190709D01*
X99561942Y-133180345D01*
X99557669Y-133174360D01*
X99546811Y-133161331D01*
X99532789Y-133145785D01*
X99525550Y-133137586D01*
X99509981Y-133118712D01*
X99490324Y-133093936D01*
X99468373Y-133065529D01*
X99445919Y-133035762D01*
X99428702Y-133012710D01*
X99410058Y-132987930D01*
X99394857Y-132967930D01*
X99384333Y-132954331D01*
X99379719Y-132948755D01*
X99375158Y-132943086D01*
X99365938Y-132930073D01*
X99354253Y-132912752D01*
X99343711Y-132897056D01*
X99325524Y-132870677D01*
X99308558Y-132846747D01*
X99296551Y-132829505D01*
X99287821Y-132815720D01*
X99284382Y-132808548D01*
X99282196Y-132803499D01*
X99274489Y-132791032D01*
X99263191Y-132774881D01*
X99248420Y-132752948D01*
X99232884Y-132726477D01*
X99525868Y-132726477D01*
X99527368Y-132733222D01*
X99532692Y-132743298D01*
X99542790Y-132758188D01*
X99558614Y-132779378D01*
X99581113Y-132808350D01*
X99592129Y-132822498D01*
X99611504Y-132847673D01*
X99629117Y-132870853D01*
X99632399Y-132875170D01*
X99649303Y-132896681D01*
X99669484Y-132921558D01*
X99689262Y-132945250D01*
X99695912Y-132953089D01*
X99713839Y-132974382D01*
X99729556Y-132993258D01*
X99740266Y-133006367D01*
X99741853Y-133008351D01*
X99787353Y-133062624D01*
X99841527Y-133122875D01*
X99903383Y-133188062D01*
X99971932Y-133257140D01*
X100046185Y-133329065D01*
X100060050Y-133342259D01*
X100089887Y-133370706D01*
X100119374Y-133398886D01*
X100145727Y-133424134D01*
X100166159Y-133443786D01*
X100173864Y-133451134D01*
X100201637Y-133476675D01*
X100231474Y-133503024D01*
X100258124Y-133525512D01*
X100272108Y-133536915D01*
X100303528Y-133562538D01*
X100327409Y-133582018D01*
X100345032Y-133596402D01*
X100357679Y-133606738D01*
X100366633Y-133614071D01*
X100373175Y-133619450D01*
X100382446Y-133626996D01*
X100406361Y-133646033D01*
X100434913Y-133668381D01*
X100464791Y-133691475D01*
X100492686Y-133712747D01*
X100515287Y-133729630D01*
X100515655Y-133729900D01*
X100532516Y-133741747D01*
X100554927Y-133756805D01*
X100580942Y-133773843D01*
X100608618Y-133791632D01*
X100636010Y-133808944D01*
X100661172Y-133824548D01*
X100682162Y-133837216D01*
X100697033Y-133845719D01*
X100703842Y-133848826D01*
X100707927Y-133850234D01*
X100719828Y-133858622D01*
X100735679Y-133872518D01*
X100753101Y-133889548D01*
X100769713Y-133907340D01*
X100783136Y-133923520D01*
X100790990Y-133935718D01*
X100792723Y-133939738D01*
X100800436Y-133968936D01*
X100800717Y-133997789D01*
X100794180Y-134023654D01*
X100781440Y-134043886D01*
X100763109Y-134055842D01*
X100763065Y-134055857D01*
X100745039Y-134063774D01*
X100727106Y-134074367D01*
X100725594Y-134075414D01*
X100710962Y-134084630D01*
X100699829Y-134090247D01*
X100689337Y-134096210D01*
X100671157Y-134109757D01*
X100647522Y-134129242D01*
X100619947Y-134153252D01*
X100589945Y-134180374D01*
X100559030Y-134209195D01*
X100528716Y-134238301D01*
X100500516Y-134266280D01*
X100475944Y-134291719D01*
X100456514Y-134313203D01*
X100443739Y-134329322D01*
X100441633Y-134332215D01*
X100431652Y-134345005D01*
X100416271Y-134364084D01*
X100397159Y-134387392D01*
X100375989Y-134412870D01*
X100338173Y-134458832D01*
X100274039Y-134541067D01*
X100219807Y-134616886D01*
X100203616Y-134639793D01*
X100185611Y-134663745D01*
X100170151Y-134682891D01*
X100169979Y-134683092D01*
X100157436Y-134698849D01*
X100140542Y-134721576D01*
X100121489Y-134748263D01*
X100102469Y-134775899D01*
X100089689Y-134794792D01*
X100067547Y-134827357D01*
X100042379Y-134864226D01*
X100016401Y-134902158D01*
X99991824Y-134937912D01*
X99990226Y-134940233D01*
X99969604Y-134970359D01*
X99951328Y-134997378D01*
X99936524Y-135019603D01*
X99926315Y-135035346D01*
X99921827Y-135042920D01*
X99920719Y-135045164D01*
X99913130Y-135057793D01*
X99900412Y-135077286D01*
X99884032Y-135101494D01*
X99865457Y-135128270D01*
X99846154Y-135155465D01*
X99827590Y-135180931D01*
X99825433Y-135183858D01*
X99810380Y-135205243D01*
X99797491Y-135225043D01*
X99789354Y-135239304D01*
X99785232Y-135249942D01*
X99785109Y-135264100D01*
X99794272Y-135274182D01*
X99813572Y-135280902D01*
X99843863Y-135284976D01*
X99868838Y-135287669D01*
X99902019Y-135292421D01*
X99932141Y-135297820D01*
X99942505Y-135299928D01*
X100001089Y-135310721D01*
X100051695Y-135317836D01*
X100097154Y-135321682D01*
X100119235Y-135323477D01*
X100145554Y-135326898D01*
X100166159Y-135330928D01*
X100180822Y-135334236D01*
X100201024Y-135337717D01*
X100227245Y-135341291D01*
X100260972Y-135345139D01*
X100303696Y-135349446D01*
X100356903Y-135354394D01*
X100381220Y-135356763D01*
X100404938Y-135359458D01*
X100421925Y-135361836D01*
X100429568Y-135363567D01*
X100435891Y-135364913D01*
X100452030Y-135366738D01*
X100475218Y-135368661D01*
X100502845Y-135370436D01*
X100527579Y-135372039D01*
X100551667Y-135374091D01*
X100569092Y-135376141D01*
X100577192Y-135377921D01*
X100582839Y-135379091D01*
X100598935Y-135380759D01*
X100623239Y-135382569D01*
X100653683Y-135384370D01*
X100688200Y-135386012D01*
X100708976Y-135386947D01*
X100750459Y-135389105D01*
X100791363Y-135391562D01*
X100827883Y-135394083D01*
X100856214Y-135396433D01*
X100867372Y-135397379D01*
X100899259Y-135399293D01*
X100937237Y-135400751D01*
X100979298Y-135401753D01*
X101023432Y-135402302D01*
X101067629Y-135402398D01*
X101109881Y-135402044D01*
X101148177Y-135401242D01*
X101180509Y-135399992D01*
X101204867Y-135398296D01*
X101219242Y-135396155D01*
X101233117Y-135392945D01*
X101257251Y-135388513D01*
X101282247Y-135384886D01*
X101311885Y-135380137D01*
X101359062Y-135369442D01*
X101409977Y-135354983D01*
X101460692Y-135337906D01*
X101507265Y-135319359D01*
X101507802Y-135319126D01*
X101519904Y-135314155D01*
X101539022Y-135306562D01*
X101561269Y-135297894D01*
X101562068Y-135297585D01*
X101585198Y-135288325D01*
X101605855Y-135279521D01*
X101619651Y-135273041D01*
X101620366Y-135272667D01*
X101647010Y-135261008D01*
X101677661Y-135250935D01*
X101707469Y-135243832D01*
X101731587Y-135241083D01*
X101749561Y-135242928D01*
X101773391Y-135250344D01*
X101803592Y-135264341D01*
X101804989Y-135265057D01*
X101843109Y-135285309D01*
X101880445Y-135306354D01*
X101913630Y-135326242D01*
X101939299Y-135343021D01*
X101941063Y-135344254D01*
X101966764Y-135361611D01*
X101996002Y-135380516D01*
X102024331Y-135398145D01*
X102047307Y-135411671D01*
X102062639Y-135420620D01*
X102084940Y-135434252D01*
X102107312Y-135448435D01*
X102127042Y-135461039D01*
X102145640Y-135472593D01*
X102158316Y-135480104D01*
X102161314Y-135481746D01*
X102178200Y-135490637D01*
X102202580Y-135503130D01*
X102232800Y-135518405D01*
X102267203Y-135535646D01*
X102304134Y-135554034D01*
X102341937Y-135572750D01*
X102378956Y-135590977D01*
X102413536Y-135607897D01*
X102444020Y-135622692D01*
X102468753Y-135634542D01*
X102486079Y-135642631D01*
X102494343Y-135646140D01*
X102503180Y-135649410D01*
X102521376Y-135657070D01*
X102545118Y-135667615D01*
X102571524Y-135679787D01*
X102594408Y-135690445D01*
X102615433Y-135700058D01*
X102630139Y-135706574D01*
X102636262Y-135708972D01*
X102637375Y-135709269D01*
X102646896Y-135712967D01*
X102663707Y-135720005D01*
X102685090Y-135729253D01*
X102688766Y-135730860D01*
X102714718Y-135742011D01*
X102739558Y-135752404D01*
X102758363Y-135759973D01*
X102766293Y-135763052D01*
X102784548Y-135770232D01*
X102797366Y-135775394D01*
X102809067Y-135779876D01*
X102827908Y-135786354D01*
X102847451Y-135792533D01*
X102863697Y-135797159D01*
X102872647Y-135798979D01*
X102875488Y-135799493D01*
X102887539Y-135803647D01*
X102903940Y-135810609D01*
X102920786Y-135817202D01*
X102945749Y-135825198D01*
X102971380Y-135831995D01*
X102971618Y-135832051D01*
X102994332Y-135837621D01*
X103013639Y-135842868D01*
X103025384Y-135846662D01*
X103030805Y-135848775D01*
X103048790Y-135855138D01*
X103071275Y-135862546D01*
X103095088Y-135870016D01*
X103117055Y-135876567D01*
X103134006Y-135881218D01*
X103142766Y-135882986D01*
X103144551Y-135883157D01*
X103156607Y-135885752D01*
X103175854Y-135890816D01*
X103199043Y-135897512D01*
X103201368Y-135898206D01*
X103230116Y-135906221D01*
X103259465Y-135913577D01*
X103283405Y-135918758D01*
X103298566Y-135921690D01*
X103324711Y-135927091D01*
X103346410Y-135931957D01*
X103353879Y-135933734D01*
X103378262Y-135939283D01*
X103403442Y-135944535D01*
X103432186Y-135950026D01*
X103467258Y-135956290D01*
X103511423Y-135963861D01*
X103548189Y-135970134D01*
X103590136Y-135977372D01*
X103630612Y-135984429D01*
X103664435Y-135990406D01*
X103674603Y-135992150D01*
X103742187Y-136000181D01*
X103816186Y-136002861D01*
X103850426Y-136003348D01*
X103883437Y-136005454D01*
X103908669Y-136009822D01*
X103928420Y-136017086D01*
X103944988Y-136027884D01*
X103960672Y-136042851D01*
X103962484Y-136044860D01*
X103978984Y-136071729D01*
X103985301Y-136101203D01*
X103982214Y-136131309D01*
X103970502Y-136160071D01*
X103950943Y-136185514D01*
X103924316Y-136205664D01*
X103891400Y-136218545D01*
X103889557Y-136218961D01*
X103866861Y-136221913D01*
X103835862Y-136223377D01*
X103799804Y-136223406D01*
X103761929Y-136222051D01*
X103725482Y-136219364D01*
X103693705Y-136215396D01*
X103681152Y-136214209D01*
X103668672Y-136217655D01*
X103655827Y-136228946D01*
X103647110Y-136239199D01*
X103630670Y-136261212D01*
X103610339Y-136290509D01*
X103587293Y-136325246D01*
X103562709Y-136363581D01*
X103537764Y-136403671D01*
X103513634Y-136443672D01*
X103491496Y-136481741D01*
X103472528Y-136516036D01*
X103472177Y-136516692D01*
X103458912Y-136541379D01*
X103445626Y-136565901D01*
X103435146Y-136585041D01*
X103425506Y-136602557D01*
X103412179Y-136626908D01*
X103399031Y-136651046D01*
X103384723Y-136677278D01*
X103357284Y-136726958D01*
X103332482Y-136771056D01*
X103325546Y-136783646D01*
X103314311Y-136804580D01*
X103300646Y-136830380D01*
X103286143Y-136858063D01*
X103274065Y-136881221D01*
X103256646Y-136914561D01*
X103239998Y-136946363D01*
X103226504Y-136972072D01*
X103213098Y-136997678D01*
X103168369Y-137084875D01*
X103121986Y-137178004D01*
X103073080Y-137278826D01*
X103020783Y-137389105D01*
X103014774Y-137401893D01*
X102998481Y-137436515D01*
X102981154Y-137473280D01*
X102965655Y-137506114D01*
X102958017Y-137522277D01*
X102943144Y-137553768D01*
X102928884Y-137583978D01*
X102917495Y-137608122D01*
X102916858Y-137609478D01*
X102906615Y-137632141D01*
X102893655Y-137661949D01*
X102879572Y-137695184D01*
X102865964Y-137728131D01*
X102862200Y-137737340D01*
X102850663Y-137765007D01*
X102840694Y-137788108D01*
X102833253Y-137804449D01*
X102829301Y-137811838D01*
X102827963Y-137813671D01*
X102824368Y-137825175D01*
X102822581Y-137832643D01*
X102816888Y-137848164D01*
X102808647Y-137867478D01*
X102797007Y-137893249D01*
X102786909Y-137916000D01*
X102780577Y-137930953D01*
X102777299Y-137939798D01*
X102776365Y-137944227D01*
X102776349Y-137944414D01*
X102773923Y-137952174D01*
X102767963Y-137968600D01*
X102759319Y-137991412D01*
X102748836Y-138018326D01*
X102737775Y-138046476D01*
X102727240Y-138073452D01*
X102718751Y-138095363D01*
X102713493Y-138109161D01*
X102708117Y-138123451D01*
X102699663Y-138145676D01*
X102690656Y-138169166D01*
X102683015Y-138189024D01*
X102670460Y-138221825D01*
X102661132Y-138246583D01*
X102654276Y-138265397D01*
X102649135Y-138280368D01*
X102644955Y-138293595D01*
X102640978Y-138307177D01*
X102639602Y-138311844D01*
X102631976Y-138335300D01*
X102622053Y-138363447D01*
X102611614Y-138391183D01*
X102607663Y-138401303D01*
X102589955Y-138447233D01*
X102576622Y-138482965D01*
X102567412Y-138509214D01*
X102562072Y-138526696D01*
X102560348Y-138536125D01*
X102559756Y-138540491D01*
X102556262Y-138555348D01*
X102550329Y-138576852D01*
X102542765Y-138601981D01*
X102539632Y-138612032D01*
X102528863Y-138646885D01*
X102517363Y-138684462D01*
X102507141Y-138718209D01*
X102498537Y-138746738D01*
X102487439Y-138783356D01*
X102475908Y-138821238D01*
X102464595Y-138858259D01*
X102454152Y-138892293D01*
X102445229Y-138921217D01*
X102438477Y-138942903D01*
X102434547Y-138955228D01*
X102431380Y-138965372D01*
X102425055Y-138987098D01*
X102417709Y-139013423D01*
X102410496Y-139040188D01*
X102404569Y-139063236D01*
X102402129Y-139072469D01*
X102396365Y-139092986D01*
X102388801Y-139119068D01*
X102380434Y-139147243D01*
X102372909Y-139172611D01*
X102357852Y-139226290D01*
X102346435Y-139272076D01*
X102338069Y-139312256D01*
X102335880Y-139323223D01*
X102329768Y-139349894D01*
X102323123Y-139375261D01*
X102319744Y-139387225D01*
X102306570Y-139436995D01*
X102296774Y-139480269D01*
X102296028Y-139483810D01*
X102291576Y-139503274D01*
X102285432Y-139528611D01*
X102278692Y-139555275D01*
X102263738Y-139615386D01*
X102246118Y-139694762D01*
X102230413Y-139777293D01*
X102224563Y-139809538D01*
X102217473Y-139846609D01*
X102210733Y-139879879D01*
X102204889Y-139906670D01*
X102200486Y-139924304D01*
X102195814Y-139942830D01*
X102191580Y-139963307D01*
X102191237Y-139965220D01*
X102187153Y-139986492D01*
X102182622Y-140008311D01*
X102179370Y-140024512D01*
X102174909Y-140048912D01*
X102170608Y-140074316D01*
X102166754Y-140096254D01*
X102160987Y-140125167D01*
X102155469Y-140149322D01*
X102151111Y-140168194D01*
X102145361Y-140196754D01*
X102140563Y-140224328D01*
X102139759Y-140229430D01*
X102135141Y-140257747D01*
X102129130Y-140293516D01*
X102122334Y-140333199D01*
X102115365Y-140373257D01*
X102108831Y-140410152D01*
X102103343Y-140440345D01*
X102099881Y-140461494D01*
X102096028Y-140488938D01*
X102092676Y-140516399D01*
X102092230Y-140520301D01*
X102089059Y-140542980D01*
X102085630Y-140560876D01*
X102082611Y-140570403D01*
X102081519Y-140573124D01*
X102078678Y-140586574D01*
X102075793Y-140607393D01*
X102073347Y-140632360D01*
X102072833Y-140638452D01*
X102069286Y-140672511D01*
X102064554Y-140709832D01*
X102059516Y-140743369D01*
X102058261Y-140750994D01*
X102053068Y-140784605D01*
X102048155Y-140819198D01*
X102044439Y-140848377D01*
X102041456Y-140873708D01*
X102035406Y-140921264D01*
X102029574Y-140961032D01*
X102023520Y-140995876D01*
X102016805Y-141028660D01*
X102010965Y-141058097D01*
X102005531Y-141090524D01*
X102001787Y-141118398D01*
X101997829Y-141154859D01*
X101992979Y-141198301D01*
X101988989Y-141232090D01*
X101985680Y-141257581D01*
X101982872Y-141276129D01*
X101980387Y-141289086D01*
X101978046Y-141297808D01*
X101976514Y-141303518D01*
X101973499Y-141323098D01*
X101972301Y-141344706D01*
X101972017Y-141353974D01*
X101969759Y-141373074D01*
X101965985Y-141386010D01*
X101964289Y-141390633D01*
X101960594Y-141408001D01*
X101956383Y-141435702D01*
X101951776Y-141472659D01*
X101946895Y-141517790D01*
X101941860Y-141570017D01*
X101936792Y-141628262D01*
X101931811Y-141691443D01*
X101930133Y-141710954D01*
X101927377Y-141735283D01*
X101924513Y-141753464D01*
X101921946Y-141762583D01*
X101920492Y-141766448D01*
X101917443Y-141781018D01*
X101914251Y-141802758D01*
X101911408Y-141828588D01*
X101910842Y-141834658D01*
X101907503Y-141870559D01*
X101903912Y-141909291D01*
X101900754Y-141943463D01*
X101899401Y-141957914D01*
X101895972Y-141993433D01*
X101892161Y-142031796D01*
X101888573Y-142066891D01*
X101886669Y-142085940D01*
X101883636Y-142119403D01*
X101881142Y-142150680D01*
X101879592Y-142174900D01*
X101879258Y-142181061D01*
X101877280Y-142208249D01*
X101874485Y-142238272D01*
X101871215Y-142268167D01*
X101867811Y-142294977D01*
X101864617Y-142315739D01*
X101861973Y-142327493D01*
X101861669Y-142328566D01*
X101859825Y-142339966D01*
X101857404Y-142360262D01*
X101854687Y-142386944D01*
X101851953Y-142417500D01*
X101847817Y-142465556D01*
X101842948Y-142517637D01*
X101837925Y-142565594D01*
X101832287Y-142613773D01*
X101825576Y-142666520D01*
X101822432Y-142691781D01*
X101818576Y-142726235D01*
X101815466Y-142757947D01*
X101813573Y-142782347D01*
X101811683Y-142806430D01*
X101808539Y-142834598D01*
X101805052Y-142857353D01*
X101804574Y-142859954D01*
X101801212Y-142882687D01*
X101797964Y-142911055D01*
X101795473Y-142939542D01*
X101795393Y-142940652D01*
X101792806Y-142972303D01*
X101789545Y-143006328D01*
X101786297Y-143035549D01*
X101785718Y-143040426D01*
X101782774Y-143070183D01*
X101780119Y-143104206D01*
X101778269Y-143136057D01*
X101775793Y-143191561D01*
X105374752Y-143191561D01*
X108973711Y-143191561D01*
X108970899Y-143166059D01*
X108968907Y-143149383D01*
X108965660Y-143124311D01*
X108962124Y-143098554D01*
X108961011Y-143090416D01*
X108956938Y-143055636D01*
X108952683Y-143011594D01*
X108948212Y-142957835D01*
X108943493Y-142893904D01*
X108938489Y-142819344D01*
X108933168Y-142733700D01*
X108927494Y-142636518D01*
X108925298Y-142601408D01*
X108922623Y-142565299D01*
X108919856Y-142533638D01*
X108917218Y-142508937D01*
X108914931Y-142493711D01*
X108912506Y-142479014D01*
X108909871Y-142452526D01*
X108908848Y-142426317D01*
X108908350Y-142407240D01*
X108906245Y-142375919D01*
X108903050Y-142347106D01*
X108896353Y-142298105D01*
X108888555Y-142232078D01*
X108882748Y-142168663D01*
X108878389Y-142102476D01*
X108875378Y-142052198D01*
X108871525Y-141997981D01*
X108867432Y-141949810D01*
X108863240Y-141909175D01*
X108859088Y-141877561D01*
X108855119Y-141856456D01*
X108852879Y-141844918D01*
X108850126Y-141821029D01*
X108848994Y-141796452D01*
X108848465Y-141778445D01*
X108845927Y-141743087D01*
X108841739Y-141703306D01*
X108836398Y-141663593D01*
X108830401Y-141628438D01*
X108826570Y-141605109D01*
X108822069Y-141570812D01*
X108817130Y-141527326D01*
X108811915Y-141476059D01*
X108806581Y-141418422D01*
X108804446Y-141394440D01*
X108799460Y-141340081D01*
X108795195Y-141296352D01*
X108791543Y-141262286D01*
X108788396Y-141236918D01*
X108785646Y-141219280D01*
X108783186Y-141208405D01*
X108781371Y-141200726D01*
X108777972Y-141181295D01*
X108774298Y-141155688D01*
X108770880Y-141127399D01*
X108768818Y-141109579D01*
X108765083Y-141081042D01*
X108761391Y-141056686D01*
X108758303Y-141040392D01*
X108754682Y-141022190D01*
X108750627Y-140997377D01*
X108747028Y-140971387D01*
X108745584Y-140960041D01*
X108741559Y-140929904D01*
X108736830Y-140895879D01*
X108732144Y-140863378D01*
X108730104Y-140849010D01*
X108725678Y-140814380D01*
X108721875Y-140780281D01*
X108719347Y-140752369D01*
X108718877Y-140746444D01*
X108716370Y-140724034D01*
X108713340Y-140707007D01*
X108710339Y-140698665D01*
X108706576Y-140689992D01*
X108704832Y-140675359D01*
X108704827Y-140674666D01*
X108703118Y-140656051D01*
X108699244Y-140636056D01*
X108696433Y-140623209D01*
X108692066Y-140599900D01*
X108686954Y-140570282D01*
X108681593Y-140537332D01*
X108676480Y-140504028D01*
X108672112Y-140473347D01*
X108658135Y-140384226D01*
X108629720Y-140248330D01*
X108624286Y-140225353D01*
X108618641Y-140200810D01*
X108614557Y-140182324D01*
X108613575Y-140177741D01*
X108608370Y-140154449D01*
X108602949Y-140131320D01*
X108598888Y-140111978D01*
X108594266Y-140085927D01*
X108590199Y-140059315D01*
X108585881Y-140030531D01*
X108578692Y-139989619D01*
X108569376Y-139943090D01*
X108557531Y-139888973D01*
X108542759Y-139825296D01*
X108540392Y-139815145D01*
X108535541Y-139794042D01*
X108529436Y-139767278D01*
X108522861Y-139738289D01*
X108519016Y-139721577D01*
X108510138Y-139684423D01*
X108500836Y-139646989D01*
X108492588Y-139615280D01*
X108490463Y-139607363D01*
X108481430Y-139573297D01*
X108472144Y-139537758D01*
X108464312Y-139507271D01*
X108457912Y-139482021D01*
X108450425Y-139452523D01*
X108445031Y-139431354D01*
X108441218Y-139416527D01*
X108438473Y-139406059D01*
X108436286Y-139397966D01*
X108434145Y-139390262D01*
X108433502Y-139387994D01*
X108428774Y-139371773D01*
X108422049Y-139349140D01*
X108414561Y-139324257D01*
X108413078Y-139319321D01*
X108405780Y-139293908D01*
X108399712Y-139271073D01*
X108396065Y-139255251D01*
X108395924Y-139254516D01*
X108391695Y-139236516D01*
X108387096Y-139222249D01*
X108385616Y-139218346D01*
X108380475Y-139203171D01*
X108373502Y-139181365D01*
X108365770Y-139156244D01*
X108363172Y-139147684D01*
X108354149Y-139118431D01*
X108345378Y-139090602D01*
X108338442Y-139069237D01*
X108331516Y-139047245D01*
X108323196Y-139018856D01*
X108315612Y-138991231D01*
X108311678Y-138976661D01*
X108296917Y-138927401D01*
X108280839Y-138880703D01*
X108265012Y-138841219D01*
X108261729Y-138833526D01*
X108253805Y-138812896D01*
X108248501Y-138796215D01*
X108247151Y-138791275D01*
X108241860Y-138773706D01*
X108234374Y-138750121D01*
X108225854Y-138724210D01*
X108222299Y-138713468D01*
X108213723Y-138686627D01*
X108206509Y-138662820D01*
X108201933Y-138646204D01*
X108199473Y-138637292D01*
X108192833Y-138616230D01*
X108183924Y-138589966D01*
X108173976Y-138562197D01*
X108167355Y-138543885D01*
X108158630Y-138518615D01*
X108152034Y-138498118D01*
X108148634Y-138485617D01*
X108145047Y-138473548D01*
X108140095Y-138465762D01*
X108137144Y-138461901D01*
X108134787Y-138450495D01*
X108134739Y-138449688D01*
X108131980Y-138438397D01*
X108125601Y-138418902D01*
X108116466Y-138393714D01*
X108105441Y-138365343D01*
X108091098Y-138329192D01*
X108074229Y-138285017D01*
X108061674Y-138249428D01*
X108053025Y-138221052D01*
X108047877Y-138198512D01*
X108045825Y-138180434D01*
X108046462Y-138165442D01*
X108049030Y-138148445D01*
X108057490Y-138113385D01*
X108069887Y-138087052D01*
X108087478Y-138067250D01*
X108111519Y-138051785D01*
X108115768Y-138049665D01*
X108127075Y-138044691D01*
X108138699Y-138041244D01*
X108152976Y-138039049D01*
X108172243Y-138037830D01*
X108198837Y-138037311D01*
X108235095Y-138037217D01*
X108251006Y-138037278D01*
X108292765Y-138038167D01*
X108327059Y-138040326D01*
X108357276Y-138044031D01*
X108386806Y-138049558D01*
X108395002Y-138051276D01*
X108428473Y-138057580D01*
X108462838Y-138063168D01*
X108491815Y-138066994D01*
X108493210Y-138067147D01*
X108521128Y-138071119D01*
X108548582Y-138076455D01*
X108569821Y-138082044D01*
X108578698Y-138084833D01*
X108604056Y-138091830D01*
X108626825Y-138096982D01*
X108626853Y-138096987D01*
X108646623Y-138100932D01*
X108672479Y-138106418D01*
X108698831Y-138112260D01*
X108724993Y-138117812D01*
X108754854Y-138123449D01*
X108779837Y-138127486D01*
X108786042Y-138128368D01*
X108820120Y-138133711D01*
X108857817Y-138140244D01*
X108892461Y-138146821D01*
X108894893Y-138147092D01*
X108900704Y-138142842D01*
X108899550Y-138130937D01*
X108891801Y-138112814D01*
X108877826Y-138089908D01*
X108877402Y-138089287D01*
X108863088Y-138067778D01*
X108850168Y-138047441D01*
X108841391Y-138032603D01*
X108837817Y-138026577D01*
X108824874Y-138007554D01*
X108805940Y-137981852D01*
X108782293Y-137951115D01*
X108755209Y-137916988D01*
X108725964Y-137881115D01*
X108695837Y-137845140D01*
X108678108Y-137824275D01*
X108654772Y-137796811D01*
X108633086Y-137771292D01*
X108616112Y-137751318D01*
X108612074Y-137746511D01*
X108598200Y-137729044D01*
X108588483Y-137715293D01*
X108584822Y-137707894D01*
X108584821Y-137707870D01*
X108580658Y-137702080D01*
X108569161Y-137688988D01*
X108551461Y-137669763D01*
X108528693Y-137645577D01*
X108501989Y-137617598D01*
X108472483Y-137586998D01*
X108441306Y-137554945D01*
X108409594Y-137522609D01*
X108378478Y-137491161D01*
X108349092Y-137461771D01*
X108322568Y-137435609D01*
X108300040Y-137413844D01*
X108292540Y-137406689D01*
X108248291Y-137363586D01*
X108212850Y-137327252D01*
X108185702Y-137297085D01*
X108166332Y-137272485D01*
X108154226Y-137252853D01*
X108148868Y-137237587D01*
X108148314Y-137229057D01*
X108153154Y-137204457D01*
X108165548Y-137179052D01*
X108183707Y-137156981D01*
X108188811Y-137152917D01*
X108207789Y-137141627D01*
X108235098Y-137128374D01*
X108268518Y-137114130D01*
X108305827Y-137099866D01*
X108344803Y-137086553D01*
X108350585Y-137084673D01*
X108378903Y-137074829D01*
X108406081Y-137064504D01*
X108426938Y-137055646D01*
X108440379Y-137049543D01*
X108454991Y-137043440D01*
X108462393Y-137041077D01*
X108463179Y-137040940D01*
X108472344Y-137037463D01*
X108488681Y-137030252D01*
X108509268Y-137020586D01*
X108530338Y-137010494D01*
X108559570Y-136996579D01*
X108592041Y-136981185D01*
X108623825Y-136966177D01*
X108627808Y-136964292D01*
X108655498Y-136950747D01*
X108679724Y-136938169D01*
X108697998Y-136927888D01*
X108707832Y-136921236D01*
X108714454Y-136915962D01*
X108730754Y-136905059D01*
X108749835Y-136893879D01*
X108761140Y-136887496D01*
X108782277Y-136874602D01*
X108798939Y-136863304D01*
X108802793Y-136860490D01*
X108815117Y-136852339D01*
X108822090Y-136849062D01*
X108830121Y-136845200D01*
X108845933Y-136834030D01*
X108868430Y-136816422D01*
X108896554Y-136793248D01*
X108929246Y-136765381D01*
X108965449Y-136733691D01*
X109004106Y-136699050D01*
X109008273Y-136695237D01*
X109041936Y-136662320D01*
X109079498Y-136622525D01*
X109118567Y-136578605D01*
X109156748Y-136533315D01*
X109191648Y-136489408D01*
X109220872Y-136449641D01*
X109252093Y-136403870D01*
X109280230Y-136360488D01*
X109302060Y-136324224D01*
X109317268Y-136295629D01*
X109325542Y-136275253D01*
X109326569Y-136263648D01*
X109325596Y-136261801D01*
X109315269Y-136256082D01*
X109297959Y-136255922D01*
X109276767Y-136261458D01*
X109274673Y-136262231D01*
X109256213Y-136267946D01*
X109235873Y-136272996D01*
X109225697Y-136275332D01*
X109202423Y-136281332D01*
X109178869Y-136288031D01*
X109165835Y-136291869D01*
X109142907Y-136298284D01*
X109124865Y-136302939D01*
X109119839Y-136304188D01*
X109101064Y-136309238D01*
X109076408Y-136316194D01*
X109049859Y-136323939D01*
X109039129Y-136327104D01*
X109012864Y-136334691D01*
X108990109Y-136341059D01*
X108974853Y-136345082D01*
X108963467Y-136347851D01*
X108941301Y-136353239D01*
X108917848Y-136358938D01*
X108900842Y-136363114D01*
X108873474Y-136369915D01*
X108841819Y-136377841D01*
X108809840Y-136385901D01*
X108785302Y-136392048D01*
X108747678Y-136401299D01*
X108711089Y-136410125D01*
X108680830Y-136417239D01*
X108668276Y-136420131D01*
X108640645Y-136426517D01*
X108616451Y-136432133D01*
X108599823Y-136436022D01*
X108584354Y-136439595D01*
X108543622Y-136448534D01*
X108496930Y-136458285D01*
X108448314Y-136468017D01*
X108401808Y-136476895D01*
X108381075Y-136480844D01*
X108353886Y-136486172D01*
X108326802Y-136491601D01*
X108317641Y-136493407D01*
X108278801Y-136500282D01*
X108229573Y-136508034D01*
X108171164Y-136516477D01*
X108104784Y-136525429D01*
X108053977Y-136531232D01*
X107994986Y-136536371D01*
X107932767Y-136540421D01*
X107869482Y-136543323D01*
X107807293Y-136545020D01*
X107748363Y-136545454D01*
X107694853Y-136544567D01*
X107648927Y-136542301D01*
X107612746Y-136538598D01*
X107590713Y-136535291D01*
X107551416Y-136528709D01*
X107520815Y-136522571D01*
X107499994Y-136517108D01*
X107490036Y-136512550D01*
X107487929Y-136510858D01*
X107476953Y-136507035D01*
X107469322Y-136505536D01*
X107452288Y-136499070D01*
X107431250Y-136489163D01*
X107409767Y-136477642D01*
X107391401Y-136466338D01*
X107379711Y-136457079D01*
X107371072Y-136444870D01*
X107367767Y-136425154D01*
X107370337Y-136416169D01*
X107378961Y-136405630D01*
X107394926Y-136395701D01*
X107419729Y-136385505D01*
X107454865Y-136374166D01*
X107474475Y-136368355D01*
X107502772Y-136360315D01*
X107528481Y-136353673D01*
X107554017Y-136347943D01*
X107581797Y-136342642D01*
X107614236Y-136337285D01*
X107653749Y-136331387D01*
X107702753Y-136324465D01*
X107720314Y-136321915D01*
X107749590Y-136317243D01*
X107775094Y-136312690D01*
X107792760Y-136308954D01*
X107797869Y-136307879D01*
X107817545Y-136304986D01*
X107845089Y-136301957D01*
X107877579Y-136299094D01*
X107912091Y-136296696D01*
X107923489Y-136295963D01*
X107960062Y-136293009D01*
X107995201Y-136289361D01*
X108025387Y-136285415D01*
X108047102Y-136281564D01*
X108053363Y-136280232D01*
X108082110Y-136275266D01*
X108115245Y-136270834D01*
X108146788Y-136267765D01*
X108160604Y-136266620D01*
X108184528Y-136263981D01*
X108202726Y-136261113D01*
X108212069Y-136258463D01*
X108215915Y-136257037D01*
X108230498Y-136254043D01*
X108252250Y-136250937D01*
X108278074Y-136248199D01*
X108311885Y-136244990D01*
X108368856Y-136238400D01*
X108418755Y-136230803D01*
X108464813Y-136221741D01*
X108465407Y-136221610D01*
X108491190Y-136216029D01*
X108515740Y-136210861D01*
X108533818Y-136207209D01*
X108540252Y-136205932D01*
X108563966Y-136200902D01*
X108592628Y-136194496D01*
X108622902Y-136187496D01*
X108651451Y-136180679D01*
X108674940Y-136174826D01*
X108690032Y-136170715D01*
X108695501Y-136169172D01*
X108713710Y-136164565D01*
X108738132Y-136158793D01*
X108765038Y-136152747D01*
X108775158Y-136150518D01*
X108805822Y-136143616D01*
X108835111Y-136136836D01*
X108857844Y-136131372D01*
X108873455Y-136127602D01*
X108899367Y-136121704D01*
X108920849Y-136117208D01*
X108948061Y-136111580D01*
X108979610Y-136104019D01*
X109015355Y-136094313D01*
X109058859Y-136081541D01*
X109068582Y-136078658D01*
X109101120Y-136069450D01*
X109133815Y-136060736D01*
X109160867Y-136054078D01*
X109166404Y-136052793D01*
X109214438Y-136040306D01*
X109257810Y-136026696D01*
X109292878Y-136013094D01*
X109301737Y-136009574D01*
X109323850Y-136001791D01*
X109356502Y-135990965D01*
X109399112Y-135977279D01*
X109451102Y-135960921D01*
X109511891Y-135942074D01*
X109580900Y-135920926D01*
X109606905Y-135912882D01*
X109634372Y-135904139D01*
X109656780Y-135896747D01*
X109670908Y-135891749D01*
X109680396Y-135888207D01*
X109700903Y-135880832D01*
X109726881Y-135871681D01*
X109754914Y-135861967D01*
X109773953Y-135855248D01*
X109803351Y-135844270D01*
X109829375Y-135833881D01*
X109848008Y-135825650D01*
X109860550Y-135819746D01*
X109875349Y-135813432D01*
X109883185Y-135810980D01*
X109887116Y-135809757D01*
X109900177Y-135804124D01*
X109919678Y-135794960D01*
X109943104Y-135783422D01*
X109954228Y-135777909D01*
X109984800Y-135763349D01*
X110015097Y-135749614D01*
X110039940Y-135739075D01*
X110055708Y-135732311D01*
X110081833Y-135720271D01*
X110113679Y-135705007D01*
X110148600Y-135687791D01*
X110183951Y-135669893D01*
X110214540Y-135654211D01*
X110248656Y-135636787D01*
X110279596Y-135621051D01*
X110304862Y-135608273D01*
X110321959Y-135599722D01*
X110338836Y-135590985D01*
X110365312Y-135576157D01*
X110387964Y-135562298D01*
X110411953Y-135546978D01*
X110438161Y-135530947D01*
X110463196Y-135516248D01*
X110484822Y-135504162D01*
X110500803Y-135495971D01*
X110508904Y-135492955D01*
X110513265Y-135492170D01*
X110524085Y-135483154D01*
X110531943Y-135466714D01*
X110534976Y-135446188D01*
X110536195Y-135434782D01*
X110546490Y-135409794D01*
X110565547Y-135386830D01*
X110591284Y-135368754D01*
X110606319Y-135363256D01*
X110628447Y-135359932D01*
X110657158Y-135359582D01*
X110693268Y-135362293D01*
X110737592Y-135368156D01*
X110790946Y-135377259D01*
X110854146Y-135389692D01*
X110928007Y-135405544D01*
X110949954Y-135410360D01*
X111021698Y-135425404D01*
X111082467Y-135436949D01*
X111132023Y-135444950D01*
X111150384Y-135447689D01*
X111181251Y-135452916D01*
X111207911Y-135458189D01*
X111227798Y-135462981D01*
X111238347Y-135466766D01*
X111238548Y-135466882D01*
X111247903Y-135469548D01*
X111265388Y-135472714D01*
X111287386Y-135475719D01*
X111310215Y-135478700D01*
X111337811Y-135482924D01*
X111360041Y-135486965D01*
X111362407Y-135487455D01*
X111395257Y-135493828D01*
X111432420Y-135500242D01*
X111474986Y-135506846D01*
X111524048Y-135513788D01*
X111580697Y-135521218D01*
X111646023Y-135529284D01*
X111721119Y-135538134D01*
X111807076Y-135547919D01*
X111827756Y-135549656D01*
X111861281Y-135551371D01*
X111902637Y-135552722D01*
X111949623Y-135553699D01*
X112000035Y-135554297D01*
X112051672Y-135554506D01*
X112102329Y-135554320D01*
X112149804Y-135553731D01*
X112191895Y-135552731D01*
X112226398Y-135551312D01*
X112251111Y-135549467D01*
X112265446Y-135547854D01*
X112285095Y-135545013D01*
X112296457Y-135541787D01*
X112301951Y-135537319D01*
X112303994Y-135530754D01*
X112302730Y-135523757D01*
X112296442Y-135506439D01*
X112285448Y-135480670D01*
X112270307Y-135447618D01*
X112251578Y-135408449D01*
X112229823Y-135364329D01*
X112205600Y-135316425D01*
X112179468Y-135265905D01*
X112151989Y-135213933D01*
X112145686Y-135202141D01*
X112127910Y-135168850D01*
X112110710Y-135136596D01*
X112095782Y-135108560D01*
X112084821Y-135087923D01*
X112082763Y-135084044D01*
X112071481Y-135063009D01*
X112062049Y-135045770D01*
X112056332Y-135035742D01*
X112052762Y-135029315D01*
X112044322Y-135013391D01*
X112032304Y-134990351D01*
X112017728Y-134962148D01*
X112001611Y-134930734D01*
X111976449Y-134881743D01*
X111950447Y-134831553D01*
X111925563Y-134783937D01*
X111902865Y-134740929D01*
X111883424Y-134704569D01*
X111868308Y-134676891D01*
X111861762Y-134664595D01*
X111850361Y-134642509D01*
X111835022Y-134612423D01*
X111816454Y-134575751D01*
X111795364Y-134533907D01*
X111772457Y-134488304D01*
X111748442Y-134440358D01*
X111724026Y-134391480D01*
X111699916Y-134343086D01*
X111676818Y-134296589D01*
X111655441Y-134253403D01*
X111636491Y-134214942D01*
X111620676Y-134182620D01*
X111608702Y-134157850D01*
X111603856Y-134147722D01*
X111590494Y-134119832D01*
X111579043Y-134095976D01*
X111570589Y-134078419D01*
X111566222Y-134069425D01*
X111564566Y-134064478D01*
X111562048Y-134048493D01*
X111561056Y-134028682D01*
X111561623Y-134015698D01*
X111569232Y-133983122D01*
X111585214Y-133957890D01*
X111608932Y-133941169D01*
X111615538Y-133938069D01*
X111628083Y-133930813D01*
X111633062Y-133925677D01*
X111633582Y-133923906D01*
X111640563Y-133920785D01*
X111648268Y-133918285D01*
X111664312Y-133911290D01*
X111686196Y-133900982D01*
X111711512Y-133888546D01*
X111737851Y-133875165D01*
X111762802Y-133862023D01*
X111783958Y-133850306D01*
X111798758Y-133842089D01*
X111820921Y-133830242D01*
X111843962Y-133818282D01*
X111863816Y-133807587D01*
X111889486Y-133792512D01*
X111910598Y-133778830D01*
X111923176Y-133770211D01*
X111935981Y-133761994D01*
X111942130Y-133758819D01*
X111942894Y-133758680D01*
X111952044Y-133753823D01*
X111968823Y-133742835D01*
X111991747Y-133726832D01*
X112019330Y-133706926D01*
X112050086Y-133684232D01*
X112082531Y-133659863D01*
X112115180Y-133634933D01*
X112146547Y-133610555D01*
X112175148Y-133587843D01*
X112199496Y-133567911D01*
X112218108Y-133551872D01*
X112225125Y-133545673D01*
X112246756Y-133527404D01*
X112267254Y-133511036D01*
X112271232Y-133507912D01*
X112293119Y-133489001D01*
X112321085Y-133462795D01*
X112353724Y-133430778D01*
X112389632Y-133394438D01*
X112427405Y-133355259D01*
X112465636Y-133314727D01*
X112502923Y-133274328D01*
X112537859Y-133235547D01*
X112569041Y-133199870D01*
X112595063Y-133168782D01*
X112614520Y-133143770D01*
X112620603Y-133135530D01*
X112630111Y-133123005D01*
X112635233Y-133116768D01*
X112637660Y-133113981D01*
X112646404Y-133103290D01*
X112659683Y-133086746D01*
X112675749Y-133066517D01*
X112685333Y-133054103D01*
X112705950Y-133025951D01*
X112728731Y-132993319D01*
X112752779Y-132957644D01*
X112777196Y-132920362D01*
X112801085Y-132882908D01*
X112823548Y-132846718D01*
X112843686Y-132813229D01*
X112860603Y-132783875D01*
X112873399Y-132760093D01*
X112881179Y-132743319D01*
X112883043Y-132734989D01*
X112880398Y-132731502D01*
X112868900Y-132727691D01*
X112848296Y-132727628D01*
X112817832Y-132731342D01*
X112776751Y-132738859D01*
X112758506Y-132742457D01*
X112729862Y-132747657D01*
X112699786Y-132752470D01*
X112665648Y-132757280D01*
X112624822Y-132762473D01*
X112574678Y-132768433D01*
X112574634Y-132768439D01*
X112548300Y-132772028D01*
X112522946Y-132776358D01*
X112504056Y-132780492D01*
X112503039Y-132780760D01*
X112486530Y-132784367D01*
X112461640Y-132789032D01*
X112431566Y-132794182D01*
X112399506Y-132799243D01*
X112397361Y-132799567D01*
X112364695Y-132804614D01*
X112333654Y-132809598D01*
X112307655Y-132813958D01*
X112290114Y-132817136D01*
X112274604Y-132820012D01*
X112247576Y-132824572D01*
X112221108Y-132828622D01*
X112197412Y-132832351D01*
X112166221Y-132837857D01*
X112137102Y-132843528D01*
X112110918Y-132848938D01*
X112083644Y-132854533D01*
X112062096Y-132858916D01*
X112061720Y-132858992D01*
X112036905Y-132863477D01*
X112003663Y-132868799D01*
X111965427Y-132874464D01*
X111925629Y-132879981D01*
X111887703Y-132884858D01*
X111855080Y-132888602D01*
X111850067Y-132889142D01*
X111824794Y-132892118D01*
X111792266Y-132896219D01*
X111756140Y-132900974D01*
X111720069Y-132905916D01*
X111706648Y-132907764D01*
X111673807Y-132912019D01*
X111644509Y-132915460D01*
X111621530Y-132917771D01*
X111607646Y-132918640D01*
X111604188Y-132918714D01*
X111581998Y-132920683D01*
X111559642Y-132924458D01*
X111543157Y-132928071D01*
X111507874Y-132935082D01*
X111480585Y-132938992D01*
X111458748Y-132939975D01*
X111439822Y-132938204D01*
X111421265Y-132933850D01*
X111418572Y-132933038D01*
X111387899Y-132918711D01*
X111365603Y-132898135D01*
X111353244Y-132872712D01*
X111352020Y-132863319D01*
X111351775Y-132843825D01*
X111353212Y-132821606D01*
X111354973Y-132808089D01*
X111358159Y-132794733D01*
X111363761Y-132781162D01*
X111372973Y-132765028D01*
X111386986Y-132743981D01*
X111406993Y-132715672D01*
X111408437Y-132713652D01*
X111432765Y-132679199D01*
X111454807Y-132647239D01*
X111473610Y-132619217D01*
X111488220Y-132596575D01*
X111497685Y-132580758D01*
X111501052Y-132573208D01*
X111501446Y-132571945D01*
X111506678Y-132563272D01*
X111516053Y-132550257D01*
X111519277Y-132545892D01*
X111527684Y-132532828D01*
X111531054Y-132524701D01*
X111531105Y-132524170D01*
X111535878Y-132515853D01*
X111546055Y-132504720D01*
X111547347Y-132503487D01*
X111557071Y-132492701D01*
X111561056Y-132485457D01*
X111563071Y-132480552D01*
X111570408Y-132467188D01*
X111581855Y-132447904D01*
X111596082Y-132424998D01*
X111604442Y-132411574D01*
X111624638Y-132377869D01*
X111645311Y-132341980D01*
X111663090Y-132309705D01*
X111673812Y-132289777D01*
X111687939Y-132264044D01*
X111700118Y-132242422D01*
X111708534Y-132228168D01*
X111710381Y-132225065D01*
X111718691Y-132209941D01*
X111730950Y-132186669D01*
X111746166Y-132157168D01*
X111763347Y-132123358D01*
X111781497Y-132087157D01*
X111787997Y-132074111D01*
X111805867Y-132038302D01*
X111822332Y-132005393D01*
X111836406Y-131977344D01*
X111847107Y-131956117D01*
X111853450Y-131943676D01*
X111861717Y-131927455D01*
X111883393Y-131882918D01*
X111907029Y-131832000D01*
X111931061Y-131778110D01*
X111953923Y-131724658D01*
X111957077Y-131717110D01*
X111970563Y-131684891D01*
X111983401Y-131654311D01*
X111994268Y-131628514D01*
X112001841Y-131610650D01*
X112007329Y-131597205D01*
X112016640Y-131572117D01*
X112023592Y-131550645D01*
X112025972Y-131542628D01*
X112031368Y-131526706D01*
X112035421Y-131517642D01*
X112037225Y-131513763D01*
X112042567Y-131499657D01*
X112050450Y-131477431D01*
X112060207Y-131449088D01*
X112071174Y-131416630D01*
X112082686Y-131382061D01*
X112094076Y-131347382D01*
X112104681Y-131314595D01*
X112113834Y-131285705D01*
X112120871Y-131262713D01*
X112125126Y-131247621D01*
X112127515Y-131238481D01*
X112133974Y-131215029D01*
X112142067Y-131186655D01*
X112150592Y-131157614D01*
X112155040Y-131142296D01*
X112163117Y-131112501D01*
X112169820Y-131085316D01*
X112174029Y-131065158D01*
X112176458Y-131052171D01*
X112180274Y-131035612D01*
X112183333Y-131026618D01*
X112183770Y-131025824D01*
X112187590Y-131014992D01*
X112191522Y-130999064D01*
X112194165Y-130987327D01*
X112199714Y-130965027D01*
X112205987Y-130941597D01*
X112210213Y-130925732D01*
X112216465Y-130899951D01*
X112220974Y-130878592D01*
X112221116Y-130877817D01*
X112224386Y-130860855D01*
X112229411Y-130835646D01*
X112235533Y-130805464D01*
X112242092Y-130773584D01*
X112242422Y-130771994D01*
X112249024Y-130739725D01*
X112255179Y-130708956D01*
X112260212Y-130683101D01*
X112263447Y-130665575D01*
X112263989Y-130662462D01*
X112267971Y-130640291D01*
X112273085Y-130612576D01*
X112278363Y-130584569D01*
X112278977Y-130581320D01*
X112284310Y-130551034D01*
X112289205Y-130520037D01*
X112292670Y-130494562D01*
X112295629Y-130471172D01*
X112299977Y-130439836D01*
X112304382Y-130410555D01*
X112304754Y-130408207D01*
X112313004Y-130355497D01*
X112319537Y-130312076D01*
X112324683Y-130275506D01*
X112328768Y-130243351D01*
X112332121Y-130213174D01*
X112335069Y-130182537D01*
X112336768Y-130163736D01*
X112340268Y-130125172D01*
X112343802Y-130086411D01*
X112346817Y-130053527D01*
X112346953Y-130052056D01*
X112350945Y-130005980D01*
X112354378Y-129960248D01*
X112357285Y-129913625D01*
X112359700Y-129864877D01*
X112361655Y-129812770D01*
X112363184Y-129756071D01*
X112364321Y-129693543D01*
X112365099Y-129623954D01*
X112365552Y-129546068D01*
X112365713Y-129458653D01*
X112365616Y-129360472D01*
X112365532Y-129325676D01*
X112365303Y-129258030D01*
X112364998Y-129194093D01*
X112364629Y-129134901D01*
X112364204Y-129081490D01*
X112363735Y-129034898D01*
X112363230Y-128996160D01*
X112362699Y-128966313D01*
X112362153Y-128946394D01*
X112361600Y-128937439D01*
X112361084Y-128933361D01*
X112359792Y-128917106D01*
X112358260Y-128891808D01*
X112356594Y-128859444D01*
X112354899Y-128821991D01*
X112353280Y-128781427D01*
X112352900Y-128771466D01*
X112350953Y-128725667D01*
X112348697Y-128679329D01*
X112346301Y-128635584D01*
X112343935Y-128597566D01*
X112341768Y-128568410D01*
X112338845Y-128532943D01*
X112335468Y-128490261D01*
X112332101Y-128446284D01*
X112329164Y-128406397D01*
X112328788Y-128401206D01*
X112325956Y-128364685D01*
X112322848Y-128328228D01*
X112319816Y-128295805D01*
X112317211Y-128271387D01*
X112312456Y-128230596D01*
X112306608Y-128178866D01*
X112300068Y-128119695D01*
X112293089Y-128055370D01*
X112290824Y-128034820D01*
X112287161Y-128002596D01*
X112283015Y-127966896D01*
X112278919Y-127932360D01*
X112276940Y-127915778D01*
X112272537Y-127878484D01*
X112267521Y-127835590D01*
X112262368Y-127791181D01*
X112257555Y-127749345D01*
X112254374Y-127722509D01*
X112249386Y-127683409D01*
X112244328Y-127646733D01*
X112239644Y-127615651D01*
X112235775Y-127593333D01*
X112234530Y-127586717D01*
X112229519Y-127555438D01*
X112224909Y-127520257D01*
X112221563Y-127487601D01*
X112220223Y-127473040D01*
X112217404Y-127449156D01*
X112214467Y-127431094D01*
X112211867Y-127421930D01*
X112211501Y-127421243D01*
X112208377Y-127410333D01*
X112204919Y-127391595D01*
X112201808Y-127368650D01*
X112198257Y-127337505D01*
X112193717Y-127298389D01*
X112189950Y-127267197D01*
X112186641Y-127241512D01*
X112183474Y-127218913D01*
X112180132Y-127196982D01*
X112176301Y-127173300D01*
X112174047Y-127159590D01*
X112169087Y-127129138D01*
X112164580Y-127101142D01*
X112161282Y-127080293D01*
X112157931Y-127058775D01*
X112153460Y-127030171D01*
X112149088Y-127002287D01*
X112148782Y-127000338D01*
X112145019Y-126976314D01*
X112141779Y-126955526D01*
X112139734Y-126942282D01*
X112138726Y-126936262D01*
X112135270Y-126918040D01*
X112130979Y-126897278D01*
X112127094Y-126876914D01*
X112122625Y-126849562D01*
X112118769Y-126822272D01*
X112118398Y-126819404D01*
X112115113Y-126796656D01*
X112111903Y-126778367D01*
X112109415Y-126768268D01*
X112107114Y-126761891D01*
X112101050Y-126740417D01*
X112095340Y-126714985D01*
X112091067Y-126690730D01*
X112089312Y-126672788D01*
X112088833Y-126665059D01*
X112085651Y-126643927D01*
X112080514Y-126621784D01*
X112075895Y-126603560D01*
X112069910Y-126576193D01*
X112064834Y-126549251D01*
X112064408Y-126546763D01*
X112059174Y-126518858D01*
X112052510Y-126486517D01*
X112045750Y-126456244D01*
X112044885Y-126452518D01*
X112038479Y-126422348D01*
X112032779Y-126391545D01*
X112028930Y-126366237D01*
X112026311Y-126348105D01*
X112020693Y-126316730D01*
X112014496Y-126288230D01*
X112009840Y-126268549D01*
X112004784Y-126245373D01*
X112001513Y-126228226D01*
X112001405Y-126227565D01*
X111997563Y-126209528D01*
X111993107Y-126195223D01*
X111980124Y-126158380D01*
X111968730Y-126111216D01*
X111967263Y-126103471D01*
X111962102Y-126077594D01*
X111957128Y-126054212D01*
X111954183Y-126040997D01*
X111946368Y-126005764D01*
X111938769Y-125971286D01*
X111932188Y-125941214D01*
X111927429Y-125919201D01*
X111926220Y-125913896D01*
X111921105Y-125893877D01*
X111914060Y-125868234D01*
X111906232Y-125841195D01*
X111903282Y-125831164D01*
X111895541Y-125803770D01*
X111888984Y-125779130D01*
X111884785Y-125761603D01*
X111883551Y-125756104D01*
X111878375Y-125737619D01*
X111873246Y-125724495D01*
X111869968Y-125716418D01*
X111867081Y-125700304D01*
X111867001Y-125698717D01*
X111864611Y-125685235D01*
X111859564Y-125664881D01*
X111852770Y-125641405D01*
X111852689Y-125641142D01*
X111844506Y-125612980D01*
X111836778Y-125583546D01*
X111831167Y-125559173D01*
X111827729Y-125544704D01*
X111819107Y-125516582D01*
X111809475Y-125492045D01*
X111803815Y-125478839D01*
X111797522Y-125460871D01*
X111795075Y-125448896D01*
X111794061Y-125441601D01*
X111789074Y-125433163D01*
X111786213Y-125430166D01*
X111783037Y-125419308D01*
X111780429Y-125407249D01*
X111774036Y-125391974D01*
X111767755Y-125377016D01*
X111765072Y-125364672D01*
X111764559Y-125359507D01*
X111760304Y-125348856D01*
X111756863Y-125342232D01*
X111750904Y-125326957D01*
X111744243Y-125307153D01*
X111738526Y-125290048D01*
X111732311Y-125273875D01*
X111728009Y-125265450D01*
X111725662Y-125261460D01*
X111723069Y-125249152D01*
X111722904Y-125246841D01*
X111719551Y-125232921D01*
X111713237Y-125215850D01*
X111711607Y-125212066D01*
X111704192Y-125194446D01*
X111698847Y-125181143D01*
X111698390Y-125179949D01*
X111692591Y-125165480D01*
X111685365Y-125148141D01*
X111679784Y-125134187D01*
X111671415Y-125111828D01*
X111662994Y-125088136D01*
X111655656Y-125067827D01*
X111649149Y-125051554D01*
X111644985Y-125043132D01*
X111643881Y-125041342D01*
X111638320Y-125030012D01*
X111630106Y-125011615D01*
X111620583Y-124989128D01*
X111610726Y-124965943D01*
X111595703Y-124932441D01*
X111579923Y-124898943D01*
X111564484Y-124867656D01*
X111550480Y-124840785D01*
X111539007Y-124820536D01*
X111531160Y-124809114D01*
X111528944Y-124806496D01*
X111518474Y-124791624D01*
X111508105Y-124773984D01*
X111503685Y-124766220D01*
X111490124Y-124745572D01*
X111475309Y-124725981D01*
X111463352Y-124711453D01*
X111445422Y-124689512D01*
X111428037Y-124668103D01*
X111390458Y-124628099D01*
X111339813Y-124588018D01*
X111278588Y-124551513D01*
X111224216Y-124523056D01*
X111162804Y-124523341D01*
X111137962Y-124523908D01*
X111089787Y-124528555D01*
X111047097Y-124538528D01*
X111005933Y-124554615D01*
X110997870Y-124558577D01*
X110970118Y-124574151D01*
X110937322Y-124594604D01*
X110902547Y-124617847D01*
X110868858Y-124641791D01*
X110839320Y-124664346D01*
X110816998Y-124683422D01*
X110814586Y-124685679D01*
X110797941Y-124700636D01*
X110784452Y-124711759D01*
X110776844Y-124716784D01*
X110770076Y-124720650D01*
X110754267Y-124732946D01*
X110731237Y-124752852D01*
X110701595Y-124779761D01*
X110665950Y-124813062D01*
X110624910Y-124852147D01*
X110579084Y-124896407D01*
X110529082Y-124945231D01*
X110475512Y-124998012D01*
X110418983Y-125054139D01*
X110360104Y-125113003D01*
X110299483Y-125173996D01*
X110237730Y-125236508D01*
X110175454Y-125299930D01*
X110113263Y-125363653D01*
X110051766Y-125427067D01*
X109991572Y-125489563D01*
X109933290Y-125550532D01*
X109877529Y-125609365D01*
X109824898Y-125665453D01*
X109776005Y-125718186D01*
X109768435Y-125726404D01*
X109738353Y-125758979D01*
X109710930Y-125788550D01*
X109687257Y-125813948D01*
X109668425Y-125834007D01*
X109655524Y-125847557D01*
X109649646Y-125853432D01*
X109644633Y-125858288D01*
X109633293Y-125870678D01*
X109619771Y-125886435D01*
X109606016Y-125902409D01*
X109585410Y-125925626D01*
X109559424Y-125954475D01*
X109529487Y-125987396D01*
X109497024Y-126022834D01*
X109463462Y-126059230D01*
X109430228Y-126095028D01*
X109398749Y-126128669D01*
X109370451Y-126158596D01*
X109366400Y-126162855D01*
X109322173Y-126209750D01*
X109276931Y-126258393D01*
X109233034Y-126306212D01*
X109192847Y-126350634D01*
X109158729Y-126389090D01*
X109153891Y-126394553D01*
X109136492Y-126413714D01*
X109113241Y-126438868D01*
X109085914Y-126468112D01*
X109056288Y-126499540D01*
X109026137Y-126531250D01*
X109013474Y-126544552D01*
X108984009Y-126575851D01*
X108956250Y-126605785D01*
X108931858Y-126632541D01*
X108912493Y-126654304D01*
X108899817Y-126669260D01*
X108892798Y-126677977D01*
X108827792Y-126755330D01*
X108764024Y-126825273D01*
X108759542Y-126830001D01*
X108735466Y-126856258D01*
X108710319Y-126884791D01*
X108688870Y-126910212D01*
X108676338Y-126925495D01*
X108656222Y-126949818D01*
X108634833Y-126975491D01*
X108613657Y-127000748D01*
X108594181Y-127023823D01*
X108577893Y-127042950D01*
X108566280Y-127056361D01*
X108560829Y-127062291D01*
X108558447Y-127064784D01*
X108549430Y-127074952D01*
X108535662Y-127090834D01*
X108519002Y-127110295D01*
X108513550Y-127116687D01*
X108490654Y-127143326D01*
X108466761Y-127170878D01*
X108446238Y-127194302D01*
X108402313Y-127244171D01*
X108361093Y-127291343D01*
X108326658Y-127331231D01*
X108298316Y-127364654D01*
X108275373Y-127392431D01*
X108257135Y-127415380D01*
X108242909Y-127434321D01*
X108215450Y-127470971D01*
X108178250Y-127517333D01*
X108134069Y-127569269D01*
X108126887Y-127577518D01*
X108112108Y-127594484D01*
X108093641Y-127615678D01*
X108073893Y-127638337D01*
X108055314Y-127659761D01*
X108031933Y-127687259D01*
X108011023Y-127712758D01*
X107990233Y-127739206D01*
X107967212Y-127769552D01*
X107939608Y-127806745D01*
X107937211Y-127809991D01*
X107919486Y-127833722D01*
X107904089Y-127853890D01*
X107892600Y-127868450D01*
X107886600Y-127875355D01*
X107886492Y-127875451D01*
X107879904Y-127882481D01*
X107867448Y-127896650D01*
X107850872Y-127915947D01*
X107831920Y-127938360D01*
X107830653Y-127939870D01*
X107812245Y-127961735D01*
X107796757Y-127980023D01*
X107785783Y-127992858D01*
X107780916Y-127998365D01*
X107775162Y-128004732D01*
X107763499Y-128020457D01*
X107750297Y-128040517D01*
X107737244Y-128062080D01*
X107726027Y-128082316D01*
X107718333Y-128098394D01*
X107715852Y-128107484D01*
X107719176Y-128114040D01*
X107731139Y-128125647D01*
X107752425Y-128141390D01*
X107783759Y-128161846D01*
X107787196Y-128164003D01*
X107812459Y-128179697D01*
X107834298Y-128192988D01*
X107850478Y-128202531D01*
X107858765Y-128206982D01*
X107860078Y-128207666D01*
X107870036Y-128214320D01*
X107887097Y-128226612D01*
X107909455Y-128243169D01*
X107935306Y-128262620D01*
X107962845Y-128283592D01*
X107990267Y-128304712D01*
X108015767Y-128324609D01*
X108037539Y-128341911D01*
X108053780Y-128355244D01*
X108058962Y-128359614D01*
X108077253Y-128374933D01*
X108099655Y-128393593D01*
X108122457Y-128412501D01*
X108127106Y-128416360D01*
X108154549Y-128439528D01*
X108183869Y-128464784D01*
X108209464Y-128487309D01*
X108223842Y-128500151D01*
X108250400Y-128523826D01*
X108279094Y-128549361D01*
X108305800Y-128573086D01*
X108313029Y-128579549D01*
X108344225Y-128608313D01*
X108379099Y-128641624D01*
X108416412Y-128678199D01*
X108454930Y-128716755D01*
X108493414Y-128756012D01*
X108530628Y-128794685D01*
X108565335Y-128831494D01*
X108596299Y-128865157D01*
X108622282Y-128894389D01*
X108642048Y-128917911D01*
X108654359Y-128934439D01*
X108662591Y-128947301D01*
X108673771Y-128966426D01*
X108680030Y-128981362D01*
X108682709Y-128995783D01*
X108683146Y-129013361D01*
X108680746Y-129040743D01*
X108669942Y-129073928D01*
X108650681Y-129098754D01*
X108623198Y-129114956D01*
X108587726Y-129122265D01*
X108567663Y-129122716D01*
X108539102Y-129122056D01*
X108504701Y-129120468D01*
X108467006Y-129118144D01*
X108428566Y-129115273D01*
X108391929Y-129112046D01*
X108359642Y-129108654D01*
X108334253Y-129105285D01*
X108318311Y-129102132D01*
X108318162Y-129102090D01*
X108300070Y-129098335D01*
X108275349Y-129094964D01*
X108249305Y-129092703D01*
X108223080Y-129090655D01*
X108195504Y-129087622D01*
X108173790Y-129084346D01*
X108167640Y-129083303D01*
X108144541Y-129080373D01*
X108115992Y-129077696D01*
X108086783Y-129075746D01*
X108062458Y-129074261D01*
X108010238Y-129069543D01*
X107961711Y-129063162D01*
X107921021Y-129055622D01*
X107918386Y-129055202D01*
X107903194Y-129054085D01*
X107877487Y-129053088D01*
X107842369Y-129052213D01*
X107798939Y-129051459D01*
X107748298Y-129050827D01*
X107691548Y-129050318D01*
X107629789Y-129049932D01*
X107564121Y-129049670D01*
X107495647Y-129049533D01*
X107425466Y-129049520D01*
X107354679Y-129049633D01*
X107284388Y-129049871D01*
X107215693Y-129050237D01*
X107149695Y-129050729D01*
X107087494Y-129051349D01*
X107030193Y-129052097D01*
X106978891Y-129052974D01*
X106934689Y-129053980D01*
X106898689Y-129055115D01*
X106893305Y-129055320D01*
X106779635Y-129059323D01*
X106677904Y-129062272D01*
X106588097Y-129064169D01*
X106510197Y-129065012D01*
X106444191Y-129064802D01*
X106390063Y-129063540D01*
X106347798Y-129061224D01*
X106317380Y-129057855D01*
X106302956Y-129055662D01*
X106275119Y-129051940D01*
X106251108Y-129049353D01*
X106234921Y-129048360D01*
X106213575Y-129046126D01*
X106187610Y-129039616D01*
X106163827Y-129030398D01*
X106147130Y-129020051D01*
X106140134Y-129009289D01*
X106136629Y-128993175D01*
X106136729Y-128990575D01*
X106143871Y-128971110D01*
X106162383Y-128951675D01*
X106192392Y-128932201D01*
X106234022Y-128912617D01*
X106287398Y-128892854D01*
X106352646Y-128872843D01*
X106353116Y-128872710D01*
X106372149Y-128866840D01*
X106388649Y-128861050D01*
X106398013Y-128858122D01*
X106417458Y-128853497D01*
X106439653Y-128849303D01*
X106454356Y-128846859D01*
X106481922Y-128842149D01*
X106505658Y-128837952D01*
X106545530Y-128830976D01*
X106605456Y-128821510D01*
X106669553Y-128812618D01*
X106740426Y-128803944D01*
X106820683Y-128795134D01*
X106831002Y-128794156D01*
X106869722Y-128791624D01*
X106918289Y-128789733D01*
X106975099Y-128788461D01*
X107038545Y-128787782D01*
X107107021Y-128787671D01*
X107178923Y-128788105D01*
X107252643Y-128789059D01*
X107326578Y-128790509D01*
X107399120Y-128792431D01*
X107468664Y-128794799D01*
X107533605Y-128797590D01*
X107592337Y-128800779D01*
X107643255Y-128804342D01*
X107684751Y-128808254D01*
X107699274Y-128809728D01*
X107728917Y-128812280D01*
X107765071Y-128815024D01*
X107804448Y-128817715D01*
X107843764Y-128820107D01*
X107872386Y-128821865D01*
X107908866Y-128824489D01*
X107941586Y-128827252D01*
X107967803Y-128829921D01*
X107984775Y-128832257D01*
X107994695Y-128833755D01*
X108019906Y-128836301D01*
X108050118Y-128838262D01*
X108080782Y-128839305D01*
X108099653Y-128839813D01*
X108125506Y-128841197D01*
X108145856Y-128843107D01*
X108157454Y-128845289D01*
X108157855Y-128845432D01*
X108174263Y-128849137D01*
X108195055Y-128851149D01*
X108216171Y-128851414D01*
X108233556Y-128849875D01*
X108243151Y-128846476D01*
X108243810Y-128843045D01*
X108239759Y-128835203D01*
X108229775Y-128822916D01*
X108213312Y-128805641D01*
X108189827Y-128782835D01*
X108158773Y-128753954D01*
X108119607Y-128718457D01*
X108071782Y-128675801D01*
X108033536Y-128641976D01*
X107997078Y-128610108D01*
X107965784Y-128583409D01*
X107937681Y-128560345D01*
X107910793Y-128539380D01*
X107883149Y-128518982D01*
X107852772Y-128497616D01*
X107817691Y-128473747D01*
X107775931Y-128445841D01*
X107771694Y-128443026D01*
X107703057Y-128398308D01*
X107641566Y-128360131D01*
X107585298Y-128327373D01*
X107532329Y-128298911D01*
X107480735Y-128273623D01*
X107443019Y-128256079D01*
X107413267Y-128242489D01*
X107390152Y-128232371D01*
X107371557Y-128224872D01*
X107355366Y-128219138D01*
X107339460Y-128214316D01*
X107321723Y-128209553D01*
X107317988Y-128208583D01*
X107294698Y-128202504D01*
X107271680Y-128196454D01*
X107238058Y-128188683D01*
X107190179Y-128179987D01*
X107135708Y-128172171D01*
X107113558Y-128169096D01*
X107086604Y-128164792D01*
X107065109Y-128160775D01*
X107056885Y-128159516D01*
X107035224Y-128157687D01*
X107006018Y-128156293D01*
X106972049Y-128155454D01*
X106936099Y-128155286D01*
X106897516Y-128155308D01*
X106865466Y-128154516D01*
X106840814Y-128152404D01*
X106821179Y-128148484D01*
X106804179Y-128142270D01*
X106787434Y-128133275D01*
X106768564Y-128121011D01*
X106752082Y-128108860D01*
X106742019Y-128096995D01*
X106738803Y-128082919D01*
X106740451Y-128062507D01*
X106741572Y-128055607D01*
X106745432Y-128042696D01*
X106752790Y-128030217D01*
X106765502Y-128015403D01*
X106785421Y-127995491D01*
X106795897Y-127985164D01*
X106811730Y-127968746D01*
X106822627Y-127956344D01*
X106826684Y-127950059D01*
X106827543Y-127946873D01*
X106834048Y-127934481D01*
X106845631Y-127916110D01*
X106860728Y-127894083D01*
X106877773Y-127870724D01*
X106895202Y-127848353D01*
X106901195Y-127840787D01*
X106920681Y-127814673D01*
X106943608Y-127782305D01*
X106968474Y-127745961D01*
X106993777Y-127707918D01*
X107018014Y-127670456D01*
X107039683Y-127635852D01*
X107057281Y-127606385D01*
X107069306Y-127584332D01*
X107072436Y-127578094D01*
X107083612Y-127556730D01*
X107093181Y-127539733D01*
X107099347Y-127530328D01*
X107102248Y-127526095D01*
X107110288Y-127511902D01*
X107120945Y-127491358D01*
X107132702Y-127467323D01*
X107134302Y-127463959D01*
X107147417Y-127436458D01*
X107163556Y-127402708D01*
X107180821Y-127366672D01*
X107197315Y-127332313D01*
X107200487Y-127325678D01*
X107216241Y-127291739D01*
X107231412Y-127257630D01*
X107244409Y-127226986D01*
X107253642Y-127203446D01*
X107256497Y-127195720D01*
X107265006Y-127174145D01*
X107272239Y-127157800D01*
X107276875Y-127149742D01*
X107278813Y-127147359D01*
X107282720Y-127136068D01*
X107284050Y-127130095D01*
X107289499Y-127115474D01*
X107297721Y-127097142D01*
X107303637Y-127083827D01*
X107310179Y-127065592D01*
X107312722Y-127053168D01*
X107313413Y-127044986D01*
X107316404Y-127036608D01*
X107317676Y-127034730D01*
X107323069Y-127022730D01*
X107331054Y-127001880D01*
X107341010Y-126974080D01*
X107352315Y-126941227D01*
X107364347Y-126905221D01*
X107376486Y-126867960D01*
X107388110Y-126831341D01*
X107398597Y-126797264D01*
X107407325Y-126767627D01*
X107413674Y-126744328D01*
X107417021Y-126729265D01*
X107419112Y-126718497D01*
X107423903Y-126697841D01*
X107429758Y-126675261D01*
X107429926Y-126674649D01*
X107439749Y-126637971D01*
X107446903Y-126608957D01*
X107452255Y-126583863D01*
X107456670Y-126558942D01*
X107457315Y-126555123D01*
X107461790Y-126531804D01*
X107467863Y-126503305D01*
X107474411Y-126474936D01*
X107476036Y-126468208D01*
X107482711Y-126440561D01*
X107488883Y-126414970D01*
X107493394Y-126396239D01*
X107497776Y-126374216D01*
X107501448Y-126346110D01*
X107503407Y-126318395D01*
X107503552Y-126293927D01*
X107501782Y-126275562D01*
X107497997Y-126266153D01*
X107493152Y-126264798D01*
X107477435Y-126263501D01*
X107452984Y-126262839D01*
X107421687Y-126262756D01*
X107385433Y-126263198D01*
X107346110Y-126264108D01*
X107305605Y-126265432D01*
X107265808Y-126267115D01*
X107228607Y-126269099D01*
X107195889Y-126271332D01*
X107169543Y-126273756D01*
X107151457Y-126276317D01*
X107133792Y-126279727D01*
X107107281Y-126284630D01*
X107077720Y-126289816D01*
X107042171Y-126295796D01*
X106997697Y-126303082D01*
X106980955Y-126305851D01*
X106934200Y-126314128D01*
X106891630Y-126322448D01*
X106854784Y-126330461D01*
X106825201Y-126337820D01*
X106804421Y-126344177D01*
X106793981Y-126349184D01*
X106786839Y-126352383D01*
X106772979Y-126354177D01*
X106771638Y-126354218D01*
X106757286Y-126356552D01*
X106736283Y-126361766D01*
X106712675Y-126368873D01*
X106710984Y-126369426D01*
X106685529Y-126377498D01*
X106661420Y-126384741D01*
X106643669Y-126389648D01*
X106638556Y-126390938D01*
X106592697Y-126403161D01*
X106551150Y-126415375D01*
X106517659Y-126426486D01*
X106504564Y-126431345D01*
X106480248Y-126440810D01*
X106454200Y-126451350D01*
X106429004Y-126461880D01*
X106407242Y-126471312D01*
X106391497Y-126478562D01*
X106384352Y-126482542D01*
X106378694Y-126484881D01*
X106365959Y-126486246D01*
X106359620Y-126487028D01*
X106342509Y-126492126D01*
X106323456Y-126500404D01*
X106307677Y-126508346D01*
X106293352Y-126515229D01*
X106278298Y-126521959D01*
X106259903Y-126529664D01*
X106235553Y-126539470D01*
X106202634Y-126552505D01*
X106175569Y-126563222D01*
X106152158Y-126572642D01*
X106131603Y-126581184D01*
X106110458Y-126590310D01*
X106085280Y-126601480D01*
X106052623Y-126616158D01*
X106032594Y-126625252D01*
X106014196Y-126633824D01*
X105995482Y-126642857D01*
X105973869Y-126653617D01*
X105946773Y-126667375D01*
X105911612Y-126685398D01*
X105910958Y-126685734D01*
X105886392Y-126698248D01*
X105862177Y-126710421D01*
X105843464Y-126719661D01*
X105836335Y-126723127D01*
X105816777Y-126732695D01*
X105801461Y-126740264D01*
X105795273Y-126743369D01*
X105787185Y-126747494D01*
X105776735Y-126752919D01*
X105761861Y-126760723D01*
X105740502Y-126771983D01*
X105710596Y-126787778D01*
X105695045Y-126796163D01*
X105672796Y-126808790D01*
X105647512Y-126823917D01*
X105616879Y-126842936D01*
X105578585Y-126867239D01*
X105575501Y-126869202D01*
X105555783Y-126881394D01*
X105539621Y-126890821D01*
X105530257Y-126895580D01*
X105527895Y-126896655D01*
X105515899Y-126903453D01*
X105497972Y-126914543D01*
X105477029Y-126928141D01*
X105468830Y-126933569D01*
X105449256Y-126946404D01*
X105434183Y-126956115D01*
X105426349Y-126960931D01*
X105424972Y-126961668D01*
X105413850Y-126967530D01*
X105398571Y-126975515D01*
X105386009Y-126982861D01*
X105365958Y-126996131D01*
X105345647Y-127010870D01*
X105330427Y-127022150D01*
X105305267Y-127039799D01*
X105282642Y-127054668D01*
X105269110Y-127063323D01*
X105249128Y-127076772D01*
X105234087Y-127087671D01*
X105221253Y-127096899D01*
X105201468Y-127110030D01*
X105180083Y-127123424D01*
X105176882Y-127125406D01*
X105156852Y-127138846D01*
X105131138Y-127157276D01*
X105102713Y-127178530D01*
X105074546Y-127200438D01*
X105064736Y-127208211D01*
X105040046Y-127227513D01*
X105018647Y-127243881D01*
X105002556Y-127255785D01*
X104993793Y-127261694D01*
X104989271Y-127264482D01*
X104974882Y-127274540D01*
X104954841Y-127289347D01*
X104931557Y-127307080D01*
X104907436Y-127325921D01*
X104884887Y-127344048D01*
X104878823Y-127349011D01*
X104864291Y-127360873D01*
X104849340Y-127373015D01*
X104830993Y-127387852D01*
X104806272Y-127407797D01*
X104786930Y-127423682D01*
X104765034Y-127442205D01*
X104747520Y-127457573D01*
X104745721Y-127459197D01*
X104728259Y-127474605D01*
X104706427Y-127493453D01*
X104684515Y-127512032D01*
X104679716Y-127516083D01*
X104655016Y-127537459D01*
X104627864Y-127561606D01*
X104603318Y-127584037D01*
X104599189Y-127587881D01*
X104572914Y-127612295D01*
X104544464Y-127638667D01*
X104519312Y-127661923D01*
X104509468Y-127671156D01*
X104489718Y-127690017D01*
X104463756Y-127715054D01*
X104432917Y-127744970D01*
X104398535Y-127778470D01*
X104361947Y-127814257D01*
X104324487Y-127851035D01*
X104296571Y-127878343D01*
X104259423Y-127914233D01*
X104223986Y-127947983D01*
X104191617Y-127978328D01*
X104163670Y-128003997D01*
X104141503Y-128023724D01*
X104126471Y-128036238D01*
X104116975Y-128043546D01*
X104088817Y-128065146D01*
X104058273Y-128088503D01*
X104030463Y-128109697D01*
X104019855Y-128117774D01*
X103990438Y-128140249D01*
X103960431Y-128163265D01*
X103934912Y-128182930D01*
X103932815Y-128184555D01*
X103910542Y-128202162D01*
X103884519Y-128223206D01*
X103856619Y-128246122D01*
X103828712Y-128269344D01*
X103802670Y-128291305D01*
X103780363Y-128310440D01*
X103763663Y-128325183D01*
X103754442Y-128333968D01*
X103752748Y-128335663D01*
X103740853Y-128345820D01*
X103720686Y-128361742D01*
X103693433Y-128382520D01*
X103660286Y-128407242D01*
X103622431Y-128435000D01*
X103608649Y-128444596D01*
X103578705Y-128462438D01*
X103552338Y-128474049D01*
X103531970Y-128478271D01*
X103524664Y-128477344D01*
X103507982Y-128468264D01*
X103495397Y-128452527D01*
X103490421Y-128433884D01*
X103491305Y-128426862D01*
X103496830Y-128408429D01*
X103505780Y-128386670D01*
X103516239Y-128366021D01*
X103526286Y-128350918D01*
X103526880Y-128350191D01*
X103533931Y-128340444D01*
X103545029Y-128324191D01*
X103558049Y-128304535D01*
X103561750Y-128299026D01*
X103579770Y-128274534D01*
X103601354Y-128247741D01*
X103622608Y-128223529D01*
X103629931Y-128215614D01*
X103650093Y-128193498D01*
X103668514Y-128172880D01*
X103681948Y-128157378D01*
X103688030Y-128150249D01*
X103713737Y-128121700D01*
X103744130Y-128089781D01*
X103776703Y-128056982D01*
X103808947Y-128025793D01*
X103838356Y-127998703D01*
X103862422Y-127978200D01*
X103874652Y-127968416D01*
X103904540Y-127943775D01*
X103925830Y-127924284D01*
X103939326Y-127908485D01*
X103945833Y-127894921D01*
X103946154Y-127882134D01*
X103941094Y-127868668D01*
X103931456Y-127853065D01*
X103927426Y-127846943D01*
X103919574Y-127833555D01*
X103916454Y-127825817D01*
X103916452Y-127825743D01*
X103913407Y-127818132D01*
X103905679Y-127803518D01*
X103894904Y-127784995D01*
X103886577Y-127770819D01*
X103872039Y-127745099D01*
X103855829Y-127715613D01*
X103840156Y-127686341D01*
X103827613Y-127662853D01*
X103814333Y-127638667D01*
X103803451Y-127619565D01*
X103796526Y-127608334D01*
X103795410Y-127606695D01*
X103785713Y-127591111D01*
X103771419Y-127566673D01*
X103753386Y-127534890D01*
X103732472Y-127497270D01*
X103709534Y-127455322D01*
X103701797Y-127441676D01*
X103686908Y-127416747D01*
X103668239Y-127386451D01*
X103647421Y-127353426D01*
X103626084Y-127320312D01*
X103607572Y-127291890D01*
X103589754Y-127264459D01*
X103575016Y-127241690D01*
X103564519Y-127225379D01*
X103559426Y-127217319D01*
X103543825Y-127191720D01*
X103511195Y-127140120D01*
X103477180Y-127088575D01*
X103443225Y-127039170D01*
X103410780Y-126993989D01*
X103381291Y-126955117D01*
X103356205Y-126924639D01*
X103351359Y-126919042D01*
X103330204Y-126892989D01*
X103313432Y-126869634D01*
X103302371Y-126850946D01*
X103298350Y-126838893D01*
X103298011Y-126837598D01*
X103292494Y-126827861D01*
X103281261Y-126811265D01*
X103265667Y-126789753D01*
X103247066Y-126765268D01*
X103243407Y-126760553D01*
X103223226Y-126734518D01*
X103204607Y-126710458D01*
X103189484Y-126690872D01*
X103179791Y-126678261D01*
X103175187Y-126672408D01*
X103161156Y-126655360D01*
X103143227Y-126634220D01*
X103124155Y-126612256D01*
X103118968Y-126606307D01*
X103095093Y-126578001D01*
X103069991Y-126547081D01*
X103048312Y-126519249D01*
X103047288Y-126517909D01*
X103032818Y-126500548D01*
X103010831Y-126475992D01*
X102982336Y-126445276D01*
X102948344Y-126409436D01*
X102909864Y-126369508D01*
X102867907Y-126326527D01*
X102823483Y-126281528D01*
X102777602Y-126235546D01*
X102731274Y-126189618D01*
X102685509Y-126144779D01*
X102641318Y-126102064D01*
X102624296Y-126085973D01*
X102595860Y-126059765D01*
X102563707Y-126030726D01*
X102529409Y-126000224D01*
X102494536Y-125969624D01*
X102460660Y-125940294D01*
X102429352Y-125913600D01*
X102402183Y-125890910D01*
X102380724Y-125873590D01*
X102366545Y-125863006D01*
X102357651Y-125856098D01*
X102341821Y-125842765D01*
X102321615Y-125825157D01*
X102299327Y-125805243D01*
X102291834Y-125798533D01*
X102264692Y-125774892D01*
X102232630Y-125747698D01*
X102199041Y-125719808D01*
X102167317Y-125694079D01*
X102155003Y-125684199D01*
X102123707Y-125658765D01*
X102092821Y-125633269D01*
X102065352Y-125610205D01*
X102044307Y-125592067D01*
X102041796Y-125589858D01*
X102016939Y-125568455D01*
X101987555Y-125543787D01*
X101955919Y-125517700D01*
X101924301Y-125492040D01*
X101894976Y-125468654D01*
X101870215Y-125449387D01*
X101852292Y-125436086D01*
X101839864Y-125426739D01*
X101820358Y-125410952D01*
X101800848Y-125394211D01*
X101791304Y-125385901D01*
X101779306Y-125375938D01*
X101764974Y-125364587D01*
X101747243Y-125351056D01*
X101725045Y-125334553D01*
X101697316Y-125314287D01*
X101662987Y-125289465D01*
X101620994Y-125259296D01*
X101570270Y-125222988D01*
X101553962Y-125211370D01*
X101515219Y-125184079D01*
X101477014Y-125157560D01*
X101440666Y-125132695D01*
X101407497Y-125110370D01*
X101378825Y-125091467D01*
X101355971Y-125076871D01*
X101340255Y-125067466D01*
X101332998Y-125064134D01*
X101326429Y-125061268D01*
X101315636Y-125053140D01*
X101310358Y-125048907D01*
X101293917Y-125037342D01*
X101271405Y-125022615D01*
X101245676Y-125006530D01*
X101219583Y-124990892D01*
X101195980Y-124977503D01*
X101180955Y-124969308D01*
X101148229Y-124951361D01*
X101124178Y-124937974D01*
X101107419Y-124928361D01*
X101096565Y-124921732D01*
X101090232Y-124917298D01*
X101085418Y-124914224D01*
X101070526Y-124906913D01*
X101051799Y-124899287D01*
X101036863Y-124893186D01*
X101011764Y-124881467D01*
X100987938Y-124868957D01*
X100971947Y-124860499D01*
X100943958Y-124847391D01*
X100918362Y-124837106D01*
X100904260Y-124832124D01*
X100875075Y-124821766D01*
X100848427Y-124812262D01*
X100830361Y-124807292D01*
X100797531Y-124802128D01*
X100759830Y-124799264D01*
X100721327Y-124798838D01*
X100686093Y-124800988D01*
X100658198Y-124805850D01*
X100647682Y-124808978D01*
X100617942Y-124821056D01*
X100589690Y-124838151D01*
X100561624Y-124861438D01*
X100532445Y-124892096D01*
X100500852Y-124931302D01*
X100465543Y-124980233D01*
X100465343Y-124980522D01*
X100450812Y-125003300D01*
X100432489Y-125034731D01*
X100411542Y-125072584D01*
X100389140Y-125114630D01*
X100366452Y-125158640D01*
X100344646Y-125202383D01*
X100324891Y-125243630D01*
X100308356Y-125280151D01*
X100308144Y-125280637D01*
X100300860Y-125297047D01*
X100290753Y-125319453D01*
X100279942Y-125343156D01*
X100279543Y-125344028D01*
X100267439Y-125371671D01*
X100254228Y-125403630D01*
X100242698Y-125433163D01*
X100240595Y-125438781D01*
X100231163Y-125463960D01*
X100222698Y-125486527D01*
X100216818Y-125502169D01*
X100216188Y-125503853D01*
X100210642Y-125519078D01*
X100202328Y-125542270D01*
X100192264Y-125570584D01*
X100181464Y-125601176D01*
X100178939Y-125608343D01*
X100168625Y-125637352D01*
X100159552Y-125662486D01*
X100152622Y-125681258D01*
X100148739Y-125691183D01*
X100146906Y-125696013D01*
X100141717Y-125711907D01*
X100134922Y-125734370D01*
X100127508Y-125760189D01*
X100123337Y-125774841D01*
X100116085Y-125799184D01*
X100109959Y-125818374D01*
X100105964Y-125829194D01*
X100105025Y-125831356D01*
X100099793Y-125846627D01*
X100094800Y-125865197D01*
X100094552Y-125866260D01*
X100089329Y-125887244D01*
X100081756Y-125916074D01*
X100072762Y-125949307D01*
X100063280Y-125983500D01*
X100054241Y-126015209D01*
X100051549Y-126024653D01*
X100045338Y-126047492D01*
X100040609Y-126066213D01*
X100035098Y-126086056D01*
X100028471Y-126105216D01*
X100025259Y-126113901D01*
X100018599Y-126134139D01*
X100012037Y-126156220D01*
X100008805Y-126167737D01*
X100001108Y-126194924D01*
X99994150Y-126219225D01*
X99991782Y-126227721D01*
X99985321Y-126253255D01*
X99980280Y-126276229D01*
X99978550Y-126284648D01*
X99973563Y-126306934D01*
X99967059Y-126334500D01*
X99959996Y-126363236D01*
X99957352Y-126373811D01*
X99948650Y-126409195D01*
X99939810Y-126445817D01*
X99932391Y-126477245D01*
X99930297Y-126486130D01*
X99923318Y-126514181D01*
X99916468Y-126539764D01*
X99910972Y-126558252D01*
X99908984Y-126564824D01*
X99904064Y-126587151D01*
X99902109Y-126606376D01*
X99902109Y-126606565D01*
X99900445Y-126623173D01*
X99896150Y-126646230D01*
X99890137Y-126670805D01*
X99889816Y-126671970D01*
X99883920Y-126695700D01*
X99879730Y-126716858D01*
X99878137Y-126730989D01*
X99876764Y-126743767D01*
X99872835Y-126753567D01*
X99869807Y-126759842D01*
X99865306Y-126775194D01*
X99861003Y-126795270D01*
X99858138Y-126810209D01*
X99852611Y-126837241D01*
X99845923Y-126868655D01*
X99838950Y-126900279D01*
X99836908Y-126909356D01*
X99828227Y-126948064D01*
X99821686Y-126977556D01*
X99816855Y-126999904D01*
X99813308Y-127017180D01*
X99810615Y-127031455D01*
X99808349Y-127044802D01*
X99806080Y-127059291D01*
X99803448Y-127074931D01*
X99798764Y-127098389D01*
X99794349Y-127116256D01*
X99789968Y-127137517D01*
X99788129Y-127159477D01*
X99788119Y-127160911D01*
X99786410Y-127180000D01*
X99782670Y-127195520D01*
X99782411Y-127196203D01*
X99778709Y-127209646D01*
X99774317Y-127230414D01*
X99770131Y-127254307D01*
X99765884Y-127280203D01*
X99761084Y-127307634D01*
X99756988Y-127329312D01*
X99754545Y-127342152D01*
X99749941Y-127369159D01*
X99746010Y-127395318D01*
X99744770Y-127404100D01*
X99740869Y-127430115D01*
X99736045Y-127460833D01*
X99731065Y-127491325D01*
X99729365Y-127501798D01*
X99724222Y-127536655D01*
X99719584Y-127572258D01*
X99716287Y-127602334D01*
X99715654Y-127608774D01*
X99711825Y-127641357D01*
X99706823Y-127677445D01*
X99701562Y-127710342D01*
X99700190Y-127718439D01*
X99694843Y-127754046D01*
X99689860Y-127792699D01*
X99686168Y-127827352D01*
X99685011Y-127839519D01*
X99681516Y-127871642D01*
X99677646Y-127902347D01*
X99674047Y-127926359D01*
X99671103Y-127945000D01*
X99667445Y-127972481D01*
X99665120Y-127995365D01*
X99664337Y-128005084D01*
X99662180Y-128029084D01*
X99659375Y-128058277D01*
X99656326Y-128088372D01*
X99654353Y-128108126D01*
X99650846Y-128146257D01*
X99647414Y-128186675D01*
X99644579Y-128223383D01*
X99642933Y-128245237D01*
X99639683Y-128284940D01*
X99636166Y-128324657D01*
X99632902Y-128358393D01*
X99627984Y-128412412D01*
X99623245Y-128476878D01*
X99618857Y-128548759D01*
X99614919Y-128625746D01*
X99611528Y-128705530D01*
X99608782Y-128785801D01*
X99606780Y-128864250D01*
X99605619Y-128938567D01*
X99605397Y-129006444D01*
X99605670Y-129049745D01*
X99607357Y-129176585D01*
X99610306Y-129305573D01*
X99614420Y-129433883D01*
X99619598Y-129558692D01*
X99625742Y-129677175D01*
X99632753Y-129786506D01*
X99633330Y-129794668D01*
X99636337Y-129839591D01*
X99639415Y-129888824D01*
X99642231Y-129936942D01*
X99644456Y-129978521D01*
X99645883Y-130005217D01*
X99651409Y-130083328D01*
X99658414Y-130150250D01*
X99666953Y-130206539D01*
X99668647Y-130216615D01*
X99672332Y-130241810D01*
X99676267Y-130271959D01*
X99679846Y-130302547D01*
X99682017Y-130321060D01*
X99685718Y-130348113D01*
X99689368Y-130370259D01*
X99692423Y-130383979D01*
X99692848Y-130385414D01*
X99696632Y-130404959D01*
X99698265Y-130425982D01*
X99698302Y-130428102D01*
X99700438Y-130451048D01*
X99704809Y-130473560D01*
X99706722Y-130480962D01*
X99710150Y-130495684D01*
X99713797Y-130513653D01*
X99718068Y-130537021D01*
X99723366Y-130567943D01*
X99730093Y-130608571D01*
X99731360Y-130616072D01*
X99736065Y-130640974D01*
X99740707Y-130661769D01*
X99744439Y-130674576D01*
X99746832Y-130682082D01*
X99751063Y-130700970D01*
X99754457Y-130722580D01*
X99757027Y-130739288D01*
X99767396Y-130782889D01*
X99782885Y-130829370D01*
X99783206Y-130830254D01*
X99786739Y-130846364D01*
X99788272Y-130865373D01*
X99789801Y-130878545D01*
X99795243Y-130900712D01*
X99803245Y-130923595D01*
X99810213Y-130941540D01*
X99815908Y-130958523D01*
X99818104Y-130968398D01*
X99818274Y-130970438D01*
X99821360Y-130983669D01*
X99827328Y-131002932D01*
X99834873Y-131024239D01*
X99842692Y-131043605D01*
X99845377Y-131050710D01*
X99850879Y-131068021D01*
X99856665Y-131088608D01*
X99866530Y-131123507D01*
X99876355Y-131153254D01*
X99884941Y-131174034D01*
X99887464Y-131180422D01*
X99890163Y-131195035D01*
X99891290Y-131201240D01*
X99896734Y-131216683D01*
X99905164Y-131235137D01*
X99910528Y-131246795D01*
X99917437Y-131266295D01*
X99920140Y-131280908D01*
X99921546Y-131293708D01*
X99926634Y-131311800D01*
X99936110Y-131336350D01*
X99950675Y-131369386D01*
X99952873Y-131374268D01*
X99962984Y-131397988D01*
X99971837Y-131420390D01*
X99973341Y-131424334D01*
X99982879Y-131446964D01*
X99992724Y-131467519D01*
X99999353Y-131481270D01*
X100009170Y-131503861D01*
X100018594Y-131527523D01*
X100024807Y-131542596D01*
X100037360Y-131570233D01*
X100054506Y-131606095D01*
X100075602Y-131648882D01*
X100100007Y-131697297D01*
X100127078Y-131750042D01*
X100156174Y-131805817D01*
X100160127Y-131813227D01*
X100174017Y-131837930D01*
X100187392Y-131860001D01*
X100197828Y-131875389D01*
X100202393Y-131881542D01*
X100210821Y-131894094D01*
X100214163Y-131901027D01*
X100216788Y-131907169D01*
X100224367Y-131920596D01*
X100235165Y-131938080D01*
X100245265Y-131954488D01*
X100253147Y-131968609D01*
X100256166Y-131975895D01*
X100257749Y-131979996D01*
X100264829Y-131991748D01*
X100275668Y-132007253D01*
X100283156Y-132017755D01*
X100299003Y-132041564D01*
X100313171Y-132064568D01*
X100318800Y-132073965D01*
X100332854Y-132096391D01*
X100349815Y-132122578D01*
X100367162Y-132148602D01*
X100378711Y-132165762D01*
X100391925Y-132185742D01*
X100401406Y-132200500D01*
X100405631Y-132207697D01*
X100407139Y-132210640D01*
X100415641Y-132223482D01*
X100429070Y-132241633D01*
X100445311Y-132262370D01*
X100462254Y-132282968D01*
X100477784Y-132300704D01*
X100490585Y-132315313D01*
X100508843Y-132337114D01*
X100529598Y-132362581D01*
X100550381Y-132388718D01*
X100576747Y-132420923D01*
X100609575Y-132457268D01*
X100640811Y-132487869D01*
X100668903Y-132511227D01*
X100692298Y-132525840D01*
X100694120Y-132526727D01*
X100711480Y-132536933D01*
X100725015Y-132547535D01*
X100725394Y-132547910D01*
X100739278Y-132559204D01*
X100755982Y-132569975D01*
X100763959Y-132575079D01*
X100784656Y-132597343D01*
X100797587Y-132627679D01*
X100802111Y-132664772D01*
X100801746Y-132677132D01*
X100797311Y-132701449D01*
X100786688Y-132720712D01*
X100768427Y-132736351D01*
X100741081Y-132749797D01*
X100703201Y-132762481D01*
X100689996Y-132764861D01*
X100666855Y-132766593D01*
X100633798Y-132767479D01*
X100590137Y-132767538D01*
X100535188Y-132766786D01*
X100514178Y-132766358D01*
X100463480Y-132765110D01*
X100411424Y-132763562D01*
X100359493Y-132761780D01*
X100309173Y-132759830D01*
X100261946Y-132757779D01*
X100219297Y-132755694D01*
X100182710Y-132753642D01*
X100153668Y-132751689D01*
X100133655Y-132749901D01*
X100124156Y-132748345D01*
X100116115Y-132746980D01*
X100097952Y-132745065D01*
X100071856Y-132742826D01*
X100039897Y-132740439D01*
X100004146Y-132738082D01*
X99975372Y-132736235D01*
X99934849Y-132733433D01*
X99896442Y-132730566D01*
X99863441Y-132727882D01*
X99839133Y-132725630D01*
X99837337Y-132725449D01*
X99813307Y-132723561D01*
X99780438Y-132721642D01*
X99741607Y-132719828D01*
X99699688Y-132718254D01*
X99657558Y-132717056D01*
X99623164Y-132716310D01*
X99588577Y-132715800D01*
X99563352Y-132715857D01*
X99546012Y-132716548D01*
X99535079Y-132717942D01*
X99529074Y-132720108D01*
X99526518Y-132723112D01*
X99525868Y-132726477D01*
X99232884Y-132726477D01*
X99229990Y-132721546D01*
X99212128Y-132687408D01*
X99196385Y-132653695D01*
X99184312Y-132623569D01*
X99177460Y-132600189D01*
X99174206Y-132570269D01*
X99178996Y-132534877D01*
X99194181Y-132505415D01*
X99219601Y-132482158D01*
X99255101Y-132465380D01*
X99261609Y-132463674D01*
X99284050Y-132460398D01*
X99315365Y-132457976D01*
X99353402Y-132456429D01*
X99396010Y-132455775D01*
X99441036Y-132456034D01*
X99486330Y-132457227D01*
X99529739Y-132459373D01*
X99569112Y-132462492D01*
X99570879Y-132462663D01*
X99601116Y-132464933D01*
X99638452Y-132466840D01*
X99678313Y-132468190D01*
X99716124Y-132468785D01*
X99754737Y-132469354D01*
X99799565Y-132470705D01*
X99843559Y-132472625D01*
X99881137Y-132474907D01*
X99922813Y-132477902D01*
X99976291Y-132481555D01*
X100029494Y-132485001D01*
X100080471Y-132488124D01*
X100127275Y-132490809D01*
X100167958Y-132492942D01*
X100200570Y-132494408D01*
X100223164Y-132495091D01*
X100231197Y-132495194D01*
X100250054Y-132494946D01*
X100260508Y-132493173D01*
X100265294Y-132489045D01*
X100267148Y-132481731D01*
X100266592Y-132471756D01*
X100260659Y-132460730D01*
X100253720Y-132453279D01*
X100242159Y-132438728D01*
X100228984Y-132420713D01*
X100223996Y-132413691D01*
X100209367Y-132393441D01*
X100190383Y-132367455D01*
X100168948Y-132338336D01*
X100146966Y-132308685D01*
X100133137Y-132289986D01*
X100115253Y-132265408D01*
X100100995Y-132245336D01*
X100091563Y-132231462D01*
X100088153Y-132225482D01*
X100086287Y-132221146D01*
X100078993Y-132209300D01*
X100068068Y-132193499D01*
X100059808Y-132181475D01*
X100044229Y-132156641D01*
X100030663Y-132132691D01*
X100030103Y-132131628D01*
X100017698Y-132109324D01*
X100002095Y-132082841D01*
X99986532Y-132057685D01*
X99985680Y-132056346D01*
X99970020Y-132030959D01*
X99954505Y-132004568D01*
X99942374Y-131982679D01*
X99934045Y-131967226D01*
X99925182Y-131951697D01*
X99919671Y-131943167D01*
X99918990Y-131942267D01*
X99912704Y-131932385D01*
X99902849Y-131915663D01*
X99891238Y-131895164D01*
X99890266Y-131893417D01*
X99877299Y-131870172D01*
X99865109Y-131848422D01*
X99856218Y-131832667D01*
X99854748Y-131829998D01*
X99846033Y-131812486D01*
X99835316Y-131789080D01*
X99824581Y-131764083D01*
X99821408Y-131756454D01*
X99812016Y-131734313D01*
X99804313Y-131716769D01*
X99799721Y-131707079D01*
X99797816Y-131703493D01*
X99790118Y-131688116D01*
X99779566Y-131666289D01*
X99767165Y-131640169D01*
X99753918Y-131611918D01*
X99740828Y-131583694D01*
X99728900Y-131557658D01*
X99719138Y-131535970D01*
X99712544Y-131520789D01*
X99710123Y-131514276D01*
X99710073Y-131513593D01*
X99707303Y-131503879D01*
X99701600Y-131489344D01*
X99696763Y-131477683D01*
X99688354Y-131456381D01*
X99679719Y-131433636D01*
X99673282Y-131416509D01*
X99665028Y-131395106D01*
X99658821Y-131379631D01*
X99658288Y-131378345D01*
X99652213Y-131362780D01*
X99644001Y-131340763D01*
X99635270Y-131316626D01*
X99625530Y-131289624D01*
X99614697Y-131260205D01*
X99605432Y-131235620D01*
X99598314Y-131216322D01*
X99585523Y-131179068D01*
X99571407Y-131135552D01*
X99556851Y-131088705D01*
X99542742Y-131041455D01*
X99529966Y-130996734D01*
X99519410Y-130957471D01*
X99511960Y-130926596D01*
X99509211Y-130914592D01*
X99502960Y-130889950D01*
X99497092Y-130869591D01*
X99495415Y-130864268D01*
X99491283Y-130850224D01*
X99486938Y-130833764D01*
X99481806Y-130812557D01*
X99475317Y-130784273D01*
X99466898Y-130746581D01*
X99460997Y-130720600D01*
X99453992Y-130690850D01*
X99447914Y-130666058D01*
X99447194Y-130663163D01*
X99441635Y-130638324D01*
X99435672Y-130608335D01*
X99430478Y-130579051D01*
X99429608Y-130573777D01*
X99424742Y-130545262D01*
X99419877Y-130518108D01*
X99415949Y-130497562D01*
X99415317Y-130494335D01*
X99411598Y-130472033D01*
X99407653Y-130444079D01*
X99404236Y-130415746D01*
X99403564Y-130409723D01*
X99400048Y-130381928D01*
X99396223Y-130356304D01*
X99392806Y-130337740D01*
X99388948Y-130317598D01*
X99383639Y-130282494D01*
X99378192Y-130239286D01*
X99372828Y-130190170D01*
X99367769Y-130137341D01*
X99363234Y-130082993D01*
X99359446Y-130029322D01*
X99356625Y-129978521D01*
X99356270Y-129971207D01*
X99354518Y-129941676D01*
X99352555Y-129916887D01*
X99350596Y-129899257D01*
X99348855Y-129891203D01*
X99348557Y-129890128D01*
X99347547Y-129879336D01*
X99346442Y-129858284D01*
X99345284Y-129828288D01*
X99344114Y-129790664D01*
X99342975Y-129746728D01*
X99341910Y-129697796D01*
X99340961Y-129645184D01*
X99340816Y-129636433D01*
X99339795Y-129581595D01*
X99338625Y-129528675D01*
X99337355Y-129479351D01*
X99336036Y-129435306D01*
X99334717Y-129398219D01*
X99333447Y-129369771D01*
X99332277Y-129351643D01*
X99331347Y-129340424D01*
X99329884Y-129317257D01*
X99329412Y-129299790D01*
X99330048Y-129291144D01*
X99330499Y-129288734D01*
X99329869Y-129276183D01*
X99326881Y-129258998D01*
X99326523Y-129256986D01*
X99325367Y-129241306D01*
X99324730Y-129213962D01*
X99324612Y-129175216D01*
X99325010Y-129125331D01*
X99325923Y-129064570D01*
X99327349Y-128993194D01*
X99329285Y-128911465D01*
X99331142Y-128838267D01*
X99333311Y-128754065D01*
X99335252Y-128680572D01*
X99336994Y-128617063D01*
X99338564Y-128562810D01*
X99339987Y-128517090D01*
X99341291Y-128479176D01*
X99342504Y-128448342D01*
X99343652Y-128423863D01*
X99344761Y-128405013D01*
X99345860Y-128391066D01*
X99346975Y-128381297D01*
X99348132Y-128374981D01*
X99349360Y-128371390D01*
X99350644Y-128366471D01*
X99352743Y-128350561D01*
X99354884Y-128326410D01*
X99356875Y-128296267D01*
X99358529Y-128262386D01*
X99360611Y-128216344D01*
X99363845Y-128158668D01*
X99367510Y-128105978D01*
X99371466Y-128060029D01*
X99375575Y-128022573D01*
X99379697Y-127995365D01*
X99380110Y-127993079D01*
X99382873Y-127974014D01*
X99386107Y-127946848D01*
X99389441Y-127914867D01*
X99392508Y-127881356D01*
X99393950Y-127864466D01*
X99400656Y-127790184D01*
X99407146Y-127725833D01*
X99413616Y-127669711D01*
X99420257Y-127620112D01*
X99427265Y-127575332D01*
X99430909Y-127552954D01*
X99435560Y-127522954D01*
X99439797Y-127494325D01*
X99443741Y-127468405D01*
X99448105Y-127442285D01*
X99451843Y-127422320D01*
X99454119Y-127410622D01*
X99458865Y-127383828D01*
X99464520Y-127349815D01*
X99470620Y-127311468D01*
X99476700Y-127271670D01*
X99482295Y-127233305D01*
X99484037Y-127221749D01*
X99488850Y-127192948D01*
X99494783Y-127160102D01*
X99500933Y-127128297D01*
X99504346Y-127110991D01*
X99510094Y-127080351D01*
X99514955Y-127052649D01*
X99518141Y-127032289D01*
X99521279Y-127012784D01*
X99526706Y-126984511D01*
X99532702Y-126957283D01*
X99537463Y-126935476D01*
X99543549Y-126902782D01*
X99548023Y-126873276D01*
X99549311Y-126863824D01*
X99553858Y-126835284D01*
X99559719Y-126802645D01*
X99565952Y-126771268D01*
X99569114Y-126756235D01*
X99575131Y-126727461D01*
X99580396Y-126702078D01*
X99584042Y-126684262D01*
X99590656Y-126651765D01*
X99601214Y-126601363D01*
X99610598Y-126558474D01*
X99618343Y-126525249D01*
X99624578Y-126499082D01*
X99630559Y-126472230D01*
X99637024Y-126441226D01*
X99644794Y-126402239D01*
X99646861Y-126392651D01*
X99652940Y-126368001D01*
X99660842Y-126338709D01*
X99669388Y-126309232D01*
X99674151Y-126293100D01*
X99682078Y-126264726D01*
X99688529Y-126239762D01*
X99692440Y-126222225D01*
X99694644Y-126211824D01*
X99700254Y-126189082D01*
X99707718Y-126161265D01*
X99716028Y-126132218D01*
X99724879Y-126102289D01*
X99733516Y-126072989D01*
X99739747Y-126051650D01*
X99744137Y-126036286D01*
X99747251Y-126024914D01*
X99749654Y-126015549D01*
X99751911Y-126006208D01*
X99756242Y-125989205D01*
X99763211Y-125963750D01*
X99771540Y-125934514D01*
X99780328Y-125904568D01*
X99788670Y-125876985D01*
X99795664Y-125854836D01*
X99800407Y-125841195D01*
X99806324Y-125824742D01*
X99812271Y-125805192D01*
X99813481Y-125801015D01*
X99818710Y-125784801D01*
X99826783Y-125760930D01*
X99836852Y-125731893D01*
X99848066Y-125700184D01*
X99853431Y-125685141D01*
X99864189Y-125654838D01*
X99873427Y-125628646D01*
X99880302Y-125608960D01*
X99883969Y-125598176D01*
X99888358Y-125585220D01*
X99898245Y-125557876D01*
X99911148Y-125523510D01*
X99926105Y-125484575D01*
X99942155Y-125443522D01*
X99958337Y-125402802D01*
X99973691Y-125364866D01*
X99987254Y-125332166D01*
X99998067Y-125307153D01*
X99999324Y-125304345D01*
X100009554Y-125281375D01*
X100019387Y-125259149D01*
X100026362Y-125243398D01*
X100036771Y-125220042D01*
X100047473Y-125196144D01*
X100056948Y-125174921D01*
X100065045Y-125156556D01*
X100069960Y-125145140D01*
X100079191Y-125123294D01*
X100115228Y-125045070D01*
X100155038Y-124968324D01*
X100197658Y-124894508D01*
X100242122Y-124825071D01*
X100287467Y-124761462D01*
X100332729Y-124705131D01*
X100376944Y-124657526D01*
X100419148Y-124620099D01*
X100441466Y-124602972D01*
X100472809Y-124580459D01*
X100500183Y-124563524D01*
X100526599Y-124550572D01*
X100555067Y-124540006D01*
X100588597Y-124530229D01*
X100602741Y-124526639D01*
X100621682Y-124522803D01*
X100641316Y-124520396D01*
X100664466Y-124519213D01*
X100693956Y-124519047D01*
X100732608Y-124519691D01*
X100776306Y-124521432D01*
X100839541Y-124527615D01*
X100897082Y-124538620D01*
X100952476Y-124555199D01*
X101009272Y-124578098D01*
X101046877Y-124594978D01*
X101078532Y-124609294D01*
X101104330Y-124621188D01*
X101126893Y-124631936D01*
X101148843Y-124642812D01*
X101172803Y-124655092D01*
X101201396Y-124670051D01*
X101237244Y-124688965D01*
X101248364Y-124694877D01*
X101286558Y-124715634D01*
X101327482Y-124738446D01*
X101368916Y-124762029D01*
X101408642Y-124785098D01*
X101444439Y-124806369D01*
X101474089Y-124824557D01*
X101495371Y-124838377D01*
X101496251Y-124838980D01*
X101515460Y-124852031D01*
X101531633Y-124862840D01*
X101541348Y-124869119D01*
X101542561Y-124869880D01*
X101553050Y-124876810D01*
X101570756Y-124888751D01*
X101593536Y-124904254D01*
X101619247Y-124921865D01*
X101647366Y-124941141D01*
X101682116Y-124964874D01*
X101715909Y-124987874D01*
X101744283Y-125007100D01*
X101748782Y-125010159D01*
X101769684Y-125024707D01*
X101795985Y-125043387D01*
X101826003Y-125064965D01*
X101858052Y-125088206D01*
X101890446Y-125111875D01*
X101921501Y-125134738D01*
X101949532Y-125155561D01*
X101972854Y-125173110D01*
X101989783Y-125186149D01*
X101998632Y-125193445D01*
X102006371Y-125199959D01*
X102020666Y-125211320D01*
X102038307Y-125224967D01*
X102058328Y-125240551D01*
X102083865Y-125260916D01*
X102107312Y-125280053D01*
X102123168Y-125292983D01*
X102148080Y-125312867D01*
X102175992Y-125334808D01*
X102203320Y-125355973D01*
X102206182Y-125358171D01*
X102252292Y-125393978D01*
X102297381Y-125429825D01*
X102342839Y-125466886D01*
X102390057Y-125506333D01*
X102440424Y-125549341D01*
X102495331Y-125597084D01*
X102556167Y-125650735D01*
X102624323Y-125711469D01*
X102626248Y-125713195D01*
X102651183Y-125736005D01*
X102681476Y-125764383D01*
X102715955Y-125797176D01*
X102753449Y-125833230D01*
X102792787Y-125871393D01*
X102832798Y-125910511D01*
X102872311Y-125949431D01*
X102910155Y-125987000D01*
X102945158Y-126022065D01*
X102976149Y-126053472D01*
X103001957Y-126080069D01*
X103021412Y-126100701D01*
X103033341Y-126114217D01*
X103036681Y-126118228D01*
X103051214Y-126134782D01*
X103071190Y-126156722D01*
X103094420Y-126181664D01*
X103118717Y-126207224D01*
X103121252Y-126209869D01*
X103149251Y-126239956D01*
X103178891Y-126273108D01*
X103206790Y-126305483D01*
X103229567Y-126333234D01*
X103248166Y-126356450D01*
X103270491Y-126383638D01*
X103291105Y-126408092D01*
X103307193Y-126426432D01*
X103316655Y-126437061D01*
X103336499Y-126460183D01*
X103358505Y-126486584D01*
X103379412Y-126512384D01*
X103391158Y-126527130D01*
X103413194Y-126554760D01*
X103434384Y-126581295D01*
X103451418Y-126602586D01*
X103466964Y-126622501D01*
X103488738Y-126651356D01*
X103514377Y-126686053D01*
X103542969Y-126725300D01*
X103573600Y-126767802D01*
X103605359Y-126812265D01*
X103637332Y-126857396D01*
X103668607Y-126901899D01*
X103698271Y-126944482D01*
X103725412Y-126983850D01*
X103749116Y-127018709D01*
X103768471Y-127047765D01*
X103782564Y-127069724D01*
X103790482Y-127083293D01*
X103791266Y-127084696D01*
X103797491Y-127094782D01*
X103808012Y-127111241D01*
X103821060Y-127131297D01*
X103821285Y-127131640D01*
X103838014Y-127158084D01*
X103855435Y-127187041D01*
X103869811Y-127212303D01*
X103876561Y-127224441D01*
X103891668Y-127250644D01*
X103909111Y-127280057D01*
X103926320Y-127308311D01*
X103938115Y-127327591D01*
X103951839Y-127350645D01*
X103962432Y-127369155D01*
X103968261Y-127380316D01*
X103969885Y-127383675D01*
X103977131Y-127397581D01*
X103988836Y-127419421D01*
X104004068Y-127447472D01*
X104021895Y-127480015D01*
X104041384Y-127515327D01*
X104050742Y-127532223D01*
X104069794Y-127566633D01*
X104086903Y-127597550D01*
X104101100Y-127623224D01*
X104111418Y-127641904D01*
X104116887Y-127651838D01*
X104117086Y-127652199D01*
X104124956Y-127663611D01*
X104131328Y-127668339D01*
X104131441Y-127668329D01*
X104137573Y-127663659D01*
X104149689Y-127651681D01*
X104166087Y-127634153D01*
X104185065Y-127612835D01*
X104187923Y-127609565D01*
X104222819Y-127571258D01*
X104264406Y-127527963D01*
X104310597Y-127481678D01*
X104359303Y-127434405D01*
X104408435Y-127388141D01*
X104455905Y-127344888D01*
X104499624Y-127306645D01*
X104537503Y-127275411D01*
X104551995Y-127263855D01*
X104564547Y-127253610D01*
X104570506Y-127248427D01*
X104570615Y-127248312D01*
X104576921Y-127242770D01*
X104589767Y-127232030D01*
X104606509Y-127218304D01*
X104607501Y-127217496D01*
X104624105Y-127203813D01*
X104636658Y-127193162D01*
X104642512Y-127187788D01*
X104648990Y-127181561D01*
X104663176Y-127169327D01*
X104682756Y-127153044D01*
X104705608Y-127134426D01*
X104729607Y-127115190D01*
X104752629Y-127097049D01*
X104772551Y-127081720D01*
X104787249Y-127070916D01*
X104789271Y-127069493D01*
X104808105Y-127055968D01*
X104833054Y-127037719D01*
X104861109Y-127016962D01*
X104889257Y-126995910D01*
X104898769Y-126988783D01*
X104928541Y-126966797D01*
X104960559Y-126943538D01*
X104993122Y-126920206D01*
X105024528Y-126897998D01*
X105053075Y-126878111D01*
X105077062Y-126861744D01*
X105094787Y-126850095D01*
X105104548Y-126844362D01*
X105110607Y-126840798D01*
X105125020Y-126831279D01*
X105144804Y-126817653D01*
X105167553Y-126801552D01*
X105181855Y-126791436D01*
X105211135Y-126771336D01*
X105239891Y-126752258D01*
X105263561Y-126737258D01*
X105263876Y-126737065D01*
X105289489Y-126721187D01*
X105316303Y-126704143D01*
X105338566Y-126689590D01*
X105344754Y-126685471D01*
X105363063Y-126673629D01*
X105381585Y-126662348D01*
X105402934Y-126650116D01*
X105429726Y-126635421D01*
X105464576Y-126616752D01*
X105470323Y-126613673D01*
X105492943Y-126601213D01*
X105512252Y-126590079D01*
X105524581Y-126582374D01*
X105536084Y-126575058D01*
X105558939Y-126561793D01*
X105589578Y-126544814D01*
X105626332Y-126524989D01*
X105667533Y-126503186D01*
X105711509Y-126480274D01*
X105756593Y-126457120D01*
X105801114Y-126434595D01*
X105843404Y-126413565D01*
X105881793Y-126394900D01*
X105914612Y-126379468D01*
X105966002Y-126356272D01*
X106042473Y-126322962D01*
X106119985Y-126290475D01*
X106194665Y-126260424D01*
X106262639Y-126234424D01*
X106268801Y-126232130D01*
X106297327Y-126221224D01*
X106325018Y-126210251D01*
X106346646Y-126201276D01*
X106358786Y-126196162D01*
X106391935Y-126183142D01*
X106427421Y-126170234D01*
X106460808Y-126159017D01*
X106487657Y-126151072D01*
X106521159Y-126142105D01*
X106565550Y-126129889D01*
X106619667Y-126114740D01*
X106639484Y-126109191D01*
X106688665Y-126095712D01*
X106735227Y-126083347D01*
X106777390Y-126072546D01*
X106813375Y-126063758D01*
X106841400Y-126057435D01*
X106859686Y-126054026D01*
X106880645Y-126050532D01*
X106907734Y-126045247D01*
X106934692Y-126039377D01*
X106960528Y-126033890D01*
X106993095Y-126027911D01*
X107021699Y-126023546D01*
X107118225Y-126011826D01*
X107218329Y-126001298D01*
X107310409Y-125993411D01*
X107394007Y-125988171D01*
X107468664Y-125985586D01*
X107533921Y-125985663D01*
X107589319Y-125988410D01*
X107634401Y-125993833D01*
X107668706Y-126001942D01*
X107691777Y-126012741D01*
X107707142Y-126024617D01*
X107721287Y-126039520D01*
X107732710Y-126058011D01*
X107743046Y-126082828D01*
X107753932Y-126116707D01*
X107757673Y-126130826D01*
X107760380Y-126146129D01*
X107761933Y-126164156D01*
X107762444Y-126187220D01*
X107762027Y-126217636D01*
X107760795Y-126257718D01*
X107759831Y-126282028D01*
X107757902Y-126320476D01*
X107755648Y-126356442D01*
X107753275Y-126386754D01*
X107750991Y-126408240D01*
X107750477Y-126412060D01*
X107746619Y-126441713D01*
X107742378Y-126475646D01*
X107738582Y-126507248D01*
X107738131Y-126511050D01*
X107733839Y-126544088D01*
X107728766Y-126579150D01*
X107723915Y-126609256D01*
X107718891Y-126638404D01*
X107713113Y-126672425D01*
X107708124Y-126702263D01*
X107708089Y-126702478D01*
X107703258Y-126728269D01*
X107697740Y-126752705D01*
X107692722Y-126770523D01*
X107691604Y-126773941D01*
X107686738Y-126793395D01*
X107684775Y-126809526D01*
X107684689Y-126812506D01*
X107683754Y-126820344D01*
X107681474Y-126831300D01*
X107677458Y-126846759D01*
X107671316Y-126868103D01*
X107662656Y-126896717D01*
X107651086Y-126933983D01*
X107636217Y-126981285D01*
X107630912Y-126998344D01*
X107622885Y-127025088D01*
X107616467Y-127047602D01*
X107612701Y-127062291D01*
X107609619Y-127073923D01*
X107602706Y-127096320D01*
X107593345Y-127124620D01*
X107582545Y-127155859D01*
X107571312Y-127187074D01*
X107560656Y-127215303D01*
X107558781Y-127220122D01*
X107551825Y-127238072D01*
X107546740Y-127251306D01*
X107545697Y-127254042D01*
X107539874Y-127269189D01*
X107532866Y-127287309D01*
X107528758Y-127297995D01*
X107520499Y-127319670D01*
X107510342Y-127346466D01*
X107499622Y-127374869D01*
X107491878Y-127395152D01*
X107480458Y-127424214D01*
X107470073Y-127449744D01*
X107462277Y-127467876D01*
X107437911Y-127521082D01*
X107403701Y-127594842D01*
X107370579Y-127665205D01*
X107340337Y-127728344D01*
X107334315Y-127740568D01*
X107316040Y-127774673D01*
X107300384Y-127799051D01*
X107287876Y-127812853D01*
X107287780Y-127812927D01*
X107278571Y-127825955D01*
X107280028Y-127839961D01*
X107291773Y-127851247D01*
X107296887Y-127854134D01*
X107311674Y-127863080D01*
X107331983Y-127875751D01*
X107354996Y-127890401D01*
X107369159Y-127899503D01*
X107390839Y-127913434D01*
X107408059Y-127924494D01*
X107418001Y-127930874D01*
X107418962Y-127931487D01*
X107442673Y-127944180D01*
X107460444Y-127947551D01*
X107473996Y-127941470D01*
X107485050Y-127925806D01*
X107490754Y-127916353D01*
X107502453Y-127899634D01*
X107516471Y-127881356D01*
X107522989Y-127873176D01*
X107544955Y-127845018D01*
X107571703Y-127810060D01*
X107601596Y-127770452D01*
X107632996Y-127728344D01*
X107633301Y-127727933D01*
X107646924Y-127710076D01*
X107665680Y-127686138D01*
X107687135Y-127659198D01*
X107708856Y-127632336D01*
X107716228Y-127623262D01*
X107740752Y-127592728D01*
X107768637Y-127557621D01*
X107796983Y-127521601D01*
X107822894Y-127488325D01*
X107848748Y-127454969D01*
X107883649Y-127410294D01*
X107913829Y-127372220D01*
X107940776Y-127338912D01*
X107965980Y-127308539D01*
X107990929Y-127279268D01*
X108017111Y-127249267D01*
X108019671Y-127246360D01*
X108041927Y-127220928D01*
X108063049Y-127196542D01*
X108080761Y-127175844D01*
X108092783Y-127161477D01*
X108105945Y-127145616D01*
X108126357Y-127121447D01*
X108151437Y-127092026D01*
X108179492Y-127059319D01*
X108208826Y-127025291D01*
X108237744Y-126991907D01*
X108264552Y-126961134D01*
X108287555Y-126934936D01*
X108305058Y-126915280D01*
X108308311Y-126911665D01*
X108331629Y-126885352D01*
X108356569Y-126856691D01*
X108378258Y-126831273D01*
X108385634Y-126822523D01*
X108401414Y-126803958D01*
X108413908Y-126789469D01*
X108420911Y-126781620D01*
X108426226Y-126775635D01*
X108437520Y-126762175D01*
X108450993Y-126745618D01*
X108464372Y-126729474D01*
X108486677Y-126704051D01*
X108515477Y-126672569D01*
X108551819Y-126633868D01*
X108554744Y-126630711D01*
X108566430Y-126617650D01*
X108582311Y-126599539D01*
X108599823Y-126579295D01*
X108605166Y-126573085D01*
X108624697Y-126550527D01*
X108643230Y-126529305D01*
X108657369Y-126513315D01*
X108658943Y-126511556D01*
X108672232Y-126496702D01*
X108690880Y-126475852D01*
X108712634Y-126451525D01*
X108735241Y-126426241D01*
X108742310Y-126418345D01*
X108762108Y-126396334D01*
X108778578Y-126378177D01*
X108790172Y-126365576D01*
X108795337Y-126360236D01*
X108797855Y-126357651D01*
X108806996Y-126347348D01*
X108820820Y-126331315D01*
X108837473Y-126311686D01*
X108843449Y-126304607D01*
X108870658Y-126272701D01*
X108899276Y-126239587D01*
X108927776Y-126206995D01*
X108954633Y-126176652D01*
X108978317Y-126150285D01*
X108997303Y-126129623D01*
X109010063Y-126116393D01*
X109014425Y-126112022D01*
X109030614Y-126094420D01*
X109043866Y-126078204D01*
X109052210Y-126067936D01*
X109067377Y-126050625D01*
X109086611Y-126029480D01*
X109107663Y-126007010D01*
X109111923Y-126002518D01*
X109136273Y-125976454D01*
X109164675Y-125945573D01*
X109193938Y-125913361D01*
X109220872Y-125883306D01*
X109235081Y-125867335D01*
X109271960Y-125826089D01*
X109311427Y-125782194D01*
X109351972Y-125737311D01*
X109392089Y-125693099D01*
X109430268Y-125651220D01*
X109465002Y-125613332D01*
X109494782Y-125581097D01*
X109518100Y-125556173D01*
X109551905Y-125520322D01*
X109587152Y-125482634D01*
X109617543Y-125449718D01*
X109645016Y-125419469D01*
X109671508Y-125389787D01*
X109701912Y-125355945D01*
X109745467Y-125308664D01*
X109794354Y-125256649D01*
X109847231Y-125201262D01*
X109902757Y-125143863D01*
X109959592Y-125085812D01*
X110016393Y-125028470D01*
X110071820Y-124973197D01*
X110124531Y-124921354D01*
X110173184Y-124874302D01*
X110216439Y-124833400D01*
X110252953Y-124800011D01*
X110274234Y-124780916D01*
X110302058Y-124755707D01*
X110328182Y-124731805D01*
X110348961Y-124712529D01*
X110352109Y-124709588D01*
X110375617Y-124688237D01*
X110400181Y-124666764D01*
X110420967Y-124649407D01*
X110436091Y-124637182D01*
X110464785Y-124613401D01*
X110493187Y-124588890D01*
X110525755Y-124559842D01*
X110548535Y-124539571D01*
X110578970Y-124513307D01*
X110606698Y-124490279D01*
X110629707Y-124472148D01*
X110645984Y-124460577D01*
X110658729Y-124452019D01*
X110677786Y-124438489D01*
X110697924Y-124423639D01*
X110699074Y-124422776D01*
X110716293Y-124410302D01*
X110729640Y-124401448D01*
X110736309Y-124398082D01*
X110740257Y-124396308D01*
X110751484Y-124388680D01*
X110766386Y-124377080D01*
X110777032Y-124368600D01*
X110789303Y-124359580D01*
X110795492Y-124356078D01*
X110799876Y-124354016D01*
X110811677Y-124346555D01*
X110827580Y-124335523D01*
X110864194Y-124312665D01*
X110910672Y-124289557D01*
X110961343Y-124269022D01*
X111012207Y-124252675D01*
X111059266Y-124242125D01*
X111091197Y-124238474D01*
X111127964Y-124236680D01*
X111165283Y-124236759D01*
X111199017Y-124238702D01*
X111225030Y-124242498D01*
X111252894Y-124250419D01*
X111289260Y-124263563D01*
X111328289Y-124279958D01*
X111366041Y-124298052D01*
X111375007Y-124302769D01*
X111402321Y-124318124D01*
X111430658Y-124335242D01*
X111457711Y-124352612D01*
X111481175Y-124368723D01*
X111498742Y-124382064D01*
X111508106Y-124391123D01*
X111513090Y-124397198D01*
X111525496Y-124411131D01*
X111543429Y-124430686D01*
X111565362Y-124454198D01*
X111589765Y-124480005D01*
X111609420Y-124500881D01*
X111632499Y-124525999D01*
X111652059Y-124547960D01*
X111666487Y-124564944D01*
X111674170Y-124575135D01*
X111674328Y-124575394D01*
X111685223Y-124590592D01*
X111696067Y-124602098D01*
X111700790Y-124606977D01*
X111712099Y-124621624D01*
X111726137Y-124641938D01*
X111740947Y-124664942D01*
X111754573Y-124687657D01*
X111765057Y-124707106D01*
X111768416Y-124713687D01*
X111778606Y-124732407D01*
X111789947Y-124752109D01*
X111806008Y-124779803D01*
X111825988Y-124815812D01*
X111846082Y-124853469D01*
X111865432Y-124891045D01*
X111883184Y-124926809D01*
X111898482Y-124959031D01*
X111910468Y-124985980D01*
X111918288Y-125005928D01*
X111921085Y-125017143D01*
X111923450Y-125025002D01*
X111929663Y-125040360D01*
X111938377Y-125059884D01*
X111945429Y-125075105D01*
X111959934Y-125106714D01*
X111970127Y-125129545D01*
X111976634Y-125145063D01*
X111980080Y-125154734D01*
X111981089Y-125160024D01*
X111983218Y-125167534D01*
X111989844Y-125179926D01*
X111989906Y-125180020D01*
X111996016Y-125192546D01*
X112003595Y-125212361D01*
X112011016Y-125235219D01*
X112011322Y-125236248D01*
X112018254Y-125258360D01*
X112024622Y-125276662D01*
X112029085Y-125287284D01*
X112031781Y-125293647D01*
X112037450Y-125310539D01*
X112044483Y-125333888D01*
X112052002Y-125360643D01*
X112059129Y-125387751D01*
X112064987Y-125412161D01*
X112068934Y-125426960D01*
X112076126Y-125450409D01*
X112084908Y-125477077D01*
X112093883Y-125502740D01*
X112101656Y-125523170D01*
X112103757Y-125528321D01*
X112114240Y-125554604D01*
X112120782Y-125572505D01*
X112124148Y-125584269D01*
X112125101Y-125592142D01*
X112125231Y-125593934D01*
X112127831Y-125606781D01*
X112133084Y-125626604D01*
X112140084Y-125649914D01*
X112141444Y-125654219D01*
X112149274Y-125679486D01*
X112156116Y-125702304D01*
X112160621Y-125718186D01*
X112160857Y-125719076D01*
X112165514Y-125735983D01*
X112172118Y-125759275D01*
X112179320Y-125784191D01*
X112179716Y-125785550D01*
X112186781Y-125811105D01*
X112192885Y-125835347D01*
X112196745Y-125853196D01*
X112200391Y-125870162D01*
X112206457Y-125894245D01*
X112213425Y-125919201D01*
X112223392Y-125954059D01*
X112234149Y-125993918D01*
X112243943Y-126032384D01*
X112251923Y-126066097D01*
X112257234Y-126091699D01*
X112259008Y-126100821D01*
X112262838Y-126116988D01*
X112265958Y-126125969D01*
X112267440Y-126129630D01*
X112271532Y-126143575D01*
X112276991Y-126164736D01*
X112283137Y-126190247D01*
X112289286Y-126217242D01*
X112294758Y-126242858D01*
X112298870Y-126264229D01*
X112298877Y-126264272D01*
X112302671Y-126284043D01*
X112308062Y-126309892D01*
X112313885Y-126336234D01*
X112314850Y-126340472D01*
X112321486Y-126370036D01*
X112328923Y-126403722D01*
X112335725Y-126435040D01*
X112337919Y-126445117D01*
X112343805Y-126470991D01*
X112349134Y-126492939D01*
X112352969Y-126507046D01*
X112353650Y-126509414D01*
X112357285Y-126524655D01*
X112362300Y-126548207D01*
X112368127Y-126577323D01*
X112374193Y-126609256D01*
X112375661Y-126617175D01*
X112381718Y-126649504D01*
X112387329Y-126678943D01*
X112391923Y-126702521D01*
X112394930Y-126717264D01*
X112396482Y-126724795D01*
X112400532Y-126745921D01*
X112405430Y-126772748D01*
X112410437Y-126801271D01*
X112417711Y-126842529D01*
X112429141Y-126904056D01*
X112440908Y-126964031D01*
X112452017Y-127017286D01*
X112456546Y-127040353D01*
X112459861Y-127061544D01*
X112461127Y-127075704D01*
X112461228Y-127079190D01*
X112463221Y-127097465D01*
X112466961Y-127117710D01*
X112472905Y-127147304D01*
X112479336Y-127185440D01*
X112485645Y-127228315D01*
X112491262Y-127272308D01*
X112492057Y-127278923D01*
X112495912Y-127308688D01*
X112500613Y-127342522D01*
X112505318Y-127374316D01*
X112505714Y-127376897D01*
X112510112Y-127406038D01*
X112515470Y-127442228D01*
X112521146Y-127481110D01*
X112526501Y-127518327D01*
X112526960Y-127521544D01*
X112532465Y-127559539D01*
X112538332Y-127599176D01*
X112543888Y-127635946D01*
X112548458Y-127665339D01*
X112549973Y-127675095D01*
X112555034Y-127710676D01*
X112559737Y-127747625D01*
X112563225Y-127779348D01*
X112565905Y-127805639D01*
X112569678Y-127840456D01*
X112573941Y-127878223D01*
X112578186Y-127914358D01*
X112581389Y-127941934D01*
X112584551Y-127971766D01*
X112587544Y-128003360D01*
X112590503Y-128038419D01*
X112593563Y-128078648D01*
X112596861Y-128125749D01*
X112600533Y-128181427D01*
X112604713Y-128247385D01*
X112605744Y-128263139D01*
X112608451Y-128299561D01*
X112611397Y-128333743D01*
X112614288Y-128362437D01*
X112616834Y-128382395D01*
X112619629Y-128400255D01*
X112624565Y-128431955D01*
X112629048Y-128460893D01*
X112629468Y-128463742D01*
X112632342Y-128490614D01*
X112634372Y-128522374D01*
X112635141Y-128552744D01*
X112635154Y-128556307D01*
X112636116Y-128587360D01*
X112638297Y-128619130D01*
X112641276Y-128645260D01*
X112641890Y-128649660D01*
X112644284Y-128673280D01*
X112646830Y-128707639D01*
X112649482Y-128751745D01*
X112652194Y-128804604D01*
X112654921Y-128865223D01*
X112657617Y-128932611D01*
X112660238Y-129005775D01*
X112662738Y-129083721D01*
X112665070Y-129165457D01*
X112665309Y-129174521D01*
X112667753Y-129311154D01*
X112668169Y-129449408D01*
X112666621Y-129587593D01*
X112663177Y-129724018D01*
X112657902Y-129856991D01*
X112650863Y-129984822D01*
X112642126Y-130105819D01*
X112631757Y-130218291D01*
X112619823Y-130320548D01*
X112615918Y-130350335D01*
X112610722Y-130390169D01*
X112605868Y-130427593D01*
X112601766Y-130459444D01*
X112598826Y-130482561D01*
X112598615Y-130484228D01*
X112594874Y-130510814D01*
X112589628Y-130544684D01*
X112583542Y-130581663D01*
X112577283Y-130617571D01*
X112576651Y-130621078D01*
X112567468Y-130672045D01*
X112560040Y-130713288D01*
X112554013Y-130746772D01*
X112549036Y-130774463D01*
X112544755Y-130798325D01*
X112540817Y-130820323D01*
X112536870Y-130842424D01*
X112532559Y-130866591D01*
X112528230Y-130890055D01*
X112522070Y-130921306D01*
X112516226Y-130948840D01*
X112511534Y-130968599D01*
X112508173Y-130981345D01*
X112502119Y-131004426D01*
X112497388Y-131022603D01*
X112494379Y-131034122D01*
X112488521Y-131056236D01*
X112482261Y-131079608D01*
X112479492Y-131089897D01*
X112475200Y-131105989D01*
X112471086Y-131121703D01*
X112466375Y-131140042D01*
X112460292Y-131164012D01*
X112452062Y-131196617D01*
X112450861Y-131201373D01*
X112446012Y-131220256D01*
X112441527Y-131236806D01*
X112436586Y-131253772D01*
X112430365Y-131273899D01*
X112422046Y-131299936D01*
X112410805Y-131334628D01*
X112405911Y-131349751D01*
X112394496Y-131385358D01*
X112383099Y-131421272D01*
X112373585Y-131451637D01*
X112369530Y-131464510D01*
X112362159Y-131486888D01*
X112356239Y-131503564D01*
X112352772Y-131511642D01*
X112348951Y-131519891D01*
X112342697Y-131536084D01*
X112335408Y-131556630D01*
X112328376Y-131576662D01*
X112313114Y-131617771D01*
X112295643Y-131662597D01*
X112277477Y-131707369D01*
X112260130Y-131748314D01*
X112245114Y-131781663D01*
X112242894Y-131786384D01*
X112230189Y-131813863D01*
X112217920Y-131841045D01*
X112208466Y-131862669D01*
X112205087Y-131870240D01*
X112195578Y-131890379D01*
X112182002Y-131918366D01*
X112165246Y-131952432D01*
X112146197Y-131990810D01*
X112125744Y-132031733D01*
X112104773Y-132073431D01*
X112084172Y-132114139D01*
X112064828Y-132152087D01*
X112047629Y-132185508D01*
X112033462Y-132212634D01*
X112023214Y-132231698D01*
X112013310Y-132249183D01*
X111997519Y-132276011D01*
X111983190Y-132299320D01*
X111973828Y-132314440D01*
X111966068Y-132327878D01*
X111963088Y-132334342D01*
X111962002Y-132337139D01*
X111955875Y-132347760D01*
X111946146Y-132362728D01*
X111929548Y-132387454D01*
X111900818Y-132431494D01*
X111874699Y-132473104D01*
X111851905Y-132511049D01*
X111833146Y-132544098D01*
X111819136Y-132571015D01*
X111810586Y-132590570D01*
X111808209Y-132601528D01*
X111811319Y-132610347D01*
X111819219Y-132613675D01*
X111821380Y-132613252D01*
X111834823Y-132611184D01*
X111856965Y-132608131D01*
X111885405Y-132604398D01*
X111917740Y-132600292D01*
X111951568Y-132596120D01*
X111984486Y-132592188D01*
X112014092Y-132588804D01*
X112035905Y-132586292D01*
X112074386Y-132581604D01*
X112118318Y-132576036D01*
X112163929Y-132570076D01*
X112207450Y-132564210D01*
X112245110Y-132558927D01*
X112259179Y-132556918D01*
X112341894Y-132545880D01*
X112423478Y-132536248D01*
X112500402Y-132528418D01*
X112569136Y-132522781D01*
X112580028Y-132522008D01*
X112623261Y-132518688D01*
X112668958Y-132514855D01*
X112712304Y-132510924D01*
X112748486Y-132507312D01*
X112772424Y-132505157D01*
X112812123Y-132502593D01*
X112857019Y-132500554D01*
X112903217Y-132499206D01*
X112946824Y-132498719D01*
X112962853Y-132498725D01*
X112999672Y-132498859D01*
X113027195Y-132499327D01*
X113047407Y-132500328D01*
X113062292Y-132502063D01*
X113073836Y-132504733D01*
X113084024Y-132508538D01*
X113094841Y-132513680D01*
X113117647Y-132527472D01*
X113140727Y-132550988D01*
X113156092Y-132581962D01*
X113159363Y-132600668D01*
X113159590Y-132628280D01*
X113156901Y-132660392D01*
X113151732Y-132693453D01*
X113144518Y-132723912D01*
X113140497Y-132734989D01*
X113135695Y-132748216D01*
G37*
%TD*%
M02*
